G04 start of page 2 for group 0 idx 0 *
G04 Title: (unknown), component *
G04 Creator: pcb-gtk 20110918 *
G04 CreationDate: Mi 12 Jun 2013 16:26:30 GMT UTC *
G04 For: laforge *
G04 Format: Gerber/RS-274X *
G04 PCB-Dimensions: 787402 500000 *
G04 PCB-Coordinate-Origin: lower left *
%MOIN*%
%FSLAX25Y25*%
%LNTOP*%
%ADD14R,0.0866X0.0866*%
%ADD13R,0.0354X0.0354*%
%ADD12C,0.0315*%
%ADD11C,0.0197*%
G54D11*X30907Y478339D02*X38387D01*
X81536Y467318D02*X78450D01*
G54D12*X79380D03*
G54D11*X78450D02*X77224Y466092D01*
X68494Y479126D02*X67116D01*
X66337Y478347D01*
X84672Y479126D02*X81634D01*
X78890D02*X88984D01*
G54D12*X97216D02*X75852D01*
D03*
X77028Y475189D03*
X77812Y471252D03*
G54D11*X36025Y447630D02*X30907Y452748D01*
X35237Y444087D02*X27757Y451567D01*
X38775Y451392D02*X37599Y452568D01*
Y452748D02*Y458260D01*
X30907Y452748D02*Y466528D01*
X32481Y468103D01*
X37993D01*
X27757Y451567D02*Y475189D01*
X30907Y478339D01*
X78907Y475189D02*X76129D01*
X72324Y471384D01*
X69216D01*
X66336Y468505D01*
X80948Y471252D02*X76896D01*
X73892Y468248D01*
Y444087D02*X75211D01*
X73108Y447630D02*X73854D01*
X73819Y444087D02*X35237D01*
X73032Y447630D02*X36025D01*
X73696Y452764D02*X72324Y451392D01*
X38775D01*
X682467Y471260D02*X81300Y471252D01*
X682467Y463387D02*X82087Y463378D01*
X682469Y467315D02*X81696Y467318D01*
X81310Y463378D02*X82546D01*
D03*
G54D12*X97608Y467318D02*X79380D01*
G54D11*X682467Y459450D02*X86654D01*
X682467Y475197D02*X78938Y475189D01*
X682467Y479134D02*X68308Y479126D01*
G54D12*X97412Y475189D02*X77028D01*
X97608Y471252D02*X77812D01*
X97608Y463378D02*X82124D01*
D03*
X97608Y459450D02*X87612D01*
X87416D02*X87242D01*
X87220D02*Y459428D01*
G54D11*X73892Y468248D02*Y460604D01*
X77224Y466092D02*Y459036D01*
X73892Y460604D02*X72128Y458840D01*
X66514D01*
X66336Y458663D01*
X77224Y459036D02*X73696Y455508D01*
Y452568D01*
X75211Y444087D02*X81536Y450412D01*
X73854Y447630D02*X77616Y451392D01*
Y454920D01*
X79674Y456978D02*X79968Y457272D01*
X77616Y454920D02*X80262Y457566D01*
X82516Y454724D02*X81928Y454136D01*
Y450804D01*
X81340Y450216D02*X81928Y450804D01*
X80262Y457566D02*Y462330D01*
X81310Y463378D01*
G54D12*X86654Y458862D02*X82516Y454724D01*
G54D13*X676365Y479134D02*X688569D01*
G54D14*X65549Y458663D02*X67124D01*
X65549Y468505D02*X67124D01*
X65549Y478347D02*X67124D01*
X37597Y458663D02*X39172D01*
X37597Y468505D02*X39172D01*
X37597Y478347D02*X39172D01*
G54D13*X676365Y475197D02*X688569D01*
X676365Y471260D02*X688569D01*
X676365Y467324D02*X688569D01*
X676365Y463387D02*X688569D01*
X676365Y459450D02*X688569D01*
M02*
