G04 (created by PCBNEW-RS274X (2011-07-02 BZR 3034)-testing) date Sat 25 Feb 2012 03:47:28 PM CET*
G01*
G70*
G90*
%MOIN*%
G04 Gerber Fmt 3.4, Leading zero omitted, Abs format*
%FSLAX34Y34*%
G04 APERTURE LIST*
%ADD10C,0.006000*%
%ADD11C,0.012000*%
%ADD12C,0.015000*%
%ADD13C,0.010000*%
%ADD14C,0.106600*%
%ADD15C,0.149900*%
%ADD16C,0.080000*%
G04 APERTURE END LIST*
G54D10*
G54D11*
X44216Y-35524D02*
X44216Y-34724D01*
X44359Y-34724D01*
X44444Y-34762D01*
X44502Y-34838D01*
X44530Y-34914D01*
X44559Y-35067D01*
X44559Y-35181D01*
X44530Y-35333D01*
X44502Y-35410D01*
X44444Y-35486D01*
X44359Y-35524D01*
X44216Y-35524D01*
X45073Y-34990D02*
X45073Y-35524D01*
X44930Y-34686D02*
X44787Y-35257D01*
X45159Y-35257D01*
X45673Y-34724D02*
X45387Y-34724D01*
X45358Y-35105D01*
X45387Y-35067D01*
X45444Y-35029D01*
X45587Y-35029D01*
X45644Y-35067D01*
X45673Y-35105D01*
X45701Y-35181D01*
X45701Y-35371D01*
X45673Y-35448D01*
X45644Y-35486D01*
X45587Y-35524D01*
X45444Y-35524D01*
X45387Y-35486D01*
X45358Y-35448D01*
X46272Y-35524D02*
X45929Y-35524D01*
X46101Y-35524D02*
X46101Y-34724D01*
X46044Y-34838D01*
X45986Y-34914D01*
X45929Y-34952D01*
X46557Y-35524D02*
X46672Y-35524D01*
X46729Y-35486D01*
X46757Y-35448D01*
X46815Y-35333D01*
X46843Y-35181D01*
X46843Y-34876D01*
X46815Y-34800D01*
X46786Y-34762D01*
X46729Y-34724D01*
X46615Y-34724D01*
X46557Y-34762D01*
X46529Y-34800D01*
X46500Y-34876D01*
X46500Y-35067D01*
X46529Y-35143D01*
X46557Y-35181D01*
X46615Y-35219D01*
X46729Y-35219D01*
X46786Y-35181D01*
X46815Y-35143D01*
X46843Y-35067D01*
X47043Y-34724D02*
X47443Y-34724D01*
X47186Y-35524D01*
G54D12*
X23800Y-20300D02*
X23800Y-36600D01*
X48800Y-20300D02*
X23800Y-20300D01*
X48800Y-36600D02*
X48800Y-20300D01*
X23800Y-36600D02*
X48800Y-36600D01*
G54D13*
X24095Y-20526D02*
X48505Y-20526D01*
X48505Y-20526D02*
X48505Y-36274D01*
X48505Y-36274D02*
X24095Y-36274D01*
X24095Y-36274D02*
X24095Y-20526D01*
G54D11*
X35858Y-29745D02*
X35858Y-29145D01*
X36086Y-29145D01*
X36144Y-29173D01*
X36172Y-29202D01*
X36201Y-29259D01*
X36201Y-29345D01*
X36172Y-29402D01*
X36144Y-29431D01*
X36086Y-29459D01*
X35858Y-29459D01*
X36429Y-29202D02*
X36458Y-29173D01*
X36515Y-29145D01*
X36658Y-29145D01*
X36715Y-29173D01*
X36744Y-29202D01*
X36772Y-29259D01*
X36772Y-29316D01*
X36744Y-29402D01*
X36401Y-29745D01*
X36772Y-29745D01*
X33701Y-27659D02*
X33701Y-27059D01*
X33958Y-27630D02*
X34044Y-27659D01*
X34187Y-27659D01*
X34244Y-27630D01*
X34273Y-27602D01*
X34301Y-27545D01*
X34301Y-27487D01*
X34273Y-27430D01*
X34244Y-27402D01*
X34187Y-27373D01*
X34073Y-27345D01*
X34015Y-27316D01*
X33987Y-27287D01*
X33958Y-27230D01*
X33958Y-27173D01*
X33987Y-27116D01*
X34015Y-27087D01*
X34073Y-27059D01*
X34215Y-27059D01*
X34301Y-27087D01*
X34672Y-27059D02*
X34786Y-27059D01*
X34844Y-27087D01*
X34901Y-27145D01*
X34929Y-27259D01*
X34929Y-27459D01*
X34901Y-27573D01*
X34844Y-27630D01*
X34786Y-27659D01*
X34672Y-27659D01*
X34615Y-27630D01*
X34558Y-27573D01*
X34529Y-27459D01*
X34529Y-27259D01*
X34558Y-27145D01*
X34615Y-27087D01*
X34672Y-27059D01*
X35130Y-27059D02*
X35530Y-27059D01*
X35273Y-27659D01*
X35844Y-27316D02*
X35786Y-27287D01*
X35758Y-27259D01*
X35729Y-27202D01*
X35729Y-27173D01*
X35758Y-27116D01*
X35786Y-27087D01*
X35844Y-27059D01*
X35958Y-27059D01*
X36015Y-27087D01*
X36044Y-27116D01*
X36072Y-27173D01*
X36072Y-27202D01*
X36044Y-27259D01*
X36015Y-27287D01*
X35958Y-27316D01*
X35844Y-27316D01*
X35786Y-27345D01*
X35758Y-27373D01*
X35729Y-27430D01*
X35729Y-27545D01*
X35758Y-27602D01*
X35786Y-27630D01*
X35844Y-27659D01*
X35958Y-27659D01*
X36015Y-27630D01*
X36044Y-27602D01*
X36072Y-27545D01*
X36072Y-27430D01*
X36044Y-27373D01*
X36015Y-27345D01*
X35958Y-27316D01*
X36643Y-27659D02*
X36300Y-27659D01*
X36472Y-27659D02*
X36472Y-27059D01*
X36415Y-27145D01*
X36357Y-27202D01*
X36300Y-27230D01*
X37157Y-27059D02*
X37043Y-27059D01*
X36986Y-27087D01*
X36957Y-27116D01*
X36900Y-27202D01*
X36871Y-27316D01*
X36871Y-27545D01*
X36900Y-27602D01*
X36928Y-27630D01*
X36986Y-27659D01*
X37100Y-27659D01*
X37157Y-27630D01*
X37186Y-27602D01*
X37214Y-27545D01*
X37214Y-27402D01*
X37186Y-27345D01*
X37157Y-27316D01*
X37100Y-27287D01*
X36986Y-27287D01*
X36928Y-27316D01*
X36900Y-27345D01*
X36871Y-27402D01*
X37328Y-27716D02*
X37785Y-27716D01*
X37928Y-27659D02*
X37928Y-27059D01*
X38271Y-27659D01*
X38271Y-27059D01*
X38671Y-27059D02*
X38785Y-27059D01*
X38843Y-27087D01*
X38900Y-27145D01*
X38928Y-27259D01*
X38928Y-27459D01*
X38900Y-27573D01*
X38843Y-27630D01*
X38785Y-27659D01*
X38671Y-27659D01*
X38614Y-27630D01*
X38557Y-27573D01*
X38528Y-27459D01*
X38528Y-27259D01*
X38557Y-27145D01*
X38614Y-27087D01*
X38671Y-27059D01*
%LPC*%
G54D14*
X24883Y-28400D03*
X47717Y-28400D03*
G54D15*
X24883Y-24463D03*
X24883Y-32337D03*
X47717Y-24463D03*
X47717Y-32337D03*
G54D16*
X39009Y-20900D03*
X38009Y-20900D03*
X37009Y-20900D03*
X36009Y-20900D03*
X39009Y-35900D03*
X38009Y-35900D03*
X37009Y-35900D03*
X36009Y-35900D03*
X34509Y-35900D03*
X34509Y-34900D03*
M02*
