M48
;DRILL file {PCBnew (2011-07-02 BZR 3034)-testing} date Sat 25 Feb 2012 03:47:42 PM CET
;FORMAT={-:-/ absolute / metric / decimal}
FMAT,2
METRIC,TZ
T1C0.599
T2C1.001
T3C2.200
T4C3.299
%
G90
G05
M71
T1
X90.170Y78.232
X91.440Y76.708
X93.980Y81.026
X93.980Y85.090
X96.520Y78.232
X96.520Y82.296
X96.520Y85.090
X99.060Y76.708
T2
X87.653Y88.646
X87.653Y91.186
X91.463Y53.086
X91.463Y91.186
X94.003Y53.086
X94.003Y91.186
X96.543Y53.086
X96.543Y91.186
X99.083Y53.086
X99.083Y91.186
T3
X63.203Y72.136
X121.201Y72.136
T4
X63.203Y62.136
X63.203Y82.136
X121.201Y62.136
X121.201Y82.136
T0
M30
