G04 (created by PCBNEW-RS274X (2011-07-02 BZR 3034)-testing) date Sat 25 Feb 2012 03:47:28 PM CET*
G01*
G70*
G90*
%MOIN*%
G04 Gerber Fmt 3.4, Leading zero omitted, Abs format*
%FSLAX34Y34*%
G04 APERTURE LIST*
%ADD10C,0.006000*%
%ADD11C,0.012000*%
%ADD12C,0.015000*%
%ADD13C,0.106600*%
%ADD14C,0.149900*%
%ADD15C,0.080000*%
%ADD16R,0.043600X0.098700*%
%ADD17R,0.047600X0.185400*%
G04 APERTURE END LIST*
G54D10*
G54D11*
X47384Y-35524D02*
X47384Y-34724D01*
X47241Y-34724D01*
X47156Y-34762D01*
X47098Y-34838D01*
X47070Y-34914D01*
X47041Y-35067D01*
X47041Y-35181D01*
X47070Y-35333D01*
X47098Y-35410D01*
X47156Y-35486D01*
X47241Y-35524D01*
X47384Y-35524D01*
X46527Y-34990D02*
X46527Y-35524D01*
X46670Y-34686D02*
X46813Y-35257D01*
X46441Y-35257D01*
X45927Y-34724D02*
X46213Y-34724D01*
X46242Y-35105D01*
X46213Y-35067D01*
X46156Y-35029D01*
X46013Y-35029D01*
X45956Y-35067D01*
X45927Y-35105D01*
X45899Y-35181D01*
X45899Y-35371D01*
X45927Y-35448D01*
X45956Y-35486D01*
X46013Y-35524D01*
X46156Y-35524D01*
X46213Y-35486D01*
X46242Y-35448D01*
X45328Y-35524D02*
X45671Y-35524D01*
X45499Y-35524D02*
X45499Y-34724D01*
X45556Y-34838D01*
X45614Y-34914D01*
X45671Y-34952D01*
X45043Y-35524D02*
X44928Y-35524D01*
X44871Y-35486D01*
X44843Y-35448D01*
X44785Y-35333D01*
X44757Y-35181D01*
X44757Y-34876D01*
X44785Y-34800D01*
X44814Y-34762D01*
X44871Y-34724D01*
X44985Y-34724D01*
X45043Y-34762D01*
X45071Y-34800D01*
X45100Y-34876D01*
X45100Y-35067D01*
X45071Y-35143D01*
X45043Y-35181D01*
X44985Y-35219D01*
X44871Y-35219D01*
X44814Y-35181D01*
X44785Y-35143D01*
X44757Y-35067D01*
X44557Y-34724D02*
X44157Y-34724D01*
X44414Y-35524D01*
G54D12*
X23800Y-20300D02*
X23800Y-36600D01*
X48800Y-20300D02*
X23800Y-20300D01*
X48800Y-36600D02*
X48800Y-20300D01*
X23800Y-36600D02*
X48800Y-36600D01*
X32987Y-35693D02*
X32987Y-34000D01*
X32987Y-34000D02*
X28813Y-34000D01*
X28813Y-34000D02*
X28813Y-35693D01*
X33617Y-36165D02*
X33617Y-35693D01*
X28183Y-36165D02*
X28183Y-35693D01*
X33617Y-36165D02*
X28183Y-36165D01*
X28183Y-35693D02*
X33617Y-35693D01*
G54D11*
X31342Y-36999D02*
X31342Y-36399D01*
X31114Y-36399D01*
X31056Y-36427D01*
X31028Y-36456D01*
X30999Y-36513D01*
X30999Y-36599D01*
X31028Y-36656D01*
X31056Y-36685D01*
X31114Y-36713D01*
X31342Y-36713D01*
X30428Y-36999D02*
X30771Y-36999D01*
X30599Y-36999D02*
X30599Y-36399D01*
X30656Y-36485D01*
X30714Y-36542D01*
X30771Y-36570D01*
X32571Y-32629D02*
X32771Y-32343D01*
X32914Y-32629D02*
X32914Y-32029D01*
X32686Y-32029D01*
X32628Y-32057D01*
X32600Y-32086D01*
X32571Y-32143D01*
X32571Y-32229D01*
X32600Y-32286D01*
X32628Y-32315D01*
X32686Y-32343D01*
X32914Y-32343D01*
X32314Y-32315D02*
X32114Y-32315D01*
X32028Y-32629D02*
X32314Y-32629D01*
X32314Y-32029D01*
X32028Y-32029D01*
X31571Y-32315D02*
X31485Y-32343D01*
X31457Y-32372D01*
X31428Y-32429D01*
X31428Y-32515D01*
X31457Y-32572D01*
X31485Y-32600D01*
X31543Y-32629D01*
X31771Y-32629D01*
X31771Y-32029D01*
X31571Y-32029D01*
X31514Y-32057D01*
X31485Y-32086D01*
X31457Y-32143D01*
X31457Y-32200D01*
X31485Y-32257D01*
X31514Y-32286D01*
X31571Y-32315D01*
X31771Y-32315D01*
X31171Y-32315D02*
X30971Y-32315D01*
X30885Y-32629D02*
X31171Y-32629D01*
X31171Y-32029D01*
X30885Y-32029D01*
X30342Y-32629D02*
X30628Y-32629D01*
X30628Y-32029D01*
X30171Y-32600D02*
X30085Y-32629D01*
X29942Y-32629D01*
X29885Y-32600D01*
X29856Y-32572D01*
X29828Y-32515D01*
X29828Y-32457D01*
X29856Y-32400D01*
X29885Y-32372D01*
X29942Y-32343D01*
X30056Y-32315D01*
X30114Y-32286D01*
X30142Y-32257D01*
X30171Y-32200D01*
X30171Y-32143D01*
X30142Y-32086D01*
X30114Y-32057D01*
X30056Y-32029D01*
X29914Y-32029D01*
X29828Y-32057D01*
X29571Y-32629D02*
X29571Y-32029D01*
X29285Y-32629D02*
X29285Y-32029D01*
X29085Y-32457D01*
X28885Y-32029D01*
X28885Y-32629D01*
%LPC*%
G54D13*
X24883Y-28400D03*
X47717Y-28400D03*
G54D14*
X24883Y-24463D03*
X24883Y-32337D03*
X47717Y-24463D03*
X47717Y-32337D03*
G54D15*
X39009Y-20900D03*
X38009Y-20900D03*
X37009Y-20900D03*
X36009Y-20900D03*
X39009Y-35900D03*
X38009Y-35900D03*
X37009Y-35900D03*
X36009Y-35900D03*
X34509Y-35900D03*
X34509Y-34900D03*
G54D16*
X31884Y-33803D03*
X31491Y-33803D03*
X31097Y-33803D03*
X30703Y-33803D03*
X30309Y-33803D03*
X29916Y-33803D03*
G54D17*
X32278Y-34630D03*
X29522Y-34630D03*
M02*
