G04 (created by PCBNEW-RS274X (2011-06-08)-testing) date Sa 02 Jul 2011 11:16:49 CEST*
G01*
G70*
G90*
%MOIN*%
G04 Gerber Fmt 3.4, Leading zero omitted, Abs format*
%FSLAX34Y34*%
G04 APERTURE LIST*
%ADD10C,0.006000*%
%ADD11R,0.196900X0.078700*%
%ADD12R,0.157500X0.078700*%
%ADD13C,0.035000*%
%ADD14C,0.008000*%
G04 APERTURE END LIST*
G54D10*
G54D11*
X14465Y-10267D03*
G54D12*
X14269Y-11267D03*
X14269Y-12267D03*
X14269Y-13267D03*
G54D11*
X17064Y-10267D03*
G54D12*
X17269Y-11267D03*
X17269Y-12267D03*
X17269Y-13267D03*
G54D11*
X26215Y-10267D03*
G54D12*
X26019Y-11267D03*
X26019Y-12267D03*
X26019Y-13267D03*
G54D11*
X28814Y-10267D03*
G54D12*
X29019Y-11267D03*
X29019Y-12267D03*
X29019Y-13267D03*
G54D11*
X14465Y-17867D03*
G54D12*
X14269Y-18867D03*
X14269Y-19867D03*
X14269Y-20867D03*
G54D11*
X17064Y-17867D03*
G54D12*
X17269Y-18867D03*
X17269Y-19867D03*
X17269Y-20867D03*
G54D11*
X26215Y-17917D03*
G54D12*
X26019Y-18917D03*
X26019Y-19917D03*
X26019Y-20917D03*
G54D11*
X28814Y-17917D03*
G54D12*
X29019Y-18917D03*
X29019Y-19917D03*
X29019Y-20917D03*
G54D13*
X27750Y-19400D03*
X15800Y-12250D03*
X19050Y-12250D03*
X17500Y-09450D03*
X30450Y-18900D03*
X26200Y-09350D03*
X24550Y-21050D03*
X27450Y-19900D03*
X15700Y-19600D03*
X30400Y-19850D03*
X28600Y-16900D03*
X14500Y-16850D03*
X15500Y-20650D03*
X19350Y-18800D03*
X27500Y-11300D03*
X27500Y-12200D03*
X30350Y-12250D03*
X31000Y-09850D03*
X19050Y-11250D03*
X31000Y-12650D03*
X15800Y-11250D03*
X15700Y-18900D03*
X20850Y-17900D03*
X15050Y-09350D03*
G54D14*
X26019Y-18917D02*
X27267Y-18917D01*
X27267Y-18917D02*
X27750Y-19400D01*
X14269Y-12267D02*
X15783Y-12267D01*
X15783Y-12267D02*
X15800Y-12250D01*
X17269Y-12267D02*
X19033Y-12267D01*
X19033Y-12267D02*
X19050Y-12250D01*
X17064Y-10267D02*
X17064Y-09886D01*
X17064Y-09886D02*
X17500Y-09450D01*
X29019Y-18917D02*
X30433Y-18917D01*
X30433Y-18917D02*
X30450Y-18900D01*
X26215Y-10267D02*
X26215Y-09365D01*
X26215Y-09365D02*
X26200Y-09350D01*
X26215Y-17917D02*
X24833Y-17917D01*
X24550Y-18200D02*
X24550Y-21050D01*
X24833Y-17917D02*
X24550Y-18200D01*
X26019Y-19917D02*
X27433Y-19917D01*
X27433Y-19917D02*
X27450Y-19900D01*
X14269Y-19867D02*
X15433Y-19867D01*
X15433Y-19867D02*
X15700Y-19600D01*
X29019Y-19917D02*
X30333Y-19917D01*
X30333Y-19917D02*
X30400Y-19850D01*
X28814Y-17917D02*
X28814Y-17114D01*
X28814Y-17114D02*
X28600Y-16900D01*
X14465Y-17867D02*
X14465Y-16885D01*
X14465Y-16885D02*
X14500Y-16850D01*
X17269Y-19867D02*
X16283Y-19867D01*
X16283Y-19867D02*
X15500Y-20650D01*
X17269Y-18867D02*
X19283Y-18867D01*
X19283Y-18867D02*
X19350Y-18800D01*
X26019Y-11267D02*
X27467Y-11267D01*
X27467Y-11267D02*
X27500Y-11300D01*
X26019Y-12267D02*
X27433Y-12267D01*
X27433Y-12267D02*
X27500Y-12200D01*
X29019Y-12267D02*
X30333Y-12267D01*
X30333Y-12267D02*
X30350Y-12250D01*
X28814Y-10267D02*
X30583Y-10267D01*
X30583Y-10267D02*
X31000Y-09850D01*
X17269Y-11267D02*
X19033Y-11267D01*
X19033Y-11267D02*
X19050Y-11250D01*
X29019Y-11267D02*
X30617Y-11267D01*
X31000Y-11650D02*
X31000Y-12650D01*
X30617Y-11267D02*
X31000Y-11650D01*
X14269Y-11267D02*
X15783Y-11267D01*
X15783Y-11267D02*
X15800Y-11250D01*
X14269Y-18867D02*
X15667Y-18867D01*
X15667Y-18867D02*
X15700Y-18900D01*
X17064Y-17867D02*
X20817Y-17867D01*
X20817Y-17867D02*
X20850Y-17900D01*
X14465Y-10267D02*
X14465Y-09935D01*
X14465Y-09935D02*
X15050Y-09350D01*
M02*
