M48
;DRILL file {PCBnew (2011-06-08)-testing} date Sa 02 Jul 2011 11:17:43 CEST
;FORMAT={-:-/ absolute / metric / decimal}
FMAT,2
METRIC,TZ
T1C0.635
%
G90
G05
M71
T1
X36.830Y-42.799
X38.227Y-23.749
X39.370Y-52.451
X39.878Y-48.006
X39.878Y-49.784
X40.132Y-28.575
X40.132Y-31.115
X44.450Y-24.003
X48.387Y-28.575
X48.387Y-31.115
X49.149Y-47.752
X52.959Y-45.466
X62.357Y-53.467
X66.548Y-23.749
X69.723Y-50.546
X69.850Y-28.702
X69.850Y-30.988
X70.485Y-49.276
X72.644Y-42.926
X77.089Y-31.115
X77.216Y-50.419
X77.343Y-48.006
X78.740Y-25.019
X78.740Y-32.131
T0
M30
