G04 (created by PCBNEW-RS274X (2011-06-08)-testing) date Sa 02 Jul 2011 11:16:49 CEST*
G01*
G70*
G90*
%MOIN*%
G04 Gerber Fmt 3.4, Leading zero omitted, Abs format*
%FSLAX34Y34*%
G04 APERTURE LIST*
%ADD10C,0.006000*%
%ADD11R,0.031500X0.118100*%
%ADD12R,0.118100X0.031500*%
%ADD13C,0.035000*%
%ADD14C,0.008000*%
G04 APERTURE END LIST*
G54D10*
G54D11*
X18184Y-20900D03*
X17791Y-20900D03*
X17397Y-20900D03*
X17003Y-20900D03*
X16609Y-20900D03*
X16216Y-20900D03*
G54D12*
X25850Y-20434D03*
X25850Y-20041D03*
X25850Y-19647D03*
X25850Y-19253D03*
X25850Y-18859D03*
X25850Y-18466D03*
X32300Y-10716D03*
X32300Y-11109D03*
X32300Y-11503D03*
X32300Y-11897D03*
X32300Y-12291D03*
X32300Y-12684D03*
G54D11*
X16266Y-10450D03*
X16659Y-10450D03*
X17053Y-10450D03*
X17447Y-10450D03*
X17841Y-10450D03*
X18234Y-10450D03*
G54D13*
X27750Y-19400D03*
X15800Y-12250D03*
X19050Y-12250D03*
X17500Y-09450D03*
X30450Y-18900D03*
X26200Y-09350D03*
X24550Y-21050D03*
X27450Y-19900D03*
X15700Y-19600D03*
X30400Y-19850D03*
X28600Y-16900D03*
X14500Y-16850D03*
X15500Y-20650D03*
X19350Y-18800D03*
X27500Y-11300D03*
X27500Y-12200D03*
X30350Y-12250D03*
X31000Y-09850D03*
X19050Y-11250D03*
X31000Y-12650D03*
X15800Y-11250D03*
X15700Y-18900D03*
X20850Y-17900D03*
X15050Y-09350D03*
G54D14*
X26741Y-20041D02*
X25850Y-20041D01*
X27150Y-20450D02*
X26741Y-20041D01*
X28000Y-20450D02*
X27150Y-20450D01*
X28100Y-20350D02*
X28000Y-20450D01*
X28100Y-19750D02*
X28100Y-20350D01*
X27750Y-19400D02*
X28100Y-19750D01*
X17053Y-11897D02*
X17053Y-10450D01*
X16700Y-12250D02*
X17053Y-11897D01*
X15800Y-12250D02*
X16700Y-12250D01*
X17447Y-11997D02*
X17447Y-10450D01*
X17700Y-12250D02*
X17447Y-11997D01*
X19050Y-12250D02*
X17700Y-12250D01*
X18234Y-09534D02*
X18234Y-10450D01*
X18150Y-09450D02*
X18234Y-09534D01*
X17500Y-09450D02*
X18150Y-09450D01*
X25850Y-18859D02*
X26741Y-18859D01*
X30450Y-18450D02*
X30450Y-18900D01*
X30250Y-18250D02*
X30450Y-18450D01*
X27350Y-18250D02*
X30250Y-18250D01*
X26741Y-18859D02*
X27350Y-18250D01*
X31884Y-10300D02*
X32300Y-10716D01*
X30800Y-10300D02*
X31884Y-10300D01*
X30450Y-09950D02*
X30800Y-10300D01*
X30450Y-09700D02*
X30450Y-09950D01*
X30100Y-09350D02*
X30450Y-09700D01*
X26200Y-09350D02*
X30100Y-09350D01*
X25166Y-20434D02*
X25850Y-20434D01*
X24550Y-21050D02*
X25166Y-20434D01*
X27197Y-19647D02*
X25850Y-19647D01*
X27450Y-19900D02*
X27197Y-19647D01*
X17397Y-19647D02*
X17397Y-20900D01*
X17000Y-19250D02*
X17397Y-19647D01*
X16050Y-19250D02*
X17000Y-19250D01*
X15700Y-19600D02*
X16050Y-19250D01*
X26897Y-19253D02*
X25850Y-19253D01*
X27400Y-18750D02*
X26897Y-19253D01*
X29300Y-18750D02*
X27400Y-18750D01*
X30400Y-19850D02*
X29300Y-18750D01*
X25850Y-17400D02*
X25850Y-18466D01*
X26300Y-16950D02*
X25850Y-17400D01*
X28550Y-16950D02*
X26300Y-16950D01*
X28600Y-16900D02*
X28550Y-16950D01*
X18050Y-16850D02*
X18500Y-16850D01*
X18700Y-20384D02*
X18184Y-20900D01*
X18700Y-17050D02*
X18700Y-20384D01*
X18500Y-16850D02*
X18700Y-17050D01*
X14500Y-16850D02*
X18050Y-16850D01*
X17003Y-20053D02*
X17003Y-20900D01*
X16700Y-19750D02*
X17003Y-20053D01*
X16200Y-19750D02*
X16700Y-19750D01*
X15750Y-20200D02*
X16200Y-19750D01*
X15750Y-20400D02*
X15750Y-20200D01*
X15500Y-20650D02*
X15750Y-20400D01*
X16609Y-21759D02*
X16609Y-20900D01*
X16650Y-21800D02*
X16609Y-21759D01*
X19150Y-21800D02*
X16650Y-21800D01*
X19700Y-21250D02*
X19150Y-21800D01*
X19700Y-19150D02*
X19700Y-21250D01*
X19350Y-18800D02*
X19700Y-19150D01*
X31459Y-11109D02*
X32300Y-11109D01*
X31100Y-10750D02*
X31459Y-11109D01*
X28050Y-10750D02*
X31100Y-10750D01*
X27500Y-11300D02*
X28050Y-10750D01*
X31397Y-11503D02*
X32300Y-11503D01*
X31150Y-11750D02*
X31397Y-11503D01*
X27950Y-11750D02*
X31150Y-11750D01*
X27500Y-12200D02*
X27950Y-11750D01*
X31603Y-11897D02*
X32300Y-11897D01*
X31450Y-12050D02*
X31603Y-11897D01*
X30550Y-12050D02*
X31450Y-12050D01*
X30350Y-12250D02*
X30550Y-12050D01*
X33216Y-12684D02*
X32300Y-12684D01*
X33550Y-12350D02*
X33216Y-12684D01*
X33550Y-10250D02*
X33550Y-12350D01*
X33150Y-09850D02*
X33550Y-10250D01*
X31000Y-09850D02*
X33150Y-09850D01*
X17841Y-11391D02*
X17841Y-10450D01*
X18000Y-11550D02*
X17841Y-11391D01*
X18750Y-11550D02*
X18000Y-11550D01*
X19050Y-11250D02*
X18750Y-11550D01*
X32291Y-12300D02*
X32300Y-12291D01*
X31350Y-12300D02*
X32291Y-12300D01*
X31000Y-12650D02*
X31350Y-12300D01*
X16659Y-11391D02*
X16659Y-10450D01*
X16500Y-11550D02*
X16659Y-11391D01*
X16100Y-11550D02*
X16500Y-11550D01*
X15800Y-11250D02*
X16100Y-11550D01*
X17791Y-18841D02*
X17791Y-20900D01*
X17700Y-18750D02*
X17791Y-18841D01*
X15850Y-18750D02*
X17700Y-18750D01*
X15700Y-18900D02*
X15850Y-18750D01*
X16216Y-21816D02*
X16216Y-20900D01*
X16450Y-22050D02*
X16216Y-21816D01*
X20700Y-22050D02*
X16450Y-22050D01*
X21000Y-21750D02*
X20700Y-22050D01*
X21000Y-18050D02*
X21000Y-21750D01*
X20850Y-17900D02*
X21000Y-18050D01*
X16266Y-09516D02*
X16266Y-10450D01*
X16100Y-09350D02*
X16266Y-09516D01*
X15050Y-09350D02*
X16100Y-09350D01*
M02*
