G04 (created by PCBNEW (2011-06-08)-testing) date Sa 02 Jul 2011 11:17:47 CEST*
G01*
G70*
G90*
%MOIN*%
G04 Gerber Fmt 3.4, Leading zero omitted, Abs format*
%FSLAX34Y34*%
G04 APERTURE LIST*
%ADD10C,0.001000*%
%ADD11C,0.008000*%
G04 APERTURE END LIST*
G54D10*
G54D10*
X14375Y-16725D02*
X14625Y-16975D01*
X14625Y-16725D02*
X14375Y-16975D01*
X14925Y-09225D02*
X15175Y-09475D01*
X15175Y-09225D02*
X14925Y-09475D01*
X15375Y-20525D02*
X15625Y-20775D01*
X15625Y-20525D02*
X15375Y-20775D01*
X15575Y-18775D02*
X15825Y-19025D01*
X15825Y-18775D02*
X15575Y-19025D01*
X15575Y-19475D02*
X15825Y-19725D01*
X15825Y-19475D02*
X15575Y-19725D01*
X15675Y-11125D02*
X15925Y-11375D01*
X15925Y-11125D02*
X15675Y-11375D01*
X15675Y-12125D02*
X15925Y-12375D01*
X15925Y-12125D02*
X15675Y-12375D01*
X17375Y-09325D02*
X17625Y-09575D01*
X17625Y-09325D02*
X17375Y-09575D01*
X18925Y-11125D02*
X19175Y-11375D01*
X19175Y-11125D02*
X18925Y-11375D01*
X18925Y-12125D02*
X19175Y-12375D01*
X19175Y-12125D02*
X18925Y-12375D01*
X19225Y-18675D02*
X19475Y-18925D01*
X19475Y-18675D02*
X19225Y-18925D01*
X20725Y-17775D02*
X20975Y-18025D01*
X20975Y-17775D02*
X20725Y-18025D01*
X24425Y-20925D02*
X24675Y-21175D01*
X24675Y-20925D02*
X24425Y-21175D01*
X26075Y-09225D02*
X26325Y-09475D01*
X26325Y-09225D02*
X26075Y-09475D01*
X27325Y-19775D02*
X27575Y-20025D01*
X27575Y-19775D02*
X27325Y-20025D01*
X27375Y-11175D02*
X27625Y-11425D01*
X27625Y-11175D02*
X27375Y-11425D01*
X27375Y-12075D02*
X27625Y-12325D01*
X27625Y-12075D02*
X27375Y-12325D01*
X27625Y-19275D02*
X27875Y-19525D01*
X27875Y-19275D02*
X27625Y-19525D01*
X28475Y-16775D02*
X28725Y-17025D01*
X28725Y-16775D02*
X28475Y-17025D01*
X30225Y-12125D02*
X30475Y-12375D01*
X30475Y-12125D02*
X30225Y-12375D01*
X30275Y-19725D02*
X30525Y-19975D01*
X30525Y-19725D02*
X30275Y-19975D01*
X30325Y-18775D02*
X30575Y-19025D01*
X30575Y-18775D02*
X30325Y-19025D01*
X30875Y-09725D02*
X31125Y-09975D01*
X31125Y-09725D02*
X30875Y-09975D01*
X30875Y-12525D02*
X31125Y-12775D01*
X31125Y-12525D02*
X30875Y-12775D01*
G54D11*
X12090Y-23770D02*
X12090Y-22970D01*
X12281Y-22970D01*
X12395Y-23008D01*
X12471Y-23084D01*
X12510Y-23160D01*
X12548Y-23313D01*
X12548Y-23427D01*
X12510Y-23579D01*
X12471Y-23656D01*
X12395Y-23732D01*
X12281Y-23770D01*
X12090Y-23770D01*
X12890Y-23770D02*
X12890Y-23236D01*
X12890Y-23389D02*
X12929Y-23313D01*
X12967Y-23275D01*
X13043Y-23236D01*
X13119Y-23236D01*
X13385Y-23770D02*
X13385Y-23236D01*
X13385Y-22970D02*
X13347Y-23008D01*
X13385Y-23046D01*
X13424Y-23008D01*
X13385Y-22970D01*
X13385Y-23046D01*
X13881Y-23770D02*
X13805Y-23732D01*
X13766Y-23656D01*
X13766Y-22970D01*
X14300Y-23770D02*
X14224Y-23732D01*
X14185Y-23656D01*
X14185Y-22970D01*
X15214Y-23770D02*
X15214Y-22970D01*
X15481Y-23541D01*
X15748Y-22970D01*
X15748Y-23770D01*
X16471Y-23770D02*
X16471Y-23351D01*
X16433Y-23275D01*
X16357Y-23236D01*
X16205Y-23236D01*
X16128Y-23275D01*
X16471Y-23732D02*
X16395Y-23770D01*
X16205Y-23770D01*
X16128Y-23732D01*
X16090Y-23656D01*
X16090Y-23579D01*
X16128Y-23503D01*
X16205Y-23465D01*
X16395Y-23465D01*
X16471Y-23427D01*
X16852Y-23236D02*
X16852Y-24036D01*
X16852Y-23275D02*
X16929Y-23236D01*
X17081Y-23236D01*
X17157Y-23275D01*
X17195Y-23313D01*
X17233Y-23389D01*
X17233Y-23617D01*
X17195Y-23694D01*
X17157Y-23732D01*
X17081Y-23770D01*
X16929Y-23770D01*
X16852Y-23732D01*
X17576Y-23694D02*
X17615Y-23732D01*
X17576Y-23770D01*
X17538Y-23732D01*
X17576Y-23694D01*
X17576Y-23770D01*
X17576Y-23275D02*
X17615Y-23313D01*
X17576Y-23351D01*
X17538Y-23313D01*
X17576Y-23275D01*
X17576Y-23351D01*
X11450Y-25001D02*
X11700Y-25251D01*
X11700Y-25001D02*
X11450Y-25251D01*
X12243Y-24650D02*
X12319Y-24650D01*
X12395Y-24688D01*
X12433Y-24726D01*
X12471Y-24802D01*
X12510Y-24955D01*
X12510Y-25145D01*
X12471Y-25297D01*
X12433Y-25374D01*
X12395Y-25412D01*
X12319Y-25450D01*
X12243Y-25450D01*
X12167Y-25412D01*
X12129Y-25374D01*
X12090Y-25297D01*
X12052Y-25145D01*
X12052Y-24955D01*
X12090Y-24802D01*
X12129Y-24726D01*
X12167Y-24688D01*
X12243Y-24650D01*
X12852Y-25374D02*
X12891Y-25412D01*
X12852Y-25450D01*
X12814Y-25412D01*
X12852Y-25374D01*
X12852Y-25450D01*
X13576Y-24650D02*
X13424Y-24650D01*
X13348Y-24688D01*
X13310Y-24726D01*
X13233Y-24840D01*
X13195Y-24993D01*
X13195Y-25297D01*
X13233Y-25374D01*
X13272Y-25412D01*
X13348Y-25450D01*
X13500Y-25450D01*
X13576Y-25412D01*
X13614Y-25374D01*
X13653Y-25297D01*
X13653Y-25107D01*
X13614Y-25031D01*
X13576Y-24993D01*
X13500Y-24955D01*
X13348Y-24955D01*
X13272Y-24993D01*
X13233Y-25031D01*
X13195Y-25107D01*
X14338Y-24916D02*
X14338Y-25450D01*
X14148Y-24612D02*
X13957Y-25183D01*
X14453Y-25183D01*
X14757Y-25450D02*
X14757Y-24916D01*
X14757Y-24993D02*
X14796Y-24955D01*
X14872Y-24916D01*
X14986Y-24916D01*
X15062Y-24955D01*
X15100Y-25031D01*
X15100Y-25450D01*
X15100Y-25031D02*
X15138Y-24955D01*
X15215Y-24916D01*
X15329Y-24916D01*
X15405Y-24955D01*
X15443Y-25031D01*
X15443Y-25450D01*
X15824Y-25450D02*
X15824Y-24916D01*
X15824Y-24993D02*
X15863Y-24955D01*
X15939Y-24916D01*
X16053Y-24916D01*
X16129Y-24955D01*
X16167Y-25031D01*
X16167Y-25450D01*
X16167Y-25031D02*
X16205Y-24955D01*
X16282Y-24916D01*
X16396Y-24916D01*
X16472Y-24955D01*
X16510Y-25031D01*
X16510Y-25450D01*
X18073Y-24612D02*
X17387Y-25640D01*
X19102Y-24650D02*
X19178Y-24650D01*
X19254Y-24688D01*
X19292Y-24726D01*
X19330Y-24802D01*
X19369Y-24955D01*
X19369Y-25145D01*
X19330Y-25297D01*
X19292Y-25374D01*
X19254Y-25412D01*
X19178Y-25450D01*
X19102Y-25450D01*
X19026Y-25412D01*
X18988Y-25374D01*
X18949Y-25297D01*
X18911Y-25145D01*
X18911Y-24955D01*
X18949Y-24802D01*
X18988Y-24726D01*
X19026Y-24688D01*
X19102Y-24650D01*
X19711Y-25374D02*
X19750Y-25412D01*
X19711Y-25450D01*
X19673Y-25412D01*
X19711Y-25374D01*
X19711Y-25450D01*
X20245Y-24650D02*
X20321Y-24650D01*
X20397Y-24688D01*
X20435Y-24726D01*
X20473Y-24802D01*
X20512Y-24955D01*
X20512Y-25145D01*
X20473Y-25297D01*
X20435Y-25374D01*
X20397Y-25412D01*
X20321Y-25450D01*
X20245Y-25450D01*
X20169Y-25412D01*
X20131Y-25374D01*
X20092Y-25297D01*
X20054Y-25145D01*
X20054Y-24955D01*
X20092Y-24802D01*
X20131Y-24726D01*
X20169Y-24688D01*
X20245Y-24650D01*
X20816Y-24726D02*
X20854Y-24688D01*
X20931Y-24650D01*
X21121Y-24650D01*
X21197Y-24688D01*
X21235Y-24726D01*
X21274Y-24802D01*
X21274Y-24878D01*
X21235Y-24993D01*
X20778Y-25450D01*
X21274Y-25450D01*
X21997Y-24650D02*
X21616Y-24650D01*
X21578Y-25031D01*
X21616Y-24993D01*
X21693Y-24955D01*
X21883Y-24955D01*
X21959Y-24993D01*
X21997Y-25031D01*
X22036Y-25107D01*
X22036Y-25297D01*
X21997Y-25374D01*
X21959Y-25412D01*
X21883Y-25450D01*
X21693Y-25450D01*
X21616Y-25412D01*
X21578Y-25374D01*
X22340Y-24650D02*
X22340Y-24802D01*
X22645Y-24650D02*
X22645Y-24802D01*
X23827Y-25755D02*
X23789Y-25716D01*
X23713Y-25602D01*
X23675Y-25526D01*
X23637Y-25412D01*
X23598Y-25221D01*
X23598Y-25069D01*
X23637Y-24878D01*
X23675Y-24764D01*
X23713Y-24688D01*
X23789Y-24574D01*
X23827Y-24536D01*
X24093Y-24726D02*
X24131Y-24688D01*
X24208Y-24650D01*
X24398Y-24650D01*
X24474Y-24688D01*
X24512Y-24726D01*
X24551Y-24802D01*
X24551Y-24878D01*
X24512Y-24993D01*
X24055Y-25450D01*
X24551Y-25450D01*
X25236Y-24916D02*
X25236Y-25450D01*
X25046Y-24612D02*
X24855Y-25183D01*
X25351Y-25183D01*
X26265Y-25450D02*
X26265Y-24650D01*
X26608Y-25450D02*
X26608Y-25031D01*
X26570Y-24955D01*
X26494Y-24916D01*
X26380Y-24916D01*
X26304Y-24955D01*
X26265Y-24993D01*
X27104Y-25450D02*
X27028Y-25412D01*
X26989Y-25374D01*
X26951Y-25297D01*
X26951Y-25069D01*
X26989Y-24993D01*
X27028Y-24955D01*
X27104Y-24916D01*
X27218Y-24916D01*
X27294Y-24955D01*
X27332Y-24993D01*
X27370Y-25069D01*
X27370Y-25297D01*
X27332Y-25374D01*
X27294Y-25412D01*
X27218Y-25450D01*
X27104Y-25450D01*
X27828Y-25450D02*
X27752Y-25412D01*
X27713Y-25336D01*
X27713Y-24650D01*
X28437Y-25412D02*
X28361Y-25450D01*
X28209Y-25450D01*
X28132Y-25412D01*
X28094Y-25336D01*
X28094Y-25031D01*
X28132Y-24955D01*
X28209Y-24916D01*
X28361Y-24916D01*
X28437Y-24955D01*
X28475Y-25031D01*
X28475Y-25107D01*
X28094Y-25183D01*
X28780Y-25412D02*
X28857Y-25450D01*
X29009Y-25450D01*
X29085Y-25412D01*
X29123Y-25336D01*
X29123Y-25297D01*
X29085Y-25221D01*
X29009Y-25183D01*
X28895Y-25183D01*
X28818Y-25145D01*
X28780Y-25069D01*
X28780Y-25031D01*
X28818Y-24955D01*
X28895Y-24916D01*
X29009Y-24916D01*
X29085Y-24955D01*
X29390Y-25755D02*
X29428Y-25716D01*
X29505Y-25602D01*
X29543Y-25526D01*
X29581Y-25412D01*
X29619Y-25221D01*
X29619Y-25069D01*
X29581Y-24878D01*
X29543Y-24764D01*
X29505Y-24688D01*
X29428Y-24574D01*
X29390Y-24536D01*
M02*
