G04 (created by PCBNEW-RS274X (2011-07-02 BZR 3034)-testing) date Thu 15 Dec 2011 12:00:24 PM CET*
G01*
G70*
G90*
%MOIN*%
G04 Gerber Fmt 3.4, Leading zero omitted, Abs format*
%FSLAX34Y34*%
G04 APERTURE LIST*
%ADD10C,0.006000*%
G04 APERTURE END LIST*
G54D10*
X25591Y-53130D02*
X25591Y-50394D01*
X26378Y-49607D02*
X26310Y-49610D01*
X26242Y-49619D01*
X26175Y-49634D01*
X26109Y-49655D01*
X26046Y-49681D01*
X25985Y-49713D01*
X25927Y-49750D01*
X25873Y-49792D01*
X25822Y-49838D01*
X25776Y-49889D01*
X25734Y-49943D01*
X25697Y-50001D01*
X25665Y-50062D01*
X25639Y-50125D01*
X25618Y-50191D01*
X25603Y-50258D01*
X25594Y-50326D01*
X25591Y-50394D01*
X81594Y-49606D02*
X26378Y-49606D01*
X26378Y-46850D02*
X81594Y-46850D01*
X25591Y-46161D02*
X25591Y-43327D01*
X25591Y-36713D02*
X25591Y-39370D01*
X81594Y-35827D02*
X26280Y-35827D01*
X26378Y-33071D02*
X81594Y-33071D01*
X25591Y-32283D02*
X25591Y-30709D01*
X30315Y-24114D02*
X85531Y-24114D01*
X29528Y-25571D02*
X29528Y-24803D01*
X30315Y-21358D02*
X85531Y-21358D01*
X29528Y-20583D02*
X29528Y-19705D01*
X85531Y-14272D02*
X29823Y-14272D01*
X30315Y-11516D02*
X85531Y-11516D01*
X29528Y-10728D02*
X29528Y-09862D01*
X25591Y-46063D02*
X25594Y-46131D01*
X25603Y-46199D01*
X25618Y-46266D01*
X25639Y-46332D01*
X25665Y-46395D01*
X25697Y-46456D01*
X25734Y-46514D01*
X25776Y-46568D01*
X25822Y-46619D01*
X25873Y-46665D01*
X25927Y-46707D01*
X25985Y-46744D01*
X26046Y-46776D01*
X26109Y-46802D01*
X26175Y-46823D01*
X26242Y-46838D01*
X26310Y-46847D01*
X26378Y-46850D01*
X26279Y-35828D02*
X26211Y-35839D01*
X26144Y-35857D01*
X26079Y-35880D01*
X26016Y-35909D01*
X25956Y-35943D01*
X25899Y-35983D01*
X25846Y-36027D01*
X25797Y-36076D01*
X25752Y-36128D01*
X25712Y-36185D01*
X25677Y-36245D01*
X25647Y-36307D01*
X25623Y-36372D01*
X25605Y-36439D01*
X25593Y-36507D01*
X25586Y-36576D01*
X25586Y-36644D01*
X25592Y-36713D01*
X25590Y-32283D02*
X25593Y-32351D01*
X25602Y-32419D01*
X25617Y-32486D01*
X25638Y-32552D01*
X25664Y-32616D01*
X25696Y-32676D01*
X25733Y-32734D01*
X25775Y-32789D01*
X25821Y-32840D01*
X25872Y-32886D01*
X25927Y-32928D01*
X25985Y-32965D01*
X26045Y-32997D01*
X26109Y-33023D01*
X26175Y-33044D01*
X26242Y-33059D01*
X26310Y-33068D01*
X26378Y-33071D01*
X30315Y-24115D02*
X30247Y-24118D01*
X30179Y-24127D01*
X30112Y-24142D01*
X30046Y-24163D01*
X29983Y-24189D01*
X29922Y-24221D01*
X29864Y-24258D01*
X29810Y-24300D01*
X29759Y-24346D01*
X29713Y-24397D01*
X29671Y-24451D01*
X29634Y-24509D01*
X29602Y-24570D01*
X29576Y-24633D01*
X29555Y-24699D01*
X29540Y-24766D01*
X29531Y-24834D01*
X29528Y-24902D01*
X29528Y-20571D02*
X29531Y-20639D01*
X29540Y-20707D01*
X29555Y-20774D01*
X29576Y-20840D01*
X29602Y-20903D01*
X29634Y-20964D01*
X29671Y-21022D01*
X29713Y-21076D01*
X29759Y-21127D01*
X29810Y-21173D01*
X29864Y-21215D01*
X29922Y-21252D01*
X29983Y-21284D01*
X30046Y-21310D01*
X30112Y-21331D01*
X30179Y-21346D01*
X30247Y-21355D01*
X30315Y-21358D01*
X29823Y-14272D02*
X29798Y-14274D01*
X29772Y-14277D01*
X29747Y-14283D01*
X29723Y-14290D01*
X29699Y-14300D01*
X29676Y-14312D01*
X29654Y-14326D01*
X29634Y-14342D01*
X29615Y-14359D01*
X29598Y-14378D01*
X29582Y-14398D01*
X29568Y-14420D01*
X29556Y-14443D01*
X29546Y-14467D01*
X29539Y-14491D01*
X29533Y-14516D01*
X29530Y-14542D01*
X29528Y-14567D01*
X29527Y-10728D02*
X29530Y-10796D01*
X29539Y-10864D01*
X29554Y-10931D01*
X29575Y-10997D01*
X29601Y-11061D01*
X29633Y-11121D01*
X29670Y-11179D01*
X29712Y-11234D01*
X29758Y-11285D01*
X29809Y-11331D01*
X29864Y-11373D01*
X29922Y-11410D01*
X29982Y-11442D01*
X30046Y-11468D01*
X30112Y-11489D01*
X30179Y-11504D01*
X30247Y-11513D01*
X30315Y-11516D01*
X19685Y-09862D02*
X29528Y-09862D01*
X19685Y-15728D02*
X19685Y-09862D01*
X28347Y-15728D02*
X19685Y-15728D01*
X29528Y-14567D02*
X28347Y-15728D01*
X19685Y-25571D02*
X29528Y-25571D01*
X19685Y-20866D02*
X19685Y-25571D01*
X20866Y-19705D02*
X19685Y-20866D01*
X29528Y-19705D02*
X20866Y-19705D01*
X19724Y-39370D02*
X25591Y-39370D01*
X19724Y-29527D02*
X19724Y-39370D01*
X24409Y-29527D02*
X19724Y-29527D01*
X25591Y-30709D02*
X24409Y-29527D01*
X20866Y-53130D02*
X25591Y-53130D01*
X19724Y-51969D02*
X20866Y-53130D01*
X19724Y-43327D02*
X19724Y-51969D01*
X25591Y-43327D02*
X19724Y-43327D01*
X81594Y-46850D02*
X81594Y-49606D01*
X81594Y-33071D02*
X81594Y-35827D01*
X85531Y-21358D02*
X85531Y-24114D01*
X85531Y-11516D02*
X85531Y-14272D01*
M02*
