G04 (created by PCBNEW-RS274X (2011-07-02 BZR 3034)-testing) date Thu 15 Dec 2011 12:00:24 PM CET*
G01*
G70*
G90*
%MOIN*%
G04 Gerber Fmt 3.4, Leading zero omitted, Abs format*
%FSLAX34Y34*%
G04 APERTURE LIST*
%ADD10C,0.006000*%
%ADD11C,0.003900*%
G04 APERTURE END LIST*
G54D10*
G54D11*
X20862Y-19705D02*
X19693Y-20874D01*
X29528Y-19705D02*
X20862Y-19705D01*
X19724Y-43331D02*
X19717Y-43331D01*
X19724Y-51988D02*
X19724Y-43331D01*
X20866Y-53130D02*
X19724Y-51988D01*
X25591Y-53130D02*
X20866Y-53130D01*
X25591Y-43323D02*
X25591Y-53130D01*
X19724Y-43323D02*
X25591Y-43323D01*
X19724Y-29528D02*
X19724Y-39370D01*
X24406Y-29528D02*
X19724Y-29528D01*
X25587Y-30709D02*
X24406Y-29528D01*
X25587Y-39366D02*
X25587Y-30709D01*
X19720Y-39366D02*
X25587Y-39366D01*
X19685Y-25571D02*
X19685Y-20866D01*
X29530Y-25570D02*
X19690Y-25570D01*
X29530Y-19710D02*
X29530Y-25570D01*
X81596Y-49593D02*
X81596Y-46853D01*
X78840Y-49608D02*
X81600Y-49608D01*
X78840Y-46860D02*
X78840Y-49600D01*
X81600Y-46852D02*
X78840Y-46852D01*
X81600Y-35830D02*
X81600Y-33070D01*
X78840Y-35830D02*
X81600Y-35830D01*
X78840Y-33070D02*
X78840Y-35830D01*
X81600Y-33070D02*
X78840Y-33070D01*
X85530Y-24120D02*
X85530Y-21360D01*
X82770Y-24120D02*
X85530Y-24120D01*
X82770Y-21360D02*
X82770Y-24120D01*
X85530Y-21360D02*
X82770Y-21360D01*
X85530Y-11520D02*
X85520Y-11520D01*
X85530Y-14270D02*
X85530Y-11520D01*
X82750Y-14270D02*
X85530Y-14270D01*
X82750Y-11520D02*
X82750Y-14270D01*
X85530Y-11520D02*
X82750Y-11520D01*
X19690Y-15730D02*
X19690Y-09860D01*
X28360Y-15730D02*
X19690Y-15730D01*
X29530Y-14560D02*
X28360Y-15730D01*
X29530Y-09860D02*
X29530Y-14560D01*
X19690Y-09860D02*
X29530Y-09860D01*
M02*
