G04 (created by PCBNEW-RS274X (2011-07-02 BZR 3034)-testing) date Thu 15 Dec 2011 12:00:24 PM CET*
G01*
G70*
G90*
%MOIN*%
G04 Gerber Fmt 3.4, Leading zero omitted, Abs format*
%FSLAX34Y34*%
G04 APERTURE LIST*
%ADD10C,0.006000*%
%ADD11R,0.122100X0.035500*%
%ADD12R,0.177500X0.098700*%
%ADD13R,0.098700X0.177500*%
G04 APERTURE END LIST*
G54D10*
G54D11*
X84843Y-13878D03*
X84843Y-13485D03*
X84843Y-13091D03*
X84843Y-12697D03*
X84843Y-12303D03*
X84843Y-11910D03*
X84843Y-23720D03*
X84843Y-23327D03*
X84843Y-22933D03*
X84843Y-22539D03*
X84843Y-22145D03*
X84843Y-21752D03*
X80906Y-35433D03*
X80906Y-35040D03*
X80906Y-34646D03*
X80906Y-34252D03*
X80906Y-33858D03*
X80906Y-33465D03*
X80906Y-49212D03*
X80906Y-48819D03*
X80906Y-48425D03*
X80906Y-48031D03*
X80906Y-47637D03*
X80906Y-47244D03*
G54D12*
X21654Y-11260D03*
X21654Y-12260D03*
X21654Y-13260D03*
X24654Y-11260D03*
X24654Y-12260D03*
X24654Y-13260D03*
X27559Y-24174D03*
X27559Y-23174D03*
X27559Y-22174D03*
X24559Y-24174D03*
X24559Y-23174D03*
X24559Y-22174D03*
G54D13*
X21122Y-37401D03*
X22122Y-37401D03*
X23122Y-37401D03*
X21122Y-34401D03*
X22122Y-34401D03*
X23122Y-34401D03*
X24193Y-45276D03*
X23193Y-45276D03*
X22193Y-45276D03*
X24193Y-48276D03*
X23193Y-48276D03*
X22193Y-48276D03*
M02*
