M48
;DRILL file {PCBnew (2011-06-08)-testing} date Fr 01 Jul 2011 23:29:20 CEST
;FORMAT={-:-/ absolute / metric / decimal}
FMAT,2
METRIC,TZ
T1C0.300
T2C0.635
T3C0.701
T4C0.813
T5C0.899
T6C1.001
T7C1.016
T8C1.199
T9C2.200
T10C3.299
%
G90
G05
M71
T2
X50.419Y-124.968
X51.181Y-129.159
X55.654Y-125.146
X55.690Y-122.829
X56.515Y-129.286
X56.713Y-126.444
X57.739Y-117.917
X57.937Y-108.217
X58.412Y-115.242
X58.600Y-113.779
X60.549Y-122.019
X61.529Y-127.203
X62.103Y-131.572
X64.376Y-128.905
X64.788Y-118.753
X66.170Y-121.450
X66.203Y-120.274
X67.234Y-127.333
X67.310Y-102.108
X68.707Y-98.806
X69.212Y-120.079
X69.266Y-126.324
X70.556Y-106.304
X70.848Y-129.593
X72.723Y-123.114
X72.799Y-127.145
X73.739Y-107.991
X74.160Y-131.938
X75.275Y-123.701
X75.438Y-139.319
X75.529Y-121.336
X75.728Y-125.506
X76.043Y-104.879
X77.094Y-124.226
X77.516Y-127.124
X77.643Y-137.742
X79.017Y-121.849
X79.329Y-126.710
X79.847Y-118.422
X80.406Y-127.480
X80.548Y-119.535
X80.899Y-138.430
X81.590Y-121.940
X82.123Y-133.548
X82.248Y-118.346
X82.433Y-117.193
X82.550Y-136.271
X82.573Y-134.859
X83.048Y-124.612
X83.820Y-139.954
X84.531Y-130.063
X84.823Y-125.440
X84.999Y-127.937
X85.481Y-117.429
X85.966Y-128.603
X86.233Y-112.141
X86.467Y-123.675
X86.693Y-116.997
X86.810Y-127.640
X88.049Y-118.979
X88.585Y-125.890
X88.908Y-120.653
X90.107Y-125.405
X90.678Y-116.586
X94.559Y-118.963
X95.827Y-138.819
X96.774Y-114.935
X96.774Y-121.031
X97.762Y-128.186
X100.858Y-123.848
X103.332Y-116.782
X104.082Y-117.899
X107.813Y-108.572
X107.823Y-103.505
X109.728Y-125.222
X110.960Y-122.669
X111.506Y-130.683
X116.586Y-127.508
X117.864Y-116.169
X120.650Y-107.188
T3
X113.723Y-123.622
X113.723Y-125.222
X113.723Y-126.822
X114.922Y-124.422
X114.922Y-126.022
T4
X69.977Y-94.107
T6
X73.683Y-103.251
X73.683Y-105.791
X77.493Y-103.251
X77.493Y-141.351
X80.033Y-103.251
X80.033Y-141.351
X82.573Y-103.251
X82.573Y-141.351
X85.113Y-103.251
X85.113Y-141.351
T7
X69.977Y-91.567
X72.517Y-91.567
X72.517Y-94.107
X75.057Y-91.567
X75.057Y-94.107
X77.597Y-91.567
X77.597Y-94.107
X80.137Y-91.567
X80.137Y-94.107
X82.677Y-91.567
X82.677Y-94.107
X85.217Y-91.567
X85.217Y-94.107
X87.757Y-91.567
X87.757Y-94.107
X90.297Y-91.567
X90.297Y-94.107
X92.837Y-91.567
X92.837Y-94.107
X96.266Y-99.314
X98.806Y-99.314
X101.346Y-99.314
X103.886Y-99.314
X107.188Y-91.948
X109.728Y-91.948
X112.268Y-91.948
X114.808Y-91.948
X117.348Y-91.948
X118.364Y-136.398
X118.364Y-138.938
X119.888Y-91.948
T8
X115.951Y-100.584
T9
X49.233Y-122.301
X107.231Y-122.301
T10
X49.233Y-112.301
X49.233Y-132.301
X107.231Y-112.301
X107.231Y-132.301
T1
X111.450Y-101.034G85X111.450Y-100.134
G05
X113.901Y-98.735G85X113.002Y-98.735
G05
X113.901Y-102.433G85X113.002Y-102.433
G05
X118.351Y-101.034G85X118.351Y-100.134
G05
T5
X119.273Y-121.572G85X118.273Y-121.572
G05
X119.273Y-128.872G85X118.273Y-128.872
G05
T0
M30
