G04 (created by PCBNEW-RS274X (2011-06-08)-testing) date Fr 01 Jul 2011 23:29:28 CEST*
G01*
G70*
G90*
%MOIN*%
G04 Gerber Fmt 3.4, Leading zero omitted, Abs format*
%FSLAX34Y34*%
G04 APERTURE LIST*
%ADD10C,0.006000*%
%ADD11C,0.007500*%
%ADD12C,0.005900*%
%ADD13C,0.008000*%
%ADD14C,0.015000*%
%ADD15C,0.002600*%
%ADD16C,0.004000*%
%ADD17C,0.005000*%
%ADD18C,0.012000*%
%ADD19C,0.006500*%
%ADD20C,0.010000*%
%ADD21C,0.003500*%
%ADD22C,0.004500*%
%ADD23C,0.007900*%
G04 APERTURE END LIST*
G54D10*
X34565Y-53920D02*
X34565Y-53493D01*
X35007Y-53621D02*
X34779Y-53707D01*
X35007Y-53792D01*
X42415Y-55770D02*
X42415Y-55343D01*
X42857Y-55471D02*
X42629Y-55557D01*
X42857Y-55642D01*
X42415Y-53520D02*
X42415Y-53093D01*
X42857Y-53221D02*
X42629Y-53307D01*
X42857Y-53392D01*
X44465Y-42370D02*
X44465Y-41943D01*
X44907Y-42071D02*
X44679Y-42157D01*
X44907Y-42242D01*
G54D11*
X27636Y-38121D02*
X27465Y-38121D01*
X27550Y-38121D02*
X27550Y-37822D01*
X27522Y-37864D01*
X27493Y-37893D01*
X27465Y-37907D01*
X42336Y-37271D02*
X42165Y-37271D01*
X42250Y-37271D02*
X42250Y-36972D01*
X42222Y-37014D01*
X42193Y-37043D01*
X42165Y-37057D01*
G54D12*
X46557Y-55664D02*
X46557Y-55436D01*
X46607Y-52964D02*
X46607Y-52736D01*
X46721Y-52850D02*
X46493Y-52850D01*
X32086Y-44121D02*
X31915Y-44121D01*
X32000Y-44121D02*
X32000Y-43822D01*
X31972Y-43864D01*
X31943Y-43893D01*
X31915Y-43907D01*
X24886Y-46571D02*
X24715Y-46571D01*
X24800Y-46571D02*
X24800Y-46272D01*
X24772Y-46314D01*
X24743Y-46343D01*
X24715Y-46357D01*
X38786Y-53421D02*
X38615Y-53421D01*
X38700Y-53421D02*
X38700Y-53122D01*
X38672Y-53164D01*
X38643Y-53193D01*
X38615Y-53207D01*
G54D13*
X14450Y-56300D02*
X14450Y-34950D01*
X48250Y-56300D02*
X14450Y-56300D01*
X48250Y-34950D02*
X48250Y-56300D01*
X15250Y-34950D02*
X48250Y-34950D01*
X14450Y-34950D02*
X15250Y-34950D01*
G54D14*
X15057Y-49013D02*
X16750Y-49013D01*
X16750Y-49013D02*
X16750Y-53187D01*
X16750Y-53187D02*
X15057Y-53187D01*
X14585Y-48383D02*
X15057Y-48383D01*
X14585Y-53817D02*
X15057Y-53817D01*
X14585Y-48383D02*
X14585Y-53817D01*
X15057Y-53817D02*
X15057Y-48383D01*
G54D15*
X33723Y-53427D02*
X33723Y-53073D01*
X33723Y-53073D02*
X33566Y-53073D01*
X33566Y-53427D02*
X33566Y-53073D01*
X33723Y-53427D02*
X33566Y-53427D01*
X34234Y-53427D02*
X34234Y-53073D01*
X34234Y-53073D02*
X34077Y-53073D01*
X34077Y-53427D02*
X34077Y-53073D01*
X34234Y-53427D02*
X34077Y-53427D01*
X33900Y-53427D02*
X33900Y-53368D01*
X33900Y-53368D02*
X33782Y-53368D01*
X33782Y-53427D02*
X33782Y-53368D01*
X33900Y-53427D02*
X33782Y-53427D01*
X33900Y-53132D02*
X33900Y-53073D01*
X33900Y-53073D02*
X33782Y-53073D01*
X33782Y-53132D02*
X33782Y-53073D01*
X33900Y-53132D02*
X33782Y-53132D01*
X33900Y-53309D02*
X33900Y-53191D01*
X33900Y-53191D02*
X33782Y-53191D01*
X33782Y-53309D02*
X33782Y-53191D01*
X33900Y-53309D02*
X33782Y-53309D01*
G54D16*
X33723Y-53407D02*
X34077Y-53407D01*
X33723Y-53093D02*
X34077Y-53093D01*
G54D15*
X33723Y-54327D02*
X33723Y-53973D01*
X33723Y-53973D02*
X33566Y-53973D01*
X33566Y-54327D02*
X33566Y-53973D01*
X33723Y-54327D02*
X33566Y-54327D01*
X34234Y-54327D02*
X34234Y-53973D01*
X34234Y-53973D02*
X34077Y-53973D01*
X34077Y-54327D02*
X34077Y-53973D01*
X34234Y-54327D02*
X34077Y-54327D01*
X33900Y-54327D02*
X33900Y-54268D01*
X33900Y-54268D02*
X33782Y-54268D01*
X33782Y-54327D02*
X33782Y-54268D01*
X33900Y-54327D02*
X33782Y-54327D01*
X33900Y-54032D02*
X33900Y-53973D01*
X33900Y-53973D02*
X33782Y-53973D01*
X33782Y-54032D02*
X33782Y-53973D01*
X33900Y-54032D02*
X33782Y-54032D01*
X33900Y-54209D02*
X33900Y-54091D01*
X33900Y-54091D02*
X33782Y-54091D01*
X33782Y-54209D02*
X33782Y-54091D01*
X33900Y-54209D02*
X33782Y-54209D01*
G54D16*
X33723Y-54307D02*
X34077Y-54307D01*
X33723Y-53993D02*
X34077Y-53993D01*
G54D14*
X37050Y-37550D02*
X27050Y-37550D01*
X37050Y-35550D02*
X27050Y-35550D01*
X27050Y-35550D02*
X27050Y-37550D01*
X37052Y-37550D02*
X37052Y-35550D01*
G54D10*
X37400Y-39600D02*
X37400Y-38600D01*
X37400Y-38600D02*
X39400Y-38600D01*
X39400Y-38600D02*
X39400Y-39600D01*
X39400Y-39600D02*
X37400Y-39600D01*
X39400Y-39600D02*
X39400Y-38600D01*
X39400Y-38600D02*
X41400Y-38600D01*
X41400Y-38600D02*
X41400Y-39600D01*
X41400Y-39600D02*
X39400Y-39600D01*
X46100Y-53200D02*
X47100Y-53200D01*
X47100Y-53200D02*
X47100Y-55200D01*
X47100Y-55200D02*
X46100Y-55200D01*
X46100Y-55200D02*
X46100Y-53200D01*
G54D13*
X40350Y-42400D02*
X40350Y-41100D01*
X40350Y-41100D02*
X40100Y-40850D01*
X40100Y-40850D02*
X36700Y-40850D01*
X36700Y-40850D02*
X36450Y-41100D01*
X36450Y-41100D02*
X36450Y-42400D01*
X36450Y-42400D02*
X36700Y-42650D01*
X36700Y-42650D02*
X40100Y-42650D01*
X40100Y-42650D02*
X40350Y-42400D01*
X36150Y-42750D02*
X36150Y-40750D01*
X36150Y-40750D02*
X40650Y-40750D01*
X40650Y-40750D02*
X40650Y-42750D01*
X40650Y-42750D02*
X36150Y-42750D01*
G54D17*
X20850Y-45750D02*
X20850Y-46650D01*
X20850Y-46650D02*
X20350Y-46650D01*
X20350Y-46650D02*
X20350Y-45750D01*
X20350Y-45750D02*
X20850Y-45750D01*
X25250Y-45550D02*
X25250Y-44650D01*
X25250Y-44650D02*
X25750Y-44650D01*
X25750Y-44650D02*
X25750Y-45550D01*
X25750Y-45550D02*
X25250Y-45550D01*
X46000Y-43750D02*
X46900Y-43750D01*
X46900Y-43750D02*
X46900Y-44250D01*
X46900Y-44250D02*
X46000Y-44250D01*
X46000Y-44250D02*
X46000Y-43750D01*
X36150Y-53500D02*
X35250Y-53500D01*
X35250Y-53500D02*
X35250Y-53000D01*
X35250Y-53000D02*
X36150Y-53000D01*
X36150Y-53000D02*
X36150Y-53500D01*
X36150Y-54400D02*
X35250Y-54400D01*
X35250Y-54400D02*
X35250Y-53900D01*
X35250Y-53900D02*
X36150Y-53900D01*
X36150Y-53900D02*
X36150Y-54400D01*
X29700Y-53050D02*
X30600Y-53050D01*
X30600Y-53050D02*
X30600Y-53550D01*
X30600Y-53550D02*
X29700Y-53550D01*
X29700Y-53550D02*
X29700Y-53050D01*
X33350Y-43300D02*
X32450Y-43300D01*
X32450Y-43300D02*
X32450Y-42800D01*
X32450Y-42800D02*
X33350Y-42800D01*
X33350Y-42800D02*
X33350Y-43300D01*
X40750Y-49050D02*
X41650Y-49050D01*
X41650Y-49050D02*
X41650Y-49550D01*
X41650Y-49550D02*
X40750Y-49550D01*
X40750Y-49550D02*
X40750Y-49050D01*
X40750Y-49800D02*
X41650Y-49800D01*
X41650Y-49800D02*
X41650Y-50300D01*
X41650Y-50300D02*
X40750Y-50300D01*
X40750Y-50300D02*
X40750Y-49800D01*
X33800Y-38450D02*
X33800Y-39350D01*
X33800Y-39350D02*
X33300Y-39350D01*
X33300Y-39350D02*
X33300Y-38450D01*
X33300Y-38450D02*
X33800Y-38450D01*
X31800Y-38450D02*
X31800Y-39350D01*
X31800Y-39350D02*
X31300Y-39350D01*
X31300Y-39350D02*
X31300Y-38450D01*
X31300Y-38450D02*
X31800Y-38450D01*
X30800Y-38450D02*
X30800Y-39350D01*
X30800Y-39350D02*
X30300Y-39350D01*
X30300Y-39350D02*
X30300Y-38450D01*
X30300Y-38450D02*
X30800Y-38450D01*
X29800Y-38450D02*
X29800Y-39350D01*
X29800Y-39350D02*
X29300Y-39350D01*
X29300Y-39350D02*
X29300Y-38450D01*
X29300Y-38450D02*
X29800Y-38450D01*
X28800Y-38450D02*
X28800Y-39350D01*
X28800Y-39350D02*
X28300Y-39350D01*
X28300Y-39350D02*
X28300Y-38450D01*
X28300Y-38450D02*
X28800Y-38450D01*
X43150Y-46500D02*
X43150Y-45600D01*
X43150Y-45600D02*
X43650Y-45600D01*
X43650Y-45600D02*
X43650Y-46500D01*
X43650Y-46500D02*
X43150Y-46500D01*
X46700Y-45750D02*
X46700Y-44850D01*
X46700Y-44850D02*
X47200Y-44850D01*
X47200Y-44850D02*
X47200Y-45750D01*
X47200Y-45750D02*
X46700Y-45750D01*
X44400Y-44200D02*
X43500Y-44200D01*
X43500Y-44200D02*
X43500Y-43700D01*
X43500Y-43700D02*
X44400Y-43700D01*
X44400Y-43700D02*
X44400Y-44200D01*
X32400Y-41900D02*
X33300Y-41900D01*
X33300Y-41900D02*
X33300Y-42400D01*
X33300Y-42400D02*
X32400Y-42400D01*
X32400Y-42400D02*
X32400Y-41900D01*
X40650Y-53700D02*
X40650Y-52800D01*
X40650Y-52800D02*
X41150Y-52800D01*
X41150Y-52800D02*
X41150Y-53700D01*
X41150Y-53700D02*
X40650Y-53700D01*
X37650Y-53500D02*
X37650Y-54400D01*
X37650Y-54400D02*
X37150Y-54400D01*
X37150Y-54400D02*
X37150Y-53500D01*
X37150Y-53500D02*
X37650Y-53500D01*
X39150Y-48000D02*
X40050Y-48000D01*
X40050Y-48000D02*
X40050Y-48500D01*
X40050Y-48500D02*
X39150Y-48500D01*
X39150Y-48500D02*
X39150Y-48000D01*
X30350Y-51350D02*
X30350Y-52250D01*
X30350Y-52250D02*
X29850Y-52250D01*
X29850Y-52250D02*
X29850Y-51350D01*
X29850Y-51350D02*
X30350Y-51350D01*
X36400Y-43450D02*
X37300Y-43450D01*
X37300Y-43450D02*
X37300Y-43950D01*
X37300Y-43950D02*
X36400Y-43950D01*
X36400Y-43950D02*
X36400Y-43450D01*
X40400Y-43950D02*
X39500Y-43950D01*
X39500Y-43950D02*
X39500Y-43450D01*
X39500Y-43450D02*
X40400Y-43450D01*
X40400Y-43450D02*
X40400Y-43950D01*
X28350Y-45850D02*
X27450Y-45850D01*
X27450Y-45850D02*
X27450Y-45350D01*
X27450Y-45350D02*
X28350Y-45350D01*
X28350Y-45350D02*
X28350Y-45850D01*
X39150Y-45000D02*
X40050Y-45000D01*
X40050Y-45000D02*
X40050Y-45500D01*
X40050Y-45500D02*
X39150Y-45500D01*
X39150Y-45500D02*
X39150Y-45000D01*
X41500Y-54700D02*
X41500Y-55600D01*
X41500Y-55600D02*
X41000Y-55600D01*
X41000Y-55600D02*
X41000Y-54700D01*
X41000Y-54700D02*
X41500Y-54700D01*
X40650Y-51100D02*
X40650Y-52000D01*
X40650Y-52000D02*
X40150Y-52000D01*
X40150Y-52000D02*
X40150Y-51100D01*
X40150Y-51100D02*
X40650Y-51100D01*
X28350Y-43750D02*
X27450Y-43750D01*
X27450Y-43750D02*
X27450Y-43250D01*
X27450Y-43250D02*
X28350Y-43250D01*
X28350Y-43250D02*
X28350Y-43750D01*
X39800Y-51100D02*
X39800Y-52000D01*
X39800Y-52000D02*
X39300Y-52000D01*
X39300Y-52000D02*
X39300Y-51100D01*
X39300Y-51100D02*
X39800Y-51100D01*
X35100Y-43300D02*
X34200Y-43300D01*
X34200Y-43300D02*
X34200Y-42800D01*
X34200Y-42800D02*
X35100Y-42800D01*
X35100Y-42800D02*
X35100Y-43300D01*
X39150Y-46550D02*
X40050Y-46550D01*
X40050Y-46550D02*
X40050Y-47050D01*
X40050Y-47050D02*
X39150Y-47050D01*
X39150Y-47050D02*
X39150Y-46550D01*
X37200Y-50650D02*
X37200Y-51550D01*
X37200Y-51550D02*
X36700Y-51550D01*
X36700Y-51550D02*
X36700Y-50650D01*
X36700Y-50650D02*
X37200Y-50650D01*
X30650Y-42800D02*
X31550Y-42800D01*
X31550Y-42800D02*
X31550Y-43300D01*
X31550Y-43300D02*
X30650Y-43300D01*
X30650Y-43300D02*
X30650Y-42800D01*
X43150Y-47850D02*
X43150Y-46950D01*
X43150Y-46950D02*
X43650Y-46950D01*
X43650Y-46950D02*
X43650Y-47850D01*
X43650Y-47850D02*
X43150Y-47850D01*
X29350Y-50750D02*
X29350Y-51650D01*
X29350Y-51650D02*
X28850Y-51650D01*
X28850Y-51650D02*
X28850Y-50750D01*
X28850Y-50750D02*
X29350Y-50750D01*
X39150Y-45682D02*
X40050Y-45682D01*
X40050Y-45682D02*
X40050Y-46182D01*
X40050Y-46182D02*
X39150Y-46182D01*
X39150Y-46182D02*
X39150Y-45682D01*
X28350Y-42950D02*
X27450Y-42950D01*
X27450Y-42950D02*
X27450Y-42450D01*
X27450Y-42450D02*
X28350Y-42450D01*
X28350Y-42450D02*
X28350Y-42950D01*
X31700Y-41850D02*
X31699Y-41859D01*
X31696Y-41869D01*
X31691Y-41877D01*
X31685Y-41885D01*
X31677Y-41891D01*
X31669Y-41896D01*
X31660Y-41898D01*
X31650Y-41899D01*
X31641Y-41899D01*
X31632Y-41896D01*
X31623Y-41891D01*
X31616Y-41885D01*
X31609Y-41878D01*
X31605Y-41869D01*
X31602Y-41860D01*
X31601Y-41850D01*
X31601Y-41841D01*
X31604Y-41832D01*
X31608Y-41823D01*
X31615Y-41816D01*
X31622Y-41809D01*
X31630Y-41805D01*
X31640Y-41802D01*
X31649Y-41801D01*
X31658Y-41801D01*
X31668Y-41804D01*
X31676Y-41808D01*
X31684Y-41814D01*
X31690Y-41822D01*
X31695Y-41830D01*
X31698Y-41839D01*
X31699Y-41849D01*
X31700Y-41850D01*
X31200Y-41850D02*
X31600Y-41850D01*
X31600Y-41850D02*
X31600Y-42450D01*
X31600Y-42450D02*
X31200Y-42450D01*
X30800Y-42450D02*
X30400Y-42450D01*
X30400Y-42450D02*
X30400Y-41850D01*
X30400Y-41850D02*
X30800Y-41850D01*
X43650Y-52050D02*
X43649Y-52059D01*
X43646Y-52069D01*
X43641Y-52077D01*
X43635Y-52085D01*
X43627Y-52091D01*
X43619Y-52096D01*
X43610Y-52098D01*
X43600Y-52099D01*
X43591Y-52099D01*
X43582Y-52096D01*
X43573Y-52091D01*
X43566Y-52085D01*
X43559Y-52078D01*
X43555Y-52069D01*
X43552Y-52060D01*
X43551Y-52050D01*
X43551Y-52041D01*
X43554Y-52032D01*
X43558Y-52023D01*
X43565Y-52016D01*
X43572Y-52009D01*
X43580Y-52005D01*
X43590Y-52002D01*
X43599Y-52001D01*
X43608Y-52001D01*
X43618Y-52004D01*
X43626Y-52008D01*
X43634Y-52014D01*
X43640Y-52022D01*
X43645Y-52030D01*
X43648Y-52039D01*
X43649Y-52049D01*
X43650Y-52050D01*
X43600Y-52500D02*
X43600Y-52100D01*
X43600Y-52100D02*
X44200Y-52100D01*
X44200Y-52100D02*
X44200Y-52500D01*
X44200Y-52900D02*
X44200Y-53300D01*
X44200Y-53300D02*
X43600Y-53300D01*
X43600Y-53300D02*
X43600Y-52900D01*
G54D14*
X23354Y-46398D02*
X23353Y-46405D01*
X23351Y-46412D01*
X23347Y-46419D01*
X23342Y-46425D01*
X23336Y-46430D01*
X23330Y-46433D01*
X23322Y-46436D01*
X23315Y-46436D01*
X23308Y-46436D01*
X23301Y-46434D01*
X23294Y-46430D01*
X23288Y-46425D01*
X23283Y-46420D01*
X23280Y-46413D01*
X23277Y-46406D01*
X23277Y-46398D01*
X23277Y-46391D01*
X23279Y-46384D01*
X23283Y-46377D01*
X23287Y-46371D01*
X23293Y-46366D01*
X23300Y-46363D01*
X23307Y-46360D01*
X23315Y-46360D01*
X23321Y-46360D01*
X23329Y-46362D01*
X23335Y-46366D01*
X23341Y-46370D01*
X23346Y-46376D01*
X23350Y-46383D01*
X23353Y-46390D01*
X23353Y-46397D01*
X23354Y-46398D01*
X23551Y-46634D02*
X23551Y-44666D01*
X23787Y-46634D02*
X22213Y-46634D01*
X22213Y-46634D02*
X22213Y-44666D01*
X22213Y-44666D02*
X23787Y-44666D01*
X23787Y-44666D02*
X23787Y-46634D01*
G54D13*
X33099Y-45083D02*
X33096Y-45111D01*
X33087Y-45139D01*
X33074Y-45165D01*
X33055Y-45187D01*
X33033Y-45206D01*
X33007Y-45220D01*
X32979Y-45228D01*
X32951Y-45231D01*
X32923Y-45229D01*
X32895Y-45221D01*
X32869Y-45207D01*
X32846Y-45189D01*
X32828Y-45167D01*
X32814Y-45141D01*
X32805Y-45113D01*
X32802Y-45085D01*
X32804Y-45057D01*
X32812Y-45029D01*
X32825Y-45003D01*
X32843Y-44980D01*
X32865Y-44961D01*
X32891Y-44947D01*
X32919Y-44938D01*
X32947Y-44935D01*
X32975Y-44937D01*
X33003Y-44945D01*
X33029Y-44958D01*
X33052Y-44976D01*
X33071Y-44998D01*
X33086Y-45023D01*
X33095Y-45050D01*
X33098Y-45079D01*
X33099Y-45083D01*
X32950Y-50174D02*
X35778Y-47345D01*
X35778Y-47345D02*
X33127Y-44694D01*
X33127Y-44694D02*
X32773Y-44694D01*
X32773Y-44694D02*
X30122Y-47345D01*
X30122Y-47345D02*
X32950Y-50174D01*
G54D18*
X41700Y-36700D02*
X41700Y-35700D01*
X41700Y-35700D02*
X47700Y-35700D01*
X47700Y-35700D02*
X47700Y-36700D01*
X47700Y-36700D02*
X41700Y-36700D01*
X42700Y-36700D02*
X42700Y-35700D01*
G54D17*
X47271Y-42444D02*
X47271Y-42956D01*
X47271Y-42956D02*
X46129Y-42956D01*
X46129Y-42956D02*
X46129Y-42444D01*
X46129Y-42444D02*
X47271Y-42444D01*
X45721Y-44844D02*
X45721Y-45356D01*
X45721Y-45356D02*
X44579Y-45356D01*
X44579Y-45356D02*
X44579Y-44844D01*
X44579Y-44844D02*
X45721Y-44844D01*
G54D14*
X22894Y-53400D02*
X22886Y-53476D01*
X22864Y-53550D01*
X22828Y-53618D01*
X22779Y-53677D01*
X22720Y-53726D01*
X22652Y-53763D01*
X22579Y-53785D01*
X22502Y-53793D01*
X22427Y-53787D01*
X22353Y-53765D01*
X22285Y-53729D01*
X22225Y-53681D01*
X22175Y-53622D01*
X22138Y-53555D01*
X22115Y-53481D01*
X22107Y-53405D01*
X22113Y-53329D01*
X22134Y-53255D01*
X22169Y-53187D01*
X22217Y-53127D01*
X22276Y-53077D01*
X22343Y-53039D01*
X22416Y-53016D01*
X22492Y-53007D01*
X22568Y-53012D01*
X22642Y-53033D01*
X22711Y-53068D01*
X22771Y-53115D01*
X22821Y-53173D01*
X22859Y-53240D01*
X22884Y-53313D01*
X22893Y-53389D01*
X22894Y-53400D01*
X21220Y-54581D02*
X23780Y-54581D01*
X23780Y-54581D02*
X23780Y-52219D01*
X23780Y-52219D02*
X21220Y-52219D01*
X21220Y-52219D02*
X21220Y-54581D01*
X27644Y-54500D02*
X27636Y-54576D01*
X27614Y-54650D01*
X27578Y-54718D01*
X27529Y-54777D01*
X27470Y-54826D01*
X27402Y-54863D01*
X27329Y-54885D01*
X27252Y-54893D01*
X27177Y-54887D01*
X27103Y-54865D01*
X27035Y-54829D01*
X26975Y-54781D01*
X26925Y-54722D01*
X26888Y-54655D01*
X26865Y-54581D01*
X26857Y-54505D01*
X26863Y-54429D01*
X26884Y-54355D01*
X26919Y-54287D01*
X26967Y-54227D01*
X27026Y-54177D01*
X27093Y-54139D01*
X27166Y-54116D01*
X27242Y-54107D01*
X27318Y-54112D01*
X27392Y-54133D01*
X27461Y-54168D01*
X27521Y-54215D01*
X27571Y-54273D01*
X27609Y-54340D01*
X27634Y-54413D01*
X27643Y-54489D01*
X27644Y-54500D01*
X25970Y-55681D02*
X28530Y-55681D01*
X28530Y-55681D02*
X28530Y-53319D01*
X28530Y-53319D02*
X25970Y-53319D01*
X25970Y-53319D02*
X25970Y-55681D01*
X25491Y-41497D02*
X24774Y-41497D01*
X24774Y-41497D02*
X24774Y-36037D01*
X24774Y-36037D02*
X25491Y-36037D01*
X25491Y-36037D02*
X25491Y-35769D01*
X25491Y-35769D02*
X14526Y-35769D01*
X14526Y-35769D02*
X14526Y-39615D01*
X14526Y-39615D02*
X14526Y-43131D01*
X14526Y-43131D02*
X25491Y-43131D01*
X25491Y-43131D02*
X25491Y-41497D01*
G54D19*
X23000Y-51150D02*
X23000Y-48150D01*
X21600Y-48150D02*
X21600Y-51150D01*
X23000Y-51150D02*
X21600Y-51150D01*
G54D10*
X21600Y-48150D02*
X23000Y-48150D01*
G54D17*
X21941Y-48350D02*
X21938Y-48377D01*
X21930Y-48403D01*
X21917Y-48428D01*
X21900Y-48449D01*
X21878Y-48466D01*
X21854Y-48479D01*
X21828Y-48488D01*
X21800Y-48490D01*
X21774Y-48488D01*
X21748Y-48480D01*
X21723Y-48467D01*
X21702Y-48450D01*
X21684Y-48429D01*
X21671Y-48405D01*
X21663Y-48379D01*
X21660Y-48351D01*
X21662Y-48325D01*
X21669Y-48299D01*
X21682Y-48274D01*
X21699Y-48253D01*
X21720Y-48235D01*
X21744Y-48221D01*
X21770Y-48213D01*
X21798Y-48210D01*
X21824Y-48212D01*
X21850Y-48219D01*
X21875Y-48231D01*
X21897Y-48248D01*
X21915Y-48269D01*
X21928Y-48293D01*
X21937Y-48319D01*
X21940Y-48347D01*
X21941Y-48350D01*
X22550Y-48150D02*
X22550Y-48450D01*
X22550Y-48450D02*
X22050Y-48450D01*
X22050Y-48450D02*
X22050Y-48150D01*
X26836Y-49585D02*
X25936Y-49585D01*
X25936Y-49585D02*
X25936Y-49085D01*
X25936Y-49085D02*
X26836Y-49085D01*
X26836Y-49085D02*
X26836Y-49585D01*
X15450Y-47050D02*
X15450Y-46150D01*
X15450Y-46150D02*
X15950Y-46150D01*
X15950Y-46150D02*
X15950Y-47050D01*
X15950Y-47050D02*
X15450Y-47050D01*
X17200Y-47050D02*
X17200Y-46150D01*
X17200Y-46150D02*
X17700Y-46150D01*
X17700Y-46150D02*
X17700Y-47050D01*
X17700Y-47050D02*
X17200Y-47050D01*
X16850Y-46150D02*
X16850Y-47050D01*
X16850Y-47050D02*
X16350Y-47050D01*
X16350Y-47050D02*
X16350Y-46150D01*
X16350Y-46150D02*
X16850Y-46150D01*
X26100Y-50000D02*
X26100Y-50900D01*
X26100Y-50900D02*
X25600Y-50900D01*
X25600Y-50900D02*
X25600Y-50000D01*
X25600Y-50000D02*
X26100Y-50000D01*
G54D10*
X27550Y-50800D02*
X27550Y-50000D01*
X27550Y-50000D02*
X27050Y-50000D01*
X27050Y-50000D02*
X27050Y-50800D01*
X27050Y-50800D02*
X27550Y-50800D01*
G54D20*
X39179Y-53717D02*
X39178Y-53722D01*
X39176Y-53727D01*
X39174Y-53731D01*
X39171Y-53736D01*
X39167Y-53739D01*
X39162Y-53741D01*
X39157Y-53743D01*
X39152Y-53743D01*
X39147Y-53743D01*
X39142Y-53742D01*
X39138Y-53739D01*
X39134Y-53736D01*
X39130Y-53732D01*
X39128Y-53727D01*
X39126Y-53722D01*
X39126Y-53717D01*
X39126Y-53713D01*
X39127Y-53708D01*
X39130Y-53703D01*
X39133Y-53699D01*
X39137Y-53695D01*
X39142Y-53693D01*
X39147Y-53691D01*
X39152Y-53691D01*
X39156Y-53691D01*
X39161Y-53692D01*
X39166Y-53695D01*
X39170Y-53698D01*
X39174Y-53702D01*
X39176Y-53707D01*
X39178Y-53712D01*
X39178Y-53717D01*
X39179Y-53717D01*
X39565Y-53559D02*
X39565Y-54741D01*
X39565Y-54741D02*
X38935Y-54741D01*
X38935Y-54741D02*
X38935Y-53559D01*
X38935Y-53559D02*
X39565Y-53559D01*
X47028Y-40387D02*
X48209Y-40387D01*
X48209Y-40387D02*
X48209Y-38813D01*
X48209Y-38813D02*
X47028Y-38813D01*
X47028Y-40584D02*
X43957Y-40584D01*
X43957Y-40584D02*
X43957Y-38616D01*
X43957Y-38616D02*
X47028Y-38616D01*
X47028Y-38616D02*
X47028Y-40584D01*
X48237Y-50816D02*
X44694Y-50816D01*
X44694Y-50816D02*
X44694Y-47784D01*
X44694Y-47784D02*
X48237Y-47784D01*
X48237Y-47784D02*
X48237Y-50816D01*
G54D18*
X16093Y-51642D02*
X15493Y-51642D01*
X15493Y-51414D01*
X15521Y-51356D01*
X15550Y-51328D01*
X15607Y-51299D01*
X15693Y-51299D01*
X15750Y-51328D01*
X15779Y-51356D01*
X15807Y-51414D01*
X15807Y-51642D01*
X15493Y-51099D02*
X15493Y-50728D01*
X15721Y-50928D01*
X15721Y-50842D01*
X15750Y-50785D01*
X15779Y-50756D01*
X15836Y-50728D01*
X15979Y-50728D01*
X16036Y-50756D01*
X16064Y-50785D01*
X16093Y-50842D01*
X16093Y-51014D01*
X16064Y-51071D01*
X16036Y-51099D01*
X15879Y-48129D02*
X15679Y-48129D01*
X15679Y-48443D02*
X15679Y-47843D01*
X15965Y-47843D01*
X16393Y-48129D02*
X16193Y-48129D01*
X16193Y-48443D02*
X16193Y-47843D01*
X16479Y-47843D01*
X17050Y-48386D02*
X17021Y-48414D01*
X16935Y-48443D01*
X16878Y-48443D01*
X16793Y-48414D01*
X16735Y-48357D01*
X16707Y-48300D01*
X16678Y-48186D01*
X16678Y-48100D01*
X16707Y-47986D01*
X16735Y-47929D01*
X16793Y-47871D01*
X16878Y-47843D01*
X16935Y-47843D01*
X17021Y-47871D01*
X17050Y-47900D01*
G54D21*
X32828Y-53371D02*
X32828Y-53071D01*
X32900Y-53071D01*
X32943Y-53086D01*
X32971Y-53114D01*
X32986Y-53143D01*
X33000Y-53200D01*
X33000Y-53243D01*
X32986Y-53300D01*
X32971Y-53329D01*
X32943Y-53357D01*
X32900Y-53371D01*
X32828Y-53371D01*
X33271Y-53071D02*
X33128Y-53071D01*
X33114Y-53214D01*
X33128Y-53200D01*
X33157Y-53186D01*
X33228Y-53186D01*
X33257Y-53200D01*
X33271Y-53214D01*
X33286Y-53243D01*
X33286Y-53314D01*
X33271Y-53343D01*
X33257Y-53357D01*
X33228Y-53371D01*
X33157Y-53371D01*
X33128Y-53357D01*
X33114Y-53343D01*
X33401Y-52536D02*
X33372Y-52521D01*
X33329Y-52521D01*
X33286Y-52536D01*
X33258Y-52564D01*
X33243Y-52593D01*
X33229Y-52650D01*
X33229Y-52693D01*
X33243Y-52750D01*
X33258Y-52779D01*
X33286Y-52807D01*
X33329Y-52821D01*
X33358Y-52821D01*
X33401Y-52807D01*
X33415Y-52793D01*
X33415Y-52693D01*
X33358Y-52693D01*
X33715Y-52821D02*
X33615Y-52679D01*
X33543Y-52821D02*
X33543Y-52521D01*
X33658Y-52521D01*
X33686Y-52536D01*
X33701Y-52550D01*
X33715Y-52579D01*
X33715Y-52621D01*
X33701Y-52650D01*
X33686Y-52664D01*
X33658Y-52679D01*
X33543Y-52679D01*
X33843Y-52664D02*
X33943Y-52664D01*
X33986Y-52821D02*
X33843Y-52821D01*
X33843Y-52521D01*
X33986Y-52521D01*
X34114Y-52664D02*
X34214Y-52664D01*
X34257Y-52821D02*
X34114Y-52821D01*
X34114Y-52521D01*
X34257Y-52521D01*
X34385Y-52821D02*
X34385Y-52521D01*
X34557Y-52821D01*
X34557Y-52521D01*
X32828Y-54321D02*
X32828Y-54021D01*
X32900Y-54021D01*
X32943Y-54036D01*
X32971Y-54064D01*
X32986Y-54093D01*
X33000Y-54150D01*
X33000Y-54193D01*
X32986Y-54250D01*
X32971Y-54279D01*
X32943Y-54307D01*
X32900Y-54321D01*
X32828Y-54321D01*
X33257Y-54121D02*
X33257Y-54321D01*
X33186Y-54007D02*
X33114Y-54221D01*
X33300Y-54221D01*
X33658Y-54821D02*
X33558Y-54679D01*
X33486Y-54821D02*
X33486Y-54521D01*
X33601Y-54521D01*
X33629Y-54536D01*
X33644Y-54550D01*
X33658Y-54579D01*
X33658Y-54621D01*
X33644Y-54650D01*
X33629Y-54664D01*
X33601Y-54679D01*
X33486Y-54679D01*
X33786Y-54664D02*
X33886Y-54664D01*
X33929Y-54821D02*
X33786Y-54821D01*
X33786Y-54521D01*
X33929Y-54521D01*
X34057Y-54821D02*
X34057Y-54521D01*
X34129Y-54521D01*
X34172Y-54536D01*
X34200Y-54564D01*
X34215Y-54593D01*
X34229Y-54650D01*
X34229Y-54693D01*
X34215Y-54750D01*
X34200Y-54779D01*
X34172Y-54807D01*
X34129Y-54821D01*
X34057Y-54821D01*
G54D20*
X34705Y-38262D02*
X34705Y-37862D01*
X34858Y-37862D01*
X34896Y-37881D01*
X34915Y-37900D01*
X34934Y-37938D01*
X34934Y-37995D01*
X34915Y-38033D01*
X34896Y-38052D01*
X34858Y-38071D01*
X34705Y-38071D01*
X35315Y-38262D02*
X35086Y-38262D01*
X35200Y-38262D02*
X35200Y-37862D01*
X35162Y-37919D01*
X35124Y-37957D01*
X35086Y-37976D01*
G54D13*
X36034Y-37862D02*
X36034Y-38148D01*
X36014Y-38205D01*
X35976Y-38243D01*
X35919Y-38262D01*
X35881Y-38262D01*
X36167Y-37862D02*
X36396Y-37862D01*
X36281Y-38262D02*
X36281Y-37862D01*
X36510Y-38148D02*
X36701Y-38148D01*
X36472Y-38262D02*
X36605Y-37862D01*
X36739Y-38262D01*
X37082Y-37881D02*
X37044Y-37862D01*
X36987Y-37862D01*
X36929Y-37881D01*
X36891Y-37919D01*
X36872Y-37957D01*
X36853Y-38033D01*
X36853Y-38090D01*
X36872Y-38167D01*
X36891Y-38205D01*
X36929Y-38243D01*
X36987Y-38262D01*
X37025Y-38262D01*
X37082Y-38243D01*
X37101Y-38224D01*
X37101Y-38090D01*
X37025Y-38090D01*
G54D10*
X38150Y-38171D02*
X38150Y-38386D01*
X38136Y-38429D01*
X38107Y-38457D01*
X38064Y-38471D01*
X38036Y-38471D01*
X38293Y-38471D02*
X38293Y-38171D01*
X38408Y-38171D01*
X38436Y-38186D01*
X38451Y-38200D01*
X38465Y-38229D01*
X38465Y-38271D01*
X38451Y-38300D01*
X38436Y-38314D01*
X38408Y-38329D01*
X38293Y-38329D01*
X38579Y-38200D02*
X38593Y-38186D01*
X38622Y-38171D01*
X38693Y-38171D01*
X38722Y-38186D01*
X38736Y-38200D01*
X38751Y-38229D01*
X38751Y-38257D01*
X38736Y-38300D01*
X38565Y-38471D01*
X38751Y-38471D01*
X37829Y-39914D02*
X37929Y-39914D01*
X37972Y-40071D02*
X37829Y-40071D01*
X37829Y-39771D01*
X37972Y-39771D01*
X38272Y-40071D02*
X38172Y-39929D01*
X38100Y-40071D02*
X38100Y-39771D01*
X38215Y-39771D01*
X38243Y-39786D01*
X38258Y-39800D01*
X38272Y-39829D01*
X38272Y-39871D01*
X38258Y-39900D01*
X38243Y-39914D01*
X38215Y-39929D01*
X38100Y-39929D01*
X38386Y-39986D02*
X38529Y-39986D01*
X38358Y-40071D02*
X38458Y-39771D01*
X38558Y-40071D01*
X38643Y-40057D02*
X38686Y-40071D01*
X38757Y-40071D01*
X38786Y-40057D01*
X38800Y-40043D01*
X38815Y-40014D01*
X38815Y-39986D01*
X38800Y-39957D01*
X38786Y-39943D01*
X38757Y-39929D01*
X38700Y-39914D01*
X38672Y-39900D01*
X38657Y-39886D01*
X38643Y-39857D01*
X38643Y-39829D01*
X38657Y-39800D01*
X38672Y-39786D01*
X38700Y-39771D01*
X38772Y-39771D01*
X38815Y-39786D01*
X38943Y-39914D02*
X39043Y-39914D01*
X39086Y-40071D02*
X38943Y-40071D01*
X38943Y-39771D01*
X39086Y-39771D01*
X40150Y-38171D02*
X40150Y-38386D01*
X40136Y-38429D01*
X40107Y-38457D01*
X40064Y-38471D01*
X40036Y-38471D01*
X40293Y-38471D02*
X40293Y-38171D01*
X40408Y-38171D01*
X40436Y-38186D01*
X40451Y-38200D01*
X40465Y-38229D01*
X40465Y-38271D01*
X40451Y-38300D01*
X40436Y-38314D01*
X40408Y-38329D01*
X40293Y-38329D01*
X40751Y-38471D02*
X40579Y-38471D01*
X40665Y-38471D02*
X40665Y-38171D01*
X40636Y-38214D01*
X40608Y-38243D01*
X40579Y-38257D01*
X39922Y-39721D02*
X40093Y-39721D01*
X40007Y-40021D02*
X40007Y-39721D01*
X40193Y-39864D02*
X40293Y-39864D01*
X40336Y-40021D02*
X40193Y-40021D01*
X40193Y-39721D01*
X40336Y-39721D01*
X40450Y-40007D02*
X40493Y-40021D01*
X40564Y-40021D01*
X40593Y-40007D01*
X40607Y-39993D01*
X40622Y-39964D01*
X40622Y-39936D01*
X40607Y-39907D01*
X40593Y-39893D01*
X40564Y-39879D01*
X40507Y-39864D01*
X40479Y-39850D01*
X40464Y-39836D01*
X40450Y-39807D01*
X40450Y-39779D01*
X40464Y-39750D01*
X40479Y-39736D01*
X40507Y-39721D01*
X40579Y-39721D01*
X40622Y-39736D01*
X40708Y-39721D02*
X40879Y-39721D01*
X40793Y-40021D02*
X40793Y-39721D01*
X45814Y-54436D02*
X45829Y-54393D01*
X45843Y-54378D01*
X45871Y-54364D01*
X45914Y-54364D01*
X45943Y-54378D01*
X45957Y-54393D01*
X45971Y-54421D01*
X45971Y-54536D01*
X45671Y-54536D01*
X45671Y-54436D01*
X45686Y-54407D01*
X45700Y-54393D01*
X45729Y-54378D01*
X45757Y-54378D01*
X45786Y-54393D01*
X45800Y-54407D01*
X45814Y-54436D01*
X45814Y-54536D01*
X45671Y-54278D02*
X45671Y-54107D01*
X45971Y-54193D02*
X45671Y-54193D01*
X45971Y-53849D02*
X45971Y-54021D01*
X45971Y-53935D02*
X45671Y-53935D01*
X45714Y-53964D01*
X45743Y-53992D01*
X45757Y-54021D01*
X47421Y-54864D02*
X47621Y-54864D01*
X47307Y-54935D02*
X47521Y-55007D01*
X47521Y-54821D01*
X47593Y-54707D02*
X47607Y-54692D01*
X47621Y-54707D01*
X47607Y-54721D01*
X47593Y-54707D01*
X47621Y-54707D01*
X47321Y-54421D02*
X47321Y-54564D01*
X47464Y-54578D01*
X47450Y-54564D01*
X47436Y-54535D01*
X47436Y-54464D01*
X47450Y-54435D01*
X47464Y-54421D01*
X47493Y-54406D01*
X47564Y-54406D01*
X47593Y-54421D01*
X47607Y-54435D01*
X47621Y-54464D01*
X47621Y-54535D01*
X47607Y-54564D01*
X47593Y-54578D01*
X47507Y-54278D02*
X47507Y-54049D01*
X47321Y-53778D02*
X47321Y-53835D01*
X47336Y-53864D01*
X47350Y-53878D01*
X47393Y-53907D01*
X47450Y-53921D01*
X47564Y-53921D01*
X47593Y-53907D01*
X47607Y-53892D01*
X47621Y-53864D01*
X47621Y-53807D01*
X47607Y-53778D01*
X47593Y-53764D01*
X47564Y-53749D01*
X47493Y-53749D01*
X47464Y-53764D01*
X47450Y-53778D01*
X47436Y-53807D01*
X47436Y-53864D01*
X47450Y-53892D01*
X47464Y-53907D01*
X47493Y-53921D01*
X47321Y-53663D02*
X47621Y-53563D01*
X47321Y-53463D01*
G54D13*
X38076Y-41612D02*
X38343Y-42012D01*
X38343Y-41612D02*
X38076Y-42012D01*
X38705Y-42012D02*
X38476Y-42012D01*
X38590Y-42012D02*
X38590Y-41612D01*
X38552Y-41669D01*
X38514Y-41707D01*
X38476Y-41726D01*
X37208Y-41162D02*
X36979Y-41162D01*
X37093Y-41162D02*
X37093Y-40762D01*
X37055Y-40819D01*
X37017Y-40857D01*
X36979Y-40876D01*
X37436Y-40933D02*
X37398Y-40914D01*
X37379Y-40895D01*
X37360Y-40857D01*
X37360Y-40838D01*
X37379Y-40800D01*
X37398Y-40781D01*
X37436Y-40762D01*
X37513Y-40762D01*
X37551Y-40781D01*
X37570Y-40800D01*
X37589Y-40838D01*
X37589Y-40857D01*
X37570Y-40895D01*
X37551Y-40914D01*
X37513Y-40933D01*
X37436Y-40933D01*
X37398Y-40952D01*
X37379Y-40971D01*
X37360Y-41010D01*
X37360Y-41086D01*
X37379Y-41124D01*
X37398Y-41143D01*
X37436Y-41162D01*
X37513Y-41162D01*
X37551Y-41143D01*
X37570Y-41124D01*
X37589Y-41086D01*
X37589Y-41010D01*
X37570Y-40971D01*
X37551Y-40952D01*
X37513Y-40933D01*
X37760Y-41124D02*
X37779Y-41143D01*
X37760Y-41162D01*
X37741Y-41143D01*
X37760Y-41124D01*
X37760Y-41162D01*
X38122Y-40895D02*
X38122Y-41162D01*
X38026Y-40743D02*
X37931Y-41029D01*
X38179Y-41029D01*
X38293Y-40762D02*
X38541Y-40762D01*
X38407Y-40914D01*
X38465Y-40914D01*
X38503Y-40933D01*
X38522Y-40952D01*
X38541Y-40990D01*
X38541Y-41086D01*
X38522Y-41124D01*
X38503Y-41143D01*
X38465Y-41162D01*
X38350Y-41162D01*
X38312Y-41143D01*
X38293Y-41124D01*
X38693Y-40800D02*
X38712Y-40781D01*
X38750Y-40762D01*
X38846Y-40762D01*
X38884Y-40781D01*
X38903Y-40800D01*
X38922Y-40838D01*
X38922Y-40876D01*
X38903Y-40933D01*
X38674Y-41162D01*
X38922Y-41162D01*
X39093Y-41162D02*
X39093Y-40762D01*
X39227Y-41048D01*
X39360Y-40762D01*
X39360Y-41162D01*
X39550Y-41162D02*
X39550Y-40762D01*
X39550Y-40952D02*
X39779Y-40952D01*
X39779Y-41162D02*
X39779Y-40762D01*
X39931Y-40895D02*
X40141Y-40895D01*
X39931Y-41162D01*
X40141Y-41162D01*
G54D22*
X20063Y-46315D02*
X19930Y-46375D01*
X20063Y-46418D02*
X19783Y-46418D01*
X19783Y-46350D01*
X19797Y-46332D01*
X19810Y-46324D01*
X19837Y-46315D01*
X19877Y-46315D01*
X19903Y-46324D01*
X19917Y-46332D01*
X19930Y-46350D01*
X19930Y-46418D01*
X20063Y-46144D02*
X20063Y-46247D01*
X20063Y-46195D02*
X19783Y-46195D01*
X19823Y-46212D01*
X19850Y-46230D01*
X19863Y-46247D01*
X19903Y-46041D02*
X19890Y-46059D01*
X19877Y-46067D01*
X19850Y-46076D01*
X19837Y-46076D01*
X19810Y-46067D01*
X19797Y-46059D01*
X19783Y-46041D01*
X19783Y-46007D01*
X19797Y-45990D01*
X19810Y-45981D01*
X19837Y-45973D01*
X19850Y-45973D01*
X19877Y-45981D01*
X19890Y-45990D01*
X19903Y-46007D01*
X19903Y-46041D01*
X19917Y-46059D01*
X19930Y-46067D01*
X19957Y-46076D01*
X20010Y-46076D01*
X20037Y-46067D01*
X20050Y-46059D01*
X20063Y-46041D01*
X20063Y-46007D01*
X20050Y-45990D01*
X20037Y-45981D01*
X20010Y-45973D01*
X19957Y-45973D01*
X19930Y-45981D01*
X19917Y-45990D01*
X19903Y-46007D01*
X26313Y-45215D02*
X26180Y-45275D01*
X26313Y-45318D02*
X26033Y-45318D01*
X26033Y-45250D01*
X26047Y-45232D01*
X26060Y-45224D01*
X26087Y-45215D01*
X26127Y-45215D01*
X26153Y-45224D01*
X26167Y-45232D01*
X26180Y-45250D01*
X26180Y-45318D01*
X26313Y-45044D02*
X26313Y-45147D01*
X26313Y-45095D02*
X26033Y-45095D01*
X26073Y-45112D01*
X26100Y-45130D01*
X26113Y-45147D01*
X26033Y-44984D02*
X26033Y-44864D01*
X26313Y-44941D01*
X45480Y-44100D02*
X45420Y-43967D01*
X45377Y-44100D02*
X45377Y-43820D01*
X45445Y-43820D01*
X45463Y-43834D01*
X45471Y-43847D01*
X45480Y-43874D01*
X45480Y-43914D01*
X45471Y-43940D01*
X45463Y-43954D01*
X45445Y-43967D01*
X45377Y-43967D01*
X45651Y-44100D02*
X45548Y-44100D01*
X45600Y-44100D02*
X45600Y-43820D01*
X45583Y-43860D01*
X45565Y-43887D01*
X45548Y-43900D01*
X45805Y-43820D02*
X45771Y-43820D01*
X45754Y-43834D01*
X45745Y-43847D01*
X45728Y-43887D01*
X45719Y-43940D01*
X45719Y-44047D01*
X45728Y-44074D01*
X45736Y-44087D01*
X45754Y-44100D01*
X45788Y-44100D01*
X45805Y-44087D01*
X45814Y-44074D01*
X45822Y-44047D01*
X45822Y-43980D01*
X45814Y-43954D01*
X45805Y-43940D01*
X45788Y-43927D01*
X45754Y-43927D01*
X45736Y-43940D01*
X45728Y-43954D01*
X45719Y-43980D01*
X35599Y-52850D02*
X35539Y-52717D01*
X35496Y-52850D02*
X35496Y-52570D01*
X35564Y-52570D01*
X35582Y-52584D01*
X35590Y-52597D01*
X35599Y-52624D01*
X35599Y-52664D01*
X35590Y-52690D01*
X35582Y-52704D01*
X35564Y-52717D01*
X35496Y-52717D01*
X35770Y-52850D02*
X35667Y-52850D01*
X35719Y-52850D02*
X35719Y-52570D01*
X35702Y-52610D01*
X35684Y-52637D01*
X35667Y-52650D01*
X35924Y-52664D02*
X35924Y-52850D01*
X35881Y-52557D02*
X35838Y-52757D01*
X35950Y-52757D01*
X35535Y-54882D02*
X35475Y-54749D01*
X35432Y-54882D02*
X35432Y-54602D01*
X35500Y-54602D01*
X35518Y-54616D01*
X35526Y-54629D01*
X35535Y-54656D01*
X35535Y-54696D01*
X35526Y-54722D01*
X35518Y-54736D01*
X35500Y-54749D01*
X35432Y-54749D01*
X35706Y-54882D02*
X35603Y-54882D01*
X35655Y-54882D02*
X35655Y-54602D01*
X35638Y-54642D01*
X35620Y-54669D01*
X35603Y-54682D01*
X35766Y-54602D02*
X35877Y-54602D01*
X35817Y-54709D01*
X35843Y-54709D01*
X35860Y-54722D01*
X35869Y-54736D01*
X35877Y-54762D01*
X35877Y-54829D01*
X35869Y-54856D01*
X35860Y-54869D01*
X35843Y-54882D01*
X35791Y-54882D01*
X35774Y-54869D01*
X35766Y-54856D01*
X30935Y-53463D02*
X30875Y-53330D01*
X30832Y-53463D02*
X30832Y-53183D01*
X30900Y-53183D01*
X30918Y-53197D01*
X30926Y-53210D01*
X30935Y-53237D01*
X30935Y-53277D01*
X30926Y-53303D01*
X30918Y-53317D01*
X30900Y-53330D01*
X30832Y-53330D01*
X31106Y-53463D02*
X31003Y-53463D01*
X31055Y-53463D02*
X31055Y-53183D01*
X31038Y-53223D01*
X31020Y-53250D01*
X31003Y-53263D01*
X31174Y-53210D02*
X31183Y-53197D01*
X31200Y-53183D01*
X31243Y-53183D01*
X31260Y-53197D01*
X31269Y-53210D01*
X31277Y-53237D01*
X31277Y-53263D01*
X31269Y-53303D01*
X31166Y-53463D01*
X31277Y-53463D01*
X32785Y-43763D02*
X32725Y-43630D01*
X32682Y-43763D02*
X32682Y-43483D01*
X32750Y-43483D01*
X32768Y-43497D01*
X32776Y-43510D01*
X32785Y-43537D01*
X32785Y-43577D01*
X32776Y-43603D01*
X32768Y-43617D01*
X32750Y-43630D01*
X32682Y-43630D01*
X32956Y-43763D02*
X32853Y-43763D01*
X32905Y-43763D02*
X32905Y-43483D01*
X32888Y-43523D01*
X32870Y-43550D01*
X32853Y-43563D01*
X33127Y-43763D02*
X33024Y-43763D01*
X33076Y-43763D02*
X33076Y-43483D01*
X33059Y-43523D01*
X33041Y-43550D01*
X33024Y-43563D01*
X40235Y-49413D02*
X40175Y-49280D01*
X40132Y-49413D02*
X40132Y-49133D01*
X40200Y-49133D01*
X40218Y-49147D01*
X40226Y-49160D01*
X40235Y-49187D01*
X40235Y-49227D01*
X40226Y-49253D01*
X40218Y-49267D01*
X40200Y-49280D01*
X40132Y-49280D01*
X40406Y-49413D02*
X40303Y-49413D01*
X40355Y-49413D02*
X40355Y-49133D01*
X40338Y-49173D01*
X40320Y-49200D01*
X40303Y-49213D01*
X40517Y-49133D02*
X40534Y-49133D01*
X40551Y-49147D01*
X40560Y-49160D01*
X40569Y-49187D01*
X40577Y-49240D01*
X40577Y-49307D01*
X40569Y-49360D01*
X40560Y-49387D01*
X40551Y-49400D01*
X40534Y-49413D01*
X40517Y-49413D01*
X40500Y-49400D01*
X40491Y-49387D01*
X40483Y-49360D01*
X40474Y-49307D01*
X40474Y-49240D01*
X40483Y-49187D01*
X40491Y-49160D01*
X40500Y-49147D01*
X40517Y-49133D01*
X40421Y-50163D02*
X40361Y-50030D01*
X40318Y-50163D02*
X40318Y-49883D01*
X40386Y-49883D01*
X40404Y-49897D01*
X40412Y-49910D01*
X40421Y-49937D01*
X40421Y-49977D01*
X40412Y-50003D01*
X40404Y-50017D01*
X40386Y-50030D01*
X40318Y-50030D01*
X40506Y-50163D02*
X40541Y-50163D01*
X40558Y-50150D01*
X40566Y-50137D01*
X40584Y-50097D01*
X40592Y-50043D01*
X40592Y-49937D01*
X40584Y-49910D01*
X40575Y-49897D01*
X40558Y-49883D01*
X40524Y-49883D01*
X40506Y-49897D01*
X40498Y-49910D01*
X40489Y-49937D01*
X40489Y-50003D01*
X40498Y-50030D01*
X40506Y-50043D01*
X40524Y-50057D01*
X40558Y-50057D01*
X40575Y-50043D01*
X40584Y-50030D01*
X40592Y-50003D01*
X33663Y-39729D02*
X33530Y-39789D01*
X33663Y-39832D02*
X33383Y-39832D01*
X33383Y-39764D01*
X33397Y-39746D01*
X33410Y-39738D01*
X33437Y-39729D01*
X33477Y-39729D01*
X33503Y-39738D01*
X33517Y-39746D01*
X33530Y-39764D01*
X33530Y-39832D01*
X33503Y-39626D02*
X33490Y-39644D01*
X33477Y-39652D01*
X33450Y-39661D01*
X33437Y-39661D01*
X33410Y-39652D01*
X33397Y-39644D01*
X33383Y-39626D01*
X33383Y-39592D01*
X33397Y-39575D01*
X33410Y-39566D01*
X33437Y-39558D01*
X33450Y-39558D01*
X33477Y-39566D01*
X33490Y-39575D01*
X33503Y-39592D01*
X33503Y-39626D01*
X33517Y-39644D01*
X33530Y-39652D01*
X33557Y-39661D01*
X33610Y-39661D01*
X33637Y-39652D01*
X33650Y-39644D01*
X33663Y-39626D01*
X33663Y-39592D01*
X33650Y-39575D01*
X33637Y-39566D01*
X33610Y-39558D01*
X33557Y-39558D01*
X33530Y-39566D01*
X33517Y-39575D01*
X33503Y-39592D01*
X31663Y-39729D02*
X31530Y-39789D01*
X31663Y-39832D02*
X31383Y-39832D01*
X31383Y-39764D01*
X31397Y-39746D01*
X31410Y-39738D01*
X31437Y-39729D01*
X31477Y-39729D01*
X31503Y-39738D01*
X31517Y-39746D01*
X31530Y-39764D01*
X31530Y-39832D01*
X31383Y-39669D02*
X31383Y-39549D01*
X31663Y-39626D01*
X30663Y-39729D02*
X30530Y-39789D01*
X30663Y-39832D02*
X30383Y-39832D01*
X30383Y-39764D01*
X30397Y-39746D01*
X30410Y-39738D01*
X30437Y-39729D01*
X30477Y-39729D01*
X30503Y-39738D01*
X30517Y-39746D01*
X30530Y-39764D01*
X30530Y-39832D01*
X30383Y-39575D02*
X30383Y-39609D01*
X30397Y-39626D01*
X30410Y-39635D01*
X30450Y-39652D01*
X30503Y-39661D01*
X30610Y-39661D01*
X30637Y-39652D01*
X30650Y-39644D01*
X30663Y-39626D01*
X30663Y-39592D01*
X30650Y-39575D01*
X30637Y-39566D01*
X30610Y-39558D01*
X30543Y-39558D01*
X30517Y-39566D01*
X30503Y-39575D01*
X30490Y-39592D01*
X30490Y-39626D01*
X30503Y-39644D01*
X30517Y-39652D01*
X30543Y-39661D01*
X29663Y-39729D02*
X29530Y-39789D01*
X29663Y-39832D02*
X29383Y-39832D01*
X29383Y-39764D01*
X29397Y-39746D01*
X29410Y-39738D01*
X29437Y-39729D01*
X29477Y-39729D01*
X29503Y-39738D01*
X29517Y-39746D01*
X29530Y-39764D01*
X29530Y-39832D01*
X29383Y-39566D02*
X29383Y-39652D01*
X29517Y-39661D01*
X29503Y-39652D01*
X29490Y-39635D01*
X29490Y-39592D01*
X29503Y-39575D01*
X29517Y-39566D01*
X29543Y-39558D01*
X29610Y-39558D01*
X29637Y-39566D01*
X29650Y-39575D01*
X29663Y-39592D01*
X29663Y-39635D01*
X29650Y-39652D01*
X29637Y-39661D01*
X28663Y-39729D02*
X28530Y-39789D01*
X28663Y-39832D02*
X28383Y-39832D01*
X28383Y-39764D01*
X28397Y-39746D01*
X28410Y-39738D01*
X28437Y-39729D01*
X28477Y-39729D01*
X28503Y-39738D01*
X28517Y-39746D01*
X28530Y-39764D01*
X28530Y-39832D01*
X28477Y-39575D02*
X28663Y-39575D01*
X28370Y-39618D02*
X28570Y-39661D01*
X28570Y-39549D01*
X42913Y-46079D02*
X42780Y-46139D01*
X42913Y-46182D02*
X42633Y-46182D01*
X42633Y-46114D01*
X42647Y-46096D01*
X42660Y-46088D01*
X42687Y-46079D01*
X42727Y-46079D01*
X42753Y-46088D01*
X42767Y-46096D01*
X42780Y-46114D01*
X42780Y-46182D01*
X42633Y-46019D02*
X42633Y-45908D01*
X42740Y-45968D01*
X42740Y-45942D01*
X42753Y-45925D01*
X42767Y-45916D01*
X42793Y-45908D01*
X42860Y-45908D01*
X42887Y-45916D01*
X42900Y-45925D01*
X42913Y-45942D01*
X42913Y-45994D01*
X42900Y-46011D01*
X42887Y-46019D01*
X46413Y-45329D02*
X46280Y-45389D01*
X46413Y-45432D02*
X46133Y-45432D01*
X46133Y-45364D01*
X46147Y-45346D01*
X46160Y-45338D01*
X46187Y-45329D01*
X46227Y-45329D01*
X46253Y-45338D01*
X46267Y-45346D01*
X46280Y-45364D01*
X46280Y-45432D01*
X46160Y-45261D02*
X46147Y-45252D01*
X46133Y-45235D01*
X46133Y-45192D01*
X46147Y-45175D01*
X46160Y-45166D01*
X46187Y-45158D01*
X46213Y-45158D01*
X46253Y-45166D01*
X46413Y-45269D01*
X46413Y-45158D01*
X44671Y-44113D02*
X44611Y-43980D01*
X44568Y-44113D02*
X44568Y-43833D01*
X44636Y-43833D01*
X44654Y-43847D01*
X44662Y-43860D01*
X44671Y-43887D01*
X44671Y-43927D01*
X44662Y-43953D01*
X44654Y-43967D01*
X44636Y-43980D01*
X44568Y-43980D01*
X44842Y-44113D02*
X44739Y-44113D01*
X44791Y-44113D02*
X44791Y-43833D01*
X44774Y-43873D01*
X44756Y-43900D01*
X44739Y-43913D01*
X32735Y-41737D02*
X32726Y-41750D01*
X32700Y-41763D01*
X32683Y-41763D01*
X32658Y-41750D01*
X32640Y-41723D01*
X32632Y-41697D01*
X32623Y-41643D01*
X32623Y-41603D01*
X32632Y-41550D01*
X32640Y-41523D01*
X32658Y-41497D01*
X32683Y-41483D01*
X32700Y-41483D01*
X32726Y-41497D01*
X32735Y-41510D01*
X32803Y-41510D02*
X32812Y-41497D01*
X32829Y-41483D01*
X32872Y-41483D01*
X32889Y-41497D01*
X32898Y-41510D01*
X32906Y-41537D01*
X32906Y-41563D01*
X32898Y-41603D01*
X32795Y-41763D01*
X32906Y-41763D01*
X32966Y-41483D02*
X33077Y-41483D01*
X33017Y-41590D01*
X33043Y-41590D01*
X33060Y-41603D01*
X33069Y-41617D01*
X33077Y-41643D01*
X33077Y-41710D01*
X33069Y-41737D01*
X33060Y-41750D01*
X33043Y-41763D01*
X32991Y-41763D01*
X32974Y-41750D01*
X32966Y-41737D01*
X41637Y-53365D02*
X41650Y-53374D01*
X41663Y-53400D01*
X41663Y-53417D01*
X41650Y-53442D01*
X41623Y-53460D01*
X41597Y-53468D01*
X41543Y-53477D01*
X41503Y-53477D01*
X41450Y-53468D01*
X41423Y-53460D01*
X41397Y-53442D01*
X41383Y-53417D01*
X41383Y-53400D01*
X41397Y-53374D01*
X41410Y-53365D01*
X41410Y-53297D02*
X41397Y-53288D01*
X41383Y-53271D01*
X41383Y-53228D01*
X41397Y-53211D01*
X41410Y-53202D01*
X41437Y-53194D01*
X41463Y-53194D01*
X41503Y-53202D01*
X41663Y-53305D01*
X41663Y-53194D01*
X41410Y-53126D02*
X41397Y-53117D01*
X41383Y-53100D01*
X41383Y-53057D01*
X41397Y-53040D01*
X41410Y-53031D01*
X41437Y-53023D01*
X41463Y-53023D01*
X41503Y-53031D01*
X41663Y-53134D01*
X41663Y-53023D01*
X36887Y-54065D02*
X36900Y-54074D01*
X36913Y-54100D01*
X36913Y-54117D01*
X36900Y-54142D01*
X36873Y-54160D01*
X36847Y-54168D01*
X36793Y-54177D01*
X36753Y-54177D01*
X36700Y-54168D01*
X36673Y-54160D01*
X36647Y-54142D01*
X36633Y-54117D01*
X36633Y-54100D01*
X36647Y-54074D01*
X36660Y-54065D01*
X36660Y-53997D02*
X36647Y-53988D01*
X36633Y-53971D01*
X36633Y-53928D01*
X36647Y-53911D01*
X36660Y-53902D01*
X36687Y-53894D01*
X36713Y-53894D01*
X36753Y-53902D01*
X36913Y-54005D01*
X36913Y-53894D01*
X36913Y-53723D02*
X36913Y-53826D01*
X36913Y-53774D02*
X36633Y-53774D01*
X36673Y-53791D01*
X36700Y-53809D01*
X36713Y-53826D01*
X40435Y-48287D02*
X40426Y-48300D01*
X40400Y-48313D01*
X40383Y-48313D01*
X40358Y-48300D01*
X40340Y-48273D01*
X40332Y-48247D01*
X40323Y-48193D01*
X40323Y-48153D01*
X40332Y-48100D01*
X40340Y-48073D01*
X40358Y-48047D01*
X40383Y-48033D01*
X40400Y-48033D01*
X40426Y-48047D01*
X40435Y-48060D01*
X40503Y-48060D02*
X40512Y-48047D01*
X40529Y-48033D01*
X40572Y-48033D01*
X40589Y-48047D01*
X40598Y-48060D01*
X40606Y-48087D01*
X40606Y-48113D01*
X40598Y-48153D01*
X40495Y-48313D01*
X40606Y-48313D01*
X40717Y-48033D02*
X40734Y-48033D01*
X40751Y-48047D01*
X40760Y-48060D01*
X40769Y-48087D01*
X40777Y-48140D01*
X40777Y-48207D01*
X40769Y-48260D01*
X40760Y-48287D01*
X40751Y-48300D01*
X40734Y-48313D01*
X40717Y-48313D01*
X40700Y-48300D01*
X40691Y-48287D01*
X40683Y-48260D01*
X40674Y-48207D01*
X40674Y-48140D01*
X40683Y-48087D01*
X40691Y-48060D01*
X40700Y-48047D01*
X40717Y-48033D01*
X30187Y-50965D02*
X30200Y-50974D01*
X30213Y-51000D01*
X30213Y-51017D01*
X30200Y-51042D01*
X30173Y-51060D01*
X30147Y-51068D01*
X30093Y-51077D01*
X30053Y-51077D01*
X30000Y-51068D01*
X29973Y-51060D01*
X29947Y-51042D01*
X29933Y-51017D01*
X29933Y-51000D01*
X29947Y-50974D01*
X29960Y-50965D01*
X30213Y-50794D02*
X30213Y-50897D01*
X30213Y-50845D02*
X29933Y-50845D01*
X29973Y-50862D01*
X30000Y-50880D01*
X30013Y-50897D01*
X30213Y-50709D02*
X30213Y-50674D01*
X30200Y-50657D01*
X30187Y-50649D01*
X30147Y-50631D01*
X30093Y-50623D01*
X29987Y-50623D01*
X29960Y-50631D01*
X29947Y-50640D01*
X29933Y-50657D01*
X29933Y-50691D01*
X29947Y-50709D01*
X29960Y-50717D01*
X29987Y-50726D01*
X30053Y-50726D01*
X30080Y-50717D01*
X30093Y-50709D01*
X30107Y-50691D01*
X30107Y-50657D01*
X30093Y-50640D01*
X30080Y-50631D01*
X30053Y-50623D01*
X37635Y-43787D02*
X37626Y-43800D01*
X37600Y-43813D01*
X37583Y-43813D01*
X37558Y-43800D01*
X37540Y-43773D01*
X37532Y-43747D01*
X37523Y-43693D01*
X37523Y-43653D01*
X37532Y-43600D01*
X37540Y-43573D01*
X37558Y-43547D01*
X37583Y-43533D01*
X37600Y-43533D01*
X37626Y-43547D01*
X37635Y-43560D01*
X37806Y-43813D02*
X37703Y-43813D01*
X37755Y-43813D02*
X37755Y-43533D01*
X37738Y-43573D01*
X37720Y-43600D01*
X37703Y-43613D01*
X37909Y-43653D02*
X37891Y-43640D01*
X37883Y-43627D01*
X37874Y-43600D01*
X37874Y-43587D01*
X37883Y-43560D01*
X37891Y-43547D01*
X37909Y-43533D01*
X37943Y-43533D01*
X37960Y-43547D01*
X37969Y-43560D01*
X37977Y-43587D01*
X37977Y-43600D01*
X37969Y-43627D01*
X37960Y-43640D01*
X37943Y-43653D01*
X37909Y-43653D01*
X37891Y-43667D01*
X37883Y-43680D01*
X37874Y-43707D01*
X37874Y-43760D01*
X37883Y-43787D01*
X37891Y-43800D01*
X37909Y-43813D01*
X37943Y-43813D01*
X37960Y-43800D01*
X37969Y-43787D01*
X37977Y-43760D01*
X37977Y-43707D01*
X37969Y-43680D01*
X37960Y-43667D01*
X37943Y-43653D01*
X38935Y-43787D02*
X38926Y-43800D01*
X38900Y-43813D01*
X38883Y-43813D01*
X38858Y-43800D01*
X38840Y-43773D01*
X38832Y-43747D01*
X38823Y-43693D01*
X38823Y-43653D01*
X38832Y-43600D01*
X38840Y-43573D01*
X38858Y-43547D01*
X38883Y-43533D01*
X38900Y-43533D01*
X38926Y-43547D01*
X38935Y-43560D01*
X39106Y-43813D02*
X39003Y-43813D01*
X39055Y-43813D02*
X39055Y-43533D01*
X39038Y-43573D01*
X39020Y-43600D01*
X39003Y-43613D01*
X39166Y-43533D02*
X39286Y-43533D01*
X39209Y-43813D01*
X26885Y-45637D02*
X26876Y-45650D01*
X26850Y-45663D01*
X26833Y-45663D01*
X26808Y-45650D01*
X26790Y-45623D01*
X26782Y-45597D01*
X26773Y-45543D01*
X26773Y-45503D01*
X26782Y-45450D01*
X26790Y-45423D01*
X26808Y-45397D01*
X26833Y-45383D01*
X26850Y-45383D01*
X26876Y-45397D01*
X26885Y-45410D01*
X27056Y-45663D02*
X26953Y-45663D01*
X27005Y-45663D02*
X27005Y-45383D01*
X26988Y-45423D01*
X26970Y-45450D01*
X26953Y-45463D01*
X27210Y-45383D02*
X27176Y-45383D01*
X27159Y-45397D01*
X27150Y-45410D01*
X27133Y-45450D01*
X27124Y-45503D01*
X27124Y-45610D01*
X27133Y-45637D01*
X27141Y-45650D01*
X27159Y-45663D01*
X27193Y-45663D01*
X27210Y-45650D01*
X27219Y-45637D01*
X27227Y-45610D01*
X27227Y-45543D01*
X27219Y-45517D01*
X27210Y-45503D01*
X27193Y-45490D01*
X27159Y-45490D01*
X27141Y-45503D01*
X27133Y-45517D01*
X27124Y-45543D01*
X38585Y-45337D02*
X38576Y-45350D01*
X38550Y-45363D01*
X38533Y-45363D01*
X38508Y-45350D01*
X38490Y-45323D01*
X38482Y-45297D01*
X38473Y-45243D01*
X38473Y-45203D01*
X38482Y-45150D01*
X38490Y-45123D01*
X38508Y-45097D01*
X38533Y-45083D01*
X38550Y-45083D01*
X38576Y-45097D01*
X38585Y-45110D01*
X38756Y-45363D02*
X38653Y-45363D01*
X38705Y-45363D02*
X38705Y-45083D01*
X38688Y-45123D01*
X38670Y-45150D01*
X38653Y-45163D01*
X38919Y-45083D02*
X38833Y-45083D01*
X38824Y-45217D01*
X38833Y-45203D01*
X38850Y-45190D01*
X38893Y-45190D01*
X38910Y-45203D01*
X38919Y-45217D01*
X38927Y-45243D01*
X38927Y-45310D01*
X38919Y-45337D01*
X38910Y-45350D01*
X38893Y-45363D01*
X38850Y-45363D01*
X38833Y-45350D01*
X38824Y-45337D01*
X40737Y-55265D02*
X40750Y-55274D01*
X40763Y-55300D01*
X40763Y-55317D01*
X40750Y-55342D01*
X40723Y-55360D01*
X40697Y-55368D01*
X40643Y-55377D01*
X40603Y-55377D01*
X40550Y-55368D01*
X40523Y-55360D01*
X40497Y-55342D01*
X40483Y-55317D01*
X40483Y-55300D01*
X40497Y-55274D01*
X40510Y-55265D01*
X40763Y-55094D02*
X40763Y-55197D01*
X40763Y-55145D02*
X40483Y-55145D01*
X40523Y-55162D01*
X40550Y-55180D01*
X40563Y-55197D01*
X40577Y-54940D02*
X40763Y-54940D01*
X40470Y-54983D02*
X40670Y-55026D01*
X40670Y-54914D01*
X40487Y-50815D02*
X40500Y-50824D01*
X40513Y-50850D01*
X40513Y-50867D01*
X40500Y-50892D01*
X40473Y-50910D01*
X40447Y-50918D01*
X40393Y-50927D01*
X40353Y-50927D01*
X40300Y-50918D01*
X40273Y-50910D01*
X40247Y-50892D01*
X40233Y-50867D01*
X40233Y-50850D01*
X40247Y-50824D01*
X40260Y-50815D01*
X40513Y-50644D02*
X40513Y-50747D01*
X40513Y-50695D02*
X40233Y-50695D01*
X40273Y-50712D01*
X40300Y-50730D01*
X40313Y-50747D01*
X40233Y-50584D02*
X40233Y-50473D01*
X40340Y-50533D01*
X40340Y-50507D01*
X40353Y-50490D01*
X40367Y-50481D01*
X40393Y-50473D01*
X40460Y-50473D01*
X40487Y-50481D01*
X40500Y-50490D01*
X40513Y-50507D01*
X40513Y-50559D01*
X40500Y-50576D01*
X40487Y-50584D01*
X26835Y-43587D02*
X26826Y-43600D01*
X26800Y-43613D01*
X26783Y-43613D01*
X26758Y-43600D01*
X26740Y-43573D01*
X26732Y-43547D01*
X26723Y-43493D01*
X26723Y-43453D01*
X26732Y-43400D01*
X26740Y-43373D01*
X26758Y-43347D01*
X26783Y-43333D01*
X26800Y-43333D01*
X26826Y-43347D01*
X26835Y-43360D01*
X27006Y-43613D02*
X26903Y-43613D01*
X26955Y-43613D02*
X26955Y-43333D01*
X26938Y-43373D01*
X26920Y-43400D01*
X26903Y-43413D01*
X27074Y-43360D02*
X27083Y-43347D01*
X27100Y-43333D01*
X27143Y-43333D01*
X27160Y-43347D01*
X27169Y-43360D01*
X27177Y-43387D01*
X27177Y-43413D01*
X27169Y-43453D01*
X27066Y-43613D01*
X27177Y-43613D01*
X39637Y-50815D02*
X39650Y-50824D01*
X39663Y-50850D01*
X39663Y-50867D01*
X39650Y-50892D01*
X39623Y-50910D01*
X39597Y-50918D01*
X39543Y-50927D01*
X39503Y-50927D01*
X39450Y-50918D01*
X39423Y-50910D01*
X39397Y-50892D01*
X39383Y-50867D01*
X39383Y-50850D01*
X39397Y-50824D01*
X39410Y-50815D01*
X39663Y-50644D02*
X39663Y-50747D01*
X39663Y-50695D02*
X39383Y-50695D01*
X39423Y-50712D01*
X39450Y-50730D01*
X39463Y-50747D01*
X39663Y-50473D02*
X39663Y-50576D01*
X39663Y-50524D02*
X39383Y-50524D01*
X39423Y-50541D01*
X39450Y-50559D01*
X39463Y-50576D01*
X34535Y-42587D02*
X34526Y-42600D01*
X34500Y-42613D01*
X34483Y-42613D01*
X34458Y-42600D01*
X34440Y-42573D01*
X34432Y-42547D01*
X34423Y-42493D01*
X34423Y-42453D01*
X34432Y-42400D01*
X34440Y-42373D01*
X34458Y-42347D01*
X34483Y-42333D01*
X34500Y-42333D01*
X34526Y-42347D01*
X34535Y-42360D01*
X34706Y-42613D02*
X34603Y-42613D01*
X34655Y-42613D02*
X34655Y-42333D01*
X34638Y-42373D01*
X34620Y-42400D01*
X34603Y-42413D01*
X34817Y-42333D02*
X34834Y-42333D01*
X34851Y-42347D01*
X34860Y-42360D01*
X34869Y-42387D01*
X34877Y-42440D01*
X34877Y-42507D01*
X34869Y-42560D01*
X34860Y-42587D01*
X34851Y-42600D01*
X34834Y-42613D01*
X34817Y-42613D01*
X34800Y-42600D01*
X34791Y-42587D01*
X34783Y-42560D01*
X34774Y-42507D01*
X34774Y-42440D01*
X34783Y-42387D01*
X34791Y-42360D01*
X34800Y-42347D01*
X34817Y-42333D01*
X38771Y-46887D02*
X38762Y-46900D01*
X38736Y-46913D01*
X38719Y-46913D01*
X38694Y-46900D01*
X38676Y-46873D01*
X38668Y-46847D01*
X38659Y-46793D01*
X38659Y-46753D01*
X38668Y-46700D01*
X38676Y-46673D01*
X38694Y-46647D01*
X38719Y-46633D01*
X38736Y-46633D01*
X38762Y-46647D01*
X38771Y-46660D01*
X38856Y-46913D02*
X38891Y-46913D01*
X38908Y-46900D01*
X38916Y-46887D01*
X38934Y-46847D01*
X38942Y-46793D01*
X38942Y-46687D01*
X38934Y-46660D01*
X38925Y-46647D01*
X38908Y-46633D01*
X38874Y-46633D01*
X38856Y-46647D01*
X38848Y-46660D01*
X38839Y-46687D01*
X38839Y-46753D01*
X38848Y-46780D01*
X38856Y-46793D01*
X38874Y-46807D01*
X38908Y-46807D01*
X38925Y-46793D01*
X38934Y-46780D01*
X38942Y-46753D01*
X37687Y-51129D02*
X37700Y-51138D01*
X37713Y-51164D01*
X37713Y-51181D01*
X37700Y-51206D01*
X37673Y-51224D01*
X37647Y-51232D01*
X37593Y-51241D01*
X37553Y-51241D01*
X37500Y-51232D01*
X37473Y-51224D01*
X37447Y-51206D01*
X37433Y-51181D01*
X37433Y-51164D01*
X37447Y-51138D01*
X37460Y-51129D01*
X37433Y-51069D02*
X37433Y-50949D01*
X37713Y-51026D01*
X31071Y-43737D02*
X31062Y-43750D01*
X31036Y-43763D01*
X31019Y-43763D01*
X30994Y-43750D01*
X30976Y-43723D01*
X30968Y-43697D01*
X30959Y-43643D01*
X30959Y-43603D01*
X30968Y-43550D01*
X30976Y-43523D01*
X30994Y-43497D01*
X31019Y-43483D01*
X31036Y-43483D01*
X31062Y-43497D01*
X31071Y-43510D01*
X31225Y-43483D02*
X31191Y-43483D01*
X31174Y-43497D01*
X31165Y-43510D01*
X31148Y-43550D01*
X31139Y-43603D01*
X31139Y-43710D01*
X31148Y-43737D01*
X31156Y-43750D01*
X31174Y-43763D01*
X31208Y-43763D01*
X31225Y-43750D01*
X31234Y-43737D01*
X31242Y-43710D01*
X31242Y-43643D01*
X31234Y-43617D01*
X31225Y-43603D01*
X31208Y-43590D01*
X31174Y-43590D01*
X31156Y-43603D01*
X31148Y-43617D01*
X31139Y-43643D01*
X42887Y-47379D02*
X42900Y-47388D01*
X42913Y-47414D01*
X42913Y-47431D01*
X42900Y-47456D01*
X42873Y-47474D01*
X42847Y-47482D01*
X42793Y-47491D01*
X42753Y-47491D01*
X42700Y-47482D01*
X42673Y-47474D01*
X42647Y-47456D01*
X42633Y-47431D01*
X42633Y-47414D01*
X42647Y-47388D01*
X42660Y-47379D01*
X42633Y-47216D02*
X42633Y-47302D01*
X42767Y-47311D01*
X42753Y-47302D01*
X42740Y-47285D01*
X42740Y-47242D01*
X42753Y-47225D01*
X42767Y-47216D01*
X42793Y-47208D01*
X42860Y-47208D01*
X42887Y-47216D01*
X42900Y-47225D01*
X42913Y-47242D01*
X42913Y-47285D01*
X42900Y-47302D01*
X42887Y-47311D01*
X29187Y-50379D02*
X29200Y-50388D01*
X29213Y-50414D01*
X29213Y-50431D01*
X29200Y-50456D01*
X29173Y-50474D01*
X29147Y-50482D01*
X29093Y-50491D01*
X29053Y-50491D01*
X29000Y-50482D01*
X28973Y-50474D01*
X28947Y-50456D01*
X28933Y-50431D01*
X28933Y-50414D01*
X28947Y-50388D01*
X28960Y-50379D01*
X29027Y-50225D02*
X29213Y-50225D01*
X28920Y-50268D02*
X29120Y-50311D01*
X29120Y-50199D01*
X38775Y-46022D02*
X38766Y-46035D01*
X38740Y-46048D01*
X38723Y-46048D01*
X38698Y-46035D01*
X38680Y-46008D01*
X38672Y-45982D01*
X38663Y-45928D01*
X38663Y-45888D01*
X38672Y-45835D01*
X38680Y-45808D01*
X38698Y-45782D01*
X38723Y-45768D01*
X38740Y-45768D01*
X38766Y-45782D01*
X38775Y-45795D01*
X38835Y-45768D02*
X38946Y-45768D01*
X38886Y-45875D01*
X38912Y-45875D01*
X38929Y-45888D01*
X38938Y-45902D01*
X38946Y-45928D01*
X38946Y-45995D01*
X38938Y-46022D01*
X38929Y-46035D01*
X38912Y-46048D01*
X38860Y-46048D01*
X38843Y-46035D01*
X38835Y-46022D01*
X27021Y-42787D02*
X27012Y-42800D01*
X26986Y-42813D01*
X26969Y-42813D01*
X26944Y-42800D01*
X26926Y-42773D01*
X26918Y-42747D01*
X26909Y-42693D01*
X26909Y-42653D01*
X26918Y-42600D01*
X26926Y-42573D01*
X26944Y-42547D01*
X26969Y-42533D01*
X26986Y-42533D01*
X27012Y-42547D01*
X27021Y-42560D01*
X27192Y-42813D02*
X27089Y-42813D01*
X27141Y-42813D02*
X27141Y-42533D01*
X27124Y-42573D01*
X27106Y-42600D01*
X27089Y-42613D01*
G54D17*
X30792Y-41570D02*
X30709Y-41570D01*
X30709Y-41701D02*
X30709Y-41451D01*
X30828Y-41451D01*
X31006Y-41570D02*
X31042Y-41582D01*
X31053Y-41594D01*
X31065Y-41618D01*
X31065Y-41654D01*
X31053Y-41677D01*
X31042Y-41689D01*
X31018Y-41701D01*
X30923Y-41701D01*
X30923Y-41451D01*
X31006Y-41451D01*
X31030Y-41463D01*
X31042Y-41475D01*
X31053Y-41499D01*
X31053Y-41523D01*
X31042Y-41546D01*
X31030Y-41558D01*
X31006Y-41570D01*
X30923Y-41570D01*
X31161Y-41475D02*
X31173Y-41463D01*
X31196Y-41451D01*
X31256Y-41451D01*
X31280Y-41463D01*
X31292Y-41475D01*
X31303Y-41499D01*
X31303Y-41523D01*
X31292Y-41558D01*
X31149Y-41701D01*
X31303Y-41701D01*
X44520Y-52908D02*
X44520Y-52991D01*
X44651Y-52991D02*
X44401Y-52991D01*
X44401Y-52872D01*
X44520Y-52694D02*
X44532Y-52658D01*
X44544Y-52647D01*
X44568Y-52635D01*
X44604Y-52635D01*
X44627Y-52647D01*
X44639Y-52658D01*
X44651Y-52682D01*
X44651Y-52777D01*
X44401Y-52777D01*
X44401Y-52694D01*
X44413Y-52670D01*
X44425Y-52658D01*
X44449Y-52647D01*
X44473Y-52647D01*
X44496Y-52658D01*
X44508Y-52670D01*
X44520Y-52694D01*
X44520Y-52777D01*
X44651Y-52397D02*
X44651Y-52539D01*
X44651Y-52468D02*
X44401Y-52468D01*
X44437Y-52492D01*
X44461Y-52516D01*
X44473Y-52539D01*
G54D12*
X44378Y-55021D02*
X44378Y-54721D01*
X44450Y-54721D01*
X44493Y-54736D01*
X44521Y-54764D01*
X44536Y-54793D01*
X44550Y-54850D01*
X44550Y-54893D01*
X44536Y-54950D01*
X44521Y-54979D01*
X44493Y-55007D01*
X44450Y-55021D01*
X44378Y-55021D01*
X44650Y-54721D02*
X44836Y-54721D01*
X44736Y-54836D01*
X44778Y-54836D01*
X44807Y-54850D01*
X44821Y-54864D01*
X44836Y-54893D01*
X44836Y-54964D01*
X44821Y-54993D01*
X44807Y-55007D01*
X44778Y-55021D01*
X44693Y-55021D01*
X44664Y-55007D01*
X44650Y-54993D01*
X44378Y-54121D02*
X44378Y-53821D01*
X44450Y-53821D01*
X44493Y-53836D01*
X44521Y-53864D01*
X44536Y-53893D01*
X44550Y-53950D01*
X44550Y-53993D01*
X44536Y-54050D01*
X44521Y-54079D01*
X44493Y-54107D01*
X44450Y-54121D01*
X44378Y-54121D01*
X44664Y-53850D02*
X44678Y-53836D01*
X44707Y-53821D01*
X44778Y-53821D01*
X44807Y-53836D01*
X44821Y-53850D01*
X44836Y-53879D01*
X44836Y-53907D01*
X44821Y-53950D01*
X44650Y-54121D01*
X44836Y-54121D01*
G54D11*
X43578Y-42321D02*
X43578Y-42021D01*
X43650Y-42021D01*
X43693Y-42036D01*
X43721Y-42064D01*
X43736Y-42093D01*
X43750Y-42150D01*
X43750Y-42193D01*
X43736Y-42250D01*
X43721Y-42279D01*
X43693Y-42307D01*
X43650Y-42321D01*
X43578Y-42321D01*
X44036Y-42321D02*
X43864Y-42321D01*
X43950Y-42321D02*
X43950Y-42021D01*
X43921Y-42064D01*
X43893Y-42093D01*
X43864Y-42107D01*
G54D18*
X22502Y-45331D02*
X22502Y-45817D01*
X22530Y-45874D01*
X22559Y-45902D01*
X22616Y-45931D01*
X22730Y-45931D01*
X22788Y-45902D01*
X22816Y-45874D01*
X22845Y-45817D01*
X22845Y-45331D01*
X23445Y-45931D02*
X23102Y-45931D01*
X23274Y-45931D02*
X23274Y-45331D01*
X23217Y-45417D01*
X23159Y-45474D01*
X23102Y-45502D01*
X21995Y-47217D02*
X21795Y-47217D01*
X21795Y-47531D02*
X21795Y-46931D01*
X22081Y-46931D01*
X22595Y-47531D02*
X22309Y-47531D01*
X22309Y-46931D01*
X22766Y-47359D02*
X23052Y-47359D01*
X22709Y-47531D02*
X22909Y-46931D01*
X23109Y-47531D01*
X23280Y-47502D02*
X23366Y-47531D01*
X23509Y-47531D01*
X23566Y-47502D01*
X23595Y-47474D01*
X23623Y-47417D01*
X23623Y-47359D01*
X23595Y-47302D01*
X23566Y-47274D01*
X23509Y-47245D01*
X23395Y-47217D01*
X23337Y-47188D01*
X23309Y-47159D01*
X23280Y-47102D01*
X23280Y-47045D01*
X23309Y-46988D01*
X23337Y-46959D01*
X23395Y-46931D01*
X23537Y-46931D01*
X23623Y-46959D01*
X23880Y-47531D02*
X23880Y-46931D01*
X23880Y-47217D02*
X24223Y-47217D01*
X24223Y-47531D02*
X24223Y-46931D01*
G54D17*
X32846Y-48358D02*
X32540Y-48052D01*
X33138Y-48008D02*
X33138Y-48037D01*
X33109Y-48096D01*
X33080Y-48125D01*
X33021Y-48154D01*
X32963Y-48154D01*
X32919Y-48140D01*
X32846Y-48096D01*
X32802Y-48052D01*
X32759Y-47979D01*
X32745Y-47935D01*
X32744Y-47877D01*
X32774Y-47819D01*
X32803Y-47790D01*
X32860Y-47760D01*
X32890Y-47760D01*
X32963Y-47629D02*
X33153Y-47440D01*
X33167Y-47658D01*
X33211Y-47615D01*
X33254Y-47599D01*
X33283Y-47600D01*
X33327Y-47614D01*
X33400Y-47687D01*
X33415Y-47732D01*
X33415Y-47760D01*
X33400Y-47804D01*
X33313Y-47891D01*
X33268Y-47906D01*
X33240Y-47906D01*
G54D10*
X34570Y-51097D02*
X34702Y-50964D01*
X34623Y-51202D02*
X34437Y-50831D01*
X34808Y-51017D01*
X34583Y-50685D02*
X34742Y-50526D01*
X34941Y-50884D02*
X34662Y-50605D01*
X35127Y-50698D02*
X35180Y-50645D01*
X35193Y-50606D01*
X35193Y-50579D01*
X35180Y-50514D01*
X35140Y-50447D01*
X35034Y-50341D01*
X34994Y-50328D01*
X34968Y-50327D01*
X34927Y-50340D01*
X34874Y-50393D01*
X34862Y-50433D01*
X34862Y-50460D01*
X34875Y-50500D01*
X34941Y-50566D01*
X34981Y-50579D01*
X35008Y-50579D01*
X35047Y-50566D01*
X35100Y-50513D01*
X35114Y-50473D01*
X35113Y-50447D01*
X35100Y-50407D01*
X35524Y-50301D02*
X35365Y-50460D01*
X35445Y-50380D02*
X35166Y-50101D01*
X35180Y-50168D01*
X35180Y-50221D01*
X35166Y-50261D01*
X35617Y-50182D02*
X35670Y-50155D01*
X35736Y-50089D01*
X35750Y-50049D01*
X35750Y-50023D01*
X35736Y-49983D01*
X35710Y-49956D01*
X35670Y-49943D01*
X35644Y-49943D01*
X35604Y-49956D01*
X35538Y-49996D01*
X35498Y-50009D01*
X35472Y-50009D01*
X35432Y-49996D01*
X35405Y-49970D01*
X35392Y-49929D01*
X35392Y-49903D01*
X35405Y-49863D01*
X35471Y-49797D01*
X35524Y-49770D01*
X35816Y-49850D02*
X35949Y-49717D01*
X35869Y-49956D02*
X35683Y-49584D01*
X36054Y-49770D01*
X36148Y-49677D02*
X35869Y-49398D01*
X36161Y-49505D01*
X36054Y-49213D01*
X36333Y-49492D01*
X36161Y-49107D02*
X36347Y-48921D01*
X36506Y-49319D01*
X36705Y-49094D02*
X36757Y-49068D01*
X36824Y-49001D01*
X36838Y-48961D01*
X36837Y-48935D01*
X36824Y-48895D01*
X36798Y-48869D01*
X36757Y-48855D01*
X36732Y-48855D01*
X36692Y-48869D01*
X36625Y-48908D01*
X36586Y-48921D01*
X36559Y-48922D01*
X36519Y-48908D01*
X36493Y-48882D01*
X36479Y-48842D01*
X36479Y-48815D01*
X36492Y-48775D01*
X36559Y-48709D01*
X36612Y-48683D01*
G54D13*
X44955Y-37312D02*
X44955Y-36912D01*
X45108Y-36912D01*
X45146Y-36931D01*
X45165Y-36950D01*
X45184Y-36988D01*
X45184Y-37045D01*
X45165Y-37083D01*
X45146Y-37102D01*
X45108Y-37121D01*
X44955Y-37121D01*
X45336Y-36950D02*
X45355Y-36931D01*
X45393Y-36912D01*
X45489Y-36912D01*
X45527Y-36931D01*
X45546Y-36950D01*
X45565Y-36988D01*
X45565Y-37026D01*
X45546Y-37083D01*
X45317Y-37312D01*
X45565Y-37312D01*
X45916Y-37312D02*
X45916Y-36912D01*
X46000Y-36912D01*
X46050Y-36931D01*
X46083Y-36969D01*
X46100Y-37007D01*
X46116Y-37083D01*
X46116Y-37140D01*
X46100Y-37217D01*
X46083Y-37255D01*
X46050Y-37293D01*
X46000Y-37312D01*
X45916Y-37312D01*
X46266Y-37102D02*
X46383Y-37102D01*
X46433Y-37312D02*
X46266Y-37312D01*
X46266Y-36912D01*
X46433Y-36912D01*
X46700Y-37102D02*
X46750Y-37121D01*
X46767Y-37140D01*
X46783Y-37179D01*
X46783Y-37236D01*
X46767Y-37274D01*
X46750Y-37293D01*
X46717Y-37312D01*
X46583Y-37312D01*
X46583Y-36912D01*
X46700Y-36912D01*
X46733Y-36931D01*
X46750Y-36950D01*
X46767Y-36988D01*
X46767Y-37026D01*
X46750Y-37064D01*
X46733Y-37083D01*
X46700Y-37102D01*
X46583Y-37102D01*
X46933Y-36912D02*
X46933Y-37236D01*
X46950Y-37274D01*
X46967Y-37293D01*
X47000Y-37312D01*
X47067Y-37312D01*
X47100Y-37293D01*
X47117Y-37274D01*
X47133Y-37236D01*
X47133Y-36912D01*
X47484Y-36931D02*
X47450Y-36912D01*
X47400Y-36912D01*
X47350Y-36931D01*
X47317Y-36969D01*
X47300Y-37007D01*
X47284Y-37083D01*
X47284Y-37140D01*
X47300Y-37217D01*
X47317Y-37255D01*
X47350Y-37293D01*
X47400Y-37312D01*
X47434Y-37312D01*
X47484Y-37293D01*
X47500Y-37274D01*
X47500Y-37140D01*
X47434Y-37140D01*
G54D12*
X45822Y-42299D02*
X45793Y-42285D01*
X45765Y-42256D01*
X45722Y-42214D01*
X45693Y-42199D01*
X45665Y-42199D01*
X45679Y-42271D02*
X45651Y-42256D01*
X45622Y-42228D01*
X45608Y-42171D01*
X45608Y-42071D01*
X45622Y-42014D01*
X45651Y-41986D01*
X45679Y-41972D01*
X45736Y-41972D01*
X45765Y-41986D01*
X45793Y-42014D01*
X45807Y-42071D01*
X45807Y-42171D01*
X45793Y-42228D01*
X45765Y-42256D01*
X45736Y-42271D01*
X45679Y-42271D01*
X45921Y-42000D02*
X45935Y-41986D01*
X45964Y-41972D01*
X46035Y-41972D01*
X46063Y-41986D01*
X46078Y-42000D01*
X46092Y-42028D01*
X46092Y-42057D01*
X46078Y-42100D01*
X45907Y-42271D01*
X46092Y-42271D01*
X43872Y-45249D02*
X43843Y-45235D01*
X43815Y-45206D01*
X43772Y-45164D01*
X43743Y-45149D01*
X43715Y-45149D01*
X43729Y-45221D02*
X43701Y-45206D01*
X43672Y-45178D01*
X43658Y-45121D01*
X43658Y-45021D01*
X43672Y-44964D01*
X43701Y-44936D01*
X43729Y-44922D01*
X43786Y-44922D01*
X43815Y-44936D01*
X43843Y-44964D01*
X43857Y-45021D01*
X43857Y-45121D01*
X43843Y-45178D01*
X43815Y-45206D01*
X43786Y-45221D01*
X43729Y-45221D01*
X44142Y-45221D02*
X43971Y-45221D01*
X44056Y-45221D02*
X44056Y-44922D01*
X44028Y-44964D01*
X43999Y-44993D01*
X43971Y-45007D01*
G54D18*
X21720Y-53547D02*
X21806Y-53576D01*
X21949Y-53576D01*
X22006Y-53547D01*
X22035Y-53519D01*
X22063Y-53462D01*
X22063Y-53404D01*
X22035Y-53347D01*
X22006Y-53319D01*
X21949Y-53290D01*
X21835Y-53262D01*
X21777Y-53233D01*
X21749Y-53204D01*
X21720Y-53147D01*
X21720Y-53090D01*
X21749Y-53033D01*
X21777Y-53004D01*
X21835Y-52976D01*
X21977Y-52976D01*
X22063Y-53004D01*
X22263Y-52976D02*
X22406Y-53576D01*
X22520Y-53147D01*
X22634Y-53576D01*
X22777Y-52976D01*
X23320Y-53576D02*
X22977Y-53576D01*
X23149Y-53576D02*
X23149Y-52976D01*
X23092Y-53062D01*
X23034Y-53119D01*
X22977Y-53147D01*
X21629Y-51993D02*
X21429Y-51707D01*
X21286Y-51993D02*
X21286Y-51393D01*
X21514Y-51393D01*
X21572Y-51421D01*
X21600Y-51450D01*
X21629Y-51507D01*
X21629Y-51593D01*
X21600Y-51650D01*
X21572Y-51679D01*
X21514Y-51707D01*
X21286Y-51707D01*
X21886Y-51679D02*
X22086Y-51679D01*
X22172Y-51993D02*
X21886Y-51993D01*
X21886Y-51393D01*
X22172Y-51393D01*
X22400Y-51964D02*
X22486Y-51993D01*
X22629Y-51993D01*
X22686Y-51964D01*
X22715Y-51936D01*
X22743Y-51879D01*
X22743Y-51821D01*
X22715Y-51764D01*
X22686Y-51736D01*
X22629Y-51707D01*
X22515Y-51679D01*
X22457Y-51650D01*
X22429Y-51621D01*
X22400Y-51564D01*
X22400Y-51507D01*
X22429Y-51450D01*
X22457Y-51421D01*
X22515Y-51393D01*
X22657Y-51393D01*
X22743Y-51421D01*
X23000Y-51679D02*
X23200Y-51679D01*
X23286Y-51993D02*
X23000Y-51993D01*
X23000Y-51393D01*
X23286Y-51393D01*
X23457Y-51393D02*
X23800Y-51393D01*
X23629Y-51993D02*
X23629Y-51393D01*
X26450Y-54664D02*
X26536Y-54693D01*
X26679Y-54693D01*
X26736Y-54664D01*
X26765Y-54636D01*
X26793Y-54579D01*
X26793Y-54521D01*
X26765Y-54464D01*
X26736Y-54436D01*
X26679Y-54407D01*
X26565Y-54379D01*
X26507Y-54350D01*
X26479Y-54321D01*
X26450Y-54264D01*
X26450Y-54207D01*
X26479Y-54150D01*
X26507Y-54121D01*
X26565Y-54093D01*
X26707Y-54093D01*
X26793Y-54121D01*
X26993Y-54093D02*
X27136Y-54693D01*
X27250Y-54264D01*
X27364Y-54693D01*
X27507Y-54093D01*
X27707Y-54150D02*
X27736Y-54121D01*
X27793Y-54093D01*
X27936Y-54093D01*
X27993Y-54121D01*
X28022Y-54150D01*
X28050Y-54207D01*
X28050Y-54264D01*
X28022Y-54350D01*
X27679Y-54693D01*
X28050Y-54693D01*
G54D23*
X25608Y-52603D02*
X25664Y-52622D01*
X25683Y-52641D01*
X25702Y-52678D01*
X25702Y-52734D01*
X25683Y-52772D01*
X25664Y-52791D01*
X25627Y-52809D01*
X25477Y-52809D01*
X25477Y-52415D01*
X25608Y-52415D01*
X25646Y-52434D01*
X25664Y-52453D01*
X25683Y-52491D01*
X25683Y-52528D01*
X25664Y-52566D01*
X25646Y-52584D01*
X25608Y-52603D01*
X25477Y-52603D01*
X25946Y-52415D02*
X26021Y-52415D01*
X26058Y-52434D01*
X26096Y-52472D01*
X26115Y-52547D01*
X26115Y-52678D01*
X26096Y-52753D01*
X26058Y-52791D01*
X26021Y-52809D01*
X25946Y-52809D01*
X25908Y-52791D01*
X25871Y-52753D01*
X25852Y-52678D01*
X25852Y-52547D01*
X25871Y-52472D01*
X25908Y-52434D01*
X25946Y-52415D01*
X26359Y-52415D02*
X26434Y-52415D01*
X26471Y-52434D01*
X26509Y-52472D01*
X26528Y-52547D01*
X26528Y-52678D01*
X26509Y-52753D01*
X26471Y-52791D01*
X26434Y-52809D01*
X26359Y-52809D01*
X26321Y-52791D01*
X26284Y-52753D01*
X26265Y-52678D01*
X26265Y-52547D01*
X26284Y-52472D01*
X26321Y-52434D01*
X26359Y-52415D01*
X26641Y-52415D02*
X26866Y-52415D01*
X26753Y-52809D02*
X26753Y-52415D01*
X27184Y-52809D02*
X26997Y-52809D01*
X26997Y-52415D01*
X27391Y-52415D02*
X27466Y-52415D01*
X27503Y-52434D01*
X27541Y-52472D01*
X27560Y-52547D01*
X27560Y-52678D01*
X27541Y-52753D01*
X27503Y-52791D01*
X27466Y-52809D01*
X27391Y-52809D01*
X27353Y-52791D01*
X27316Y-52753D01*
X27297Y-52678D01*
X27297Y-52547D01*
X27316Y-52472D01*
X27353Y-52434D01*
X27391Y-52415D01*
X27710Y-52697D02*
X27898Y-52697D01*
X27673Y-52809D02*
X27804Y-52415D01*
X27935Y-52809D01*
X28067Y-52809D02*
X28067Y-52415D01*
X28161Y-52415D01*
X28217Y-52434D01*
X28254Y-52472D01*
X28273Y-52509D01*
X28292Y-52584D01*
X28292Y-52641D01*
X28273Y-52716D01*
X28254Y-52753D01*
X28217Y-52791D01*
X28161Y-52809D01*
X28067Y-52809D01*
X28461Y-52603D02*
X28592Y-52603D01*
X28648Y-52809D02*
X28461Y-52809D01*
X28461Y-52415D01*
X28648Y-52415D01*
X29042Y-52809D02*
X28911Y-52622D01*
X28817Y-52809D02*
X28817Y-52415D01*
X28967Y-52415D01*
X29004Y-52434D01*
X29023Y-52453D01*
X29042Y-52491D01*
X29042Y-52547D01*
X29023Y-52584D01*
X29004Y-52603D01*
X28967Y-52622D01*
X28817Y-52622D01*
G54D18*
X15108Y-42143D02*
X15108Y-41543D01*
X15336Y-41543D01*
X15394Y-41571D01*
X15422Y-41600D01*
X15451Y-41657D01*
X15451Y-41743D01*
X15422Y-41800D01*
X15394Y-41829D01*
X15336Y-41857D01*
X15108Y-41857D01*
X15965Y-41743D02*
X15965Y-42143D01*
X15822Y-41514D02*
X15679Y-41943D01*
X16051Y-41943D01*
X15193Y-44764D02*
X15279Y-44793D01*
X15422Y-44793D01*
X15479Y-44764D01*
X15508Y-44736D01*
X15536Y-44679D01*
X15536Y-44621D01*
X15508Y-44564D01*
X15479Y-44536D01*
X15422Y-44507D01*
X15308Y-44479D01*
X15250Y-44450D01*
X15222Y-44421D01*
X15193Y-44364D01*
X15193Y-44307D01*
X15222Y-44250D01*
X15250Y-44221D01*
X15308Y-44193D01*
X15450Y-44193D01*
X15536Y-44221D01*
X15793Y-44793D02*
X15793Y-44193D01*
X16079Y-44793D02*
X16079Y-44193D01*
X16279Y-44621D01*
X16479Y-44193D01*
X16479Y-44793D01*
G54D17*
X22671Y-49243D02*
X22371Y-49243D01*
X22643Y-48928D02*
X22657Y-48942D01*
X22671Y-48985D01*
X22671Y-49014D01*
X22657Y-49057D01*
X22629Y-49085D01*
X22600Y-49100D01*
X22543Y-49114D01*
X22500Y-49114D01*
X22443Y-49100D01*
X22414Y-49085D01*
X22386Y-49057D01*
X22371Y-49014D01*
X22371Y-48985D01*
X22386Y-48942D01*
X22400Y-48928D01*
X22471Y-48671D02*
X22671Y-48671D01*
X22357Y-48742D02*
X22571Y-48814D01*
X22571Y-48628D01*
G54D22*
X26271Y-48898D02*
X26211Y-48765D01*
X26168Y-48898D02*
X26168Y-48618D01*
X26236Y-48618D01*
X26254Y-48632D01*
X26262Y-48645D01*
X26271Y-48672D01*
X26271Y-48712D01*
X26262Y-48738D01*
X26254Y-48752D01*
X26236Y-48765D01*
X26168Y-48765D01*
X26339Y-48645D02*
X26348Y-48632D01*
X26365Y-48618D01*
X26408Y-48618D01*
X26425Y-48632D01*
X26434Y-48645D01*
X26442Y-48672D01*
X26442Y-48698D01*
X26434Y-48738D01*
X26331Y-48898D01*
X26442Y-48898D01*
X26510Y-48645D02*
X26519Y-48632D01*
X26536Y-48618D01*
X26579Y-48618D01*
X26596Y-48632D01*
X26605Y-48645D01*
X26613Y-48672D01*
X26613Y-48698D01*
X26605Y-48738D01*
X26502Y-48898D01*
X26613Y-48898D01*
X15863Y-45665D02*
X15730Y-45725D01*
X15863Y-45768D02*
X15583Y-45768D01*
X15583Y-45700D01*
X15597Y-45682D01*
X15610Y-45674D01*
X15637Y-45665D01*
X15677Y-45665D01*
X15703Y-45674D01*
X15717Y-45682D01*
X15730Y-45700D01*
X15730Y-45768D01*
X15610Y-45597D02*
X15597Y-45588D01*
X15583Y-45571D01*
X15583Y-45528D01*
X15597Y-45511D01*
X15610Y-45502D01*
X15637Y-45494D01*
X15663Y-45494D01*
X15703Y-45502D01*
X15863Y-45605D01*
X15863Y-45494D01*
X15863Y-45323D02*
X15863Y-45426D01*
X15863Y-45374D02*
X15583Y-45374D01*
X15623Y-45391D01*
X15650Y-45409D01*
X15663Y-45426D01*
X17563Y-45665D02*
X17430Y-45725D01*
X17563Y-45768D02*
X17283Y-45768D01*
X17283Y-45700D01*
X17297Y-45682D01*
X17310Y-45674D01*
X17337Y-45665D01*
X17377Y-45665D01*
X17403Y-45674D01*
X17417Y-45682D01*
X17430Y-45700D01*
X17430Y-45768D01*
X17310Y-45597D02*
X17297Y-45588D01*
X17283Y-45571D01*
X17283Y-45528D01*
X17297Y-45511D01*
X17310Y-45502D01*
X17337Y-45494D01*
X17363Y-45494D01*
X17403Y-45502D01*
X17563Y-45605D01*
X17563Y-45494D01*
X17283Y-45383D02*
X17283Y-45366D01*
X17297Y-45349D01*
X17310Y-45340D01*
X17337Y-45331D01*
X17390Y-45323D01*
X17457Y-45323D01*
X17510Y-45331D01*
X17537Y-45340D01*
X17550Y-45349D01*
X17563Y-45366D01*
X17563Y-45383D01*
X17550Y-45400D01*
X17537Y-45409D01*
X17510Y-45417D01*
X17457Y-45426D01*
X17390Y-45426D01*
X17337Y-45417D01*
X17310Y-45409D01*
X17297Y-45400D01*
X17283Y-45383D01*
X16763Y-45665D02*
X16630Y-45725D01*
X16763Y-45768D02*
X16483Y-45768D01*
X16483Y-45700D01*
X16497Y-45682D01*
X16510Y-45674D01*
X16537Y-45665D01*
X16577Y-45665D01*
X16603Y-45674D01*
X16617Y-45682D01*
X16630Y-45700D01*
X16630Y-45768D01*
X16763Y-45494D02*
X16763Y-45597D01*
X16763Y-45545D02*
X16483Y-45545D01*
X16523Y-45562D01*
X16550Y-45580D01*
X16563Y-45597D01*
X16763Y-45409D02*
X16763Y-45374D01*
X16750Y-45357D01*
X16737Y-45349D01*
X16697Y-45331D01*
X16643Y-45323D01*
X16537Y-45323D01*
X16510Y-45331D01*
X16497Y-45340D01*
X16483Y-45357D01*
X16483Y-45391D01*
X16497Y-45409D01*
X16510Y-45417D01*
X16537Y-45426D01*
X16603Y-45426D01*
X16630Y-45417D01*
X16643Y-45409D01*
X16657Y-45391D01*
X16657Y-45357D01*
X16643Y-45340D01*
X16630Y-45331D01*
X16603Y-45323D01*
X25287Y-50265D02*
X25300Y-50274D01*
X25313Y-50300D01*
X25313Y-50317D01*
X25300Y-50342D01*
X25273Y-50360D01*
X25247Y-50368D01*
X25193Y-50377D01*
X25153Y-50377D01*
X25100Y-50368D01*
X25073Y-50360D01*
X25047Y-50342D01*
X25033Y-50317D01*
X25033Y-50300D01*
X25047Y-50274D01*
X25060Y-50265D01*
X25060Y-50197D02*
X25047Y-50188D01*
X25033Y-50171D01*
X25033Y-50128D01*
X25047Y-50111D01*
X25060Y-50102D01*
X25087Y-50094D01*
X25113Y-50094D01*
X25153Y-50102D01*
X25313Y-50205D01*
X25313Y-50094D01*
X25127Y-49940D02*
X25313Y-49940D01*
X25020Y-49983D02*
X25220Y-50026D01*
X25220Y-49914D01*
G54D17*
X26757Y-51271D02*
X26757Y-50971D01*
X27018Y-51243D02*
X27006Y-51257D01*
X26971Y-51271D01*
X26947Y-51271D01*
X26911Y-51257D01*
X26887Y-51229D01*
X26876Y-51200D01*
X26864Y-51143D01*
X26864Y-51100D01*
X26876Y-51043D01*
X26887Y-51014D01*
X26911Y-50986D01*
X26947Y-50971D01*
X26971Y-50971D01*
X27006Y-50986D01*
X27018Y-51000D01*
X27245Y-50971D02*
X27126Y-50971D01*
X27114Y-51114D01*
X27126Y-51100D01*
X27149Y-51086D01*
X27209Y-51086D01*
X27233Y-51100D01*
X27245Y-51114D01*
X27256Y-51143D01*
X27256Y-51214D01*
X27245Y-51243D01*
X27233Y-51257D01*
X27209Y-51271D01*
X27149Y-51271D01*
X27126Y-51257D01*
X27114Y-51243D01*
G54D12*
X39371Y-54492D02*
X39072Y-54492D01*
X39342Y-54179D02*
X39356Y-54193D01*
X39371Y-54236D01*
X39371Y-54264D01*
X39356Y-54307D01*
X39328Y-54336D01*
X39299Y-54350D01*
X39242Y-54364D01*
X39200Y-54364D01*
X39143Y-54350D01*
X39114Y-54336D01*
X39086Y-54307D01*
X39072Y-54264D01*
X39072Y-54236D01*
X39086Y-54193D01*
X39100Y-54179D01*
X39100Y-54065D02*
X39086Y-54051D01*
X39072Y-54022D01*
X39072Y-53951D01*
X39086Y-53923D01*
X39100Y-53908D01*
X39128Y-53894D01*
X39157Y-53894D01*
X39200Y-53908D01*
X39371Y-54079D01*
X39371Y-53894D01*
X39037Y-55271D02*
X38894Y-55271D01*
X38894Y-54972D01*
X39136Y-55271D02*
X39136Y-54972D01*
X39207Y-54972D01*
X39250Y-54986D01*
X39279Y-55014D01*
X39293Y-55043D01*
X39307Y-55100D01*
X39307Y-55142D01*
X39293Y-55199D01*
X39279Y-55228D01*
X39250Y-55256D01*
X39207Y-55271D01*
X39136Y-55271D01*
X39492Y-54972D02*
X39549Y-54972D01*
X39578Y-54986D01*
X39606Y-55014D01*
X39620Y-55071D01*
X39620Y-55171D01*
X39606Y-55228D01*
X39578Y-55256D01*
X39549Y-55271D01*
X39492Y-55271D01*
X39464Y-55256D01*
X39435Y-55228D01*
X39421Y-55171D01*
X39421Y-55071D01*
X39435Y-55014D01*
X39464Y-54986D01*
X39492Y-54972D01*
G54D18*
X47400Y-39293D02*
X47400Y-39721D01*
X47372Y-39807D01*
X47315Y-39864D01*
X47229Y-39893D01*
X47172Y-39893D01*
X47657Y-39350D02*
X47686Y-39321D01*
X47743Y-39293D01*
X47886Y-39293D01*
X47943Y-39321D01*
X47972Y-39350D01*
X48000Y-39407D01*
X48000Y-39464D01*
X47972Y-39550D01*
X47629Y-39893D01*
X48000Y-39893D01*
X43936Y-40857D02*
X43936Y-41285D01*
X43908Y-41371D01*
X43851Y-41428D01*
X43765Y-41457D01*
X43708Y-41457D01*
X44193Y-41285D02*
X44479Y-41285D01*
X44136Y-41457D02*
X44336Y-40857D01*
X44536Y-41457D01*
X45079Y-41400D02*
X45050Y-41428D01*
X44964Y-41457D01*
X44907Y-41457D01*
X44822Y-41428D01*
X44764Y-41371D01*
X44736Y-41314D01*
X44707Y-41200D01*
X44707Y-41114D01*
X44736Y-41000D01*
X44764Y-40943D01*
X44822Y-40885D01*
X44907Y-40857D01*
X44964Y-40857D01*
X45050Y-40885D01*
X45079Y-40914D01*
X45336Y-41457D02*
X45336Y-40857D01*
X45679Y-41457D02*
X45422Y-41114D01*
X45679Y-40857D02*
X45336Y-41200D01*
X45793Y-41514D02*
X46250Y-41514D01*
X46364Y-40914D02*
X46393Y-40885D01*
X46450Y-40857D01*
X46593Y-40857D01*
X46650Y-40885D01*
X46679Y-40914D01*
X46707Y-40971D01*
X46707Y-41028D01*
X46679Y-41114D01*
X46336Y-41457D01*
X46707Y-41457D01*
X46964Y-41400D02*
X46992Y-41428D01*
X46964Y-41457D01*
X46935Y-41428D01*
X46964Y-41400D01*
X46964Y-41457D01*
X47536Y-40857D02*
X47250Y-40857D01*
X47221Y-41143D01*
X47250Y-41114D01*
X47307Y-41085D01*
X47450Y-41085D01*
X47507Y-41114D01*
X47536Y-41143D01*
X47564Y-41200D01*
X47564Y-41343D01*
X47536Y-41400D01*
X47507Y-41428D01*
X47450Y-41457D01*
X47307Y-41457D01*
X47250Y-41428D01*
X47221Y-41400D01*
X45243Y-46393D02*
X45243Y-46879D01*
X45271Y-46936D01*
X45300Y-46964D01*
X45357Y-46993D01*
X45471Y-46993D01*
X45529Y-46964D01*
X45557Y-46936D01*
X45586Y-46879D01*
X45586Y-46393D01*
X45843Y-46964D02*
X45929Y-46993D01*
X46072Y-46993D01*
X46129Y-46964D01*
X46158Y-46936D01*
X46186Y-46879D01*
X46186Y-46821D01*
X46158Y-46764D01*
X46129Y-46736D01*
X46072Y-46707D01*
X45958Y-46679D01*
X45900Y-46650D01*
X45872Y-46621D01*
X45843Y-46564D01*
X45843Y-46507D01*
X45872Y-46450D01*
X45900Y-46421D01*
X45958Y-46393D01*
X46100Y-46393D01*
X46186Y-46421D01*
X46643Y-46679D02*
X46729Y-46707D01*
X46757Y-46736D01*
X46786Y-46793D01*
X46786Y-46879D01*
X46757Y-46936D01*
X46729Y-46964D01*
X46671Y-46993D01*
X46443Y-46993D01*
X46443Y-46393D01*
X46643Y-46393D01*
X46700Y-46421D01*
X46729Y-46450D01*
X46757Y-46507D01*
X46757Y-46564D01*
X46729Y-46621D01*
X46700Y-46650D01*
X46643Y-46679D01*
X46443Y-46679D01*
M02*
