G04 (created by PCBNEW-RS274X (2010-00-09 BZR 23xx)-stable) date Di 17 Mai 2011 13:18:14 CEST*
G01*
G70*
G90*
%MOIN*%
G04 Gerber Fmt 3.4, Leading zero omitted, Abs format*
%FSLAX34Y34*%
G04 APERTURE LIST*
%ADD10C,0.006000*%
%ADD11C,0.008000*%
%ADD12C,0.012000*%
%ADD13C,0.039400*%
%ADD14R,0.060000X0.060000*%
%ADD15C,0.060000*%
%ADD16C,0.035000*%
%ADD17C,0.010000*%
G04 APERTURE END LIST*
G54D10*
G54D11*
X14450Y-56300D02*
X14450Y-34950D01*
X48250Y-56300D02*
X14450Y-56300D01*
X48250Y-34950D02*
X48250Y-56300D01*
X15250Y-34950D02*
X48250Y-34950D01*
X14450Y-34950D02*
X15250Y-34950D01*
G54D12*
X28493Y-55636D02*
X28436Y-55674D01*
X28321Y-55674D01*
X28264Y-55636D01*
X28236Y-55560D01*
X28236Y-55521D01*
X28264Y-55445D01*
X28321Y-55407D01*
X28407Y-55407D01*
X28464Y-55369D01*
X28493Y-55293D01*
X28493Y-55255D01*
X28464Y-55179D01*
X28407Y-55140D01*
X28321Y-55140D01*
X28264Y-55179D01*
X27978Y-55674D02*
X27978Y-55140D01*
X27978Y-54874D02*
X28007Y-54912D01*
X27978Y-54950D01*
X27950Y-54912D01*
X27978Y-54874D01*
X27978Y-54950D01*
X27692Y-55674D02*
X27692Y-55140D01*
X27692Y-55217D02*
X27664Y-55179D01*
X27606Y-55140D01*
X27521Y-55140D01*
X27464Y-55179D01*
X27435Y-55255D01*
X27435Y-55674D01*
X27435Y-55255D02*
X27406Y-55179D01*
X27349Y-55140D01*
X27264Y-55140D01*
X27206Y-55179D01*
X27178Y-55255D01*
X27178Y-55674D01*
X26978Y-55140D02*
X26749Y-55140D01*
X26892Y-54874D02*
X26892Y-55560D01*
X26864Y-55636D01*
X26806Y-55674D01*
X26749Y-55674D01*
X26549Y-55674D02*
X26549Y-55140D01*
X26549Y-55293D02*
X26521Y-55217D01*
X26492Y-55179D01*
X26435Y-55140D01*
X26378Y-55140D01*
X25921Y-55674D02*
X25921Y-55255D01*
X25950Y-55179D01*
X26007Y-55140D01*
X26121Y-55140D01*
X26178Y-55179D01*
X25921Y-55636D02*
X25978Y-55674D01*
X26121Y-55674D01*
X26178Y-55636D01*
X26207Y-55560D01*
X26207Y-55483D01*
X26178Y-55407D01*
X26121Y-55369D01*
X25978Y-55369D01*
X25921Y-55331D01*
X25378Y-55636D02*
X25435Y-55674D01*
X25549Y-55674D01*
X25607Y-55636D01*
X25635Y-55598D01*
X25664Y-55521D01*
X25664Y-55293D01*
X25635Y-55217D01*
X25607Y-55179D01*
X25549Y-55140D01*
X25435Y-55140D01*
X25378Y-55179D01*
X24893Y-55636D02*
X24950Y-55674D01*
X25064Y-55674D01*
X25121Y-55636D01*
X25150Y-55560D01*
X25150Y-55255D01*
X25121Y-55179D01*
X25064Y-55140D01*
X24950Y-55140D01*
X24893Y-55179D01*
X24864Y-55255D01*
X24864Y-55331D01*
X25150Y-55407D01*
X24607Y-55598D02*
X24579Y-55636D01*
X24607Y-55674D01*
X24636Y-55636D01*
X24607Y-55598D01*
X24607Y-55674D01*
X24235Y-55674D02*
X24293Y-55636D01*
X24321Y-55598D01*
X24350Y-55521D01*
X24350Y-55293D01*
X24321Y-55217D01*
X24293Y-55179D01*
X24235Y-55140D01*
X24150Y-55140D01*
X24093Y-55179D01*
X24064Y-55217D01*
X24035Y-55293D01*
X24035Y-55521D01*
X24064Y-55598D01*
X24093Y-55636D01*
X24150Y-55674D01*
X24235Y-55674D01*
X23807Y-55636D02*
X23750Y-55674D01*
X23635Y-55674D01*
X23578Y-55636D01*
X23550Y-55560D01*
X23550Y-55521D01*
X23578Y-55445D01*
X23635Y-55407D01*
X23721Y-55407D01*
X23778Y-55369D01*
X23807Y-55293D01*
X23807Y-55255D01*
X23778Y-55179D01*
X23721Y-55140D01*
X23635Y-55140D01*
X23578Y-55179D01*
X23292Y-55674D02*
X23292Y-55140D01*
X23292Y-55217D02*
X23264Y-55179D01*
X23206Y-55140D01*
X23121Y-55140D01*
X23064Y-55179D01*
X23035Y-55255D01*
X23035Y-55674D01*
X23035Y-55255D02*
X23006Y-55179D01*
X22949Y-55140D01*
X22864Y-55140D01*
X22806Y-55179D01*
X22778Y-55255D01*
X22778Y-55674D01*
X22406Y-55674D02*
X22464Y-55636D01*
X22492Y-55598D01*
X22521Y-55521D01*
X22521Y-55293D01*
X22492Y-55217D01*
X22464Y-55179D01*
X22406Y-55140D01*
X22321Y-55140D01*
X22264Y-55179D01*
X22235Y-55217D01*
X22206Y-55293D01*
X22206Y-55521D01*
X22235Y-55598D01*
X22264Y-55636D01*
X22321Y-55674D01*
X22406Y-55674D01*
X21692Y-55636D02*
X21749Y-55674D01*
X21863Y-55674D01*
X21921Y-55636D01*
X21949Y-55598D01*
X21978Y-55521D01*
X21978Y-55293D01*
X21949Y-55217D01*
X21921Y-55179D01*
X21863Y-55140D01*
X21749Y-55140D01*
X21692Y-55179D01*
X21349Y-55674D02*
X21407Y-55636D01*
X21435Y-55598D01*
X21464Y-55521D01*
X21464Y-55293D01*
X21435Y-55217D01*
X21407Y-55179D01*
X21349Y-55140D01*
X21264Y-55140D01*
X21207Y-55179D01*
X21178Y-55217D01*
X21149Y-55293D01*
X21149Y-55521D01*
X21178Y-55598D01*
X21207Y-55636D01*
X21264Y-55674D01*
X21349Y-55674D01*
X20892Y-55674D02*
X20892Y-55140D01*
X20892Y-55217D02*
X20864Y-55179D01*
X20806Y-55140D01*
X20721Y-55140D01*
X20664Y-55179D01*
X20635Y-55255D01*
X20635Y-55674D01*
X20635Y-55255D02*
X20606Y-55179D01*
X20549Y-55140D01*
X20464Y-55140D01*
X20406Y-55179D01*
X20378Y-55255D01*
X20378Y-55674D01*
X20092Y-55598D02*
X20064Y-55636D01*
X20092Y-55674D01*
X20121Y-55636D01*
X20092Y-55598D01*
X20092Y-55674D01*
X19720Y-55674D02*
X19778Y-55636D01*
X19806Y-55598D01*
X19835Y-55521D01*
X19835Y-55293D01*
X19806Y-55217D01*
X19778Y-55179D01*
X19720Y-55140D01*
X19635Y-55140D01*
X19578Y-55179D01*
X19549Y-55217D01*
X19520Y-55293D01*
X19520Y-55521D01*
X19549Y-55598D01*
X19578Y-55636D01*
X19635Y-55674D01*
X19720Y-55674D01*
X19263Y-55674D02*
X19263Y-55140D01*
X19263Y-55293D02*
X19235Y-55217D01*
X19206Y-55179D01*
X19149Y-55140D01*
X19092Y-55140D01*
X18635Y-55140D02*
X18635Y-55788D01*
X18664Y-55864D01*
X18692Y-55902D01*
X18749Y-55940D01*
X18835Y-55940D01*
X18892Y-55902D01*
X18635Y-55636D02*
X18692Y-55674D01*
X18806Y-55674D01*
X18864Y-55636D01*
X18892Y-55598D01*
X18921Y-55521D01*
X18921Y-55293D01*
X18892Y-55217D01*
X18864Y-55179D01*
X18806Y-55140D01*
X18692Y-55140D01*
X18635Y-55179D01*
G54D13*
X46381Y-38650D03*
X44019Y-38650D03*
G54D14*
X26700Y-37200D03*
G54D15*
X26700Y-36200D03*
X27700Y-37200D03*
X27700Y-36200D03*
X28700Y-37200D03*
X28700Y-36200D03*
X29700Y-37200D03*
X29700Y-36200D03*
X30700Y-37200D03*
X30700Y-36200D03*
X31700Y-37200D03*
X31700Y-36200D03*
X32700Y-37200D03*
X32700Y-36200D03*
X33700Y-37200D03*
X33700Y-36200D03*
X34700Y-37200D03*
X34700Y-36200D03*
X35700Y-37200D03*
X35700Y-36200D03*
G54D14*
X36400Y-39750D03*
G54D15*
X37400Y-39750D03*
G54D14*
X39400Y-39700D03*
G54D15*
X40400Y-39700D03*
G54D14*
X46600Y-53700D03*
G54D15*
X46600Y-54700D03*
G54D14*
X38250Y-37150D03*
G54D15*
X38250Y-36150D03*
X39250Y-37150D03*
X39250Y-36150D03*
X40250Y-37150D03*
X40250Y-36150D03*
G54D16*
X31231Y-46702D03*
X32935Y-48528D03*
X35908Y-47209D03*
X31803Y-45583D03*
X30885Y-44984D03*
X32760Y-46623D03*
X21785Y-40770D03*
X34344Y-47293D03*
X33174Y-52409D03*
X33972Y-48587D03*
X35450Y-49618D03*
X36539Y-48982D03*
X20733Y-43930D03*
X27217Y-49168D03*
X17632Y-42186D03*
X33597Y-47881D03*
X33086Y-47370D03*
X21766Y-41832D03*
X26986Y-48216D03*
X22829Y-43929D03*
X30016Y-52898D03*
X29300Y-47712D03*
X29516Y-54115D03*
X28845Y-47808D03*
X33628Y-52363D03*
X33443Y-49767D03*
X32261Y-48563D03*
X22544Y-41844D03*
X30086Y-48456D03*
X23025Y-41993D03*
X34784Y-49479D03*
X29484Y-49487D03*
X33639Y-45194D03*
X34614Y-48277D03*
X34698Y-43367D03*
X37463Y-47025D03*
X34103Y-43902D03*
X28150Y-45859D03*
X23323Y-41090D03*
X35131Y-49051D03*
X30709Y-52356D03*
X33832Y-51634D03*
X36219Y-45915D03*
X32598Y-43246D03*
X31733Y-49757D03*
X35129Y-42418D03*
X31928Y-41381D03*
X31356Y-43907D03*
X27752Y-45069D03*
X32209Y-45081D03*
G54D11*
X31232Y-46825D02*
X32935Y-48528D01*
X31232Y-46702D02*
X31232Y-46825D01*
X31231Y-46702D02*
X31232Y-46702D01*
X35901Y-47202D02*
X35908Y-47209D01*
X35901Y-39401D02*
X35901Y-47202D01*
X33700Y-37200D02*
X35901Y-39401D01*
X31484Y-45583D02*
X31803Y-45583D01*
X30885Y-44984D02*
X31484Y-45583D01*
X32760Y-44597D02*
X32760Y-46623D01*
X28750Y-40587D02*
X32760Y-44597D01*
X21968Y-40587D02*
X28750Y-40587D01*
X21785Y-40770D02*
X21968Y-40587D01*
X33674Y-46623D02*
X34344Y-47293D01*
X32760Y-46623D02*
X33674Y-46623D01*
X33114Y-52349D02*
X33174Y-52409D01*
X33114Y-49445D02*
X33114Y-52349D01*
X33972Y-48587D02*
X33114Y-49445D01*
X36961Y-48107D02*
X35450Y-49618D01*
X36961Y-40873D02*
X36961Y-48107D01*
X39750Y-38084D02*
X36961Y-40873D01*
X39750Y-36650D02*
X39750Y-38084D01*
X39250Y-36150D02*
X39750Y-36650D01*
X40250Y-38048D02*
X40250Y-37150D01*
X37144Y-41154D02*
X40250Y-38048D01*
X37144Y-48377D02*
X37144Y-41154D01*
X36539Y-48982D02*
X37144Y-48377D01*
X19376Y-43930D02*
X20733Y-43930D01*
X17632Y-42186D02*
X19376Y-43930D01*
X25971Y-49168D02*
X27217Y-49168D01*
X20733Y-43930D02*
X25971Y-49168D01*
X32897Y-47370D02*
X33086Y-47370D01*
X32432Y-46905D02*
X32897Y-47370D01*
X32432Y-45995D02*
X32432Y-46905D01*
X32528Y-45899D02*
X32432Y-45995D01*
X32528Y-44625D02*
X32528Y-45899D01*
X28673Y-40770D02*
X32528Y-44625D01*
X22828Y-40770D02*
X28673Y-40770D01*
X21766Y-41832D02*
X22828Y-40770D01*
X33086Y-47370D02*
X33597Y-47881D01*
X26986Y-48086D02*
X26986Y-48216D01*
X22829Y-43929D02*
X26986Y-48086D01*
X29165Y-47847D02*
X29300Y-47712D01*
X29165Y-52047D02*
X29165Y-47847D01*
X30016Y-52898D02*
X29165Y-52047D01*
X28845Y-53444D02*
X28845Y-47808D01*
X29516Y-54115D02*
X28845Y-53444D01*
X33443Y-52178D02*
X33628Y-52363D01*
X33443Y-49767D02*
X33443Y-52178D01*
X22713Y-41675D02*
X22544Y-41844D01*
X23158Y-41675D02*
X22713Y-41675D01*
X28013Y-46530D02*
X23158Y-41675D01*
X30228Y-46530D02*
X28013Y-46530D01*
X32261Y-48563D02*
X30228Y-46530D01*
X30086Y-48038D02*
X30086Y-48456D01*
X28978Y-46930D02*
X30086Y-48038D01*
X27962Y-46930D02*
X28978Y-46930D01*
X23025Y-41993D02*
X27962Y-46930D01*
X33044Y-53047D02*
X29484Y-49487D01*
X33656Y-53047D02*
X33044Y-53047D01*
X34784Y-51919D02*
X33656Y-53047D01*
X34784Y-49479D02*
X34784Y-51919D01*
X34464Y-44369D02*
X33639Y-45194D01*
X34464Y-43583D02*
X34464Y-44369D01*
X34380Y-43499D02*
X34464Y-43583D01*
X34380Y-39880D02*
X34380Y-43499D01*
X31700Y-37200D02*
X34380Y-39880D01*
X34675Y-48216D02*
X34614Y-48277D01*
X34675Y-47093D02*
X34675Y-48216D01*
X32957Y-45375D02*
X34675Y-47093D01*
X32957Y-44363D02*
X32957Y-45375D01*
X28700Y-40106D02*
X32957Y-44363D01*
X28700Y-37200D02*
X28700Y-40106D01*
X34698Y-39198D02*
X32700Y-37200D01*
X34698Y-43367D02*
X34698Y-39198D01*
X39400Y-39700D02*
X39400Y-40143D01*
X37463Y-42080D02*
X37463Y-47025D01*
X39400Y-40143D02*
X37463Y-42080D01*
X33999Y-43902D02*
X34103Y-43902D01*
X29700Y-39603D02*
X33999Y-43902D01*
X29700Y-37200D02*
X29700Y-39603D01*
X28092Y-45859D02*
X23323Y-41090D01*
X28150Y-45859D02*
X28092Y-45859D01*
X35131Y-52131D02*
X35131Y-49051D01*
X34031Y-53231D02*
X35131Y-52131D01*
X31584Y-53231D02*
X34031Y-53231D01*
X30709Y-52356D02*
X31584Y-53231D01*
X36843Y-39557D02*
X36843Y-39750D01*
X39250Y-37150D02*
X36843Y-39557D01*
X26700Y-36200D02*
X26700Y-37200D01*
X36420Y-39750D02*
X36843Y-39750D01*
X36420Y-39750D02*
X36400Y-39750D01*
X36400Y-39750D02*
X36400Y-40193D01*
X36346Y-45915D02*
X36219Y-45915D01*
X36346Y-40247D02*
X36400Y-40193D01*
X36346Y-45915D02*
X36346Y-40247D01*
X36015Y-47554D02*
X35548Y-47554D01*
X36346Y-47223D02*
X36015Y-47554D01*
X36346Y-45915D02*
X36346Y-47223D01*
X33141Y-43789D02*
X32598Y-43246D01*
X33141Y-45147D02*
X33141Y-43789D01*
X35548Y-47554D02*
X33141Y-45147D01*
X32423Y-49757D02*
X31733Y-49757D01*
X33653Y-48527D02*
X32423Y-49757D01*
X33653Y-48290D02*
X33653Y-48527D01*
X33675Y-48268D02*
X33653Y-48290D01*
X34273Y-48268D02*
X33675Y-48268D01*
X34295Y-48290D02*
X34273Y-48268D01*
X34295Y-48499D02*
X34295Y-48290D01*
X34435Y-48639D02*
X34295Y-48499D01*
X34828Y-48639D02*
X34435Y-48639D01*
X35548Y-47919D02*
X34828Y-48639D01*
X35548Y-47554D02*
X35548Y-47919D01*
X33832Y-49242D02*
X33832Y-51634D01*
X34435Y-48639D02*
X33832Y-49242D01*
X33478Y-36422D02*
X33256Y-36422D01*
X33700Y-36200D02*
X33478Y-36422D01*
X32922Y-36422D02*
X32700Y-36200D01*
X33256Y-36422D02*
X32922Y-36422D01*
X35129Y-39256D02*
X35129Y-42418D01*
X33256Y-37383D02*
X35129Y-39256D01*
X33256Y-36422D02*
X33256Y-37383D01*
X31200Y-40653D02*
X31928Y-41381D01*
X31200Y-36450D02*
X31200Y-40653D01*
X31450Y-36450D02*
X31200Y-36450D01*
X31700Y-36200D02*
X31450Y-36450D01*
X30950Y-36450D02*
X30700Y-36200D01*
X31200Y-36450D02*
X30950Y-36450D01*
X28914Y-43907D02*
X27752Y-45069D01*
X31356Y-43907D02*
X28914Y-43907D01*
X36537Y-40613D02*
X37400Y-39750D01*
X36537Y-47423D02*
X36537Y-40613D01*
X35228Y-48732D02*
X36537Y-47423D01*
X34998Y-48732D02*
X35228Y-48732D01*
X34158Y-49572D02*
X34998Y-48732D01*
X34158Y-52284D02*
X34158Y-49572D01*
X33707Y-52735D02*
X34158Y-52284D01*
X32993Y-52735D02*
X33707Y-52735D01*
X31320Y-51062D02*
X32993Y-52735D01*
X31320Y-49720D02*
X31320Y-51062D01*
X31601Y-49439D02*
X31320Y-49720D01*
X32477Y-49439D02*
X31601Y-49439D01*
X33254Y-48662D02*
X32477Y-49439D01*
X33254Y-48032D02*
X33254Y-48662D01*
X32209Y-46987D02*
X33254Y-48032D01*
X32209Y-45081D02*
X32209Y-46987D01*
G54D17*
X14690Y-35190D02*
X48010Y-35190D01*
X14690Y-35270D02*
X48010Y-35270D01*
X14690Y-35350D02*
X48010Y-35350D01*
X14690Y-35430D02*
X48010Y-35430D01*
X14690Y-35510D02*
X48010Y-35510D01*
X14690Y-35590D02*
X48010Y-35590D01*
X14690Y-35670D02*
X26546Y-35670D01*
X26855Y-35670D02*
X27562Y-35670D01*
X27816Y-35670D02*
X28562Y-35670D01*
X28816Y-35670D02*
X29562Y-35670D01*
X29816Y-35670D02*
X30562Y-35670D01*
X30816Y-35670D02*
X31562Y-35670D01*
X31816Y-35670D02*
X32562Y-35670D01*
X32816Y-35670D02*
X33562Y-35670D01*
X33816Y-35670D02*
X34562Y-35670D01*
X34816Y-35670D02*
X35562Y-35670D01*
X35816Y-35670D02*
X37976Y-35670D01*
X38525Y-35670D02*
X38976Y-35670D01*
X39525Y-35670D02*
X39976Y-35670D01*
X40525Y-35670D02*
X48010Y-35670D01*
X14690Y-35750D02*
X26374Y-35750D01*
X27026Y-35750D02*
X27413Y-35750D01*
X27988Y-35750D02*
X28413Y-35750D01*
X28988Y-35750D02*
X29413Y-35750D01*
X29988Y-35750D02*
X30413Y-35750D01*
X30988Y-35750D02*
X31413Y-35750D01*
X31988Y-35750D02*
X32413Y-35750D01*
X32988Y-35750D02*
X33413Y-35750D01*
X33988Y-35750D02*
X34413Y-35750D01*
X34988Y-35750D02*
X35413Y-35750D01*
X35988Y-35750D02*
X37874Y-35750D01*
X38626Y-35750D02*
X38874Y-35750D01*
X39626Y-35750D02*
X39874Y-35750D01*
X40626Y-35750D02*
X48010Y-35750D01*
X14690Y-35830D02*
X26294Y-35830D01*
X27106Y-35830D02*
X27400Y-35830D01*
X27999Y-35830D02*
X28400Y-35830D01*
X28999Y-35830D02*
X29400Y-35830D01*
X29999Y-35830D02*
X30400Y-35830D01*
X30999Y-35830D02*
X31400Y-35830D01*
X31999Y-35830D02*
X32400Y-35830D01*
X32999Y-35830D02*
X33400Y-35830D01*
X33999Y-35830D02*
X34400Y-35830D01*
X34999Y-35830D02*
X35400Y-35830D01*
X35999Y-35830D02*
X37794Y-35830D01*
X38706Y-35830D02*
X38794Y-35830D01*
X39706Y-35830D02*
X39794Y-35830D01*
X40706Y-35830D02*
X48010Y-35830D01*
X14690Y-35910D02*
X26227Y-35910D01*
X27174Y-35910D02*
X27260Y-35910D01*
X27340Y-35910D02*
X27480Y-35910D01*
X27919Y-35910D02*
X28061Y-35910D01*
X28141Y-35910D02*
X28260Y-35910D01*
X28340Y-35910D02*
X28480Y-35910D01*
X28919Y-35910D02*
X29061Y-35910D01*
X29141Y-35910D02*
X29260Y-35910D01*
X29340Y-35910D02*
X29480Y-35910D01*
X29919Y-35910D02*
X30061Y-35910D01*
X30141Y-35910D02*
X30260Y-35910D01*
X30340Y-35910D02*
X30480Y-35910D01*
X30919Y-35910D02*
X31061Y-35910D01*
X31141Y-35910D02*
X31260Y-35910D01*
X31340Y-35910D02*
X31480Y-35910D01*
X31919Y-35910D02*
X32061Y-35910D01*
X32141Y-35910D02*
X32260Y-35910D01*
X32340Y-35910D02*
X32480Y-35910D01*
X32919Y-35910D02*
X33061Y-35910D01*
X33141Y-35910D02*
X33260Y-35910D01*
X33340Y-35910D02*
X33480Y-35910D01*
X33919Y-35910D02*
X34061Y-35910D01*
X34141Y-35910D02*
X34260Y-35910D01*
X34340Y-35910D02*
X34480Y-35910D01*
X34919Y-35910D02*
X35061Y-35910D01*
X35141Y-35910D02*
X35260Y-35910D01*
X35340Y-35910D02*
X35480Y-35910D01*
X35919Y-35910D02*
X36061Y-35910D01*
X36141Y-35910D02*
X37756Y-35910D01*
X38745Y-35910D02*
X38756Y-35910D01*
X39745Y-35910D02*
X39756Y-35910D01*
X40745Y-35910D02*
X48010Y-35910D01*
X14690Y-35990D02*
X26193Y-35990D01*
X27420Y-35990D02*
X27560Y-35990D01*
X27839Y-35990D02*
X27981Y-35990D01*
X28202Y-35990D02*
X28203Y-35990D01*
X28420Y-35990D02*
X28560Y-35990D01*
X28839Y-35990D02*
X28981Y-35990D01*
X29202Y-35990D02*
X29203Y-35990D01*
X29420Y-35990D02*
X29560Y-35990D01*
X29839Y-35990D02*
X29981Y-35990D01*
X30202Y-35990D02*
X30203Y-35990D01*
X30420Y-35990D02*
X30560Y-35990D01*
X30839Y-35990D02*
X30981Y-35990D01*
X31202Y-35990D02*
X31203Y-35990D01*
X31420Y-35990D02*
X31560Y-35990D01*
X31839Y-35990D02*
X31981Y-35990D01*
X32202Y-35990D02*
X32203Y-35990D01*
X32420Y-35990D02*
X32560Y-35990D01*
X32839Y-35990D02*
X32981Y-35990D01*
X33202Y-35990D02*
X33203Y-35990D01*
X33420Y-35990D02*
X33560Y-35990D01*
X33839Y-35990D02*
X33981Y-35990D01*
X34202Y-35990D02*
X34203Y-35990D01*
X34420Y-35990D02*
X34560Y-35990D01*
X34839Y-35990D02*
X34981Y-35990D01*
X35202Y-35990D02*
X35203Y-35990D01*
X35420Y-35990D02*
X35560Y-35990D01*
X35839Y-35990D02*
X35981Y-35990D01*
X36201Y-35990D02*
X37723Y-35990D01*
X40778Y-35990D02*
X48010Y-35990D01*
X14690Y-36070D02*
X26160Y-36070D01*
X27500Y-36070D02*
X27640Y-36070D01*
X27759Y-36070D02*
X27901Y-36070D01*
X28500Y-36070D02*
X28640Y-36070D01*
X28759Y-36070D02*
X28901Y-36070D01*
X29500Y-36070D02*
X29640Y-36070D01*
X29759Y-36070D02*
X29901Y-36070D01*
X30500Y-36070D02*
X30640Y-36070D01*
X30759Y-36070D02*
X30901Y-36070D01*
X31500Y-36070D02*
X31640Y-36070D01*
X31759Y-36070D02*
X31901Y-36070D01*
X32500Y-36070D02*
X32640Y-36070D01*
X32759Y-36070D02*
X32901Y-36070D01*
X33500Y-36070D02*
X33640Y-36070D01*
X33759Y-36070D02*
X33901Y-36070D01*
X34500Y-36070D02*
X34640Y-36070D01*
X34759Y-36070D02*
X34901Y-36070D01*
X35500Y-36070D02*
X35640Y-36070D01*
X35759Y-36070D02*
X35901Y-36070D01*
X36233Y-36070D02*
X37701Y-36070D01*
X40799Y-36070D02*
X48010Y-36070D01*
X14690Y-36150D02*
X26151Y-36150D01*
X27580Y-36150D02*
X27821Y-36150D01*
X28580Y-36150D02*
X28821Y-36150D01*
X29580Y-36150D02*
X29821Y-36150D01*
X30580Y-36150D02*
X30821Y-36150D01*
X31580Y-36150D02*
X31821Y-36150D01*
X32580Y-36150D02*
X32821Y-36150D01*
X33580Y-36150D02*
X33821Y-36150D01*
X34580Y-36150D02*
X34821Y-36150D01*
X35580Y-36150D02*
X35821Y-36150D01*
X36237Y-36150D02*
X37701Y-36150D01*
X40799Y-36150D02*
X48010Y-36150D01*
X14690Y-36230D02*
X26151Y-36230D01*
X27599Y-36230D02*
X27800Y-36230D01*
X28599Y-36230D02*
X28800Y-36230D01*
X29599Y-36230D02*
X29800Y-36230D01*
X30599Y-36230D02*
X30800Y-36230D01*
X31599Y-36230D02*
X31800Y-36230D01*
X32599Y-36230D02*
X32800Y-36230D01*
X33599Y-36230D02*
X33800Y-36230D01*
X34599Y-36230D02*
X34800Y-36230D01*
X35599Y-36230D02*
X35800Y-36230D01*
X36241Y-36230D02*
X37701Y-36230D01*
X40799Y-36230D02*
X48010Y-36230D01*
X14690Y-36310D02*
X26151Y-36310D01*
X27519Y-36310D02*
X27661Y-36310D01*
X27740Y-36310D02*
X27880Y-36310D01*
X28519Y-36310D02*
X28661Y-36310D01*
X28740Y-36310D02*
X28880Y-36310D01*
X29519Y-36310D02*
X29661Y-36310D01*
X29740Y-36310D02*
X29880Y-36310D01*
X30519Y-36310D02*
X30661Y-36310D01*
X30740Y-36310D02*
X30880Y-36310D01*
X31519Y-36310D02*
X31661Y-36310D01*
X31740Y-36310D02*
X31880Y-36310D01*
X32519Y-36310D02*
X32661Y-36310D01*
X32740Y-36310D02*
X32880Y-36310D01*
X33519Y-36310D02*
X33661Y-36310D01*
X33740Y-36310D02*
X33880Y-36310D01*
X34519Y-36310D02*
X34661Y-36310D01*
X34740Y-36310D02*
X34880Y-36310D01*
X35519Y-36310D02*
X35661Y-36310D01*
X35740Y-36310D02*
X35880Y-36310D01*
X36232Y-36310D02*
X37722Y-36310D01*
X40777Y-36310D02*
X48010Y-36310D01*
X14690Y-36390D02*
X26184Y-36390D01*
X27439Y-36390D02*
X27581Y-36390D01*
X27820Y-36390D02*
X27960Y-36390D01*
X28439Y-36390D02*
X28581Y-36390D01*
X28820Y-36390D02*
X28960Y-36390D01*
X29439Y-36390D02*
X29581Y-36390D01*
X29820Y-36390D02*
X29960Y-36390D01*
X30439Y-36390D02*
X30581Y-36390D01*
X30820Y-36390D02*
X30960Y-36390D01*
X31439Y-36390D02*
X31581Y-36390D01*
X31820Y-36390D02*
X31960Y-36390D01*
X32439Y-36390D02*
X32581Y-36390D01*
X32820Y-36390D02*
X32960Y-36390D01*
X33439Y-36390D02*
X33581Y-36390D01*
X33820Y-36390D02*
X33960Y-36390D01*
X34439Y-36390D02*
X34581Y-36390D01*
X34820Y-36390D02*
X34960Y-36390D01*
X35439Y-36390D02*
X35581Y-36390D01*
X35820Y-36390D02*
X35960Y-36390D01*
X36203Y-36390D02*
X37755Y-36390D01*
X40744Y-36390D02*
X48010Y-36390D01*
X14690Y-36470D02*
X26217Y-36470D01*
X27181Y-36470D02*
X27223Y-36470D01*
X27359Y-36470D02*
X27501Y-36470D01*
X27900Y-36470D02*
X28040Y-36470D01*
X28175Y-36470D02*
X28223Y-36470D01*
X28359Y-36470D02*
X28501Y-36470D01*
X28900Y-36470D02*
X29040Y-36470D01*
X29175Y-36470D02*
X29223Y-36470D01*
X29359Y-36470D02*
X29501Y-36470D01*
X29900Y-36470D02*
X30040Y-36470D01*
X30175Y-36470D02*
X30223Y-36470D01*
X30359Y-36470D02*
X30501Y-36470D01*
X30900Y-36470D02*
X31040Y-36470D01*
X31175Y-36470D02*
X31223Y-36470D01*
X31359Y-36470D02*
X31501Y-36470D01*
X31900Y-36470D02*
X32040Y-36470D01*
X32175Y-36470D02*
X32223Y-36470D01*
X32359Y-36470D02*
X32501Y-36470D01*
X32900Y-36470D02*
X33040Y-36470D01*
X33175Y-36470D02*
X33223Y-36470D01*
X33359Y-36470D02*
X33501Y-36470D01*
X33900Y-36470D02*
X34040Y-36470D01*
X34175Y-36470D02*
X34223Y-36470D01*
X34359Y-36470D02*
X34501Y-36470D01*
X34900Y-36470D02*
X35040Y-36470D01*
X35175Y-36470D02*
X35223Y-36470D01*
X35359Y-36470D02*
X35501Y-36470D01*
X35900Y-36470D02*
X36040Y-36470D01*
X36175Y-36470D02*
X37794Y-36470D01*
X40706Y-36470D02*
X48010Y-36470D01*
X14690Y-36550D02*
X26274Y-36550D01*
X27126Y-36550D02*
X27421Y-36550D01*
X27980Y-36550D02*
X28421Y-36550D01*
X28980Y-36550D02*
X29421Y-36550D01*
X29980Y-36550D02*
X30421Y-36550D01*
X30980Y-36550D02*
X31421Y-36550D01*
X31980Y-36550D02*
X32421Y-36550D01*
X32980Y-36550D02*
X33421Y-36550D01*
X33980Y-36550D02*
X34421Y-36550D01*
X34980Y-36550D02*
X35421Y-36550D01*
X35980Y-36550D02*
X37874Y-36550D01*
X40626Y-36550D02*
X48010Y-36550D01*
X14690Y-36630D02*
X26354Y-36630D01*
X27046Y-36630D02*
X27406Y-36630D01*
X27993Y-36630D02*
X28406Y-36630D01*
X28993Y-36630D02*
X29406Y-36630D01*
X29993Y-36630D02*
X30406Y-36630D01*
X30993Y-36630D02*
X31406Y-36630D01*
X31993Y-36630D02*
X32406Y-36630D01*
X32993Y-36630D02*
X33406Y-36630D01*
X33993Y-36630D02*
X34406Y-36630D01*
X34993Y-36630D02*
X35406Y-36630D01*
X35993Y-36630D02*
X37831Y-36630D01*
X40524Y-36630D02*
X48010Y-36630D01*
X14690Y-36710D02*
X26238Y-36710D01*
X27162Y-36710D02*
X27449Y-36710D01*
X27951Y-36710D02*
X28449Y-36710D01*
X28951Y-36710D02*
X29449Y-36710D01*
X29951Y-36710D02*
X30449Y-36710D01*
X30951Y-36710D02*
X31449Y-36710D01*
X31951Y-36710D02*
X32449Y-36710D01*
X32951Y-36710D02*
X33449Y-36710D01*
X33951Y-36710D02*
X34449Y-36710D01*
X34951Y-36710D02*
X35449Y-36710D01*
X35951Y-36710D02*
X37739Y-36710D01*
X40586Y-36710D02*
X48010Y-36710D01*
X14690Y-36790D02*
X26177Y-36790D01*
X27224Y-36790D02*
X27334Y-36790D01*
X28066Y-36790D02*
X28334Y-36790D01*
X29066Y-36790D02*
X29334Y-36790D01*
X30066Y-36790D02*
X30334Y-36790D01*
X31066Y-36790D02*
X31334Y-36790D01*
X32066Y-36790D02*
X32334Y-36790D01*
X33066Y-36790D02*
X33334Y-36790D01*
X34066Y-36790D02*
X34334Y-36790D01*
X35066Y-36790D02*
X35334Y-36790D01*
X36066Y-36790D02*
X37706Y-36790D01*
X40666Y-36790D02*
X48010Y-36790D01*
X14690Y-36870D02*
X26151Y-36870D01*
X27249Y-36870D02*
X27254Y-36870D01*
X28146Y-36870D02*
X28254Y-36870D01*
X29146Y-36870D02*
X29254Y-36870D01*
X30146Y-36870D02*
X30254Y-36870D01*
X31146Y-36870D02*
X31254Y-36870D01*
X32146Y-36870D02*
X32254Y-36870D01*
X33146Y-36870D02*
X33254Y-36870D01*
X34146Y-36870D02*
X34254Y-36870D01*
X35146Y-36870D02*
X35254Y-36870D01*
X36146Y-36870D02*
X37701Y-36870D01*
X40728Y-36870D02*
X48010Y-36870D01*
X14690Y-36950D02*
X26151Y-36950D01*
X28191Y-36950D02*
X28210Y-36950D01*
X29191Y-36950D02*
X29210Y-36950D01*
X30191Y-36950D02*
X30210Y-36950D01*
X31191Y-36950D02*
X31210Y-36950D01*
X32191Y-36950D02*
X32210Y-36950D01*
X33191Y-36950D02*
X33210Y-36950D01*
X34191Y-36950D02*
X34210Y-36950D01*
X35191Y-36950D02*
X35210Y-36950D01*
X36191Y-36950D02*
X37701Y-36950D01*
X40762Y-36950D02*
X48010Y-36950D01*
X14690Y-37030D02*
X26151Y-37030D01*
X36224Y-37030D02*
X37701Y-37030D01*
X40795Y-37030D02*
X48010Y-37030D01*
X14690Y-37110D02*
X26151Y-37110D01*
X36249Y-37110D02*
X38300Y-37110D01*
X40799Y-37110D02*
X48010Y-37110D01*
X14690Y-37190D02*
X26151Y-37190D01*
X36249Y-37190D02*
X38300Y-37190D01*
X40799Y-37190D02*
X48010Y-37190D01*
X14690Y-37270D02*
X26151Y-37270D01*
X36249Y-37270D02*
X37700Y-37270D01*
X38200Y-37270D02*
X38300Y-37270D01*
X40794Y-37270D02*
X48010Y-37270D01*
X14690Y-37350D02*
X26151Y-37350D01*
X36231Y-37350D02*
X37700Y-37350D01*
X38200Y-37350D02*
X38300Y-37350D01*
X40761Y-37350D02*
X48010Y-37350D01*
X14690Y-37430D02*
X26151Y-37430D01*
X28198Y-37430D02*
X28201Y-37430D01*
X35198Y-37430D02*
X35201Y-37430D01*
X36198Y-37430D02*
X37701Y-37430D01*
X38200Y-37430D02*
X38300Y-37430D01*
X40727Y-37430D02*
X48010Y-37430D01*
X14690Y-37510D02*
X26151Y-37510D01*
X28165Y-37510D02*
X28234Y-37510D01*
X35165Y-37510D02*
X35234Y-37510D01*
X36165Y-37510D02*
X37705Y-37510D01*
X38200Y-37510D02*
X38300Y-37510D01*
X40666Y-37510D02*
X48010Y-37510D01*
X14690Y-37590D02*
X26167Y-37590D01*
X27232Y-37590D02*
X27314Y-37590D01*
X28086Y-37590D02*
X28314Y-37590D01*
X35086Y-37590D02*
X35314Y-37590D01*
X36086Y-37590D02*
X37738Y-37590D01*
X38200Y-37590D02*
X38300Y-37590D01*
X40586Y-37590D02*
X48010Y-37590D01*
X14690Y-37670D02*
X26218Y-37670D01*
X27182Y-37670D02*
X27401Y-37670D01*
X27998Y-37670D02*
X28402Y-37670D01*
X34998Y-37670D02*
X35401Y-37670D01*
X35998Y-37670D02*
X37830Y-37670D01*
X38168Y-37670D02*
X38318Y-37670D01*
X40540Y-37670D02*
X48010Y-37670D01*
X14690Y-37750D02*
X28410Y-37750D01*
X34661Y-37750D02*
X38238Y-37750D01*
X40540Y-37750D02*
X48010Y-37750D01*
X14690Y-37830D02*
X28410Y-37830D01*
X34741Y-37830D02*
X38158Y-37830D01*
X40540Y-37830D02*
X48010Y-37830D01*
X14690Y-37910D02*
X28410Y-37910D01*
X34821Y-37910D02*
X38079Y-37910D01*
X40540Y-37910D02*
X48010Y-37910D01*
X14690Y-37990D02*
X28410Y-37990D01*
X34901Y-37990D02*
X37999Y-37990D01*
X40540Y-37990D02*
X48010Y-37990D01*
X14690Y-38070D02*
X28410Y-38070D01*
X34981Y-38070D02*
X37919Y-38070D01*
X40535Y-38070D02*
X48010Y-38070D01*
X14690Y-38150D02*
X28410Y-38150D01*
X35061Y-38150D02*
X37839Y-38150D01*
X40519Y-38150D02*
X48010Y-38150D01*
X14690Y-38230D02*
X28410Y-38230D01*
X35141Y-38230D02*
X37759Y-38230D01*
X40470Y-38230D02*
X43869Y-38230D01*
X44171Y-38230D02*
X46231Y-38230D01*
X46533Y-38230D02*
X48010Y-38230D01*
X14690Y-38310D02*
X28410Y-38310D01*
X35221Y-38310D02*
X37679Y-38310D01*
X40398Y-38310D02*
X43729Y-38310D01*
X44310Y-38310D02*
X46091Y-38310D01*
X46672Y-38310D02*
X48010Y-38310D01*
X14690Y-38390D02*
X28410Y-38390D01*
X35301Y-38390D02*
X37599Y-38390D01*
X40318Y-38390D02*
X43649Y-38390D01*
X44390Y-38390D02*
X46011Y-38390D01*
X46752Y-38390D02*
X48010Y-38390D01*
X14690Y-38470D02*
X28410Y-38470D01*
X35381Y-38470D02*
X37519Y-38470D01*
X40238Y-38470D02*
X43611Y-38470D01*
X44427Y-38470D02*
X45973Y-38470D01*
X46789Y-38470D02*
X48010Y-38470D01*
X14690Y-38550D02*
X28410Y-38550D01*
X35461Y-38550D02*
X37439Y-38550D01*
X40158Y-38550D02*
X43578Y-38550D01*
X44461Y-38550D02*
X45940Y-38550D01*
X46823Y-38550D02*
X48010Y-38550D01*
X14690Y-38630D02*
X28410Y-38630D01*
X35541Y-38630D02*
X37359Y-38630D01*
X40078Y-38630D02*
X43573Y-38630D01*
X44465Y-38630D02*
X45935Y-38630D01*
X46827Y-38630D02*
X48010Y-38630D01*
X14690Y-38710D02*
X28410Y-38710D01*
X35621Y-38710D02*
X37279Y-38710D01*
X39998Y-38710D02*
X43573Y-38710D01*
X44465Y-38710D02*
X45935Y-38710D01*
X46827Y-38710D02*
X48010Y-38710D01*
X14690Y-38790D02*
X28410Y-38790D01*
X35701Y-38790D02*
X37199Y-38790D01*
X39918Y-38790D02*
X43594Y-38790D01*
X44443Y-38790D02*
X45956Y-38790D01*
X46805Y-38790D02*
X48010Y-38790D01*
X14690Y-38870D02*
X28410Y-38870D01*
X35781Y-38870D02*
X37119Y-38870D01*
X39838Y-38870D02*
X43627Y-38870D01*
X44410Y-38870D02*
X45989Y-38870D01*
X46772Y-38870D02*
X48010Y-38870D01*
X14690Y-38950D02*
X28410Y-38950D01*
X35861Y-38950D02*
X37039Y-38950D01*
X39758Y-38950D02*
X43688Y-38950D01*
X44349Y-38950D02*
X46050Y-38950D01*
X46711Y-38950D02*
X48010Y-38950D01*
X14690Y-39030D02*
X28410Y-39030D01*
X35941Y-39030D02*
X36959Y-39030D01*
X39678Y-39030D02*
X43770Y-39030D01*
X44266Y-39030D02*
X46132Y-39030D01*
X46628Y-39030D02*
X48010Y-39030D01*
X14690Y-39110D02*
X28410Y-39110D01*
X36021Y-39110D02*
X36879Y-39110D01*
X39598Y-39110D02*
X48010Y-39110D01*
X14690Y-39190D02*
X28410Y-39190D01*
X36101Y-39190D02*
X36799Y-39190D01*
X39842Y-39190D02*
X40198Y-39190D01*
X40603Y-39190D02*
X48010Y-39190D01*
X14690Y-39270D02*
X28410Y-39270D01*
X39916Y-39270D02*
X40054Y-39270D01*
X40746Y-39270D02*
X48010Y-39270D01*
X14690Y-39350D02*
X28410Y-39350D01*
X39949Y-39350D02*
X39974Y-39350D01*
X40826Y-39350D02*
X48010Y-39350D01*
X14690Y-39430D02*
X28410Y-39430D01*
X40883Y-39430D02*
X48010Y-39430D01*
X14690Y-39510D02*
X28410Y-39510D01*
X40916Y-39510D02*
X48010Y-39510D01*
X14690Y-39590D02*
X28410Y-39590D01*
X40949Y-39590D02*
X48010Y-39590D01*
X14690Y-39670D02*
X28410Y-39670D01*
X40949Y-39670D02*
X48010Y-39670D01*
X14690Y-39750D02*
X28410Y-39750D01*
X40949Y-39750D02*
X48010Y-39750D01*
X14690Y-39830D02*
X28410Y-39830D01*
X40940Y-39830D02*
X48010Y-39830D01*
X14690Y-39910D02*
X28410Y-39910D01*
X40907Y-39910D02*
X48010Y-39910D01*
X14690Y-39990D02*
X28410Y-39990D01*
X40873Y-39990D02*
X48010Y-39990D01*
X14690Y-40070D02*
X28410Y-40070D01*
X39940Y-40070D02*
X39994Y-40070D01*
X40806Y-40070D02*
X48010Y-40070D01*
X14690Y-40150D02*
X28418Y-40150D01*
X39902Y-40150D02*
X40074Y-40150D01*
X40726Y-40150D02*
X48010Y-40150D01*
X14690Y-40230D02*
X28440Y-40230D01*
X39795Y-40230D02*
X40245Y-40230D01*
X40554Y-40230D02*
X48010Y-40230D01*
X14690Y-40310D02*
X21903Y-40310D01*
X39630Y-40310D02*
X48010Y-40310D01*
X14690Y-40390D02*
X21592Y-40390D01*
X39563Y-40390D02*
X48010Y-40390D01*
X14690Y-40470D02*
X21484Y-40470D01*
X39483Y-40470D02*
X48010Y-40470D01*
X14690Y-40550D02*
X21417Y-40550D01*
X39403Y-40550D02*
X48010Y-40550D01*
X14690Y-40630D02*
X21383Y-40630D01*
X39323Y-40630D02*
X48010Y-40630D01*
X14690Y-40710D02*
X21360Y-40710D01*
X39243Y-40710D02*
X48010Y-40710D01*
X14690Y-40790D02*
X21360Y-40790D01*
X39163Y-40790D02*
X48010Y-40790D01*
X14690Y-40870D02*
X21366Y-40870D01*
X39083Y-40870D02*
X48010Y-40870D01*
X14690Y-40950D02*
X21399Y-40950D01*
X22170Y-40950D02*
X22237Y-40950D01*
X39003Y-40950D02*
X48010Y-40950D01*
X14690Y-41030D02*
X21444Y-41030D01*
X22126Y-41030D02*
X22157Y-41030D01*
X38923Y-41030D02*
X48010Y-41030D01*
X14690Y-41110D02*
X21524Y-41110D01*
X22046Y-41110D02*
X22077Y-41110D01*
X38843Y-41110D02*
X48010Y-41110D01*
X14690Y-41190D02*
X21688Y-41190D01*
X21881Y-41190D02*
X21997Y-41190D01*
X38763Y-41190D02*
X48010Y-41190D01*
X14690Y-41270D02*
X21917Y-41270D01*
X38683Y-41270D02*
X48010Y-41270D01*
X14690Y-41350D02*
X21837Y-41350D01*
X38603Y-41350D02*
X48010Y-41350D01*
X14690Y-41430D02*
X21626Y-41430D01*
X38523Y-41430D02*
X48010Y-41430D01*
X14690Y-41510D02*
X21487Y-41510D01*
X38443Y-41510D02*
X48010Y-41510D01*
X14690Y-41590D02*
X21407Y-41590D01*
X38363Y-41590D02*
X48010Y-41590D01*
X14690Y-41670D02*
X21374Y-41670D01*
X38283Y-41670D02*
X48010Y-41670D01*
X14690Y-41750D02*
X21341Y-41750D01*
X38203Y-41750D02*
X48010Y-41750D01*
X14690Y-41830D02*
X17387Y-41830D01*
X17877Y-41830D02*
X21341Y-41830D01*
X38123Y-41830D02*
X48010Y-41830D01*
X14690Y-41910D02*
X17307Y-41910D01*
X17957Y-41910D02*
X21341Y-41910D01*
X38043Y-41910D02*
X48010Y-41910D01*
X14690Y-41990D02*
X17254Y-41990D01*
X18012Y-41990D02*
X21371Y-41990D01*
X37963Y-41990D02*
X48010Y-41990D01*
X14690Y-42070D02*
X17220Y-42070D01*
X18044Y-42070D02*
X21404Y-42070D01*
X22127Y-42070D02*
X22177Y-42070D01*
X37883Y-42070D02*
X48010Y-42070D01*
X14690Y-42150D02*
X17207Y-42150D01*
X18057Y-42150D02*
X21483Y-42150D01*
X22049Y-42150D02*
X22249Y-42150D01*
X37803Y-42150D02*
X48010Y-42150D01*
X14690Y-42230D02*
X17207Y-42230D01*
X18086Y-42230D02*
X21616Y-42230D01*
X21915Y-42230D02*
X22365Y-42230D01*
X37753Y-42230D02*
X48010Y-42230D01*
X14690Y-42310D02*
X17223Y-42310D01*
X18166Y-42310D02*
X22741Y-42310D01*
X37753Y-42310D02*
X48010Y-42310D01*
X14690Y-42390D02*
X17256Y-42390D01*
X18246Y-42390D02*
X22872Y-42390D01*
X37753Y-42390D02*
X48010Y-42390D01*
X14690Y-42470D02*
X17315Y-42470D01*
X18326Y-42470D02*
X23092Y-42470D01*
X37753Y-42470D02*
X48010Y-42470D01*
X14690Y-42550D02*
X17400Y-42550D01*
X18406Y-42550D02*
X23172Y-42550D01*
X37753Y-42550D02*
X48010Y-42550D01*
X14690Y-42630D02*
X17665Y-42630D01*
X18486Y-42630D02*
X23252Y-42630D01*
X37753Y-42630D02*
X48010Y-42630D01*
X14690Y-42710D02*
X17745Y-42710D01*
X18566Y-42710D02*
X23332Y-42710D01*
X37753Y-42710D02*
X48010Y-42710D01*
X14690Y-42790D02*
X17825Y-42790D01*
X18646Y-42790D02*
X23412Y-42790D01*
X37753Y-42790D02*
X48010Y-42790D01*
X14690Y-42870D02*
X17905Y-42870D01*
X18726Y-42870D02*
X23492Y-42870D01*
X37753Y-42870D02*
X48010Y-42870D01*
X14690Y-42950D02*
X17985Y-42950D01*
X18806Y-42950D02*
X23572Y-42950D01*
X37753Y-42950D02*
X48010Y-42950D01*
X14690Y-43030D02*
X18065Y-43030D01*
X18886Y-43030D02*
X23652Y-43030D01*
X37753Y-43030D02*
X48010Y-43030D01*
X14690Y-43110D02*
X18145Y-43110D01*
X18966Y-43110D02*
X23732Y-43110D01*
X37753Y-43110D02*
X48010Y-43110D01*
X14690Y-43190D02*
X18225Y-43190D01*
X19046Y-43190D02*
X23812Y-43190D01*
X37753Y-43190D02*
X48010Y-43190D01*
X14690Y-43270D02*
X18305Y-43270D01*
X19126Y-43270D02*
X23892Y-43270D01*
X37753Y-43270D02*
X48010Y-43270D01*
X14690Y-43350D02*
X18385Y-43350D01*
X19206Y-43350D02*
X23972Y-43350D01*
X37753Y-43350D02*
X48010Y-43350D01*
X14690Y-43430D02*
X18465Y-43430D01*
X19286Y-43430D02*
X24052Y-43430D01*
X37753Y-43430D02*
X48010Y-43430D01*
X14690Y-43510D02*
X18545Y-43510D01*
X19366Y-43510D02*
X20637Y-43510D01*
X20830Y-43510D02*
X22731Y-43510D01*
X22929Y-43510D02*
X24132Y-43510D01*
X37753Y-43510D02*
X48010Y-43510D01*
X14690Y-43590D02*
X18625Y-43590D01*
X19446Y-43590D02*
X20472Y-43590D01*
X20994Y-43590D02*
X22567Y-43590D01*
X23091Y-43590D02*
X24212Y-43590D01*
X37753Y-43590D02*
X48010Y-43590D01*
X14690Y-43670D02*
X18705Y-43670D01*
X21074Y-43670D02*
X22487Y-43670D01*
X23171Y-43670D02*
X24292Y-43670D01*
X37753Y-43670D02*
X48010Y-43670D01*
X14690Y-43750D02*
X18785Y-43750D01*
X21119Y-43750D02*
X22444Y-43750D01*
X23216Y-43750D02*
X24372Y-43750D01*
X37753Y-43750D02*
X48010Y-43750D01*
X14690Y-43830D02*
X18865Y-43830D01*
X21152Y-43830D02*
X22410Y-43830D01*
X23248Y-43830D02*
X24452Y-43830D01*
X37753Y-43830D02*
X48010Y-43830D01*
X14690Y-43910D02*
X18945Y-43910D01*
X21158Y-43910D02*
X22404Y-43910D01*
X23254Y-43910D02*
X24532Y-43910D01*
X37753Y-43910D02*
X48010Y-43910D01*
X14690Y-43990D02*
X19025Y-43990D01*
X21204Y-43990D02*
X22404Y-43990D01*
X23300Y-43990D02*
X24612Y-43990D01*
X37753Y-43990D02*
X48010Y-43990D01*
X14690Y-44070D02*
X19105Y-44070D01*
X21284Y-44070D02*
X22427Y-44070D01*
X23380Y-44070D02*
X24692Y-44070D01*
X37753Y-44070D02*
X48010Y-44070D01*
X14690Y-44150D02*
X19192Y-44150D01*
X21364Y-44150D02*
X22460Y-44150D01*
X23460Y-44150D02*
X24772Y-44150D01*
X37753Y-44150D02*
X48010Y-44150D01*
X14690Y-44230D02*
X20432Y-44230D01*
X21444Y-44230D02*
X22529Y-44230D01*
X23540Y-44230D02*
X24852Y-44230D01*
X37753Y-44230D02*
X48010Y-44230D01*
X14690Y-44310D02*
X20540Y-44310D01*
X21524Y-44310D02*
X22638Y-44310D01*
X23620Y-44310D02*
X24932Y-44310D01*
X37753Y-44310D02*
X48010Y-44310D01*
X14690Y-44390D02*
X20782Y-44390D01*
X21604Y-44390D02*
X22879Y-44390D01*
X23700Y-44390D02*
X25012Y-44390D01*
X37753Y-44390D02*
X48010Y-44390D01*
X14690Y-44470D02*
X20862Y-44470D01*
X21684Y-44470D02*
X22959Y-44470D01*
X23780Y-44470D02*
X25092Y-44470D01*
X37753Y-44470D02*
X48010Y-44470D01*
X14690Y-44550D02*
X20942Y-44550D01*
X21764Y-44550D02*
X23039Y-44550D01*
X23860Y-44550D02*
X25172Y-44550D01*
X37753Y-44550D02*
X48010Y-44550D01*
X14690Y-44630D02*
X21022Y-44630D01*
X21844Y-44630D02*
X23119Y-44630D01*
X23940Y-44630D02*
X25252Y-44630D01*
X37753Y-44630D02*
X48010Y-44630D01*
X14690Y-44710D02*
X21102Y-44710D01*
X21924Y-44710D02*
X23199Y-44710D01*
X24020Y-44710D02*
X25332Y-44710D01*
X37753Y-44710D02*
X48010Y-44710D01*
X14690Y-44790D02*
X21182Y-44790D01*
X22004Y-44790D02*
X23279Y-44790D01*
X24100Y-44790D02*
X25412Y-44790D01*
X37753Y-44790D02*
X48010Y-44790D01*
X14690Y-44870D02*
X21262Y-44870D01*
X22084Y-44870D02*
X23359Y-44870D01*
X24180Y-44870D02*
X25492Y-44870D01*
X37753Y-44870D02*
X48010Y-44870D01*
X14690Y-44950D02*
X21342Y-44950D01*
X22164Y-44950D02*
X23439Y-44950D01*
X24260Y-44950D02*
X25572Y-44950D01*
X37753Y-44950D02*
X48010Y-44950D01*
X14690Y-45030D02*
X21422Y-45030D01*
X22244Y-45030D02*
X23519Y-45030D01*
X24340Y-45030D02*
X25652Y-45030D01*
X37753Y-45030D02*
X48010Y-45030D01*
X14690Y-45110D02*
X21502Y-45110D01*
X22324Y-45110D02*
X23599Y-45110D01*
X24420Y-45110D02*
X25732Y-45110D01*
X37753Y-45110D02*
X48010Y-45110D01*
X14690Y-45190D02*
X21582Y-45190D01*
X22404Y-45190D02*
X23679Y-45190D01*
X24500Y-45190D02*
X25812Y-45190D01*
X37753Y-45190D02*
X48010Y-45190D01*
X14690Y-45270D02*
X21662Y-45270D01*
X22484Y-45270D02*
X23759Y-45270D01*
X24580Y-45270D02*
X25892Y-45270D01*
X37753Y-45270D02*
X48010Y-45270D01*
X14690Y-45350D02*
X21742Y-45350D01*
X22564Y-45350D02*
X23839Y-45350D01*
X24660Y-45350D02*
X25972Y-45350D01*
X37753Y-45350D02*
X48010Y-45350D01*
X14690Y-45430D02*
X21822Y-45430D01*
X22644Y-45430D02*
X23919Y-45430D01*
X24740Y-45430D02*
X26052Y-45430D01*
X37753Y-45430D02*
X48010Y-45430D01*
X14690Y-45510D02*
X21902Y-45510D01*
X22724Y-45510D02*
X23999Y-45510D01*
X24820Y-45510D02*
X26132Y-45510D01*
X37753Y-45510D02*
X48010Y-45510D01*
X14690Y-45590D02*
X21982Y-45590D01*
X22804Y-45590D02*
X24079Y-45590D01*
X24900Y-45590D02*
X26212Y-45590D01*
X37753Y-45590D02*
X48010Y-45590D01*
X14690Y-45670D02*
X22062Y-45670D01*
X22884Y-45670D02*
X24159Y-45670D01*
X24980Y-45670D02*
X26292Y-45670D01*
X37753Y-45670D02*
X48010Y-45670D01*
X14690Y-45750D02*
X22142Y-45750D01*
X22964Y-45750D02*
X24239Y-45750D01*
X25060Y-45750D02*
X26372Y-45750D01*
X37753Y-45750D02*
X48010Y-45750D01*
X14690Y-45830D02*
X22222Y-45830D01*
X23044Y-45830D02*
X24319Y-45830D01*
X25140Y-45830D02*
X26452Y-45830D01*
X37753Y-45830D02*
X48010Y-45830D01*
X14690Y-45910D02*
X22302Y-45910D01*
X23124Y-45910D02*
X24399Y-45910D01*
X25220Y-45910D02*
X26532Y-45910D01*
X37753Y-45910D02*
X48010Y-45910D01*
X14690Y-45990D02*
X22382Y-45990D01*
X23204Y-45990D02*
X24479Y-45990D01*
X25300Y-45990D02*
X26612Y-45990D01*
X37753Y-45990D02*
X48010Y-45990D01*
X14690Y-46070D02*
X22462Y-46070D01*
X23284Y-46070D02*
X24559Y-46070D01*
X25380Y-46070D02*
X26692Y-46070D01*
X37753Y-46070D02*
X48010Y-46070D01*
X14690Y-46150D02*
X22542Y-46150D01*
X23364Y-46150D02*
X24639Y-46150D01*
X25460Y-46150D02*
X26772Y-46150D01*
X37753Y-46150D02*
X48010Y-46150D01*
X14690Y-46230D02*
X22622Y-46230D01*
X23444Y-46230D02*
X24719Y-46230D01*
X25540Y-46230D02*
X26852Y-46230D01*
X37753Y-46230D02*
X48010Y-46230D01*
X14690Y-46310D02*
X22702Y-46310D01*
X23524Y-46310D02*
X24799Y-46310D01*
X25620Y-46310D02*
X26932Y-46310D01*
X37753Y-46310D02*
X48010Y-46310D01*
X14690Y-46390D02*
X22782Y-46390D01*
X23604Y-46390D02*
X24879Y-46390D01*
X25700Y-46390D02*
X27012Y-46390D01*
X37753Y-46390D02*
X48010Y-46390D01*
X14690Y-46470D02*
X22862Y-46470D01*
X23684Y-46470D02*
X24959Y-46470D01*
X25780Y-46470D02*
X27092Y-46470D01*
X37753Y-46470D02*
X48010Y-46470D01*
X14690Y-46550D02*
X22942Y-46550D01*
X23764Y-46550D02*
X25039Y-46550D01*
X25860Y-46550D02*
X27172Y-46550D01*
X37753Y-46550D02*
X48010Y-46550D01*
X14690Y-46630D02*
X23022Y-46630D01*
X23844Y-46630D02*
X25119Y-46630D01*
X25940Y-46630D02*
X27252Y-46630D01*
X37753Y-46630D02*
X48010Y-46630D01*
X14690Y-46710D02*
X23102Y-46710D01*
X23924Y-46710D02*
X25199Y-46710D01*
X26020Y-46710D02*
X27332Y-46710D01*
X37753Y-46710D02*
X48010Y-46710D01*
X14690Y-46790D02*
X23182Y-46790D01*
X24004Y-46790D02*
X25279Y-46790D01*
X26100Y-46790D02*
X27412Y-46790D01*
X37827Y-46790D02*
X48010Y-46790D01*
X14690Y-46870D02*
X23262Y-46870D01*
X24084Y-46870D02*
X25359Y-46870D01*
X26180Y-46870D02*
X27492Y-46870D01*
X37859Y-46870D02*
X48010Y-46870D01*
X14690Y-46950D02*
X23342Y-46950D01*
X24164Y-46950D02*
X25439Y-46950D01*
X26260Y-46950D02*
X27572Y-46950D01*
X37888Y-46950D02*
X48010Y-46950D01*
X14690Y-47030D02*
X23422Y-47030D01*
X24244Y-47030D02*
X25519Y-47030D01*
X26340Y-47030D02*
X27652Y-47030D01*
X37888Y-47030D02*
X48010Y-47030D01*
X14690Y-47110D02*
X23502Y-47110D01*
X24324Y-47110D02*
X25599Y-47110D01*
X26420Y-47110D02*
X27732Y-47110D01*
X37888Y-47110D02*
X48010Y-47110D01*
X14690Y-47190D02*
X23582Y-47190D01*
X24404Y-47190D02*
X25679Y-47190D01*
X26500Y-47190D02*
X27839Y-47190D01*
X37854Y-47190D02*
X48010Y-47190D01*
X14690Y-47270D02*
X23662Y-47270D01*
X24484Y-47270D02*
X25759Y-47270D01*
X26580Y-47270D02*
X28908Y-47270D01*
X37819Y-47270D02*
X48010Y-47270D01*
X14690Y-47350D02*
X23742Y-47350D01*
X24564Y-47350D02*
X25839Y-47350D01*
X26660Y-47350D02*
X28988Y-47350D01*
X37739Y-47350D02*
X48010Y-47350D01*
X14690Y-47430D02*
X23822Y-47430D01*
X24644Y-47430D02*
X25919Y-47430D01*
X26740Y-47430D02*
X28647Y-47430D01*
X37595Y-47430D02*
X48010Y-47430D01*
X14690Y-47510D02*
X23902Y-47510D01*
X24724Y-47510D02*
X25999Y-47510D01*
X26820Y-47510D02*
X28542Y-47510D01*
X37434Y-47510D02*
X48010Y-47510D01*
X14690Y-47590D02*
X23982Y-47590D01*
X24804Y-47590D02*
X26079Y-47590D01*
X26900Y-47590D02*
X28476Y-47590D01*
X37434Y-47590D02*
X48010Y-47590D01*
X14690Y-47670D02*
X24062Y-47670D01*
X24884Y-47670D02*
X26159Y-47670D01*
X26980Y-47670D02*
X28443Y-47670D01*
X37434Y-47670D02*
X48010Y-47670D01*
X14690Y-47750D02*
X24142Y-47750D01*
X24964Y-47750D02*
X26239Y-47750D01*
X27060Y-47750D02*
X28420Y-47750D01*
X37434Y-47750D02*
X48010Y-47750D01*
X14690Y-47830D02*
X24222Y-47830D01*
X25044Y-47830D02*
X26319Y-47830D01*
X27165Y-47830D02*
X28420Y-47830D01*
X37434Y-47830D02*
X48010Y-47830D01*
X14690Y-47910D02*
X24302Y-47910D01*
X25124Y-47910D02*
X26399Y-47910D01*
X27281Y-47910D02*
X28427Y-47910D01*
X37434Y-47910D02*
X48010Y-47910D01*
X14690Y-47990D02*
X24382Y-47990D01*
X25204Y-47990D02*
X26479Y-47990D01*
X27353Y-47990D02*
X28460Y-47990D01*
X37434Y-47990D02*
X48010Y-47990D01*
X14690Y-48070D02*
X24462Y-48070D01*
X25284Y-48070D02*
X26559Y-48070D01*
X27386Y-48070D02*
X28506Y-48070D01*
X37434Y-48070D02*
X48010Y-48070D01*
X14690Y-48150D02*
X24542Y-48150D01*
X25364Y-48150D02*
X26561Y-48150D01*
X27411Y-48150D02*
X28555Y-48150D01*
X37434Y-48150D02*
X48010Y-48150D01*
X14690Y-48230D02*
X24622Y-48230D01*
X25444Y-48230D02*
X26561Y-48230D01*
X27411Y-48230D02*
X28555Y-48230D01*
X37434Y-48230D02*
X48010Y-48230D01*
X14690Y-48310D02*
X24702Y-48310D01*
X25524Y-48310D02*
X26565Y-48310D01*
X27407Y-48310D02*
X28555Y-48310D01*
X37434Y-48310D02*
X48010Y-48310D01*
X14690Y-48390D02*
X24782Y-48390D01*
X25604Y-48390D02*
X26597Y-48390D01*
X27373Y-48390D02*
X28555Y-48390D01*
X37431Y-48390D02*
X48010Y-48390D01*
X14690Y-48470D02*
X24862Y-48470D01*
X25684Y-48470D02*
X26639Y-48470D01*
X27333Y-48470D02*
X28555Y-48470D01*
X37415Y-48470D02*
X48010Y-48470D01*
X14690Y-48550D02*
X24942Y-48550D01*
X25764Y-48550D02*
X26719Y-48550D01*
X27253Y-48550D02*
X28555Y-48550D01*
X37370Y-48550D02*
X48010Y-48550D01*
X14690Y-48630D02*
X25022Y-48630D01*
X25844Y-48630D02*
X26874Y-48630D01*
X27096Y-48630D02*
X28555Y-48630D01*
X37301Y-48630D02*
X48010Y-48630D01*
X14690Y-48710D02*
X25102Y-48710D01*
X25924Y-48710D02*
X28555Y-48710D01*
X37221Y-48710D02*
X48010Y-48710D01*
X14690Y-48790D02*
X25182Y-48790D01*
X26004Y-48790D02*
X27019Y-48790D01*
X27415Y-48790D02*
X28555Y-48790D01*
X37141Y-48790D02*
X48010Y-48790D01*
X14690Y-48870D02*
X25262Y-48870D01*
X26084Y-48870D02*
X26914Y-48870D01*
X27520Y-48870D02*
X28555Y-48870D01*
X37061Y-48870D02*
X48010Y-48870D01*
X14690Y-48950D02*
X25342Y-48950D01*
X27588Y-48950D02*
X28555Y-48950D01*
X36981Y-48950D02*
X48010Y-48950D01*
X14690Y-49030D02*
X25422Y-49030D01*
X27620Y-49030D02*
X28555Y-49030D01*
X36964Y-49030D02*
X48010Y-49030D01*
X14690Y-49110D02*
X25502Y-49110D01*
X27642Y-49110D02*
X28555Y-49110D01*
X36946Y-49110D02*
X48010Y-49110D01*
X14690Y-49190D02*
X25582Y-49190D01*
X27642Y-49190D02*
X28555Y-49190D01*
X36912Y-49190D02*
X48010Y-49190D01*
X14690Y-49270D02*
X25662Y-49270D01*
X27634Y-49270D02*
X28555Y-49270D01*
X36206Y-49270D02*
X36226Y-49270D01*
X36852Y-49270D02*
X48010Y-49270D01*
X14690Y-49350D02*
X25742Y-49350D01*
X27601Y-49350D02*
X28555Y-49350D01*
X36126Y-49350D02*
X36317Y-49350D01*
X36761Y-49350D02*
X48010Y-49350D01*
X14690Y-49430D02*
X25850Y-49430D01*
X27556Y-49430D02*
X28555Y-49430D01*
X36046Y-49430D02*
X48010Y-49430D01*
X14690Y-49510D02*
X26958Y-49510D01*
X27476Y-49510D02*
X28555Y-49510D01*
X35967Y-49510D02*
X48010Y-49510D01*
X14690Y-49590D02*
X27124Y-49590D01*
X27308Y-49590D02*
X28555Y-49590D01*
X35887Y-49590D02*
X48010Y-49590D01*
X14690Y-49670D02*
X28555Y-49670D01*
X35875Y-49670D02*
X48010Y-49670D01*
X14690Y-49750D02*
X28555Y-49750D01*
X35855Y-49750D02*
X48010Y-49750D01*
X14690Y-49830D02*
X28555Y-49830D01*
X35822Y-49830D02*
X48010Y-49830D01*
X14690Y-49910D02*
X28555Y-49910D01*
X35759Y-49910D02*
X48010Y-49910D01*
X14690Y-49990D02*
X28555Y-49990D01*
X29455Y-49990D02*
X29576Y-49990D01*
X35663Y-49990D02*
X48010Y-49990D01*
X14690Y-50070D02*
X28555Y-50070D01*
X29455Y-50070D02*
X29656Y-50070D01*
X35421Y-50070D02*
X48010Y-50070D01*
X14690Y-50150D02*
X28555Y-50150D01*
X29455Y-50150D02*
X29736Y-50150D01*
X35421Y-50150D02*
X48010Y-50150D01*
X14690Y-50230D02*
X28555Y-50230D01*
X29455Y-50230D02*
X29816Y-50230D01*
X35421Y-50230D02*
X48010Y-50230D01*
X14690Y-50310D02*
X28555Y-50310D01*
X29455Y-50310D02*
X29896Y-50310D01*
X35421Y-50310D02*
X48010Y-50310D01*
X14690Y-50390D02*
X28555Y-50390D01*
X29455Y-50390D02*
X29976Y-50390D01*
X35421Y-50390D02*
X48010Y-50390D01*
X14690Y-50470D02*
X28555Y-50470D01*
X29455Y-50470D02*
X30056Y-50470D01*
X35421Y-50470D02*
X48010Y-50470D01*
X14690Y-50550D02*
X28555Y-50550D01*
X29455Y-50550D02*
X30136Y-50550D01*
X35421Y-50550D02*
X48010Y-50550D01*
X14690Y-50630D02*
X28555Y-50630D01*
X29455Y-50630D02*
X30216Y-50630D01*
X35421Y-50630D02*
X48010Y-50630D01*
X14690Y-50710D02*
X28555Y-50710D01*
X29455Y-50710D02*
X30296Y-50710D01*
X35421Y-50710D02*
X48010Y-50710D01*
X14690Y-50790D02*
X28555Y-50790D01*
X29455Y-50790D02*
X30376Y-50790D01*
X35421Y-50790D02*
X48010Y-50790D01*
X14690Y-50870D02*
X28555Y-50870D01*
X29455Y-50870D02*
X30456Y-50870D01*
X35421Y-50870D02*
X48010Y-50870D01*
X14690Y-50950D02*
X28555Y-50950D01*
X29455Y-50950D02*
X30536Y-50950D01*
X35421Y-50950D02*
X48010Y-50950D01*
X14690Y-51030D02*
X28555Y-51030D01*
X29455Y-51030D02*
X30616Y-51030D01*
X35421Y-51030D02*
X48010Y-51030D01*
X14690Y-51110D02*
X28555Y-51110D01*
X29455Y-51110D02*
X30696Y-51110D01*
X35421Y-51110D02*
X48010Y-51110D01*
X14690Y-51190D02*
X28555Y-51190D01*
X29455Y-51190D02*
X30776Y-51190D01*
X35421Y-51190D02*
X48010Y-51190D01*
X14690Y-51270D02*
X28555Y-51270D01*
X29455Y-51270D02*
X30856Y-51270D01*
X35421Y-51270D02*
X48010Y-51270D01*
X14690Y-51350D02*
X28555Y-51350D01*
X29455Y-51350D02*
X30936Y-51350D01*
X35421Y-51350D02*
X48010Y-51350D01*
X14690Y-51430D02*
X28555Y-51430D01*
X29455Y-51430D02*
X31016Y-51430D01*
X35421Y-51430D02*
X48010Y-51430D01*
X14690Y-51510D02*
X28555Y-51510D01*
X29455Y-51510D02*
X31096Y-51510D01*
X35421Y-51510D02*
X48010Y-51510D01*
X14690Y-51590D02*
X28555Y-51590D01*
X29455Y-51590D02*
X31176Y-51590D01*
X35421Y-51590D02*
X48010Y-51590D01*
X14690Y-51670D02*
X28555Y-51670D01*
X29455Y-51670D02*
X31256Y-51670D01*
X35421Y-51670D02*
X48010Y-51670D01*
X14690Y-51750D02*
X28555Y-51750D01*
X29455Y-51750D02*
X31336Y-51750D01*
X35421Y-51750D02*
X48010Y-51750D01*
X14690Y-51830D02*
X28555Y-51830D01*
X29455Y-51830D02*
X31416Y-51830D01*
X35421Y-51830D02*
X48010Y-51830D01*
X14690Y-51910D02*
X28555Y-51910D01*
X29455Y-51910D02*
X31496Y-51910D01*
X35421Y-51910D02*
X48010Y-51910D01*
X14690Y-51990D02*
X28555Y-51990D01*
X29518Y-51990D02*
X30482Y-51990D01*
X30936Y-51990D02*
X31576Y-51990D01*
X35421Y-51990D02*
X48010Y-51990D01*
X14690Y-52070D02*
X28555Y-52070D01*
X29598Y-52070D02*
X30394Y-52070D01*
X31024Y-52070D02*
X31656Y-52070D01*
X35421Y-52070D02*
X48010Y-52070D01*
X14690Y-52150D02*
X28555Y-52150D01*
X29678Y-52150D02*
X30335Y-52150D01*
X31084Y-52150D02*
X31736Y-52150D01*
X35417Y-52150D02*
X48010Y-52150D01*
X14690Y-52230D02*
X28555Y-52230D01*
X29758Y-52230D02*
X30302Y-52230D01*
X31117Y-52230D02*
X31816Y-52230D01*
X35401Y-52230D02*
X48010Y-52230D01*
X14690Y-52310D02*
X28555Y-52310D01*
X29838Y-52310D02*
X30284Y-52310D01*
X31134Y-52310D02*
X31896Y-52310D01*
X35353Y-52310D02*
X48010Y-52310D01*
X14690Y-52390D02*
X28555Y-52390D01*
X29918Y-52390D02*
X30284Y-52390D01*
X31153Y-52390D02*
X31976Y-52390D01*
X35282Y-52390D02*
X48010Y-52390D01*
X14690Y-52470D02*
X28555Y-52470D01*
X29135Y-52470D02*
X29178Y-52470D01*
X29998Y-52470D02*
X30296Y-52470D01*
X31233Y-52470D02*
X32056Y-52470D01*
X35202Y-52470D02*
X48010Y-52470D01*
X14690Y-52550D02*
X28555Y-52550D01*
X29135Y-52550D02*
X29258Y-52550D01*
X30269Y-52550D02*
X30329Y-52550D01*
X31313Y-52550D02*
X32136Y-52550D01*
X35122Y-52550D02*
X48010Y-52550D01*
X14690Y-52630D02*
X28555Y-52630D01*
X29135Y-52630D02*
X29338Y-52630D01*
X30349Y-52630D02*
X30382Y-52630D01*
X31393Y-52630D02*
X32216Y-52630D01*
X35042Y-52630D02*
X48010Y-52630D01*
X14690Y-52710D02*
X28555Y-52710D01*
X29135Y-52710D02*
X29418Y-52710D01*
X30399Y-52710D02*
X30462Y-52710D01*
X31473Y-52710D02*
X32296Y-52710D01*
X34962Y-52710D02*
X48010Y-52710D01*
X14690Y-52790D02*
X28555Y-52790D01*
X29135Y-52790D02*
X29498Y-52790D01*
X30432Y-52790D02*
X30733Y-52790D01*
X31553Y-52790D02*
X32376Y-52790D01*
X34882Y-52790D02*
X48010Y-52790D01*
X14690Y-52870D02*
X28555Y-52870D01*
X29135Y-52870D02*
X29578Y-52870D01*
X30441Y-52870D02*
X30813Y-52870D01*
X31633Y-52870D02*
X32456Y-52870D01*
X34802Y-52870D02*
X48010Y-52870D01*
X14690Y-52950D02*
X28555Y-52950D01*
X29135Y-52950D02*
X29591Y-52950D01*
X30441Y-52950D02*
X30893Y-52950D01*
X34722Y-52950D02*
X48010Y-52950D01*
X14690Y-53030D02*
X28555Y-53030D01*
X29135Y-53030D02*
X29610Y-53030D01*
X30421Y-53030D02*
X30973Y-53030D01*
X34642Y-53030D02*
X48010Y-53030D01*
X14690Y-53110D02*
X28555Y-53110D01*
X29135Y-53110D02*
X29643Y-53110D01*
X30388Y-53110D02*
X31053Y-53110D01*
X34562Y-53110D02*
X48010Y-53110D01*
X14690Y-53190D02*
X28555Y-53190D01*
X29135Y-53190D02*
X29707Y-53190D01*
X30325Y-53190D02*
X31133Y-53190D01*
X34482Y-53190D02*
X46158Y-53190D01*
X47042Y-53190D02*
X48010Y-53190D01*
X14690Y-53270D02*
X28555Y-53270D01*
X29135Y-53270D02*
X29803Y-53270D01*
X30229Y-53270D02*
X31213Y-53270D01*
X34402Y-53270D02*
X46085Y-53270D01*
X47116Y-53270D02*
X48010Y-53270D01*
X14690Y-53350D02*
X28555Y-53350D01*
X29161Y-53350D02*
X31293Y-53350D01*
X34322Y-53350D02*
X46051Y-53350D01*
X47149Y-53350D02*
X48010Y-53350D01*
X14690Y-53430D02*
X28555Y-53430D01*
X29241Y-53430D02*
X31373Y-53430D01*
X34242Y-53430D02*
X46051Y-53430D01*
X47149Y-53430D02*
X48010Y-53430D01*
X14690Y-53510D02*
X28568Y-53510D01*
X29321Y-53510D02*
X31528Y-53510D01*
X34086Y-53510D02*
X46051Y-53510D01*
X47149Y-53510D02*
X48010Y-53510D01*
X14690Y-53590D02*
X28600Y-53590D01*
X29401Y-53590D02*
X46051Y-53590D01*
X47149Y-53590D02*
X48010Y-53590D01*
X14690Y-53670D02*
X28661Y-53670D01*
X29481Y-53670D02*
X46051Y-53670D01*
X47149Y-53670D02*
X48010Y-53670D01*
X14690Y-53750D02*
X28741Y-53750D01*
X29745Y-53750D02*
X46051Y-53750D01*
X47149Y-53750D02*
X48010Y-53750D01*
X14690Y-53830D02*
X28821Y-53830D01*
X29832Y-53830D02*
X46051Y-53830D01*
X47149Y-53830D02*
X48010Y-53830D01*
X14690Y-53910D02*
X28901Y-53910D01*
X29892Y-53910D02*
X46051Y-53910D01*
X47149Y-53910D02*
X48010Y-53910D01*
X14690Y-53990D02*
X28981Y-53990D01*
X29925Y-53990D02*
X46051Y-53990D01*
X47149Y-53990D02*
X48010Y-53990D01*
X14690Y-54070D02*
X29061Y-54070D01*
X29941Y-54070D02*
X46059Y-54070D01*
X47140Y-54070D02*
X48010Y-54070D01*
X14690Y-54150D02*
X29091Y-54150D01*
X29941Y-54150D02*
X46098Y-54150D01*
X47102Y-54150D02*
X48010Y-54150D01*
X14690Y-54230D02*
X29103Y-54230D01*
X29928Y-54230D02*
X46204Y-54230D01*
X46995Y-54230D02*
X48010Y-54230D01*
X14690Y-54310D02*
X29136Y-54310D01*
X29895Y-54310D02*
X46296Y-54310D01*
X46905Y-54310D02*
X48010Y-54310D01*
X14690Y-54390D02*
X29190Y-54390D01*
X29842Y-54390D02*
X46360Y-54390D01*
X46839Y-54390D02*
X48010Y-54390D01*
X14690Y-54470D02*
X18113Y-54470D01*
X28868Y-54470D02*
X29270Y-54470D01*
X29762Y-54470D02*
X46111Y-54470D01*
X46300Y-54470D02*
X46440Y-54470D01*
X46759Y-54470D02*
X46901Y-54470D01*
X47093Y-54470D02*
X48010Y-54470D01*
X14690Y-54550D02*
X18113Y-54550D01*
X28868Y-54550D02*
X46082Y-54550D01*
X46380Y-54550D02*
X46520Y-54550D01*
X46679Y-54550D02*
X46821Y-54550D01*
X47126Y-54550D02*
X48010Y-54550D01*
X14690Y-54630D02*
X18113Y-54630D01*
X28868Y-54630D02*
X46057Y-54630D01*
X46460Y-54630D02*
X46741Y-54630D01*
X47136Y-54630D02*
X48010Y-54630D01*
X14690Y-54710D02*
X18113Y-54710D01*
X28868Y-54710D02*
X46061Y-54710D01*
X46519Y-54710D02*
X46680Y-54710D01*
X47140Y-54710D02*
X48010Y-54710D01*
X14690Y-54790D02*
X18113Y-54790D01*
X28868Y-54790D02*
X46065Y-54790D01*
X46439Y-54790D02*
X46581Y-54790D01*
X46620Y-54790D02*
X46760Y-54790D01*
X47139Y-54790D02*
X48010Y-54790D01*
X14690Y-54870D02*
X18113Y-54870D01*
X28868Y-54870D02*
X46082Y-54870D01*
X46359Y-54870D02*
X46501Y-54870D01*
X46700Y-54870D02*
X46840Y-54870D01*
X47111Y-54870D02*
X48010Y-54870D01*
X14690Y-54950D02*
X18113Y-54950D01*
X28868Y-54950D02*
X46115Y-54950D01*
X46279Y-54950D02*
X46421Y-54950D01*
X46780Y-54950D02*
X46920Y-54950D01*
X47082Y-54950D02*
X48010Y-54950D01*
X14690Y-55030D02*
X18113Y-55030D01*
X28868Y-55030D02*
X46341Y-55030D01*
X46860Y-55030D02*
X48010Y-55030D01*
X14690Y-55110D02*
X18113Y-55110D01*
X28868Y-55110D02*
X46301Y-55110D01*
X46898Y-55110D02*
X48010Y-55110D01*
X14690Y-55190D02*
X18113Y-55190D01*
X28868Y-55190D02*
X46370Y-55190D01*
X46836Y-55190D02*
X48010Y-55190D01*
X14690Y-55270D02*
X18113Y-55270D01*
X28868Y-55270D02*
X48010Y-55270D01*
X14690Y-55350D02*
X18113Y-55350D01*
X28868Y-55350D02*
X48010Y-55350D01*
X14690Y-55430D02*
X18113Y-55430D01*
X28868Y-55430D02*
X48010Y-55430D01*
X14690Y-55510D02*
X18113Y-55510D01*
X28868Y-55510D02*
X48010Y-55510D01*
X14690Y-55590D02*
X18113Y-55590D01*
X28868Y-55590D02*
X48010Y-55590D01*
X14690Y-55670D02*
X18113Y-55670D01*
X28868Y-55670D02*
X48010Y-55670D01*
X14690Y-55750D02*
X18113Y-55750D01*
X28868Y-55750D02*
X48010Y-55750D01*
X14690Y-55830D02*
X18113Y-55830D01*
X28868Y-55830D02*
X48010Y-55830D01*
X14690Y-55910D02*
X18113Y-55910D01*
X28868Y-55910D02*
X48010Y-55910D01*
X14690Y-55990D02*
X18113Y-55990D01*
X28868Y-55990D02*
X48010Y-55990D01*
X33830Y-37740D02*
X33830Y-37740D01*
X33730Y-37820D02*
X33910Y-37820D01*
X33810Y-37900D02*
X33990Y-37900D01*
X33890Y-37980D02*
X34070Y-37980D01*
X33970Y-38060D02*
X34150Y-38060D01*
X34050Y-38140D02*
X34230Y-38140D01*
X34130Y-38220D02*
X34310Y-38220D01*
X34210Y-38300D02*
X34390Y-38300D01*
X34290Y-38380D02*
X34470Y-38380D01*
X34370Y-38460D02*
X34550Y-38460D01*
X34450Y-38540D02*
X34630Y-38540D01*
X34530Y-38620D02*
X34710Y-38620D01*
X34610Y-38700D02*
X34790Y-38700D01*
X34690Y-38780D02*
X34870Y-38780D01*
X34770Y-38860D02*
X34950Y-38860D01*
X34850Y-38940D02*
X35030Y-38940D01*
X34922Y-39020D02*
X35110Y-39020D01*
X34969Y-39100D02*
X35190Y-39100D01*
X34985Y-39180D02*
X35270Y-39180D01*
X34988Y-39260D02*
X35350Y-39260D01*
X34988Y-39340D02*
X35430Y-39340D01*
X34988Y-39420D02*
X35510Y-39420D01*
X34988Y-39500D02*
X35590Y-39500D01*
X34988Y-39580D02*
X35611Y-39580D01*
X34988Y-39660D02*
X35611Y-39660D01*
X34988Y-39740D02*
X35611Y-39740D01*
X34988Y-39820D02*
X35611Y-39820D01*
X34988Y-39900D02*
X35611Y-39900D01*
X34988Y-39980D02*
X35611Y-39980D01*
X34988Y-40060D02*
X35611Y-40060D01*
X34988Y-40140D02*
X35611Y-40140D01*
X34988Y-40220D02*
X35611Y-40220D01*
X34988Y-40300D02*
X35611Y-40300D01*
X34988Y-40380D02*
X35611Y-40380D01*
X34988Y-40460D02*
X35611Y-40460D01*
X34988Y-40540D02*
X35611Y-40540D01*
X34988Y-40620D02*
X35611Y-40620D01*
X34988Y-40700D02*
X35611Y-40700D01*
X34988Y-40780D02*
X35611Y-40780D01*
X34988Y-40860D02*
X35611Y-40860D01*
X34988Y-40940D02*
X35611Y-40940D01*
X34988Y-41020D02*
X35611Y-41020D01*
X34988Y-41100D02*
X35611Y-41100D01*
X34988Y-41180D02*
X35611Y-41180D01*
X34988Y-41260D02*
X35611Y-41260D01*
X34988Y-41340D02*
X35611Y-41340D01*
X34988Y-41420D02*
X35611Y-41420D01*
X34988Y-41500D02*
X35611Y-41500D01*
X34988Y-41580D02*
X35611Y-41580D01*
X34988Y-41660D02*
X35611Y-41660D01*
X34988Y-41740D02*
X35611Y-41740D01*
X34988Y-41820D02*
X35611Y-41820D01*
X34988Y-41900D02*
X35611Y-41900D01*
X34988Y-41980D02*
X35611Y-41980D01*
X34988Y-42060D02*
X35611Y-42060D01*
X34988Y-42140D02*
X35611Y-42140D01*
X34988Y-42220D02*
X35611Y-42220D01*
X34988Y-42300D02*
X35611Y-42300D01*
X34988Y-42380D02*
X35611Y-42380D01*
X34988Y-42460D02*
X35611Y-42460D01*
X34988Y-42540D02*
X35611Y-42540D01*
X34988Y-42620D02*
X35611Y-42620D01*
X34988Y-42700D02*
X35611Y-42700D01*
X34988Y-42780D02*
X35611Y-42780D01*
X34988Y-42860D02*
X35611Y-42860D01*
X34988Y-42940D02*
X35611Y-42940D01*
X34988Y-43020D02*
X35611Y-43020D01*
X35032Y-43100D02*
X35611Y-43100D01*
X35081Y-43180D02*
X35611Y-43180D01*
X35114Y-43260D02*
X35611Y-43260D01*
X35123Y-43340D02*
X35611Y-43340D01*
X35123Y-43420D02*
X35611Y-43420D01*
X35103Y-43500D02*
X35611Y-43500D01*
X35069Y-43580D02*
X35611Y-43580D01*
X35006Y-43660D02*
X35611Y-43660D01*
X34908Y-43740D02*
X35611Y-43740D01*
X34754Y-43820D02*
X35611Y-43820D01*
X34754Y-43900D02*
X35611Y-43900D01*
X34754Y-43980D02*
X35611Y-43980D01*
X34754Y-44060D02*
X35611Y-44060D01*
X34754Y-44140D02*
X35611Y-44140D01*
X34754Y-44220D02*
X35611Y-44220D01*
X34754Y-44300D02*
X35611Y-44300D01*
X34751Y-44380D02*
X35611Y-44380D01*
X34735Y-44460D02*
X35611Y-44460D01*
X34691Y-44540D02*
X35611Y-44540D01*
X34623Y-44620D02*
X35611Y-44620D01*
X34543Y-44700D02*
X35611Y-44700D01*
X34463Y-44780D02*
X35611Y-44780D01*
X34383Y-44860D02*
X35611Y-44860D01*
X34303Y-44940D02*
X35611Y-44940D01*
X34223Y-45020D02*
X35611Y-45020D01*
X34143Y-45100D02*
X35611Y-45100D01*
X34064Y-45180D02*
X35611Y-45180D01*
X34064Y-45260D02*
X35611Y-45260D01*
X34038Y-45340D02*
X35611Y-45340D01*
X34005Y-45420D02*
X35611Y-45420D01*
X33934Y-45500D02*
X35611Y-45500D01*
X33984Y-45580D02*
X35611Y-45580D01*
X34064Y-45660D02*
X35611Y-45660D01*
X34144Y-45740D02*
X35611Y-45740D01*
X34224Y-45820D02*
X35611Y-45820D01*
X34304Y-45900D02*
X35611Y-45900D01*
X34384Y-45980D02*
X35611Y-45980D01*
X34464Y-46060D02*
X35611Y-46060D01*
X34544Y-46140D02*
X35611Y-46140D01*
X34624Y-46220D02*
X35611Y-46220D01*
X34704Y-46300D02*
X35611Y-46300D01*
X34784Y-46380D02*
X35611Y-46380D01*
X34864Y-46460D02*
X35611Y-46460D01*
X34944Y-46540D02*
X35611Y-46540D01*
X35024Y-46620D02*
X35611Y-46620D01*
X35104Y-46700D02*
X35611Y-46700D01*
X35184Y-46780D02*
X35611Y-46780D01*
X35264Y-46860D02*
X35611Y-46860D01*
X35344Y-46940D02*
X35576Y-46940D01*
X35424Y-47020D02*
X35527Y-47020D01*
X30200Y-37426D02*
X30200Y-37426D01*
X31200Y-37426D02*
X31200Y-37426D01*
X30167Y-37506D02*
X30232Y-37506D01*
X31167Y-37506D02*
X31232Y-37506D01*
X30090Y-37586D02*
X30310Y-37586D01*
X31090Y-37586D02*
X31310Y-37586D01*
X30008Y-37666D02*
X30391Y-37666D01*
X31008Y-37666D02*
X31391Y-37666D01*
X29990Y-37746D02*
X30583Y-37746D01*
X30816Y-37746D02*
X31583Y-37746D01*
X31816Y-37746D02*
X31836Y-37746D01*
X29990Y-37826D02*
X31916Y-37826D01*
X29990Y-37906D02*
X31996Y-37906D01*
X29990Y-37986D02*
X32076Y-37986D01*
X29990Y-38066D02*
X32156Y-38066D01*
X29990Y-38146D02*
X32236Y-38146D01*
X29990Y-38226D02*
X32316Y-38226D01*
X29990Y-38306D02*
X32396Y-38306D01*
X29990Y-38386D02*
X32476Y-38386D01*
X29990Y-38466D02*
X32556Y-38466D01*
X29990Y-38546D02*
X32636Y-38546D01*
X29990Y-38626D02*
X32716Y-38626D01*
X29990Y-38706D02*
X32796Y-38706D01*
X29990Y-38786D02*
X32876Y-38786D01*
X29990Y-38866D02*
X32956Y-38866D01*
X29990Y-38946D02*
X33036Y-38946D01*
X29990Y-39026D02*
X33116Y-39026D01*
X29990Y-39106D02*
X33196Y-39106D01*
X29990Y-39186D02*
X33276Y-39186D01*
X29990Y-39266D02*
X33356Y-39266D01*
X29990Y-39346D02*
X33436Y-39346D01*
X29990Y-39426D02*
X33516Y-39426D01*
X30014Y-39506D02*
X33596Y-39506D01*
X30094Y-39586D02*
X33676Y-39586D01*
X30174Y-39666D02*
X33756Y-39666D01*
X30254Y-39746D02*
X33836Y-39746D01*
X30334Y-39826D02*
X33916Y-39826D01*
X30414Y-39906D02*
X33996Y-39906D01*
X30494Y-39986D02*
X34076Y-39986D01*
X30574Y-40066D02*
X34090Y-40066D01*
X30654Y-40146D02*
X34090Y-40146D01*
X30734Y-40226D02*
X34090Y-40226D01*
X30814Y-40306D02*
X34090Y-40306D01*
X30894Y-40386D02*
X34090Y-40386D01*
X30974Y-40466D02*
X34090Y-40466D01*
X31054Y-40546D02*
X34090Y-40546D01*
X31134Y-40626D02*
X34090Y-40626D01*
X31214Y-40706D02*
X34090Y-40706D01*
X31294Y-40786D02*
X34090Y-40786D01*
X31374Y-40866D02*
X34090Y-40866D01*
X31454Y-40946D02*
X34090Y-40946D01*
X31534Y-41026D02*
X34090Y-41026D01*
X31614Y-41106D02*
X34090Y-41106D01*
X31694Y-41186D02*
X34090Y-41186D01*
X31774Y-41266D02*
X34090Y-41266D01*
X31854Y-41346D02*
X34090Y-41346D01*
X31934Y-41426D02*
X34090Y-41426D01*
X32014Y-41506D02*
X34090Y-41506D01*
X32094Y-41586D02*
X34090Y-41586D01*
X32174Y-41666D02*
X34090Y-41666D01*
X32254Y-41746D02*
X34090Y-41746D01*
X32334Y-41826D02*
X34090Y-41826D01*
X32414Y-41906D02*
X34090Y-41906D01*
X32494Y-41986D02*
X34090Y-41986D01*
X32574Y-42066D02*
X34090Y-42066D01*
X32654Y-42146D02*
X34090Y-42146D01*
X32734Y-42226D02*
X34090Y-42226D01*
X32814Y-42306D02*
X34090Y-42306D01*
X32894Y-42386D02*
X34090Y-42386D01*
X32974Y-42466D02*
X34090Y-42466D01*
X33054Y-42546D02*
X34090Y-42546D01*
X33134Y-42626D02*
X34090Y-42626D01*
X33214Y-42706D02*
X34090Y-42706D01*
X33294Y-42786D02*
X34090Y-42786D01*
X33374Y-42866D02*
X34090Y-42866D01*
X33454Y-42946D02*
X34090Y-42946D01*
X33534Y-43026D02*
X34090Y-43026D01*
X33614Y-43106D02*
X34090Y-43106D01*
X33694Y-43186D02*
X34090Y-43186D01*
X33774Y-43266D02*
X34090Y-43266D01*
X33854Y-43346D02*
X34090Y-43346D01*
X33934Y-43426D02*
X34090Y-43426D01*
X48010Y-56060D02*
X48010Y-35190D01*
X14690Y-35190D01*
X14690Y-56060D01*
X18113Y-56060D01*
X18113Y-54410D01*
X27132Y-54410D01*
X27132Y-49593D01*
X26976Y-49528D01*
X26906Y-49458D01*
X25971Y-49458D01*
X25860Y-49436D01*
X25765Y-49373D01*
X20747Y-44355D01*
X20648Y-44355D01*
X20492Y-44290D01*
X20422Y-44220D01*
X19376Y-44220D01*
X19265Y-44198D01*
X19170Y-44135D01*
X17647Y-42611D01*
X17547Y-42611D01*
X17391Y-42546D01*
X17271Y-42426D01*
X17207Y-42270D01*
X17207Y-42101D01*
X17272Y-41945D01*
X17392Y-41825D01*
X17548Y-41761D01*
X17717Y-41761D01*
X17873Y-41826D01*
X17993Y-41946D01*
X18057Y-42102D01*
X18057Y-42201D01*
X19496Y-43640D01*
X20421Y-43640D01*
X20493Y-43569D01*
X20649Y-43505D01*
X20818Y-43505D01*
X20974Y-43570D01*
X21094Y-43690D01*
X21158Y-43846D01*
X21158Y-43944D01*
X26091Y-48878D01*
X26901Y-48878D01*
X26901Y-48641D01*
X26745Y-48576D01*
X26625Y-48456D01*
X26561Y-48300D01*
X26561Y-48131D01*
X26578Y-48088D01*
X22843Y-44354D01*
X22744Y-44354D01*
X22588Y-44289D01*
X22468Y-44169D01*
X22404Y-44013D01*
X22404Y-43844D01*
X22469Y-43688D01*
X22589Y-43568D01*
X22745Y-43504D01*
X22914Y-43504D01*
X23070Y-43569D01*
X23190Y-43689D01*
X23254Y-43845D01*
X23254Y-43944D01*
X27122Y-47812D01*
X27227Y-47856D01*
X27347Y-47976D01*
X27411Y-48132D01*
X27411Y-48301D01*
X27346Y-48457D01*
X27226Y-48577D01*
X27070Y-48641D01*
X26901Y-48641D01*
X26901Y-48878D01*
X26905Y-48878D01*
X26977Y-48807D01*
X27133Y-48743D01*
X27302Y-48743D01*
X27458Y-48808D01*
X27578Y-48928D01*
X27642Y-49084D01*
X27642Y-49253D01*
X27577Y-49409D01*
X27457Y-49529D01*
X27301Y-49593D01*
X27132Y-49593D01*
X27132Y-54410D01*
X28868Y-54410D01*
X28868Y-56060D01*
X29431Y-56060D01*
X29431Y-54540D01*
X29275Y-54475D01*
X29155Y-54355D01*
X29091Y-54199D01*
X29091Y-54100D01*
X28640Y-53649D01*
X28577Y-53555D01*
X28555Y-53444D01*
X28555Y-48119D01*
X28484Y-48048D01*
X28420Y-47892D01*
X28420Y-47723D01*
X28485Y-47567D01*
X28605Y-47447D01*
X28761Y-47383D01*
X28930Y-47383D01*
X28999Y-47411D01*
X29024Y-47386D01*
X28857Y-47219D01*
X27962Y-47220D01*
X27851Y-47198D01*
X27757Y-47135D01*
X23040Y-42418D01*
X22940Y-42418D01*
X22784Y-42353D01*
X22679Y-42248D01*
X22628Y-42269D01*
X22459Y-42269D01*
X22303Y-42204D01*
X22183Y-42084D01*
X22152Y-42009D01*
X22126Y-42073D01*
X22006Y-42193D01*
X21850Y-42257D01*
X21681Y-42257D01*
X21525Y-42192D01*
X21405Y-42072D01*
X21341Y-41916D01*
X21341Y-41747D01*
X21406Y-41591D01*
X21526Y-41471D01*
X21682Y-41407D01*
X21780Y-41407D01*
X22310Y-40877D01*
X22200Y-40877D01*
X22145Y-41011D01*
X22025Y-41131D01*
X21869Y-41195D01*
X21700Y-41195D01*
X21544Y-41130D01*
X21424Y-41010D01*
X21360Y-40854D01*
X21360Y-40685D01*
X21425Y-40529D01*
X21545Y-40409D01*
X21701Y-40345D01*
X21818Y-40345D01*
X21857Y-40319D01*
X21968Y-40297D01*
X28485Y-40296D01*
X28432Y-40217D01*
X28410Y-40106D01*
X28410Y-37673D01*
X28389Y-37665D01*
X28235Y-37511D01*
X28200Y-37426D01*
X28165Y-37511D01*
X28011Y-37665D01*
X27809Y-37749D01*
X27591Y-37749D01*
X27389Y-37665D01*
X27249Y-37525D01*
X27249Y-37550D01*
X27211Y-37641D01*
X27141Y-37711D01*
X27049Y-37749D01*
X26350Y-37749D01*
X26259Y-37711D01*
X26189Y-37641D01*
X26151Y-37549D01*
X26151Y-36850D01*
X26189Y-36759D01*
X26259Y-36689D01*
X26351Y-36651D01*
X26375Y-36651D01*
X26235Y-36511D01*
X26151Y-36309D01*
X26151Y-36091D01*
X26235Y-35889D01*
X26389Y-35735D01*
X26591Y-35651D01*
X26809Y-35651D01*
X27011Y-35735D01*
X27165Y-35889D01*
X27204Y-35984D01*
X27228Y-35919D01*
X27322Y-35892D01*
X27629Y-36200D01*
X27322Y-36508D01*
X27228Y-36481D01*
X27202Y-36419D01*
X27165Y-36511D01*
X27025Y-36651D01*
X27050Y-36651D01*
X27141Y-36689D01*
X27211Y-36759D01*
X27249Y-36851D01*
X27249Y-36875D01*
X27389Y-36735D01*
X27484Y-36695D01*
X27419Y-36672D01*
X27392Y-36578D01*
X27700Y-36271D01*
X27700Y-36129D01*
X27392Y-35822D01*
X27419Y-35728D01*
X27566Y-35668D01*
X27779Y-35657D01*
X27981Y-35728D01*
X28008Y-35822D01*
X27700Y-36129D01*
X27700Y-36271D01*
X28008Y-36578D01*
X27981Y-36672D01*
X27919Y-36697D01*
X28011Y-36735D01*
X28165Y-36889D01*
X28200Y-36973D01*
X28235Y-36889D01*
X28322Y-36802D01*
X28322Y-36508D01*
X28228Y-36481D01*
X28197Y-36407D01*
X28172Y-36481D01*
X28078Y-36508D01*
X27771Y-36200D01*
X28078Y-35892D01*
X28172Y-35919D01*
X28202Y-35992D01*
X28228Y-35919D01*
X28322Y-35892D01*
X28629Y-36200D01*
X28322Y-36508D01*
X28322Y-36802D01*
X28389Y-36735D01*
X28484Y-36695D01*
X28419Y-36672D01*
X28392Y-36578D01*
X28700Y-36271D01*
X28700Y-36129D01*
X28392Y-35822D01*
X28419Y-35728D01*
X28566Y-35668D01*
X28779Y-35657D01*
X28981Y-35728D01*
X29008Y-35822D01*
X28700Y-36129D01*
X28700Y-36271D01*
X29008Y-36578D01*
X28981Y-36672D01*
X28919Y-36697D01*
X29011Y-36735D01*
X29165Y-36889D01*
X29200Y-36973D01*
X29235Y-36889D01*
X29322Y-36802D01*
X29322Y-36508D01*
X29228Y-36481D01*
X29197Y-36407D01*
X29172Y-36481D01*
X29078Y-36508D01*
X28771Y-36200D01*
X29078Y-35892D01*
X29172Y-35919D01*
X29202Y-35992D01*
X29228Y-35919D01*
X29322Y-35892D01*
X29629Y-36200D01*
X29322Y-36508D01*
X29322Y-36802D01*
X29389Y-36735D01*
X29484Y-36695D01*
X29419Y-36672D01*
X29392Y-36578D01*
X29700Y-36271D01*
X29700Y-36129D01*
X29392Y-35822D01*
X29419Y-35728D01*
X29566Y-35668D01*
X29779Y-35657D01*
X29981Y-35728D01*
X30008Y-35822D01*
X29700Y-36129D01*
X29700Y-36271D01*
X30008Y-36578D01*
X29981Y-36672D01*
X29919Y-36697D01*
X30011Y-36735D01*
X30165Y-36889D01*
X30200Y-36973D01*
X30235Y-36889D01*
X30322Y-36802D01*
X30322Y-36508D01*
X30228Y-36481D01*
X30197Y-36407D01*
X30172Y-36481D01*
X30078Y-36508D01*
X29771Y-36200D01*
X30078Y-35892D01*
X30172Y-35919D01*
X30202Y-35992D01*
X30228Y-35919D01*
X30322Y-35892D01*
X30629Y-36200D01*
X30322Y-36508D01*
X30322Y-36802D01*
X30389Y-36735D01*
X30484Y-36695D01*
X30419Y-36672D01*
X30392Y-36578D01*
X30700Y-36271D01*
X30700Y-36129D01*
X30392Y-35822D01*
X30419Y-35728D01*
X30566Y-35668D01*
X30779Y-35657D01*
X30981Y-35728D01*
X31008Y-35822D01*
X30700Y-36129D01*
X30700Y-36271D01*
X31008Y-36578D01*
X30981Y-36672D01*
X30919Y-36697D01*
X31011Y-36735D01*
X31165Y-36889D01*
X31200Y-36973D01*
X31235Y-36889D01*
X31322Y-36802D01*
X31322Y-36508D01*
X31228Y-36481D01*
X31197Y-36407D01*
X31172Y-36481D01*
X31078Y-36508D01*
X30771Y-36200D01*
X31078Y-35892D01*
X31172Y-35919D01*
X31202Y-35992D01*
X31228Y-35919D01*
X31322Y-35892D01*
X31629Y-36200D01*
X31322Y-36508D01*
X31322Y-36802D01*
X31389Y-36735D01*
X31484Y-36695D01*
X31419Y-36672D01*
X31392Y-36578D01*
X31700Y-36271D01*
X31700Y-36129D01*
X31392Y-35822D01*
X31419Y-35728D01*
X31566Y-35668D01*
X31779Y-35657D01*
X31981Y-35728D01*
X32008Y-35822D01*
X31700Y-36129D01*
X31700Y-36271D01*
X32008Y-36578D01*
X31981Y-36672D01*
X31919Y-36697D01*
X32011Y-36735D01*
X32165Y-36889D01*
X32200Y-36973D01*
X32235Y-36889D01*
X32322Y-36801D01*
X32322Y-36508D01*
X32228Y-36481D01*
X32197Y-36407D01*
X32172Y-36481D01*
X32078Y-36508D01*
X31771Y-36200D01*
X32078Y-35892D01*
X32172Y-35919D01*
X32202Y-35992D01*
X32228Y-35919D01*
X32322Y-35892D01*
X32629Y-36200D01*
X32322Y-36508D01*
X32322Y-36801D01*
X32389Y-36735D01*
X32484Y-36695D01*
X32419Y-36672D01*
X32392Y-36578D01*
X32700Y-36271D01*
X32700Y-36129D01*
X32392Y-35822D01*
X32419Y-35728D01*
X32566Y-35668D01*
X32779Y-35657D01*
X32981Y-35728D01*
X33008Y-35822D01*
X32700Y-36129D01*
X32700Y-36271D01*
X33008Y-36578D01*
X32981Y-36672D01*
X32919Y-36697D01*
X33011Y-36735D01*
X33165Y-36889D01*
X33200Y-36973D01*
X33235Y-36889D01*
X33322Y-36802D01*
X33322Y-36508D01*
X33228Y-36481D01*
X33197Y-36407D01*
X33172Y-36481D01*
X33078Y-36508D01*
X32771Y-36200D01*
X33078Y-35892D01*
X33172Y-35919D01*
X33202Y-35992D01*
X33228Y-35919D01*
X33322Y-35892D01*
X33629Y-36200D01*
X33322Y-36508D01*
X33322Y-36802D01*
X33389Y-36735D01*
X33484Y-36695D01*
X33419Y-36672D01*
X33392Y-36578D01*
X33700Y-36271D01*
X33700Y-36129D01*
X33392Y-35822D01*
X33419Y-35728D01*
X33566Y-35668D01*
X33779Y-35657D01*
X33981Y-35728D01*
X34008Y-35822D01*
X33700Y-36129D01*
X33700Y-36271D01*
X34008Y-36578D01*
X33981Y-36672D01*
X33919Y-36697D01*
X34011Y-36735D01*
X34165Y-36889D01*
X34200Y-36973D01*
X34235Y-36889D01*
X34322Y-36802D01*
X34322Y-36508D01*
X34228Y-36481D01*
X34197Y-36407D01*
X34172Y-36481D01*
X34078Y-36508D01*
X33771Y-36200D01*
X34078Y-35892D01*
X34172Y-35919D01*
X34202Y-35992D01*
X34228Y-35919D01*
X34322Y-35892D01*
X34629Y-36200D01*
X34322Y-36508D01*
X34322Y-36802D01*
X34389Y-36735D01*
X34484Y-36695D01*
X34419Y-36672D01*
X34392Y-36578D01*
X34700Y-36271D01*
X34700Y-36129D01*
X34392Y-35822D01*
X34419Y-35728D01*
X34566Y-35668D01*
X34779Y-35657D01*
X34981Y-35728D01*
X35008Y-35822D01*
X34700Y-36129D01*
X34700Y-36271D01*
X35008Y-36578D01*
X34981Y-36672D01*
X34919Y-36697D01*
X35011Y-36735D01*
X35165Y-36889D01*
X35200Y-36973D01*
X35235Y-36889D01*
X35322Y-36802D01*
X35322Y-36508D01*
X35228Y-36481D01*
X35197Y-36407D01*
X35172Y-36481D01*
X35078Y-36508D01*
X34771Y-36200D01*
X35078Y-35892D01*
X35172Y-35919D01*
X35202Y-35992D01*
X35228Y-35919D01*
X35322Y-35892D01*
X35629Y-36200D01*
X35322Y-36508D01*
X35322Y-36802D01*
X35389Y-36735D01*
X35484Y-36695D01*
X35419Y-36672D01*
X35392Y-36578D01*
X35700Y-36271D01*
X35700Y-36129D01*
X35392Y-35822D01*
X35419Y-35728D01*
X35566Y-35668D01*
X35779Y-35657D01*
X35981Y-35728D01*
X36008Y-35822D01*
X35700Y-36129D01*
X35700Y-36271D01*
X36008Y-36578D01*
X35981Y-36672D01*
X35919Y-36697D01*
X36011Y-36735D01*
X36078Y-36802D01*
X36078Y-36508D01*
X35771Y-36200D01*
X36078Y-35892D01*
X36172Y-35919D01*
X36232Y-36066D01*
X36243Y-36279D01*
X36172Y-36481D01*
X36078Y-36508D01*
X36078Y-36802D01*
X36165Y-36889D01*
X36249Y-37091D01*
X36249Y-37309D01*
X36165Y-37511D01*
X36011Y-37665D01*
X35809Y-37749D01*
X35591Y-37749D01*
X35389Y-37665D01*
X35235Y-37511D01*
X35200Y-37426D01*
X35165Y-37511D01*
X35011Y-37665D01*
X34809Y-37749D01*
X34659Y-37749D01*
X36106Y-39195D01*
X36109Y-39201D01*
X36750Y-39201D01*
X36777Y-39212D01*
X38138Y-37850D01*
X38138Y-37700D01*
X37901Y-37699D01*
X37809Y-37661D01*
X37739Y-37591D01*
X37701Y-37500D01*
X37701Y-37401D01*
X37700Y-37262D01*
X37762Y-37200D01*
X38200Y-37200D01*
X38200Y-37638D01*
X38138Y-37700D01*
X38138Y-37850D01*
X38325Y-37663D01*
X38300Y-37638D01*
X38300Y-37200D01*
X38300Y-37100D01*
X38200Y-37100D01*
X37762Y-37100D01*
X37700Y-37038D01*
X37701Y-36899D01*
X37701Y-36800D01*
X37739Y-36709D01*
X37809Y-36639D01*
X37901Y-36601D01*
X37924Y-36600D01*
X37785Y-36461D01*
X37701Y-36259D01*
X37701Y-36041D01*
X37785Y-35839D01*
X37939Y-35685D01*
X38141Y-35601D01*
X38359Y-35601D01*
X38561Y-35685D01*
X38715Y-35839D01*
X38750Y-35923D01*
X38785Y-35839D01*
X38939Y-35685D01*
X39141Y-35601D01*
X39359Y-35601D01*
X39561Y-35685D01*
X39715Y-35839D01*
X39750Y-35923D01*
X39785Y-35839D01*
X39939Y-35685D01*
X40141Y-35601D01*
X40359Y-35601D01*
X40561Y-35685D01*
X40715Y-35839D01*
X40799Y-36041D01*
X40799Y-36259D01*
X40715Y-36461D01*
X40561Y-36615D01*
X40476Y-36650D01*
X40561Y-36685D01*
X40715Y-36839D01*
X40799Y-37041D01*
X40799Y-37259D01*
X40715Y-37461D01*
X40561Y-37615D01*
X40540Y-37623D01*
X40540Y-38048D01*
X40518Y-38159D01*
X40455Y-38253D01*
X39557Y-39151D01*
X39750Y-39151D01*
X39841Y-39189D01*
X39911Y-39259D01*
X39949Y-39351D01*
X39949Y-39375D01*
X40089Y-39235D01*
X40291Y-39151D01*
X40509Y-39151D01*
X40711Y-39235D01*
X40865Y-39389D01*
X40949Y-39591D01*
X40949Y-39809D01*
X40865Y-40011D01*
X40711Y-40165D01*
X40509Y-40249D01*
X40291Y-40249D01*
X40089Y-40165D01*
X39949Y-40025D01*
X39949Y-40050D01*
X39911Y-40141D01*
X39841Y-40211D01*
X39749Y-40249D01*
X39668Y-40249D01*
X39668Y-40254D01*
X39605Y-40348D01*
X37753Y-42200D01*
X37753Y-46714D01*
X37824Y-46785D01*
X37888Y-46941D01*
X37888Y-47110D01*
X37823Y-47266D01*
X37703Y-47386D01*
X37547Y-47450D01*
X37434Y-47450D01*
X37434Y-48377D01*
X37412Y-48488D01*
X37349Y-48582D01*
X36964Y-48967D01*
X36964Y-49067D01*
X36899Y-49223D01*
X36779Y-49343D01*
X36623Y-49407D01*
X36454Y-49407D01*
X36298Y-49342D01*
X36216Y-49260D01*
X35875Y-49603D01*
X35875Y-49703D01*
X35810Y-49859D01*
X35690Y-49979D01*
X35534Y-50043D01*
X35421Y-50043D01*
X35421Y-52131D01*
X35399Y-52242D01*
X35336Y-52337D01*
X34236Y-53436D01*
X34142Y-53499D01*
X34031Y-53521D01*
X31584Y-53521D01*
X31473Y-53499D01*
X31379Y-53436D01*
X30724Y-52781D01*
X30624Y-52781D01*
X30468Y-52716D01*
X30348Y-52596D01*
X30284Y-52440D01*
X30284Y-52271D01*
X30349Y-52115D01*
X30469Y-51995D01*
X30625Y-51931D01*
X30794Y-51931D01*
X30950Y-51996D01*
X31070Y-52116D01*
X31134Y-52272D01*
X31134Y-52371D01*
X31704Y-52941D01*
X32527Y-52941D01*
X29498Y-49912D01*
X29455Y-49912D01*
X29455Y-51927D01*
X30001Y-52473D01*
X30101Y-52473D01*
X30257Y-52538D01*
X30377Y-52658D01*
X30441Y-52814D01*
X30441Y-52983D01*
X30376Y-53139D01*
X30256Y-53259D01*
X30100Y-53323D01*
X29931Y-53323D01*
X29775Y-53258D01*
X29655Y-53138D01*
X29591Y-52982D01*
X29591Y-52883D01*
X29135Y-52427D01*
X29135Y-53324D01*
X29501Y-53690D01*
X29601Y-53690D01*
X29757Y-53755D01*
X29877Y-53875D01*
X29941Y-54031D01*
X29941Y-54200D01*
X29876Y-54356D01*
X29756Y-54476D01*
X29600Y-54540D01*
X29431Y-54540D01*
X29431Y-56060D01*
X43930Y-56060D01*
X43930Y-39096D01*
X43766Y-39028D01*
X43641Y-38902D01*
X43573Y-38738D01*
X43573Y-38561D01*
X43641Y-38397D01*
X43767Y-38272D01*
X43931Y-38204D01*
X44108Y-38204D01*
X44272Y-38272D01*
X44397Y-38398D01*
X44465Y-38562D01*
X44465Y-38739D01*
X44397Y-38903D01*
X44271Y-39028D01*
X44107Y-39096D01*
X43930Y-39096D01*
X43930Y-56060D01*
X46222Y-56060D01*
X46222Y-55008D01*
X46128Y-54981D01*
X46068Y-54834D01*
X46057Y-54621D01*
X46128Y-54419D01*
X46222Y-54392D01*
X46250Y-54420D01*
X46529Y-54700D01*
X46250Y-54979D01*
X46222Y-55008D01*
X46222Y-56060D01*
X46521Y-56060D01*
X46521Y-55243D01*
X46319Y-55172D01*
X46292Y-55078D01*
X46600Y-54771D01*
X46600Y-54629D01*
X46292Y-54322D01*
X46312Y-54249D01*
X46250Y-54249D01*
X46159Y-54211D01*
X46089Y-54141D01*
X46051Y-54049D01*
X46051Y-53350D01*
X46089Y-53259D01*
X46159Y-53189D01*
X46251Y-53151D01*
X46292Y-53151D01*
X46292Y-39096D01*
X46128Y-39028D01*
X46003Y-38902D01*
X45935Y-38738D01*
X45935Y-38561D01*
X46003Y-38397D01*
X46129Y-38272D01*
X46293Y-38204D01*
X46470Y-38204D01*
X46634Y-38272D01*
X46759Y-38398D01*
X46827Y-38562D01*
X46827Y-38739D01*
X46759Y-38903D01*
X46633Y-39028D01*
X46469Y-39096D01*
X46292Y-39096D01*
X46292Y-53151D01*
X46950Y-53151D01*
X47041Y-53189D01*
X47111Y-53259D01*
X47149Y-53351D01*
X47149Y-54050D01*
X47111Y-54141D01*
X47041Y-54211D01*
X46949Y-54249D01*
X46887Y-54249D01*
X46908Y-54322D01*
X46600Y-54629D01*
X46600Y-54771D01*
X46908Y-55078D01*
X46881Y-55172D01*
X46734Y-55232D01*
X46521Y-55243D01*
X46521Y-56060D01*
X46978Y-56060D01*
X46978Y-55008D01*
X46671Y-54700D01*
X46978Y-54392D01*
X47072Y-54419D01*
X47132Y-54566D01*
X47143Y-54779D01*
X47072Y-54981D01*
X46978Y-55008D01*
X46978Y-56060D01*
X48010Y-56060D01*
X14690Y-35190D02*
X48010Y-35190D01*
X14690Y-35270D02*
X48010Y-35270D01*
X14690Y-35350D02*
X48010Y-35350D01*
X14690Y-35430D02*
X48010Y-35430D01*
X14690Y-35510D02*
X48010Y-35510D01*
X14690Y-35590D02*
X48010Y-35590D01*
X14690Y-35670D02*
X26546Y-35670D01*
X26855Y-35670D02*
X27562Y-35670D01*
X27816Y-35670D02*
X28562Y-35670D01*
X28816Y-35670D02*
X29562Y-35670D01*
X29816Y-35670D02*
X30562Y-35670D01*
X30816Y-35670D02*
X31562Y-35670D01*
X31816Y-35670D02*
X32562Y-35670D01*
X32816Y-35670D02*
X33562Y-35670D01*
X33816Y-35670D02*
X34562Y-35670D01*
X34816Y-35670D02*
X35562Y-35670D01*
X35816Y-35670D02*
X37976Y-35670D01*
X38525Y-35670D02*
X38976Y-35670D01*
X39525Y-35670D02*
X39976Y-35670D01*
X40525Y-35670D02*
X48010Y-35670D01*
X14690Y-35750D02*
X26374Y-35750D01*
X27026Y-35750D02*
X27413Y-35750D01*
X27988Y-35750D02*
X28413Y-35750D01*
X28988Y-35750D02*
X29413Y-35750D01*
X29988Y-35750D02*
X30413Y-35750D01*
X30988Y-35750D02*
X31413Y-35750D01*
X31988Y-35750D02*
X32413Y-35750D01*
X32988Y-35750D02*
X33413Y-35750D01*
X33988Y-35750D02*
X34413Y-35750D01*
X34988Y-35750D02*
X35413Y-35750D01*
X35988Y-35750D02*
X37874Y-35750D01*
X38626Y-35750D02*
X38874Y-35750D01*
X39626Y-35750D02*
X39874Y-35750D01*
X40626Y-35750D02*
X48010Y-35750D01*
X14690Y-35830D02*
X26294Y-35830D01*
X27106Y-35830D02*
X27400Y-35830D01*
X27999Y-35830D02*
X28400Y-35830D01*
X28999Y-35830D02*
X29400Y-35830D01*
X29999Y-35830D02*
X30400Y-35830D01*
X30999Y-35830D02*
X31400Y-35830D01*
X31999Y-35830D02*
X32400Y-35830D01*
X32999Y-35830D02*
X33400Y-35830D01*
X33999Y-35830D02*
X34400Y-35830D01*
X34999Y-35830D02*
X35400Y-35830D01*
X35999Y-35830D02*
X37794Y-35830D01*
X38706Y-35830D02*
X38794Y-35830D01*
X39706Y-35830D02*
X39794Y-35830D01*
X40706Y-35830D02*
X48010Y-35830D01*
X14690Y-35910D02*
X26227Y-35910D01*
X27174Y-35910D02*
X27260Y-35910D01*
X27340Y-35910D02*
X27480Y-35910D01*
X27919Y-35910D02*
X28061Y-35910D01*
X28141Y-35910D02*
X28260Y-35910D01*
X28340Y-35910D02*
X28480Y-35910D01*
X28919Y-35910D02*
X29061Y-35910D01*
X29141Y-35910D02*
X29260Y-35910D01*
X29340Y-35910D02*
X29480Y-35910D01*
X29919Y-35910D02*
X30061Y-35910D01*
X30141Y-35910D02*
X30260Y-35910D01*
X30340Y-35910D02*
X30480Y-35910D01*
X30919Y-35910D02*
X31061Y-35910D01*
X31141Y-35910D02*
X31260Y-35910D01*
X31340Y-35910D02*
X31480Y-35910D01*
X31919Y-35910D02*
X32061Y-35910D01*
X32141Y-35910D02*
X32260Y-35910D01*
X32340Y-35910D02*
X32480Y-35910D01*
X32919Y-35910D02*
X33061Y-35910D01*
X33141Y-35910D02*
X33260Y-35910D01*
X33340Y-35910D02*
X33480Y-35910D01*
X33919Y-35910D02*
X34061Y-35910D01*
X34141Y-35910D02*
X34260Y-35910D01*
X34340Y-35910D02*
X34480Y-35910D01*
X34919Y-35910D02*
X35061Y-35910D01*
X35141Y-35910D02*
X35260Y-35910D01*
X35340Y-35910D02*
X35480Y-35910D01*
X35919Y-35910D02*
X36061Y-35910D01*
X36141Y-35910D02*
X37756Y-35910D01*
X38745Y-35910D02*
X38756Y-35910D01*
X39745Y-35910D02*
X39756Y-35910D01*
X40745Y-35910D02*
X48010Y-35910D01*
X14690Y-35990D02*
X26193Y-35990D01*
X27420Y-35990D02*
X27560Y-35990D01*
X27839Y-35990D02*
X27981Y-35990D01*
X28202Y-35990D02*
X28203Y-35990D01*
X28420Y-35990D02*
X28560Y-35990D01*
X28839Y-35990D02*
X28981Y-35990D01*
X29202Y-35990D02*
X29203Y-35990D01*
X29420Y-35990D02*
X29560Y-35990D01*
X29839Y-35990D02*
X29981Y-35990D01*
X30202Y-35990D02*
X30203Y-35990D01*
X30420Y-35990D02*
X30560Y-35990D01*
X30839Y-35990D02*
X30981Y-35990D01*
X31202Y-35990D02*
X31203Y-35990D01*
X31420Y-35990D02*
X31560Y-35990D01*
X31839Y-35990D02*
X31981Y-35990D01*
X32202Y-35990D02*
X32203Y-35990D01*
X32420Y-35990D02*
X32560Y-35990D01*
X32839Y-35990D02*
X32981Y-35990D01*
X33202Y-35990D02*
X33203Y-35990D01*
X33420Y-35990D02*
X33560Y-35990D01*
X33839Y-35990D02*
X33981Y-35990D01*
X34202Y-35990D02*
X34203Y-35990D01*
X34420Y-35990D02*
X34560Y-35990D01*
X34839Y-35990D02*
X34981Y-35990D01*
X35202Y-35990D02*
X35203Y-35990D01*
X35420Y-35990D02*
X35560Y-35990D01*
X35839Y-35990D02*
X35981Y-35990D01*
X36201Y-35990D02*
X37723Y-35990D01*
X40778Y-35990D02*
X48010Y-35990D01*
X14690Y-36070D02*
X26160Y-36070D01*
X27500Y-36070D02*
X27640Y-36070D01*
X27759Y-36070D02*
X27901Y-36070D01*
X28500Y-36070D02*
X28640Y-36070D01*
X28759Y-36070D02*
X28901Y-36070D01*
X29500Y-36070D02*
X29640Y-36070D01*
X29759Y-36070D02*
X29901Y-36070D01*
X30500Y-36070D02*
X30640Y-36070D01*
X30759Y-36070D02*
X30901Y-36070D01*
X31500Y-36070D02*
X31640Y-36070D01*
X31759Y-36070D02*
X31901Y-36070D01*
X32500Y-36070D02*
X32640Y-36070D01*
X32759Y-36070D02*
X32901Y-36070D01*
X33500Y-36070D02*
X33640Y-36070D01*
X33759Y-36070D02*
X33901Y-36070D01*
X34500Y-36070D02*
X34640Y-36070D01*
X34759Y-36070D02*
X34901Y-36070D01*
X35500Y-36070D02*
X35640Y-36070D01*
X35759Y-36070D02*
X35901Y-36070D01*
X36233Y-36070D02*
X37701Y-36070D01*
X40799Y-36070D02*
X48010Y-36070D01*
X14690Y-36150D02*
X26151Y-36150D01*
X27580Y-36150D02*
X27821Y-36150D01*
X28580Y-36150D02*
X28821Y-36150D01*
X29580Y-36150D02*
X29821Y-36150D01*
X30580Y-36150D02*
X30821Y-36150D01*
X31580Y-36150D02*
X31821Y-36150D01*
X32580Y-36150D02*
X32821Y-36150D01*
X33580Y-36150D02*
X33821Y-36150D01*
X34580Y-36150D02*
X34821Y-36150D01*
X35580Y-36150D02*
X35821Y-36150D01*
X36237Y-36150D02*
X37701Y-36150D01*
X40799Y-36150D02*
X48010Y-36150D01*
X14690Y-36230D02*
X26151Y-36230D01*
X27599Y-36230D02*
X27800Y-36230D01*
X28599Y-36230D02*
X28800Y-36230D01*
X29599Y-36230D02*
X29800Y-36230D01*
X30599Y-36230D02*
X30800Y-36230D01*
X31599Y-36230D02*
X31800Y-36230D01*
X32599Y-36230D02*
X32800Y-36230D01*
X33599Y-36230D02*
X33800Y-36230D01*
X34599Y-36230D02*
X34800Y-36230D01*
X35599Y-36230D02*
X35800Y-36230D01*
X36241Y-36230D02*
X37701Y-36230D01*
X40799Y-36230D02*
X48010Y-36230D01*
X14690Y-36310D02*
X26151Y-36310D01*
X27519Y-36310D02*
X27661Y-36310D01*
X27740Y-36310D02*
X27880Y-36310D01*
X28519Y-36310D02*
X28661Y-36310D01*
X28740Y-36310D02*
X28880Y-36310D01*
X29519Y-36310D02*
X29661Y-36310D01*
X29740Y-36310D02*
X29880Y-36310D01*
X30519Y-36310D02*
X30661Y-36310D01*
X30740Y-36310D02*
X30880Y-36310D01*
X31519Y-36310D02*
X31661Y-36310D01*
X31740Y-36310D02*
X31880Y-36310D01*
X32519Y-36310D02*
X32661Y-36310D01*
X32740Y-36310D02*
X32880Y-36310D01*
X33519Y-36310D02*
X33661Y-36310D01*
X33740Y-36310D02*
X33880Y-36310D01*
X34519Y-36310D02*
X34661Y-36310D01*
X34740Y-36310D02*
X34880Y-36310D01*
X35519Y-36310D02*
X35661Y-36310D01*
X35740Y-36310D02*
X35880Y-36310D01*
X36232Y-36310D02*
X37722Y-36310D01*
X40777Y-36310D02*
X48010Y-36310D01*
X14690Y-36390D02*
X26184Y-36390D01*
X27439Y-36390D02*
X27581Y-36390D01*
X27820Y-36390D02*
X27960Y-36390D01*
X28439Y-36390D02*
X28581Y-36390D01*
X28820Y-36390D02*
X28960Y-36390D01*
X29439Y-36390D02*
X29581Y-36390D01*
X29820Y-36390D02*
X29960Y-36390D01*
X30439Y-36390D02*
X30581Y-36390D01*
X30820Y-36390D02*
X30960Y-36390D01*
X31439Y-36390D02*
X31581Y-36390D01*
X31820Y-36390D02*
X31960Y-36390D01*
X32439Y-36390D02*
X32581Y-36390D01*
X32820Y-36390D02*
X32960Y-36390D01*
X33439Y-36390D02*
X33581Y-36390D01*
X33820Y-36390D02*
X33960Y-36390D01*
X34439Y-36390D02*
X34581Y-36390D01*
X34820Y-36390D02*
X34960Y-36390D01*
X35439Y-36390D02*
X35581Y-36390D01*
X35820Y-36390D02*
X35960Y-36390D01*
X36203Y-36390D02*
X37755Y-36390D01*
X40744Y-36390D02*
X48010Y-36390D01*
X14690Y-36470D02*
X26217Y-36470D01*
X27181Y-36470D02*
X27223Y-36470D01*
X27359Y-36470D02*
X27501Y-36470D01*
X27900Y-36470D02*
X28040Y-36470D01*
X28175Y-36470D02*
X28223Y-36470D01*
X28359Y-36470D02*
X28501Y-36470D01*
X28900Y-36470D02*
X29040Y-36470D01*
X29175Y-36470D02*
X29223Y-36470D01*
X29359Y-36470D02*
X29501Y-36470D01*
X29900Y-36470D02*
X30040Y-36470D01*
X30175Y-36470D02*
X30223Y-36470D01*
X30359Y-36470D02*
X30501Y-36470D01*
X30900Y-36470D02*
X31040Y-36470D01*
X31175Y-36470D02*
X31223Y-36470D01*
X31359Y-36470D02*
X31501Y-36470D01*
X31900Y-36470D02*
X32040Y-36470D01*
X32175Y-36470D02*
X32223Y-36470D01*
X32359Y-36470D02*
X32501Y-36470D01*
X32900Y-36470D02*
X33040Y-36470D01*
X33175Y-36470D02*
X33223Y-36470D01*
X33359Y-36470D02*
X33501Y-36470D01*
X33900Y-36470D02*
X34040Y-36470D01*
X34175Y-36470D02*
X34223Y-36470D01*
X34359Y-36470D02*
X34501Y-36470D01*
X34900Y-36470D02*
X35040Y-36470D01*
X35175Y-36470D02*
X35223Y-36470D01*
X35359Y-36470D02*
X35501Y-36470D01*
X35900Y-36470D02*
X36040Y-36470D01*
X36175Y-36470D02*
X37794Y-36470D01*
X40706Y-36470D02*
X48010Y-36470D01*
X14690Y-36550D02*
X26274Y-36550D01*
X27126Y-36550D02*
X27421Y-36550D01*
X27980Y-36550D02*
X28421Y-36550D01*
X28980Y-36550D02*
X29421Y-36550D01*
X29980Y-36550D02*
X30421Y-36550D01*
X30980Y-36550D02*
X31421Y-36550D01*
X31980Y-36550D02*
X32421Y-36550D01*
X32980Y-36550D02*
X33421Y-36550D01*
X33980Y-36550D02*
X34421Y-36550D01*
X34980Y-36550D02*
X35421Y-36550D01*
X35980Y-36550D02*
X37874Y-36550D01*
X40626Y-36550D02*
X48010Y-36550D01*
X14690Y-36630D02*
X26354Y-36630D01*
X27046Y-36630D02*
X27406Y-36630D01*
X27993Y-36630D02*
X28406Y-36630D01*
X28993Y-36630D02*
X29406Y-36630D01*
X29993Y-36630D02*
X30406Y-36630D01*
X30993Y-36630D02*
X31406Y-36630D01*
X31993Y-36630D02*
X32406Y-36630D01*
X32993Y-36630D02*
X33406Y-36630D01*
X33993Y-36630D02*
X34406Y-36630D01*
X34993Y-36630D02*
X35406Y-36630D01*
X35993Y-36630D02*
X37831Y-36630D01*
X40524Y-36630D02*
X48010Y-36630D01*
X14690Y-36710D02*
X26238Y-36710D01*
X27162Y-36710D02*
X27449Y-36710D01*
X27951Y-36710D02*
X28449Y-36710D01*
X28951Y-36710D02*
X29449Y-36710D01*
X29951Y-36710D02*
X30449Y-36710D01*
X30951Y-36710D02*
X31449Y-36710D01*
X31951Y-36710D02*
X32449Y-36710D01*
X32951Y-36710D02*
X33449Y-36710D01*
X33951Y-36710D02*
X34449Y-36710D01*
X34951Y-36710D02*
X35449Y-36710D01*
X35951Y-36710D02*
X37739Y-36710D01*
X40586Y-36710D02*
X48010Y-36710D01*
X14690Y-36790D02*
X26177Y-36790D01*
X27224Y-36790D02*
X27334Y-36790D01*
X28066Y-36790D02*
X28334Y-36790D01*
X29066Y-36790D02*
X29334Y-36790D01*
X30066Y-36790D02*
X30334Y-36790D01*
X31066Y-36790D02*
X31334Y-36790D01*
X32066Y-36790D02*
X32334Y-36790D01*
X33066Y-36790D02*
X33334Y-36790D01*
X34066Y-36790D02*
X34334Y-36790D01*
X35066Y-36790D02*
X35334Y-36790D01*
X36066Y-36790D02*
X37706Y-36790D01*
X40666Y-36790D02*
X48010Y-36790D01*
X14690Y-36870D02*
X26151Y-36870D01*
X27249Y-36870D02*
X27254Y-36870D01*
X28146Y-36870D02*
X28254Y-36870D01*
X29146Y-36870D02*
X29254Y-36870D01*
X30146Y-36870D02*
X30254Y-36870D01*
X31146Y-36870D02*
X31254Y-36870D01*
X32146Y-36870D02*
X32254Y-36870D01*
X33146Y-36870D02*
X33254Y-36870D01*
X34146Y-36870D02*
X34254Y-36870D01*
X35146Y-36870D02*
X35254Y-36870D01*
X36146Y-36870D02*
X37701Y-36870D01*
X40728Y-36870D02*
X48010Y-36870D01*
X14690Y-36950D02*
X26151Y-36950D01*
X28191Y-36950D02*
X28210Y-36950D01*
X29191Y-36950D02*
X29210Y-36950D01*
X30191Y-36950D02*
X30210Y-36950D01*
X31191Y-36950D02*
X31210Y-36950D01*
X32191Y-36950D02*
X32210Y-36950D01*
X33191Y-36950D02*
X33210Y-36950D01*
X34191Y-36950D02*
X34210Y-36950D01*
X35191Y-36950D02*
X35210Y-36950D01*
X36191Y-36950D02*
X37701Y-36950D01*
X40762Y-36950D02*
X48010Y-36950D01*
X14690Y-37030D02*
X26151Y-37030D01*
X36224Y-37030D02*
X37701Y-37030D01*
X40795Y-37030D02*
X48010Y-37030D01*
X14690Y-37110D02*
X26151Y-37110D01*
X36249Y-37110D02*
X38300Y-37110D01*
X40799Y-37110D02*
X48010Y-37110D01*
X14690Y-37190D02*
X26151Y-37190D01*
X36249Y-37190D02*
X38300Y-37190D01*
X40799Y-37190D02*
X48010Y-37190D01*
X14690Y-37270D02*
X26151Y-37270D01*
X36249Y-37270D02*
X37700Y-37270D01*
X38200Y-37270D02*
X38300Y-37270D01*
X40794Y-37270D02*
X48010Y-37270D01*
X14690Y-37350D02*
X26151Y-37350D01*
X36231Y-37350D02*
X37700Y-37350D01*
X38200Y-37350D02*
X38300Y-37350D01*
X40761Y-37350D02*
X48010Y-37350D01*
X14690Y-37430D02*
X26151Y-37430D01*
X28198Y-37430D02*
X28201Y-37430D01*
X35198Y-37430D02*
X35201Y-37430D01*
X36198Y-37430D02*
X37701Y-37430D01*
X38200Y-37430D02*
X38300Y-37430D01*
X40727Y-37430D02*
X48010Y-37430D01*
X14690Y-37510D02*
X26151Y-37510D01*
X28165Y-37510D02*
X28234Y-37510D01*
X35165Y-37510D02*
X35234Y-37510D01*
X36165Y-37510D02*
X37705Y-37510D01*
X38200Y-37510D02*
X38300Y-37510D01*
X40666Y-37510D02*
X48010Y-37510D01*
X14690Y-37590D02*
X26167Y-37590D01*
X27232Y-37590D02*
X27314Y-37590D01*
X28086Y-37590D02*
X28314Y-37590D01*
X35086Y-37590D02*
X35314Y-37590D01*
X36086Y-37590D02*
X37738Y-37590D01*
X38200Y-37590D02*
X38300Y-37590D01*
X40586Y-37590D02*
X48010Y-37590D01*
X14690Y-37670D02*
X26218Y-37670D01*
X27182Y-37670D02*
X27401Y-37670D01*
X27998Y-37670D02*
X28402Y-37670D01*
X34998Y-37670D02*
X35401Y-37670D01*
X35998Y-37670D02*
X37830Y-37670D01*
X38168Y-37670D02*
X38318Y-37670D01*
X40540Y-37670D02*
X48010Y-37670D01*
X14690Y-37750D02*
X28410Y-37750D01*
X34661Y-37750D02*
X38238Y-37750D01*
X40540Y-37750D02*
X48010Y-37750D01*
X14690Y-37830D02*
X28410Y-37830D01*
X34741Y-37830D02*
X38158Y-37830D01*
X40540Y-37830D02*
X48010Y-37830D01*
X14690Y-37910D02*
X28410Y-37910D01*
X34821Y-37910D02*
X38079Y-37910D01*
X40540Y-37910D02*
X48010Y-37910D01*
X14690Y-37990D02*
X28410Y-37990D01*
X34901Y-37990D02*
X37999Y-37990D01*
X40540Y-37990D02*
X48010Y-37990D01*
X14690Y-38070D02*
X28410Y-38070D01*
X34981Y-38070D02*
X37919Y-38070D01*
X40535Y-38070D02*
X48010Y-38070D01*
X14690Y-38150D02*
X28410Y-38150D01*
X35061Y-38150D02*
X37839Y-38150D01*
X40519Y-38150D02*
X48010Y-38150D01*
X14690Y-38230D02*
X28410Y-38230D01*
X35141Y-38230D02*
X37759Y-38230D01*
X40470Y-38230D02*
X43869Y-38230D01*
X44171Y-38230D02*
X46231Y-38230D01*
X46533Y-38230D02*
X48010Y-38230D01*
X14690Y-38310D02*
X28410Y-38310D01*
X35221Y-38310D02*
X37679Y-38310D01*
X40398Y-38310D02*
X43729Y-38310D01*
X44310Y-38310D02*
X46091Y-38310D01*
X46672Y-38310D02*
X48010Y-38310D01*
X14690Y-38390D02*
X28410Y-38390D01*
X35301Y-38390D02*
X37599Y-38390D01*
X40318Y-38390D02*
X43649Y-38390D01*
X44390Y-38390D02*
X46011Y-38390D01*
X46752Y-38390D02*
X48010Y-38390D01*
X14690Y-38470D02*
X28410Y-38470D01*
X35381Y-38470D02*
X37519Y-38470D01*
X40238Y-38470D02*
X43611Y-38470D01*
X44427Y-38470D02*
X45973Y-38470D01*
X46789Y-38470D02*
X48010Y-38470D01*
X14690Y-38550D02*
X28410Y-38550D01*
X35461Y-38550D02*
X37439Y-38550D01*
X40158Y-38550D02*
X43578Y-38550D01*
X44461Y-38550D02*
X45940Y-38550D01*
X46823Y-38550D02*
X48010Y-38550D01*
X14690Y-38630D02*
X28410Y-38630D01*
X35541Y-38630D02*
X37359Y-38630D01*
X40078Y-38630D02*
X43573Y-38630D01*
X44465Y-38630D02*
X45935Y-38630D01*
X46827Y-38630D02*
X48010Y-38630D01*
X14690Y-38710D02*
X28410Y-38710D01*
X35621Y-38710D02*
X37279Y-38710D01*
X39998Y-38710D02*
X43573Y-38710D01*
X44465Y-38710D02*
X45935Y-38710D01*
X46827Y-38710D02*
X48010Y-38710D01*
X14690Y-38790D02*
X28410Y-38790D01*
X35701Y-38790D02*
X37199Y-38790D01*
X39918Y-38790D02*
X43594Y-38790D01*
X44443Y-38790D02*
X45956Y-38790D01*
X46805Y-38790D02*
X48010Y-38790D01*
X14690Y-38870D02*
X28410Y-38870D01*
X35781Y-38870D02*
X37119Y-38870D01*
X39838Y-38870D02*
X43627Y-38870D01*
X44410Y-38870D02*
X45989Y-38870D01*
X46772Y-38870D02*
X48010Y-38870D01*
X14690Y-38950D02*
X28410Y-38950D01*
X35861Y-38950D02*
X37039Y-38950D01*
X39758Y-38950D02*
X43688Y-38950D01*
X44349Y-38950D02*
X46050Y-38950D01*
X46711Y-38950D02*
X48010Y-38950D01*
X14690Y-39030D02*
X28410Y-39030D01*
X35941Y-39030D02*
X36959Y-39030D01*
X39678Y-39030D02*
X43770Y-39030D01*
X44266Y-39030D02*
X46132Y-39030D01*
X46628Y-39030D02*
X48010Y-39030D01*
X14690Y-39110D02*
X28410Y-39110D01*
X36021Y-39110D02*
X36879Y-39110D01*
X39598Y-39110D02*
X48010Y-39110D01*
X14690Y-39190D02*
X28410Y-39190D01*
X36101Y-39190D02*
X36799Y-39190D01*
X39842Y-39190D02*
X40198Y-39190D01*
X40603Y-39190D02*
X48010Y-39190D01*
X14690Y-39270D02*
X28410Y-39270D01*
X39916Y-39270D02*
X40054Y-39270D01*
X40746Y-39270D02*
X48010Y-39270D01*
X14690Y-39350D02*
X28410Y-39350D01*
X39949Y-39350D02*
X39974Y-39350D01*
X40826Y-39350D02*
X48010Y-39350D01*
X14690Y-39430D02*
X28410Y-39430D01*
X40883Y-39430D02*
X48010Y-39430D01*
X14690Y-39510D02*
X28410Y-39510D01*
X40916Y-39510D02*
X48010Y-39510D01*
X14690Y-39590D02*
X28410Y-39590D01*
X40949Y-39590D02*
X48010Y-39590D01*
X14690Y-39670D02*
X28410Y-39670D01*
X40949Y-39670D02*
X48010Y-39670D01*
X14690Y-39750D02*
X28410Y-39750D01*
X40949Y-39750D02*
X48010Y-39750D01*
X14690Y-39830D02*
X28410Y-39830D01*
X40940Y-39830D02*
X48010Y-39830D01*
X14690Y-39910D02*
X28410Y-39910D01*
X40907Y-39910D02*
X48010Y-39910D01*
X14690Y-39990D02*
X28410Y-39990D01*
X40873Y-39990D02*
X48010Y-39990D01*
X14690Y-40070D02*
X28410Y-40070D01*
X39940Y-40070D02*
X39994Y-40070D01*
X40806Y-40070D02*
X48010Y-40070D01*
X14690Y-40150D02*
X28418Y-40150D01*
X39902Y-40150D02*
X40074Y-40150D01*
X40726Y-40150D02*
X48010Y-40150D01*
X14690Y-40230D02*
X28440Y-40230D01*
X39795Y-40230D02*
X40245Y-40230D01*
X40554Y-40230D02*
X48010Y-40230D01*
X14690Y-40310D02*
X21903Y-40310D01*
X39630Y-40310D02*
X48010Y-40310D01*
X14690Y-40390D02*
X21592Y-40390D01*
X39563Y-40390D02*
X48010Y-40390D01*
X14690Y-40470D02*
X21484Y-40470D01*
X39483Y-40470D02*
X48010Y-40470D01*
X14690Y-40550D02*
X21417Y-40550D01*
X39403Y-40550D02*
X48010Y-40550D01*
X14690Y-40630D02*
X21383Y-40630D01*
X39323Y-40630D02*
X48010Y-40630D01*
X14690Y-40710D02*
X21360Y-40710D01*
X39243Y-40710D02*
X48010Y-40710D01*
X14690Y-40790D02*
X21360Y-40790D01*
X39163Y-40790D02*
X48010Y-40790D01*
X14690Y-40870D02*
X21366Y-40870D01*
X39083Y-40870D02*
X48010Y-40870D01*
X14690Y-40950D02*
X21399Y-40950D01*
X22170Y-40950D02*
X22237Y-40950D01*
X39003Y-40950D02*
X48010Y-40950D01*
X14690Y-41030D02*
X21444Y-41030D01*
X22126Y-41030D02*
X22157Y-41030D01*
X38923Y-41030D02*
X48010Y-41030D01*
X14690Y-41110D02*
X21524Y-41110D01*
X22046Y-41110D02*
X22077Y-41110D01*
X38843Y-41110D02*
X48010Y-41110D01*
X14690Y-41190D02*
X21688Y-41190D01*
X21881Y-41190D02*
X21997Y-41190D01*
X38763Y-41190D02*
X48010Y-41190D01*
X14690Y-41270D02*
X21917Y-41270D01*
X38683Y-41270D02*
X48010Y-41270D01*
X14690Y-41350D02*
X21837Y-41350D01*
X38603Y-41350D02*
X48010Y-41350D01*
X14690Y-41430D02*
X21626Y-41430D01*
X38523Y-41430D02*
X48010Y-41430D01*
X14690Y-41510D02*
X21487Y-41510D01*
X38443Y-41510D02*
X48010Y-41510D01*
X14690Y-41590D02*
X21407Y-41590D01*
X38363Y-41590D02*
X48010Y-41590D01*
X14690Y-41670D02*
X21374Y-41670D01*
X38283Y-41670D02*
X48010Y-41670D01*
X14690Y-41750D02*
X21341Y-41750D01*
X38203Y-41750D02*
X48010Y-41750D01*
X14690Y-41830D02*
X17387Y-41830D01*
X17877Y-41830D02*
X21341Y-41830D01*
X38123Y-41830D02*
X48010Y-41830D01*
X14690Y-41910D02*
X17307Y-41910D01*
X17957Y-41910D02*
X21341Y-41910D01*
X38043Y-41910D02*
X48010Y-41910D01*
X14690Y-41990D02*
X17254Y-41990D01*
X18012Y-41990D02*
X21371Y-41990D01*
X37963Y-41990D02*
X48010Y-41990D01*
X14690Y-42070D02*
X17220Y-42070D01*
X18044Y-42070D02*
X21404Y-42070D01*
X22127Y-42070D02*
X22177Y-42070D01*
X37883Y-42070D02*
X48010Y-42070D01*
X14690Y-42150D02*
X17207Y-42150D01*
X18057Y-42150D02*
X21483Y-42150D01*
X22049Y-42150D02*
X22249Y-42150D01*
X37803Y-42150D02*
X48010Y-42150D01*
X14690Y-42230D02*
X17207Y-42230D01*
X18086Y-42230D02*
X21616Y-42230D01*
X21915Y-42230D02*
X22365Y-42230D01*
X37753Y-42230D02*
X48010Y-42230D01*
X14690Y-42310D02*
X17223Y-42310D01*
X18166Y-42310D02*
X22741Y-42310D01*
X37753Y-42310D02*
X48010Y-42310D01*
X14690Y-42390D02*
X17256Y-42390D01*
X18246Y-42390D02*
X22872Y-42390D01*
X37753Y-42390D02*
X48010Y-42390D01*
X14690Y-42470D02*
X17315Y-42470D01*
X18326Y-42470D02*
X23092Y-42470D01*
X37753Y-42470D02*
X48010Y-42470D01*
X14690Y-42550D02*
X17400Y-42550D01*
X18406Y-42550D02*
X23172Y-42550D01*
X37753Y-42550D02*
X48010Y-42550D01*
X14690Y-42630D02*
X17665Y-42630D01*
X18486Y-42630D02*
X23252Y-42630D01*
X37753Y-42630D02*
X48010Y-42630D01*
X14690Y-42710D02*
X17745Y-42710D01*
X18566Y-42710D02*
X23332Y-42710D01*
X37753Y-42710D02*
X48010Y-42710D01*
X14690Y-42790D02*
X17825Y-42790D01*
X18646Y-42790D02*
X23412Y-42790D01*
X37753Y-42790D02*
X48010Y-42790D01*
X14690Y-42870D02*
X17905Y-42870D01*
X18726Y-42870D02*
X23492Y-42870D01*
X37753Y-42870D02*
X48010Y-42870D01*
X14690Y-42950D02*
X17985Y-42950D01*
X18806Y-42950D02*
X23572Y-42950D01*
X37753Y-42950D02*
X48010Y-42950D01*
X14690Y-43030D02*
X18065Y-43030D01*
X18886Y-43030D02*
X23652Y-43030D01*
X37753Y-43030D02*
X48010Y-43030D01*
X14690Y-43110D02*
X18145Y-43110D01*
X18966Y-43110D02*
X23732Y-43110D01*
X37753Y-43110D02*
X48010Y-43110D01*
X14690Y-43190D02*
X18225Y-43190D01*
X19046Y-43190D02*
X23812Y-43190D01*
X37753Y-43190D02*
X48010Y-43190D01*
X14690Y-43270D02*
X18305Y-43270D01*
X19126Y-43270D02*
X23892Y-43270D01*
X37753Y-43270D02*
X48010Y-43270D01*
X14690Y-43350D02*
X18385Y-43350D01*
X19206Y-43350D02*
X23972Y-43350D01*
X37753Y-43350D02*
X48010Y-43350D01*
X14690Y-43430D02*
X18465Y-43430D01*
X19286Y-43430D02*
X24052Y-43430D01*
X37753Y-43430D02*
X48010Y-43430D01*
X14690Y-43510D02*
X18545Y-43510D01*
X19366Y-43510D02*
X20637Y-43510D01*
X20830Y-43510D02*
X22731Y-43510D01*
X22929Y-43510D02*
X24132Y-43510D01*
X37753Y-43510D02*
X48010Y-43510D01*
X14690Y-43590D02*
X18625Y-43590D01*
X19446Y-43590D02*
X20472Y-43590D01*
X20994Y-43590D02*
X22567Y-43590D01*
X23091Y-43590D02*
X24212Y-43590D01*
X37753Y-43590D02*
X48010Y-43590D01*
X14690Y-43670D02*
X18705Y-43670D01*
X21074Y-43670D02*
X22487Y-43670D01*
X23171Y-43670D02*
X24292Y-43670D01*
X37753Y-43670D02*
X48010Y-43670D01*
X14690Y-43750D02*
X18785Y-43750D01*
X21119Y-43750D02*
X22444Y-43750D01*
X23216Y-43750D02*
X24372Y-43750D01*
X37753Y-43750D02*
X48010Y-43750D01*
X14690Y-43830D02*
X18865Y-43830D01*
X21152Y-43830D02*
X22410Y-43830D01*
X23248Y-43830D02*
X24452Y-43830D01*
X37753Y-43830D02*
X48010Y-43830D01*
X14690Y-43910D02*
X18945Y-43910D01*
X21158Y-43910D02*
X22404Y-43910D01*
X23254Y-43910D02*
X24532Y-43910D01*
X37753Y-43910D02*
X48010Y-43910D01*
X14690Y-43990D02*
X19025Y-43990D01*
X21204Y-43990D02*
X22404Y-43990D01*
X23300Y-43990D02*
X24612Y-43990D01*
X37753Y-43990D02*
X48010Y-43990D01*
X14690Y-44070D02*
X19105Y-44070D01*
X21284Y-44070D02*
X22427Y-44070D01*
X23380Y-44070D02*
X24692Y-44070D01*
X37753Y-44070D02*
X48010Y-44070D01*
X14690Y-44150D02*
X19192Y-44150D01*
X21364Y-44150D02*
X22460Y-44150D01*
X23460Y-44150D02*
X24772Y-44150D01*
X37753Y-44150D02*
X48010Y-44150D01*
X14690Y-44230D02*
X20432Y-44230D01*
X21444Y-44230D02*
X22529Y-44230D01*
X23540Y-44230D02*
X24852Y-44230D01*
X37753Y-44230D02*
X48010Y-44230D01*
X14690Y-44310D02*
X20540Y-44310D01*
X21524Y-44310D02*
X22638Y-44310D01*
X23620Y-44310D02*
X24932Y-44310D01*
X37753Y-44310D02*
X48010Y-44310D01*
X14690Y-44390D02*
X20782Y-44390D01*
X21604Y-44390D02*
X22879Y-44390D01*
X23700Y-44390D02*
X25012Y-44390D01*
X37753Y-44390D02*
X48010Y-44390D01*
X14690Y-44470D02*
X20862Y-44470D01*
X21684Y-44470D02*
X22959Y-44470D01*
X23780Y-44470D02*
X25092Y-44470D01*
X37753Y-44470D02*
X48010Y-44470D01*
X14690Y-44550D02*
X20942Y-44550D01*
X21764Y-44550D02*
X23039Y-44550D01*
X23860Y-44550D02*
X25172Y-44550D01*
X37753Y-44550D02*
X48010Y-44550D01*
X14690Y-44630D02*
X21022Y-44630D01*
X21844Y-44630D02*
X23119Y-44630D01*
X23940Y-44630D02*
X25252Y-44630D01*
X37753Y-44630D02*
X48010Y-44630D01*
X14690Y-44710D02*
X21102Y-44710D01*
X21924Y-44710D02*
X23199Y-44710D01*
X24020Y-44710D02*
X25332Y-44710D01*
X37753Y-44710D02*
X48010Y-44710D01*
X14690Y-44790D02*
X21182Y-44790D01*
X22004Y-44790D02*
X23279Y-44790D01*
X24100Y-44790D02*
X25412Y-44790D01*
X37753Y-44790D02*
X48010Y-44790D01*
X14690Y-44870D02*
X21262Y-44870D01*
X22084Y-44870D02*
X23359Y-44870D01*
X24180Y-44870D02*
X25492Y-44870D01*
X37753Y-44870D02*
X48010Y-44870D01*
X14690Y-44950D02*
X21342Y-44950D01*
X22164Y-44950D02*
X23439Y-44950D01*
X24260Y-44950D02*
X25572Y-44950D01*
X37753Y-44950D02*
X48010Y-44950D01*
X14690Y-45030D02*
X21422Y-45030D01*
X22244Y-45030D02*
X23519Y-45030D01*
X24340Y-45030D02*
X25652Y-45030D01*
X37753Y-45030D02*
X48010Y-45030D01*
X14690Y-45110D02*
X21502Y-45110D01*
X22324Y-45110D02*
X23599Y-45110D01*
X24420Y-45110D02*
X25732Y-45110D01*
X37753Y-45110D02*
X48010Y-45110D01*
X14690Y-45190D02*
X21582Y-45190D01*
X22404Y-45190D02*
X23679Y-45190D01*
X24500Y-45190D02*
X25812Y-45190D01*
X37753Y-45190D02*
X48010Y-45190D01*
X14690Y-45270D02*
X21662Y-45270D01*
X22484Y-45270D02*
X23759Y-45270D01*
X24580Y-45270D02*
X25892Y-45270D01*
X37753Y-45270D02*
X48010Y-45270D01*
X14690Y-45350D02*
X21742Y-45350D01*
X22564Y-45350D02*
X23839Y-45350D01*
X24660Y-45350D02*
X25972Y-45350D01*
X37753Y-45350D02*
X48010Y-45350D01*
X14690Y-45430D02*
X21822Y-45430D01*
X22644Y-45430D02*
X23919Y-45430D01*
X24740Y-45430D02*
X26052Y-45430D01*
X37753Y-45430D02*
X48010Y-45430D01*
X14690Y-45510D02*
X21902Y-45510D01*
X22724Y-45510D02*
X23999Y-45510D01*
X24820Y-45510D02*
X26132Y-45510D01*
X37753Y-45510D02*
X48010Y-45510D01*
X14690Y-45590D02*
X21982Y-45590D01*
X22804Y-45590D02*
X24079Y-45590D01*
X24900Y-45590D02*
X26212Y-45590D01*
X37753Y-45590D02*
X48010Y-45590D01*
X14690Y-45670D02*
X22062Y-45670D01*
X22884Y-45670D02*
X24159Y-45670D01*
X24980Y-45670D02*
X26292Y-45670D01*
X37753Y-45670D02*
X48010Y-45670D01*
X14690Y-45750D02*
X22142Y-45750D01*
X22964Y-45750D02*
X24239Y-45750D01*
X25060Y-45750D02*
X26372Y-45750D01*
X37753Y-45750D02*
X48010Y-45750D01*
X14690Y-45830D02*
X22222Y-45830D01*
X23044Y-45830D02*
X24319Y-45830D01*
X25140Y-45830D02*
X26452Y-45830D01*
X37753Y-45830D02*
X48010Y-45830D01*
X14690Y-45910D02*
X22302Y-45910D01*
X23124Y-45910D02*
X24399Y-45910D01*
X25220Y-45910D02*
X26532Y-45910D01*
X37753Y-45910D02*
X48010Y-45910D01*
X14690Y-45990D02*
X22382Y-45990D01*
X23204Y-45990D02*
X24479Y-45990D01*
X25300Y-45990D02*
X26612Y-45990D01*
X37753Y-45990D02*
X48010Y-45990D01*
X14690Y-46070D02*
X22462Y-46070D01*
X23284Y-46070D02*
X24559Y-46070D01*
X25380Y-46070D02*
X26692Y-46070D01*
X37753Y-46070D02*
X48010Y-46070D01*
X14690Y-46150D02*
X22542Y-46150D01*
X23364Y-46150D02*
X24639Y-46150D01*
X25460Y-46150D02*
X26772Y-46150D01*
X37753Y-46150D02*
X48010Y-46150D01*
X14690Y-46230D02*
X22622Y-46230D01*
X23444Y-46230D02*
X24719Y-46230D01*
X25540Y-46230D02*
X26852Y-46230D01*
X37753Y-46230D02*
X48010Y-46230D01*
X14690Y-46310D02*
X22702Y-46310D01*
X23524Y-46310D02*
X24799Y-46310D01*
X25620Y-46310D02*
X26932Y-46310D01*
X37753Y-46310D02*
X48010Y-46310D01*
X14690Y-46390D02*
X22782Y-46390D01*
X23604Y-46390D02*
X24879Y-46390D01*
X25700Y-46390D02*
X27012Y-46390D01*
X37753Y-46390D02*
X48010Y-46390D01*
X14690Y-46470D02*
X22862Y-46470D01*
X23684Y-46470D02*
X24959Y-46470D01*
X25780Y-46470D02*
X27092Y-46470D01*
X37753Y-46470D02*
X48010Y-46470D01*
X14690Y-46550D02*
X22942Y-46550D01*
X23764Y-46550D02*
X25039Y-46550D01*
X25860Y-46550D02*
X27172Y-46550D01*
X37753Y-46550D02*
X48010Y-46550D01*
X14690Y-46630D02*
X23022Y-46630D01*
X23844Y-46630D02*
X25119Y-46630D01*
X25940Y-46630D02*
X27252Y-46630D01*
X37753Y-46630D02*
X48010Y-46630D01*
X14690Y-46710D02*
X23102Y-46710D01*
X23924Y-46710D02*
X25199Y-46710D01*
X26020Y-46710D02*
X27332Y-46710D01*
X37753Y-46710D02*
X48010Y-46710D01*
X14690Y-46790D02*
X23182Y-46790D01*
X24004Y-46790D02*
X25279Y-46790D01*
X26100Y-46790D02*
X27412Y-46790D01*
X37827Y-46790D02*
X48010Y-46790D01*
X14690Y-46870D02*
X23262Y-46870D01*
X24084Y-46870D02*
X25359Y-46870D01*
X26180Y-46870D02*
X27492Y-46870D01*
X37859Y-46870D02*
X48010Y-46870D01*
X14690Y-46950D02*
X23342Y-46950D01*
X24164Y-46950D02*
X25439Y-46950D01*
X26260Y-46950D02*
X27572Y-46950D01*
X37888Y-46950D02*
X48010Y-46950D01*
X14690Y-47030D02*
X23422Y-47030D01*
X24244Y-47030D02*
X25519Y-47030D01*
X26340Y-47030D02*
X27652Y-47030D01*
X37888Y-47030D02*
X48010Y-47030D01*
X14690Y-47110D02*
X23502Y-47110D01*
X24324Y-47110D02*
X25599Y-47110D01*
X26420Y-47110D02*
X27732Y-47110D01*
X37888Y-47110D02*
X48010Y-47110D01*
X14690Y-47190D02*
X23582Y-47190D01*
X24404Y-47190D02*
X25679Y-47190D01*
X26500Y-47190D02*
X27839Y-47190D01*
X37854Y-47190D02*
X48010Y-47190D01*
X14690Y-47270D02*
X23662Y-47270D01*
X24484Y-47270D02*
X25759Y-47270D01*
X26580Y-47270D02*
X28908Y-47270D01*
X37819Y-47270D02*
X48010Y-47270D01*
X14690Y-47350D02*
X23742Y-47350D01*
X24564Y-47350D02*
X25839Y-47350D01*
X26660Y-47350D02*
X28988Y-47350D01*
X37739Y-47350D02*
X48010Y-47350D01*
X14690Y-47430D02*
X23822Y-47430D01*
X24644Y-47430D02*
X25919Y-47430D01*
X26740Y-47430D02*
X28647Y-47430D01*
X37595Y-47430D02*
X48010Y-47430D01*
X14690Y-47510D02*
X23902Y-47510D01*
X24724Y-47510D02*
X25999Y-47510D01*
X26820Y-47510D02*
X28542Y-47510D01*
X37434Y-47510D02*
X48010Y-47510D01*
X14690Y-47590D02*
X23982Y-47590D01*
X24804Y-47590D02*
X26079Y-47590D01*
X26900Y-47590D02*
X28476Y-47590D01*
X37434Y-47590D02*
X48010Y-47590D01*
X14690Y-47670D02*
X24062Y-47670D01*
X24884Y-47670D02*
X26159Y-47670D01*
X26980Y-47670D02*
X28443Y-47670D01*
X37434Y-47670D02*
X48010Y-47670D01*
X14690Y-47750D02*
X24142Y-47750D01*
X24964Y-47750D02*
X26239Y-47750D01*
X27060Y-47750D02*
X28420Y-47750D01*
X37434Y-47750D02*
X48010Y-47750D01*
X14690Y-47830D02*
X24222Y-47830D01*
X25044Y-47830D02*
X26319Y-47830D01*
X27165Y-47830D02*
X28420Y-47830D01*
X37434Y-47830D02*
X48010Y-47830D01*
X14690Y-47910D02*
X24302Y-47910D01*
X25124Y-47910D02*
X26399Y-47910D01*
X27281Y-47910D02*
X28427Y-47910D01*
X37434Y-47910D02*
X48010Y-47910D01*
X14690Y-47990D02*
X24382Y-47990D01*
X25204Y-47990D02*
X26479Y-47990D01*
X27353Y-47990D02*
X28460Y-47990D01*
X37434Y-47990D02*
X48010Y-47990D01*
X14690Y-48070D02*
X24462Y-48070D01*
X25284Y-48070D02*
X26559Y-48070D01*
X27386Y-48070D02*
X28506Y-48070D01*
X37434Y-48070D02*
X48010Y-48070D01*
X14690Y-48150D02*
X24542Y-48150D01*
X25364Y-48150D02*
X26561Y-48150D01*
X27411Y-48150D02*
X28555Y-48150D01*
X37434Y-48150D02*
X48010Y-48150D01*
X14690Y-48230D02*
X24622Y-48230D01*
X25444Y-48230D02*
X26561Y-48230D01*
X27411Y-48230D02*
X28555Y-48230D01*
X37434Y-48230D02*
X48010Y-48230D01*
X14690Y-48310D02*
X24702Y-48310D01*
X25524Y-48310D02*
X26565Y-48310D01*
X27407Y-48310D02*
X28555Y-48310D01*
X37434Y-48310D02*
X48010Y-48310D01*
X14690Y-48390D02*
X24782Y-48390D01*
X25604Y-48390D02*
X26597Y-48390D01*
X27373Y-48390D02*
X28555Y-48390D01*
X37431Y-48390D02*
X48010Y-48390D01*
X14690Y-48470D02*
X24862Y-48470D01*
X25684Y-48470D02*
X26639Y-48470D01*
X27333Y-48470D02*
X28555Y-48470D01*
X37415Y-48470D02*
X48010Y-48470D01*
X14690Y-48550D02*
X24942Y-48550D01*
X25764Y-48550D02*
X26719Y-48550D01*
X27253Y-48550D02*
X28555Y-48550D01*
X37370Y-48550D02*
X48010Y-48550D01*
X14690Y-48630D02*
X25022Y-48630D01*
X25844Y-48630D02*
X26874Y-48630D01*
X27096Y-48630D02*
X28555Y-48630D01*
X37301Y-48630D02*
X48010Y-48630D01*
X14690Y-48710D02*
X25102Y-48710D01*
X25924Y-48710D02*
X28555Y-48710D01*
X37221Y-48710D02*
X48010Y-48710D01*
X14690Y-48790D02*
X25182Y-48790D01*
X26004Y-48790D02*
X27019Y-48790D01*
X27415Y-48790D02*
X28555Y-48790D01*
X37141Y-48790D02*
X48010Y-48790D01*
X14690Y-48870D02*
X25262Y-48870D01*
X26084Y-48870D02*
X26914Y-48870D01*
X27520Y-48870D02*
X28555Y-48870D01*
X37061Y-48870D02*
X48010Y-48870D01*
X14690Y-48950D02*
X25342Y-48950D01*
X27588Y-48950D02*
X28555Y-48950D01*
X36981Y-48950D02*
X48010Y-48950D01*
X14690Y-49030D02*
X25422Y-49030D01*
X27620Y-49030D02*
X28555Y-49030D01*
X36964Y-49030D02*
X48010Y-49030D01*
X14690Y-49110D02*
X25502Y-49110D01*
X27642Y-49110D02*
X28555Y-49110D01*
X36946Y-49110D02*
X48010Y-49110D01*
X14690Y-49190D02*
X25582Y-49190D01*
X27642Y-49190D02*
X28555Y-49190D01*
X36912Y-49190D02*
X48010Y-49190D01*
X14690Y-49270D02*
X25662Y-49270D01*
X27634Y-49270D02*
X28555Y-49270D01*
X36206Y-49270D02*
X36226Y-49270D01*
X36852Y-49270D02*
X48010Y-49270D01*
X14690Y-49350D02*
X25742Y-49350D01*
X27601Y-49350D02*
X28555Y-49350D01*
X36126Y-49350D02*
X36317Y-49350D01*
X36761Y-49350D02*
X48010Y-49350D01*
X14690Y-49430D02*
X25850Y-49430D01*
X27556Y-49430D02*
X28555Y-49430D01*
X36046Y-49430D02*
X48010Y-49430D01*
X14690Y-49510D02*
X26958Y-49510D01*
X27476Y-49510D02*
X28555Y-49510D01*
X35967Y-49510D02*
X48010Y-49510D01*
X14690Y-49590D02*
X27124Y-49590D01*
X27308Y-49590D02*
X28555Y-49590D01*
X35887Y-49590D02*
X48010Y-49590D01*
X14690Y-49670D02*
X28555Y-49670D01*
X35875Y-49670D02*
X48010Y-49670D01*
X14690Y-49750D02*
X28555Y-49750D01*
X35855Y-49750D02*
X48010Y-49750D01*
X14690Y-49830D02*
X28555Y-49830D01*
X35822Y-49830D02*
X48010Y-49830D01*
X14690Y-49910D02*
X28555Y-49910D01*
X35759Y-49910D02*
X48010Y-49910D01*
X14690Y-49990D02*
X28555Y-49990D01*
X29455Y-49990D02*
X29576Y-49990D01*
X35663Y-49990D02*
X48010Y-49990D01*
X14690Y-50070D02*
X28555Y-50070D01*
X29455Y-50070D02*
X29656Y-50070D01*
X35421Y-50070D02*
X48010Y-50070D01*
X14690Y-50150D02*
X28555Y-50150D01*
X29455Y-50150D02*
X29736Y-50150D01*
X35421Y-50150D02*
X48010Y-50150D01*
X14690Y-50230D02*
X28555Y-50230D01*
X29455Y-50230D02*
X29816Y-50230D01*
X35421Y-50230D02*
X48010Y-50230D01*
X14690Y-50310D02*
X28555Y-50310D01*
X29455Y-50310D02*
X29896Y-50310D01*
X35421Y-50310D02*
X48010Y-50310D01*
X14690Y-50390D02*
X28555Y-50390D01*
X29455Y-50390D02*
X29976Y-50390D01*
X35421Y-50390D02*
X48010Y-50390D01*
X14690Y-50470D02*
X28555Y-50470D01*
X29455Y-50470D02*
X30056Y-50470D01*
X35421Y-50470D02*
X48010Y-50470D01*
X14690Y-50550D02*
X28555Y-50550D01*
X29455Y-50550D02*
X30136Y-50550D01*
X35421Y-50550D02*
X48010Y-50550D01*
X14690Y-50630D02*
X28555Y-50630D01*
X29455Y-50630D02*
X30216Y-50630D01*
X35421Y-50630D02*
X48010Y-50630D01*
X14690Y-50710D02*
X28555Y-50710D01*
X29455Y-50710D02*
X30296Y-50710D01*
X35421Y-50710D02*
X48010Y-50710D01*
X14690Y-50790D02*
X28555Y-50790D01*
X29455Y-50790D02*
X30376Y-50790D01*
X35421Y-50790D02*
X48010Y-50790D01*
X14690Y-50870D02*
X28555Y-50870D01*
X29455Y-50870D02*
X30456Y-50870D01*
X35421Y-50870D02*
X48010Y-50870D01*
X14690Y-50950D02*
X28555Y-50950D01*
X29455Y-50950D02*
X30536Y-50950D01*
X35421Y-50950D02*
X48010Y-50950D01*
X14690Y-51030D02*
X28555Y-51030D01*
X29455Y-51030D02*
X30616Y-51030D01*
X35421Y-51030D02*
X48010Y-51030D01*
X14690Y-51110D02*
X28555Y-51110D01*
X29455Y-51110D02*
X30696Y-51110D01*
X35421Y-51110D02*
X48010Y-51110D01*
X14690Y-51190D02*
X28555Y-51190D01*
X29455Y-51190D02*
X30776Y-51190D01*
X35421Y-51190D02*
X48010Y-51190D01*
X14690Y-51270D02*
X28555Y-51270D01*
X29455Y-51270D02*
X30856Y-51270D01*
X35421Y-51270D02*
X48010Y-51270D01*
X14690Y-51350D02*
X28555Y-51350D01*
X29455Y-51350D02*
X30936Y-51350D01*
X35421Y-51350D02*
X48010Y-51350D01*
X14690Y-51430D02*
X28555Y-51430D01*
X29455Y-51430D02*
X31016Y-51430D01*
X35421Y-51430D02*
X48010Y-51430D01*
X14690Y-51510D02*
X28555Y-51510D01*
X29455Y-51510D02*
X31096Y-51510D01*
X35421Y-51510D02*
X48010Y-51510D01*
X14690Y-51590D02*
X28555Y-51590D01*
X29455Y-51590D02*
X31176Y-51590D01*
X35421Y-51590D02*
X48010Y-51590D01*
X14690Y-51670D02*
X28555Y-51670D01*
X29455Y-51670D02*
X31256Y-51670D01*
X35421Y-51670D02*
X48010Y-51670D01*
X14690Y-51750D02*
X28555Y-51750D01*
X29455Y-51750D02*
X31336Y-51750D01*
X35421Y-51750D02*
X48010Y-51750D01*
X14690Y-51830D02*
X28555Y-51830D01*
X29455Y-51830D02*
X31416Y-51830D01*
X35421Y-51830D02*
X48010Y-51830D01*
X14690Y-51910D02*
X28555Y-51910D01*
X29455Y-51910D02*
X31496Y-51910D01*
X35421Y-51910D02*
X48010Y-51910D01*
X14690Y-51990D02*
X28555Y-51990D01*
X29518Y-51990D02*
X30482Y-51990D01*
X30936Y-51990D02*
X31576Y-51990D01*
X35421Y-51990D02*
X48010Y-51990D01*
X14690Y-52070D02*
X28555Y-52070D01*
X29598Y-52070D02*
X30394Y-52070D01*
X31024Y-52070D02*
X31656Y-52070D01*
X35421Y-52070D02*
X48010Y-52070D01*
X14690Y-52150D02*
X28555Y-52150D01*
X29678Y-52150D02*
X30335Y-52150D01*
X31084Y-52150D02*
X31736Y-52150D01*
X35417Y-52150D02*
X48010Y-52150D01*
X14690Y-52230D02*
X28555Y-52230D01*
X29758Y-52230D02*
X30302Y-52230D01*
X31117Y-52230D02*
X31816Y-52230D01*
X35401Y-52230D02*
X48010Y-52230D01*
X14690Y-52310D02*
X28555Y-52310D01*
X29838Y-52310D02*
X30284Y-52310D01*
X31134Y-52310D02*
X31896Y-52310D01*
X35353Y-52310D02*
X48010Y-52310D01*
X14690Y-52390D02*
X28555Y-52390D01*
X29918Y-52390D02*
X30284Y-52390D01*
X31153Y-52390D02*
X31976Y-52390D01*
X35282Y-52390D02*
X48010Y-52390D01*
X14690Y-52470D02*
X28555Y-52470D01*
X29135Y-52470D02*
X29178Y-52470D01*
X29998Y-52470D02*
X30296Y-52470D01*
X31233Y-52470D02*
X32056Y-52470D01*
X35202Y-52470D02*
X48010Y-52470D01*
X14690Y-52550D02*
X28555Y-52550D01*
X29135Y-52550D02*
X29258Y-52550D01*
X30269Y-52550D02*
X30329Y-52550D01*
X31313Y-52550D02*
X32136Y-52550D01*
X35122Y-52550D02*
X48010Y-52550D01*
X14690Y-52630D02*
X28555Y-52630D01*
X29135Y-52630D02*
X29338Y-52630D01*
X30349Y-52630D02*
X30382Y-52630D01*
X31393Y-52630D02*
X32216Y-52630D01*
X35042Y-52630D02*
X48010Y-52630D01*
X14690Y-52710D02*
X28555Y-52710D01*
X29135Y-52710D02*
X29418Y-52710D01*
X30399Y-52710D02*
X30462Y-52710D01*
X31473Y-52710D02*
X32296Y-52710D01*
X34962Y-52710D02*
X48010Y-52710D01*
X14690Y-52790D02*
X28555Y-52790D01*
X29135Y-52790D02*
X29498Y-52790D01*
X30432Y-52790D02*
X30733Y-52790D01*
X31553Y-52790D02*
X32376Y-52790D01*
X34882Y-52790D02*
X48010Y-52790D01*
X14690Y-52870D02*
X28555Y-52870D01*
X29135Y-52870D02*
X29578Y-52870D01*
X30441Y-52870D02*
X30813Y-52870D01*
X31633Y-52870D02*
X32456Y-52870D01*
X34802Y-52870D02*
X48010Y-52870D01*
X14690Y-52950D02*
X28555Y-52950D01*
X29135Y-52950D02*
X29591Y-52950D01*
X30441Y-52950D02*
X30893Y-52950D01*
X34722Y-52950D02*
X48010Y-52950D01*
X14690Y-53030D02*
X28555Y-53030D01*
X29135Y-53030D02*
X29610Y-53030D01*
X30421Y-53030D02*
X30973Y-53030D01*
X34642Y-53030D02*
X48010Y-53030D01*
X14690Y-53110D02*
X28555Y-53110D01*
X29135Y-53110D02*
X29643Y-53110D01*
X30388Y-53110D02*
X31053Y-53110D01*
X34562Y-53110D02*
X48010Y-53110D01*
X14690Y-53190D02*
X28555Y-53190D01*
X29135Y-53190D02*
X29707Y-53190D01*
X30325Y-53190D02*
X31133Y-53190D01*
X34482Y-53190D02*
X46158Y-53190D01*
X47042Y-53190D02*
X48010Y-53190D01*
X14690Y-53270D02*
X28555Y-53270D01*
X29135Y-53270D02*
X29803Y-53270D01*
X30229Y-53270D02*
X31213Y-53270D01*
X34402Y-53270D02*
X46085Y-53270D01*
X47116Y-53270D02*
X48010Y-53270D01*
X14690Y-53350D02*
X28555Y-53350D01*
X29161Y-53350D02*
X31293Y-53350D01*
X34322Y-53350D02*
X46051Y-53350D01*
X47149Y-53350D02*
X48010Y-53350D01*
X14690Y-53430D02*
X28555Y-53430D01*
X29241Y-53430D02*
X31373Y-53430D01*
X34242Y-53430D02*
X46051Y-53430D01*
X47149Y-53430D02*
X48010Y-53430D01*
X14690Y-53510D02*
X28568Y-53510D01*
X29321Y-53510D02*
X31528Y-53510D01*
X34086Y-53510D02*
X46051Y-53510D01*
X47149Y-53510D02*
X48010Y-53510D01*
X14690Y-53590D02*
X28600Y-53590D01*
X29401Y-53590D02*
X46051Y-53590D01*
X47149Y-53590D02*
X48010Y-53590D01*
X14690Y-53670D02*
X28661Y-53670D01*
X29481Y-53670D02*
X46051Y-53670D01*
X47149Y-53670D02*
X48010Y-53670D01*
X14690Y-53750D02*
X28741Y-53750D01*
X29745Y-53750D02*
X46051Y-53750D01*
X47149Y-53750D02*
X48010Y-53750D01*
X14690Y-53830D02*
X28821Y-53830D01*
X29832Y-53830D02*
X46051Y-53830D01*
X47149Y-53830D02*
X48010Y-53830D01*
X14690Y-53910D02*
X28901Y-53910D01*
X29892Y-53910D02*
X46051Y-53910D01*
X47149Y-53910D02*
X48010Y-53910D01*
X14690Y-53990D02*
X28981Y-53990D01*
X29925Y-53990D02*
X46051Y-53990D01*
X47149Y-53990D02*
X48010Y-53990D01*
X14690Y-54070D02*
X29061Y-54070D01*
X29941Y-54070D02*
X46059Y-54070D01*
X47140Y-54070D02*
X48010Y-54070D01*
X14690Y-54150D02*
X29091Y-54150D01*
X29941Y-54150D02*
X46098Y-54150D01*
X47102Y-54150D02*
X48010Y-54150D01*
X14690Y-54230D02*
X29103Y-54230D01*
X29928Y-54230D02*
X46204Y-54230D01*
X46995Y-54230D02*
X48010Y-54230D01*
X14690Y-54310D02*
X29136Y-54310D01*
X29895Y-54310D02*
X46296Y-54310D01*
X46905Y-54310D02*
X48010Y-54310D01*
X14690Y-54390D02*
X29190Y-54390D01*
X29842Y-54390D02*
X46360Y-54390D01*
X46839Y-54390D02*
X48010Y-54390D01*
X14690Y-54470D02*
X18113Y-54470D01*
X28868Y-54470D02*
X29270Y-54470D01*
X29762Y-54470D02*
X46111Y-54470D01*
X46300Y-54470D02*
X46440Y-54470D01*
X46759Y-54470D02*
X46901Y-54470D01*
X47093Y-54470D02*
X48010Y-54470D01*
X14690Y-54550D02*
X18113Y-54550D01*
X28868Y-54550D02*
X46082Y-54550D01*
X46380Y-54550D02*
X46520Y-54550D01*
X46679Y-54550D02*
X46821Y-54550D01*
X47126Y-54550D02*
X48010Y-54550D01*
X14690Y-54630D02*
X18113Y-54630D01*
X28868Y-54630D02*
X46057Y-54630D01*
X46460Y-54630D02*
X46741Y-54630D01*
X47136Y-54630D02*
X48010Y-54630D01*
X14690Y-54710D02*
X18113Y-54710D01*
X28868Y-54710D02*
X46061Y-54710D01*
X46519Y-54710D02*
X46680Y-54710D01*
X47140Y-54710D02*
X48010Y-54710D01*
X14690Y-54790D02*
X18113Y-54790D01*
X28868Y-54790D02*
X46065Y-54790D01*
X46439Y-54790D02*
X46581Y-54790D01*
X46620Y-54790D02*
X46760Y-54790D01*
X47139Y-54790D02*
X48010Y-54790D01*
X14690Y-54870D02*
X18113Y-54870D01*
X28868Y-54870D02*
X46082Y-54870D01*
X46359Y-54870D02*
X46501Y-54870D01*
X46700Y-54870D02*
X46840Y-54870D01*
X47111Y-54870D02*
X48010Y-54870D01*
X14690Y-54950D02*
X18113Y-54950D01*
X28868Y-54950D02*
X46115Y-54950D01*
X46279Y-54950D02*
X46421Y-54950D01*
X46780Y-54950D02*
X46920Y-54950D01*
X47082Y-54950D02*
X48010Y-54950D01*
X14690Y-55030D02*
X18113Y-55030D01*
X28868Y-55030D02*
X46341Y-55030D01*
X46860Y-55030D02*
X48010Y-55030D01*
X14690Y-55110D02*
X18113Y-55110D01*
X28868Y-55110D02*
X46301Y-55110D01*
X46898Y-55110D02*
X48010Y-55110D01*
X14690Y-55190D02*
X18113Y-55190D01*
X28868Y-55190D02*
X46370Y-55190D01*
X46836Y-55190D02*
X48010Y-55190D01*
X14690Y-55270D02*
X18113Y-55270D01*
X28868Y-55270D02*
X48010Y-55270D01*
X14690Y-55350D02*
X18113Y-55350D01*
X28868Y-55350D02*
X48010Y-55350D01*
X14690Y-55430D02*
X18113Y-55430D01*
X28868Y-55430D02*
X48010Y-55430D01*
X14690Y-55510D02*
X18113Y-55510D01*
X28868Y-55510D02*
X48010Y-55510D01*
X14690Y-55590D02*
X18113Y-55590D01*
X28868Y-55590D02*
X48010Y-55590D01*
X14690Y-55670D02*
X18113Y-55670D01*
X28868Y-55670D02*
X48010Y-55670D01*
X14690Y-55750D02*
X18113Y-55750D01*
X28868Y-55750D02*
X48010Y-55750D01*
X14690Y-55830D02*
X18113Y-55830D01*
X28868Y-55830D02*
X48010Y-55830D01*
X14690Y-55910D02*
X18113Y-55910D01*
X28868Y-55910D02*
X48010Y-55910D01*
X14690Y-55990D02*
X18113Y-55990D01*
X28868Y-55990D02*
X48010Y-55990D01*
X33830Y-37740D02*
X33830Y-37740D01*
X33730Y-37820D02*
X33910Y-37820D01*
X33810Y-37900D02*
X33990Y-37900D01*
X33890Y-37980D02*
X34070Y-37980D01*
X33970Y-38060D02*
X34150Y-38060D01*
X34050Y-38140D02*
X34230Y-38140D01*
X34130Y-38220D02*
X34310Y-38220D01*
X34210Y-38300D02*
X34390Y-38300D01*
X34290Y-38380D02*
X34470Y-38380D01*
X34370Y-38460D02*
X34550Y-38460D01*
X34450Y-38540D02*
X34630Y-38540D01*
X34530Y-38620D02*
X34710Y-38620D01*
X34610Y-38700D02*
X34790Y-38700D01*
X34690Y-38780D02*
X34870Y-38780D01*
X34770Y-38860D02*
X34950Y-38860D01*
X34850Y-38940D02*
X35030Y-38940D01*
X34922Y-39020D02*
X35110Y-39020D01*
X34969Y-39100D02*
X35190Y-39100D01*
X34985Y-39180D02*
X35270Y-39180D01*
X34988Y-39260D02*
X35350Y-39260D01*
X34988Y-39340D02*
X35430Y-39340D01*
X34988Y-39420D02*
X35510Y-39420D01*
X34988Y-39500D02*
X35590Y-39500D01*
X34988Y-39580D02*
X35611Y-39580D01*
X34988Y-39660D02*
X35611Y-39660D01*
X34988Y-39740D02*
X35611Y-39740D01*
X34988Y-39820D02*
X35611Y-39820D01*
X34988Y-39900D02*
X35611Y-39900D01*
X34988Y-39980D02*
X35611Y-39980D01*
X34988Y-40060D02*
X35611Y-40060D01*
X34988Y-40140D02*
X35611Y-40140D01*
X34988Y-40220D02*
X35611Y-40220D01*
X34988Y-40300D02*
X35611Y-40300D01*
X34988Y-40380D02*
X35611Y-40380D01*
X34988Y-40460D02*
X35611Y-40460D01*
X34988Y-40540D02*
X35611Y-40540D01*
X34988Y-40620D02*
X35611Y-40620D01*
X34988Y-40700D02*
X35611Y-40700D01*
X34988Y-40780D02*
X35611Y-40780D01*
X34988Y-40860D02*
X35611Y-40860D01*
X34988Y-40940D02*
X35611Y-40940D01*
X34988Y-41020D02*
X35611Y-41020D01*
X34988Y-41100D02*
X35611Y-41100D01*
X34988Y-41180D02*
X35611Y-41180D01*
X34988Y-41260D02*
X35611Y-41260D01*
X34988Y-41340D02*
X35611Y-41340D01*
X34988Y-41420D02*
X35611Y-41420D01*
X34988Y-41500D02*
X35611Y-41500D01*
X34988Y-41580D02*
X35611Y-41580D01*
X34988Y-41660D02*
X35611Y-41660D01*
X34988Y-41740D02*
X35611Y-41740D01*
X34988Y-41820D02*
X35611Y-41820D01*
X34988Y-41900D02*
X35611Y-41900D01*
X34988Y-41980D02*
X35611Y-41980D01*
X34988Y-42060D02*
X35611Y-42060D01*
X34988Y-42140D02*
X35611Y-42140D01*
X34988Y-42220D02*
X35611Y-42220D01*
X34988Y-42300D02*
X35611Y-42300D01*
X34988Y-42380D02*
X35611Y-42380D01*
X34988Y-42460D02*
X35611Y-42460D01*
X34988Y-42540D02*
X35611Y-42540D01*
X34988Y-42620D02*
X35611Y-42620D01*
X34988Y-42700D02*
X35611Y-42700D01*
X34988Y-42780D02*
X35611Y-42780D01*
X34988Y-42860D02*
X35611Y-42860D01*
X34988Y-42940D02*
X35611Y-42940D01*
X34988Y-43020D02*
X35611Y-43020D01*
X35032Y-43100D02*
X35611Y-43100D01*
X35081Y-43180D02*
X35611Y-43180D01*
X35114Y-43260D02*
X35611Y-43260D01*
X35123Y-43340D02*
X35611Y-43340D01*
X35123Y-43420D02*
X35611Y-43420D01*
X35103Y-43500D02*
X35611Y-43500D01*
X35069Y-43580D02*
X35611Y-43580D01*
X35006Y-43660D02*
X35611Y-43660D01*
X34908Y-43740D02*
X35611Y-43740D01*
X34754Y-43820D02*
X35611Y-43820D01*
X34754Y-43900D02*
X35611Y-43900D01*
X34754Y-43980D02*
X35611Y-43980D01*
X34754Y-44060D02*
X35611Y-44060D01*
X34754Y-44140D02*
X35611Y-44140D01*
X34754Y-44220D02*
X35611Y-44220D01*
X34754Y-44300D02*
X35611Y-44300D01*
X34751Y-44380D02*
X35611Y-44380D01*
X34735Y-44460D02*
X35611Y-44460D01*
X34691Y-44540D02*
X35611Y-44540D01*
X34623Y-44620D02*
X35611Y-44620D01*
X34543Y-44700D02*
X35611Y-44700D01*
X34463Y-44780D02*
X35611Y-44780D01*
X34383Y-44860D02*
X35611Y-44860D01*
X34303Y-44940D02*
X35611Y-44940D01*
X34223Y-45020D02*
X35611Y-45020D01*
X34143Y-45100D02*
X35611Y-45100D01*
X34064Y-45180D02*
X35611Y-45180D01*
X34064Y-45260D02*
X35611Y-45260D01*
X34038Y-45340D02*
X35611Y-45340D01*
X34005Y-45420D02*
X35611Y-45420D01*
X33934Y-45500D02*
X35611Y-45500D01*
X33984Y-45580D02*
X35611Y-45580D01*
X34064Y-45660D02*
X35611Y-45660D01*
X34144Y-45740D02*
X35611Y-45740D01*
X34224Y-45820D02*
X35611Y-45820D01*
X34304Y-45900D02*
X35611Y-45900D01*
X34384Y-45980D02*
X35611Y-45980D01*
X34464Y-46060D02*
X35611Y-46060D01*
X34544Y-46140D02*
X35611Y-46140D01*
X34624Y-46220D02*
X35611Y-46220D01*
X34704Y-46300D02*
X35611Y-46300D01*
X34784Y-46380D02*
X35611Y-46380D01*
X34864Y-46460D02*
X35611Y-46460D01*
X34944Y-46540D02*
X35611Y-46540D01*
X35024Y-46620D02*
X35611Y-46620D01*
X35104Y-46700D02*
X35611Y-46700D01*
X35184Y-46780D02*
X35611Y-46780D01*
X35264Y-46860D02*
X35611Y-46860D01*
X35344Y-46940D02*
X35576Y-46940D01*
X35424Y-47020D02*
X35527Y-47020D01*
X30200Y-37426D02*
X30200Y-37426D01*
X31200Y-37426D02*
X31200Y-37426D01*
X30167Y-37506D02*
X30232Y-37506D01*
X31167Y-37506D02*
X31232Y-37506D01*
X30090Y-37586D02*
X30310Y-37586D01*
X31090Y-37586D02*
X31310Y-37586D01*
X30008Y-37666D02*
X30391Y-37666D01*
X31008Y-37666D02*
X31391Y-37666D01*
X29990Y-37746D02*
X30583Y-37746D01*
X30816Y-37746D02*
X31583Y-37746D01*
X31816Y-37746D02*
X31836Y-37746D01*
X29990Y-37826D02*
X31916Y-37826D01*
X29990Y-37906D02*
X31996Y-37906D01*
X29990Y-37986D02*
X32076Y-37986D01*
X29990Y-38066D02*
X32156Y-38066D01*
X29990Y-38146D02*
X32236Y-38146D01*
X29990Y-38226D02*
X32316Y-38226D01*
X29990Y-38306D02*
X32396Y-38306D01*
X29990Y-38386D02*
X32476Y-38386D01*
X29990Y-38466D02*
X32556Y-38466D01*
X29990Y-38546D02*
X32636Y-38546D01*
X29990Y-38626D02*
X32716Y-38626D01*
X29990Y-38706D02*
X32796Y-38706D01*
X29990Y-38786D02*
X32876Y-38786D01*
X29990Y-38866D02*
X32956Y-38866D01*
X29990Y-38946D02*
X33036Y-38946D01*
X29990Y-39026D02*
X33116Y-39026D01*
X29990Y-39106D02*
X33196Y-39106D01*
X29990Y-39186D02*
X33276Y-39186D01*
X29990Y-39266D02*
X33356Y-39266D01*
X29990Y-39346D02*
X33436Y-39346D01*
X29990Y-39426D02*
X33516Y-39426D01*
X30014Y-39506D02*
X33596Y-39506D01*
X30094Y-39586D02*
X33676Y-39586D01*
X30174Y-39666D02*
X33756Y-39666D01*
X30254Y-39746D02*
X33836Y-39746D01*
X30334Y-39826D02*
X33916Y-39826D01*
X30414Y-39906D02*
X33996Y-39906D01*
X30494Y-39986D02*
X34076Y-39986D01*
X30574Y-40066D02*
X34090Y-40066D01*
X30654Y-40146D02*
X34090Y-40146D01*
X30734Y-40226D02*
X34090Y-40226D01*
X30814Y-40306D02*
X34090Y-40306D01*
X30894Y-40386D02*
X34090Y-40386D01*
X30974Y-40466D02*
X34090Y-40466D01*
X31054Y-40546D02*
X34090Y-40546D01*
X31134Y-40626D02*
X34090Y-40626D01*
X31214Y-40706D02*
X34090Y-40706D01*
X31294Y-40786D02*
X34090Y-40786D01*
X31374Y-40866D02*
X34090Y-40866D01*
X31454Y-40946D02*
X34090Y-40946D01*
X31534Y-41026D02*
X34090Y-41026D01*
X31614Y-41106D02*
X34090Y-41106D01*
X31694Y-41186D02*
X34090Y-41186D01*
X31774Y-41266D02*
X34090Y-41266D01*
X31854Y-41346D02*
X34090Y-41346D01*
X31934Y-41426D02*
X34090Y-41426D01*
X32014Y-41506D02*
X34090Y-41506D01*
X32094Y-41586D02*
X34090Y-41586D01*
X32174Y-41666D02*
X34090Y-41666D01*
X32254Y-41746D02*
X34090Y-41746D01*
X32334Y-41826D02*
X34090Y-41826D01*
X32414Y-41906D02*
X34090Y-41906D01*
X32494Y-41986D02*
X34090Y-41986D01*
X32574Y-42066D02*
X34090Y-42066D01*
X32654Y-42146D02*
X34090Y-42146D01*
X32734Y-42226D02*
X34090Y-42226D01*
X32814Y-42306D02*
X34090Y-42306D01*
X32894Y-42386D02*
X34090Y-42386D01*
X32974Y-42466D02*
X34090Y-42466D01*
X33054Y-42546D02*
X34090Y-42546D01*
X33134Y-42626D02*
X34090Y-42626D01*
X33214Y-42706D02*
X34090Y-42706D01*
X33294Y-42786D02*
X34090Y-42786D01*
X33374Y-42866D02*
X34090Y-42866D01*
X33454Y-42946D02*
X34090Y-42946D01*
X33534Y-43026D02*
X34090Y-43026D01*
X33614Y-43106D02*
X34090Y-43106D01*
X33694Y-43186D02*
X34090Y-43186D01*
X33774Y-43266D02*
X34090Y-43266D01*
X33854Y-43346D02*
X34090Y-43346D01*
X33934Y-43426D02*
X34090Y-43426D01*
X35496Y-47092D02*
X35548Y-46968D01*
X35611Y-46905D01*
X35611Y-39521D01*
X33830Y-37740D01*
X33809Y-37749D01*
X33659Y-37749D01*
X34903Y-38993D01*
X34966Y-39087D01*
X34988Y-39198D01*
X34988Y-43056D01*
X35059Y-43127D01*
X35123Y-43283D01*
X35123Y-43452D01*
X35058Y-43608D01*
X34938Y-43728D01*
X34782Y-43792D01*
X34754Y-43792D01*
X34754Y-44369D01*
X34732Y-44480D01*
X34710Y-44512D01*
X34669Y-44575D01*
X34064Y-45179D01*
X34064Y-45279D01*
X33999Y-45435D01*
X33919Y-45515D01*
X35496Y-47092D01*
X14690Y-35190D02*
X48010Y-35190D01*
X14690Y-35270D02*
X48010Y-35270D01*
X14690Y-35350D02*
X48010Y-35350D01*
X14690Y-35430D02*
X48010Y-35430D01*
X14690Y-35510D02*
X48010Y-35510D01*
X14690Y-35590D02*
X48010Y-35590D01*
X14690Y-35670D02*
X26546Y-35670D01*
X26855Y-35670D02*
X27562Y-35670D01*
X27816Y-35670D02*
X28562Y-35670D01*
X28816Y-35670D02*
X29562Y-35670D01*
X29816Y-35670D02*
X30562Y-35670D01*
X30816Y-35670D02*
X31562Y-35670D01*
X31816Y-35670D02*
X32562Y-35670D01*
X32816Y-35670D02*
X33562Y-35670D01*
X33816Y-35670D02*
X34562Y-35670D01*
X34816Y-35670D02*
X35562Y-35670D01*
X35816Y-35670D02*
X37976Y-35670D01*
X38525Y-35670D02*
X38976Y-35670D01*
X39525Y-35670D02*
X39976Y-35670D01*
X40525Y-35670D02*
X48010Y-35670D01*
X14690Y-35750D02*
X26374Y-35750D01*
X27026Y-35750D02*
X27413Y-35750D01*
X27988Y-35750D02*
X28413Y-35750D01*
X28988Y-35750D02*
X29413Y-35750D01*
X29988Y-35750D02*
X30413Y-35750D01*
X30988Y-35750D02*
X31413Y-35750D01*
X31988Y-35750D02*
X32413Y-35750D01*
X32988Y-35750D02*
X33413Y-35750D01*
X33988Y-35750D02*
X34413Y-35750D01*
X34988Y-35750D02*
X35413Y-35750D01*
X35988Y-35750D02*
X37874Y-35750D01*
X38626Y-35750D02*
X38874Y-35750D01*
X39626Y-35750D02*
X39874Y-35750D01*
X40626Y-35750D02*
X48010Y-35750D01*
X14690Y-35830D02*
X26294Y-35830D01*
X27106Y-35830D02*
X27400Y-35830D01*
X27999Y-35830D02*
X28400Y-35830D01*
X28999Y-35830D02*
X29400Y-35830D01*
X29999Y-35830D02*
X30400Y-35830D01*
X30999Y-35830D02*
X31400Y-35830D01*
X31999Y-35830D02*
X32400Y-35830D01*
X32999Y-35830D02*
X33400Y-35830D01*
X33999Y-35830D02*
X34400Y-35830D01*
X34999Y-35830D02*
X35400Y-35830D01*
X35999Y-35830D02*
X37794Y-35830D01*
X38706Y-35830D02*
X38794Y-35830D01*
X39706Y-35830D02*
X39794Y-35830D01*
X40706Y-35830D02*
X48010Y-35830D01*
X14690Y-35910D02*
X26227Y-35910D01*
X27174Y-35910D02*
X27260Y-35910D01*
X27340Y-35910D02*
X27480Y-35910D01*
X27919Y-35910D02*
X28061Y-35910D01*
X28141Y-35910D02*
X28260Y-35910D01*
X28340Y-35910D02*
X28480Y-35910D01*
X28919Y-35910D02*
X29061Y-35910D01*
X29141Y-35910D02*
X29260Y-35910D01*
X29340Y-35910D02*
X29480Y-35910D01*
X29919Y-35910D02*
X30061Y-35910D01*
X30141Y-35910D02*
X30260Y-35910D01*
X30340Y-35910D02*
X30480Y-35910D01*
X30919Y-35910D02*
X31061Y-35910D01*
X31141Y-35910D02*
X31260Y-35910D01*
X31340Y-35910D02*
X31480Y-35910D01*
X31919Y-35910D02*
X32061Y-35910D01*
X32141Y-35910D02*
X32260Y-35910D01*
X32340Y-35910D02*
X32480Y-35910D01*
X32919Y-35910D02*
X33061Y-35910D01*
X33141Y-35910D02*
X33260Y-35910D01*
X33340Y-35910D02*
X33480Y-35910D01*
X33919Y-35910D02*
X34061Y-35910D01*
X34141Y-35910D02*
X34260Y-35910D01*
X34340Y-35910D02*
X34480Y-35910D01*
X34919Y-35910D02*
X35061Y-35910D01*
X35141Y-35910D02*
X35260Y-35910D01*
X35340Y-35910D02*
X35480Y-35910D01*
X35919Y-35910D02*
X36061Y-35910D01*
X36141Y-35910D02*
X37756Y-35910D01*
X38745Y-35910D02*
X38756Y-35910D01*
X39745Y-35910D02*
X39756Y-35910D01*
X40745Y-35910D02*
X48010Y-35910D01*
X14690Y-35990D02*
X26193Y-35990D01*
X27420Y-35990D02*
X27560Y-35990D01*
X27839Y-35990D02*
X27981Y-35990D01*
X28202Y-35990D02*
X28203Y-35990D01*
X28420Y-35990D02*
X28560Y-35990D01*
X28839Y-35990D02*
X28981Y-35990D01*
X29202Y-35990D02*
X29203Y-35990D01*
X29420Y-35990D02*
X29560Y-35990D01*
X29839Y-35990D02*
X29981Y-35990D01*
X30202Y-35990D02*
X30203Y-35990D01*
X30420Y-35990D02*
X30560Y-35990D01*
X30839Y-35990D02*
X30981Y-35990D01*
X31202Y-35990D02*
X31203Y-35990D01*
X31420Y-35990D02*
X31560Y-35990D01*
X31839Y-35990D02*
X31981Y-35990D01*
X32202Y-35990D02*
X32203Y-35990D01*
X32420Y-35990D02*
X32560Y-35990D01*
X32839Y-35990D02*
X32981Y-35990D01*
X33202Y-35990D02*
X33203Y-35990D01*
X33420Y-35990D02*
X33560Y-35990D01*
X33839Y-35990D02*
X33981Y-35990D01*
X34202Y-35990D02*
X34203Y-35990D01*
X34420Y-35990D02*
X34560Y-35990D01*
X34839Y-35990D02*
X34981Y-35990D01*
X35202Y-35990D02*
X35203Y-35990D01*
X35420Y-35990D02*
X35560Y-35990D01*
X35839Y-35990D02*
X35981Y-35990D01*
X36201Y-35990D02*
X37723Y-35990D01*
X40778Y-35990D02*
X48010Y-35990D01*
X14690Y-36070D02*
X26160Y-36070D01*
X27500Y-36070D02*
X27640Y-36070D01*
X27759Y-36070D02*
X27901Y-36070D01*
X28500Y-36070D02*
X28640Y-36070D01*
X28759Y-36070D02*
X28901Y-36070D01*
X29500Y-36070D02*
X29640Y-36070D01*
X29759Y-36070D02*
X29901Y-36070D01*
X30500Y-36070D02*
X30640Y-36070D01*
X30759Y-36070D02*
X30901Y-36070D01*
X31500Y-36070D02*
X31640Y-36070D01*
X31759Y-36070D02*
X31901Y-36070D01*
X32500Y-36070D02*
X32640Y-36070D01*
X32759Y-36070D02*
X32901Y-36070D01*
X33500Y-36070D02*
X33640Y-36070D01*
X33759Y-36070D02*
X33901Y-36070D01*
X34500Y-36070D02*
X34640Y-36070D01*
X34759Y-36070D02*
X34901Y-36070D01*
X35500Y-36070D02*
X35640Y-36070D01*
X35759Y-36070D02*
X35901Y-36070D01*
X36233Y-36070D02*
X37701Y-36070D01*
X40799Y-36070D02*
X48010Y-36070D01*
X14690Y-36150D02*
X26151Y-36150D01*
X27580Y-36150D02*
X27821Y-36150D01*
X28580Y-36150D02*
X28821Y-36150D01*
X29580Y-36150D02*
X29821Y-36150D01*
X30580Y-36150D02*
X30821Y-36150D01*
X31580Y-36150D02*
X31821Y-36150D01*
X32580Y-36150D02*
X32821Y-36150D01*
X33580Y-36150D02*
X33821Y-36150D01*
X34580Y-36150D02*
X34821Y-36150D01*
X35580Y-36150D02*
X35821Y-36150D01*
X36237Y-36150D02*
X37701Y-36150D01*
X40799Y-36150D02*
X48010Y-36150D01*
X14690Y-36230D02*
X26151Y-36230D01*
X27599Y-36230D02*
X27800Y-36230D01*
X28599Y-36230D02*
X28800Y-36230D01*
X29599Y-36230D02*
X29800Y-36230D01*
X30599Y-36230D02*
X30800Y-36230D01*
X31599Y-36230D02*
X31800Y-36230D01*
X32599Y-36230D02*
X32800Y-36230D01*
X33599Y-36230D02*
X33800Y-36230D01*
X34599Y-36230D02*
X34800Y-36230D01*
X35599Y-36230D02*
X35800Y-36230D01*
X36241Y-36230D02*
X37701Y-36230D01*
X40799Y-36230D02*
X48010Y-36230D01*
X14690Y-36310D02*
X26151Y-36310D01*
X27519Y-36310D02*
X27661Y-36310D01*
X27740Y-36310D02*
X27880Y-36310D01*
X28519Y-36310D02*
X28661Y-36310D01*
X28740Y-36310D02*
X28880Y-36310D01*
X29519Y-36310D02*
X29661Y-36310D01*
X29740Y-36310D02*
X29880Y-36310D01*
X30519Y-36310D02*
X30661Y-36310D01*
X30740Y-36310D02*
X30880Y-36310D01*
X31519Y-36310D02*
X31661Y-36310D01*
X31740Y-36310D02*
X31880Y-36310D01*
X32519Y-36310D02*
X32661Y-36310D01*
X32740Y-36310D02*
X32880Y-36310D01*
X33519Y-36310D02*
X33661Y-36310D01*
X33740Y-36310D02*
X33880Y-36310D01*
X34519Y-36310D02*
X34661Y-36310D01*
X34740Y-36310D02*
X34880Y-36310D01*
X35519Y-36310D02*
X35661Y-36310D01*
X35740Y-36310D02*
X35880Y-36310D01*
X36232Y-36310D02*
X37722Y-36310D01*
X40777Y-36310D02*
X48010Y-36310D01*
X14690Y-36390D02*
X26184Y-36390D01*
X27439Y-36390D02*
X27581Y-36390D01*
X27820Y-36390D02*
X27960Y-36390D01*
X28439Y-36390D02*
X28581Y-36390D01*
X28820Y-36390D02*
X28960Y-36390D01*
X29439Y-36390D02*
X29581Y-36390D01*
X29820Y-36390D02*
X29960Y-36390D01*
X30439Y-36390D02*
X30581Y-36390D01*
X30820Y-36390D02*
X30960Y-36390D01*
X31439Y-36390D02*
X31581Y-36390D01*
X31820Y-36390D02*
X31960Y-36390D01*
X32439Y-36390D02*
X32581Y-36390D01*
X32820Y-36390D02*
X32960Y-36390D01*
X33439Y-36390D02*
X33581Y-36390D01*
X33820Y-36390D02*
X33960Y-36390D01*
X34439Y-36390D02*
X34581Y-36390D01*
X34820Y-36390D02*
X34960Y-36390D01*
X35439Y-36390D02*
X35581Y-36390D01*
X35820Y-36390D02*
X35960Y-36390D01*
X36203Y-36390D02*
X37755Y-36390D01*
X40744Y-36390D02*
X48010Y-36390D01*
X14690Y-36470D02*
X26217Y-36470D01*
X27181Y-36470D02*
X27223Y-36470D01*
X27359Y-36470D02*
X27501Y-36470D01*
X27900Y-36470D02*
X28040Y-36470D01*
X28175Y-36470D02*
X28223Y-36470D01*
X28359Y-36470D02*
X28501Y-36470D01*
X28900Y-36470D02*
X29040Y-36470D01*
X29175Y-36470D02*
X29223Y-36470D01*
X29359Y-36470D02*
X29501Y-36470D01*
X29900Y-36470D02*
X30040Y-36470D01*
X30175Y-36470D02*
X30223Y-36470D01*
X30359Y-36470D02*
X30501Y-36470D01*
X30900Y-36470D02*
X31040Y-36470D01*
X31175Y-36470D02*
X31223Y-36470D01*
X31359Y-36470D02*
X31501Y-36470D01*
X31900Y-36470D02*
X32040Y-36470D01*
X32175Y-36470D02*
X32223Y-36470D01*
X32359Y-36470D02*
X32501Y-36470D01*
X32900Y-36470D02*
X33040Y-36470D01*
X33175Y-36470D02*
X33223Y-36470D01*
X33359Y-36470D02*
X33501Y-36470D01*
X33900Y-36470D02*
X34040Y-36470D01*
X34175Y-36470D02*
X34223Y-36470D01*
X34359Y-36470D02*
X34501Y-36470D01*
X34900Y-36470D02*
X35040Y-36470D01*
X35175Y-36470D02*
X35223Y-36470D01*
X35359Y-36470D02*
X35501Y-36470D01*
X35900Y-36470D02*
X36040Y-36470D01*
X36175Y-36470D02*
X37794Y-36470D01*
X40706Y-36470D02*
X48010Y-36470D01*
X14690Y-36550D02*
X26274Y-36550D01*
X27126Y-36550D02*
X27421Y-36550D01*
X27980Y-36550D02*
X28421Y-36550D01*
X28980Y-36550D02*
X29421Y-36550D01*
X29980Y-36550D02*
X30421Y-36550D01*
X30980Y-36550D02*
X31421Y-36550D01*
X31980Y-36550D02*
X32421Y-36550D01*
X32980Y-36550D02*
X33421Y-36550D01*
X33980Y-36550D02*
X34421Y-36550D01*
X34980Y-36550D02*
X35421Y-36550D01*
X35980Y-36550D02*
X37874Y-36550D01*
X40626Y-36550D02*
X48010Y-36550D01*
X14690Y-36630D02*
X26354Y-36630D01*
X27046Y-36630D02*
X27406Y-36630D01*
X27993Y-36630D02*
X28406Y-36630D01*
X28993Y-36630D02*
X29406Y-36630D01*
X29993Y-36630D02*
X30406Y-36630D01*
X30993Y-36630D02*
X31406Y-36630D01*
X31993Y-36630D02*
X32406Y-36630D01*
X32993Y-36630D02*
X33406Y-36630D01*
X33993Y-36630D02*
X34406Y-36630D01*
X34993Y-36630D02*
X35406Y-36630D01*
X35993Y-36630D02*
X37831Y-36630D01*
X40524Y-36630D02*
X48010Y-36630D01*
X14690Y-36710D02*
X26238Y-36710D01*
X27162Y-36710D02*
X27449Y-36710D01*
X27951Y-36710D02*
X28449Y-36710D01*
X28951Y-36710D02*
X29449Y-36710D01*
X29951Y-36710D02*
X30449Y-36710D01*
X30951Y-36710D02*
X31449Y-36710D01*
X31951Y-36710D02*
X32449Y-36710D01*
X32951Y-36710D02*
X33449Y-36710D01*
X33951Y-36710D02*
X34449Y-36710D01*
X34951Y-36710D02*
X35449Y-36710D01*
X35951Y-36710D02*
X37739Y-36710D01*
X40586Y-36710D02*
X48010Y-36710D01*
X14690Y-36790D02*
X26177Y-36790D01*
X27224Y-36790D02*
X27334Y-36790D01*
X28066Y-36790D02*
X28334Y-36790D01*
X29066Y-36790D02*
X29334Y-36790D01*
X30066Y-36790D02*
X30334Y-36790D01*
X31066Y-36790D02*
X31334Y-36790D01*
X32066Y-36790D02*
X32334Y-36790D01*
X33066Y-36790D02*
X33334Y-36790D01*
X34066Y-36790D02*
X34334Y-36790D01*
X35066Y-36790D02*
X35334Y-36790D01*
X36066Y-36790D02*
X37706Y-36790D01*
X40666Y-36790D02*
X48010Y-36790D01*
X14690Y-36870D02*
X26151Y-36870D01*
X27249Y-36870D02*
X27254Y-36870D01*
X28146Y-36870D02*
X28254Y-36870D01*
X29146Y-36870D02*
X29254Y-36870D01*
X30146Y-36870D02*
X30254Y-36870D01*
X31146Y-36870D02*
X31254Y-36870D01*
X32146Y-36870D02*
X32254Y-36870D01*
X33146Y-36870D02*
X33254Y-36870D01*
X34146Y-36870D02*
X34254Y-36870D01*
X35146Y-36870D02*
X35254Y-36870D01*
X36146Y-36870D02*
X37701Y-36870D01*
X40728Y-36870D02*
X48010Y-36870D01*
X14690Y-36950D02*
X26151Y-36950D01*
X28191Y-36950D02*
X28210Y-36950D01*
X29191Y-36950D02*
X29210Y-36950D01*
X30191Y-36950D02*
X30210Y-36950D01*
X31191Y-36950D02*
X31210Y-36950D01*
X32191Y-36950D02*
X32210Y-36950D01*
X33191Y-36950D02*
X33210Y-36950D01*
X34191Y-36950D02*
X34210Y-36950D01*
X35191Y-36950D02*
X35210Y-36950D01*
X36191Y-36950D02*
X37701Y-36950D01*
X40762Y-36950D02*
X48010Y-36950D01*
X14690Y-37030D02*
X26151Y-37030D01*
X36224Y-37030D02*
X37701Y-37030D01*
X40795Y-37030D02*
X48010Y-37030D01*
X14690Y-37110D02*
X26151Y-37110D01*
X36249Y-37110D02*
X38300Y-37110D01*
X40799Y-37110D02*
X48010Y-37110D01*
X14690Y-37190D02*
X26151Y-37190D01*
X36249Y-37190D02*
X38300Y-37190D01*
X40799Y-37190D02*
X48010Y-37190D01*
X14690Y-37270D02*
X26151Y-37270D01*
X36249Y-37270D02*
X37700Y-37270D01*
X38200Y-37270D02*
X38300Y-37270D01*
X40794Y-37270D02*
X48010Y-37270D01*
X14690Y-37350D02*
X26151Y-37350D01*
X36231Y-37350D02*
X37700Y-37350D01*
X38200Y-37350D02*
X38300Y-37350D01*
X40761Y-37350D02*
X48010Y-37350D01*
X14690Y-37430D02*
X26151Y-37430D01*
X28198Y-37430D02*
X28201Y-37430D01*
X35198Y-37430D02*
X35201Y-37430D01*
X36198Y-37430D02*
X37701Y-37430D01*
X38200Y-37430D02*
X38300Y-37430D01*
X40727Y-37430D02*
X48010Y-37430D01*
X14690Y-37510D02*
X26151Y-37510D01*
X28165Y-37510D02*
X28234Y-37510D01*
X35165Y-37510D02*
X35234Y-37510D01*
X36165Y-37510D02*
X37705Y-37510D01*
X38200Y-37510D02*
X38300Y-37510D01*
X40666Y-37510D02*
X48010Y-37510D01*
X14690Y-37590D02*
X26167Y-37590D01*
X27232Y-37590D02*
X27314Y-37590D01*
X28086Y-37590D02*
X28314Y-37590D01*
X35086Y-37590D02*
X35314Y-37590D01*
X36086Y-37590D02*
X37738Y-37590D01*
X38200Y-37590D02*
X38300Y-37590D01*
X40586Y-37590D02*
X48010Y-37590D01*
X14690Y-37670D02*
X26218Y-37670D01*
X27182Y-37670D02*
X27401Y-37670D01*
X27998Y-37670D02*
X28402Y-37670D01*
X34998Y-37670D02*
X35401Y-37670D01*
X35998Y-37670D02*
X37830Y-37670D01*
X38168Y-37670D02*
X38318Y-37670D01*
X40540Y-37670D02*
X48010Y-37670D01*
X14690Y-37750D02*
X28410Y-37750D01*
X34661Y-37750D02*
X38238Y-37750D01*
X40540Y-37750D02*
X48010Y-37750D01*
X14690Y-37830D02*
X28410Y-37830D01*
X34741Y-37830D02*
X38158Y-37830D01*
X40540Y-37830D02*
X48010Y-37830D01*
X14690Y-37910D02*
X28410Y-37910D01*
X34821Y-37910D02*
X38079Y-37910D01*
X40540Y-37910D02*
X48010Y-37910D01*
X14690Y-37990D02*
X28410Y-37990D01*
X34901Y-37990D02*
X37999Y-37990D01*
X40540Y-37990D02*
X48010Y-37990D01*
X14690Y-38070D02*
X28410Y-38070D01*
X34981Y-38070D02*
X37919Y-38070D01*
X40535Y-38070D02*
X48010Y-38070D01*
X14690Y-38150D02*
X28410Y-38150D01*
X35061Y-38150D02*
X37839Y-38150D01*
X40519Y-38150D02*
X48010Y-38150D01*
X14690Y-38230D02*
X28410Y-38230D01*
X35141Y-38230D02*
X37759Y-38230D01*
X40470Y-38230D02*
X43869Y-38230D01*
X44171Y-38230D02*
X46231Y-38230D01*
X46533Y-38230D02*
X48010Y-38230D01*
X14690Y-38310D02*
X28410Y-38310D01*
X35221Y-38310D02*
X37679Y-38310D01*
X40398Y-38310D02*
X43729Y-38310D01*
X44310Y-38310D02*
X46091Y-38310D01*
X46672Y-38310D02*
X48010Y-38310D01*
X14690Y-38390D02*
X28410Y-38390D01*
X35301Y-38390D02*
X37599Y-38390D01*
X40318Y-38390D02*
X43649Y-38390D01*
X44390Y-38390D02*
X46011Y-38390D01*
X46752Y-38390D02*
X48010Y-38390D01*
X14690Y-38470D02*
X28410Y-38470D01*
X35381Y-38470D02*
X37519Y-38470D01*
X40238Y-38470D02*
X43611Y-38470D01*
X44427Y-38470D02*
X45973Y-38470D01*
X46789Y-38470D02*
X48010Y-38470D01*
X14690Y-38550D02*
X28410Y-38550D01*
X35461Y-38550D02*
X37439Y-38550D01*
X40158Y-38550D02*
X43578Y-38550D01*
X44461Y-38550D02*
X45940Y-38550D01*
X46823Y-38550D02*
X48010Y-38550D01*
X14690Y-38630D02*
X28410Y-38630D01*
X35541Y-38630D02*
X37359Y-38630D01*
X40078Y-38630D02*
X43573Y-38630D01*
X44465Y-38630D02*
X45935Y-38630D01*
X46827Y-38630D02*
X48010Y-38630D01*
X14690Y-38710D02*
X28410Y-38710D01*
X35621Y-38710D02*
X37279Y-38710D01*
X39998Y-38710D02*
X43573Y-38710D01*
X44465Y-38710D02*
X45935Y-38710D01*
X46827Y-38710D02*
X48010Y-38710D01*
X14690Y-38790D02*
X28410Y-38790D01*
X35701Y-38790D02*
X37199Y-38790D01*
X39918Y-38790D02*
X43594Y-38790D01*
X44443Y-38790D02*
X45956Y-38790D01*
X46805Y-38790D02*
X48010Y-38790D01*
X14690Y-38870D02*
X28410Y-38870D01*
X35781Y-38870D02*
X37119Y-38870D01*
X39838Y-38870D02*
X43627Y-38870D01*
X44410Y-38870D02*
X45989Y-38870D01*
X46772Y-38870D02*
X48010Y-38870D01*
X14690Y-38950D02*
X28410Y-38950D01*
X35861Y-38950D02*
X37039Y-38950D01*
X39758Y-38950D02*
X43688Y-38950D01*
X44349Y-38950D02*
X46050Y-38950D01*
X46711Y-38950D02*
X48010Y-38950D01*
X14690Y-39030D02*
X28410Y-39030D01*
X35941Y-39030D02*
X36959Y-39030D01*
X39678Y-39030D02*
X43770Y-39030D01*
X44266Y-39030D02*
X46132Y-39030D01*
X46628Y-39030D02*
X48010Y-39030D01*
X14690Y-39110D02*
X28410Y-39110D01*
X36021Y-39110D02*
X36879Y-39110D01*
X39598Y-39110D02*
X48010Y-39110D01*
X14690Y-39190D02*
X28410Y-39190D01*
X36101Y-39190D02*
X36799Y-39190D01*
X39842Y-39190D02*
X40198Y-39190D01*
X40603Y-39190D02*
X48010Y-39190D01*
X14690Y-39270D02*
X28410Y-39270D01*
X39916Y-39270D02*
X40054Y-39270D01*
X40746Y-39270D02*
X48010Y-39270D01*
X14690Y-39350D02*
X28410Y-39350D01*
X39949Y-39350D02*
X39974Y-39350D01*
X40826Y-39350D02*
X48010Y-39350D01*
X14690Y-39430D02*
X28410Y-39430D01*
X40883Y-39430D02*
X48010Y-39430D01*
X14690Y-39510D02*
X28410Y-39510D01*
X40916Y-39510D02*
X48010Y-39510D01*
X14690Y-39590D02*
X28410Y-39590D01*
X40949Y-39590D02*
X48010Y-39590D01*
X14690Y-39670D02*
X28410Y-39670D01*
X40949Y-39670D02*
X48010Y-39670D01*
X14690Y-39750D02*
X28410Y-39750D01*
X40949Y-39750D02*
X48010Y-39750D01*
X14690Y-39830D02*
X28410Y-39830D01*
X40940Y-39830D02*
X48010Y-39830D01*
X14690Y-39910D02*
X28410Y-39910D01*
X40907Y-39910D02*
X48010Y-39910D01*
X14690Y-39990D02*
X28410Y-39990D01*
X40873Y-39990D02*
X48010Y-39990D01*
X14690Y-40070D02*
X28410Y-40070D01*
X39940Y-40070D02*
X39994Y-40070D01*
X40806Y-40070D02*
X48010Y-40070D01*
X14690Y-40150D02*
X28418Y-40150D01*
X39902Y-40150D02*
X40074Y-40150D01*
X40726Y-40150D02*
X48010Y-40150D01*
X14690Y-40230D02*
X28440Y-40230D01*
X39795Y-40230D02*
X40245Y-40230D01*
X40554Y-40230D02*
X48010Y-40230D01*
X14690Y-40310D02*
X21903Y-40310D01*
X39630Y-40310D02*
X48010Y-40310D01*
X14690Y-40390D02*
X21592Y-40390D01*
X39563Y-40390D02*
X48010Y-40390D01*
X14690Y-40470D02*
X21484Y-40470D01*
X39483Y-40470D02*
X48010Y-40470D01*
X14690Y-40550D02*
X21417Y-40550D01*
X39403Y-40550D02*
X48010Y-40550D01*
X14690Y-40630D02*
X21383Y-40630D01*
X39323Y-40630D02*
X48010Y-40630D01*
X14690Y-40710D02*
X21360Y-40710D01*
X39243Y-40710D02*
X48010Y-40710D01*
X14690Y-40790D02*
X21360Y-40790D01*
X39163Y-40790D02*
X48010Y-40790D01*
X14690Y-40870D02*
X21366Y-40870D01*
X39083Y-40870D02*
X48010Y-40870D01*
X14690Y-40950D02*
X21399Y-40950D01*
X22170Y-40950D02*
X22237Y-40950D01*
X39003Y-40950D02*
X48010Y-40950D01*
X14690Y-41030D02*
X21444Y-41030D01*
X22126Y-41030D02*
X22157Y-41030D01*
X38923Y-41030D02*
X48010Y-41030D01*
X14690Y-41110D02*
X21524Y-41110D01*
X22046Y-41110D02*
X22077Y-41110D01*
X38843Y-41110D02*
X48010Y-41110D01*
X14690Y-41190D02*
X21688Y-41190D01*
X21881Y-41190D02*
X21997Y-41190D01*
X38763Y-41190D02*
X48010Y-41190D01*
X14690Y-41270D02*
X21917Y-41270D01*
X38683Y-41270D02*
X48010Y-41270D01*
X14690Y-41350D02*
X21837Y-41350D01*
X38603Y-41350D02*
X48010Y-41350D01*
X14690Y-41430D02*
X21626Y-41430D01*
X38523Y-41430D02*
X48010Y-41430D01*
X14690Y-41510D02*
X21487Y-41510D01*
X38443Y-41510D02*
X48010Y-41510D01*
X14690Y-41590D02*
X21407Y-41590D01*
X38363Y-41590D02*
X48010Y-41590D01*
X14690Y-41670D02*
X21374Y-41670D01*
X38283Y-41670D02*
X48010Y-41670D01*
X14690Y-41750D02*
X21341Y-41750D01*
X38203Y-41750D02*
X48010Y-41750D01*
X14690Y-41830D02*
X17387Y-41830D01*
X17877Y-41830D02*
X21341Y-41830D01*
X38123Y-41830D02*
X48010Y-41830D01*
X14690Y-41910D02*
X17307Y-41910D01*
X17957Y-41910D02*
X21341Y-41910D01*
X38043Y-41910D02*
X48010Y-41910D01*
X14690Y-41990D02*
X17254Y-41990D01*
X18012Y-41990D02*
X21371Y-41990D01*
X37963Y-41990D02*
X48010Y-41990D01*
X14690Y-42070D02*
X17220Y-42070D01*
X18044Y-42070D02*
X21404Y-42070D01*
X22127Y-42070D02*
X22177Y-42070D01*
X37883Y-42070D02*
X48010Y-42070D01*
X14690Y-42150D02*
X17207Y-42150D01*
X18057Y-42150D02*
X21483Y-42150D01*
X22049Y-42150D02*
X22249Y-42150D01*
X37803Y-42150D02*
X48010Y-42150D01*
X14690Y-42230D02*
X17207Y-42230D01*
X18086Y-42230D02*
X21616Y-42230D01*
X21915Y-42230D02*
X22365Y-42230D01*
X37753Y-42230D02*
X48010Y-42230D01*
X14690Y-42310D02*
X17223Y-42310D01*
X18166Y-42310D02*
X22741Y-42310D01*
X37753Y-42310D02*
X48010Y-42310D01*
X14690Y-42390D02*
X17256Y-42390D01*
X18246Y-42390D02*
X22872Y-42390D01*
X37753Y-42390D02*
X48010Y-42390D01*
X14690Y-42470D02*
X17315Y-42470D01*
X18326Y-42470D02*
X23092Y-42470D01*
X37753Y-42470D02*
X48010Y-42470D01*
X14690Y-42550D02*
X17400Y-42550D01*
X18406Y-42550D02*
X23172Y-42550D01*
X37753Y-42550D02*
X48010Y-42550D01*
X14690Y-42630D02*
X17665Y-42630D01*
X18486Y-42630D02*
X23252Y-42630D01*
X37753Y-42630D02*
X48010Y-42630D01*
X14690Y-42710D02*
X17745Y-42710D01*
X18566Y-42710D02*
X23332Y-42710D01*
X37753Y-42710D02*
X48010Y-42710D01*
X14690Y-42790D02*
X17825Y-42790D01*
X18646Y-42790D02*
X23412Y-42790D01*
X37753Y-42790D02*
X48010Y-42790D01*
X14690Y-42870D02*
X17905Y-42870D01*
X18726Y-42870D02*
X23492Y-42870D01*
X37753Y-42870D02*
X48010Y-42870D01*
X14690Y-42950D02*
X17985Y-42950D01*
X18806Y-42950D02*
X23572Y-42950D01*
X37753Y-42950D02*
X48010Y-42950D01*
X14690Y-43030D02*
X18065Y-43030D01*
X18886Y-43030D02*
X23652Y-43030D01*
X37753Y-43030D02*
X48010Y-43030D01*
X14690Y-43110D02*
X18145Y-43110D01*
X18966Y-43110D02*
X23732Y-43110D01*
X37753Y-43110D02*
X48010Y-43110D01*
X14690Y-43190D02*
X18225Y-43190D01*
X19046Y-43190D02*
X23812Y-43190D01*
X37753Y-43190D02*
X48010Y-43190D01*
X14690Y-43270D02*
X18305Y-43270D01*
X19126Y-43270D02*
X23892Y-43270D01*
X37753Y-43270D02*
X48010Y-43270D01*
X14690Y-43350D02*
X18385Y-43350D01*
X19206Y-43350D02*
X23972Y-43350D01*
X37753Y-43350D02*
X48010Y-43350D01*
X14690Y-43430D02*
X18465Y-43430D01*
X19286Y-43430D02*
X24052Y-43430D01*
X37753Y-43430D02*
X48010Y-43430D01*
X14690Y-43510D02*
X18545Y-43510D01*
X19366Y-43510D02*
X20637Y-43510D01*
X20830Y-43510D02*
X22731Y-43510D01*
X22929Y-43510D02*
X24132Y-43510D01*
X37753Y-43510D02*
X48010Y-43510D01*
X14690Y-43590D02*
X18625Y-43590D01*
X19446Y-43590D02*
X20472Y-43590D01*
X20994Y-43590D02*
X22567Y-43590D01*
X23091Y-43590D02*
X24212Y-43590D01*
X37753Y-43590D02*
X48010Y-43590D01*
X14690Y-43670D02*
X18705Y-43670D01*
X21074Y-43670D02*
X22487Y-43670D01*
X23171Y-43670D02*
X24292Y-43670D01*
X37753Y-43670D02*
X48010Y-43670D01*
X14690Y-43750D02*
X18785Y-43750D01*
X21119Y-43750D02*
X22444Y-43750D01*
X23216Y-43750D02*
X24372Y-43750D01*
X37753Y-43750D02*
X48010Y-43750D01*
X14690Y-43830D02*
X18865Y-43830D01*
X21152Y-43830D02*
X22410Y-43830D01*
X23248Y-43830D02*
X24452Y-43830D01*
X37753Y-43830D02*
X48010Y-43830D01*
X14690Y-43910D02*
X18945Y-43910D01*
X21158Y-43910D02*
X22404Y-43910D01*
X23254Y-43910D02*
X24532Y-43910D01*
X37753Y-43910D02*
X48010Y-43910D01*
X14690Y-43990D02*
X19025Y-43990D01*
X21204Y-43990D02*
X22404Y-43990D01*
X23300Y-43990D02*
X24612Y-43990D01*
X37753Y-43990D02*
X48010Y-43990D01*
X14690Y-44070D02*
X19105Y-44070D01*
X21284Y-44070D02*
X22427Y-44070D01*
X23380Y-44070D02*
X24692Y-44070D01*
X37753Y-44070D02*
X48010Y-44070D01*
X14690Y-44150D02*
X19192Y-44150D01*
X21364Y-44150D02*
X22460Y-44150D01*
X23460Y-44150D02*
X24772Y-44150D01*
X37753Y-44150D02*
X48010Y-44150D01*
X14690Y-44230D02*
X20432Y-44230D01*
X21444Y-44230D02*
X22529Y-44230D01*
X23540Y-44230D02*
X24852Y-44230D01*
X37753Y-44230D02*
X48010Y-44230D01*
X14690Y-44310D02*
X20540Y-44310D01*
X21524Y-44310D02*
X22638Y-44310D01*
X23620Y-44310D02*
X24932Y-44310D01*
X37753Y-44310D02*
X48010Y-44310D01*
X14690Y-44390D02*
X20782Y-44390D01*
X21604Y-44390D02*
X22879Y-44390D01*
X23700Y-44390D02*
X25012Y-44390D01*
X37753Y-44390D02*
X48010Y-44390D01*
X14690Y-44470D02*
X20862Y-44470D01*
X21684Y-44470D02*
X22959Y-44470D01*
X23780Y-44470D02*
X25092Y-44470D01*
X37753Y-44470D02*
X48010Y-44470D01*
X14690Y-44550D02*
X20942Y-44550D01*
X21764Y-44550D02*
X23039Y-44550D01*
X23860Y-44550D02*
X25172Y-44550D01*
X37753Y-44550D02*
X48010Y-44550D01*
X14690Y-44630D02*
X21022Y-44630D01*
X21844Y-44630D02*
X23119Y-44630D01*
X23940Y-44630D02*
X25252Y-44630D01*
X37753Y-44630D02*
X48010Y-44630D01*
X14690Y-44710D02*
X21102Y-44710D01*
X21924Y-44710D02*
X23199Y-44710D01*
X24020Y-44710D02*
X25332Y-44710D01*
X37753Y-44710D02*
X48010Y-44710D01*
X14690Y-44790D02*
X21182Y-44790D01*
X22004Y-44790D02*
X23279Y-44790D01*
X24100Y-44790D02*
X25412Y-44790D01*
X37753Y-44790D02*
X48010Y-44790D01*
X14690Y-44870D02*
X21262Y-44870D01*
X22084Y-44870D02*
X23359Y-44870D01*
X24180Y-44870D02*
X25492Y-44870D01*
X37753Y-44870D02*
X48010Y-44870D01*
X14690Y-44950D02*
X21342Y-44950D01*
X22164Y-44950D02*
X23439Y-44950D01*
X24260Y-44950D02*
X25572Y-44950D01*
X37753Y-44950D02*
X48010Y-44950D01*
X14690Y-45030D02*
X21422Y-45030D01*
X22244Y-45030D02*
X23519Y-45030D01*
X24340Y-45030D02*
X25652Y-45030D01*
X37753Y-45030D02*
X48010Y-45030D01*
X14690Y-45110D02*
X21502Y-45110D01*
X22324Y-45110D02*
X23599Y-45110D01*
X24420Y-45110D02*
X25732Y-45110D01*
X37753Y-45110D02*
X48010Y-45110D01*
X14690Y-45190D02*
X21582Y-45190D01*
X22404Y-45190D02*
X23679Y-45190D01*
X24500Y-45190D02*
X25812Y-45190D01*
X37753Y-45190D02*
X48010Y-45190D01*
X14690Y-45270D02*
X21662Y-45270D01*
X22484Y-45270D02*
X23759Y-45270D01*
X24580Y-45270D02*
X25892Y-45270D01*
X37753Y-45270D02*
X48010Y-45270D01*
X14690Y-45350D02*
X21742Y-45350D01*
X22564Y-45350D02*
X23839Y-45350D01*
X24660Y-45350D02*
X25972Y-45350D01*
X37753Y-45350D02*
X48010Y-45350D01*
X14690Y-45430D02*
X21822Y-45430D01*
X22644Y-45430D02*
X23919Y-45430D01*
X24740Y-45430D02*
X26052Y-45430D01*
X37753Y-45430D02*
X48010Y-45430D01*
X14690Y-45510D02*
X21902Y-45510D01*
X22724Y-45510D02*
X23999Y-45510D01*
X24820Y-45510D02*
X26132Y-45510D01*
X37753Y-45510D02*
X48010Y-45510D01*
X14690Y-45590D02*
X21982Y-45590D01*
X22804Y-45590D02*
X24079Y-45590D01*
X24900Y-45590D02*
X26212Y-45590D01*
X37753Y-45590D02*
X48010Y-45590D01*
X14690Y-45670D02*
X22062Y-45670D01*
X22884Y-45670D02*
X24159Y-45670D01*
X24980Y-45670D02*
X26292Y-45670D01*
X37753Y-45670D02*
X48010Y-45670D01*
X14690Y-45750D02*
X22142Y-45750D01*
X22964Y-45750D02*
X24239Y-45750D01*
X25060Y-45750D02*
X26372Y-45750D01*
X37753Y-45750D02*
X48010Y-45750D01*
X14690Y-45830D02*
X22222Y-45830D01*
X23044Y-45830D02*
X24319Y-45830D01*
X25140Y-45830D02*
X26452Y-45830D01*
X37753Y-45830D02*
X48010Y-45830D01*
X14690Y-45910D02*
X22302Y-45910D01*
X23124Y-45910D02*
X24399Y-45910D01*
X25220Y-45910D02*
X26532Y-45910D01*
X37753Y-45910D02*
X48010Y-45910D01*
X14690Y-45990D02*
X22382Y-45990D01*
X23204Y-45990D02*
X24479Y-45990D01*
X25300Y-45990D02*
X26612Y-45990D01*
X37753Y-45990D02*
X48010Y-45990D01*
X14690Y-46070D02*
X22462Y-46070D01*
X23284Y-46070D02*
X24559Y-46070D01*
X25380Y-46070D02*
X26692Y-46070D01*
X37753Y-46070D02*
X48010Y-46070D01*
X14690Y-46150D02*
X22542Y-46150D01*
X23364Y-46150D02*
X24639Y-46150D01*
X25460Y-46150D02*
X26772Y-46150D01*
X37753Y-46150D02*
X48010Y-46150D01*
X14690Y-46230D02*
X22622Y-46230D01*
X23444Y-46230D02*
X24719Y-46230D01*
X25540Y-46230D02*
X26852Y-46230D01*
X37753Y-46230D02*
X48010Y-46230D01*
X14690Y-46310D02*
X22702Y-46310D01*
X23524Y-46310D02*
X24799Y-46310D01*
X25620Y-46310D02*
X26932Y-46310D01*
X37753Y-46310D02*
X48010Y-46310D01*
X14690Y-46390D02*
X22782Y-46390D01*
X23604Y-46390D02*
X24879Y-46390D01*
X25700Y-46390D02*
X27012Y-46390D01*
X37753Y-46390D02*
X48010Y-46390D01*
X14690Y-46470D02*
X22862Y-46470D01*
X23684Y-46470D02*
X24959Y-46470D01*
X25780Y-46470D02*
X27092Y-46470D01*
X37753Y-46470D02*
X48010Y-46470D01*
X14690Y-46550D02*
X22942Y-46550D01*
X23764Y-46550D02*
X25039Y-46550D01*
X25860Y-46550D02*
X27172Y-46550D01*
X37753Y-46550D02*
X48010Y-46550D01*
X14690Y-46630D02*
X23022Y-46630D01*
X23844Y-46630D02*
X25119Y-46630D01*
X25940Y-46630D02*
X27252Y-46630D01*
X37753Y-46630D02*
X48010Y-46630D01*
X14690Y-46710D02*
X23102Y-46710D01*
X23924Y-46710D02*
X25199Y-46710D01*
X26020Y-46710D02*
X27332Y-46710D01*
X37753Y-46710D02*
X48010Y-46710D01*
X14690Y-46790D02*
X23182Y-46790D01*
X24004Y-46790D02*
X25279Y-46790D01*
X26100Y-46790D02*
X27412Y-46790D01*
X37827Y-46790D02*
X48010Y-46790D01*
X14690Y-46870D02*
X23262Y-46870D01*
X24084Y-46870D02*
X25359Y-46870D01*
X26180Y-46870D02*
X27492Y-46870D01*
X37859Y-46870D02*
X48010Y-46870D01*
X14690Y-46950D02*
X23342Y-46950D01*
X24164Y-46950D02*
X25439Y-46950D01*
X26260Y-46950D02*
X27572Y-46950D01*
X37888Y-46950D02*
X48010Y-46950D01*
X14690Y-47030D02*
X23422Y-47030D01*
X24244Y-47030D02*
X25519Y-47030D01*
X26340Y-47030D02*
X27652Y-47030D01*
X37888Y-47030D02*
X48010Y-47030D01*
X14690Y-47110D02*
X23502Y-47110D01*
X24324Y-47110D02*
X25599Y-47110D01*
X26420Y-47110D02*
X27732Y-47110D01*
X37888Y-47110D02*
X48010Y-47110D01*
X14690Y-47190D02*
X23582Y-47190D01*
X24404Y-47190D02*
X25679Y-47190D01*
X26500Y-47190D02*
X27839Y-47190D01*
X37854Y-47190D02*
X48010Y-47190D01*
X14690Y-47270D02*
X23662Y-47270D01*
X24484Y-47270D02*
X25759Y-47270D01*
X26580Y-47270D02*
X28908Y-47270D01*
X37819Y-47270D02*
X48010Y-47270D01*
X14690Y-47350D02*
X23742Y-47350D01*
X24564Y-47350D02*
X25839Y-47350D01*
X26660Y-47350D02*
X28988Y-47350D01*
X37739Y-47350D02*
X48010Y-47350D01*
X14690Y-47430D02*
X23822Y-47430D01*
X24644Y-47430D02*
X25919Y-47430D01*
X26740Y-47430D02*
X28647Y-47430D01*
X37595Y-47430D02*
X48010Y-47430D01*
X14690Y-47510D02*
X23902Y-47510D01*
X24724Y-47510D02*
X25999Y-47510D01*
X26820Y-47510D02*
X28542Y-47510D01*
X37434Y-47510D02*
X48010Y-47510D01*
X14690Y-47590D02*
X23982Y-47590D01*
X24804Y-47590D02*
X26079Y-47590D01*
X26900Y-47590D02*
X28476Y-47590D01*
X37434Y-47590D02*
X48010Y-47590D01*
X14690Y-47670D02*
X24062Y-47670D01*
X24884Y-47670D02*
X26159Y-47670D01*
X26980Y-47670D02*
X28443Y-47670D01*
X37434Y-47670D02*
X48010Y-47670D01*
X14690Y-47750D02*
X24142Y-47750D01*
X24964Y-47750D02*
X26239Y-47750D01*
X27060Y-47750D02*
X28420Y-47750D01*
X37434Y-47750D02*
X48010Y-47750D01*
X14690Y-47830D02*
X24222Y-47830D01*
X25044Y-47830D02*
X26319Y-47830D01*
X27165Y-47830D02*
X28420Y-47830D01*
X37434Y-47830D02*
X48010Y-47830D01*
X14690Y-47910D02*
X24302Y-47910D01*
X25124Y-47910D02*
X26399Y-47910D01*
X27281Y-47910D02*
X28427Y-47910D01*
X37434Y-47910D02*
X48010Y-47910D01*
X14690Y-47990D02*
X24382Y-47990D01*
X25204Y-47990D02*
X26479Y-47990D01*
X27353Y-47990D02*
X28460Y-47990D01*
X37434Y-47990D02*
X48010Y-47990D01*
X14690Y-48070D02*
X24462Y-48070D01*
X25284Y-48070D02*
X26559Y-48070D01*
X27386Y-48070D02*
X28506Y-48070D01*
X37434Y-48070D02*
X48010Y-48070D01*
X14690Y-48150D02*
X24542Y-48150D01*
X25364Y-48150D02*
X26561Y-48150D01*
X27411Y-48150D02*
X28555Y-48150D01*
X37434Y-48150D02*
X48010Y-48150D01*
X14690Y-48230D02*
X24622Y-48230D01*
X25444Y-48230D02*
X26561Y-48230D01*
X27411Y-48230D02*
X28555Y-48230D01*
X37434Y-48230D02*
X48010Y-48230D01*
X14690Y-48310D02*
X24702Y-48310D01*
X25524Y-48310D02*
X26565Y-48310D01*
X27407Y-48310D02*
X28555Y-48310D01*
X37434Y-48310D02*
X48010Y-48310D01*
X14690Y-48390D02*
X24782Y-48390D01*
X25604Y-48390D02*
X26597Y-48390D01*
X27373Y-48390D02*
X28555Y-48390D01*
X37431Y-48390D02*
X48010Y-48390D01*
X14690Y-48470D02*
X24862Y-48470D01*
X25684Y-48470D02*
X26639Y-48470D01*
X27333Y-48470D02*
X28555Y-48470D01*
X37415Y-48470D02*
X48010Y-48470D01*
X14690Y-48550D02*
X24942Y-48550D01*
X25764Y-48550D02*
X26719Y-48550D01*
X27253Y-48550D02*
X28555Y-48550D01*
X37370Y-48550D02*
X48010Y-48550D01*
X14690Y-48630D02*
X25022Y-48630D01*
X25844Y-48630D02*
X26874Y-48630D01*
X27096Y-48630D02*
X28555Y-48630D01*
X37301Y-48630D02*
X48010Y-48630D01*
X14690Y-48710D02*
X25102Y-48710D01*
X25924Y-48710D02*
X28555Y-48710D01*
X37221Y-48710D02*
X48010Y-48710D01*
X14690Y-48790D02*
X25182Y-48790D01*
X26004Y-48790D02*
X27019Y-48790D01*
X27415Y-48790D02*
X28555Y-48790D01*
X37141Y-48790D02*
X48010Y-48790D01*
X14690Y-48870D02*
X25262Y-48870D01*
X26084Y-48870D02*
X26914Y-48870D01*
X27520Y-48870D02*
X28555Y-48870D01*
X37061Y-48870D02*
X48010Y-48870D01*
X14690Y-48950D02*
X25342Y-48950D01*
X27588Y-48950D02*
X28555Y-48950D01*
X36981Y-48950D02*
X48010Y-48950D01*
X14690Y-49030D02*
X25422Y-49030D01*
X27620Y-49030D02*
X28555Y-49030D01*
X36964Y-49030D02*
X48010Y-49030D01*
X14690Y-49110D02*
X25502Y-49110D01*
X27642Y-49110D02*
X28555Y-49110D01*
X36946Y-49110D02*
X48010Y-49110D01*
X14690Y-49190D02*
X25582Y-49190D01*
X27642Y-49190D02*
X28555Y-49190D01*
X36912Y-49190D02*
X48010Y-49190D01*
X14690Y-49270D02*
X25662Y-49270D01*
X27634Y-49270D02*
X28555Y-49270D01*
X36206Y-49270D02*
X36226Y-49270D01*
X36852Y-49270D02*
X48010Y-49270D01*
X14690Y-49350D02*
X25742Y-49350D01*
X27601Y-49350D02*
X28555Y-49350D01*
X36126Y-49350D02*
X36317Y-49350D01*
X36761Y-49350D02*
X48010Y-49350D01*
X14690Y-49430D02*
X25850Y-49430D01*
X27556Y-49430D02*
X28555Y-49430D01*
X36046Y-49430D02*
X48010Y-49430D01*
X14690Y-49510D02*
X26958Y-49510D01*
X27476Y-49510D02*
X28555Y-49510D01*
X35967Y-49510D02*
X48010Y-49510D01*
X14690Y-49590D02*
X27124Y-49590D01*
X27308Y-49590D02*
X28555Y-49590D01*
X35887Y-49590D02*
X48010Y-49590D01*
X14690Y-49670D02*
X28555Y-49670D01*
X35875Y-49670D02*
X48010Y-49670D01*
X14690Y-49750D02*
X28555Y-49750D01*
X35855Y-49750D02*
X48010Y-49750D01*
X14690Y-49830D02*
X28555Y-49830D01*
X35822Y-49830D02*
X48010Y-49830D01*
X14690Y-49910D02*
X28555Y-49910D01*
X35759Y-49910D02*
X48010Y-49910D01*
X14690Y-49990D02*
X28555Y-49990D01*
X29455Y-49990D02*
X29576Y-49990D01*
X35663Y-49990D02*
X48010Y-49990D01*
X14690Y-50070D02*
X28555Y-50070D01*
X29455Y-50070D02*
X29656Y-50070D01*
X35421Y-50070D02*
X48010Y-50070D01*
X14690Y-50150D02*
X28555Y-50150D01*
X29455Y-50150D02*
X29736Y-50150D01*
X35421Y-50150D02*
X48010Y-50150D01*
X14690Y-50230D02*
X28555Y-50230D01*
X29455Y-50230D02*
X29816Y-50230D01*
X35421Y-50230D02*
X48010Y-50230D01*
X14690Y-50310D02*
X28555Y-50310D01*
X29455Y-50310D02*
X29896Y-50310D01*
X35421Y-50310D02*
X48010Y-50310D01*
X14690Y-50390D02*
X28555Y-50390D01*
X29455Y-50390D02*
X29976Y-50390D01*
X35421Y-50390D02*
X48010Y-50390D01*
X14690Y-50470D02*
X28555Y-50470D01*
X29455Y-50470D02*
X30056Y-50470D01*
X35421Y-50470D02*
X48010Y-50470D01*
X14690Y-50550D02*
X28555Y-50550D01*
X29455Y-50550D02*
X30136Y-50550D01*
X35421Y-50550D02*
X48010Y-50550D01*
X14690Y-50630D02*
X28555Y-50630D01*
X29455Y-50630D02*
X30216Y-50630D01*
X35421Y-50630D02*
X48010Y-50630D01*
X14690Y-50710D02*
X28555Y-50710D01*
X29455Y-50710D02*
X30296Y-50710D01*
X35421Y-50710D02*
X48010Y-50710D01*
X14690Y-50790D02*
X28555Y-50790D01*
X29455Y-50790D02*
X30376Y-50790D01*
X35421Y-50790D02*
X48010Y-50790D01*
X14690Y-50870D02*
X28555Y-50870D01*
X29455Y-50870D02*
X30456Y-50870D01*
X35421Y-50870D02*
X48010Y-50870D01*
X14690Y-50950D02*
X28555Y-50950D01*
X29455Y-50950D02*
X30536Y-50950D01*
X35421Y-50950D02*
X48010Y-50950D01*
X14690Y-51030D02*
X28555Y-51030D01*
X29455Y-51030D02*
X30616Y-51030D01*
X35421Y-51030D02*
X48010Y-51030D01*
X14690Y-51110D02*
X28555Y-51110D01*
X29455Y-51110D02*
X30696Y-51110D01*
X35421Y-51110D02*
X48010Y-51110D01*
X14690Y-51190D02*
X28555Y-51190D01*
X29455Y-51190D02*
X30776Y-51190D01*
X35421Y-51190D02*
X48010Y-51190D01*
X14690Y-51270D02*
X28555Y-51270D01*
X29455Y-51270D02*
X30856Y-51270D01*
X35421Y-51270D02*
X48010Y-51270D01*
X14690Y-51350D02*
X28555Y-51350D01*
X29455Y-51350D02*
X30936Y-51350D01*
X35421Y-51350D02*
X48010Y-51350D01*
X14690Y-51430D02*
X28555Y-51430D01*
X29455Y-51430D02*
X31016Y-51430D01*
X35421Y-51430D02*
X48010Y-51430D01*
X14690Y-51510D02*
X28555Y-51510D01*
X29455Y-51510D02*
X31096Y-51510D01*
X35421Y-51510D02*
X48010Y-51510D01*
X14690Y-51590D02*
X28555Y-51590D01*
X29455Y-51590D02*
X31176Y-51590D01*
X35421Y-51590D02*
X48010Y-51590D01*
X14690Y-51670D02*
X28555Y-51670D01*
X29455Y-51670D02*
X31256Y-51670D01*
X35421Y-51670D02*
X48010Y-51670D01*
X14690Y-51750D02*
X28555Y-51750D01*
X29455Y-51750D02*
X31336Y-51750D01*
X35421Y-51750D02*
X48010Y-51750D01*
X14690Y-51830D02*
X28555Y-51830D01*
X29455Y-51830D02*
X31416Y-51830D01*
X35421Y-51830D02*
X48010Y-51830D01*
X14690Y-51910D02*
X28555Y-51910D01*
X29455Y-51910D02*
X31496Y-51910D01*
X35421Y-51910D02*
X48010Y-51910D01*
X14690Y-51990D02*
X28555Y-51990D01*
X29518Y-51990D02*
X30482Y-51990D01*
X30936Y-51990D02*
X31576Y-51990D01*
X35421Y-51990D02*
X48010Y-51990D01*
X14690Y-52070D02*
X28555Y-52070D01*
X29598Y-52070D02*
X30394Y-52070D01*
X31024Y-52070D02*
X31656Y-52070D01*
X35421Y-52070D02*
X48010Y-52070D01*
X14690Y-52150D02*
X28555Y-52150D01*
X29678Y-52150D02*
X30335Y-52150D01*
X31084Y-52150D02*
X31736Y-52150D01*
X35417Y-52150D02*
X48010Y-52150D01*
X14690Y-52230D02*
X28555Y-52230D01*
X29758Y-52230D02*
X30302Y-52230D01*
X31117Y-52230D02*
X31816Y-52230D01*
X35401Y-52230D02*
X48010Y-52230D01*
X14690Y-52310D02*
X28555Y-52310D01*
X29838Y-52310D02*
X30284Y-52310D01*
X31134Y-52310D02*
X31896Y-52310D01*
X35353Y-52310D02*
X48010Y-52310D01*
X14690Y-52390D02*
X28555Y-52390D01*
X29918Y-52390D02*
X30284Y-52390D01*
X31153Y-52390D02*
X31976Y-52390D01*
X35282Y-52390D02*
X48010Y-52390D01*
X14690Y-52470D02*
X28555Y-52470D01*
X29135Y-52470D02*
X29178Y-52470D01*
X29998Y-52470D02*
X30296Y-52470D01*
X31233Y-52470D02*
X32056Y-52470D01*
X35202Y-52470D02*
X48010Y-52470D01*
X14690Y-52550D02*
X28555Y-52550D01*
X29135Y-52550D02*
X29258Y-52550D01*
X30269Y-52550D02*
X30329Y-52550D01*
X31313Y-52550D02*
X32136Y-52550D01*
X35122Y-52550D02*
X48010Y-52550D01*
X14690Y-52630D02*
X28555Y-52630D01*
X29135Y-52630D02*
X29338Y-52630D01*
X30349Y-52630D02*
X30382Y-52630D01*
X31393Y-52630D02*
X32216Y-52630D01*
X35042Y-52630D02*
X48010Y-52630D01*
X14690Y-52710D02*
X28555Y-52710D01*
X29135Y-52710D02*
X29418Y-52710D01*
X30399Y-52710D02*
X30462Y-52710D01*
X31473Y-52710D02*
X32296Y-52710D01*
X34962Y-52710D02*
X48010Y-52710D01*
X14690Y-52790D02*
X28555Y-52790D01*
X29135Y-52790D02*
X29498Y-52790D01*
X30432Y-52790D02*
X30733Y-52790D01*
X31553Y-52790D02*
X32376Y-52790D01*
X34882Y-52790D02*
X48010Y-52790D01*
X14690Y-52870D02*
X28555Y-52870D01*
X29135Y-52870D02*
X29578Y-52870D01*
X30441Y-52870D02*
X30813Y-52870D01*
X31633Y-52870D02*
X32456Y-52870D01*
X34802Y-52870D02*
X48010Y-52870D01*
X14690Y-52950D02*
X28555Y-52950D01*
X29135Y-52950D02*
X29591Y-52950D01*
X30441Y-52950D02*
X30893Y-52950D01*
X34722Y-52950D02*
X48010Y-52950D01*
X14690Y-53030D02*
X28555Y-53030D01*
X29135Y-53030D02*
X29610Y-53030D01*
X30421Y-53030D02*
X30973Y-53030D01*
X34642Y-53030D02*
X48010Y-53030D01*
X14690Y-53110D02*
X28555Y-53110D01*
X29135Y-53110D02*
X29643Y-53110D01*
X30388Y-53110D02*
X31053Y-53110D01*
X34562Y-53110D02*
X48010Y-53110D01*
X14690Y-53190D02*
X28555Y-53190D01*
X29135Y-53190D02*
X29707Y-53190D01*
X30325Y-53190D02*
X31133Y-53190D01*
X34482Y-53190D02*
X46158Y-53190D01*
X47042Y-53190D02*
X48010Y-53190D01*
X14690Y-53270D02*
X28555Y-53270D01*
X29135Y-53270D02*
X29803Y-53270D01*
X30229Y-53270D02*
X31213Y-53270D01*
X34402Y-53270D02*
X46085Y-53270D01*
X47116Y-53270D02*
X48010Y-53270D01*
X14690Y-53350D02*
X28555Y-53350D01*
X29161Y-53350D02*
X31293Y-53350D01*
X34322Y-53350D02*
X46051Y-53350D01*
X47149Y-53350D02*
X48010Y-53350D01*
X14690Y-53430D02*
X28555Y-53430D01*
X29241Y-53430D02*
X31373Y-53430D01*
X34242Y-53430D02*
X46051Y-53430D01*
X47149Y-53430D02*
X48010Y-53430D01*
X14690Y-53510D02*
X28568Y-53510D01*
X29321Y-53510D02*
X31528Y-53510D01*
X34086Y-53510D02*
X46051Y-53510D01*
X47149Y-53510D02*
X48010Y-53510D01*
X14690Y-53590D02*
X28600Y-53590D01*
X29401Y-53590D02*
X46051Y-53590D01*
X47149Y-53590D02*
X48010Y-53590D01*
X14690Y-53670D02*
X28661Y-53670D01*
X29481Y-53670D02*
X46051Y-53670D01*
X47149Y-53670D02*
X48010Y-53670D01*
X14690Y-53750D02*
X28741Y-53750D01*
X29745Y-53750D02*
X46051Y-53750D01*
X47149Y-53750D02*
X48010Y-53750D01*
X14690Y-53830D02*
X28821Y-53830D01*
X29832Y-53830D02*
X46051Y-53830D01*
X47149Y-53830D02*
X48010Y-53830D01*
X14690Y-53910D02*
X28901Y-53910D01*
X29892Y-53910D02*
X46051Y-53910D01*
X47149Y-53910D02*
X48010Y-53910D01*
X14690Y-53990D02*
X28981Y-53990D01*
X29925Y-53990D02*
X46051Y-53990D01*
X47149Y-53990D02*
X48010Y-53990D01*
X14690Y-54070D02*
X29061Y-54070D01*
X29941Y-54070D02*
X46059Y-54070D01*
X47140Y-54070D02*
X48010Y-54070D01*
X14690Y-54150D02*
X29091Y-54150D01*
X29941Y-54150D02*
X46098Y-54150D01*
X47102Y-54150D02*
X48010Y-54150D01*
X14690Y-54230D02*
X29103Y-54230D01*
X29928Y-54230D02*
X46204Y-54230D01*
X46995Y-54230D02*
X48010Y-54230D01*
X14690Y-54310D02*
X29136Y-54310D01*
X29895Y-54310D02*
X46296Y-54310D01*
X46905Y-54310D02*
X48010Y-54310D01*
X14690Y-54390D02*
X29190Y-54390D01*
X29842Y-54390D02*
X46360Y-54390D01*
X46839Y-54390D02*
X48010Y-54390D01*
X14690Y-54470D02*
X18113Y-54470D01*
X28868Y-54470D02*
X29270Y-54470D01*
X29762Y-54470D02*
X46111Y-54470D01*
X46300Y-54470D02*
X46440Y-54470D01*
X46759Y-54470D02*
X46901Y-54470D01*
X47093Y-54470D02*
X48010Y-54470D01*
X14690Y-54550D02*
X18113Y-54550D01*
X28868Y-54550D02*
X46082Y-54550D01*
X46380Y-54550D02*
X46520Y-54550D01*
X46679Y-54550D02*
X46821Y-54550D01*
X47126Y-54550D02*
X48010Y-54550D01*
X14690Y-54630D02*
X18113Y-54630D01*
X28868Y-54630D02*
X46057Y-54630D01*
X46460Y-54630D02*
X46741Y-54630D01*
X47136Y-54630D02*
X48010Y-54630D01*
X14690Y-54710D02*
X18113Y-54710D01*
X28868Y-54710D02*
X46061Y-54710D01*
X46519Y-54710D02*
X46680Y-54710D01*
X47140Y-54710D02*
X48010Y-54710D01*
X14690Y-54790D02*
X18113Y-54790D01*
X28868Y-54790D02*
X46065Y-54790D01*
X46439Y-54790D02*
X46581Y-54790D01*
X46620Y-54790D02*
X46760Y-54790D01*
X47139Y-54790D02*
X48010Y-54790D01*
X14690Y-54870D02*
X18113Y-54870D01*
X28868Y-54870D02*
X46082Y-54870D01*
X46359Y-54870D02*
X46501Y-54870D01*
X46700Y-54870D02*
X46840Y-54870D01*
X47111Y-54870D02*
X48010Y-54870D01*
X14690Y-54950D02*
X18113Y-54950D01*
X28868Y-54950D02*
X46115Y-54950D01*
X46279Y-54950D02*
X46421Y-54950D01*
X46780Y-54950D02*
X46920Y-54950D01*
X47082Y-54950D02*
X48010Y-54950D01*
X14690Y-55030D02*
X18113Y-55030D01*
X28868Y-55030D02*
X46341Y-55030D01*
X46860Y-55030D02*
X48010Y-55030D01*
X14690Y-55110D02*
X18113Y-55110D01*
X28868Y-55110D02*
X46301Y-55110D01*
X46898Y-55110D02*
X48010Y-55110D01*
X14690Y-55190D02*
X18113Y-55190D01*
X28868Y-55190D02*
X46370Y-55190D01*
X46836Y-55190D02*
X48010Y-55190D01*
X14690Y-55270D02*
X18113Y-55270D01*
X28868Y-55270D02*
X48010Y-55270D01*
X14690Y-55350D02*
X18113Y-55350D01*
X28868Y-55350D02*
X48010Y-55350D01*
X14690Y-55430D02*
X18113Y-55430D01*
X28868Y-55430D02*
X48010Y-55430D01*
X14690Y-55510D02*
X18113Y-55510D01*
X28868Y-55510D02*
X48010Y-55510D01*
X14690Y-55590D02*
X18113Y-55590D01*
X28868Y-55590D02*
X48010Y-55590D01*
X14690Y-55670D02*
X18113Y-55670D01*
X28868Y-55670D02*
X48010Y-55670D01*
X14690Y-55750D02*
X18113Y-55750D01*
X28868Y-55750D02*
X48010Y-55750D01*
X14690Y-55830D02*
X18113Y-55830D01*
X28868Y-55830D02*
X48010Y-55830D01*
X14690Y-55910D02*
X18113Y-55910D01*
X28868Y-55910D02*
X48010Y-55910D01*
X14690Y-55990D02*
X18113Y-55990D01*
X28868Y-55990D02*
X48010Y-55990D01*
X33830Y-37740D02*
X33830Y-37740D01*
X33730Y-37820D02*
X33910Y-37820D01*
X33810Y-37900D02*
X33990Y-37900D01*
X33890Y-37980D02*
X34070Y-37980D01*
X33970Y-38060D02*
X34150Y-38060D01*
X34050Y-38140D02*
X34230Y-38140D01*
X34130Y-38220D02*
X34310Y-38220D01*
X34210Y-38300D02*
X34390Y-38300D01*
X34290Y-38380D02*
X34470Y-38380D01*
X34370Y-38460D02*
X34550Y-38460D01*
X34450Y-38540D02*
X34630Y-38540D01*
X34530Y-38620D02*
X34710Y-38620D01*
X34610Y-38700D02*
X34790Y-38700D01*
X34690Y-38780D02*
X34870Y-38780D01*
X34770Y-38860D02*
X34950Y-38860D01*
X34850Y-38940D02*
X35030Y-38940D01*
X34922Y-39020D02*
X35110Y-39020D01*
X34969Y-39100D02*
X35190Y-39100D01*
X34985Y-39180D02*
X35270Y-39180D01*
X34988Y-39260D02*
X35350Y-39260D01*
X34988Y-39340D02*
X35430Y-39340D01*
X34988Y-39420D02*
X35510Y-39420D01*
X34988Y-39500D02*
X35590Y-39500D01*
X34988Y-39580D02*
X35611Y-39580D01*
X34988Y-39660D02*
X35611Y-39660D01*
X34988Y-39740D02*
X35611Y-39740D01*
X34988Y-39820D02*
X35611Y-39820D01*
X34988Y-39900D02*
X35611Y-39900D01*
X34988Y-39980D02*
X35611Y-39980D01*
X34988Y-40060D02*
X35611Y-40060D01*
X34988Y-40140D02*
X35611Y-40140D01*
X34988Y-40220D02*
X35611Y-40220D01*
X34988Y-40300D02*
X35611Y-40300D01*
X34988Y-40380D02*
X35611Y-40380D01*
X34988Y-40460D02*
X35611Y-40460D01*
X34988Y-40540D02*
X35611Y-40540D01*
X34988Y-40620D02*
X35611Y-40620D01*
X34988Y-40700D02*
X35611Y-40700D01*
X34988Y-40780D02*
X35611Y-40780D01*
X34988Y-40860D02*
X35611Y-40860D01*
X34988Y-40940D02*
X35611Y-40940D01*
X34988Y-41020D02*
X35611Y-41020D01*
X34988Y-41100D02*
X35611Y-41100D01*
X34988Y-41180D02*
X35611Y-41180D01*
X34988Y-41260D02*
X35611Y-41260D01*
X34988Y-41340D02*
X35611Y-41340D01*
X34988Y-41420D02*
X35611Y-41420D01*
X34988Y-41500D02*
X35611Y-41500D01*
X34988Y-41580D02*
X35611Y-41580D01*
X34988Y-41660D02*
X35611Y-41660D01*
X34988Y-41740D02*
X35611Y-41740D01*
X34988Y-41820D02*
X35611Y-41820D01*
X34988Y-41900D02*
X35611Y-41900D01*
X34988Y-41980D02*
X35611Y-41980D01*
X34988Y-42060D02*
X35611Y-42060D01*
X34988Y-42140D02*
X35611Y-42140D01*
X34988Y-42220D02*
X35611Y-42220D01*
X34988Y-42300D02*
X35611Y-42300D01*
X34988Y-42380D02*
X35611Y-42380D01*
X34988Y-42460D02*
X35611Y-42460D01*
X34988Y-42540D02*
X35611Y-42540D01*
X34988Y-42620D02*
X35611Y-42620D01*
X34988Y-42700D02*
X35611Y-42700D01*
X34988Y-42780D02*
X35611Y-42780D01*
X34988Y-42860D02*
X35611Y-42860D01*
X34988Y-42940D02*
X35611Y-42940D01*
X34988Y-43020D02*
X35611Y-43020D01*
X35032Y-43100D02*
X35611Y-43100D01*
X35081Y-43180D02*
X35611Y-43180D01*
X35114Y-43260D02*
X35611Y-43260D01*
X35123Y-43340D02*
X35611Y-43340D01*
X35123Y-43420D02*
X35611Y-43420D01*
X35103Y-43500D02*
X35611Y-43500D01*
X35069Y-43580D02*
X35611Y-43580D01*
X35006Y-43660D02*
X35611Y-43660D01*
X34908Y-43740D02*
X35611Y-43740D01*
X34754Y-43820D02*
X35611Y-43820D01*
X34754Y-43900D02*
X35611Y-43900D01*
X34754Y-43980D02*
X35611Y-43980D01*
X34754Y-44060D02*
X35611Y-44060D01*
X34754Y-44140D02*
X35611Y-44140D01*
X34754Y-44220D02*
X35611Y-44220D01*
X34754Y-44300D02*
X35611Y-44300D01*
X34751Y-44380D02*
X35611Y-44380D01*
X34735Y-44460D02*
X35611Y-44460D01*
X34691Y-44540D02*
X35611Y-44540D01*
X34623Y-44620D02*
X35611Y-44620D01*
X34543Y-44700D02*
X35611Y-44700D01*
X34463Y-44780D02*
X35611Y-44780D01*
X34383Y-44860D02*
X35611Y-44860D01*
X34303Y-44940D02*
X35611Y-44940D01*
X34223Y-45020D02*
X35611Y-45020D01*
X34143Y-45100D02*
X35611Y-45100D01*
X34064Y-45180D02*
X35611Y-45180D01*
X34064Y-45260D02*
X35611Y-45260D01*
X34038Y-45340D02*
X35611Y-45340D01*
X34005Y-45420D02*
X35611Y-45420D01*
X33934Y-45500D02*
X35611Y-45500D01*
X33984Y-45580D02*
X35611Y-45580D01*
X34064Y-45660D02*
X35611Y-45660D01*
X34144Y-45740D02*
X35611Y-45740D01*
X34224Y-45820D02*
X35611Y-45820D01*
X34304Y-45900D02*
X35611Y-45900D01*
X34384Y-45980D02*
X35611Y-45980D01*
X34464Y-46060D02*
X35611Y-46060D01*
X34544Y-46140D02*
X35611Y-46140D01*
X34624Y-46220D02*
X35611Y-46220D01*
X34704Y-46300D02*
X35611Y-46300D01*
X34784Y-46380D02*
X35611Y-46380D01*
X34864Y-46460D02*
X35611Y-46460D01*
X34944Y-46540D02*
X35611Y-46540D01*
X35024Y-46620D02*
X35611Y-46620D01*
X35104Y-46700D02*
X35611Y-46700D01*
X35184Y-46780D02*
X35611Y-46780D01*
X35264Y-46860D02*
X35611Y-46860D01*
X35344Y-46940D02*
X35576Y-46940D01*
X35424Y-47020D02*
X35527Y-47020D01*
X30200Y-37426D02*
X30200Y-37426D01*
X31200Y-37426D02*
X31200Y-37426D01*
X30167Y-37506D02*
X30232Y-37506D01*
X31167Y-37506D02*
X31232Y-37506D01*
X30090Y-37586D02*
X30310Y-37586D01*
X31090Y-37586D02*
X31310Y-37586D01*
X30008Y-37666D02*
X30391Y-37666D01*
X31008Y-37666D02*
X31391Y-37666D01*
X29990Y-37746D02*
X30583Y-37746D01*
X30816Y-37746D02*
X31583Y-37746D01*
X31816Y-37746D02*
X31836Y-37746D01*
X29990Y-37826D02*
X31916Y-37826D01*
X29990Y-37906D02*
X31996Y-37906D01*
X29990Y-37986D02*
X32076Y-37986D01*
X29990Y-38066D02*
X32156Y-38066D01*
X29990Y-38146D02*
X32236Y-38146D01*
X29990Y-38226D02*
X32316Y-38226D01*
X29990Y-38306D02*
X32396Y-38306D01*
X29990Y-38386D02*
X32476Y-38386D01*
X29990Y-38466D02*
X32556Y-38466D01*
X29990Y-38546D02*
X32636Y-38546D01*
X29990Y-38626D02*
X32716Y-38626D01*
X29990Y-38706D02*
X32796Y-38706D01*
X29990Y-38786D02*
X32876Y-38786D01*
X29990Y-38866D02*
X32956Y-38866D01*
X29990Y-38946D02*
X33036Y-38946D01*
X29990Y-39026D02*
X33116Y-39026D01*
X29990Y-39106D02*
X33196Y-39106D01*
X29990Y-39186D02*
X33276Y-39186D01*
X29990Y-39266D02*
X33356Y-39266D01*
X29990Y-39346D02*
X33436Y-39346D01*
X29990Y-39426D02*
X33516Y-39426D01*
X30014Y-39506D02*
X33596Y-39506D01*
X30094Y-39586D02*
X33676Y-39586D01*
X30174Y-39666D02*
X33756Y-39666D01*
X30254Y-39746D02*
X33836Y-39746D01*
X30334Y-39826D02*
X33916Y-39826D01*
X30414Y-39906D02*
X33996Y-39906D01*
X30494Y-39986D02*
X34076Y-39986D01*
X30574Y-40066D02*
X34090Y-40066D01*
X30654Y-40146D02*
X34090Y-40146D01*
X30734Y-40226D02*
X34090Y-40226D01*
X30814Y-40306D02*
X34090Y-40306D01*
X30894Y-40386D02*
X34090Y-40386D01*
X30974Y-40466D02*
X34090Y-40466D01*
X31054Y-40546D02*
X34090Y-40546D01*
X31134Y-40626D02*
X34090Y-40626D01*
X31214Y-40706D02*
X34090Y-40706D01*
X31294Y-40786D02*
X34090Y-40786D01*
X31374Y-40866D02*
X34090Y-40866D01*
X31454Y-40946D02*
X34090Y-40946D01*
X31534Y-41026D02*
X34090Y-41026D01*
X31614Y-41106D02*
X34090Y-41106D01*
X31694Y-41186D02*
X34090Y-41186D01*
X31774Y-41266D02*
X34090Y-41266D01*
X31854Y-41346D02*
X34090Y-41346D01*
X31934Y-41426D02*
X34090Y-41426D01*
X32014Y-41506D02*
X34090Y-41506D01*
X32094Y-41586D02*
X34090Y-41586D01*
X32174Y-41666D02*
X34090Y-41666D01*
X32254Y-41746D02*
X34090Y-41746D01*
X32334Y-41826D02*
X34090Y-41826D01*
X32414Y-41906D02*
X34090Y-41906D01*
X32494Y-41986D02*
X34090Y-41986D01*
X32574Y-42066D02*
X34090Y-42066D01*
X32654Y-42146D02*
X34090Y-42146D01*
X32734Y-42226D02*
X34090Y-42226D01*
X32814Y-42306D02*
X34090Y-42306D01*
X32894Y-42386D02*
X34090Y-42386D01*
X32974Y-42466D02*
X34090Y-42466D01*
X33054Y-42546D02*
X34090Y-42546D01*
X33134Y-42626D02*
X34090Y-42626D01*
X33214Y-42706D02*
X34090Y-42706D01*
X33294Y-42786D02*
X34090Y-42786D01*
X33374Y-42866D02*
X34090Y-42866D01*
X33454Y-42946D02*
X34090Y-42946D01*
X33534Y-43026D02*
X34090Y-43026D01*
X33614Y-43106D02*
X34090Y-43106D01*
X33694Y-43186D02*
X34090Y-43186D01*
X33774Y-43266D02*
X34090Y-43266D01*
X33854Y-43346D02*
X34090Y-43346D01*
X33934Y-43426D02*
X34090Y-43426D01*
X33994Y-43486D02*
X34019Y-43477D01*
X34090Y-43477D01*
X34090Y-40000D01*
X31830Y-37740D01*
X31809Y-37749D01*
X31591Y-37749D01*
X31389Y-37665D01*
X31235Y-37511D01*
X31200Y-37426D01*
X31165Y-37511D01*
X31011Y-37665D01*
X30809Y-37749D01*
X30591Y-37749D01*
X30389Y-37665D01*
X30235Y-37511D01*
X30200Y-37426D01*
X30165Y-37511D01*
X30011Y-37665D01*
X29990Y-37673D01*
X29990Y-39482D01*
X33994Y-43486D01*
M02*
