G04 (created by PCBNEW (2010-00-09 BZR 23xx)-stable) date Di 17 Mai 2011 13:22:44 CEST*
G01*
G70*
G90*
%MOIN*%
G04 Gerber Fmt 3.4, Leading zero omitted, Abs format*
%FSLAX34Y34*%
G04 APERTURE LIST*
%ADD10C,0.001000*%
%ADD11C,0.008000*%
G04 APERTURE END LIST*
G54D10*
G54D11*
X14450Y-56300D02*
X14450Y-34950D01*
X48250Y-56300D02*
X14450Y-56300D01*
X48250Y-34950D02*
X48250Y-56300D01*
X15250Y-34950D02*
X48250Y-34950D01*
X14450Y-34950D02*
X15250Y-34950D01*
G54D10*
X17507Y-42061D02*
X17757Y-42311D01*
X17757Y-42061D02*
X17507Y-42311D01*
X20608Y-43805D02*
X20858Y-44055D01*
X20858Y-43805D02*
X20608Y-44055D01*
X21641Y-41707D02*
X21891Y-41957D01*
X21891Y-41707D02*
X21641Y-41957D01*
X21660Y-40645D02*
X21910Y-40895D01*
X21910Y-40645D02*
X21660Y-40895D01*
X22419Y-41719D02*
X22669Y-41969D01*
X22669Y-41719D02*
X22419Y-41969D01*
X22704Y-43804D02*
X22954Y-44054D01*
X22954Y-43804D02*
X22704Y-44054D01*
X22900Y-41868D02*
X23150Y-42118D01*
X23150Y-41868D02*
X22900Y-42118D01*
X23198Y-40965D02*
X23448Y-41215D01*
X23448Y-40965D02*
X23198Y-41215D01*
X26861Y-48091D02*
X27111Y-48341D01*
X27111Y-48091D02*
X26861Y-48341D01*
X27092Y-49043D02*
X27342Y-49293D01*
X27342Y-49043D02*
X27092Y-49293D01*
X27627Y-44944D02*
X27877Y-45194D01*
X27877Y-44944D02*
X27627Y-45194D01*
X28025Y-45734D02*
X28275Y-45984D01*
X28275Y-45734D02*
X28025Y-45984D01*
X28720Y-47683D02*
X28970Y-47933D01*
X28970Y-47683D02*
X28720Y-47933D01*
X29175Y-47587D02*
X29425Y-47837D01*
X29425Y-47587D02*
X29175Y-47837D01*
X29359Y-49362D02*
X29609Y-49612D01*
X29609Y-49362D02*
X29359Y-49612D01*
X29391Y-53990D02*
X29641Y-54240D01*
X29641Y-53990D02*
X29391Y-54240D01*
X29891Y-52773D02*
X30141Y-53023D01*
X30141Y-52773D02*
X29891Y-53023D01*
X29961Y-48331D02*
X30211Y-48581D01*
X30211Y-48331D02*
X29961Y-48581D01*
X30584Y-52231D02*
X30834Y-52481D01*
X30834Y-52231D02*
X30584Y-52481D01*
X30760Y-44859D02*
X31010Y-45109D01*
X31010Y-44859D02*
X30760Y-45109D01*
X31106Y-46577D02*
X31356Y-46827D01*
X31356Y-46577D02*
X31106Y-46827D01*
X31231Y-43782D02*
X31481Y-44032D01*
X31481Y-43782D02*
X31231Y-44032D01*
X31608Y-49632D02*
X31858Y-49882D01*
X31858Y-49632D02*
X31608Y-49882D01*
X31678Y-45458D02*
X31928Y-45708D01*
X31928Y-45458D02*
X31678Y-45708D01*
X31803Y-41256D02*
X32053Y-41506D01*
X32053Y-41256D02*
X31803Y-41506D01*
X32084Y-44956D02*
X32334Y-45206D01*
X32334Y-44956D02*
X32084Y-45206D01*
X32136Y-48438D02*
X32386Y-48688D01*
X32386Y-48438D02*
X32136Y-48688D01*
X32473Y-43121D02*
X32723Y-43371D01*
X32723Y-43121D02*
X32473Y-43371D01*
X32635Y-46498D02*
X32885Y-46748D01*
X32885Y-46498D02*
X32635Y-46748D01*
X32810Y-48403D02*
X33060Y-48653D01*
X33060Y-48403D02*
X32810Y-48653D01*
X32961Y-47245D02*
X33211Y-47495D01*
X33211Y-47245D02*
X32961Y-47495D01*
X33049Y-52284D02*
X33299Y-52534D01*
X33299Y-52284D02*
X33049Y-52534D01*
X33318Y-49642D02*
X33568Y-49892D01*
X33568Y-49642D02*
X33318Y-49892D01*
X33472Y-47756D02*
X33722Y-48006D01*
X33722Y-47756D02*
X33472Y-48006D01*
X33503Y-52238D02*
X33753Y-52488D01*
X33753Y-52238D02*
X33503Y-52488D01*
X33514Y-45069D02*
X33764Y-45319D01*
X33764Y-45069D02*
X33514Y-45319D01*
X33707Y-51509D02*
X33957Y-51759D01*
X33957Y-51509D02*
X33707Y-51759D01*
X33847Y-48462D02*
X34097Y-48712D01*
X34097Y-48462D02*
X33847Y-48712D01*
X33978Y-43777D02*
X34228Y-44027D01*
X34228Y-43777D02*
X33978Y-44027D01*
X34219Y-47168D02*
X34469Y-47418D01*
X34469Y-47168D02*
X34219Y-47418D01*
X34489Y-48152D02*
X34739Y-48402D01*
X34739Y-48152D02*
X34489Y-48402D01*
X34573Y-43242D02*
X34823Y-43492D01*
X34823Y-43242D02*
X34573Y-43492D01*
X34659Y-49354D02*
X34909Y-49604D01*
X34909Y-49354D02*
X34659Y-49604D01*
X35004Y-42293D02*
X35254Y-42543D01*
X35254Y-42293D02*
X35004Y-42543D01*
X35006Y-48926D02*
X35256Y-49176D01*
X35256Y-48926D02*
X35006Y-49176D01*
X35325Y-49493D02*
X35575Y-49743D01*
X35575Y-49493D02*
X35325Y-49743D01*
X35783Y-47084D02*
X36033Y-47334D01*
X36033Y-47084D02*
X35783Y-47334D01*
X36094Y-45790D02*
X36344Y-46040D01*
X36344Y-45790D02*
X36094Y-46040D01*
X36414Y-48857D02*
X36664Y-49107D01*
X36664Y-48857D02*
X36414Y-49107D01*
X37338Y-46900D02*
X37588Y-47150D01*
X37588Y-46900D02*
X37338Y-47150D01*
X26860Y-37200D02*
X26856Y-37231D01*
X26847Y-37260D01*
X26833Y-37288D01*
X26813Y-37312D01*
X26789Y-37332D01*
X26762Y-37347D01*
X26732Y-37356D01*
X26701Y-37359D01*
X26671Y-37357D01*
X26641Y-37348D01*
X26613Y-37333D01*
X26589Y-37314D01*
X26568Y-37290D01*
X26553Y-37263D01*
X26544Y-37233D01*
X26541Y-37202D01*
X26543Y-37172D01*
X26552Y-37142D01*
X26566Y-37114D01*
X26585Y-37089D01*
X26609Y-37069D01*
X26636Y-37054D01*
X26666Y-37044D01*
X26697Y-37041D01*
X26727Y-37043D01*
X26757Y-37051D01*
X26785Y-37065D01*
X26810Y-37085D01*
X26830Y-37108D01*
X26846Y-37135D01*
X26856Y-37165D01*
X26859Y-37196D01*
X26860Y-37200D01*
X44019Y-38453D02*
X44019Y-38847D01*
X44216Y-38650D02*
X43822Y-38650D01*
X46381Y-38453D02*
X46381Y-38847D01*
X46578Y-38650D02*
X46184Y-38650D01*
X26900Y-36200D02*
X26896Y-36238D01*
X26884Y-36276D01*
X26866Y-36310D01*
X26841Y-36340D01*
X26811Y-36365D01*
X26777Y-36384D01*
X26740Y-36395D01*
X26701Y-36399D01*
X26663Y-36396D01*
X26626Y-36385D01*
X26591Y-36367D01*
X26561Y-36342D01*
X26535Y-36312D01*
X26517Y-36278D01*
X26505Y-36241D01*
X26501Y-36202D01*
X26504Y-36164D01*
X26515Y-36127D01*
X26532Y-36092D01*
X26557Y-36062D01*
X26586Y-36036D01*
X26620Y-36017D01*
X26658Y-36005D01*
X26696Y-36001D01*
X26734Y-36004D01*
X26772Y-36014D01*
X26807Y-36032D01*
X26837Y-36056D01*
X26863Y-36085D01*
X26882Y-36119D01*
X26895Y-36156D01*
X26899Y-36195D01*
X26900Y-36200D01*
X26500Y-36000D02*
X26900Y-36400D01*
X26900Y-36000D02*
X26500Y-36400D01*
X27900Y-36200D02*
X27896Y-36238D01*
X27884Y-36276D01*
X27866Y-36310D01*
X27841Y-36340D01*
X27811Y-36365D01*
X27777Y-36384D01*
X27740Y-36395D01*
X27701Y-36399D01*
X27663Y-36396D01*
X27626Y-36385D01*
X27591Y-36367D01*
X27561Y-36342D01*
X27535Y-36312D01*
X27517Y-36278D01*
X27505Y-36241D01*
X27501Y-36202D01*
X27504Y-36164D01*
X27515Y-36127D01*
X27532Y-36092D01*
X27557Y-36062D01*
X27586Y-36036D01*
X27620Y-36017D01*
X27658Y-36005D01*
X27696Y-36001D01*
X27734Y-36004D01*
X27772Y-36014D01*
X27807Y-36032D01*
X27837Y-36056D01*
X27863Y-36085D01*
X27882Y-36119D01*
X27895Y-36156D01*
X27899Y-36195D01*
X27900Y-36200D01*
X27500Y-36000D02*
X27900Y-36400D01*
X27900Y-36000D02*
X27500Y-36400D01*
X27900Y-37200D02*
X27896Y-37238D01*
X27884Y-37276D01*
X27866Y-37310D01*
X27841Y-37340D01*
X27811Y-37365D01*
X27777Y-37384D01*
X27740Y-37395D01*
X27701Y-37399D01*
X27663Y-37396D01*
X27626Y-37385D01*
X27591Y-37367D01*
X27561Y-37342D01*
X27535Y-37312D01*
X27517Y-37278D01*
X27505Y-37241D01*
X27501Y-37202D01*
X27504Y-37164D01*
X27515Y-37127D01*
X27532Y-37092D01*
X27557Y-37062D01*
X27586Y-37036D01*
X27620Y-37017D01*
X27658Y-37005D01*
X27696Y-37001D01*
X27734Y-37004D01*
X27772Y-37014D01*
X27807Y-37032D01*
X27837Y-37056D01*
X27863Y-37085D01*
X27882Y-37119D01*
X27895Y-37156D01*
X27899Y-37195D01*
X27900Y-37200D01*
X27500Y-37000D02*
X27900Y-37400D01*
X27900Y-37000D02*
X27500Y-37400D01*
X28900Y-36200D02*
X28896Y-36238D01*
X28884Y-36276D01*
X28866Y-36310D01*
X28841Y-36340D01*
X28811Y-36365D01*
X28777Y-36384D01*
X28740Y-36395D01*
X28701Y-36399D01*
X28663Y-36396D01*
X28626Y-36385D01*
X28591Y-36367D01*
X28561Y-36342D01*
X28535Y-36312D01*
X28517Y-36278D01*
X28505Y-36241D01*
X28501Y-36202D01*
X28504Y-36164D01*
X28515Y-36127D01*
X28532Y-36092D01*
X28557Y-36062D01*
X28586Y-36036D01*
X28620Y-36017D01*
X28658Y-36005D01*
X28696Y-36001D01*
X28734Y-36004D01*
X28772Y-36014D01*
X28807Y-36032D01*
X28837Y-36056D01*
X28863Y-36085D01*
X28882Y-36119D01*
X28895Y-36156D01*
X28899Y-36195D01*
X28900Y-36200D01*
X28500Y-36000D02*
X28900Y-36400D01*
X28900Y-36000D02*
X28500Y-36400D01*
X28900Y-37200D02*
X28896Y-37238D01*
X28884Y-37276D01*
X28866Y-37310D01*
X28841Y-37340D01*
X28811Y-37365D01*
X28777Y-37384D01*
X28740Y-37395D01*
X28701Y-37399D01*
X28663Y-37396D01*
X28626Y-37385D01*
X28591Y-37367D01*
X28561Y-37342D01*
X28535Y-37312D01*
X28517Y-37278D01*
X28505Y-37241D01*
X28501Y-37202D01*
X28504Y-37164D01*
X28515Y-37127D01*
X28532Y-37092D01*
X28557Y-37062D01*
X28586Y-37036D01*
X28620Y-37017D01*
X28658Y-37005D01*
X28696Y-37001D01*
X28734Y-37004D01*
X28772Y-37014D01*
X28807Y-37032D01*
X28837Y-37056D01*
X28863Y-37085D01*
X28882Y-37119D01*
X28895Y-37156D01*
X28899Y-37195D01*
X28900Y-37200D01*
X28500Y-37000D02*
X28900Y-37400D01*
X28900Y-37000D02*
X28500Y-37400D01*
X29900Y-36200D02*
X29896Y-36238D01*
X29884Y-36276D01*
X29866Y-36310D01*
X29841Y-36340D01*
X29811Y-36365D01*
X29777Y-36384D01*
X29740Y-36395D01*
X29701Y-36399D01*
X29663Y-36396D01*
X29626Y-36385D01*
X29591Y-36367D01*
X29561Y-36342D01*
X29535Y-36312D01*
X29517Y-36278D01*
X29505Y-36241D01*
X29501Y-36202D01*
X29504Y-36164D01*
X29515Y-36127D01*
X29532Y-36092D01*
X29557Y-36062D01*
X29586Y-36036D01*
X29620Y-36017D01*
X29658Y-36005D01*
X29696Y-36001D01*
X29734Y-36004D01*
X29772Y-36014D01*
X29807Y-36032D01*
X29837Y-36056D01*
X29863Y-36085D01*
X29882Y-36119D01*
X29895Y-36156D01*
X29899Y-36195D01*
X29900Y-36200D01*
X29500Y-36000D02*
X29900Y-36400D01*
X29900Y-36000D02*
X29500Y-36400D01*
X29900Y-37200D02*
X29896Y-37238D01*
X29884Y-37276D01*
X29866Y-37310D01*
X29841Y-37340D01*
X29811Y-37365D01*
X29777Y-37384D01*
X29740Y-37395D01*
X29701Y-37399D01*
X29663Y-37396D01*
X29626Y-37385D01*
X29591Y-37367D01*
X29561Y-37342D01*
X29535Y-37312D01*
X29517Y-37278D01*
X29505Y-37241D01*
X29501Y-37202D01*
X29504Y-37164D01*
X29515Y-37127D01*
X29532Y-37092D01*
X29557Y-37062D01*
X29586Y-37036D01*
X29620Y-37017D01*
X29658Y-37005D01*
X29696Y-37001D01*
X29734Y-37004D01*
X29772Y-37014D01*
X29807Y-37032D01*
X29837Y-37056D01*
X29863Y-37085D01*
X29882Y-37119D01*
X29895Y-37156D01*
X29899Y-37195D01*
X29900Y-37200D01*
X29500Y-37000D02*
X29900Y-37400D01*
X29900Y-37000D02*
X29500Y-37400D01*
X30900Y-36200D02*
X30896Y-36238D01*
X30884Y-36276D01*
X30866Y-36310D01*
X30841Y-36340D01*
X30811Y-36365D01*
X30777Y-36384D01*
X30740Y-36395D01*
X30701Y-36399D01*
X30663Y-36396D01*
X30626Y-36385D01*
X30591Y-36367D01*
X30561Y-36342D01*
X30535Y-36312D01*
X30517Y-36278D01*
X30505Y-36241D01*
X30501Y-36202D01*
X30504Y-36164D01*
X30515Y-36127D01*
X30532Y-36092D01*
X30557Y-36062D01*
X30586Y-36036D01*
X30620Y-36017D01*
X30658Y-36005D01*
X30696Y-36001D01*
X30734Y-36004D01*
X30772Y-36014D01*
X30807Y-36032D01*
X30837Y-36056D01*
X30863Y-36085D01*
X30882Y-36119D01*
X30895Y-36156D01*
X30899Y-36195D01*
X30900Y-36200D01*
X30500Y-36000D02*
X30900Y-36400D01*
X30900Y-36000D02*
X30500Y-36400D01*
X30900Y-37200D02*
X30896Y-37238D01*
X30884Y-37276D01*
X30866Y-37310D01*
X30841Y-37340D01*
X30811Y-37365D01*
X30777Y-37384D01*
X30740Y-37395D01*
X30701Y-37399D01*
X30663Y-37396D01*
X30626Y-37385D01*
X30591Y-37367D01*
X30561Y-37342D01*
X30535Y-37312D01*
X30517Y-37278D01*
X30505Y-37241D01*
X30501Y-37202D01*
X30504Y-37164D01*
X30515Y-37127D01*
X30532Y-37092D01*
X30557Y-37062D01*
X30586Y-37036D01*
X30620Y-37017D01*
X30658Y-37005D01*
X30696Y-37001D01*
X30734Y-37004D01*
X30772Y-37014D01*
X30807Y-37032D01*
X30837Y-37056D01*
X30863Y-37085D01*
X30882Y-37119D01*
X30895Y-37156D01*
X30899Y-37195D01*
X30900Y-37200D01*
X30500Y-37000D02*
X30900Y-37400D01*
X30900Y-37000D02*
X30500Y-37400D01*
X31900Y-36200D02*
X31896Y-36238D01*
X31884Y-36276D01*
X31866Y-36310D01*
X31841Y-36340D01*
X31811Y-36365D01*
X31777Y-36384D01*
X31740Y-36395D01*
X31701Y-36399D01*
X31663Y-36396D01*
X31626Y-36385D01*
X31591Y-36367D01*
X31561Y-36342D01*
X31535Y-36312D01*
X31517Y-36278D01*
X31505Y-36241D01*
X31501Y-36202D01*
X31504Y-36164D01*
X31515Y-36127D01*
X31532Y-36092D01*
X31557Y-36062D01*
X31586Y-36036D01*
X31620Y-36017D01*
X31658Y-36005D01*
X31696Y-36001D01*
X31734Y-36004D01*
X31772Y-36014D01*
X31807Y-36032D01*
X31837Y-36056D01*
X31863Y-36085D01*
X31882Y-36119D01*
X31895Y-36156D01*
X31899Y-36195D01*
X31900Y-36200D01*
X31500Y-36000D02*
X31900Y-36400D01*
X31900Y-36000D02*
X31500Y-36400D01*
X31900Y-37200D02*
X31896Y-37238D01*
X31884Y-37276D01*
X31866Y-37310D01*
X31841Y-37340D01*
X31811Y-37365D01*
X31777Y-37384D01*
X31740Y-37395D01*
X31701Y-37399D01*
X31663Y-37396D01*
X31626Y-37385D01*
X31591Y-37367D01*
X31561Y-37342D01*
X31535Y-37312D01*
X31517Y-37278D01*
X31505Y-37241D01*
X31501Y-37202D01*
X31504Y-37164D01*
X31515Y-37127D01*
X31532Y-37092D01*
X31557Y-37062D01*
X31586Y-37036D01*
X31620Y-37017D01*
X31658Y-37005D01*
X31696Y-37001D01*
X31734Y-37004D01*
X31772Y-37014D01*
X31807Y-37032D01*
X31837Y-37056D01*
X31863Y-37085D01*
X31882Y-37119D01*
X31895Y-37156D01*
X31899Y-37195D01*
X31900Y-37200D01*
X31500Y-37000D02*
X31900Y-37400D01*
X31900Y-37000D02*
X31500Y-37400D01*
X32900Y-36200D02*
X32896Y-36238D01*
X32884Y-36276D01*
X32866Y-36310D01*
X32841Y-36340D01*
X32811Y-36365D01*
X32777Y-36384D01*
X32740Y-36395D01*
X32701Y-36399D01*
X32663Y-36396D01*
X32626Y-36385D01*
X32591Y-36367D01*
X32561Y-36342D01*
X32535Y-36312D01*
X32517Y-36278D01*
X32505Y-36241D01*
X32501Y-36202D01*
X32504Y-36164D01*
X32515Y-36127D01*
X32532Y-36092D01*
X32557Y-36062D01*
X32586Y-36036D01*
X32620Y-36017D01*
X32658Y-36005D01*
X32696Y-36001D01*
X32734Y-36004D01*
X32772Y-36014D01*
X32807Y-36032D01*
X32837Y-36056D01*
X32863Y-36085D01*
X32882Y-36119D01*
X32895Y-36156D01*
X32899Y-36195D01*
X32900Y-36200D01*
X32500Y-36000D02*
X32900Y-36400D01*
X32900Y-36000D02*
X32500Y-36400D01*
X32900Y-37200D02*
X32896Y-37238D01*
X32884Y-37276D01*
X32866Y-37310D01*
X32841Y-37340D01*
X32811Y-37365D01*
X32777Y-37384D01*
X32740Y-37395D01*
X32701Y-37399D01*
X32663Y-37396D01*
X32626Y-37385D01*
X32591Y-37367D01*
X32561Y-37342D01*
X32535Y-37312D01*
X32517Y-37278D01*
X32505Y-37241D01*
X32501Y-37202D01*
X32504Y-37164D01*
X32515Y-37127D01*
X32532Y-37092D01*
X32557Y-37062D01*
X32586Y-37036D01*
X32620Y-37017D01*
X32658Y-37005D01*
X32696Y-37001D01*
X32734Y-37004D01*
X32772Y-37014D01*
X32807Y-37032D01*
X32837Y-37056D01*
X32863Y-37085D01*
X32882Y-37119D01*
X32895Y-37156D01*
X32899Y-37195D01*
X32900Y-37200D01*
X32500Y-37000D02*
X32900Y-37400D01*
X32900Y-37000D02*
X32500Y-37400D01*
X33900Y-36200D02*
X33896Y-36238D01*
X33884Y-36276D01*
X33866Y-36310D01*
X33841Y-36340D01*
X33811Y-36365D01*
X33777Y-36384D01*
X33740Y-36395D01*
X33701Y-36399D01*
X33663Y-36396D01*
X33626Y-36385D01*
X33591Y-36367D01*
X33561Y-36342D01*
X33535Y-36312D01*
X33517Y-36278D01*
X33505Y-36241D01*
X33501Y-36202D01*
X33504Y-36164D01*
X33515Y-36127D01*
X33532Y-36092D01*
X33557Y-36062D01*
X33586Y-36036D01*
X33620Y-36017D01*
X33658Y-36005D01*
X33696Y-36001D01*
X33734Y-36004D01*
X33772Y-36014D01*
X33807Y-36032D01*
X33837Y-36056D01*
X33863Y-36085D01*
X33882Y-36119D01*
X33895Y-36156D01*
X33899Y-36195D01*
X33900Y-36200D01*
X33500Y-36000D02*
X33900Y-36400D01*
X33900Y-36000D02*
X33500Y-36400D01*
X33900Y-37200D02*
X33896Y-37238D01*
X33884Y-37276D01*
X33866Y-37310D01*
X33841Y-37340D01*
X33811Y-37365D01*
X33777Y-37384D01*
X33740Y-37395D01*
X33701Y-37399D01*
X33663Y-37396D01*
X33626Y-37385D01*
X33591Y-37367D01*
X33561Y-37342D01*
X33535Y-37312D01*
X33517Y-37278D01*
X33505Y-37241D01*
X33501Y-37202D01*
X33504Y-37164D01*
X33515Y-37127D01*
X33532Y-37092D01*
X33557Y-37062D01*
X33586Y-37036D01*
X33620Y-37017D01*
X33658Y-37005D01*
X33696Y-37001D01*
X33734Y-37004D01*
X33772Y-37014D01*
X33807Y-37032D01*
X33837Y-37056D01*
X33863Y-37085D01*
X33882Y-37119D01*
X33895Y-37156D01*
X33899Y-37195D01*
X33900Y-37200D01*
X33500Y-37000D02*
X33900Y-37400D01*
X33900Y-37000D02*
X33500Y-37400D01*
X34900Y-36200D02*
X34896Y-36238D01*
X34884Y-36276D01*
X34866Y-36310D01*
X34841Y-36340D01*
X34811Y-36365D01*
X34777Y-36384D01*
X34740Y-36395D01*
X34701Y-36399D01*
X34663Y-36396D01*
X34626Y-36385D01*
X34591Y-36367D01*
X34561Y-36342D01*
X34535Y-36312D01*
X34517Y-36278D01*
X34505Y-36241D01*
X34501Y-36202D01*
X34504Y-36164D01*
X34515Y-36127D01*
X34532Y-36092D01*
X34557Y-36062D01*
X34586Y-36036D01*
X34620Y-36017D01*
X34658Y-36005D01*
X34696Y-36001D01*
X34734Y-36004D01*
X34772Y-36014D01*
X34807Y-36032D01*
X34837Y-36056D01*
X34863Y-36085D01*
X34882Y-36119D01*
X34895Y-36156D01*
X34899Y-36195D01*
X34900Y-36200D01*
X34500Y-36000D02*
X34900Y-36400D01*
X34900Y-36000D02*
X34500Y-36400D01*
X34900Y-37200D02*
X34896Y-37238D01*
X34884Y-37276D01*
X34866Y-37310D01*
X34841Y-37340D01*
X34811Y-37365D01*
X34777Y-37384D01*
X34740Y-37395D01*
X34701Y-37399D01*
X34663Y-37396D01*
X34626Y-37385D01*
X34591Y-37367D01*
X34561Y-37342D01*
X34535Y-37312D01*
X34517Y-37278D01*
X34505Y-37241D01*
X34501Y-37202D01*
X34504Y-37164D01*
X34515Y-37127D01*
X34532Y-37092D01*
X34557Y-37062D01*
X34586Y-37036D01*
X34620Y-37017D01*
X34658Y-37005D01*
X34696Y-37001D01*
X34734Y-37004D01*
X34772Y-37014D01*
X34807Y-37032D01*
X34837Y-37056D01*
X34863Y-37085D01*
X34882Y-37119D01*
X34895Y-37156D01*
X34899Y-37195D01*
X34900Y-37200D01*
X34500Y-37000D02*
X34900Y-37400D01*
X34900Y-37000D02*
X34500Y-37400D01*
X35900Y-36200D02*
X35896Y-36238D01*
X35884Y-36276D01*
X35866Y-36310D01*
X35841Y-36340D01*
X35811Y-36365D01*
X35777Y-36384D01*
X35740Y-36395D01*
X35701Y-36399D01*
X35663Y-36396D01*
X35626Y-36385D01*
X35591Y-36367D01*
X35561Y-36342D01*
X35535Y-36312D01*
X35517Y-36278D01*
X35505Y-36241D01*
X35501Y-36202D01*
X35504Y-36164D01*
X35515Y-36127D01*
X35532Y-36092D01*
X35557Y-36062D01*
X35586Y-36036D01*
X35620Y-36017D01*
X35658Y-36005D01*
X35696Y-36001D01*
X35734Y-36004D01*
X35772Y-36014D01*
X35807Y-36032D01*
X35837Y-36056D01*
X35863Y-36085D01*
X35882Y-36119D01*
X35895Y-36156D01*
X35899Y-36195D01*
X35900Y-36200D01*
X35500Y-36000D02*
X35900Y-36400D01*
X35900Y-36000D02*
X35500Y-36400D01*
X35900Y-37200D02*
X35896Y-37238D01*
X35884Y-37276D01*
X35866Y-37310D01*
X35841Y-37340D01*
X35811Y-37365D01*
X35777Y-37384D01*
X35740Y-37395D01*
X35701Y-37399D01*
X35663Y-37396D01*
X35626Y-37385D01*
X35591Y-37367D01*
X35561Y-37342D01*
X35535Y-37312D01*
X35517Y-37278D01*
X35505Y-37241D01*
X35501Y-37202D01*
X35504Y-37164D01*
X35515Y-37127D01*
X35532Y-37092D01*
X35557Y-37062D01*
X35586Y-37036D01*
X35620Y-37017D01*
X35658Y-37005D01*
X35696Y-37001D01*
X35734Y-37004D01*
X35772Y-37014D01*
X35807Y-37032D01*
X35837Y-37056D01*
X35863Y-37085D01*
X35882Y-37119D01*
X35895Y-37156D01*
X35899Y-37195D01*
X35900Y-37200D01*
X35500Y-37000D02*
X35900Y-37400D01*
X35900Y-37000D02*
X35500Y-37400D01*
X36600Y-39750D02*
X36596Y-39788D01*
X36584Y-39826D01*
X36566Y-39860D01*
X36541Y-39890D01*
X36511Y-39915D01*
X36477Y-39934D01*
X36440Y-39945D01*
X36401Y-39949D01*
X36363Y-39946D01*
X36326Y-39935D01*
X36291Y-39917D01*
X36261Y-39892D01*
X36235Y-39862D01*
X36217Y-39828D01*
X36205Y-39791D01*
X36201Y-39752D01*
X36204Y-39714D01*
X36215Y-39677D01*
X36232Y-39642D01*
X36257Y-39612D01*
X36286Y-39586D01*
X36320Y-39567D01*
X36358Y-39555D01*
X36396Y-39551D01*
X36434Y-39554D01*
X36472Y-39564D01*
X36507Y-39582D01*
X36537Y-39606D01*
X36563Y-39635D01*
X36582Y-39669D01*
X36595Y-39706D01*
X36599Y-39745D01*
X36600Y-39750D01*
X36200Y-39550D02*
X36600Y-39950D01*
X36600Y-39550D02*
X36200Y-39950D01*
X37600Y-39750D02*
X37596Y-39788D01*
X37584Y-39826D01*
X37566Y-39860D01*
X37541Y-39890D01*
X37511Y-39915D01*
X37477Y-39934D01*
X37440Y-39945D01*
X37401Y-39949D01*
X37363Y-39946D01*
X37326Y-39935D01*
X37291Y-39917D01*
X37261Y-39892D01*
X37235Y-39862D01*
X37217Y-39828D01*
X37205Y-39791D01*
X37201Y-39752D01*
X37204Y-39714D01*
X37215Y-39677D01*
X37232Y-39642D01*
X37257Y-39612D01*
X37286Y-39586D01*
X37320Y-39567D01*
X37358Y-39555D01*
X37396Y-39551D01*
X37434Y-39554D01*
X37472Y-39564D01*
X37507Y-39582D01*
X37537Y-39606D01*
X37563Y-39635D01*
X37582Y-39669D01*
X37595Y-39706D01*
X37599Y-39745D01*
X37600Y-39750D01*
X37200Y-39550D02*
X37600Y-39950D01*
X37600Y-39550D02*
X37200Y-39950D01*
X38450Y-36150D02*
X38446Y-36188D01*
X38434Y-36226D01*
X38416Y-36260D01*
X38391Y-36290D01*
X38361Y-36315D01*
X38327Y-36334D01*
X38290Y-36345D01*
X38251Y-36349D01*
X38213Y-36346D01*
X38176Y-36335D01*
X38141Y-36317D01*
X38111Y-36292D01*
X38085Y-36262D01*
X38067Y-36228D01*
X38055Y-36191D01*
X38051Y-36152D01*
X38054Y-36114D01*
X38065Y-36077D01*
X38082Y-36042D01*
X38107Y-36012D01*
X38136Y-35986D01*
X38170Y-35967D01*
X38208Y-35955D01*
X38246Y-35951D01*
X38284Y-35954D01*
X38322Y-35964D01*
X38357Y-35982D01*
X38387Y-36006D01*
X38413Y-36035D01*
X38432Y-36069D01*
X38445Y-36106D01*
X38449Y-36145D01*
X38450Y-36150D01*
X38050Y-35950D02*
X38450Y-36350D01*
X38450Y-35950D02*
X38050Y-36350D01*
X38450Y-37150D02*
X38446Y-37188D01*
X38434Y-37226D01*
X38416Y-37260D01*
X38391Y-37290D01*
X38361Y-37315D01*
X38327Y-37334D01*
X38290Y-37345D01*
X38251Y-37349D01*
X38213Y-37346D01*
X38176Y-37335D01*
X38141Y-37317D01*
X38111Y-37292D01*
X38085Y-37262D01*
X38067Y-37228D01*
X38055Y-37191D01*
X38051Y-37152D01*
X38054Y-37114D01*
X38065Y-37077D01*
X38082Y-37042D01*
X38107Y-37012D01*
X38136Y-36986D01*
X38170Y-36967D01*
X38208Y-36955D01*
X38246Y-36951D01*
X38284Y-36954D01*
X38322Y-36964D01*
X38357Y-36982D01*
X38387Y-37006D01*
X38413Y-37035D01*
X38432Y-37069D01*
X38445Y-37106D01*
X38449Y-37145D01*
X38450Y-37150D01*
X38050Y-36950D02*
X38450Y-37350D01*
X38450Y-36950D02*
X38050Y-37350D01*
X39450Y-36150D02*
X39446Y-36188D01*
X39434Y-36226D01*
X39416Y-36260D01*
X39391Y-36290D01*
X39361Y-36315D01*
X39327Y-36334D01*
X39290Y-36345D01*
X39251Y-36349D01*
X39213Y-36346D01*
X39176Y-36335D01*
X39141Y-36317D01*
X39111Y-36292D01*
X39085Y-36262D01*
X39067Y-36228D01*
X39055Y-36191D01*
X39051Y-36152D01*
X39054Y-36114D01*
X39065Y-36077D01*
X39082Y-36042D01*
X39107Y-36012D01*
X39136Y-35986D01*
X39170Y-35967D01*
X39208Y-35955D01*
X39246Y-35951D01*
X39284Y-35954D01*
X39322Y-35964D01*
X39357Y-35982D01*
X39387Y-36006D01*
X39413Y-36035D01*
X39432Y-36069D01*
X39445Y-36106D01*
X39449Y-36145D01*
X39450Y-36150D01*
X39050Y-35950D02*
X39450Y-36350D01*
X39450Y-35950D02*
X39050Y-36350D01*
X39450Y-37150D02*
X39446Y-37188D01*
X39434Y-37226D01*
X39416Y-37260D01*
X39391Y-37290D01*
X39361Y-37315D01*
X39327Y-37334D01*
X39290Y-37345D01*
X39251Y-37349D01*
X39213Y-37346D01*
X39176Y-37335D01*
X39141Y-37317D01*
X39111Y-37292D01*
X39085Y-37262D01*
X39067Y-37228D01*
X39055Y-37191D01*
X39051Y-37152D01*
X39054Y-37114D01*
X39065Y-37077D01*
X39082Y-37042D01*
X39107Y-37012D01*
X39136Y-36986D01*
X39170Y-36967D01*
X39208Y-36955D01*
X39246Y-36951D01*
X39284Y-36954D01*
X39322Y-36964D01*
X39357Y-36982D01*
X39387Y-37006D01*
X39413Y-37035D01*
X39432Y-37069D01*
X39445Y-37106D01*
X39449Y-37145D01*
X39450Y-37150D01*
X39050Y-36950D02*
X39450Y-37350D01*
X39450Y-36950D02*
X39050Y-37350D01*
X39600Y-39700D02*
X39596Y-39738D01*
X39584Y-39776D01*
X39566Y-39810D01*
X39541Y-39840D01*
X39511Y-39865D01*
X39477Y-39884D01*
X39440Y-39895D01*
X39401Y-39899D01*
X39363Y-39896D01*
X39326Y-39885D01*
X39291Y-39867D01*
X39261Y-39842D01*
X39235Y-39812D01*
X39217Y-39778D01*
X39205Y-39741D01*
X39201Y-39702D01*
X39204Y-39664D01*
X39215Y-39627D01*
X39232Y-39592D01*
X39257Y-39562D01*
X39286Y-39536D01*
X39320Y-39517D01*
X39358Y-39505D01*
X39396Y-39501D01*
X39434Y-39504D01*
X39472Y-39514D01*
X39507Y-39532D01*
X39537Y-39556D01*
X39563Y-39585D01*
X39582Y-39619D01*
X39595Y-39656D01*
X39599Y-39695D01*
X39600Y-39700D01*
X39200Y-39500D02*
X39600Y-39900D01*
X39600Y-39500D02*
X39200Y-39900D01*
X40450Y-36150D02*
X40446Y-36188D01*
X40434Y-36226D01*
X40416Y-36260D01*
X40391Y-36290D01*
X40361Y-36315D01*
X40327Y-36334D01*
X40290Y-36345D01*
X40251Y-36349D01*
X40213Y-36346D01*
X40176Y-36335D01*
X40141Y-36317D01*
X40111Y-36292D01*
X40085Y-36262D01*
X40067Y-36228D01*
X40055Y-36191D01*
X40051Y-36152D01*
X40054Y-36114D01*
X40065Y-36077D01*
X40082Y-36042D01*
X40107Y-36012D01*
X40136Y-35986D01*
X40170Y-35967D01*
X40208Y-35955D01*
X40246Y-35951D01*
X40284Y-35954D01*
X40322Y-35964D01*
X40357Y-35982D01*
X40387Y-36006D01*
X40413Y-36035D01*
X40432Y-36069D01*
X40445Y-36106D01*
X40449Y-36145D01*
X40450Y-36150D01*
X40050Y-35950D02*
X40450Y-36350D01*
X40450Y-35950D02*
X40050Y-36350D01*
X40450Y-37150D02*
X40446Y-37188D01*
X40434Y-37226D01*
X40416Y-37260D01*
X40391Y-37290D01*
X40361Y-37315D01*
X40327Y-37334D01*
X40290Y-37345D01*
X40251Y-37349D01*
X40213Y-37346D01*
X40176Y-37335D01*
X40141Y-37317D01*
X40111Y-37292D01*
X40085Y-37262D01*
X40067Y-37228D01*
X40055Y-37191D01*
X40051Y-37152D01*
X40054Y-37114D01*
X40065Y-37077D01*
X40082Y-37042D01*
X40107Y-37012D01*
X40136Y-36986D01*
X40170Y-36967D01*
X40208Y-36955D01*
X40246Y-36951D01*
X40284Y-36954D01*
X40322Y-36964D01*
X40357Y-36982D01*
X40387Y-37006D01*
X40413Y-37035D01*
X40432Y-37069D01*
X40445Y-37106D01*
X40449Y-37145D01*
X40450Y-37150D01*
X40050Y-36950D02*
X40450Y-37350D01*
X40450Y-36950D02*
X40050Y-37350D01*
X40600Y-39700D02*
X40596Y-39738D01*
X40584Y-39776D01*
X40566Y-39810D01*
X40541Y-39840D01*
X40511Y-39865D01*
X40477Y-39884D01*
X40440Y-39895D01*
X40401Y-39899D01*
X40363Y-39896D01*
X40326Y-39885D01*
X40291Y-39867D01*
X40261Y-39842D01*
X40235Y-39812D01*
X40217Y-39778D01*
X40205Y-39741D01*
X40201Y-39702D01*
X40204Y-39664D01*
X40215Y-39627D01*
X40232Y-39592D01*
X40257Y-39562D01*
X40286Y-39536D01*
X40320Y-39517D01*
X40358Y-39505D01*
X40396Y-39501D01*
X40434Y-39504D01*
X40472Y-39514D01*
X40507Y-39532D01*
X40537Y-39556D01*
X40563Y-39585D01*
X40582Y-39619D01*
X40595Y-39656D01*
X40599Y-39695D01*
X40600Y-39700D01*
X40200Y-39500D02*
X40600Y-39900D01*
X40600Y-39500D02*
X40200Y-39900D01*
X46800Y-53700D02*
X46796Y-53738D01*
X46784Y-53776D01*
X46766Y-53810D01*
X46741Y-53840D01*
X46711Y-53865D01*
X46677Y-53884D01*
X46640Y-53895D01*
X46601Y-53899D01*
X46563Y-53896D01*
X46526Y-53885D01*
X46491Y-53867D01*
X46461Y-53842D01*
X46435Y-53812D01*
X46417Y-53778D01*
X46405Y-53741D01*
X46401Y-53702D01*
X46404Y-53664D01*
X46415Y-53627D01*
X46432Y-53592D01*
X46457Y-53562D01*
X46486Y-53536D01*
X46520Y-53517D01*
X46558Y-53505D01*
X46596Y-53501D01*
X46634Y-53504D01*
X46672Y-53514D01*
X46707Y-53532D01*
X46737Y-53556D01*
X46763Y-53585D01*
X46782Y-53619D01*
X46795Y-53656D01*
X46799Y-53695D01*
X46800Y-53700D01*
X46400Y-53500D02*
X46800Y-53900D01*
X46800Y-53500D02*
X46400Y-53900D01*
X46800Y-54700D02*
X46796Y-54738D01*
X46784Y-54776D01*
X46766Y-54810D01*
X46741Y-54840D01*
X46711Y-54865D01*
X46677Y-54884D01*
X46640Y-54895D01*
X46601Y-54899D01*
X46563Y-54896D01*
X46526Y-54885D01*
X46491Y-54867D01*
X46461Y-54842D01*
X46435Y-54812D01*
X46417Y-54778D01*
X46405Y-54741D01*
X46401Y-54702D01*
X46404Y-54664D01*
X46415Y-54627D01*
X46432Y-54592D01*
X46457Y-54562D01*
X46486Y-54536D01*
X46520Y-54517D01*
X46558Y-54505D01*
X46596Y-54501D01*
X46634Y-54504D01*
X46672Y-54514D01*
X46707Y-54532D01*
X46737Y-54556D01*
X46763Y-54585D01*
X46782Y-54619D01*
X46795Y-54656D01*
X46799Y-54695D01*
X46800Y-54700D01*
X46400Y-54500D02*
X46800Y-54900D01*
X46800Y-54500D02*
X46400Y-54900D01*
G54D11*
X14791Y-57545D02*
X14791Y-56745D01*
X14982Y-56745D01*
X15096Y-56783D01*
X15172Y-56859D01*
X15211Y-56935D01*
X15249Y-57088D01*
X15249Y-57202D01*
X15211Y-57354D01*
X15172Y-57431D01*
X15096Y-57507D01*
X14982Y-57545D01*
X14791Y-57545D01*
X15591Y-57545D02*
X15591Y-57011D01*
X15591Y-57164D02*
X15630Y-57088D01*
X15668Y-57050D01*
X15744Y-57011D01*
X15820Y-57011D01*
X16086Y-57545D02*
X16086Y-57011D01*
X16086Y-56745D02*
X16048Y-56783D01*
X16086Y-56821D01*
X16125Y-56783D01*
X16086Y-56745D01*
X16086Y-56821D01*
X16582Y-57545D02*
X16506Y-57507D01*
X16467Y-57431D01*
X16467Y-56745D01*
X17001Y-57545D02*
X16925Y-57507D01*
X16886Y-57431D01*
X16886Y-56745D01*
X17915Y-57545D02*
X17915Y-56745D01*
X18182Y-57316D01*
X18449Y-56745D01*
X18449Y-57545D01*
X19172Y-57545D02*
X19172Y-57126D01*
X19134Y-57050D01*
X19058Y-57011D01*
X18906Y-57011D01*
X18829Y-57050D01*
X19172Y-57507D02*
X19096Y-57545D01*
X18906Y-57545D01*
X18829Y-57507D01*
X18791Y-57431D01*
X18791Y-57354D01*
X18829Y-57278D01*
X18906Y-57240D01*
X19096Y-57240D01*
X19172Y-57202D01*
X19553Y-57011D02*
X19553Y-57811D01*
X19553Y-57050D02*
X19630Y-57011D01*
X19782Y-57011D01*
X19858Y-57050D01*
X19896Y-57088D01*
X19934Y-57164D01*
X19934Y-57392D01*
X19896Y-57469D01*
X19858Y-57507D01*
X19782Y-57545D01*
X19630Y-57545D01*
X19553Y-57507D01*
X20277Y-57469D02*
X20316Y-57507D01*
X20277Y-57545D01*
X20239Y-57507D01*
X20277Y-57469D01*
X20277Y-57545D01*
X20277Y-57050D02*
X20316Y-57088D01*
X20277Y-57126D01*
X20239Y-57088D01*
X20277Y-57050D01*
X20277Y-57126D01*
X14151Y-58776D02*
X14401Y-59026D01*
X14401Y-58776D02*
X14151Y-59026D01*
X14944Y-58425D02*
X15020Y-58425D01*
X15096Y-58463D01*
X15134Y-58501D01*
X15172Y-58577D01*
X15211Y-58730D01*
X15211Y-58920D01*
X15172Y-59072D01*
X15134Y-59149D01*
X15096Y-59187D01*
X15020Y-59225D01*
X14944Y-59225D01*
X14868Y-59187D01*
X14830Y-59149D01*
X14791Y-59072D01*
X14753Y-58920D01*
X14753Y-58730D01*
X14791Y-58577D01*
X14830Y-58501D01*
X14868Y-58463D01*
X14944Y-58425D01*
X15553Y-59149D02*
X15592Y-59187D01*
X15553Y-59225D01*
X15515Y-59187D01*
X15553Y-59149D01*
X15553Y-59225D01*
X16087Y-58425D02*
X16163Y-58425D01*
X16239Y-58463D01*
X16277Y-58501D01*
X16315Y-58577D01*
X16354Y-58730D01*
X16354Y-58920D01*
X16315Y-59072D01*
X16277Y-59149D01*
X16239Y-59187D01*
X16163Y-59225D01*
X16087Y-59225D01*
X16011Y-59187D01*
X15973Y-59149D01*
X15934Y-59072D01*
X15896Y-58920D01*
X15896Y-58730D01*
X15934Y-58577D01*
X15973Y-58501D01*
X16011Y-58463D01*
X16087Y-58425D01*
X16658Y-58501D02*
X16696Y-58463D01*
X16773Y-58425D01*
X16963Y-58425D01*
X17039Y-58463D01*
X17077Y-58501D01*
X17116Y-58577D01*
X17116Y-58653D01*
X17077Y-58768D01*
X16620Y-59225D01*
X17116Y-59225D01*
X17839Y-58425D02*
X17458Y-58425D01*
X17420Y-58806D01*
X17458Y-58768D01*
X17535Y-58730D01*
X17725Y-58730D01*
X17801Y-58768D01*
X17839Y-58806D01*
X17878Y-58882D01*
X17878Y-59072D01*
X17839Y-59149D01*
X17801Y-59187D01*
X17725Y-59225D01*
X17535Y-59225D01*
X17458Y-59187D01*
X17420Y-59149D01*
X18182Y-58425D02*
X18182Y-58577D01*
X18487Y-58425D02*
X18487Y-58577D01*
X20012Y-58387D02*
X19326Y-59415D01*
X21041Y-58425D02*
X21117Y-58425D01*
X21193Y-58463D01*
X21231Y-58501D01*
X21269Y-58577D01*
X21308Y-58730D01*
X21308Y-58920D01*
X21269Y-59072D01*
X21231Y-59149D01*
X21193Y-59187D01*
X21117Y-59225D01*
X21041Y-59225D01*
X20965Y-59187D01*
X20927Y-59149D01*
X20888Y-59072D01*
X20850Y-58920D01*
X20850Y-58730D01*
X20888Y-58577D01*
X20927Y-58501D01*
X20965Y-58463D01*
X21041Y-58425D01*
X21650Y-59149D02*
X21689Y-59187D01*
X21650Y-59225D01*
X21612Y-59187D01*
X21650Y-59149D01*
X21650Y-59225D01*
X22374Y-58425D02*
X22222Y-58425D01*
X22146Y-58463D01*
X22108Y-58501D01*
X22031Y-58615D01*
X21993Y-58768D01*
X21993Y-59072D01*
X22031Y-59149D01*
X22070Y-59187D01*
X22146Y-59225D01*
X22298Y-59225D01*
X22374Y-59187D01*
X22412Y-59149D01*
X22451Y-59072D01*
X22451Y-58882D01*
X22412Y-58806D01*
X22374Y-58768D01*
X22298Y-58730D01*
X22146Y-58730D01*
X22070Y-58768D01*
X22031Y-58806D01*
X21993Y-58882D01*
X23136Y-58691D02*
X23136Y-59225D01*
X22946Y-58387D02*
X22755Y-58958D01*
X23251Y-58958D01*
X23555Y-59225D02*
X23555Y-58691D01*
X23555Y-58768D02*
X23594Y-58730D01*
X23670Y-58691D01*
X23784Y-58691D01*
X23860Y-58730D01*
X23898Y-58806D01*
X23898Y-59225D01*
X23898Y-58806D02*
X23936Y-58730D01*
X24013Y-58691D01*
X24127Y-58691D01*
X24203Y-58730D01*
X24241Y-58806D01*
X24241Y-59225D01*
X24622Y-59225D02*
X24622Y-58691D01*
X24622Y-58768D02*
X24661Y-58730D01*
X24737Y-58691D01*
X24851Y-58691D01*
X24927Y-58730D01*
X24965Y-58806D01*
X24965Y-59225D01*
X24965Y-58806D02*
X25003Y-58730D01*
X25080Y-58691D01*
X25194Y-58691D01*
X25270Y-58730D01*
X25308Y-58806D01*
X25308Y-59225D01*
X26528Y-59530D02*
X26490Y-59491D01*
X26414Y-59377D01*
X26376Y-59301D01*
X26338Y-59187D01*
X26299Y-58996D01*
X26299Y-58844D01*
X26338Y-58653D01*
X26376Y-58539D01*
X26414Y-58463D01*
X26490Y-58349D01*
X26528Y-58311D01*
X27213Y-58425D02*
X26832Y-58425D01*
X26794Y-58806D01*
X26832Y-58768D01*
X26909Y-58730D01*
X27099Y-58730D01*
X27175Y-58768D01*
X27213Y-58806D01*
X27252Y-58882D01*
X27252Y-59072D01*
X27213Y-59149D01*
X27175Y-59187D01*
X27099Y-59225D01*
X26909Y-59225D01*
X26832Y-59187D01*
X26794Y-59149D01*
X27747Y-58425D02*
X27823Y-58425D01*
X27899Y-58463D01*
X27937Y-58501D01*
X27975Y-58577D01*
X28014Y-58730D01*
X28014Y-58920D01*
X27975Y-59072D01*
X27937Y-59149D01*
X27899Y-59187D01*
X27823Y-59225D01*
X27747Y-59225D01*
X27671Y-59187D01*
X27633Y-59149D01*
X27594Y-59072D01*
X27556Y-58920D01*
X27556Y-58730D01*
X27594Y-58577D01*
X27633Y-58501D01*
X27671Y-58463D01*
X27747Y-58425D01*
X28966Y-59225D02*
X28966Y-58425D01*
X29309Y-59225D02*
X29309Y-58806D01*
X29271Y-58730D01*
X29195Y-58691D01*
X29081Y-58691D01*
X29005Y-58730D01*
X28966Y-58768D01*
X29805Y-59225D02*
X29729Y-59187D01*
X29690Y-59149D01*
X29652Y-59072D01*
X29652Y-58844D01*
X29690Y-58768D01*
X29729Y-58730D01*
X29805Y-58691D01*
X29919Y-58691D01*
X29995Y-58730D01*
X30033Y-58768D01*
X30071Y-58844D01*
X30071Y-59072D01*
X30033Y-59149D01*
X29995Y-59187D01*
X29919Y-59225D01*
X29805Y-59225D01*
X30529Y-59225D02*
X30453Y-59187D01*
X30414Y-59111D01*
X30414Y-58425D01*
X31138Y-59187D02*
X31062Y-59225D01*
X30910Y-59225D01*
X30833Y-59187D01*
X30795Y-59111D01*
X30795Y-58806D01*
X30833Y-58730D01*
X30910Y-58691D01*
X31062Y-58691D01*
X31138Y-58730D01*
X31176Y-58806D01*
X31176Y-58882D01*
X30795Y-58958D01*
X31481Y-59187D02*
X31558Y-59225D01*
X31710Y-59225D01*
X31786Y-59187D01*
X31824Y-59111D01*
X31824Y-59072D01*
X31786Y-58996D01*
X31710Y-58958D01*
X31596Y-58958D01*
X31519Y-58920D01*
X31481Y-58844D01*
X31481Y-58806D01*
X31519Y-58730D01*
X31596Y-58691D01*
X31710Y-58691D01*
X31786Y-58730D01*
X32091Y-59530D02*
X32129Y-59491D01*
X32206Y-59377D01*
X32244Y-59301D01*
X32282Y-59187D01*
X32320Y-58996D01*
X32320Y-58844D01*
X32282Y-58653D01*
X32244Y-58539D01*
X32206Y-58463D01*
X32129Y-58349D01*
X32091Y-58311D01*
G54D10*
X14401Y-59957D02*
X14397Y-59988D01*
X14388Y-60017D01*
X14374Y-60045D01*
X14354Y-60069D01*
X14330Y-60089D01*
X14303Y-60104D01*
X14273Y-60113D01*
X14242Y-60116D01*
X14212Y-60114D01*
X14182Y-60105D01*
X14154Y-60090D01*
X14130Y-60071D01*
X14109Y-60047D01*
X14094Y-60020D01*
X14085Y-59990D01*
X14082Y-59959D01*
X14084Y-59929D01*
X14093Y-59899D01*
X14107Y-59871D01*
X14126Y-59846D01*
X14150Y-59826D01*
X14177Y-59811D01*
X14207Y-59801D01*
X14238Y-59798D01*
X14268Y-59800D01*
X14298Y-59808D01*
X14326Y-59822D01*
X14351Y-59842D01*
X14371Y-59865D01*
X14387Y-59892D01*
X14397Y-59922D01*
X14400Y-59953D01*
X14401Y-59957D01*
G54D11*
X14944Y-59481D02*
X15020Y-59481D01*
X15096Y-59519D01*
X15134Y-59557D01*
X15172Y-59633D01*
X15211Y-59786D01*
X15211Y-59976D01*
X15172Y-60128D01*
X15134Y-60205D01*
X15096Y-60243D01*
X15020Y-60281D01*
X14944Y-60281D01*
X14868Y-60243D01*
X14830Y-60205D01*
X14791Y-60128D01*
X14753Y-59976D01*
X14753Y-59786D01*
X14791Y-59633D01*
X14830Y-59557D01*
X14868Y-59519D01*
X14944Y-59481D01*
X15553Y-60205D02*
X15592Y-60243D01*
X15553Y-60281D01*
X15515Y-60243D01*
X15553Y-60205D01*
X15553Y-60281D01*
X16087Y-59481D02*
X16163Y-59481D01*
X16239Y-59519D01*
X16277Y-59557D01*
X16315Y-59633D01*
X16354Y-59786D01*
X16354Y-59976D01*
X16315Y-60128D01*
X16277Y-60205D01*
X16239Y-60243D01*
X16163Y-60281D01*
X16087Y-60281D01*
X16011Y-60243D01*
X15973Y-60205D01*
X15934Y-60128D01*
X15896Y-59976D01*
X15896Y-59786D01*
X15934Y-59633D01*
X15973Y-59557D01*
X16011Y-59519D01*
X16087Y-59481D01*
X16620Y-59481D02*
X17116Y-59481D01*
X16849Y-59786D01*
X16963Y-59786D01*
X17039Y-59824D01*
X17077Y-59862D01*
X17116Y-59938D01*
X17116Y-60128D01*
X17077Y-60205D01*
X17039Y-60243D01*
X16963Y-60281D01*
X16735Y-60281D01*
X16658Y-60243D01*
X16620Y-60205D01*
X17420Y-59557D02*
X17458Y-59519D01*
X17535Y-59481D01*
X17725Y-59481D01*
X17801Y-59519D01*
X17839Y-59557D01*
X17878Y-59633D01*
X17878Y-59709D01*
X17839Y-59824D01*
X17382Y-60281D01*
X17878Y-60281D01*
X18182Y-59481D02*
X18182Y-59633D01*
X18487Y-59481D02*
X18487Y-59633D01*
X20012Y-59443D02*
X19326Y-60471D01*
X21041Y-59481D02*
X21117Y-59481D01*
X21193Y-59519D01*
X21231Y-59557D01*
X21269Y-59633D01*
X21308Y-59786D01*
X21308Y-59976D01*
X21269Y-60128D01*
X21231Y-60205D01*
X21193Y-60243D01*
X21117Y-60281D01*
X21041Y-60281D01*
X20965Y-60243D01*
X20927Y-60205D01*
X20888Y-60128D01*
X20850Y-59976D01*
X20850Y-59786D01*
X20888Y-59633D01*
X20927Y-59557D01*
X20965Y-59519D01*
X21041Y-59481D01*
X21650Y-60205D02*
X21689Y-60243D01*
X21650Y-60281D01*
X21612Y-60243D01*
X21650Y-60205D01*
X21650Y-60281D01*
X22146Y-59824D02*
X22070Y-59786D01*
X22031Y-59747D01*
X21993Y-59671D01*
X21993Y-59633D01*
X22031Y-59557D01*
X22070Y-59519D01*
X22146Y-59481D01*
X22298Y-59481D01*
X22374Y-59519D01*
X22412Y-59557D01*
X22451Y-59633D01*
X22451Y-59671D01*
X22412Y-59747D01*
X22374Y-59786D01*
X22298Y-59824D01*
X22146Y-59824D01*
X22070Y-59862D01*
X22031Y-59900D01*
X21993Y-59976D01*
X21993Y-60128D01*
X22031Y-60205D01*
X22070Y-60243D01*
X22146Y-60281D01*
X22298Y-60281D01*
X22374Y-60243D01*
X22412Y-60205D01*
X22451Y-60128D01*
X22451Y-59976D01*
X22412Y-59900D01*
X22374Y-59862D01*
X22298Y-59824D01*
X23213Y-60281D02*
X22755Y-60281D01*
X22984Y-60281D02*
X22984Y-59481D01*
X22908Y-59595D01*
X22832Y-59671D01*
X22755Y-59709D01*
X23555Y-60281D02*
X23555Y-59747D01*
X23555Y-59824D02*
X23594Y-59786D01*
X23670Y-59747D01*
X23784Y-59747D01*
X23860Y-59786D01*
X23898Y-59862D01*
X23898Y-60281D01*
X23898Y-59862D02*
X23936Y-59786D01*
X24013Y-59747D01*
X24127Y-59747D01*
X24203Y-59786D01*
X24241Y-59862D01*
X24241Y-60281D01*
X24622Y-60281D02*
X24622Y-59747D01*
X24622Y-59824D02*
X24661Y-59786D01*
X24737Y-59747D01*
X24851Y-59747D01*
X24927Y-59786D01*
X24965Y-59862D01*
X24965Y-60281D01*
X24965Y-59862D02*
X25003Y-59786D01*
X25080Y-59747D01*
X25194Y-59747D01*
X25270Y-59786D01*
X25308Y-59862D01*
X25308Y-60281D01*
X26528Y-60586D02*
X26490Y-60547D01*
X26414Y-60433D01*
X26376Y-60357D01*
X26338Y-60243D01*
X26299Y-60052D01*
X26299Y-59900D01*
X26338Y-59709D01*
X26376Y-59595D01*
X26414Y-59519D01*
X26490Y-59405D01*
X26528Y-59367D01*
X27252Y-60281D02*
X26794Y-60281D01*
X27023Y-60281D02*
X27023Y-59481D01*
X26947Y-59595D01*
X26871Y-59671D01*
X26794Y-59709D01*
X28204Y-60281D02*
X28204Y-59481D01*
X28547Y-60281D02*
X28547Y-59862D01*
X28509Y-59786D01*
X28433Y-59747D01*
X28319Y-59747D01*
X28243Y-59786D01*
X28204Y-59824D01*
X29043Y-60281D02*
X28967Y-60243D01*
X28928Y-60205D01*
X28890Y-60128D01*
X28890Y-59900D01*
X28928Y-59824D01*
X28967Y-59786D01*
X29043Y-59747D01*
X29157Y-59747D01*
X29233Y-59786D01*
X29271Y-59824D01*
X29309Y-59900D01*
X29309Y-60128D01*
X29271Y-60205D01*
X29233Y-60243D01*
X29157Y-60281D01*
X29043Y-60281D01*
X29767Y-60281D02*
X29691Y-60243D01*
X29652Y-60167D01*
X29652Y-59481D01*
X30376Y-60243D02*
X30300Y-60281D01*
X30148Y-60281D01*
X30071Y-60243D01*
X30033Y-60167D01*
X30033Y-59862D01*
X30071Y-59786D01*
X30148Y-59747D01*
X30300Y-59747D01*
X30376Y-59786D01*
X30414Y-59862D01*
X30414Y-59938D01*
X30033Y-60014D01*
X30681Y-60586D02*
X30719Y-60547D01*
X30796Y-60433D01*
X30834Y-60357D01*
X30872Y-60243D01*
X30910Y-60052D01*
X30910Y-59900D01*
X30872Y-59709D01*
X30834Y-59595D01*
X30796Y-59519D01*
X30719Y-59405D01*
X30681Y-59367D01*
X14204Y-60816D02*
X14204Y-61210D01*
X14401Y-61013D02*
X14007Y-61013D01*
X14944Y-60537D02*
X15020Y-60537D01*
X15096Y-60575D01*
X15134Y-60613D01*
X15172Y-60689D01*
X15211Y-60842D01*
X15211Y-61032D01*
X15172Y-61184D01*
X15134Y-61261D01*
X15096Y-61299D01*
X15020Y-61337D01*
X14944Y-61337D01*
X14868Y-61299D01*
X14830Y-61261D01*
X14791Y-61184D01*
X14753Y-61032D01*
X14753Y-60842D01*
X14791Y-60689D01*
X14830Y-60613D01*
X14868Y-60575D01*
X14944Y-60537D01*
X15553Y-61261D02*
X15592Y-61299D01*
X15553Y-61337D01*
X15515Y-61299D01*
X15553Y-61261D01*
X15553Y-61337D01*
X16087Y-60537D02*
X16163Y-60537D01*
X16239Y-60575D01*
X16277Y-60613D01*
X16315Y-60689D01*
X16354Y-60842D01*
X16354Y-61032D01*
X16315Y-61184D01*
X16277Y-61261D01*
X16239Y-61299D01*
X16163Y-61337D01*
X16087Y-61337D01*
X16011Y-61299D01*
X15973Y-61261D01*
X15934Y-61184D01*
X15896Y-61032D01*
X15896Y-60842D01*
X15934Y-60689D01*
X15973Y-60613D01*
X16011Y-60575D01*
X16087Y-60537D01*
X16620Y-60537D02*
X17116Y-60537D01*
X16849Y-60842D01*
X16963Y-60842D01*
X17039Y-60880D01*
X17077Y-60918D01*
X17116Y-60994D01*
X17116Y-61184D01*
X17077Y-61261D01*
X17039Y-61299D01*
X16963Y-61337D01*
X16735Y-61337D01*
X16658Y-61299D01*
X16620Y-61261D01*
X17497Y-61337D02*
X17649Y-61337D01*
X17725Y-61299D01*
X17763Y-61261D01*
X17839Y-61146D01*
X17878Y-60994D01*
X17878Y-60689D01*
X17839Y-60613D01*
X17801Y-60575D01*
X17725Y-60537D01*
X17573Y-60537D01*
X17497Y-60575D01*
X17458Y-60613D01*
X17420Y-60689D01*
X17420Y-60880D01*
X17458Y-60956D01*
X17497Y-60994D01*
X17573Y-61032D01*
X17725Y-61032D01*
X17801Y-60994D01*
X17839Y-60956D01*
X17878Y-60880D01*
X18182Y-60537D02*
X18182Y-60689D01*
X18487Y-60537D02*
X18487Y-60689D01*
X20012Y-60499D02*
X19326Y-61527D01*
X21308Y-61337D02*
X20850Y-61337D01*
X21079Y-61337D02*
X21079Y-60537D01*
X21003Y-60651D01*
X20927Y-60727D01*
X20850Y-60765D01*
X21650Y-61261D02*
X21689Y-61299D01*
X21650Y-61337D01*
X21612Y-61299D01*
X21650Y-61261D01*
X21650Y-61337D01*
X22184Y-60537D02*
X22260Y-60537D01*
X22336Y-60575D01*
X22374Y-60613D01*
X22412Y-60689D01*
X22451Y-60842D01*
X22451Y-61032D01*
X22412Y-61184D01*
X22374Y-61261D01*
X22336Y-61299D01*
X22260Y-61337D01*
X22184Y-61337D01*
X22108Y-61299D01*
X22070Y-61261D01*
X22031Y-61184D01*
X21993Y-61032D01*
X21993Y-60842D01*
X22031Y-60689D01*
X22070Y-60613D01*
X22108Y-60575D01*
X22184Y-60537D01*
X22946Y-60537D02*
X23022Y-60537D01*
X23098Y-60575D01*
X23136Y-60613D01*
X23174Y-60689D01*
X23213Y-60842D01*
X23213Y-61032D01*
X23174Y-61184D01*
X23136Y-61261D01*
X23098Y-61299D01*
X23022Y-61337D01*
X22946Y-61337D01*
X22870Y-61299D01*
X22832Y-61261D01*
X22793Y-61184D01*
X22755Y-61032D01*
X22755Y-60842D01*
X22793Y-60689D01*
X22832Y-60613D01*
X22870Y-60575D01*
X22946Y-60537D01*
X23555Y-61337D02*
X23555Y-60803D01*
X23555Y-60880D02*
X23594Y-60842D01*
X23670Y-60803D01*
X23784Y-60803D01*
X23860Y-60842D01*
X23898Y-60918D01*
X23898Y-61337D01*
X23898Y-60918D02*
X23936Y-60842D01*
X24013Y-60803D01*
X24127Y-60803D01*
X24203Y-60842D01*
X24241Y-60918D01*
X24241Y-61337D01*
X24622Y-61337D02*
X24622Y-60803D01*
X24622Y-60880D02*
X24661Y-60842D01*
X24737Y-60803D01*
X24851Y-60803D01*
X24927Y-60842D01*
X24965Y-60918D01*
X24965Y-61337D01*
X24965Y-60918D02*
X25003Y-60842D01*
X25080Y-60803D01*
X25194Y-60803D01*
X25270Y-60842D01*
X25308Y-60918D01*
X25308Y-61337D01*
X26528Y-61642D02*
X26490Y-61603D01*
X26414Y-61489D01*
X26376Y-61413D01*
X26338Y-61299D01*
X26299Y-61108D01*
X26299Y-60956D01*
X26338Y-60765D01*
X26376Y-60651D01*
X26414Y-60575D01*
X26490Y-60461D01*
X26528Y-60423D01*
X26794Y-60613D02*
X26832Y-60575D01*
X26909Y-60537D01*
X27099Y-60537D01*
X27175Y-60575D01*
X27213Y-60613D01*
X27252Y-60689D01*
X27252Y-60765D01*
X27213Y-60880D01*
X26756Y-61337D01*
X27252Y-61337D01*
X28204Y-61337D02*
X28204Y-60537D01*
X28547Y-61337D02*
X28547Y-60918D01*
X28509Y-60842D01*
X28433Y-60803D01*
X28319Y-60803D01*
X28243Y-60842D01*
X28204Y-60880D01*
X29043Y-61337D02*
X28967Y-61299D01*
X28928Y-61261D01*
X28890Y-61184D01*
X28890Y-60956D01*
X28928Y-60880D01*
X28967Y-60842D01*
X29043Y-60803D01*
X29157Y-60803D01*
X29233Y-60842D01*
X29271Y-60880D01*
X29309Y-60956D01*
X29309Y-61184D01*
X29271Y-61261D01*
X29233Y-61299D01*
X29157Y-61337D01*
X29043Y-61337D01*
X29767Y-61337D02*
X29691Y-61299D01*
X29652Y-61223D01*
X29652Y-60537D01*
X30376Y-61299D02*
X30300Y-61337D01*
X30148Y-61337D01*
X30071Y-61299D01*
X30033Y-61223D01*
X30033Y-60918D01*
X30071Y-60842D01*
X30148Y-60803D01*
X30300Y-60803D01*
X30376Y-60842D01*
X30414Y-60918D01*
X30414Y-60994D01*
X30033Y-61070D01*
X30719Y-61299D02*
X30796Y-61337D01*
X30948Y-61337D01*
X31024Y-61299D01*
X31062Y-61223D01*
X31062Y-61184D01*
X31024Y-61108D01*
X30948Y-61070D01*
X30834Y-61070D01*
X30757Y-61032D01*
X30719Y-60956D01*
X30719Y-60918D01*
X30757Y-60842D01*
X30834Y-60803D01*
X30948Y-60803D01*
X31024Y-60842D01*
X31329Y-61642D02*
X31367Y-61603D01*
X31444Y-61489D01*
X31482Y-61413D01*
X31520Y-61299D01*
X31558Y-61108D01*
X31558Y-60956D01*
X31520Y-60765D01*
X31482Y-60651D01*
X31444Y-60575D01*
X31367Y-60461D01*
X31329Y-60423D01*
G54D10*
X14401Y-62069D02*
X14397Y-62107D01*
X14385Y-62145D01*
X14367Y-62179D01*
X14342Y-62209D01*
X14312Y-62234D01*
X14278Y-62253D01*
X14241Y-62264D01*
X14202Y-62268D01*
X14164Y-62265D01*
X14127Y-62254D01*
X14092Y-62236D01*
X14062Y-62211D01*
X14036Y-62181D01*
X14018Y-62147D01*
X14006Y-62110D01*
X14002Y-62071D01*
X14005Y-62033D01*
X14016Y-61996D01*
X14033Y-61961D01*
X14058Y-61931D01*
X14087Y-61905D01*
X14121Y-61886D01*
X14159Y-61874D01*
X14197Y-61870D01*
X14235Y-61873D01*
X14273Y-61883D01*
X14308Y-61901D01*
X14338Y-61925D01*
X14364Y-61954D01*
X14383Y-61988D01*
X14396Y-62025D01*
X14400Y-62064D01*
X14401Y-62069D01*
X14001Y-61869D02*
X14401Y-62269D01*
X14401Y-61869D02*
X14001Y-62269D01*
G54D11*
X14944Y-61593D02*
X15020Y-61593D01*
X15096Y-61631D01*
X15134Y-61669D01*
X15172Y-61745D01*
X15211Y-61898D01*
X15211Y-62088D01*
X15172Y-62240D01*
X15134Y-62317D01*
X15096Y-62355D01*
X15020Y-62393D01*
X14944Y-62393D01*
X14868Y-62355D01*
X14830Y-62317D01*
X14791Y-62240D01*
X14753Y-62088D01*
X14753Y-61898D01*
X14791Y-61745D01*
X14830Y-61669D01*
X14868Y-61631D01*
X14944Y-61593D01*
X15553Y-62317D02*
X15592Y-62355D01*
X15553Y-62393D01*
X15515Y-62355D01*
X15553Y-62317D01*
X15553Y-62393D01*
X16087Y-61593D02*
X16163Y-61593D01*
X16239Y-61631D01*
X16277Y-61669D01*
X16315Y-61745D01*
X16354Y-61898D01*
X16354Y-62088D01*
X16315Y-62240D01*
X16277Y-62317D01*
X16239Y-62355D01*
X16163Y-62393D01*
X16087Y-62393D01*
X16011Y-62355D01*
X15973Y-62317D01*
X15934Y-62240D01*
X15896Y-62088D01*
X15896Y-61898D01*
X15934Y-61745D01*
X15973Y-61669D01*
X16011Y-61631D01*
X16087Y-61593D01*
X17039Y-61859D02*
X17039Y-62393D01*
X16849Y-61555D02*
X16658Y-62126D01*
X17154Y-62126D01*
X17611Y-61593D02*
X17687Y-61593D01*
X17763Y-61631D01*
X17801Y-61669D01*
X17839Y-61745D01*
X17878Y-61898D01*
X17878Y-62088D01*
X17839Y-62240D01*
X17801Y-62317D01*
X17763Y-62355D01*
X17687Y-62393D01*
X17611Y-62393D01*
X17535Y-62355D01*
X17497Y-62317D01*
X17458Y-62240D01*
X17420Y-62088D01*
X17420Y-61898D01*
X17458Y-61745D01*
X17497Y-61669D01*
X17535Y-61631D01*
X17611Y-61593D01*
X18182Y-61593D02*
X18182Y-61745D01*
X18487Y-61593D02*
X18487Y-61745D01*
X20012Y-61555D02*
X19326Y-62583D01*
X21308Y-62393D02*
X20850Y-62393D01*
X21079Y-62393D02*
X21079Y-61593D01*
X21003Y-61707D01*
X20927Y-61783D01*
X20850Y-61821D01*
X21650Y-62317D02*
X21689Y-62355D01*
X21650Y-62393D01*
X21612Y-62355D01*
X21650Y-62317D01*
X21650Y-62393D01*
X22184Y-61593D02*
X22260Y-61593D01*
X22336Y-61631D01*
X22374Y-61669D01*
X22412Y-61745D01*
X22451Y-61898D01*
X22451Y-62088D01*
X22412Y-62240D01*
X22374Y-62317D01*
X22336Y-62355D01*
X22260Y-62393D01*
X22184Y-62393D01*
X22108Y-62355D01*
X22070Y-62317D01*
X22031Y-62240D01*
X21993Y-62088D01*
X21993Y-61898D01*
X22031Y-61745D01*
X22070Y-61669D01*
X22108Y-61631D01*
X22184Y-61593D01*
X22755Y-61669D02*
X22793Y-61631D01*
X22870Y-61593D01*
X23060Y-61593D01*
X23136Y-61631D01*
X23174Y-61669D01*
X23213Y-61745D01*
X23213Y-61821D01*
X23174Y-61936D01*
X22717Y-62393D01*
X23213Y-62393D01*
X23555Y-62393D02*
X23555Y-61859D01*
X23555Y-61936D02*
X23594Y-61898D01*
X23670Y-61859D01*
X23784Y-61859D01*
X23860Y-61898D01*
X23898Y-61974D01*
X23898Y-62393D01*
X23898Y-61974D02*
X23936Y-61898D01*
X24013Y-61859D01*
X24127Y-61859D01*
X24203Y-61898D01*
X24241Y-61974D01*
X24241Y-62393D01*
X24622Y-62393D02*
X24622Y-61859D01*
X24622Y-61936D02*
X24661Y-61898D01*
X24737Y-61859D01*
X24851Y-61859D01*
X24927Y-61898D01*
X24965Y-61974D01*
X24965Y-62393D01*
X24965Y-61974D02*
X25003Y-61898D01*
X25080Y-61859D01*
X25194Y-61859D01*
X25270Y-61898D01*
X25308Y-61974D01*
X25308Y-62393D01*
X26528Y-62698D02*
X26490Y-62659D01*
X26414Y-62545D01*
X26376Y-62469D01*
X26338Y-62355D01*
X26299Y-62164D01*
X26299Y-62012D01*
X26338Y-61821D01*
X26376Y-61707D01*
X26414Y-61631D01*
X26490Y-61517D01*
X26528Y-61479D01*
X26756Y-61593D02*
X27252Y-61593D01*
X26985Y-61898D01*
X27099Y-61898D01*
X27175Y-61936D01*
X27213Y-61974D01*
X27252Y-62050D01*
X27252Y-62240D01*
X27213Y-62317D01*
X27175Y-62355D01*
X27099Y-62393D01*
X26871Y-62393D01*
X26794Y-62355D01*
X26756Y-62317D01*
X28014Y-62393D02*
X27556Y-62393D01*
X27785Y-62393D02*
X27785Y-61593D01*
X27709Y-61707D01*
X27633Y-61783D01*
X27556Y-61821D01*
X28966Y-62393D02*
X28966Y-61593D01*
X29309Y-62393D02*
X29309Y-61974D01*
X29271Y-61898D01*
X29195Y-61859D01*
X29081Y-61859D01*
X29005Y-61898D01*
X28966Y-61936D01*
X29805Y-62393D02*
X29729Y-62355D01*
X29690Y-62317D01*
X29652Y-62240D01*
X29652Y-62012D01*
X29690Y-61936D01*
X29729Y-61898D01*
X29805Y-61859D01*
X29919Y-61859D01*
X29995Y-61898D01*
X30033Y-61936D01*
X30071Y-62012D01*
X30071Y-62240D01*
X30033Y-62317D01*
X29995Y-62355D01*
X29919Y-62393D01*
X29805Y-62393D01*
X30529Y-62393D02*
X30453Y-62355D01*
X30414Y-62279D01*
X30414Y-61593D01*
X31138Y-62355D02*
X31062Y-62393D01*
X30910Y-62393D01*
X30833Y-62355D01*
X30795Y-62279D01*
X30795Y-61974D01*
X30833Y-61898D01*
X30910Y-61859D01*
X31062Y-61859D01*
X31138Y-61898D01*
X31176Y-61974D01*
X31176Y-62050D01*
X30795Y-62126D01*
X31481Y-62355D02*
X31558Y-62393D01*
X31710Y-62393D01*
X31786Y-62355D01*
X31824Y-62279D01*
X31824Y-62240D01*
X31786Y-62164D01*
X31710Y-62126D01*
X31596Y-62126D01*
X31519Y-62088D01*
X31481Y-62012D01*
X31481Y-61974D01*
X31519Y-61898D01*
X31596Y-61859D01*
X31710Y-61859D01*
X31786Y-61898D01*
X32091Y-62698D02*
X32129Y-62659D01*
X32206Y-62545D01*
X32244Y-62469D01*
X32282Y-62355D01*
X32320Y-62164D01*
X32320Y-62012D01*
X32282Y-61821D01*
X32244Y-61707D01*
X32206Y-61631D01*
X32129Y-61517D01*
X32091Y-61479D01*
M02*
