G04 (created by PCBNEW-RS274X (2010-00-09 BZR 23xx)-stable) date Di 21 Jun 2011 02:42:33 CEST*
G01*
G70*
G90*
%MOIN*%
G04 Gerber Fmt 3.4, Leading zero omitted, Abs format*
%FSLAX34Y34*%
G04 APERTURE LIST*
%ADD10C,0.006000*%
%ADD11C,0.008000*%
%ADD12R,0.078700X0.023600*%
%ADD13R,0.165400X0.027600*%
%ADD14R,0.094500X0.116100*%
%ADD15R,0.094500X0.104300*%
%ADD16R,0.031400X0.031400*%
%ADD17R,0.216500X0.078700*%
%ADD18R,0.045000X0.025000*%
%ADD19R,0.025000X0.045000*%
%ADD20R,0.035000X0.055000*%
%ADD21R,0.055000X0.035000*%
%ADD22R,0.035800X0.048000*%
%ADD23R,0.047200X0.023600*%
%ADD24R,0.060000X0.009800*%
%ADD25O,0.060000X0.009800*%
%ADD26O,0.009800X0.060000*%
%ADD27R,0.031500X0.035400*%
%ADD28R,0.035400X0.031500*%
%ADD29R,0.126000X0.039400*%
%ADD30R,0.078700X0.019700*%
%ADD31R,0.086600X0.098400*%
%ADD32R,0.090600X0.039400*%
%ADD33R,0.090600X0.019700*%
%ADD34R,0.157500X0.066900*%
%ADD35R,0.016000X0.074800*%
%ADD36R,0.020000X0.012000*%
%ADD37R,0.023600X0.043300*%
G04 APERTURE END LIST*
G54D10*
G54D11*
X14450Y-56300D02*
X14450Y-34950D01*
X48250Y-56300D02*
X14450Y-56300D01*
X48250Y-34950D02*
X48250Y-56300D01*
X15250Y-34950D02*
X48250Y-34950D01*
X14450Y-34950D02*
X15250Y-34950D01*
G54D12*
X16947Y-41066D03*
X16947Y-41459D03*
X16947Y-41853D03*
X16947Y-42247D03*
X16947Y-42641D03*
X16947Y-43034D03*
G54D13*
X16120Y-40672D03*
X16120Y-43428D03*
G54D14*
X46843Y-38811D03*
X45780Y-41281D03*
G54D15*
X43024Y-38752D03*
G54D16*
X30521Y-53337D03*
X29931Y-53337D03*
X30548Y-54115D03*
X29958Y-54115D03*
G54D17*
X32850Y-40700D03*
X29150Y-40700D03*
G54D18*
X33178Y-53736D03*
X33178Y-54336D03*
G54D19*
X33687Y-51400D03*
X34287Y-51400D03*
X41795Y-45537D03*
X41195Y-45537D03*
X32050Y-53350D03*
X31450Y-53350D03*
X32050Y-54150D03*
X31450Y-54150D03*
X40842Y-41267D03*
X41442Y-41267D03*
X25050Y-44700D03*
X25650Y-44700D03*
X40150Y-46550D03*
X40750Y-46550D03*
X40150Y-47300D03*
X40750Y-47300D03*
G54D18*
X32700Y-38350D03*
X32700Y-38950D03*
X30700Y-38350D03*
X30700Y-38950D03*
X29700Y-38350D03*
X29700Y-38950D03*
X28700Y-38350D03*
X28700Y-38950D03*
X27700Y-38350D03*
X27700Y-38950D03*
X42750Y-48200D03*
X42750Y-47600D03*
X43750Y-47450D03*
X43750Y-46850D03*
G54D19*
X46250Y-44750D03*
X45650Y-44750D03*
X27551Y-43763D03*
X26951Y-43763D03*
X38350Y-54050D03*
X38950Y-54050D03*
X38348Y-54857D03*
X38948Y-54857D03*
G54D18*
X35015Y-42785D03*
X35015Y-42185D03*
X32850Y-50800D03*
X32850Y-51400D03*
X29150Y-42200D03*
X29150Y-42800D03*
X31800Y-42800D03*
X31800Y-42200D03*
G54D19*
X28700Y-48500D03*
X28100Y-48500D03*
G54D18*
X30600Y-42800D03*
X30600Y-42200D03*
G54D19*
X41050Y-54850D03*
X40450Y-54850D03*
G54D18*
X38500Y-42450D03*
X38500Y-41850D03*
G54D19*
X28700Y-47150D03*
X28100Y-47150D03*
G54D18*
X37550Y-42450D03*
X37550Y-41850D03*
G54D19*
X25650Y-45500D03*
X25050Y-45500D03*
G54D18*
X33350Y-42800D03*
X33350Y-42200D03*
G54D19*
X37500Y-45900D03*
X38100Y-45900D03*
G54D18*
X26600Y-45400D03*
X26600Y-44800D03*
X41800Y-48150D03*
X41800Y-47550D03*
X31420Y-50809D03*
X31420Y-51409D03*
X32647Y-42804D03*
X32647Y-42204D03*
G54D19*
X28700Y-46450D03*
X28100Y-46450D03*
G54D20*
X25870Y-43753D03*
X25120Y-43753D03*
G54D21*
X43900Y-52325D03*
X43900Y-53075D03*
G54D22*
X42655Y-54850D03*
X43945Y-54850D03*
X42655Y-53950D03*
X43945Y-53950D03*
X44905Y-43750D03*
X46195Y-43750D03*
G54D23*
X36483Y-54212D03*
X36483Y-53712D03*
X36483Y-53212D03*
X34199Y-52712D03*
X34199Y-53212D03*
X34199Y-53712D03*
X34199Y-54212D03*
G54D24*
X30639Y-45324D03*
G54D25*
X30639Y-45521D03*
X30639Y-45718D03*
X30639Y-45915D03*
X30639Y-46112D03*
X30639Y-46308D03*
X30639Y-46505D03*
X30639Y-46702D03*
X30639Y-46899D03*
X30639Y-47096D03*
X30639Y-47293D03*
X30639Y-47489D03*
X30639Y-47686D03*
X30639Y-47883D03*
X30639Y-48080D03*
X30639Y-48277D03*
G54D26*
X31474Y-49175D03*
X31671Y-49175D03*
X31868Y-49175D03*
X32065Y-49175D03*
X32262Y-49175D03*
X32458Y-49175D03*
X32655Y-49175D03*
X32852Y-49175D03*
X33049Y-49175D03*
X33246Y-49175D03*
X33443Y-49175D03*
X33639Y-49175D03*
X33836Y-49175D03*
X34033Y-49175D03*
X34230Y-49175D03*
X34427Y-49175D03*
G54D25*
X35325Y-48277D03*
X35325Y-48080D03*
X35325Y-47883D03*
X35325Y-47686D03*
X35325Y-47489D03*
X35325Y-47293D03*
X35325Y-47096D03*
X35325Y-46899D03*
X35325Y-46702D03*
X35325Y-46505D03*
X35325Y-46308D03*
X35325Y-46112D03*
X35325Y-45915D03*
X35325Y-45718D03*
X35325Y-45521D03*
X35325Y-45324D03*
G54D26*
X34427Y-44489D03*
X34230Y-44489D03*
X33836Y-44489D03*
X34033Y-44482D03*
X33639Y-44489D03*
X33443Y-44489D03*
X33246Y-44489D03*
X33049Y-44489D03*
X32852Y-44489D03*
X32655Y-44489D03*
X32461Y-44489D03*
X32264Y-44489D03*
X32067Y-44489D03*
X31870Y-44489D03*
X31674Y-44489D03*
X31477Y-44489D03*
G54D27*
X41806Y-44533D03*
X42594Y-44533D03*
X42200Y-43667D03*
G54D28*
X45833Y-46544D03*
X45833Y-45756D03*
X44967Y-46150D03*
G54D29*
X18639Y-36063D03*
X18639Y-37637D03*
X15961Y-37637D03*
X15961Y-36063D03*
X23939Y-36063D03*
X23939Y-37637D03*
X21261Y-37637D03*
X21261Y-36063D03*
G54D30*
X44764Y-50315D03*
X44764Y-50000D03*
X44764Y-49685D03*
X44764Y-49370D03*
X44764Y-50630D03*
G54D31*
X44863Y-51654D03*
X44863Y-48346D03*
X46949Y-51654D03*
X46949Y-48346D03*
G54D32*
X25403Y-52294D03*
X25403Y-51794D03*
X25403Y-50794D03*
X25403Y-51294D03*
X25403Y-50294D03*
X25403Y-49794D03*
X25403Y-49294D03*
X25403Y-48794D03*
G54D33*
X25403Y-48400D03*
X25403Y-47889D03*
G54D34*
X15954Y-47172D03*
X15954Y-54928D03*
G54D35*
X22850Y-41300D03*
X22600Y-41300D03*
X22340Y-41300D03*
X22080Y-41300D03*
X21830Y-41300D03*
X21570Y-41300D03*
X21310Y-41300D03*
X21060Y-41300D03*
X20800Y-41300D03*
X20550Y-41300D03*
X20550Y-43400D03*
X20800Y-43400D03*
X21060Y-43400D03*
X21310Y-43400D03*
X21570Y-43400D03*
X21830Y-43400D03*
X22080Y-43400D03*
X22340Y-43400D03*
X22600Y-43400D03*
X22850Y-43400D03*
G54D19*
X40050Y-49500D03*
X39450Y-49500D03*
X23200Y-39600D03*
X22600Y-39600D03*
X21150Y-39600D03*
X21750Y-39600D03*
X19700Y-39600D03*
X20300Y-39600D03*
G54D18*
X38250Y-50200D03*
X38250Y-50800D03*
G54D36*
X39400Y-50350D03*
X39400Y-50850D03*
X40200Y-50350D03*
X39400Y-50600D03*
X40200Y-50850D03*
G54D37*
X40326Y-53362D03*
X40700Y-53362D03*
X41074Y-53362D03*
X40326Y-52338D03*
X40700Y-52338D03*
X41074Y-52338D03*
M02*
