G04 (created by PCBNEW-RS274X (2011-06-08)-testing) date Fr 01 Jul 2011 23:29:28 CEST*
G01*
G70*
G90*
%MOIN*%
G04 Gerber Fmt 3.4, Leading zero omitted, Abs format*
%FSLAX34Y34*%
G04 APERTURE LIST*
%ADD10C,0.006000*%
%ADD11C,0.008000*%
%ADD12R,0.080000X0.080000*%
%ADD13C,0.080000*%
%ADD14C,0.106600*%
%ADD15C,0.149900*%
%ADD16C,0.067200*%
%ADD17R,0.047600X0.079100*%
%ADD18R,0.079100X0.047600*%
%ADD19O,0.126300X0.086900*%
%ADD20O,0.085000X0.063300*%
G04 APERTURE END LIST*
G54D10*
G54D11*
X14450Y-56300D02*
X14450Y-34950D01*
X48250Y-56300D02*
X14450Y-56300D01*
X48250Y-34950D02*
X48250Y-56300D01*
X15250Y-34950D02*
X48250Y-34950D01*
X14450Y-34950D02*
X15250Y-34950D01*
G54D12*
X27550Y-37050D03*
G54D13*
X27550Y-36050D03*
X28550Y-37050D03*
X28550Y-36050D03*
X29550Y-37050D03*
X29550Y-36050D03*
X30550Y-37050D03*
X30550Y-36050D03*
X31550Y-37050D03*
X31550Y-36050D03*
X32550Y-37050D03*
X32550Y-36050D03*
X33550Y-37050D03*
X33550Y-36050D03*
X34550Y-37050D03*
X34550Y-36050D03*
X35550Y-37050D03*
X35550Y-36050D03*
X36550Y-37050D03*
X36550Y-36050D03*
G54D12*
X37900Y-39100D03*
G54D13*
X38900Y-39100D03*
G54D12*
X39900Y-39100D03*
G54D13*
X40900Y-39100D03*
G54D12*
X46600Y-53700D03*
G54D13*
X46600Y-54700D03*
G54D12*
X42200Y-36200D03*
G54D13*
X43200Y-36200D03*
X44200Y-36200D03*
X45200Y-36200D03*
X46200Y-36200D03*
X47200Y-36200D03*
G54D14*
X19383Y-48150D03*
X42217Y-48150D03*
G54D15*
X19383Y-52087D03*
X19383Y-44213D03*
X42217Y-52087D03*
X42217Y-44213D03*
G54D13*
X33509Y-55650D03*
X32509Y-55650D03*
X31509Y-55650D03*
X30509Y-55650D03*
X33509Y-40650D03*
X32509Y-40650D03*
X31509Y-40650D03*
X30509Y-40650D03*
X29009Y-40650D03*
X29009Y-41650D03*
G54D16*
X45650Y-39600D03*
G54D17*
X46595Y-39600D03*
G54D18*
X44666Y-40328D03*
X44666Y-38872D03*
G54D17*
X43878Y-39600D03*
G54D19*
X46761Y-50737D03*
X46761Y-47863D03*
G54D20*
X44665Y-49930D03*
X44665Y-49300D03*
X44665Y-48670D03*
X45353Y-49615D03*
X45353Y-48985D03*
M02*
