G04 (created by PCBNEW-RS274X (2010-00-09 BZR 23xx)-stable) date Di 21 Jun 2011 02:42:33 CEST*
G01*
G70*
G90*
%MOIN*%
G04 Gerber Fmt 3.4, Leading zero omitted, Abs format*
%FSLAX34Y34*%
G04 APERTURE LIST*
%ADD10C,0.006000*%
%ADD11C,0.008000*%
%ADD12C,0.015000*%
%ADD13C,0.002600*%
%ADD14C,0.004000*%
%ADD15C,0.005000*%
%ADD16C,0.012000*%
%ADD17C,0.010000*%
%ADD18C,0.006500*%
%ADD19C,0.003500*%
%ADD20C,0.004500*%
%ADD21C,0.005900*%
%ADD22C,0.007500*%
G04 APERTURE END LIST*
G54D10*
G54D11*
X14450Y-56300D02*
X14450Y-34950D01*
X48250Y-56300D02*
X14450Y-56300D01*
X48250Y-34950D02*
X48250Y-56300D01*
X15250Y-34950D02*
X48250Y-34950D01*
X14450Y-34950D02*
X15250Y-34950D01*
G54D12*
X15057Y-39963D02*
X16750Y-39963D01*
X16750Y-39963D02*
X16750Y-44137D01*
X16750Y-44137D02*
X15057Y-44137D01*
X14585Y-39333D02*
X15057Y-39333D01*
X14585Y-44767D02*
X15057Y-44767D01*
X14585Y-39333D02*
X14585Y-44767D01*
X15057Y-44767D02*
X15057Y-39333D01*
X47512Y-40887D02*
X48103Y-40887D01*
X48103Y-40887D02*
X48103Y-39313D01*
X48103Y-39313D02*
X47512Y-39313D01*
X47512Y-41084D02*
X42788Y-41084D01*
X42788Y-41084D02*
X42788Y-39116D01*
X42788Y-39116D02*
X47512Y-39116D01*
X47512Y-39116D02*
X47512Y-41084D01*
G54D13*
X30049Y-53514D02*
X30049Y-53160D01*
X30049Y-53160D02*
X29892Y-53160D01*
X29892Y-53514D02*
X29892Y-53160D01*
X30049Y-53514D02*
X29892Y-53514D01*
X30560Y-53514D02*
X30560Y-53160D01*
X30560Y-53160D02*
X30403Y-53160D01*
X30403Y-53514D02*
X30403Y-53160D01*
X30560Y-53514D02*
X30403Y-53514D01*
X30226Y-53514D02*
X30226Y-53455D01*
X30226Y-53455D02*
X30108Y-53455D01*
X30108Y-53514D02*
X30108Y-53455D01*
X30226Y-53514D02*
X30108Y-53514D01*
X30226Y-53219D02*
X30226Y-53160D01*
X30226Y-53160D02*
X30108Y-53160D01*
X30108Y-53219D02*
X30108Y-53160D01*
X30226Y-53219D02*
X30108Y-53219D01*
X30226Y-53396D02*
X30226Y-53278D01*
X30226Y-53278D02*
X30108Y-53278D01*
X30108Y-53396D02*
X30108Y-53278D01*
X30226Y-53396D02*
X30108Y-53396D01*
G54D14*
X30049Y-53494D02*
X30403Y-53494D01*
X30049Y-53180D02*
X30403Y-53180D01*
G54D13*
X30076Y-54292D02*
X30076Y-53938D01*
X30076Y-53938D02*
X29919Y-53938D01*
X29919Y-54292D02*
X29919Y-53938D01*
X30076Y-54292D02*
X29919Y-54292D01*
X30587Y-54292D02*
X30587Y-53938D01*
X30587Y-53938D02*
X30430Y-53938D01*
X30430Y-54292D02*
X30430Y-53938D01*
X30587Y-54292D02*
X30430Y-54292D01*
X30253Y-54292D02*
X30253Y-54233D01*
X30253Y-54233D02*
X30135Y-54233D01*
X30135Y-54292D02*
X30135Y-54233D01*
X30253Y-54292D02*
X30135Y-54292D01*
X30253Y-53997D02*
X30253Y-53938D01*
X30253Y-53938D02*
X30135Y-53938D01*
X30135Y-53997D02*
X30135Y-53938D01*
X30253Y-53997D02*
X30135Y-53997D01*
X30253Y-54174D02*
X30253Y-54056D01*
X30253Y-54056D02*
X30135Y-54056D01*
X30135Y-54174D02*
X30135Y-54056D01*
X30253Y-54174D02*
X30135Y-54174D01*
G54D14*
X30076Y-54272D02*
X30430Y-54272D01*
X30076Y-53958D02*
X30430Y-53958D01*
G54D12*
X36200Y-37700D02*
X26200Y-37700D01*
X36200Y-35700D02*
X26200Y-35700D01*
X26200Y-35700D02*
X26200Y-37700D01*
X36202Y-37700D02*
X36202Y-35700D01*
G54D10*
X36750Y-39450D02*
X36750Y-38450D01*
X36750Y-38450D02*
X38750Y-38450D01*
X38750Y-38450D02*
X38750Y-39450D01*
X38750Y-39450D02*
X36750Y-39450D01*
X39050Y-39450D02*
X39050Y-38450D01*
X39050Y-38450D02*
X41050Y-38450D01*
X41050Y-38450D02*
X41050Y-39450D01*
X41050Y-39450D02*
X39050Y-39450D01*
X46100Y-53200D02*
X47100Y-53200D01*
X47100Y-53200D02*
X47100Y-55200D01*
X47100Y-55200D02*
X46100Y-55200D01*
X46100Y-55200D02*
X46100Y-53200D01*
G54D11*
X32950Y-41350D02*
X32950Y-40050D01*
X32950Y-40050D02*
X32700Y-39800D01*
X32700Y-39800D02*
X29300Y-39800D01*
X29300Y-39800D02*
X29050Y-40050D01*
X29050Y-40050D02*
X29050Y-41350D01*
X29050Y-41350D02*
X29300Y-41600D01*
X29300Y-41600D02*
X32700Y-41600D01*
X32700Y-41600D02*
X32950Y-41350D01*
X28750Y-41700D02*
X28750Y-39700D01*
X28750Y-39700D02*
X33250Y-39700D01*
X33250Y-39700D02*
X33250Y-41700D01*
X33250Y-41700D02*
X28750Y-41700D01*
G54D15*
X33428Y-53586D02*
X33428Y-54486D01*
X33428Y-54486D02*
X32928Y-54486D01*
X32928Y-54486D02*
X32928Y-53586D01*
X32928Y-53586D02*
X33428Y-53586D01*
X33537Y-51150D02*
X34437Y-51150D01*
X34437Y-51150D02*
X34437Y-51650D01*
X34437Y-51650D02*
X33537Y-51650D01*
X33537Y-51650D02*
X33537Y-51150D01*
X41945Y-45787D02*
X41045Y-45787D01*
X41045Y-45787D02*
X41045Y-45287D01*
X41045Y-45287D02*
X41945Y-45287D01*
X41945Y-45287D02*
X41945Y-45787D01*
X32200Y-53600D02*
X31300Y-53600D01*
X31300Y-53600D02*
X31300Y-53100D01*
X31300Y-53100D02*
X32200Y-53100D01*
X32200Y-53100D02*
X32200Y-53600D01*
X32200Y-54400D02*
X31300Y-54400D01*
X31300Y-54400D02*
X31300Y-53900D01*
X31300Y-53900D02*
X32200Y-53900D01*
X32200Y-53900D02*
X32200Y-54400D01*
X40692Y-41017D02*
X41592Y-41017D01*
X41592Y-41017D02*
X41592Y-41517D01*
X41592Y-41517D02*
X40692Y-41517D01*
X40692Y-41517D02*
X40692Y-41017D01*
X24900Y-44450D02*
X25800Y-44450D01*
X25800Y-44450D02*
X25800Y-44950D01*
X25800Y-44950D02*
X24900Y-44950D01*
X24900Y-44950D02*
X24900Y-44450D01*
X40000Y-46300D02*
X40900Y-46300D01*
X40900Y-46300D02*
X40900Y-46800D01*
X40900Y-46800D02*
X40000Y-46800D01*
X40000Y-46800D02*
X40000Y-46300D01*
X40000Y-47050D02*
X40900Y-47050D01*
X40900Y-47050D02*
X40900Y-47550D01*
X40900Y-47550D02*
X40000Y-47550D01*
X40000Y-47550D02*
X40000Y-47050D01*
X32950Y-38200D02*
X32950Y-39100D01*
X32950Y-39100D02*
X32450Y-39100D01*
X32450Y-39100D02*
X32450Y-38200D01*
X32450Y-38200D02*
X32950Y-38200D01*
X30950Y-38200D02*
X30950Y-39100D01*
X30950Y-39100D02*
X30450Y-39100D01*
X30450Y-39100D02*
X30450Y-38200D01*
X30450Y-38200D02*
X30950Y-38200D01*
X29950Y-38200D02*
X29950Y-39100D01*
X29950Y-39100D02*
X29450Y-39100D01*
X29450Y-39100D02*
X29450Y-38200D01*
X29450Y-38200D02*
X29950Y-38200D01*
X28950Y-38200D02*
X28950Y-39100D01*
X28950Y-39100D02*
X28450Y-39100D01*
X28450Y-39100D02*
X28450Y-38200D01*
X28450Y-38200D02*
X28950Y-38200D01*
X27950Y-38200D02*
X27950Y-39100D01*
X27950Y-39100D02*
X27450Y-39100D01*
X27450Y-39100D02*
X27450Y-38200D01*
X27450Y-38200D02*
X27950Y-38200D01*
X42500Y-48350D02*
X42500Y-47450D01*
X42500Y-47450D02*
X43000Y-47450D01*
X43000Y-47450D02*
X43000Y-48350D01*
X43000Y-48350D02*
X42500Y-48350D01*
X43500Y-47600D02*
X43500Y-46700D01*
X43500Y-46700D02*
X44000Y-46700D01*
X44000Y-46700D02*
X44000Y-47600D01*
X44000Y-47600D02*
X43500Y-47600D01*
X46400Y-45000D02*
X45500Y-45000D01*
X45500Y-45000D02*
X45500Y-44500D01*
X45500Y-44500D02*
X46400Y-44500D01*
X46400Y-44500D02*
X46400Y-45000D01*
X27701Y-44013D02*
X26801Y-44013D01*
X26801Y-44013D02*
X26801Y-43513D01*
X26801Y-43513D02*
X27701Y-43513D01*
X27701Y-43513D02*
X27701Y-44013D01*
X38200Y-53800D02*
X39100Y-53800D01*
X39100Y-53800D02*
X39100Y-54300D01*
X39100Y-54300D02*
X38200Y-54300D01*
X38200Y-54300D02*
X38200Y-53800D01*
X38198Y-54607D02*
X39098Y-54607D01*
X39098Y-54607D02*
X39098Y-55107D01*
X39098Y-55107D02*
X38198Y-55107D01*
X38198Y-55107D02*
X38198Y-54607D01*
X34765Y-42935D02*
X34765Y-42035D01*
X34765Y-42035D02*
X35265Y-42035D01*
X35265Y-42035D02*
X35265Y-42935D01*
X35265Y-42935D02*
X34765Y-42935D01*
X33100Y-50650D02*
X33100Y-51550D01*
X33100Y-51550D02*
X32600Y-51550D01*
X32600Y-51550D02*
X32600Y-50650D01*
X32600Y-50650D02*
X33100Y-50650D01*
X29400Y-42050D02*
X29400Y-42950D01*
X29400Y-42950D02*
X28900Y-42950D01*
X28900Y-42950D02*
X28900Y-42050D01*
X28900Y-42050D02*
X29400Y-42050D01*
X31550Y-42950D02*
X31550Y-42050D01*
X31550Y-42050D02*
X32050Y-42050D01*
X32050Y-42050D02*
X32050Y-42950D01*
X32050Y-42950D02*
X31550Y-42950D01*
X28850Y-48750D02*
X27950Y-48750D01*
X27950Y-48750D02*
X27950Y-48250D01*
X27950Y-48250D02*
X28850Y-48250D01*
X28850Y-48250D02*
X28850Y-48750D01*
X30350Y-42950D02*
X30350Y-42050D01*
X30350Y-42050D02*
X30850Y-42050D01*
X30850Y-42050D02*
X30850Y-42950D01*
X30850Y-42950D02*
X30350Y-42950D01*
X41200Y-55100D02*
X40300Y-55100D01*
X40300Y-55100D02*
X40300Y-54600D01*
X40300Y-54600D02*
X41200Y-54600D01*
X41200Y-54600D02*
X41200Y-55100D01*
X38250Y-42600D02*
X38250Y-41700D01*
X38250Y-41700D02*
X38750Y-41700D01*
X38750Y-41700D02*
X38750Y-42600D01*
X38750Y-42600D02*
X38250Y-42600D01*
X28850Y-47400D02*
X27950Y-47400D01*
X27950Y-47400D02*
X27950Y-46900D01*
X27950Y-46900D02*
X28850Y-46900D01*
X28850Y-46900D02*
X28850Y-47400D01*
X37300Y-42600D02*
X37300Y-41700D01*
X37300Y-41700D02*
X37800Y-41700D01*
X37800Y-41700D02*
X37800Y-42600D01*
X37800Y-42600D02*
X37300Y-42600D01*
X25800Y-45750D02*
X24900Y-45750D01*
X24900Y-45750D02*
X24900Y-45250D01*
X24900Y-45250D02*
X25800Y-45250D01*
X25800Y-45250D02*
X25800Y-45750D01*
X33100Y-42950D02*
X33100Y-42050D01*
X33100Y-42050D02*
X33600Y-42050D01*
X33600Y-42050D02*
X33600Y-42950D01*
X33600Y-42950D02*
X33100Y-42950D01*
X37350Y-45650D02*
X38250Y-45650D01*
X38250Y-45650D02*
X38250Y-46150D01*
X38250Y-46150D02*
X37350Y-46150D01*
X37350Y-46150D02*
X37350Y-45650D01*
X26350Y-45550D02*
X26350Y-44650D01*
X26350Y-44650D02*
X26850Y-44650D01*
X26850Y-44650D02*
X26850Y-45550D01*
X26850Y-45550D02*
X26350Y-45550D01*
X41550Y-48300D02*
X41550Y-47400D01*
X41550Y-47400D02*
X42050Y-47400D01*
X42050Y-47400D02*
X42050Y-48300D01*
X42050Y-48300D02*
X41550Y-48300D01*
X31670Y-50659D02*
X31670Y-51559D01*
X31670Y-51559D02*
X31170Y-51559D01*
X31170Y-51559D02*
X31170Y-50659D01*
X31170Y-50659D02*
X31670Y-50659D01*
X32397Y-42954D02*
X32397Y-42054D01*
X32397Y-42054D02*
X32897Y-42054D01*
X32897Y-42054D02*
X32897Y-42954D01*
X32897Y-42954D02*
X32397Y-42954D01*
X28850Y-46700D02*
X27950Y-46700D01*
X27950Y-46700D02*
X27950Y-46200D01*
X27950Y-46200D02*
X28850Y-46200D01*
X28850Y-46200D02*
X28850Y-46700D01*
X26195Y-43453D02*
X26194Y-43462D01*
X26191Y-43472D01*
X26186Y-43480D01*
X26180Y-43488D01*
X26172Y-43494D01*
X26164Y-43499D01*
X26155Y-43501D01*
X26145Y-43502D01*
X26136Y-43502D01*
X26127Y-43499D01*
X26118Y-43494D01*
X26111Y-43488D01*
X26104Y-43481D01*
X26100Y-43472D01*
X26097Y-43463D01*
X26096Y-43453D01*
X26096Y-43444D01*
X26099Y-43435D01*
X26103Y-43426D01*
X26110Y-43419D01*
X26117Y-43412D01*
X26125Y-43408D01*
X26135Y-43405D01*
X26144Y-43404D01*
X26153Y-43404D01*
X26163Y-43407D01*
X26171Y-43411D01*
X26179Y-43417D01*
X26185Y-43425D01*
X26190Y-43433D01*
X26193Y-43442D01*
X26194Y-43452D01*
X26195Y-43453D01*
X25695Y-43453D02*
X26095Y-43453D01*
X26095Y-43453D02*
X26095Y-44053D01*
X26095Y-44053D02*
X25695Y-44053D01*
X25295Y-44053D02*
X24895Y-44053D01*
X24895Y-44053D02*
X24895Y-43453D01*
X24895Y-43453D02*
X25295Y-43453D01*
X43650Y-52050D02*
X43649Y-52059D01*
X43646Y-52069D01*
X43641Y-52077D01*
X43635Y-52085D01*
X43627Y-52091D01*
X43619Y-52096D01*
X43610Y-52098D01*
X43600Y-52099D01*
X43591Y-52099D01*
X43582Y-52096D01*
X43573Y-52091D01*
X43566Y-52085D01*
X43559Y-52078D01*
X43555Y-52069D01*
X43552Y-52060D01*
X43551Y-52050D01*
X43551Y-52041D01*
X43554Y-52032D01*
X43558Y-52023D01*
X43565Y-52016D01*
X43572Y-52009D01*
X43580Y-52005D01*
X43590Y-52002D01*
X43599Y-52001D01*
X43608Y-52001D01*
X43618Y-52004D01*
X43626Y-52008D01*
X43634Y-52014D01*
X43640Y-52022D01*
X43645Y-52030D01*
X43648Y-52039D01*
X43649Y-52049D01*
X43650Y-52050D01*
X43600Y-52500D02*
X43600Y-52100D01*
X43600Y-52100D02*
X44200Y-52100D01*
X44200Y-52100D02*
X44200Y-52500D01*
X44200Y-52900D02*
X44200Y-53300D01*
X44200Y-53300D02*
X43600Y-53300D01*
X43600Y-53300D02*
X43600Y-52900D01*
G54D12*
X35695Y-54210D02*
X35694Y-54217D01*
X35692Y-54224D01*
X35688Y-54231D01*
X35683Y-54237D01*
X35677Y-54242D01*
X35671Y-54245D01*
X35663Y-54248D01*
X35656Y-54248D01*
X35649Y-54248D01*
X35642Y-54246D01*
X35635Y-54242D01*
X35629Y-54237D01*
X35624Y-54232D01*
X35621Y-54225D01*
X35618Y-54218D01*
X35618Y-54210D01*
X35618Y-54203D01*
X35620Y-54196D01*
X35624Y-54189D01*
X35628Y-54183D01*
X35634Y-54178D01*
X35641Y-54175D01*
X35648Y-54172D01*
X35656Y-54172D01*
X35662Y-54172D01*
X35670Y-54174D01*
X35676Y-54178D01*
X35682Y-54182D01*
X35687Y-54188D01*
X35691Y-54195D01*
X35694Y-54202D01*
X35694Y-54209D01*
X35695Y-54210D01*
X35892Y-54446D02*
X35892Y-52478D01*
X36128Y-54446D02*
X34554Y-54446D01*
X34554Y-54446D02*
X34554Y-52478D01*
X34554Y-52478D02*
X36128Y-52478D01*
X36128Y-52478D02*
X36128Y-54446D01*
G54D11*
X31532Y-45232D02*
X31529Y-45261D01*
X31520Y-45289D01*
X31506Y-45315D01*
X31488Y-45337D01*
X31465Y-45356D01*
X31440Y-45370D01*
X31412Y-45378D01*
X31383Y-45381D01*
X31354Y-45379D01*
X31326Y-45371D01*
X31300Y-45357D01*
X31278Y-45339D01*
X31259Y-45316D01*
X31245Y-45291D01*
X31236Y-45263D01*
X31233Y-45234D01*
X31235Y-45205D01*
X31243Y-45177D01*
X31256Y-45151D01*
X31275Y-45128D01*
X31297Y-45109D01*
X31322Y-45095D01*
X31350Y-45086D01*
X31379Y-45083D01*
X31408Y-45085D01*
X31436Y-45093D01*
X31462Y-45106D01*
X31485Y-45124D01*
X31504Y-45146D01*
X31519Y-45171D01*
X31528Y-45199D01*
X31531Y-45228D01*
X31532Y-45232D01*
X34982Y-48832D02*
X34982Y-44832D01*
X34982Y-44832D02*
X31232Y-44832D01*
X31232Y-44832D02*
X30982Y-45082D01*
X30982Y-45082D02*
X30982Y-48832D01*
X30982Y-48832D02*
X34982Y-48832D01*
G54D16*
X41700Y-36700D02*
X41700Y-35700D01*
X41700Y-35700D02*
X47700Y-35700D01*
X47700Y-35700D02*
X47700Y-36700D01*
X47700Y-36700D02*
X41700Y-36700D01*
X42700Y-36700D02*
X42700Y-35700D01*
G54D15*
X42771Y-43844D02*
X42771Y-44356D01*
X42771Y-44356D02*
X41629Y-44356D01*
X41629Y-44356D02*
X41629Y-43844D01*
X41629Y-43844D02*
X42771Y-43844D01*
X45144Y-45579D02*
X45656Y-45579D01*
X45656Y-45579D02*
X45656Y-46721D01*
X45656Y-46721D02*
X45144Y-46721D01*
X45144Y-46721D02*
X45144Y-45579D01*
G54D12*
X17694Y-36850D02*
X17686Y-36926D01*
X17664Y-37000D01*
X17628Y-37068D01*
X17579Y-37127D01*
X17520Y-37176D01*
X17452Y-37213D01*
X17379Y-37235D01*
X17302Y-37243D01*
X17227Y-37237D01*
X17153Y-37215D01*
X17085Y-37179D01*
X17025Y-37131D01*
X16975Y-37072D01*
X16938Y-37005D01*
X16915Y-36931D01*
X16907Y-36855D01*
X16913Y-36779D01*
X16934Y-36705D01*
X16969Y-36637D01*
X17017Y-36577D01*
X17076Y-36527D01*
X17143Y-36489D01*
X17216Y-36466D01*
X17292Y-36457D01*
X17368Y-36462D01*
X17442Y-36483D01*
X17511Y-36518D01*
X17571Y-36565D01*
X17621Y-36623D01*
X17659Y-36690D01*
X17684Y-36763D01*
X17693Y-36839D01*
X17694Y-36850D01*
X18580Y-35669D02*
X16020Y-35669D01*
X16020Y-35669D02*
X16020Y-38031D01*
X16020Y-38031D02*
X18580Y-38031D01*
X18580Y-38031D02*
X18580Y-35669D01*
X22994Y-36850D02*
X22986Y-36926D01*
X22964Y-37000D01*
X22928Y-37068D01*
X22879Y-37127D01*
X22820Y-37176D01*
X22752Y-37213D01*
X22679Y-37235D01*
X22602Y-37243D01*
X22527Y-37237D01*
X22453Y-37215D01*
X22385Y-37179D01*
X22325Y-37131D01*
X22275Y-37072D01*
X22238Y-37005D01*
X22215Y-36931D01*
X22207Y-36855D01*
X22213Y-36779D01*
X22234Y-36705D01*
X22269Y-36637D01*
X22317Y-36577D01*
X22376Y-36527D01*
X22443Y-36489D01*
X22516Y-36466D01*
X22592Y-36457D01*
X22668Y-36462D01*
X22742Y-36483D01*
X22811Y-36518D01*
X22871Y-36565D01*
X22921Y-36623D01*
X22959Y-36690D01*
X22984Y-36763D01*
X22993Y-36839D01*
X22994Y-36850D01*
X23880Y-35669D02*
X21320Y-35669D01*
X21320Y-35669D02*
X21320Y-38031D01*
X21320Y-38031D02*
X23880Y-38031D01*
X23880Y-38031D02*
X23880Y-35669D01*
G54D17*
X47540Y-50433D02*
X45886Y-50276D01*
X45886Y-50276D02*
X45886Y-49724D01*
X45886Y-49724D02*
X47540Y-49567D01*
X45689Y-49094D02*
X47382Y-48898D01*
X47382Y-48898D02*
X45689Y-48701D01*
X45689Y-51299D02*
X47382Y-51102D01*
X47382Y-51102D02*
X45689Y-50906D01*
X48170Y-51516D02*
X48170Y-48484D01*
X48170Y-48484D02*
X44626Y-48484D01*
X44626Y-48484D02*
X44626Y-51516D01*
X44626Y-51516D02*
X48170Y-51516D01*
G54D12*
X25541Y-53097D02*
X24824Y-53097D01*
X24824Y-53097D02*
X24824Y-47637D01*
X24824Y-47637D02*
X25541Y-47637D01*
X25541Y-47637D02*
X25541Y-47369D01*
X25541Y-47369D02*
X14576Y-47369D01*
X14576Y-47369D02*
X14576Y-51215D01*
X14576Y-51215D02*
X14576Y-54731D01*
X14576Y-54731D02*
X25541Y-54731D01*
X25541Y-54731D02*
X25541Y-53097D01*
G54D18*
X20200Y-43050D02*
X23200Y-43050D01*
X23200Y-41650D02*
X20200Y-41650D01*
X20200Y-43050D02*
X20200Y-41650D01*
G54D10*
X23200Y-41650D02*
X23200Y-43050D01*
G54D15*
X23141Y-41850D02*
X23138Y-41877D01*
X23130Y-41903D01*
X23117Y-41928D01*
X23100Y-41949D01*
X23078Y-41966D01*
X23054Y-41979D01*
X23028Y-41988D01*
X23000Y-41990D01*
X22974Y-41988D01*
X22948Y-41980D01*
X22923Y-41967D01*
X22902Y-41950D01*
X22884Y-41929D01*
X22871Y-41905D01*
X22863Y-41879D01*
X22860Y-41851D01*
X22862Y-41825D01*
X22869Y-41799D01*
X22882Y-41774D01*
X22899Y-41753D01*
X22920Y-41735D01*
X22944Y-41721D01*
X22970Y-41713D01*
X22998Y-41710D01*
X23024Y-41712D01*
X23050Y-41719D01*
X23075Y-41731D01*
X23097Y-41748D01*
X23115Y-41769D01*
X23128Y-41793D01*
X23137Y-41819D01*
X23140Y-41847D01*
X23141Y-41850D01*
X23200Y-42600D02*
X22900Y-42600D01*
X22900Y-42600D02*
X22900Y-42100D01*
X22900Y-42100D02*
X23200Y-42100D01*
X40200Y-49750D02*
X39300Y-49750D01*
X39300Y-49750D02*
X39300Y-49250D01*
X39300Y-49250D02*
X40200Y-49250D01*
X40200Y-49250D02*
X40200Y-49750D01*
X23350Y-39850D02*
X22450Y-39850D01*
X22450Y-39850D02*
X22450Y-39350D01*
X22450Y-39350D02*
X23350Y-39350D01*
X23350Y-39350D02*
X23350Y-39850D01*
X21000Y-39350D02*
X21900Y-39350D01*
X21900Y-39350D02*
X21900Y-39850D01*
X21900Y-39850D02*
X21000Y-39850D01*
X21000Y-39850D02*
X21000Y-39350D01*
X19550Y-39350D02*
X20450Y-39350D01*
X20450Y-39350D02*
X20450Y-39850D01*
X20450Y-39850D02*
X19550Y-39850D01*
X19550Y-39850D02*
X19550Y-39350D01*
X38500Y-50050D02*
X38500Y-50950D01*
X38500Y-50950D02*
X38000Y-50950D01*
X38000Y-50950D02*
X38000Y-50050D01*
X38000Y-50050D02*
X38500Y-50050D01*
G54D10*
X40050Y-51000D02*
X40050Y-50200D01*
X40050Y-50200D02*
X39550Y-50200D01*
X39550Y-50200D02*
X39550Y-51000D01*
X39550Y-51000D02*
X40050Y-51000D01*
G54D17*
X40294Y-52948D02*
X40293Y-52953D01*
X40291Y-52958D01*
X40289Y-52962D01*
X40286Y-52967D01*
X40282Y-52970D01*
X40277Y-52972D01*
X40272Y-52974D01*
X40267Y-52974D01*
X40262Y-52974D01*
X40257Y-52973D01*
X40253Y-52970D01*
X40249Y-52967D01*
X40245Y-52963D01*
X40243Y-52958D01*
X40241Y-52953D01*
X40241Y-52948D01*
X40241Y-52944D01*
X40242Y-52939D01*
X40245Y-52934D01*
X40248Y-52930D01*
X40252Y-52926D01*
X40257Y-52924D01*
X40262Y-52922D01*
X40267Y-52922D01*
X40271Y-52922D01*
X40276Y-52923D01*
X40281Y-52926D01*
X40285Y-52929D01*
X40289Y-52933D01*
X40291Y-52938D01*
X40293Y-52943D01*
X40293Y-52948D01*
X40294Y-52948D01*
X40109Y-52535D02*
X41291Y-52535D01*
X41291Y-52535D02*
X41291Y-53165D01*
X41291Y-53165D02*
X40109Y-53165D01*
X40109Y-53165D02*
X40109Y-52535D01*
G54D16*
X16093Y-42592D02*
X15493Y-42592D01*
X15493Y-42364D01*
X15521Y-42306D01*
X15550Y-42278D01*
X15607Y-42249D01*
X15693Y-42249D01*
X15750Y-42278D01*
X15779Y-42306D01*
X15807Y-42364D01*
X15807Y-42592D01*
X15493Y-42049D02*
X15493Y-41678D01*
X15721Y-41878D01*
X15721Y-41792D01*
X15750Y-41735D01*
X15779Y-41706D01*
X15836Y-41678D01*
X15979Y-41678D01*
X16036Y-41706D01*
X16064Y-41735D01*
X16093Y-41792D01*
X16093Y-41964D01*
X16064Y-42021D01*
X16036Y-42049D01*
X15800Y-45043D02*
X15600Y-44757D01*
X15457Y-45043D02*
X15457Y-44443D01*
X15685Y-44443D01*
X15743Y-44471D01*
X15771Y-44500D01*
X15800Y-44557D01*
X15800Y-44643D01*
X15771Y-44700D01*
X15743Y-44729D01*
X15685Y-44757D01*
X15457Y-44757D01*
X16057Y-44729D02*
X16257Y-44729D01*
X16343Y-45043D02*
X16057Y-45043D01*
X16057Y-44443D01*
X16343Y-44443D01*
X16800Y-44729D02*
X16886Y-44757D01*
X16914Y-44786D01*
X16943Y-44843D01*
X16943Y-44929D01*
X16914Y-44986D01*
X16886Y-45014D01*
X16828Y-45043D01*
X16600Y-45043D01*
X16600Y-44443D01*
X16800Y-44443D01*
X16857Y-44471D01*
X16886Y-44500D01*
X16914Y-44557D01*
X16914Y-44614D01*
X16886Y-44671D01*
X16857Y-44700D01*
X16800Y-44729D01*
X16600Y-44729D01*
X17200Y-44729D02*
X17400Y-44729D01*
X17486Y-45043D02*
X17200Y-45043D01*
X17200Y-44443D01*
X17486Y-44443D01*
X18029Y-45043D02*
X17743Y-45043D01*
X17743Y-44443D01*
X44664Y-42864D02*
X44750Y-42893D01*
X44893Y-42893D01*
X44950Y-42864D01*
X44979Y-42836D01*
X45007Y-42779D01*
X45007Y-42721D01*
X44979Y-42664D01*
X44950Y-42636D01*
X44893Y-42607D01*
X44779Y-42579D01*
X44721Y-42550D01*
X44693Y-42521D01*
X44664Y-42464D01*
X44664Y-42407D01*
X44693Y-42350D01*
X44721Y-42321D01*
X44779Y-42293D01*
X44921Y-42293D01*
X45007Y-42321D01*
X45264Y-42579D02*
X45464Y-42579D01*
X45550Y-42893D02*
X45264Y-42893D01*
X45264Y-42293D01*
X45550Y-42293D01*
X46150Y-42893D02*
X45950Y-42607D01*
X45807Y-42893D02*
X45807Y-42293D01*
X46035Y-42293D01*
X46093Y-42321D01*
X46121Y-42350D01*
X46150Y-42407D01*
X46150Y-42493D01*
X46121Y-42550D01*
X46093Y-42579D01*
X46035Y-42607D01*
X45807Y-42607D01*
X46407Y-42893D02*
X46407Y-42293D01*
X46664Y-42721D02*
X46950Y-42721D01*
X46607Y-42893D02*
X46807Y-42293D01*
X47007Y-42893D01*
X47493Y-42893D02*
X47207Y-42893D01*
X47207Y-42293D01*
G54D19*
X29678Y-52971D02*
X29678Y-52671D01*
X29750Y-52671D01*
X29793Y-52686D01*
X29821Y-52714D01*
X29836Y-52743D01*
X29850Y-52800D01*
X29850Y-52843D01*
X29836Y-52900D01*
X29821Y-52929D01*
X29793Y-52957D01*
X29750Y-52971D01*
X29678Y-52971D01*
X30121Y-52671D02*
X29978Y-52671D01*
X29964Y-52814D01*
X29978Y-52800D01*
X30007Y-52786D01*
X30078Y-52786D01*
X30107Y-52800D01*
X30121Y-52814D01*
X30136Y-52843D01*
X30136Y-52914D01*
X30121Y-52943D01*
X30107Y-52957D01*
X30078Y-52971D01*
X30007Y-52971D01*
X29978Y-52957D01*
X29964Y-52943D01*
X28351Y-53236D02*
X28322Y-53221D01*
X28279Y-53221D01*
X28236Y-53236D01*
X28208Y-53264D01*
X28193Y-53293D01*
X28179Y-53350D01*
X28179Y-53393D01*
X28193Y-53450D01*
X28208Y-53479D01*
X28236Y-53507D01*
X28279Y-53521D01*
X28308Y-53521D01*
X28351Y-53507D01*
X28365Y-53493D01*
X28365Y-53393D01*
X28308Y-53393D01*
X28665Y-53521D02*
X28565Y-53379D01*
X28493Y-53521D02*
X28493Y-53221D01*
X28608Y-53221D01*
X28636Y-53236D01*
X28651Y-53250D01*
X28665Y-53279D01*
X28665Y-53321D01*
X28651Y-53350D01*
X28636Y-53364D01*
X28608Y-53379D01*
X28493Y-53379D01*
X28793Y-53364D02*
X28893Y-53364D01*
X28936Y-53521D02*
X28793Y-53521D01*
X28793Y-53221D01*
X28936Y-53221D01*
X29064Y-53364D02*
X29164Y-53364D01*
X29207Y-53521D02*
X29064Y-53521D01*
X29064Y-53221D01*
X29207Y-53221D01*
X29335Y-53521D02*
X29335Y-53221D01*
X29507Y-53521D01*
X29507Y-53221D01*
X29728Y-54771D02*
X29728Y-54471D01*
X29800Y-54471D01*
X29843Y-54486D01*
X29871Y-54514D01*
X29886Y-54543D01*
X29900Y-54600D01*
X29900Y-54643D01*
X29886Y-54700D01*
X29871Y-54729D01*
X29843Y-54757D01*
X29800Y-54771D01*
X29728Y-54771D01*
X30157Y-54571D02*
X30157Y-54771D01*
X30086Y-54457D02*
X30014Y-54671D01*
X30200Y-54671D01*
X28358Y-54271D02*
X28258Y-54129D01*
X28186Y-54271D02*
X28186Y-53971D01*
X28301Y-53971D01*
X28329Y-53986D01*
X28344Y-54000D01*
X28358Y-54029D01*
X28358Y-54071D01*
X28344Y-54100D01*
X28329Y-54114D01*
X28301Y-54129D01*
X28186Y-54129D01*
X28486Y-54114D02*
X28586Y-54114D01*
X28629Y-54271D02*
X28486Y-54271D01*
X28486Y-53971D01*
X28629Y-53971D01*
X28757Y-54271D02*
X28757Y-53971D01*
X28829Y-53971D01*
X28872Y-53986D01*
X28900Y-54014D01*
X28915Y-54043D01*
X28929Y-54100D01*
X28929Y-54143D01*
X28915Y-54200D01*
X28900Y-54229D01*
X28872Y-54257D01*
X28829Y-54271D01*
X28757Y-54271D01*
G54D17*
X33855Y-38412D02*
X33855Y-38012D01*
X34008Y-38012D01*
X34046Y-38031D01*
X34065Y-38050D01*
X34084Y-38088D01*
X34084Y-38145D01*
X34065Y-38183D01*
X34046Y-38202D01*
X34008Y-38221D01*
X33855Y-38221D01*
X34465Y-38412D02*
X34236Y-38412D01*
X34350Y-38412D02*
X34350Y-38012D01*
X34312Y-38069D01*
X34274Y-38107D01*
X34236Y-38126D01*
G54D11*
X35184Y-38012D02*
X35184Y-38298D01*
X35164Y-38355D01*
X35126Y-38393D01*
X35069Y-38412D01*
X35031Y-38412D01*
X35317Y-38012D02*
X35546Y-38012D01*
X35431Y-38412D02*
X35431Y-38012D01*
X35660Y-38298D02*
X35851Y-38298D01*
X35622Y-38412D02*
X35755Y-38012D01*
X35889Y-38412D01*
X36232Y-38031D02*
X36194Y-38012D01*
X36137Y-38012D01*
X36079Y-38031D01*
X36041Y-38069D01*
X36022Y-38107D01*
X36003Y-38183D01*
X36003Y-38240D01*
X36022Y-38317D01*
X36041Y-38355D01*
X36079Y-38393D01*
X36137Y-38412D01*
X36175Y-38412D01*
X36232Y-38393D01*
X36251Y-38374D01*
X36251Y-38240D01*
X36175Y-38240D01*
G54D10*
X37500Y-38021D02*
X37500Y-38236D01*
X37486Y-38279D01*
X37457Y-38307D01*
X37414Y-38321D01*
X37386Y-38321D01*
X37643Y-38321D02*
X37643Y-38021D01*
X37758Y-38021D01*
X37786Y-38036D01*
X37801Y-38050D01*
X37815Y-38079D01*
X37815Y-38121D01*
X37801Y-38150D01*
X37786Y-38164D01*
X37758Y-38179D01*
X37643Y-38179D01*
X37929Y-38050D02*
X37943Y-38036D01*
X37972Y-38021D01*
X38043Y-38021D01*
X38072Y-38036D01*
X38086Y-38050D01*
X38101Y-38079D01*
X38101Y-38107D01*
X38086Y-38150D01*
X37915Y-38321D01*
X38101Y-38321D01*
X37179Y-39764D02*
X37279Y-39764D01*
X37322Y-39921D02*
X37179Y-39921D01*
X37179Y-39621D01*
X37322Y-39621D01*
X37622Y-39921D02*
X37522Y-39779D01*
X37450Y-39921D02*
X37450Y-39621D01*
X37565Y-39621D01*
X37593Y-39636D01*
X37608Y-39650D01*
X37622Y-39679D01*
X37622Y-39721D01*
X37608Y-39750D01*
X37593Y-39764D01*
X37565Y-39779D01*
X37450Y-39779D01*
X37736Y-39836D02*
X37879Y-39836D01*
X37708Y-39921D02*
X37808Y-39621D01*
X37908Y-39921D01*
X37993Y-39907D02*
X38036Y-39921D01*
X38107Y-39921D01*
X38136Y-39907D01*
X38150Y-39893D01*
X38165Y-39864D01*
X38165Y-39836D01*
X38150Y-39807D01*
X38136Y-39793D01*
X38107Y-39779D01*
X38050Y-39764D01*
X38022Y-39750D01*
X38007Y-39736D01*
X37993Y-39707D01*
X37993Y-39679D01*
X38007Y-39650D01*
X38022Y-39636D01*
X38050Y-39621D01*
X38122Y-39621D01*
X38165Y-39636D01*
X38293Y-39764D02*
X38393Y-39764D01*
X38436Y-39921D02*
X38293Y-39921D01*
X38293Y-39621D01*
X38436Y-39621D01*
X39800Y-38021D02*
X39800Y-38236D01*
X39786Y-38279D01*
X39757Y-38307D01*
X39714Y-38321D01*
X39686Y-38321D01*
X39943Y-38321D02*
X39943Y-38021D01*
X40058Y-38021D01*
X40086Y-38036D01*
X40101Y-38050D01*
X40115Y-38079D01*
X40115Y-38121D01*
X40101Y-38150D01*
X40086Y-38164D01*
X40058Y-38179D01*
X39943Y-38179D01*
X40401Y-38321D02*
X40229Y-38321D01*
X40315Y-38321D02*
X40315Y-38021D01*
X40286Y-38064D01*
X40258Y-38093D01*
X40229Y-38107D01*
X39572Y-39571D02*
X39743Y-39571D01*
X39657Y-39871D02*
X39657Y-39571D01*
X39843Y-39714D02*
X39943Y-39714D01*
X39986Y-39871D02*
X39843Y-39871D01*
X39843Y-39571D01*
X39986Y-39571D01*
X40100Y-39857D02*
X40143Y-39871D01*
X40214Y-39871D01*
X40243Y-39857D01*
X40257Y-39843D01*
X40272Y-39814D01*
X40272Y-39786D01*
X40257Y-39757D01*
X40243Y-39743D01*
X40214Y-39729D01*
X40157Y-39714D01*
X40129Y-39700D01*
X40114Y-39686D01*
X40100Y-39657D01*
X40100Y-39629D01*
X40114Y-39600D01*
X40129Y-39586D01*
X40157Y-39571D01*
X40229Y-39571D01*
X40272Y-39586D01*
X40358Y-39571D02*
X40529Y-39571D01*
X40443Y-39871D02*
X40443Y-39571D01*
X45814Y-54436D02*
X45829Y-54393D01*
X45843Y-54378D01*
X45871Y-54364D01*
X45914Y-54364D01*
X45943Y-54378D01*
X45957Y-54393D01*
X45971Y-54421D01*
X45971Y-54536D01*
X45671Y-54536D01*
X45671Y-54436D01*
X45686Y-54407D01*
X45700Y-54393D01*
X45729Y-54378D01*
X45757Y-54378D01*
X45786Y-54393D01*
X45800Y-54407D01*
X45814Y-54436D01*
X45814Y-54536D01*
X45671Y-54278D02*
X45671Y-54107D01*
X45971Y-54193D02*
X45671Y-54193D01*
X45971Y-53849D02*
X45971Y-54021D01*
X45971Y-53935D02*
X45671Y-53935D01*
X45714Y-53964D01*
X45743Y-53992D01*
X45757Y-54021D01*
X47421Y-54864D02*
X47621Y-54864D01*
X47307Y-54935D02*
X47521Y-55007D01*
X47521Y-54821D01*
X47593Y-54707D02*
X47607Y-54692D01*
X47621Y-54707D01*
X47607Y-54721D01*
X47593Y-54707D01*
X47621Y-54707D01*
X47321Y-54421D02*
X47321Y-54564D01*
X47464Y-54578D01*
X47450Y-54564D01*
X47436Y-54535D01*
X47436Y-54464D01*
X47450Y-54435D01*
X47464Y-54421D01*
X47493Y-54406D01*
X47564Y-54406D01*
X47593Y-54421D01*
X47607Y-54435D01*
X47621Y-54464D01*
X47621Y-54535D01*
X47607Y-54564D01*
X47593Y-54578D01*
X47507Y-54278D02*
X47507Y-54049D01*
X47321Y-53778D02*
X47321Y-53835D01*
X47336Y-53864D01*
X47350Y-53878D01*
X47393Y-53907D01*
X47450Y-53921D01*
X47564Y-53921D01*
X47593Y-53907D01*
X47607Y-53892D01*
X47621Y-53864D01*
X47621Y-53807D01*
X47607Y-53778D01*
X47593Y-53764D01*
X47564Y-53749D01*
X47493Y-53749D01*
X47464Y-53764D01*
X47450Y-53778D01*
X47436Y-53807D01*
X47436Y-53864D01*
X47450Y-53892D01*
X47464Y-53907D01*
X47493Y-53921D01*
X47321Y-53663D02*
X47621Y-53563D01*
X47321Y-53463D01*
G54D11*
X30676Y-40562D02*
X30943Y-40962D01*
X30943Y-40562D02*
X30676Y-40962D01*
X31305Y-40962D02*
X31076Y-40962D01*
X31190Y-40962D02*
X31190Y-40562D01*
X31152Y-40619D01*
X31114Y-40657D01*
X31076Y-40676D01*
X29808Y-40112D02*
X29579Y-40112D01*
X29693Y-40112D02*
X29693Y-39712D01*
X29655Y-39769D01*
X29617Y-39807D01*
X29579Y-39826D01*
X30036Y-39883D02*
X29998Y-39864D01*
X29979Y-39845D01*
X29960Y-39807D01*
X29960Y-39788D01*
X29979Y-39750D01*
X29998Y-39731D01*
X30036Y-39712D01*
X30113Y-39712D01*
X30151Y-39731D01*
X30170Y-39750D01*
X30189Y-39788D01*
X30189Y-39807D01*
X30170Y-39845D01*
X30151Y-39864D01*
X30113Y-39883D01*
X30036Y-39883D01*
X29998Y-39902D01*
X29979Y-39921D01*
X29960Y-39960D01*
X29960Y-40036D01*
X29979Y-40074D01*
X29998Y-40093D01*
X30036Y-40112D01*
X30113Y-40112D01*
X30151Y-40093D01*
X30170Y-40074D01*
X30189Y-40036D01*
X30189Y-39960D01*
X30170Y-39921D01*
X30151Y-39902D01*
X30113Y-39883D01*
X30360Y-40074D02*
X30379Y-40093D01*
X30360Y-40112D01*
X30341Y-40093D01*
X30360Y-40074D01*
X30360Y-40112D01*
X30722Y-39845D02*
X30722Y-40112D01*
X30626Y-39693D02*
X30531Y-39979D01*
X30779Y-39979D01*
X30893Y-39712D02*
X31141Y-39712D01*
X31007Y-39864D01*
X31065Y-39864D01*
X31103Y-39883D01*
X31122Y-39902D01*
X31141Y-39940D01*
X31141Y-40036D01*
X31122Y-40074D01*
X31103Y-40093D01*
X31065Y-40112D01*
X30950Y-40112D01*
X30912Y-40093D01*
X30893Y-40074D01*
X31293Y-39750D02*
X31312Y-39731D01*
X31350Y-39712D01*
X31446Y-39712D01*
X31484Y-39731D01*
X31503Y-39750D01*
X31522Y-39788D01*
X31522Y-39826D01*
X31503Y-39883D01*
X31274Y-40112D01*
X31522Y-40112D01*
X31693Y-40112D02*
X31693Y-39712D01*
X31827Y-39998D01*
X31960Y-39712D01*
X31960Y-40112D01*
X32150Y-40112D02*
X32150Y-39712D01*
X32150Y-39902D02*
X32379Y-39902D01*
X32379Y-40112D02*
X32379Y-39712D01*
X32531Y-39845D02*
X32741Y-39845D01*
X32531Y-40112D01*
X32741Y-40112D01*
G54D20*
X32763Y-54165D02*
X32630Y-54225D01*
X32763Y-54268D02*
X32483Y-54268D01*
X32483Y-54200D01*
X32497Y-54182D01*
X32510Y-54174D01*
X32537Y-54165D01*
X32577Y-54165D01*
X32603Y-54174D01*
X32617Y-54182D01*
X32630Y-54200D01*
X32630Y-54268D01*
X32763Y-53994D02*
X32763Y-54097D01*
X32763Y-54045D02*
X32483Y-54045D01*
X32523Y-54062D01*
X32550Y-54080D01*
X32563Y-54097D01*
X32603Y-53891D02*
X32590Y-53909D01*
X32577Y-53917D01*
X32550Y-53926D01*
X32537Y-53926D01*
X32510Y-53917D01*
X32497Y-53909D01*
X32483Y-53891D01*
X32483Y-53857D01*
X32497Y-53840D01*
X32510Y-53831D01*
X32537Y-53823D01*
X32550Y-53823D01*
X32577Y-53831D01*
X32590Y-53840D01*
X32603Y-53857D01*
X32603Y-53891D01*
X32617Y-53909D01*
X32630Y-53917D01*
X32657Y-53926D01*
X32710Y-53926D01*
X32737Y-53917D01*
X32750Y-53909D01*
X32763Y-53891D01*
X32763Y-53857D01*
X32750Y-53840D01*
X32737Y-53831D01*
X32710Y-53823D01*
X32657Y-53823D01*
X32630Y-53831D01*
X32617Y-53840D01*
X32603Y-53857D01*
X34735Y-51563D02*
X34675Y-51430D01*
X34632Y-51563D02*
X34632Y-51283D01*
X34700Y-51283D01*
X34718Y-51297D01*
X34726Y-51310D01*
X34735Y-51337D01*
X34735Y-51377D01*
X34726Y-51403D01*
X34718Y-51417D01*
X34700Y-51430D01*
X34632Y-51430D01*
X34906Y-51563D02*
X34803Y-51563D01*
X34855Y-51563D02*
X34855Y-51283D01*
X34838Y-51323D01*
X34820Y-51350D01*
X34803Y-51363D01*
X34966Y-51283D02*
X35086Y-51283D01*
X35009Y-51563D01*
X42235Y-45663D02*
X42175Y-45530D01*
X42132Y-45663D02*
X42132Y-45383D01*
X42200Y-45383D01*
X42218Y-45397D01*
X42226Y-45410D01*
X42235Y-45437D01*
X42235Y-45477D01*
X42226Y-45503D01*
X42218Y-45517D01*
X42200Y-45530D01*
X42132Y-45530D01*
X42406Y-45663D02*
X42303Y-45663D01*
X42355Y-45663D02*
X42355Y-45383D01*
X42338Y-45423D01*
X42320Y-45450D01*
X42303Y-45463D01*
X42560Y-45383D02*
X42526Y-45383D01*
X42509Y-45397D01*
X42500Y-45410D01*
X42483Y-45450D01*
X42474Y-45503D01*
X42474Y-45610D01*
X42483Y-45637D01*
X42491Y-45650D01*
X42509Y-45663D01*
X42543Y-45663D01*
X42560Y-45650D01*
X42569Y-45637D01*
X42577Y-45610D01*
X42577Y-45543D01*
X42569Y-45517D01*
X42560Y-45503D01*
X42543Y-45490D01*
X42509Y-45490D01*
X42491Y-45503D01*
X42483Y-45517D01*
X42474Y-45543D01*
X31649Y-52950D02*
X31589Y-52817D01*
X31546Y-52950D02*
X31546Y-52670D01*
X31614Y-52670D01*
X31632Y-52684D01*
X31640Y-52697D01*
X31649Y-52724D01*
X31649Y-52764D01*
X31640Y-52790D01*
X31632Y-52804D01*
X31614Y-52817D01*
X31546Y-52817D01*
X31820Y-52950D02*
X31717Y-52950D01*
X31769Y-52950D02*
X31769Y-52670D01*
X31752Y-52710D01*
X31734Y-52737D01*
X31717Y-52750D01*
X31974Y-52764D02*
X31974Y-52950D01*
X31931Y-52657D02*
X31888Y-52857D01*
X32000Y-52857D01*
X31585Y-54882D02*
X31525Y-54749D01*
X31482Y-54882D02*
X31482Y-54602D01*
X31550Y-54602D01*
X31568Y-54616D01*
X31576Y-54629D01*
X31585Y-54656D01*
X31585Y-54696D01*
X31576Y-54722D01*
X31568Y-54736D01*
X31550Y-54749D01*
X31482Y-54749D01*
X31756Y-54882D02*
X31653Y-54882D01*
X31705Y-54882D02*
X31705Y-54602D01*
X31688Y-54642D01*
X31670Y-54669D01*
X31653Y-54682D01*
X31816Y-54602D02*
X31927Y-54602D01*
X31867Y-54709D01*
X31893Y-54709D01*
X31910Y-54722D01*
X31919Y-54736D01*
X31927Y-54762D01*
X31927Y-54829D01*
X31919Y-54856D01*
X31910Y-54869D01*
X31893Y-54882D01*
X31841Y-54882D01*
X31824Y-54869D01*
X31816Y-54856D01*
X40985Y-41963D02*
X40925Y-41830D01*
X40882Y-41963D02*
X40882Y-41683D01*
X40950Y-41683D01*
X40968Y-41697D01*
X40976Y-41710D01*
X40985Y-41737D01*
X40985Y-41777D01*
X40976Y-41803D01*
X40968Y-41817D01*
X40950Y-41830D01*
X40882Y-41830D01*
X41156Y-41963D02*
X41053Y-41963D01*
X41105Y-41963D02*
X41105Y-41683D01*
X41088Y-41723D01*
X41070Y-41750D01*
X41053Y-41763D01*
X41224Y-41710D02*
X41233Y-41697D01*
X41250Y-41683D01*
X41293Y-41683D01*
X41310Y-41697D01*
X41319Y-41710D01*
X41327Y-41737D01*
X41327Y-41763D01*
X41319Y-41803D01*
X41216Y-41963D01*
X41327Y-41963D01*
X24385Y-44863D02*
X24325Y-44730D01*
X24282Y-44863D02*
X24282Y-44583D01*
X24350Y-44583D01*
X24368Y-44597D01*
X24376Y-44610D01*
X24385Y-44637D01*
X24385Y-44677D01*
X24376Y-44703D01*
X24368Y-44717D01*
X24350Y-44730D01*
X24282Y-44730D01*
X24556Y-44863D02*
X24453Y-44863D01*
X24505Y-44863D02*
X24505Y-44583D01*
X24488Y-44623D01*
X24470Y-44650D01*
X24453Y-44663D01*
X24727Y-44863D02*
X24624Y-44863D01*
X24676Y-44863D02*
X24676Y-44583D01*
X24659Y-44623D01*
X24641Y-44650D01*
X24624Y-44663D01*
X39485Y-46663D02*
X39425Y-46530D01*
X39382Y-46663D02*
X39382Y-46383D01*
X39450Y-46383D01*
X39468Y-46397D01*
X39476Y-46410D01*
X39485Y-46437D01*
X39485Y-46477D01*
X39476Y-46503D01*
X39468Y-46517D01*
X39450Y-46530D01*
X39382Y-46530D01*
X39656Y-46663D02*
X39553Y-46663D01*
X39605Y-46663D02*
X39605Y-46383D01*
X39588Y-46423D01*
X39570Y-46450D01*
X39553Y-46463D01*
X39767Y-46383D02*
X39784Y-46383D01*
X39801Y-46397D01*
X39810Y-46410D01*
X39819Y-46437D01*
X39827Y-46490D01*
X39827Y-46557D01*
X39819Y-46610D01*
X39810Y-46637D01*
X39801Y-46650D01*
X39784Y-46663D01*
X39767Y-46663D01*
X39750Y-46650D01*
X39741Y-46637D01*
X39733Y-46610D01*
X39724Y-46557D01*
X39724Y-46490D01*
X39733Y-46437D01*
X39741Y-46410D01*
X39750Y-46397D01*
X39767Y-46383D01*
X39671Y-47413D02*
X39611Y-47280D01*
X39568Y-47413D02*
X39568Y-47133D01*
X39636Y-47133D01*
X39654Y-47147D01*
X39662Y-47160D01*
X39671Y-47187D01*
X39671Y-47227D01*
X39662Y-47253D01*
X39654Y-47267D01*
X39636Y-47280D01*
X39568Y-47280D01*
X39756Y-47413D02*
X39791Y-47413D01*
X39808Y-47400D01*
X39816Y-47387D01*
X39834Y-47347D01*
X39842Y-47293D01*
X39842Y-47187D01*
X39834Y-47160D01*
X39825Y-47147D01*
X39808Y-47133D01*
X39774Y-47133D01*
X39756Y-47147D01*
X39748Y-47160D01*
X39739Y-47187D01*
X39739Y-47253D01*
X39748Y-47280D01*
X39756Y-47293D01*
X39774Y-47307D01*
X39808Y-47307D01*
X39825Y-47293D01*
X39834Y-47280D01*
X39842Y-47253D01*
X32813Y-39379D02*
X32680Y-39439D01*
X32813Y-39482D02*
X32533Y-39482D01*
X32533Y-39414D01*
X32547Y-39396D01*
X32560Y-39388D01*
X32587Y-39379D01*
X32627Y-39379D01*
X32653Y-39388D01*
X32667Y-39396D01*
X32680Y-39414D01*
X32680Y-39482D01*
X32653Y-39276D02*
X32640Y-39294D01*
X32627Y-39302D01*
X32600Y-39311D01*
X32587Y-39311D01*
X32560Y-39302D01*
X32547Y-39294D01*
X32533Y-39276D01*
X32533Y-39242D01*
X32547Y-39225D01*
X32560Y-39216D01*
X32587Y-39208D01*
X32600Y-39208D01*
X32627Y-39216D01*
X32640Y-39225D01*
X32653Y-39242D01*
X32653Y-39276D01*
X32667Y-39294D01*
X32680Y-39302D01*
X32707Y-39311D01*
X32760Y-39311D01*
X32787Y-39302D01*
X32800Y-39294D01*
X32813Y-39276D01*
X32813Y-39242D01*
X32800Y-39225D01*
X32787Y-39216D01*
X32760Y-39208D01*
X32707Y-39208D01*
X32680Y-39216D01*
X32667Y-39225D01*
X32653Y-39242D01*
X30813Y-39379D02*
X30680Y-39439D01*
X30813Y-39482D02*
X30533Y-39482D01*
X30533Y-39414D01*
X30547Y-39396D01*
X30560Y-39388D01*
X30587Y-39379D01*
X30627Y-39379D01*
X30653Y-39388D01*
X30667Y-39396D01*
X30680Y-39414D01*
X30680Y-39482D01*
X30533Y-39319D02*
X30533Y-39199D01*
X30813Y-39276D01*
X29813Y-39429D02*
X29680Y-39489D01*
X29813Y-39532D02*
X29533Y-39532D01*
X29533Y-39464D01*
X29547Y-39446D01*
X29560Y-39438D01*
X29587Y-39429D01*
X29627Y-39429D01*
X29653Y-39438D01*
X29667Y-39446D01*
X29680Y-39464D01*
X29680Y-39532D01*
X29533Y-39275D02*
X29533Y-39309D01*
X29547Y-39326D01*
X29560Y-39335D01*
X29600Y-39352D01*
X29653Y-39361D01*
X29760Y-39361D01*
X29787Y-39352D01*
X29800Y-39344D01*
X29813Y-39326D01*
X29813Y-39292D01*
X29800Y-39275D01*
X29787Y-39266D01*
X29760Y-39258D01*
X29693Y-39258D01*
X29667Y-39266D01*
X29653Y-39275D01*
X29640Y-39292D01*
X29640Y-39326D01*
X29653Y-39344D01*
X29667Y-39352D01*
X29693Y-39361D01*
X28813Y-39429D02*
X28680Y-39489D01*
X28813Y-39532D02*
X28533Y-39532D01*
X28533Y-39464D01*
X28547Y-39446D01*
X28560Y-39438D01*
X28587Y-39429D01*
X28627Y-39429D01*
X28653Y-39438D01*
X28667Y-39446D01*
X28680Y-39464D01*
X28680Y-39532D01*
X28533Y-39266D02*
X28533Y-39352D01*
X28667Y-39361D01*
X28653Y-39352D01*
X28640Y-39335D01*
X28640Y-39292D01*
X28653Y-39275D01*
X28667Y-39266D01*
X28693Y-39258D01*
X28760Y-39258D01*
X28787Y-39266D01*
X28800Y-39275D01*
X28813Y-39292D01*
X28813Y-39335D01*
X28800Y-39352D01*
X28787Y-39361D01*
X27813Y-39429D02*
X27680Y-39489D01*
X27813Y-39532D02*
X27533Y-39532D01*
X27533Y-39464D01*
X27547Y-39446D01*
X27560Y-39438D01*
X27587Y-39429D01*
X27627Y-39429D01*
X27653Y-39438D01*
X27667Y-39446D01*
X27680Y-39464D01*
X27680Y-39532D01*
X27627Y-39275D02*
X27813Y-39275D01*
X27520Y-39318D02*
X27720Y-39361D01*
X27720Y-39249D01*
X42863Y-48679D02*
X42730Y-48739D01*
X42863Y-48782D02*
X42583Y-48782D01*
X42583Y-48714D01*
X42597Y-48696D01*
X42610Y-48688D01*
X42637Y-48679D01*
X42677Y-48679D01*
X42703Y-48688D01*
X42717Y-48696D01*
X42730Y-48714D01*
X42730Y-48782D01*
X42583Y-48619D02*
X42583Y-48508D01*
X42690Y-48568D01*
X42690Y-48542D01*
X42703Y-48525D01*
X42717Y-48516D01*
X42743Y-48508D01*
X42810Y-48508D01*
X42837Y-48516D01*
X42850Y-48525D01*
X42863Y-48542D01*
X42863Y-48594D01*
X42850Y-48611D01*
X42837Y-48619D01*
X43863Y-47879D02*
X43730Y-47939D01*
X43863Y-47982D02*
X43583Y-47982D01*
X43583Y-47914D01*
X43597Y-47896D01*
X43610Y-47888D01*
X43637Y-47879D01*
X43677Y-47879D01*
X43703Y-47888D01*
X43717Y-47896D01*
X43730Y-47914D01*
X43730Y-47982D01*
X43610Y-47811D02*
X43597Y-47802D01*
X43583Y-47785D01*
X43583Y-47742D01*
X43597Y-47725D01*
X43610Y-47716D01*
X43637Y-47708D01*
X43663Y-47708D01*
X43703Y-47716D01*
X43863Y-47819D01*
X43863Y-47708D01*
X45121Y-44913D02*
X45061Y-44780D01*
X45018Y-44913D02*
X45018Y-44633D01*
X45086Y-44633D01*
X45104Y-44647D01*
X45112Y-44660D01*
X45121Y-44687D01*
X45121Y-44727D01*
X45112Y-44753D01*
X45104Y-44767D01*
X45086Y-44780D01*
X45018Y-44780D01*
X45292Y-44913D02*
X45189Y-44913D01*
X45241Y-44913D02*
X45241Y-44633D01*
X45224Y-44673D01*
X45206Y-44700D01*
X45189Y-44713D01*
X27136Y-44350D02*
X27127Y-44363D01*
X27101Y-44376D01*
X27084Y-44376D01*
X27059Y-44363D01*
X27041Y-44336D01*
X27033Y-44310D01*
X27024Y-44256D01*
X27024Y-44216D01*
X27033Y-44163D01*
X27041Y-44136D01*
X27059Y-44110D01*
X27084Y-44096D01*
X27101Y-44096D01*
X27127Y-44110D01*
X27136Y-44123D01*
X27204Y-44123D02*
X27213Y-44110D01*
X27230Y-44096D01*
X27273Y-44096D01*
X27290Y-44110D01*
X27299Y-44123D01*
X27307Y-44150D01*
X27307Y-44176D01*
X27299Y-44216D01*
X27196Y-44376D01*
X27307Y-44376D01*
X27367Y-44096D02*
X27478Y-44096D01*
X27418Y-44203D01*
X27444Y-44203D01*
X27461Y-44216D01*
X27470Y-44230D01*
X27478Y-44256D01*
X27478Y-44323D01*
X27470Y-44350D01*
X27461Y-44363D01*
X27444Y-44376D01*
X27392Y-44376D01*
X27375Y-44363D01*
X27367Y-44350D01*
X39385Y-54187D02*
X39376Y-54200D01*
X39350Y-54213D01*
X39333Y-54213D01*
X39308Y-54200D01*
X39290Y-54173D01*
X39282Y-54147D01*
X39273Y-54093D01*
X39273Y-54053D01*
X39282Y-54000D01*
X39290Y-53973D01*
X39308Y-53947D01*
X39333Y-53933D01*
X39350Y-53933D01*
X39376Y-53947D01*
X39385Y-53960D01*
X39453Y-53960D02*
X39462Y-53947D01*
X39479Y-53933D01*
X39522Y-53933D01*
X39539Y-53947D01*
X39548Y-53960D01*
X39556Y-53987D01*
X39556Y-54013D01*
X39548Y-54053D01*
X39445Y-54213D01*
X39556Y-54213D01*
X39624Y-53960D02*
X39633Y-53947D01*
X39650Y-53933D01*
X39693Y-53933D01*
X39710Y-53947D01*
X39719Y-53960D01*
X39727Y-53987D01*
X39727Y-54013D01*
X39719Y-54053D01*
X39616Y-54213D01*
X39727Y-54213D01*
X37683Y-54944D02*
X37674Y-54957D01*
X37648Y-54970D01*
X37631Y-54970D01*
X37606Y-54957D01*
X37588Y-54930D01*
X37580Y-54904D01*
X37571Y-54850D01*
X37571Y-54810D01*
X37580Y-54757D01*
X37588Y-54730D01*
X37606Y-54704D01*
X37631Y-54690D01*
X37648Y-54690D01*
X37674Y-54704D01*
X37683Y-54717D01*
X37751Y-54717D02*
X37760Y-54704D01*
X37777Y-54690D01*
X37820Y-54690D01*
X37837Y-54704D01*
X37846Y-54717D01*
X37854Y-54744D01*
X37854Y-54770D01*
X37846Y-54810D01*
X37743Y-54970D01*
X37854Y-54970D01*
X38025Y-54970D02*
X37922Y-54970D01*
X37974Y-54970D02*
X37974Y-54690D01*
X37957Y-54730D01*
X37939Y-54757D01*
X37922Y-54770D01*
X35702Y-42650D02*
X35715Y-42659D01*
X35728Y-42685D01*
X35728Y-42702D01*
X35715Y-42727D01*
X35688Y-42745D01*
X35662Y-42753D01*
X35608Y-42762D01*
X35568Y-42762D01*
X35515Y-42753D01*
X35488Y-42745D01*
X35462Y-42727D01*
X35448Y-42702D01*
X35448Y-42685D01*
X35462Y-42659D01*
X35475Y-42650D01*
X35475Y-42582D02*
X35462Y-42573D01*
X35448Y-42556D01*
X35448Y-42513D01*
X35462Y-42496D01*
X35475Y-42487D01*
X35502Y-42479D01*
X35528Y-42479D01*
X35568Y-42487D01*
X35728Y-42590D01*
X35728Y-42479D01*
X35448Y-42368D02*
X35448Y-42351D01*
X35462Y-42334D01*
X35475Y-42325D01*
X35502Y-42316D01*
X35555Y-42308D01*
X35622Y-42308D01*
X35675Y-42316D01*
X35702Y-42325D01*
X35715Y-42334D01*
X35728Y-42351D01*
X35728Y-42368D01*
X35715Y-42385D01*
X35702Y-42394D01*
X35675Y-42402D01*
X35622Y-42411D01*
X35555Y-42411D01*
X35502Y-42402D01*
X35475Y-42394D01*
X35462Y-42385D01*
X35448Y-42368D01*
X32437Y-51215D02*
X32450Y-51224D01*
X32463Y-51250D01*
X32463Y-51267D01*
X32450Y-51292D01*
X32423Y-51310D01*
X32397Y-51318D01*
X32343Y-51327D01*
X32303Y-51327D01*
X32250Y-51318D01*
X32223Y-51310D01*
X32197Y-51292D01*
X32183Y-51267D01*
X32183Y-51250D01*
X32197Y-51224D01*
X32210Y-51215D01*
X32463Y-51044D02*
X32463Y-51147D01*
X32463Y-51095D02*
X32183Y-51095D01*
X32223Y-51112D01*
X32250Y-51130D01*
X32263Y-51147D01*
X32463Y-50959D02*
X32463Y-50924D01*
X32450Y-50907D01*
X32437Y-50899D01*
X32397Y-50881D01*
X32343Y-50873D01*
X32237Y-50873D01*
X32210Y-50881D01*
X32197Y-50890D01*
X32183Y-50907D01*
X32183Y-50941D01*
X32197Y-50959D01*
X32210Y-50967D01*
X32237Y-50976D01*
X32303Y-50976D01*
X32330Y-50967D01*
X32343Y-50959D01*
X32357Y-50941D01*
X32357Y-50907D01*
X32343Y-50890D01*
X32330Y-50881D01*
X32303Y-50873D01*
X29287Y-43465D02*
X29300Y-43474D01*
X29313Y-43500D01*
X29313Y-43517D01*
X29300Y-43542D01*
X29273Y-43560D01*
X29247Y-43568D01*
X29193Y-43577D01*
X29153Y-43577D01*
X29100Y-43568D01*
X29073Y-43560D01*
X29047Y-43542D01*
X29033Y-43517D01*
X29033Y-43500D01*
X29047Y-43474D01*
X29060Y-43465D01*
X29313Y-43294D02*
X29313Y-43397D01*
X29313Y-43345D02*
X29033Y-43345D01*
X29073Y-43362D01*
X29100Y-43380D01*
X29113Y-43397D01*
X29153Y-43191D02*
X29140Y-43209D01*
X29127Y-43217D01*
X29100Y-43226D01*
X29087Y-43226D01*
X29060Y-43217D01*
X29047Y-43209D01*
X29033Y-43191D01*
X29033Y-43157D01*
X29047Y-43140D01*
X29060Y-43131D01*
X29087Y-43123D01*
X29100Y-43123D01*
X29127Y-43131D01*
X29140Y-43140D01*
X29153Y-43157D01*
X29153Y-43191D01*
X29167Y-43209D01*
X29180Y-43217D01*
X29207Y-43226D01*
X29260Y-43226D01*
X29287Y-43217D01*
X29300Y-43209D01*
X29313Y-43191D01*
X29313Y-43157D01*
X29300Y-43140D01*
X29287Y-43131D01*
X29260Y-43123D01*
X29207Y-43123D01*
X29180Y-43131D01*
X29167Y-43140D01*
X29153Y-43157D01*
X31887Y-43465D02*
X31900Y-43474D01*
X31913Y-43500D01*
X31913Y-43517D01*
X31900Y-43542D01*
X31873Y-43560D01*
X31847Y-43568D01*
X31793Y-43577D01*
X31753Y-43577D01*
X31700Y-43568D01*
X31673Y-43560D01*
X31647Y-43542D01*
X31633Y-43517D01*
X31633Y-43500D01*
X31647Y-43474D01*
X31660Y-43465D01*
X31913Y-43294D02*
X31913Y-43397D01*
X31913Y-43345D02*
X31633Y-43345D01*
X31673Y-43362D01*
X31700Y-43380D01*
X31713Y-43397D01*
X31633Y-43234D02*
X31633Y-43114D01*
X31913Y-43191D01*
X27435Y-48587D02*
X27426Y-48600D01*
X27400Y-48613D01*
X27383Y-48613D01*
X27358Y-48600D01*
X27340Y-48573D01*
X27332Y-48547D01*
X27323Y-48493D01*
X27323Y-48453D01*
X27332Y-48400D01*
X27340Y-48373D01*
X27358Y-48347D01*
X27383Y-48333D01*
X27400Y-48333D01*
X27426Y-48347D01*
X27435Y-48360D01*
X27606Y-48613D02*
X27503Y-48613D01*
X27555Y-48613D02*
X27555Y-48333D01*
X27538Y-48373D01*
X27520Y-48400D01*
X27503Y-48413D01*
X27760Y-48333D02*
X27726Y-48333D01*
X27709Y-48347D01*
X27700Y-48360D01*
X27683Y-48400D01*
X27674Y-48453D01*
X27674Y-48560D01*
X27683Y-48587D01*
X27691Y-48600D01*
X27709Y-48613D01*
X27743Y-48613D01*
X27760Y-48600D01*
X27769Y-48587D01*
X27777Y-48560D01*
X27777Y-48493D01*
X27769Y-48467D01*
X27760Y-48453D01*
X27743Y-48440D01*
X27709Y-48440D01*
X27691Y-48453D01*
X27683Y-48467D01*
X27674Y-48493D01*
X30687Y-43515D02*
X30700Y-43524D01*
X30713Y-43550D01*
X30713Y-43567D01*
X30700Y-43592D01*
X30673Y-43610D01*
X30647Y-43618D01*
X30593Y-43627D01*
X30553Y-43627D01*
X30500Y-43618D01*
X30473Y-43610D01*
X30447Y-43592D01*
X30433Y-43567D01*
X30433Y-43550D01*
X30447Y-43524D01*
X30460Y-43515D01*
X30713Y-43344D02*
X30713Y-43447D01*
X30713Y-43395D02*
X30433Y-43395D01*
X30473Y-43412D01*
X30500Y-43430D01*
X30513Y-43447D01*
X30433Y-43181D02*
X30433Y-43267D01*
X30567Y-43276D01*
X30553Y-43267D01*
X30540Y-43250D01*
X30540Y-43207D01*
X30553Y-43190D01*
X30567Y-43181D01*
X30593Y-43173D01*
X30660Y-43173D01*
X30687Y-43181D01*
X30700Y-43190D01*
X30713Y-43207D01*
X30713Y-43250D01*
X30700Y-43267D01*
X30687Y-43276D01*
X40635Y-54437D02*
X40626Y-54450D01*
X40600Y-54463D01*
X40583Y-54463D01*
X40558Y-54450D01*
X40540Y-54423D01*
X40532Y-54397D01*
X40523Y-54343D01*
X40523Y-54303D01*
X40532Y-54250D01*
X40540Y-54223D01*
X40558Y-54197D01*
X40583Y-54183D01*
X40600Y-54183D01*
X40626Y-54197D01*
X40635Y-54210D01*
X40806Y-54463D02*
X40703Y-54463D01*
X40755Y-54463D02*
X40755Y-54183D01*
X40738Y-54223D01*
X40720Y-54250D01*
X40703Y-54263D01*
X40960Y-54277D02*
X40960Y-54463D01*
X40917Y-54170D02*
X40874Y-54370D01*
X40986Y-54370D01*
X38587Y-43115D02*
X38600Y-43124D01*
X38613Y-43150D01*
X38613Y-43167D01*
X38600Y-43192D01*
X38573Y-43210D01*
X38547Y-43218D01*
X38493Y-43227D01*
X38453Y-43227D01*
X38400Y-43218D01*
X38373Y-43210D01*
X38347Y-43192D01*
X38333Y-43167D01*
X38333Y-43150D01*
X38347Y-43124D01*
X38360Y-43115D01*
X38613Y-42944D02*
X38613Y-43047D01*
X38613Y-42995D02*
X38333Y-42995D01*
X38373Y-43012D01*
X38400Y-43030D01*
X38413Y-43047D01*
X38333Y-42884D02*
X38333Y-42773D01*
X38440Y-42833D01*
X38440Y-42807D01*
X38453Y-42790D01*
X38467Y-42781D01*
X38493Y-42773D01*
X38560Y-42773D01*
X38587Y-42781D01*
X38600Y-42790D01*
X38613Y-42807D01*
X38613Y-42859D01*
X38600Y-42876D01*
X38587Y-42884D01*
X28285Y-47787D02*
X28276Y-47800D01*
X28250Y-47813D01*
X28233Y-47813D01*
X28208Y-47800D01*
X28190Y-47773D01*
X28182Y-47747D01*
X28173Y-47693D01*
X28173Y-47653D01*
X28182Y-47600D01*
X28190Y-47573D01*
X28208Y-47547D01*
X28233Y-47533D01*
X28250Y-47533D01*
X28276Y-47547D01*
X28285Y-47560D01*
X28456Y-47813D02*
X28353Y-47813D01*
X28405Y-47813D02*
X28405Y-47533D01*
X28388Y-47573D01*
X28370Y-47600D01*
X28353Y-47613D01*
X28524Y-47560D02*
X28533Y-47547D01*
X28550Y-47533D01*
X28593Y-47533D01*
X28610Y-47547D01*
X28619Y-47560D01*
X28627Y-47587D01*
X28627Y-47613D01*
X28619Y-47653D01*
X28516Y-47813D01*
X28627Y-47813D01*
X37637Y-43115D02*
X37650Y-43124D01*
X37663Y-43150D01*
X37663Y-43167D01*
X37650Y-43192D01*
X37623Y-43210D01*
X37597Y-43218D01*
X37543Y-43227D01*
X37503Y-43227D01*
X37450Y-43218D01*
X37423Y-43210D01*
X37397Y-43192D01*
X37383Y-43167D01*
X37383Y-43150D01*
X37397Y-43124D01*
X37410Y-43115D01*
X37663Y-42944D02*
X37663Y-43047D01*
X37663Y-42995D02*
X37383Y-42995D01*
X37423Y-43012D01*
X37450Y-43030D01*
X37463Y-43047D01*
X37663Y-42773D02*
X37663Y-42876D01*
X37663Y-42824D02*
X37383Y-42824D01*
X37423Y-42841D01*
X37450Y-42859D01*
X37463Y-42876D01*
X24385Y-45637D02*
X24376Y-45650D01*
X24350Y-45663D01*
X24333Y-45663D01*
X24308Y-45650D01*
X24290Y-45623D01*
X24282Y-45597D01*
X24273Y-45543D01*
X24273Y-45503D01*
X24282Y-45450D01*
X24290Y-45423D01*
X24308Y-45397D01*
X24333Y-45383D01*
X24350Y-45383D01*
X24376Y-45397D01*
X24385Y-45410D01*
X24556Y-45663D02*
X24453Y-45663D01*
X24505Y-45663D02*
X24505Y-45383D01*
X24488Y-45423D01*
X24470Y-45450D01*
X24453Y-45463D01*
X24667Y-45383D02*
X24684Y-45383D01*
X24701Y-45397D01*
X24710Y-45410D01*
X24719Y-45437D01*
X24727Y-45490D01*
X24727Y-45557D01*
X24719Y-45610D01*
X24710Y-45637D01*
X24701Y-45650D01*
X24684Y-45663D01*
X24667Y-45663D01*
X24650Y-45650D01*
X24641Y-45637D01*
X24633Y-45610D01*
X24624Y-45557D01*
X24624Y-45490D01*
X24633Y-45437D01*
X24641Y-45410D01*
X24650Y-45397D01*
X24667Y-45383D01*
X33437Y-43329D02*
X33450Y-43338D01*
X33463Y-43364D01*
X33463Y-43381D01*
X33450Y-43406D01*
X33423Y-43424D01*
X33397Y-43432D01*
X33343Y-43441D01*
X33303Y-43441D01*
X33250Y-43432D01*
X33223Y-43424D01*
X33197Y-43406D01*
X33183Y-43381D01*
X33183Y-43364D01*
X33197Y-43338D01*
X33210Y-43329D01*
X33463Y-43244D02*
X33463Y-43209D01*
X33450Y-43192D01*
X33437Y-43184D01*
X33397Y-43166D01*
X33343Y-43158D01*
X33237Y-43158D01*
X33210Y-43166D01*
X33197Y-43175D01*
X33183Y-43192D01*
X33183Y-43226D01*
X33197Y-43244D01*
X33210Y-43252D01*
X33237Y-43261D01*
X33303Y-43261D01*
X33330Y-43252D01*
X33343Y-43244D01*
X33357Y-43226D01*
X33357Y-43192D01*
X33343Y-43175D01*
X33330Y-43166D01*
X33303Y-43158D01*
X38521Y-45987D02*
X38512Y-46000D01*
X38486Y-46013D01*
X38469Y-46013D01*
X38444Y-46000D01*
X38426Y-45973D01*
X38418Y-45947D01*
X38409Y-45893D01*
X38409Y-45853D01*
X38418Y-45800D01*
X38426Y-45773D01*
X38444Y-45747D01*
X38469Y-45733D01*
X38486Y-45733D01*
X38512Y-45747D01*
X38521Y-45760D01*
X38581Y-45733D02*
X38701Y-45733D01*
X38624Y-46013D01*
X27287Y-45129D02*
X27300Y-45138D01*
X27313Y-45164D01*
X27313Y-45181D01*
X27300Y-45206D01*
X27273Y-45224D01*
X27247Y-45232D01*
X27193Y-45241D01*
X27153Y-45241D01*
X27100Y-45232D01*
X27073Y-45224D01*
X27047Y-45206D01*
X27033Y-45181D01*
X27033Y-45164D01*
X27047Y-45138D01*
X27060Y-45129D01*
X27033Y-44975D02*
X27033Y-45009D01*
X27047Y-45026D01*
X27060Y-45035D01*
X27100Y-45052D01*
X27153Y-45061D01*
X27260Y-45061D01*
X27287Y-45052D01*
X27300Y-45044D01*
X27313Y-45026D01*
X27313Y-44992D01*
X27300Y-44975D01*
X27287Y-44966D01*
X27260Y-44958D01*
X27193Y-44958D01*
X27167Y-44966D01*
X27153Y-44975D01*
X27140Y-44992D01*
X27140Y-45026D01*
X27153Y-45044D01*
X27167Y-45052D01*
X27193Y-45061D01*
X41837Y-48679D02*
X41850Y-48688D01*
X41863Y-48714D01*
X41863Y-48731D01*
X41850Y-48756D01*
X41823Y-48774D01*
X41797Y-48782D01*
X41743Y-48791D01*
X41703Y-48791D01*
X41650Y-48782D01*
X41623Y-48774D01*
X41597Y-48756D01*
X41583Y-48731D01*
X41583Y-48714D01*
X41597Y-48688D01*
X41610Y-48679D01*
X41583Y-48516D02*
X41583Y-48602D01*
X41717Y-48611D01*
X41703Y-48602D01*
X41690Y-48585D01*
X41690Y-48542D01*
X41703Y-48525D01*
X41717Y-48516D01*
X41743Y-48508D01*
X41810Y-48508D01*
X41837Y-48516D01*
X41850Y-48525D01*
X41863Y-48542D01*
X41863Y-48585D01*
X41850Y-48602D01*
X41837Y-48611D01*
X31057Y-51138D02*
X31070Y-51147D01*
X31083Y-51173D01*
X31083Y-51190D01*
X31070Y-51215D01*
X31043Y-51233D01*
X31017Y-51241D01*
X30963Y-51250D01*
X30923Y-51250D01*
X30870Y-51241D01*
X30843Y-51233D01*
X30817Y-51215D01*
X30803Y-51190D01*
X30803Y-51173D01*
X30817Y-51147D01*
X30830Y-51138D01*
X30897Y-50984D02*
X31083Y-50984D01*
X30790Y-51027D02*
X30990Y-51070D01*
X30990Y-50958D01*
X32737Y-43329D02*
X32750Y-43338D01*
X32763Y-43364D01*
X32763Y-43381D01*
X32750Y-43406D01*
X32723Y-43424D01*
X32697Y-43432D01*
X32643Y-43441D01*
X32603Y-43441D01*
X32550Y-43432D01*
X32523Y-43424D01*
X32497Y-43406D01*
X32483Y-43381D01*
X32483Y-43364D01*
X32497Y-43338D01*
X32510Y-43329D01*
X32483Y-43269D02*
X32483Y-43158D01*
X32590Y-43218D01*
X32590Y-43192D01*
X32603Y-43175D01*
X32617Y-43166D01*
X32643Y-43158D01*
X32710Y-43158D01*
X32737Y-43166D01*
X32750Y-43175D01*
X32763Y-43192D01*
X32763Y-43244D01*
X32750Y-43261D01*
X32737Y-43269D01*
X27631Y-46564D02*
X27622Y-46577D01*
X27596Y-46590D01*
X27579Y-46590D01*
X27554Y-46577D01*
X27536Y-46550D01*
X27528Y-46524D01*
X27519Y-46470D01*
X27519Y-46430D01*
X27528Y-46377D01*
X27536Y-46350D01*
X27554Y-46324D01*
X27579Y-46310D01*
X27596Y-46310D01*
X27622Y-46324D01*
X27631Y-46337D01*
X27802Y-46590D02*
X27699Y-46590D01*
X27751Y-46590D02*
X27751Y-46310D01*
X27734Y-46350D01*
X27716Y-46377D01*
X27699Y-46390D01*
G54D15*
X25237Y-44373D02*
X25154Y-44373D01*
X25154Y-44504D02*
X25154Y-44254D01*
X25273Y-44254D01*
X25451Y-44373D02*
X25487Y-44385D01*
X25498Y-44397D01*
X25510Y-44421D01*
X25510Y-44457D01*
X25498Y-44480D01*
X25487Y-44492D01*
X25463Y-44504D01*
X25368Y-44504D01*
X25368Y-44254D01*
X25451Y-44254D01*
X25475Y-44266D01*
X25487Y-44278D01*
X25498Y-44302D01*
X25498Y-44326D01*
X25487Y-44349D01*
X25475Y-44361D01*
X25451Y-44373D01*
X25368Y-44373D01*
X25606Y-44278D02*
X25618Y-44266D01*
X25641Y-44254D01*
X25701Y-44254D01*
X25725Y-44266D01*
X25737Y-44278D01*
X25748Y-44302D01*
X25748Y-44326D01*
X25737Y-44361D01*
X25594Y-44504D01*
X25748Y-44504D01*
X44520Y-52908D02*
X44520Y-52991D01*
X44651Y-52991D02*
X44401Y-52991D01*
X44401Y-52872D01*
X44520Y-52694D02*
X44532Y-52658D01*
X44544Y-52647D01*
X44568Y-52635D01*
X44604Y-52635D01*
X44627Y-52647D01*
X44639Y-52658D01*
X44651Y-52682D01*
X44651Y-52777D01*
X44401Y-52777D01*
X44401Y-52694D01*
X44413Y-52670D01*
X44425Y-52658D01*
X44449Y-52647D01*
X44473Y-52647D01*
X44496Y-52658D01*
X44508Y-52670D01*
X44520Y-52694D01*
X44520Y-52777D01*
X44651Y-52397D02*
X44651Y-52539D01*
X44651Y-52468D02*
X44401Y-52468D01*
X44437Y-52492D01*
X44461Y-52516D01*
X44473Y-52539D01*
G54D21*
X44378Y-55021D02*
X44378Y-54721D01*
X44450Y-54721D01*
X44493Y-54736D01*
X44521Y-54764D01*
X44536Y-54793D01*
X44550Y-54850D01*
X44550Y-54893D01*
X44536Y-54950D01*
X44521Y-54979D01*
X44493Y-55007D01*
X44450Y-55021D01*
X44378Y-55021D01*
X44650Y-54721D02*
X44836Y-54721D01*
X44736Y-54836D01*
X44778Y-54836D01*
X44807Y-54850D01*
X44821Y-54864D01*
X44836Y-54893D01*
X44836Y-54964D01*
X44821Y-54993D01*
X44807Y-55007D01*
X44778Y-55021D01*
X44693Y-55021D01*
X44664Y-55007D01*
X44650Y-54993D01*
X44378Y-54121D02*
X44378Y-53821D01*
X44450Y-53821D01*
X44493Y-53836D01*
X44521Y-53864D01*
X44536Y-53893D01*
X44550Y-53950D01*
X44550Y-53993D01*
X44536Y-54050D01*
X44521Y-54079D01*
X44493Y-54107D01*
X44450Y-54121D01*
X44378Y-54121D01*
X44664Y-53850D02*
X44678Y-53836D01*
X44707Y-53821D01*
X44778Y-53821D01*
X44807Y-53836D01*
X44821Y-53850D01*
X44836Y-53879D01*
X44836Y-53907D01*
X44821Y-53950D01*
X44650Y-54121D01*
X44836Y-54121D01*
G54D22*
X43978Y-43871D02*
X43978Y-43571D01*
X44050Y-43571D01*
X44093Y-43586D01*
X44121Y-43614D01*
X44136Y-43643D01*
X44150Y-43700D01*
X44150Y-43743D01*
X44136Y-43800D01*
X44121Y-43829D01*
X44093Y-43857D01*
X44050Y-43871D01*
X43978Y-43871D01*
X44436Y-43871D02*
X44264Y-43871D01*
X44350Y-43871D02*
X44350Y-43571D01*
X44321Y-43614D01*
X44293Y-43643D01*
X44264Y-43657D01*
G54D16*
X34843Y-53143D02*
X34843Y-53629D01*
X34871Y-53686D01*
X34900Y-53714D01*
X34957Y-53743D01*
X35071Y-53743D01*
X35129Y-53714D01*
X35157Y-53686D01*
X35186Y-53629D01*
X35186Y-53143D01*
X35786Y-53743D02*
X35443Y-53743D01*
X35615Y-53743D02*
X35615Y-53143D01*
X35558Y-53229D01*
X35500Y-53286D01*
X35443Y-53314D01*
X34336Y-55029D02*
X34136Y-55029D01*
X34136Y-55343D02*
X34136Y-54743D01*
X34422Y-54743D01*
X34936Y-55343D02*
X34650Y-55343D01*
X34650Y-54743D01*
X35107Y-55171D02*
X35393Y-55171D01*
X35050Y-55343D02*
X35250Y-54743D01*
X35450Y-55343D01*
X35621Y-55314D02*
X35707Y-55343D01*
X35850Y-55343D01*
X35907Y-55314D01*
X35936Y-55286D01*
X35964Y-55229D01*
X35964Y-55171D01*
X35936Y-55114D01*
X35907Y-55086D01*
X35850Y-55057D01*
X35736Y-55029D01*
X35678Y-55000D01*
X35650Y-54971D01*
X35621Y-54914D01*
X35621Y-54857D01*
X35650Y-54800D01*
X35678Y-54771D01*
X35736Y-54743D01*
X35878Y-54743D01*
X35964Y-54771D01*
X36221Y-55343D02*
X36221Y-54743D01*
X36221Y-55029D02*
X36564Y-55029D01*
X36564Y-55343D02*
X36564Y-54743D01*
G54D15*
X33625Y-47622D02*
X33192Y-47622D01*
X33584Y-47168D02*
X33604Y-47189D01*
X33625Y-47251D01*
X33625Y-47292D01*
X33604Y-47354D01*
X33563Y-47395D01*
X33522Y-47416D01*
X33439Y-47437D01*
X33377Y-47437D01*
X33295Y-47416D01*
X33254Y-47395D01*
X33212Y-47354D01*
X33192Y-47292D01*
X33192Y-47251D01*
X33212Y-47189D01*
X33233Y-47168D01*
X33192Y-47024D02*
X33192Y-46756D01*
X33357Y-46900D01*
X33357Y-46839D01*
X33377Y-46797D01*
X33398Y-46777D01*
X33439Y-46756D01*
X33542Y-46756D01*
X33584Y-46777D01*
X33604Y-46797D01*
X33625Y-46839D01*
X33625Y-46962D01*
X33604Y-47004D01*
X33584Y-47024D01*
G54D10*
X35225Y-44647D02*
X35413Y-44647D01*
X35188Y-44759D02*
X35319Y-44365D01*
X35450Y-44759D01*
X35526Y-44365D02*
X35751Y-44365D01*
X35638Y-44759D02*
X35638Y-44365D01*
X35901Y-44759D02*
X35976Y-44759D01*
X36013Y-44741D01*
X36032Y-44722D01*
X36069Y-44666D01*
X36088Y-44591D01*
X36088Y-44441D01*
X36069Y-44403D01*
X36051Y-44384D01*
X36013Y-44365D01*
X35938Y-44365D01*
X35901Y-44384D01*
X35882Y-44403D01*
X35863Y-44441D01*
X35863Y-44534D01*
X35882Y-44572D01*
X35901Y-44591D01*
X35938Y-44609D01*
X36013Y-44609D01*
X36051Y-44591D01*
X36069Y-44572D01*
X36088Y-44534D01*
X36463Y-44759D02*
X36238Y-44759D01*
X36351Y-44759D02*
X36351Y-44365D01*
X36313Y-44422D01*
X36276Y-44459D01*
X36238Y-44478D01*
X36613Y-44741D02*
X36669Y-44759D01*
X36763Y-44759D01*
X36801Y-44741D01*
X36819Y-44722D01*
X36838Y-44684D01*
X36838Y-44647D01*
X36819Y-44609D01*
X36801Y-44591D01*
X36763Y-44572D01*
X36688Y-44553D01*
X36651Y-44534D01*
X36632Y-44516D01*
X36613Y-44478D01*
X36613Y-44441D01*
X36632Y-44403D01*
X36651Y-44384D01*
X36688Y-44365D01*
X36782Y-44365D01*
X36838Y-44384D01*
X36988Y-44647D02*
X37176Y-44647D01*
X36951Y-44759D02*
X37082Y-44365D01*
X37213Y-44759D01*
X37345Y-44759D02*
X37345Y-44365D01*
X37476Y-44647D01*
X37607Y-44365D01*
X37607Y-44759D01*
X37757Y-44365D02*
X38020Y-44365D01*
X37851Y-44759D01*
X38151Y-44741D02*
X38207Y-44759D01*
X38301Y-44759D01*
X38339Y-44741D01*
X38357Y-44722D01*
X38376Y-44684D01*
X38376Y-44647D01*
X38357Y-44609D01*
X38339Y-44591D01*
X38301Y-44572D01*
X38226Y-44553D01*
X38189Y-44534D01*
X38170Y-44516D01*
X38151Y-44478D01*
X38151Y-44441D01*
X38170Y-44403D01*
X38189Y-44384D01*
X38226Y-44365D01*
X38320Y-44365D01*
X38376Y-44384D01*
G54D11*
X44955Y-37312D02*
X44955Y-36912D01*
X45108Y-36912D01*
X45146Y-36931D01*
X45165Y-36950D01*
X45184Y-36988D01*
X45184Y-37045D01*
X45165Y-37083D01*
X45146Y-37102D01*
X45108Y-37121D01*
X44955Y-37121D01*
X45336Y-36950D02*
X45355Y-36931D01*
X45393Y-36912D01*
X45489Y-36912D01*
X45527Y-36931D01*
X45546Y-36950D01*
X45565Y-36988D01*
X45565Y-37026D01*
X45546Y-37083D01*
X45317Y-37312D01*
X45565Y-37312D01*
X45916Y-37312D02*
X45916Y-36912D01*
X46000Y-36912D01*
X46050Y-36931D01*
X46083Y-36969D01*
X46100Y-37007D01*
X46116Y-37083D01*
X46116Y-37140D01*
X46100Y-37217D01*
X46083Y-37255D01*
X46050Y-37293D01*
X46000Y-37312D01*
X45916Y-37312D01*
X46266Y-37102D02*
X46383Y-37102D01*
X46433Y-37312D02*
X46266Y-37312D01*
X46266Y-36912D01*
X46433Y-36912D01*
X46700Y-37102D02*
X46750Y-37121D01*
X46767Y-37140D01*
X46783Y-37179D01*
X46783Y-37236D01*
X46767Y-37274D01*
X46750Y-37293D01*
X46717Y-37312D01*
X46583Y-37312D01*
X46583Y-36912D01*
X46700Y-36912D01*
X46733Y-36931D01*
X46750Y-36950D01*
X46767Y-36988D01*
X46767Y-37026D01*
X46750Y-37064D01*
X46733Y-37083D01*
X46700Y-37102D01*
X46583Y-37102D01*
X46933Y-36912D02*
X46933Y-37236D01*
X46950Y-37274D01*
X46967Y-37293D01*
X47000Y-37312D01*
X47067Y-37312D01*
X47100Y-37293D01*
X47117Y-37274D01*
X47133Y-37236D01*
X47133Y-36912D01*
X47484Y-36931D02*
X47450Y-36912D01*
X47400Y-36912D01*
X47350Y-36931D01*
X47317Y-36969D01*
X47300Y-37007D01*
X47284Y-37083D01*
X47284Y-37140D01*
X47300Y-37217D01*
X47317Y-37255D01*
X47350Y-37293D01*
X47400Y-37312D01*
X47434Y-37312D01*
X47484Y-37293D01*
X47500Y-37274D01*
X47500Y-37140D01*
X47434Y-37140D01*
G54D21*
X40872Y-44299D02*
X40843Y-44285D01*
X40815Y-44256D01*
X40772Y-44214D01*
X40743Y-44199D01*
X40715Y-44199D01*
X40729Y-44271D02*
X40701Y-44256D01*
X40672Y-44228D01*
X40658Y-44171D01*
X40658Y-44071D01*
X40672Y-44014D01*
X40701Y-43986D01*
X40729Y-43972D01*
X40786Y-43972D01*
X40815Y-43986D01*
X40843Y-44014D01*
X40857Y-44071D01*
X40857Y-44171D01*
X40843Y-44228D01*
X40815Y-44256D01*
X40786Y-44271D01*
X40729Y-44271D01*
X40971Y-44000D02*
X40985Y-43986D01*
X41014Y-43972D01*
X41085Y-43972D01*
X41113Y-43986D01*
X41128Y-44000D01*
X41142Y-44028D01*
X41142Y-44057D01*
X41128Y-44100D01*
X40957Y-44271D01*
X41142Y-44271D01*
X44399Y-46228D02*
X44385Y-46257D01*
X44356Y-46285D01*
X44314Y-46328D01*
X44299Y-46357D01*
X44299Y-46385D01*
X44371Y-46371D02*
X44356Y-46399D01*
X44328Y-46428D01*
X44271Y-46442D01*
X44171Y-46442D01*
X44114Y-46428D01*
X44086Y-46399D01*
X44072Y-46371D01*
X44072Y-46314D01*
X44086Y-46285D01*
X44114Y-46257D01*
X44171Y-46243D01*
X44271Y-46243D01*
X44328Y-46257D01*
X44356Y-46285D01*
X44371Y-46314D01*
X44371Y-46371D01*
X44371Y-45958D02*
X44371Y-46129D01*
X44371Y-46044D02*
X44072Y-46044D01*
X44114Y-46072D01*
X44143Y-46101D01*
X44157Y-46129D01*
G54D16*
X16480Y-37131D02*
X16566Y-37160D01*
X16709Y-37160D01*
X16766Y-37131D01*
X16795Y-37103D01*
X16823Y-37046D01*
X16823Y-36988D01*
X16795Y-36931D01*
X16766Y-36903D01*
X16709Y-36874D01*
X16595Y-36846D01*
X16537Y-36817D01*
X16509Y-36788D01*
X16480Y-36731D01*
X16480Y-36674D01*
X16509Y-36617D01*
X16537Y-36588D01*
X16595Y-36560D01*
X16737Y-36560D01*
X16823Y-36588D01*
X17023Y-36560D02*
X17166Y-37160D01*
X17280Y-36731D01*
X17394Y-37160D01*
X17537Y-36560D01*
X18080Y-37160D02*
X17737Y-37160D01*
X17909Y-37160D02*
X17909Y-36560D01*
X17852Y-36646D01*
X17794Y-36703D01*
X17737Y-36731D01*
X16379Y-39093D02*
X16179Y-38807D01*
X16036Y-39093D02*
X16036Y-38493D01*
X16264Y-38493D01*
X16322Y-38521D01*
X16350Y-38550D01*
X16379Y-38607D01*
X16379Y-38693D01*
X16350Y-38750D01*
X16322Y-38779D01*
X16264Y-38807D01*
X16036Y-38807D01*
X16636Y-38779D02*
X16836Y-38779D01*
X16922Y-39093D02*
X16636Y-39093D01*
X16636Y-38493D01*
X16922Y-38493D01*
X17150Y-39064D02*
X17236Y-39093D01*
X17379Y-39093D01*
X17436Y-39064D01*
X17465Y-39036D01*
X17493Y-38979D01*
X17493Y-38921D01*
X17465Y-38864D01*
X17436Y-38836D01*
X17379Y-38807D01*
X17265Y-38779D01*
X17207Y-38750D01*
X17179Y-38721D01*
X17150Y-38664D01*
X17150Y-38607D01*
X17179Y-38550D01*
X17207Y-38521D01*
X17265Y-38493D01*
X17407Y-38493D01*
X17493Y-38521D01*
X17750Y-38779D02*
X17950Y-38779D01*
X18036Y-39093D02*
X17750Y-39093D01*
X17750Y-38493D01*
X18036Y-38493D01*
X18207Y-38493D02*
X18550Y-38493D01*
X18379Y-39093D02*
X18379Y-38493D01*
X21800Y-37114D02*
X21886Y-37143D01*
X22029Y-37143D01*
X22086Y-37114D01*
X22115Y-37086D01*
X22143Y-37029D01*
X22143Y-36971D01*
X22115Y-36914D01*
X22086Y-36886D01*
X22029Y-36857D01*
X21915Y-36829D01*
X21857Y-36800D01*
X21829Y-36771D01*
X21800Y-36714D01*
X21800Y-36657D01*
X21829Y-36600D01*
X21857Y-36571D01*
X21915Y-36543D01*
X22057Y-36543D01*
X22143Y-36571D01*
X22343Y-36543D02*
X22486Y-37143D01*
X22600Y-36714D01*
X22714Y-37143D01*
X22857Y-36543D01*
X23057Y-36600D02*
X23086Y-36571D01*
X23143Y-36543D01*
X23286Y-36543D01*
X23343Y-36571D01*
X23372Y-36600D01*
X23400Y-36657D01*
X23400Y-36714D01*
X23372Y-36800D01*
X23029Y-37143D01*
X23400Y-37143D01*
X20150Y-38729D02*
X20236Y-38757D01*
X20264Y-38786D01*
X20293Y-38843D01*
X20293Y-38929D01*
X20264Y-38986D01*
X20236Y-39014D01*
X20178Y-39043D01*
X19950Y-39043D01*
X19950Y-38443D01*
X20150Y-38443D01*
X20207Y-38471D01*
X20236Y-38500D01*
X20264Y-38557D01*
X20264Y-38614D01*
X20236Y-38671D01*
X20207Y-38700D01*
X20150Y-38729D01*
X19950Y-38729D01*
X20664Y-38443D02*
X20778Y-38443D01*
X20836Y-38471D01*
X20893Y-38529D01*
X20921Y-38643D01*
X20921Y-38843D01*
X20893Y-38957D01*
X20836Y-39014D01*
X20778Y-39043D01*
X20664Y-39043D01*
X20607Y-39014D01*
X20550Y-38957D01*
X20521Y-38843D01*
X20521Y-38643D01*
X20550Y-38529D01*
X20607Y-38471D01*
X20664Y-38443D01*
X21293Y-38443D02*
X21407Y-38443D01*
X21465Y-38471D01*
X21522Y-38529D01*
X21550Y-38643D01*
X21550Y-38843D01*
X21522Y-38957D01*
X21465Y-39014D01*
X21407Y-39043D01*
X21293Y-39043D01*
X21236Y-39014D01*
X21179Y-38957D01*
X21150Y-38843D01*
X21150Y-38643D01*
X21179Y-38529D01*
X21236Y-38471D01*
X21293Y-38443D01*
X21722Y-38443D02*
X22065Y-38443D01*
X21894Y-39043D02*
X21894Y-38443D01*
X22551Y-39043D02*
X22265Y-39043D01*
X22265Y-38443D01*
X22865Y-38443D02*
X22979Y-38443D01*
X23037Y-38471D01*
X23094Y-38529D01*
X23122Y-38643D01*
X23122Y-38843D01*
X23094Y-38957D01*
X23037Y-39014D01*
X22979Y-39043D01*
X22865Y-39043D01*
X22808Y-39014D01*
X22751Y-38957D01*
X22722Y-38843D01*
X22722Y-38643D01*
X22751Y-38529D01*
X22808Y-38471D01*
X22865Y-38443D01*
X23351Y-38871D02*
X23637Y-38871D01*
X23294Y-39043D02*
X23494Y-38443D01*
X23694Y-39043D01*
X23894Y-39043D02*
X23894Y-38443D01*
X24037Y-38443D01*
X24122Y-38471D01*
X24180Y-38529D01*
X24208Y-38586D01*
X24237Y-38700D01*
X24237Y-38786D01*
X24208Y-38900D01*
X24180Y-38957D01*
X24122Y-39014D01*
X24037Y-39043D01*
X23894Y-39043D01*
X24494Y-38729D02*
X24694Y-38729D01*
X24780Y-39043D02*
X24494Y-39043D01*
X24494Y-38443D01*
X24780Y-38443D01*
X25380Y-39043D02*
X25180Y-38757D01*
X25037Y-39043D02*
X25037Y-38443D01*
X25265Y-38443D01*
X25323Y-38471D01*
X25351Y-38500D01*
X25380Y-38557D01*
X25380Y-38643D01*
X25351Y-38700D01*
X25323Y-38729D01*
X25265Y-38757D01*
X25037Y-38757D01*
X42943Y-50907D02*
X43429Y-50907D01*
X43486Y-50879D01*
X43514Y-50850D01*
X43543Y-50793D01*
X43543Y-50679D01*
X43514Y-50621D01*
X43486Y-50593D01*
X43429Y-50564D01*
X42943Y-50564D01*
X43514Y-50307D02*
X43543Y-50221D01*
X43543Y-50078D01*
X43514Y-50021D01*
X43486Y-49992D01*
X43429Y-49964D01*
X43371Y-49964D01*
X43314Y-49992D01*
X43286Y-50021D01*
X43257Y-50078D01*
X43229Y-50192D01*
X43200Y-50250D01*
X43171Y-50278D01*
X43114Y-50307D01*
X43057Y-50307D01*
X43000Y-50278D01*
X42971Y-50250D01*
X42943Y-50192D01*
X42943Y-50050D01*
X42971Y-49964D01*
X43229Y-49507D02*
X43257Y-49421D01*
X43286Y-49393D01*
X43343Y-49364D01*
X43429Y-49364D01*
X43486Y-49393D01*
X43514Y-49421D01*
X43543Y-49479D01*
X43543Y-49707D01*
X42943Y-49707D01*
X42943Y-49507D01*
X42971Y-49450D01*
X43000Y-49421D01*
X43057Y-49393D01*
X43114Y-49393D01*
X43171Y-49421D01*
X43200Y-49450D01*
X43229Y-49507D01*
X43229Y-49707D01*
X24508Y-46411D02*
X24508Y-45811D01*
X24736Y-45811D01*
X24794Y-45839D01*
X24822Y-45868D01*
X24851Y-45925D01*
X24851Y-46011D01*
X24822Y-46068D01*
X24794Y-46097D01*
X24736Y-46125D01*
X24508Y-46125D01*
X25365Y-46011D02*
X25365Y-46411D01*
X25222Y-45782D02*
X25079Y-46211D01*
X25451Y-46211D01*
X17393Y-47014D02*
X17479Y-47043D01*
X17622Y-47043D01*
X17679Y-47014D01*
X17708Y-46986D01*
X17736Y-46929D01*
X17736Y-46871D01*
X17708Y-46814D01*
X17679Y-46786D01*
X17622Y-46757D01*
X17508Y-46729D01*
X17450Y-46700D01*
X17422Y-46671D01*
X17393Y-46614D01*
X17393Y-46557D01*
X17422Y-46500D01*
X17450Y-46471D01*
X17508Y-46443D01*
X17650Y-46443D01*
X17736Y-46471D01*
X17993Y-47043D02*
X17993Y-46443D01*
X18279Y-47043D02*
X18279Y-46443D01*
X18479Y-46871D01*
X18679Y-46443D01*
X18679Y-47043D01*
G54D15*
X21407Y-42721D02*
X21407Y-42421D01*
X21722Y-42693D02*
X21708Y-42707D01*
X21665Y-42721D01*
X21636Y-42721D01*
X21593Y-42707D01*
X21565Y-42679D01*
X21550Y-42650D01*
X21536Y-42593D01*
X21536Y-42550D01*
X21550Y-42493D01*
X21565Y-42464D01*
X21593Y-42436D01*
X21636Y-42421D01*
X21665Y-42421D01*
X21708Y-42436D01*
X21722Y-42450D01*
X21979Y-42521D02*
X21979Y-42721D01*
X21908Y-42407D02*
X21836Y-42621D01*
X22022Y-42621D01*
X20771Y-42193D02*
X20757Y-42207D01*
X20714Y-42221D01*
X20685Y-42221D01*
X20642Y-42207D01*
X20614Y-42179D01*
X20599Y-42150D01*
X20585Y-42093D01*
X20585Y-42050D01*
X20599Y-41993D01*
X20614Y-41964D01*
X20642Y-41936D01*
X20685Y-41921D01*
X20714Y-41921D01*
X20757Y-41936D01*
X20771Y-41950D01*
X20999Y-42064D02*
X21042Y-42079D01*
X21057Y-42093D01*
X21071Y-42121D01*
X21071Y-42164D01*
X21057Y-42193D01*
X21042Y-42207D01*
X21014Y-42221D01*
X20899Y-42221D01*
X20899Y-41921D01*
X20999Y-41921D01*
X21028Y-41936D01*
X21042Y-41950D01*
X21057Y-41979D01*
X21057Y-42007D01*
X21042Y-42036D01*
X21028Y-42050D01*
X20999Y-42064D01*
X20899Y-42064D01*
X21171Y-41921D02*
X21357Y-41921D01*
X21257Y-42036D01*
X21299Y-42036D01*
X21328Y-42050D01*
X21342Y-42064D01*
X21357Y-42093D01*
X21357Y-42164D01*
X21342Y-42193D01*
X21328Y-42207D01*
X21299Y-42221D01*
X21214Y-42221D01*
X21185Y-42207D01*
X21171Y-42193D01*
X21685Y-42250D02*
X21657Y-42236D01*
X21628Y-42207D01*
X21585Y-42164D01*
X21557Y-42150D01*
X21528Y-42150D01*
X21543Y-42221D02*
X21514Y-42207D01*
X21485Y-42179D01*
X21471Y-42121D01*
X21471Y-42021D01*
X21485Y-41964D01*
X21514Y-41936D01*
X21543Y-41921D01*
X21600Y-41921D01*
X21628Y-41936D01*
X21657Y-41964D01*
X21671Y-42021D01*
X21671Y-42121D01*
X21657Y-42179D01*
X21628Y-42207D01*
X21600Y-42221D01*
X21543Y-42221D01*
X21771Y-41921D02*
X21957Y-41921D01*
X21857Y-42036D01*
X21899Y-42036D01*
X21928Y-42050D01*
X21942Y-42064D01*
X21957Y-42093D01*
X21957Y-42164D01*
X21942Y-42193D01*
X21928Y-42207D01*
X21899Y-42221D01*
X21814Y-42221D01*
X21785Y-42207D01*
X21771Y-42193D01*
X22071Y-41950D02*
X22085Y-41936D01*
X22114Y-41921D01*
X22185Y-41921D01*
X22214Y-41936D01*
X22228Y-41950D01*
X22243Y-41979D01*
X22243Y-42007D01*
X22228Y-42050D01*
X22057Y-42221D01*
X22243Y-42221D01*
X22500Y-42021D02*
X22500Y-42221D01*
X22429Y-41907D02*
X22357Y-42121D01*
X22543Y-42121D01*
X22786Y-42021D02*
X22786Y-42221D01*
X22715Y-41907D02*
X22643Y-42121D01*
X22829Y-42121D01*
G54D20*
X39635Y-49063D02*
X39575Y-48930D01*
X39532Y-49063D02*
X39532Y-48783D01*
X39600Y-48783D01*
X39618Y-48797D01*
X39626Y-48810D01*
X39635Y-48837D01*
X39635Y-48877D01*
X39626Y-48903D01*
X39618Y-48917D01*
X39600Y-48930D01*
X39532Y-48930D01*
X39703Y-48810D02*
X39712Y-48797D01*
X39729Y-48783D01*
X39772Y-48783D01*
X39789Y-48797D01*
X39798Y-48810D01*
X39806Y-48837D01*
X39806Y-48863D01*
X39798Y-48903D01*
X39695Y-49063D01*
X39806Y-49063D01*
X39874Y-48810D02*
X39883Y-48797D01*
X39900Y-48783D01*
X39943Y-48783D01*
X39960Y-48797D01*
X39969Y-48810D01*
X39977Y-48837D01*
X39977Y-48863D01*
X39969Y-48903D01*
X39866Y-49063D01*
X39977Y-49063D01*
X22785Y-40313D02*
X22725Y-40180D01*
X22682Y-40313D02*
X22682Y-40033D01*
X22750Y-40033D01*
X22768Y-40047D01*
X22776Y-40060D01*
X22785Y-40087D01*
X22785Y-40127D01*
X22776Y-40153D01*
X22768Y-40167D01*
X22750Y-40180D01*
X22682Y-40180D01*
X22853Y-40060D02*
X22862Y-40047D01*
X22879Y-40033D01*
X22922Y-40033D01*
X22939Y-40047D01*
X22948Y-40060D01*
X22956Y-40087D01*
X22956Y-40113D01*
X22948Y-40153D01*
X22845Y-40313D01*
X22956Y-40313D01*
X23127Y-40313D02*
X23024Y-40313D01*
X23076Y-40313D02*
X23076Y-40033D01*
X23059Y-40073D01*
X23041Y-40100D01*
X23024Y-40113D01*
X21335Y-40313D02*
X21275Y-40180D01*
X21232Y-40313D02*
X21232Y-40033D01*
X21300Y-40033D01*
X21318Y-40047D01*
X21326Y-40060D01*
X21335Y-40087D01*
X21335Y-40127D01*
X21326Y-40153D01*
X21318Y-40167D01*
X21300Y-40180D01*
X21232Y-40180D01*
X21403Y-40060D02*
X21412Y-40047D01*
X21429Y-40033D01*
X21472Y-40033D01*
X21489Y-40047D01*
X21498Y-40060D01*
X21506Y-40087D01*
X21506Y-40113D01*
X21498Y-40153D01*
X21395Y-40313D01*
X21506Y-40313D01*
X21617Y-40033D02*
X21634Y-40033D01*
X21651Y-40047D01*
X21660Y-40060D01*
X21669Y-40087D01*
X21677Y-40140D01*
X21677Y-40207D01*
X21669Y-40260D01*
X21660Y-40287D01*
X21651Y-40300D01*
X21634Y-40313D01*
X21617Y-40313D01*
X21600Y-40300D01*
X21591Y-40287D01*
X21583Y-40260D01*
X21574Y-40207D01*
X21574Y-40140D01*
X21583Y-40087D01*
X21591Y-40060D01*
X21600Y-40047D01*
X21617Y-40033D01*
X19885Y-40313D02*
X19825Y-40180D01*
X19782Y-40313D02*
X19782Y-40033D01*
X19850Y-40033D01*
X19868Y-40047D01*
X19876Y-40060D01*
X19885Y-40087D01*
X19885Y-40127D01*
X19876Y-40153D01*
X19868Y-40167D01*
X19850Y-40180D01*
X19782Y-40180D01*
X20056Y-40313D02*
X19953Y-40313D01*
X20005Y-40313D02*
X20005Y-40033D01*
X19988Y-40073D01*
X19970Y-40100D01*
X19953Y-40113D01*
X20141Y-40313D02*
X20176Y-40313D01*
X20193Y-40300D01*
X20201Y-40287D01*
X20219Y-40247D01*
X20227Y-40193D01*
X20227Y-40087D01*
X20219Y-40060D01*
X20210Y-40047D01*
X20193Y-40033D01*
X20159Y-40033D01*
X20141Y-40047D01*
X20133Y-40060D01*
X20124Y-40087D01*
X20124Y-40153D01*
X20133Y-40180D01*
X20141Y-40193D01*
X20159Y-40207D01*
X20193Y-40207D01*
X20210Y-40193D01*
X20219Y-40180D01*
X20227Y-40153D01*
X37787Y-50615D02*
X37800Y-50624D01*
X37813Y-50650D01*
X37813Y-50667D01*
X37800Y-50692D01*
X37773Y-50710D01*
X37747Y-50718D01*
X37693Y-50727D01*
X37653Y-50727D01*
X37600Y-50718D01*
X37573Y-50710D01*
X37547Y-50692D01*
X37533Y-50667D01*
X37533Y-50650D01*
X37547Y-50624D01*
X37560Y-50615D01*
X37560Y-50547D02*
X37547Y-50538D01*
X37533Y-50521D01*
X37533Y-50478D01*
X37547Y-50461D01*
X37560Y-50452D01*
X37587Y-50444D01*
X37613Y-50444D01*
X37653Y-50452D01*
X37813Y-50555D01*
X37813Y-50444D01*
X37627Y-50290D02*
X37813Y-50290D01*
X37520Y-50333D02*
X37720Y-50376D01*
X37720Y-50264D01*
G54D15*
X40821Y-50843D02*
X40521Y-50843D01*
X40793Y-50582D02*
X40807Y-50594D01*
X40821Y-50629D01*
X40821Y-50653D01*
X40807Y-50689D01*
X40779Y-50713D01*
X40750Y-50724D01*
X40693Y-50736D01*
X40650Y-50736D01*
X40593Y-50724D01*
X40564Y-50713D01*
X40536Y-50689D01*
X40521Y-50653D01*
X40521Y-50629D01*
X40536Y-50594D01*
X40550Y-50582D01*
X40521Y-50355D02*
X40521Y-50474D01*
X40664Y-50486D01*
X40650Y-50474D01*
X40636Y-50451D01*
X40636Y-50391D01*
X40650Y-50367D01*
X40664Y-50355D01*
X40693Y-50344D01*
X40764Y-50344D01*
X40793Y-50355D01*
X40807Y-50367D01*
X40821Y-50391D01*
X40821Y-50451D01*
X40807Y-50474D01*
X40793Y-50486D01*
G54D21*
X40458Y-52971D02*
X40458Y-52672D01*
X40771Y-52942D02*
X40757Y-52956D01*
X40714Y-52971D01*
X40686Y-52971D01*
X40643Y-52956D01*
X40614Y-52928D01*
X40600Y-52899D01*
X40586Y-52842D01*
X40586Y-52800D01*
X40600Y-52743D01*
X40614Y-52714D01*
X40643Y-52686D01*
X40686Y-52672D01*
X40714Y-52672D01*
X40757Y-52686D01*
X40771Y-52700D01*
X40885Y-52700D02*
X40899Y-52686D01*
X40928Y-52672D01*
X40999Y-52672D01*
X41027Y-52686D01*
X41042Y-52700D01*
X41056Y-52728D01*
X41056Y-52757D01*
X41042Y-52800D01*
X40871Y-52971D01*
X41056Y-52971D01*
X40437Y-51921D02*
X40294Y-51921D01*
X40294Y-51622D01*
X40536Y-51921D02*
X40536Y-51622D01*
X40607Y-51622D01*
X40650Y-51636D01*
X40679Y-51664D01*
X40693Y-51693D01*
X40707Y-51750D01*
X40707Y-51792D01*
X40693Y-51849D01*
X40679Y-51878D01*
X40650Y-51906D01*
X40607Y-51921D01*
X40536Y-51921D01*
X40892Y-51622D02*
X40949Y-51622D01*
X40978Y-51636D01*
X41006Y-51664D01*
X41020Y-51721D01*
X41020Y-51821D01*
X41006Y-51878D01*
X40978Y-51906D01*
X40949Y-51921D01*
X40892Y-51921D01*
X40864Y-51906D01*
X40835Y-51878D01*
X40821Y-51821D01*
X40821Y-51721D01*
X40835Y-51664D01*
X40864Y-51636D01*
X40892Y-51622D01*
M02*
