M48
;DRILL file {PCBnew (2010-00-09 BZR 23xx)-stable} date So 22 Mai 2011 15:51:13 CEST
;FORMAT={-.-/ absolute / inch / decimal}
R,T
VER,1
FMAT,2
INCH,TZ
TCST,OFF
ICI,OFF
ATC,ON
T1C0.025
T2C0.032
T3C0.039
T4C0.040
%
M47
G05
M72
T1
X1.763Y-4.219
X2.073Y-4.393
X2.177Y-4.183
X2.178Y-4.077
X2.254Y-4.184
X2.283Y-4.393
X2.303Y-4.199
X2.332Y-4.109
X2.699Y-4.822
X2.722Y-4.917
X2.775Y-4.507
X2.815Y-4.586
X2.885Y-4.781
X2.930Y-4.771
X2.948Y-4.949
X2.952Y-5.411
X3.002Y-5.290
X3.009Y-4.846
X3.071Y-5.236
X3.089Y-4.498
X3.123Y-4.670
X3.136Y-4.391
X3.173Y-4.976
X3.180Y-4.558
X3.193Y-4.138
X3.221Y-4.508
X3.226Y-4.856
X3.260Y-4.325
X3.276Y-4.662
X3.293Y-4.853
X3.309Y-4.737
X3.317Y-5.241
X3.344Y-4.977
X3.360Y-4.788
X3.363Y-5.236
X3.364Y-4.519
X3.383Y-5.163
X3.397Y-4.859
X3.410Y-4.390
X3.434Y-4.729
X3.461Y-4.828
X3.470Y-4.337
X3.478Y-4.948
X3.513Y-4.242
X3.513Y-4.905
X3.587Y-4.902
X3.591Y-4.721
X3.622Y-4.591
X3.691Y-5.017
X3.746Y-4.702
T2
X2.670Y-3.720
T3
X4.402Y-3.865
X4.638Y-3.865
T4
X2.670Y-3.620
X2.770Y-3.620
X2.770Y-3.720
X2.870Y-3.620
X2.870Y-3.720
X2.970Y-3.620
X2.970Y-3.720
X3.070Y-3.620
X3.070Y-3.720
X3.170Y-3.620
X3.170Y-3.720
X3.270Y-3.620
X3.270Y-3.720
X3.370Y-3.620
X3.370Y-3.720
X3.470Y-3.620
X3.470Y-3.720
X3.570Y-3.620
X3.570Y-3.720
X3.640Y-3.975
X3.705Y-3.600
X3.740Y-3.975
X3.805Y-3.600
X3.905Y-3.600
X3.940Y-3.970
X4.005Y-3.600
X4.040Y-3.970
X4.105Y-3.600
X4.205Y-3.600
X4.660Y-5.370
X4.660Y-5.470
T0
M30
