G04 (created by PCBNEW-RS274X (2010-00-09 BZR 23xx)-stable) date Di 17 Mai 2011 13:18:14 CEST*
G01*
G70*
G90*
%MOIN*%
G04 Gerber Fmt 3.4, Leading zero omitted, Abs format*
%FSLAX34Y34*%
G04 APERTURE LIST*
%ADD10C,0.006000*%
%ADD11C,0.008000*%
%ADD12C,0.015000*%
%ADD13C,0.002600*%
%ADD14C,0.004000*%
%ADD15C,0.005000*%
%ADD16C,0.006500*%
%ADD17C,0.012000*%
%ADD18C,0.003500*%
%ADD19C,0.010000*%
%ADD20C,0.004500*%
%ADD21C,0.007500*%
G04 APERTURE END LIST*
G54D10*
G54D11*
X14450Y-56300D02*
X14450Y-34950D01*
X48250Y-56300D02*
X14450Y-56300D01*
X48250Y-34950D02*
X48250Y-56300D01*
X15250Y-34950D02*
X48250Y-34950D01*
X14450Y-34950D02*
X15250Y-34950D01*
G54D12*
X15057Y-39963D02*
X16750Y-39963D01*
X16750Y-39963D02*
X16750Y-44137D01*
X16750Y-44137D02*
X15057Y-44137D01*
X14585Y-39333D02*
X15057Y-39333D01*
X14585Y-44767D02*
X15057Y-44767D01*
X14585Y-39333D02*
X14585Y-44767D01*
X15057Y-44767D02*
X15057Y-39333D01*
X47562Y-39437D02*
X48153Y-39437D01*
X48153Y-39437D02*
X48153Y-37863D01*
X48153Y-37863D02*
X47562Y-37863D01*
X47562Y-39634D02*
X42838Y-39634D01*
X42838Y-39634D02*
X42838Y-37666D01*
X42838Y-37666D02*
X47562Y-37666D01*
X47562Y-37666D02*
X47562Y-39634D01*
G54D13*
X30049Y-53514D02*
X30049Y-53160D01*
X30049Y-53160D02*
X29892Y-53160D01*
X29892Y-53514D02*
X29892Y-53160D01*
X30049Y-53514D02*
X29892Y-53514D01*
X30560Y-53514D02*
X30560Y-53160D01*
X30560Y-53160D02*
X30403Y-53160D01*
X30403Y-53514D02*
X30403Y-53160D01*
X30560Y-53514D02*
X30403Y-53514D01*
X30226Y-53514D02*
X30226Y-53455D01*
X30226Y-53455D02*
X30108Y-53455D01*
X30108Y-53514D02*
X30108Y-53455D01*
X30226Y-53514D02*
X30108Y-53514D01*
X30226Y-53219D02*
X30226Y-53160D01*
X30226Y-53160D02*
X30108Y-53160D01*
X30108Y-53219D02*
X30108Y-53160D01*
X30226Y-53219D02*
X30108Y-53219D01*
X30226Y-53396D02*
X30226Y-53278D01*
X30226Y-53278D02*
X30108Y-53278D01*
X30108Y-53396D02*
X30108Y-53278D01*
X30226Y-53396D02*
X30108Y-53396D01*
G54D14*
X30049Y-53494D02*
X30403Y-53494D01*
X30049Y-53180D02*
X30403Y-53180D01*
G54D13*
X30076Y-54292D02*
X30076Y-53938D01*
X30076Y-53938D02*
X29919Y-53938D01*
X29919Y-54292D02*
X29919Y-53938D01*
X30076Y-54292D02*
X29919Y-54292D01*
X30587Y-54292D02*
X30587Y-53938D01*
X30587Y-53938D02*
X30430Y-53938D01*
X30430Y-54292D02*
X30430Y-53938D01*
X30587Y-54292D02*
X30430Y-54292D01*
X30253Y-54292D02*
X30253Y-54233D01*
X30253Y-54233D02*
X30135Y-54233D01*
X30135Y-54292D02*
X30135Y-54233D01*
X30253Y-54292D02*
X30135Y-54292D01*
X30253Y-53997D02*
X30253Y-53938D01*
X30253Y-53938D02*
X30135Y-53938D01*
X30135Y-53997D02*
X30135Y-53938D01*
X30253Y-53997D02*
X30135Y-53997D01*
X30253Y-54174D02*
X30253Y-54056D01*
X30253Y-54056D02*
X30135Y-54056D01*
X30135Y-54174D02*
X30135Y-54056D01*
X30253Y-54174D02*
X30135Y-54174D01*
G54D14*
X30076Y-54272D02*
X30430Y-54272D01*
X30076Y-53958D02*
X30430Y-53958D01*
G54D12*
X36200Y-37700D02*
X26200Y-37700D01*
X36200Y-35700D02*
X26200Y-35700D01*
X26200Y-35700D02*
X26200Y-37700D01*
X36202Y-37700D02*
X36202Y-35700D01*
G54D10*
X35900Y-40250D02*
X35900Y-39250D01*
X35900Y-39250D02*
X37900Y-39250D01*
X37900Y-39250D02*
X37900Y-40250D01*
X37900Y-40250D02*
X35900Y-40250D01*
X38900Y-40200D02*
X38900Y-39200D01*
X38900Y-39200D02*
X40900Y-39200D01*
X40900Y-39200D02*
X40900Y-40200D01*
X40900Y-40200D02*
X38900Y-40200D01*
X46100Y-53200D02*
X47100Y-53200D01*
X47100Y-53200D02*
X47100Y-55200D01*
X47100Y-55200D02*
X46100Y-55200D01*
X46100Y-55200D02*
X46100Y-53200D01*
G54D11*
X40750Y-37650D02*
X37750Y-37650D01*
X37750Y-35650D02*
X40750Y-35650D01*
X40750Y-35650D02*
X40750Y-37650D01*
X37750Y-37650D02*
X37750Y-35650D01*
G54D12*
X23744Y-36900D02*
X23736Y-36976D01*
X23714Y-37050D01*
X23678Y-37118D01*
X23629Y-37177D01*
X23570Y-37226D01*
X23502Y-37263D01*
X23429Y-37285D01*
X23352Y-37293D01*
X23277Y-37287D01*
X23203Y-37265D01*
X23135Y-37229D01*
X23075Y-37181D01*
X23025Y-37122D01*
X22988Y-37055D01*
X22965Y-36981D01*
X22957Y-36905D01*
X22963Y-36829D01*
X22984Y-36755D01*
X23019Y-36687D01*
X23067Y-36627D01*
X23126Y-36577D01*
X23193Y-36539D01*
X23266Y-36516D01*
X23342Y-36507D01*
X23418Y-36512D01*
X23492Y-36533D01*
X23561Y-36568D01*
X23621Y-36615D01*
X23671Y-36673D01*
X23709Y-36740D01*
X23734Y-36813D01*
X23743Y-36889D01*
X23744Y-36900D01*
X22070Y-38081D02*
X24630Y-38081D01*
X24630Y-38081D02*
X24630Y-35719D01*
X24630Y-35719D02*
X22070Y-35719D01*
X22070Y-35719D02*
X22070Y-38081D01*
X45164Y-42033D02*
X45156Y-42109D01*
X45134Y-42183D01*
X45098Y-42251D01*
X45049Y-42310D01*
X44990Y-42359D01*
X44922Y-42396D01*
X44849Y-42418D01*
X44772Y-42426D01*
X44697Y-42420D01*
X44623Y-42398D01*
X44555Y-42362D01*
X44495Y-42314D01*
X44445Y-42255D01*
X44408Y-42188D01*
X44385Y-42114D01*
X44377Y-42038D01*
X44383Y-41962D01*
X44404Y-41888D01*
X44439Y-41820D01*
X44487Y-41760D01*
X44546Y-41710D01*
X44613Y-41672D01*
X44686Y-41649D01*
X44762Y-41640D01*
X44838Y-41645D01*
X44912Y-41666D01*
X44981Y-41701D01*
X45041Y-41748D01*
X45091Y-41806D01*
X45129Y-41873D01*
X45154Y-41946D01*
X45163Y-42022D01*
X45164Y-42033D01*
X43490Y-43214D02*
X46050Y-43214D01*
X46050Y-43214D02*
X46050Y-40852D01*
X46050Y-40852D02*
X43490Y-40852D01*
X43490Y-40852D02*
X43490Y-43214D01*
G54D11*
X32950Y-41350D02*
X32950Y-40050D01*
X32950Y-40050D02*
X32700Y-39800D01*
X32700Y-39800D02*
X29300Y-39800D01*
X29300Y-39800D02*
X29050Y-40050D01*
X29050Y-40050D02*
X29050Y-41350D01*
X29050Y-41350D02*
X29300Y-41600D01*
X29300Y-41600D02*
X32700Y-41600D01*
X32700Y-41600D02*
X32950Y-41350D01*
X28750Y-41700D02*
X28750Y-39700D01*
X28750Y-39700D02*
X33250Y-39700D01*
X33250Y-39700D02*
X33250Y-41700D01*
X33250Y-41700D02*
X28750Y-41700D01*
G54D12*
X25541Y-53097D02*
X24824Y-53097D01*
X24824Y-53097D02*
X24824Y-47637D01*
X24824Y-47637D02*
X25541Y-47637D01*
X25541Y-47637D02*
X25541Y-47369D01*
X25541Y-47369D02*
X14576Y-47369D01*
X14576Y-47369D02*
X14576Y-51215D01*
X14576Y-51215D02*
X14576Y-54731D01*
X14576Y-54731D02*
X25541Y-54731D01*
X25541Y-54731D02*
X25541Y-53097D01*
G54D15*
X34982Y-51535D02*
X34082Y-51535D01*
X34082Y-51535D02*
X34082Y-51035D01*
X34082Y-51035D02*
X34982Y-51035D01*
X34982Y-51035D02*
X34982Y-51535D01*
X35121Y-54744D02*
X36021Y-54744D01*
X36021Y-54744D02*
X36021Y-55244D01*
X36021Y-55244D02*
X35121Y-55244D01*
X35121Y-55244D02*
X35121Y-54744D01*
X41850Y-45350D02*
X42750Y-45350D01*
X42750Y-45350D02*
X42750Y-45850D01*
X42750Y-45850D02*
X41850Y-45850D01*
X41850Y-45850D02*
X41850Y-45350D01*
X25450Y-39400D02*
X25450Y-38500D01*
X25450Y-38500D02*
X25950Y-38500D01*
X25950Y-38500D02*
X25950Y-39400D01*
X25950Y-39400D02*
X25450Y-39400D01*
X32186Y-53613D02*
X31286Y-53613D01*
X31286Y-53613D02*
X31286Y-53113D01*
X31286Y-53113D02*
X32186Y-53113D01*
X32186Y-53113D02*
X32186Y-53613D01*
X32200Y-54431D02*
X31300Y-54431D01*
X31300Y-54431D02*
X31300Y-53931D01*
X31300Y-53931D02*
X32200Y-53931D01*
X32200Y-53931D02*
X32200Y-54431D01*
X40692Y-41017D02*
X41592Y-41017D01*
X41592Y-41017D02*
X41592Y-41517D01*
X41592Y-41517D02*
X40692Y-41517D01*
X40692Y-41517D02*
X40692Y-41017D01*
X24900Y-44450D02*
X25800Y-44450D01*
X25800Y-44450D02*
X25800Y-44950D01*
X25800Y-44950D02*
X24900Y-44950D01*
X24900Y-44950D02*
X24900Y-44450D01*
X40000Y-46300D02*
X40900Y-46300D01*
X40900Y-46300D02*
X40900Y-46800D01*
X40900Y-46800D02*
X40000Y-46800D01*
X40000Y-46800D02*
X40000Y-46300D01*
X40000Y-47050D02*
X40900Y-47050D01*
X40900Y-47050D02*
X40900Y-47550D01*
X40900Y-47550D02*
X40000Y-47550D01*
X40000Y-47550D02*
X40000Y-47050D01*
X32950Y-38250D02*
X32950Y-39150D01*
X32950Y-39150D02*
X32450Y-39150D01*
X32450Y-39150D02*
X32450Y-38250D01*
X32450Y-38250D02*
X32950Y-38250D01*
X30950Y-38250D02*
X30950Y-39150D01*
X30950Y-39150D02*
X30450Y-39150D01*
X30450Y-39150D02*
X30450Y-38250D01*
X30450Y-38250D02*
X30950Y-38250D01*
X29950Y-38200D02*
X29950Y-39100D01*
X29950Y-39100D02*
X29450Y-39100D01*
X29450Y-39100D02*
X29450Y-38200D01*
X29450Y-38200D02*
X29950Y-38200D01*
X28950Y-38200D02*
X28950Y-39100D01*
X28950Y-39100D02*
X28450Y-39100D01*
X28450Y-39100D02*
X28450Y-38200D01*
X28450Y-38200D02*
X28950Y-38200D01*
X27950Y-38200D02*
X27950Y-39100D01*
X27950Y-39100D02*
X27450Y-39100D01*
X27450Y-39100D02*
X27450Y-38200D01*
X27450Y-38200D02*
X27950Y-38200D01*
X43500Y-48350D02*
X43500Y-47450D01*
X43500Y-47450D02*
X44000Y-47450D01*
X44000Y-47450D02*
X44000Y-48350D01*
X44000Y-48350D02*
X43500Y-48350D01*
X44450Y-48350D02*
X44450Y-47450D01*
X44450Y-47450D02*
X44950Y-47450D01*
X44950Y-47450D02*
X44950Y-48350D01*
X44950Y-48350D02*
X44450Y-48350D01*
X46400Y-45000D02*
X45500Y-45000D01*
X45500Y-45000D02*
X45500Y-44500D01*
X45500Y-44500D02*
X46400Y-44500D01*
X46400Y-44500D02*
X46400Y-45000D01*
X26800Y-43550D02*
X27700Y-43550D01*
X27700Y-43550D02*
X27700Y-44050D01*
X27700Y-44050D02*
X26800Y-44050D01*
X26800Y-44050D02*
X26800Y-43550D01*
X38200Y-53800D02*
X39100Y-53800D01*
X39100Y-53800D02*
X39100Y-54300D01*
X39100Y-54300D02*
X38200Y-54300D01*
X38200Y-54300D02*
X38200Y-53800D01*
X39100Y-55150D02*
X38200Y-55150D01*
X38200Y-55150D02*
X38200Y-54650D01*
X38200Y-54650D02*
X39100Y-54650D01*
X39100Y-54650D02*
X39100Y-55150D01*
X34300Y-42900D02*
X34300Y-42000D01*
X34300Y-42000D02*
X34800Y-42000D01*
X34800Y-42000D02*
X34800Y-42900D01*
X34800Y-42900D02*
X34300Y-42900D01*
X33100Y-50650D02*
X33100Y-51550D01*
X33100Y-51550D02*
X32600Y-51550D01*
X32600Y-51550D02*
X32600Y-50650D01*
X32600Y-50650D02*
X33100Y-50650D01*
X29400Y-42100D02*
X29400Y-43000D01*
X29400Y-43000D02*
X28900Y-43000D01*
X28900Y-43000D02*
X28900Y-42100D01*
X28900Y-42100D02*
X29400Y-42100D01*
X31550Y-42950D02*
X31550Y-42050D01*
X31550Y-42050D02*
X32050Y-42050D01*
X32050Y-42050D02*
X32050Y-42950D01*
X32050Y-42950D02*
X31550Y-42950D01*
X28850Y-48750D02*
X27950Y-48750D01*
X27950Y-48750D02*
X27950Y-48250D01*
X27950Y-48250D02*
X28850Y-48250D01*
X28850Y-48250D02*
X28850Y-48750D01*
X30350Y-42950D02*
X30350Y-42050D01*
X30350Y-42050D02*
X30850Y-42050D01*
X30850Y-42050D02*
X30850Y-42950D01*
X30850Y-42950D02*
X30350Y-42950D01*
X41200Y-55150D02*
X40300Y-55150D01*
X40300Y-55150D02*
X40300Y-54650D01*
X40300Y-54650D02*
X41200Y-54650D01*
X41200Y-54650D02*
X41200Y-55150D01*
X38250Y-42600D02*
X38250Y-41700D01*
X38250Y-41700D02*
X38750Y-41700D01*
X38750Y-41700D02*
X38750Y-42600D01*
X38750Y-42600D02*
X38250Y-42600D01*
X28850Y-47400D02*
X27950Y-47400D01*
X27950Y-47400D02*
X27950Y-46900D01*
X27950Y-46900D02*
X28850Y-46900D01*
X28850Y-46900D02*
X28850Y-47400D01*
X37300Y-42600D02*
X37300Y-41700D01*
X37300Y-41700D02*
X37800Y-41700D01*
X37800Y-41700D02*
X37800Y-42600D01*
X37800Y-42600D02*
X37300Y-42600D01*
X25800Y-45750D02*
X24900Y-45750D01*
X24900Y-45750D02*
X24900Y-45250D01*
X24900Y-45250D02*
X25800Y-45250D01*
X25800Y-45250D02*
X25800Y-45750D01*
X33100Y-42950D02*
X33100Y-42050D01*
X33100Y-42050D02*
X33600Y-42050D01*
X33600Y-42050D02*
X33600Y-42950D01*
X33600Y-42950D02*
X33100Y-42950D01*
X37350Y-45650D02*
X38250Y-45650D01*
X38250Y-45650D02*
X38250Y-46150D01*
X38250Y-46150D02*
X37350Y-46150D01*
X37350Y-46150D02*
X37350Y-45650D01*
X26350Y-45550D02*
X26350Y-44650D01*
X26350Y-44650D02*
X26850Y-44650D01*
X26850Y-44650D02*
X26850Y-45550D01*
X26850Y-45550D02*
X26350Y-45550D01*
X42400Y-48300D02*
X42400Y-47400D01*
X42400Y-47400D02*
X42900Y-47400D01*
X42900Y-47400D02*
X42900Y-48300D01*
X42900Y-48300D02*
X42400Y-48300D01*
X31900Y-50650D02*
X31900Y-51550D01*
X31900Y-51550D02*
X31400Y-51550D01*
X31400Y-51550D02*
X31400Y-50650D01*
X31400Y-50650D02*
X31900Y-50650D01*
X32397Y-42954D02*
X32397Y-42054D01*
X32397Y-42054D02*
X32897Y-42054D01*
X32897Y-42054D02*
X32897Y-42954D01*
X32897Y-42954D02*
X32397Y-42954D01*
X28840Y-46673D02*
X27940Y-46673D01*
X27940Y-46673D02*
X27940Y-46173D01*
X27940Y-46173D02*
X28840Y-46173D01*
X28840Y-46173D02*
X28840Y-46673D01*
X24900Y-44100D02*
X24899Y-44109D01*
X24896Y-44119D01*
X24891Y-44127D01*
X24885Y-44135D01*
X24877Y-44141D01*
X24869Y-44146D01*
X24860Y-44148D01*
X24850Y-44149D01*
X24841Y-44149D01*
X24832Y-44146D01*
X24823Y-44141D01*
X24816Y-44135D01*
X24809Y-44128D01*
X24805Y-44119D01*
X24802Y-44110D01*
X24801Y-44100D01*
X24801Y-44091D01*
X24804Y-44082D01*
X24808Y-44073D01*
X24815Y-44066D01*
X24822Y-44059D01*
X24830Y-44055D01*
X24840Y-44052D01*
X24849Y-44051D01*
X24858Y-44051D01*
X24868Y-44054D01*
X24876Y-44058D01*
X24884Y-44064D01*
X24890Y-44072D01*
X24895Y-44080D01*
X24898Y-44089D01*
X24899Y-44099D01*
X24900Y-44100D01*
X25300Y-44100D02*
X24900Y-44100D01*
X24900Y-44100D02*
X24900Y-43500D01*
X24900Y-43500D02*
X25300Y-43500D01*
X25700Y-43500D02*
X26100Y-43500D01*
X26100Y-43500D02*
X26100Y-44100D01*
X26100Y-44100D02*
X25700Y-44100D01*
X43650Y-52050D02*
X43649Y-52059D01*
X43646Y-52069D01*
X43641Y-52077D01*
X43635Y-52085D01*
X43627Y-52091D01*
X43619Y-52096D01*
X43610Y-52098D01*
X43600Y-52099D01*
X43591Y-52099D01*
X43582Y-52096D01*
X43573Y-52091D01*
X43566Y-52085D01*
X43559Y-52078D01*
X43555Y-52069D01*
X43552Y-52060D01*
X43551Y-52050D01*
X43551Y-52041D01*
X43554Y-52032D01*
X43558Y-52023D01*
X43565Y-52016D01*
X43572Y-52009D01*
X43580Y-52005D01*
X43590Y-52002D01*
X43599Y-52001D01*
X43608Y-52001D01*
X43618Y-52004D01*
X43626Y-52008D01*
X43634Y-52014D01*
X43640Y-52022D01*
X43645Y-52030D01*
X43648Y-52039D01*
X43649Y-52049D01*
X43650Y-52050D01*
X43600Y-52500D02*
X43600Y-52100D01*
X43600Y-52100D02*
X44200Y-52100D01*
X44200Y-52100D02*
X44200Y-52500D01*
X44200Y-52900D02*
X44200Y-53300D01*
X44200Y-53300D02*
X43600Y-53300D01*
X43600Y-53300D02*
X43600Y-52900D01*
G54D12*
X34373Y-53415D02*
X34372Y-53422D01*
X34370Y-53429D01*
X34366Y-53436D01*
X34361Y-53442D01*
X34355Y-53447D01*
X34349Y-53450D01*
X34341Y-53453D01*
X34334Y-53453D01*
X34327Y-53453D01*
X34320Y-53451D01*
X34313Y-53447D01*
X34307Y-53442D01*
X34302Y-53437D01*
X34299Y-53430D01*
X34296Y-53423D01*
X34296Y-53415D01*
X34296Y-53408D01*
X34298Y-53401D01*
X34302Y-53394D01*
X34306Y-53388D01*
X34312Y-53383D01*
X34319Y-53380D01*
X34326Y-53377D01*
X34334Y-53377D01*
X34340Y-53377D01*
X34348Y-53379D01*
X34354Y-53383D01*
X34360Y-53387D01*
X34365Y-53393D01*
X34369Y-53400D01*
X34372Y-53407D01*
X34372Y-53414D01*
X34373Y-53415D01*
X34098Y-53651D02*
X36066Y-53651D01*
X34098Y-53887D02*
X34098Y-52313D01*
X34098Y-52313D02*
X36066Y-52313D01*
X36066Y-52313D02*
X36066Y-53887D01*
X36066Y-53887D02*
X34098Y-53887D01*
X38661Y-50651D02*
X41239Y-50651D01*
X41239Y-50651D02*
X41239Y-52049D01*
X41239Y-52049D02*
X38661Y-52049D01*
X38661Y-52049D02*
X38661Y-50651D01*
G54D15*
X42850Y-44200D02*
X41650Y-44200D01*
X41650Y-44200D02*
X41650Y-43900D01*
X41650Y-43900D02*
X42850Y-43900D01*
X42850Y-43900D02*
X42850Y-44200D01*
G54D16*
X20200Y-43050D02*
X23200Y-43050D01*
X23200Y-41650D02*
X20200Y-41650D01*
X20200Y-43050D02*
X20200Y-41650D01*
G54D10*
X23200Y-41650D02*
X23200Y-43050D01*
G54D15*
X23141Y-41850D02*
X23138Y-41877D01*
X23130Y-41903D01*
X23117Y-41928D01*
X23100Y-41949D01*
X23078Y-41966D01*
X23054Y-41979D01*
X23028Y-41988D01*
X23000Y-41990D01*
X22974Y-41988D01*
X22948Y-41980D01*
X22923Y-41967D01*
X22902Y-41950D01*
X22884Y-41929D01*
X22871Y-41905D01*
X22863Y-41879D01*
X22860Y-41851D01*
X22862Y-41825D01*
X22869Y-41799D01*
X22882Y-41774D01*
X22899Y-41753D01*
X22920Y-41735D01*
X22944Y-41721D01*
X22970Y-41713D01*
X22998Y-41710D01*
X23024Y-41712D01*
X23050Y-41719D01*
X23075Y-41731D01*
X23097Y-41748D01*
X23115Y-41769D01*
X23128Y-41793D01*
X23137Y-41819D01*
X23140Y-41847D01*
X23141Y-41850D01*
X23200Y-42600D02*
X22900Y-42600D01*
X22900Y-42600D02*
X22900Y-42100D01*
X22900Y-42100D02*
X23200Y-42100D01*
G54D11*
X31532Y-45232D02*
X31529Y-45261D01*
X31520Y-45289D01*
X31506Y-45315D01*
X31488Y-45337D01*
X31465Y-45356D01*
X31440Y-45370D01*
X31412Y-45378D01*
X31383Y-45381D01*
X31354Y-45379D01*
X31326Y-45371D01*
X31300Y-45357D01*
X31278Y-45339D01*
X31259Y-45316D01*
X31245Y-45291D01*
X31236Y-45263D01*
X31233Y-45234D01*
X31235Y-45205D01*
X31243Y-45177D01*
X31256Y-45151D01*
X31275Y-45128D01*
X31297Y-45109D01*
X31322Y-45095D01*
X31350Y-45086D01*
X31379Y-45083D01*
X31408Y-45085D01*
X31436Y-45093D01*
X31462Y-45106D01*
X31485Y-45124D01*
X31504Y-45146D01*
X31519Y-45171D01*
X31528Y-45199D01*
X31531Y-45228D01*
X31532Y-45232D01*
X34982Y-48832D02*
X34982Y-44832D01*
X34982Y-44832D02*
X31232Y-44832D01*
X31232Y-44832D02*
X30982Y-45082D01*
X30982Y-45082D02*
X30982Y-48832D01*
X30982Y-48832D02*
X34982Y-48832D01*
G54D12*
X45394Y-51516D02*
X48150Y-51516D01*
X48150Y-51516D02*
X48150Y-48484D01*
X48150Y-48484D02*
X45394Y-48484D01*
X45394Y-48484D02*
X45394Y-51516D01*
G54D15*
X45900Y-46700D02*
X45900Y-45500D01*
X45900Y-45500D02*
X46200Y-45500D01*
X46200Y-45500D02*
X46200Y-46700D01*
X46200Y-46700D02*
X45900Y-46700D01*
G54D17*
X15843Y-42542D02*
X15243Y-42542D01*
X15243Y-42314D01*
X15271Y-42256D01*
X15300Y-42228D01*
X15357Y-42199D01*
X15443Y-42199D01*
X15500Y-42228D01*
X15529Y-42256D01*
X15557Y-42314D01*
X15557Y-42542D01*
X15243Y-41999D02*
X15243Y-41628D01*
X15471Y-41828D01*
X15471Y-41742D01*
X15500Y-41685D01*
X15529Y-41656D01*
X15586Y-41628D01*
X15729Y-41628D01*
X15786Y-41656D01*
X15814Y-41685D01*
X15843Y-41742D01*
X15843Y-41914D01*
X15814Y-41971D01*
X15786Y-41999D01*
X16593Y-43721D02*
X16307Y-43921D01*
X16593Y-44064D02*
X15993Y-44064D01*
X15993Y-43836D01*
X16021Y-43778D01*
X16050Y-43750D01*
X16107Y-43721D01*
X16193Y-43721D01*
X16250Y-43750D01*
X16279Y-43778D01*
X16307Y-43836D01*
X16307Y-44064D01*
X16279Y-43464D02*
X16279Y-43264D01*
X16593Y-43178D02*
X16593Y-43464D01*
X15993Y-43464D01*
X15993Y-43178D01*
X16279Y-42721D02*
X16307Y-42635D01*
X16336Y-42607D01*
X16393Y-42578D01*
X16479Y-42578D01*
X16536Y-42607D01*
X16564Y-42635D01*
X16593Y-42693D01*
X16593Y-42921D01*
X15993Y-42921D01*
X15993Y-42721D01*
X16021Y-42664D01*
X16050Y-42635D01*
X16107Y-42607D01*
X16164Y-42607D01*
X16221Y-42635D01*
X16250Y-42664D01*
X16279Y-42721D01*
X16279Y-42921D01*
X16279Y-42321D02*
X16279Y-42121D01*
X16593Y-42035D02*
X16593Y-42321D01*
X15993Y-42321D01*
X15993Y-42035D01*
X16593Y-41492D02*
X16593Y-41778D01*
X15993Y-41778D01*
X16564Y-41321D02*
X16593Y-41235D01*
X16593Y-41092D01*
X16564Y-41035D01*
X16536Y-41006D01*
X16479Y-40978D01*
X16421Y-40978D01*
X16364Y-41006D01*
X16336Y-41035D01*
X16307Y-41092D01*
X16279Y-41206D01*
X16250Y-41264D01*
X16221Y-41292D01*
X16164Y-41321D01*
X16107Y-41321D01*
X16050Y-41292D01*
X16021Y-41264D01*
X15993Y-41206D01*
X15993Y-41064D01*
X16021Y-40978D01*
X16593Y-40721D02*
X15993Y-40721D01*
X16593Y-40435D02*
X15993Y-40435D01*
X16421Y-40235D01*
X15993Y-40035D01*
X16593Y-40035D01*
X45000Y-35616D02*
X45000Y-36044D01*
X44972Y-36130D01*
X44915Y-36187D01*
X44829Y-36216D01*
X44772Y-36216D01*
X45257Y-35673D02*
X45286Y-35644D01*
X45343Y-35616D01*
X45486Y-35616D01*
X45543Y-35644D01*
X45572Y-35673D01*
X45600Y-35730D01*
X45600Y-35787D01*
X45572Y-35873D01*
X45229Y-36216D01*
X45600Y-36216D01*
X43486Y-38293D02*
X43486Y-38721D01*
X43458Y-38807D01*
X43401Y-38864D01*
X43315Y-38893D01*
X43258Y-38893D01*
X43743Y-38721D02*
X44029Y-38721D01*
X43686Y-38893D02*
X43886Y-38293D01*
X44086Y-38893D01*
X44629Y-38836D02*
X44600Y-38864D01*
X44514Y-38893D01*
X44457Y-38893D01*
X44372Y-38864D01*
X44314Y-38807D01*
X44286Y-38750D01*
X44257Y-38636D01*
X44257Y-38550D01*
X44286Y-38436D01*
X44314Y-38379D01*
X44372Y-38321D01*
X44457Y-38293D01*
X44514Y-38293D01*
X44600Y-38321D01*
X44629Y-38350D01*
X44886Y-38893D02*
X44886Y-38293D01*
X45229Y-38893D02*
X44972Y-38550D01*
X45229Y-38293D02*
X44886Y-38636D01*
X45343Y-38950D02*
X45800Y-38950D01*
X45914Y-38350D02*
X45943Y-38321D01*
X46000Y-38293D01*
X46143Y-38293D01*
X46200Y-38321D01*
X46229Y-38350D01*
X46257Y-38407D01*
X46257Y-38464D01*
X46229Y-38550D01*
X45886Y-38893D01*
X46257Y-38893D01*
X46514Y-38836D02*
X46542Y-38864D01*
X46514Y-38893D01*
X46485Y-38864D01*
X46514Y-38836D01*
X46514Y-38893D01*
X47086Y-38293D02*
X46800Y-38293D01*
X46771Y-38579D01*
X46800Y-38550D01*
X46857Y-38521D01*
X47000Y-38521D01*
X47057Y-38550D01*
X47086Y-38579D01*
X47114Y-38636D01*
X47114Y-38779D01*
X47086Y-38836D01*
X47057Y-38864D01*
X47000Y-38893D01*
X46857Y-38893D01*
X46800Y-38864D01*
X46771Y-38836D01*
G54D18*
X30004Y-53858D02*
X30004Y-53558D01*
X30076Y-53558D01*
X30119Y-53573D01*
X30147Y-53601D01*
X30162Y-53630D01*
X30176Y-53687D01*
X30176Y-53730D01*
X30162Y-53787D01*
X30147Y-53816D01*
X30119Y-53844D01*
X30076Y-53858D01*
X30004Y-53858D01*
X30447Y-53558D02*
X30304Y-53558D01*
X30290Y-53701D01*
X30304Y-53687D01*
X30333Y-53673D01*
X30404Y-53673D01*
X30433Y-53687D01*
X30447Y-53701D01*
X30462Y-53730D01*
X30462Y-53801D01*
X30447Y-53830D01*
X30433Y-53844D01*
X30404Y-53858D01*
X30333Y-53858D01*
X30304Y-53844D01*
X30290Y-53830D01*
X29727Y-52773D02*
X29698Y-52758D01*
X29655Y-52758D01*
X29612Y-52773D01*
X29584Y-52801D01*
X29569Y-52830D01*
X29555Y-52887D01*
X29555Y-52930D01*
X29569Y-52987D01*
X29584Y-53016D01*
X29612Y-53044D01*
X29655Y-53058D01*
X29684Y-53058D01*
X29727Y-53044D01*
X29741Y-53030D01*
X29741Y-52930D01*
X29684Y-52930D01*
X30041Y-53058D02*
X29941Y-52916D01*
X29869Y-53058D02*
X29869Y-52758D01*
X29984Y-52758D01*
X30012Y-52773D01*
X30027Y-52787D01*
X30041Y-52816D01*
X30041Y-52858D01*
X30027Y-52887D01*
X30012Y-52901D01*
X29984Y-52916D01*
X29869Y-52916D01*
X30169Y-52901D02*
X30269Y-52901D01*
X30312Y-53058D02*
X30169Y-53058D01*
X30169Y-52758D01*
X30312Y-52758D01*
X30440Y-52901D02*
X30540Y-52901D01*
X30583Y-53058D02*
X30440Y-53058D01*
X30440Y-52758D01*
X30583Y-52758D01*
X30711Y-53058D02*
X30711Y-52758D01*
X30883Y-53058D01*
X30883Y-52758D01*
X30031Y-54636D02*
X30031Y-54336D01*
X30103Y-54336D01*
X30146Y-54351D01*
X30174Y-54379D01*
X30189Y-54408D01*
X30203Y-54465D01*
X30203Y-54508D01*
X30189Y-54565D01*
X30174Y-54594D01*
X30146Y-54622D01*
X30103Y-54636D01*
X30031Y-54636D01*
X30460Y-54436D02*
X30460Y-54636D01*
X30389Y-54322D02*
X30317Y-54536D01*
X30503Y-54536D01*
X30061Y-53836D02*
X29961Y-53694D01*
X29889Y-53836D02*
X29889Y-53536D01*
X30004Y-53536D01*
X30032Y-53551D01*
X30047Y-53565D01*
X30061Y-53594D01*
X30061Y-53636D01*
X30047Y-53665D01*
X30032Y-53679D01*
X30004Y-53694D01*
X29889Y-53694D01*
X30189Y-53679D02*
X30289Y-53679D01*
X30332Y-53836D02*
X30189Y-53836D01*
X30189Y-53536D01*
X30332Y-53536D01*
X30460Y-53836D02*
X30460Y-53536D01*
X30532Y-53536D01*
X30575Y-53551D01*
X30603Y-53579D01*
X30618Y-53608D01*
X30632Y-53665D01*
X30632Y-53708D01*
X30618Y-53765D01*
X30603Y-53794D01*
X30575Y-53822D01*
X30532Y-53836D01*
X30460Y-53836D01*
G54D19*
X33855Y-38412D02*
X33855Y-38012D01*
X34008Y-38012D01*
X34046Y-38031D01*
X34065Y-38050D01*
X34084Y-38088D01*
X34084Y-38145D01*
X34065Y-38183D01*
X34046Y-38202D01*
X34008Y-38221D01*
X33855Y-38221D01*
X34465Y-38412D02*
X34236Y-38412D01*
X34350Y-38412D02*
X34350Y-38012D01*
X34312Y-38069D01*
X34274Y-38107D01*
X34236Y-38126D01*
G54D11*
X35184Y-38012D02*
X35184Y-38298D01*
X35164Y-38355D01*
X35126Y-38393D01*
X35069Y-38412D01*
X35031Y-38412D01*
X35317Y-38012D02*
X35546Y-38012D01*
X35431Y-38412D02*
X35431Y-38012D01*
X35660Y-38298D02*
X35851Y-38298D01*
X35622Y-38412D02*
X35755Y-38012D01*
X35889Y-38412D01*
X36232Y-38031D02*
X36194Y-38012D01*
X36137Y-38012D01*
X36079Y-38031D01*
X36041Y-38069D01*
X36022Y-38107D01*
X36003Y-38183D01*
X36003Y-38240D01*
X36022Y-38317D01*
X36041Y-38355D01*
X36079Y-38393D01*
X36137Y-38412D01*
X36175Y-38412D01*
X36232Y-38393D01*
X36251Y-38374D01*
X36251Y-38240D01*
X36175Y-38240D01*
G54D10*
X36650Y-38821D02*
X36650Y-39036D01*
X36636Y-39079D01*
X36607Y-39107D01*
X36564Y-39121D01*
X36536Y-39121D01*
X36793Y-39121D02*
X36793Y-38821D01*
X36908Y-38821D01*
X36936Y-38836D01*
X36951Y-38850D01*
X36965Y-38879D01*
X36965Y-38921D01*
X36951Y-38950D01*
X36936Y-38964D01*
X36908Y-38979D01*
X36793Y-38979D01*
X37079Y-38850D02*
X37093Y-38836D01*
X37122Y-38821D01*
X37193Y-38821D01*
X37222Y-38836D01*
X37236Y-38850D01*
X37251Y-38879D01*
X37251Y-38907D01*
X37236Y-38950D01*
X37065Y-39121D01*
X37251Y-39121D01*
X36329Y-40564D02*
X36429Y-40564D01*
X36472Y-40721D02*
X36329Y-40721D01*
X36329Y-40421D01*
X36472Y-40421D01*
X36772Y-40721D02*
X36672Y-40579D01*
X36600Y-40721D02*
X36600Y-40421D01*
X36715Y-40421D01*
X36743Y-40436D01*
X36758Y-40450D01*
X36772Y-40479D01*
X36772Y-40521D01*
X36758Y-40550D01*
X36743Y-40564D01*
X36715Y-40579D01*
X36600Y-40579D01*
X36886Y-40636D02*
X37029Y-40636D01*
X36858Y-40721D02*
X36958Y-40421D01*
X37058Y-40721D01*
X37143Y-40707D02*
X37186Y-40721D01*
X37257Y-40721D01*
X37286Y-40707D01*
X37300Y-40693D01*
X37315Y-40664D01*
X37315Y-40636D01*
X37300Y-40607D01*
X37286Y-40593D01*
X37257Y-40579D01*
X37200Y-40564D01*
X37172Y-40550D01*
X37157Y-40536D01*
X37143Y-40507D01*
X37143Y-40479D01*
X37157Y-40450D01*
X37172Y-40436D01*
X37200Y-40421D01*
X37272Y-40421D01*
X37315Y-40436D01*
X37443Y-40564D02*
X37543Y-40564D01*
X37586Y-40721D02*
X37443Y-40721D01*
X37443Y-40421D01*
X37586Y-40421D01*
X39650Y-38771D02*
X39650Y-38986D01*
X39636Y-39029D01*
X39607Y-39057D01*
X39564Y-39071D01*
X39536Y-39071D01*
X39793Y-39071D02*
X39793Y-38771D01*
X39908Y-38771D01*
X39936Y-38786D01*
X39951Y-38800D01*
X39965Y-38829D01*
X39965Y-38871D01*
X39951Y-38900D01*
X39936Y-38914D01*
X39908Y-38929D01*
X39793Y-38929D01*
X40251Y-39071D02*
X40079Y-39071D01*
X40165Y-39071D02*
X40165Y-38771D01*
X40136Y-38814D01*
X40108Y-38843D01*
X40079Y-38857D01*
X39422Y-40321D02*
X39593Y-40321D01*
X39507Y-40621D02*
X39507Y-40321D01*
X39693Y-40464D02*
X39793Y-40464D01*
X39836Y-40621D02*
X39693Y-40621D01*
X39693Y-40321D01*
X39836Y-40321D01*
X39950Y-40607D02*
X39993Y-40621D01*
X40064Y-40621D01*
X40093Y-40607D01*
X40107Y-40593D01*
X40122Y-40564D01*
X40122Y-40536D01*
X40107Y-40507D01*
X40093Y-40493D01*
X40064Y-40479D01*
X40007Y-40464D01*
X39979Y-40450D01*
X39964Y-40436D01*
X39950Y-40407D01*
X39950Y-40379D01*
X39964Y-40350D01*
X39979Y-40336D01*
X40007Y-40321D01*
X40079Y-40321D01*
X40122Y-40336D01*
X40208Y-40321D02*
X40379Y-40321D01*
X40293Y-40621D02*
X40293Y-40321D01*
X45814Y-54436D02*
X45829Y-54393D01*
X45843Y-54378D01*
X45871Y-54364D01*
X45914Y-54364D01*
X45943Y-54378D01*
X45957Y-54393D01*
X45971Y-54421D01*
X45971Y-54536D01*
X45671Y-54536D01*
X45671Y-54436D01*
X45686Y-54407D01*
X45700Y-54393D01*
X45729Y-54378D01*
X45757Y-54378D01*
X45786Y-54393D01*
X45800Y-54407D01*
X45814Y-54436D01*
X45814Y-54536D01*
X45671Y-54278D02*
X45671Y-54107D01*
X45971Y-54193D02*
X45671Y-54193D01*
X45971Y-53849D02*
X45971Y-54021D01*
X45971Y-53935D02*
X45671Y-53935D01*
X45714Y-53964D01*
X45743Y-53992D01*
X45757Y-54021D01*
X47464Y-55000D02*
X47479Y-54957D01*
X47493Y-54942D01*
X47521Y-54928D01*
X47564Y-54928D01*
X47593Y-54942D01*
X47607Y-54957D01*
X47621Y-54985D01*
X47621Y-55100D01*
X47321Y-55100D01*
X47321Y-55000D01*
X47336Y-54971D01*
X47350Y-54957D01*
X47379Y-54942D01*
X47407Y-54942D01*
X47436Y-54957D01*
X47450Y-54971D01*
X47464Y-55000D01*
X47464Y-55100D01*
X47536Y-54814D02*
X47536Y-54671D01*
X47621Y-54842D02*
X47321Y-54742D01*
X47621Y-54642D01*
X47321Y-54585D02*
X47321Y-54414D01*
X47621Y-54500D02*
X47321Y-54500D01*
X47321Y-54356D02*
X47321Y-54185D01*
X47621Y-54271D02*
X47321Y-54271D01*
X47464Y-54085D02*
X47464Y-53985D01*
X47621Y-53942D02*
X47621Y-54085D01*
X47321Y-54085D01*
X47321Y-53942D01*
X47621Y-53642D02*
X47479Y-53742D01*
X47621Y-53814D02*
X47321Y-53814D01*
X47321Y-53699D01*
X47336Y-53671D01*
X47350Y-53656D01*
X47379Y-53642D01*
X47421Y-53642D01*
X47450Y-53656D01*
X47464Y-53671D01*
X47479Y-53699D01*
X47479Y-53814D01*
X47479Y-53456D02*
X47621Y-53456D01*
X47321Y-53556D02*
X47479Y-53456D01*
X47321Y-53356D01*
G54D11*
X37855Y-38312D02*
X37855Y-37912D01*
X38008Y-37912D01*
X38046Y-37931D01*
X38065Y-37950D01*
X38084Y-37988D01*
X38084Y-38045D01*
X38065Y-38083D01*
X38046Y-38102D01*
X38008Y-38121D01*
X37855Y-38121D01*
X38236Y-37950D02*
X38255Y-37931D01*
X38293Y-37912D01*
X38389Y-37912D01*
X38427Y-37931D01*
X38446Y-37950D01*
X38465Y-37988D01*
X38465Y-38026D01*
X38446Y-38083D01*
X38217Y-38312D01*
X38465Y-38312D01*
G54D17*
X22500Y-37164D02*
X22586Y-37193D01*
X22729Y-37193D01*
X22786Y-37164D01*
X22815Y-37136D01*
X22843Y-37079D01*
X22843Y-37021D01*
X22815Y-36964D01*
X22786Y-36936D01*
X22729Y-36907D01*
X22615Y-36879D01*
X22557Y-36850D01*
X22529Y-36821D01*
X22500Y-36764D01*
X22500Y-36707D01*
X22529Y-36650D01*
X22557Y-36621D01*
X22615Y-36593D01*
X22757Y-36593D01*
X22843Y-36621D01*
X23043Y-36593D02*
X23186Y-37193D01*
X23300Y-36764D01*
X23414Y-37193D01*
X23557Y-36593D01*
X23757Y-36650D02*
X23786Y-36621D01*
X23843Y-36593D01*
X23986Y-36593D01*
X24043Y-36621D01*
X24072Y-36650D01*
X24100Y-36707D01*
X24100Y-36764D01*
X24072Y-36850D01*
X23729Y-37193D01*
X24100Y-37193D01*
X19700Y-38729D02*
X19786Y-38757D01*
X19814Y-38786D01*
X19843Y-38843D01*
X19843Y-38929D01*
X19814Y-38986D01*
X19786Y-39014D01*
X19728Y-39043D01*
X19500Y-39043D01*
X19500Y-38443D01*
X19700Y-38443D01*
X19757Y-38471D01*
X19786Y-38500D01*
X19814Y-38557D01*
X19814Y-38614D01*
X19786Y-38671D01*
X19757Y-38700D01*
X19700Y-38729D01*
X19500Y-38729D01*
X20214Y-38443D02*
X20328Y-38443D01*
X20386Y-38471D01*
X20443Y-38529D01*
X20471Y-38643D01*
X20471Y-38843D01*
X20443Y-38957D01*
X20386Y-39014D01*
X20328Y-39043D01*
X20214Y-39043D01*
X20157Y-39014D01*
X20100Y-38957D01*
X20071Y-38843D01*
X20071Y-38643D01*
X20100Y-38529D01*
X20157Y-38471D01*
X20214Y-38443D01*
X20843Y-38443D02*
X20957Y-38443D01*
X21015Y-38471D01*
X21072Y-38529D01*
X21100Y-38643D01*
X21100Y-38843D01*
X21072Y-38957D01*
X21015Y-39014D01*
X20957Y-39043D01*
X20843Y-39043D01*
X20786Y-39014D01*
X20729Y-38957D01*
X20700Y-38843D01*
X20700Y-38643D01*
X20729Y-38529D01*
X20786Y-38471D01*
X20843Y-38443D01*
X21272Y-38443D02*
X21615Y-38443D01*
X21444Y-39043D02*
X21444Y-38443D01*
X22101Y-39043D02*
X21815Y-39043D01*
X21815Y-38443D01*
X22415Y-38443D02*
X22529Y-38443D01*
X22587Y-38471D01*
X22644Y-38529D01*
X22672Y-38643D01*
X22672Y-38843D01*
X22644Y-38957D01*
X22587Y-39014D01*
X22529Y-39043D01*
X22415Y-39043D01*
X22358Y-39014D01*
X22301Y-38957D01*
X22272Y-38843D01*
X22272Y-38643D01*
X22301Y-38529D01*
X22358Y-38471D01*
X22415Y-38443D01*
X22901Y-38871D02*
X23187Y-38871D01*
X22844Y-39043D02*
X23044Y-38443D01*
X23244Y-39043D01*
X23444Y-39043D02*
X23444Y-38443D01*
X23587Y-38443D01*
X23672Y-38471D01*
X23730Y-38529D01*
X23758Y-38586D01*
X23787Y-38700D01*
X23787Y-38786D01*
X23758Y-38900D01*
X23730Y-38957D01*
X23672Y-39014D01*
X23587Y-39043D01*
X23444Y-39043D01*
X24044Y-38729D02*
X24244Y-38729D01*
X24330Y-39043D02*
X24044Y-39043D01*
X24044Y-38443D01*
X24330Y-38443D01*
X24930Y-39043D02*
X24730Y-38757D01*
X24587Y-39043D02*
X24587Y-38443D01*
X24815Y-38443D01*
X24873Y-38471D01*
X24901Y-38500D01*
X24930Y-38557D01*
X24930Y-38643D01*
X24901Y-38700D01*
X24873Y-38729D01*
X24815Y-38757D01*
X24587Y-38757D01*
X43950Y-42264D02*
X44036Y-42293D01*
X44179Y-42293D01*
X44236Y-42264D01*
X44265Y-42236D01*
X44293Y-42179D01*
X44293Y-42121D01*
X44265Y-42064D01*
X44236Y-42036D01*
X44179Y-42007D01*
X44065Y-41979D01*
X44007Y-41950D01*
X43979Y-41921D01*
X43950Y-41864D01*
X43950Y-41807D01*
X43979Y-41750D01*
X44007Y-41721D01*
X44065Y-41693D01*
X44207Y-41693D01*
X44293Y-41721D01*
X44493Y-41693D02*
X44636Y-42293D01*
X44750Y-41864D01*
X44864Y-42293D01*
X45007Y-41693D01*
X45550Y-42293D02*
X45207Y-42293D01*
X45379Y-42293D02*
X45379Y-41693D01*
X45322Y-41779D01*
X45264Y-41836D01*
X45207Y-41864D01*
X47693Y-42871D02*
X47407Y-43071D01*
X47693Y-43214D02*
X47093Y-43214D01*
X47093Y-42986D01*
X47121Y-42928D01*
X47150Y-42900D01*
X47207Y-42871D01*
X47293Y-42871D01*
X47350Y-42900D01*
X47379Y-42928D01*
X47407Y-42986D01*
X47407Y-43214D01*
X47379Y-42614D02*
X47379Y-42414D01*
X47693Y-42328D02*
X47693Y-42614D01*
X47093Y-42614D01*
X47093Y-42328D01*
X47664Y-42100D02*
X47693Y-42014D01*
X47693Y-41871D01*
X47664Y-41814D01*
X47636Y-41785D01*
X47579Y-41757D01*
X47521Y-41757D01*
X47464Y-41785D01*
X47436Y-41814D01*
X47407Y-41871D01*
X47379Y-41985D01*
X47350Y-42043D01*
X47321Y-42071D01*
X47264Y-42100D01*
X47207Y-42100D01*
X47150Y-42071D01*
X47121Y-42043D01*
X47093Y-41985D01*
X47093Y-41843D01*
X47121Y-41757D01*
X47379Y-41500D02*
X47379Y-41300D01*
X47693Y-41214D02*
X47693Y-41500D01*
X47093Y-41500D01*
X47093Y-41214D01*
X47093Y-41043D02*
X47093Y-40700D01*
X47693Y-40871D02*
X47093Y-40871D01*
G54D11*
X30676Y-41062D02*
X30943Y-41462D01*
X30943Y-41062D02*
X30676Y-41462D01*
X31305Y-41462D02*
X31076Y-41462D01*
X31190Y-41462D02*
X31190Y-41062D01*
X31152Y-41119D01*
X31114Y-41157D01*
X31076Y-41176D01*
X29658Y-40262D02*
X29429Y-40262D01*
X29543Y-40262D02*
X29543Y-39862D01*
X29505Y-39919D01*
X29467Y-39957D01*
X29429Y-39976D01*
X29886Y-40033D02*
X29848Y-40014D01*
X29829Y-39995D01*
X29810Y-39957D01*
X29810Y-39938D01*
X29829Y-39900D01*
X29848Y-39881D01*
X29886Y-39862D01*
X29963Y-39862D01*
X30001Y-39881D01*
X30020Y-39900D01*
X30039Y-39938D01*
X30039Y-39957D01*
X30020Y-39995D01*
X30001Y-40014D01*
X29963Y-40033D01*
X29886Y-40033D01*
X29848Y-40052D01*
X29829Y-40071D01*
X29810Y-40110D01*
X29810Y-40186D01*
X29829Y-40224D01*
X29848Y-40243D01*
X29886Y-40262D01*
X29963Y-40262D01*
X30001Y-40243D01*
X30020Y-40224D01*
X30039Y-40186D01*
X30039Y-40110D01*
X30020Y-40071D01*
X30001Y-40052D01*
X29963Y-40033D01*
X30210Y-40224D02*
X30229Y-40243D01*
X30210Y-40262D01*
X30191Y-40243D01*
X30210Y-40224D01*
X30210Y-40262D01*
X30572Y-39995D02*
X30572Y-40262D01*
X30476Y-39843D02*
X30381Y-40129D01*
X30629Y-40129D01*
X30743Y-39862D02*
X30991Y-39862D01*
X30857Y-40014D01*
X30915Y-40014D01*
X30953Y-40033D01*
X30972Y-40052D01*
X30991Y-40090D01*
X30991Y-40186D01*
X30972Y-40224D01*
X30953Y-40243D01*
X30915Y-40262D01*
X30800Y-40262D01*
X30762Y-40243D01*
X30743Y-40224D01*
X31143Y-39900D02*
X31162Y-39881D01*
X31200Y-39862D01*
X31296Y-39862D01*
X31334Y-39881D01*
X31353Y-39900D01*
X31372Y-39938D01*
X31372Y-39976D01*
X31353Y-40033D01*
X31124Y-40262D01*
X31372Y-40262D01*
X31543Y-40262D02*
X31543Y-39862D01*
X31677Y-40148D01*
X31810Y-39862D01*
X31810Y-40262D01*
X32000Y-40262D02*
X32000Y-39862D01*
X32000Y-40052D02*
X32229Y-40052D01*
X32229Y-40262D02*
X32229Y-39862D01*
X32381Y-39995D02*
X32591Y-39995D01*
X32381Y-40262D01*
X32591Y-40262D01*
G54D17*
X21108Y-52993D02*
X21108Y-52393D01*
X21336Y-52393D01*
X21394Y-52421D01*
X21422Y-52450D01*
X21451Y-52507D01*
X21451Y-52593D01*
X21422Y-52650D01*
X21394Y-52679D01*
X21336Y-52707D01*
X21108Y-52707D01*
X21965Y-52593D02*
X21965Y-52993D01*
X21822Y-52364D02*
X21679Y-52793D01*
X22051Y-52793D01*
X20893Y-52064D02*
X20979Y-52093D01*
X21122Y-52093D01*
X21179Y-52064D01*
X21208Y-52036D01*
X21236Y-51979D01*
X21236Y-51921D01*
X21208Y-51864D01*
X21179Y-51836D01*
X21122Y-51807D01*
X21008Y-51779D01*
X20950Y-51750D01*
X20922Y-51721D01*
X20893Y-51664D01*
X20893Y-51607D01*
X20922Y-51550D01*
X20950Y-51521D01*
X21008Y-51493D01*
X21150Y-51493D01*
X21236Y-51521D01*
X21493Y-52093D02*
X21493Y-51493D01*
X21779Y-52093D02*
X21779Y-51493D01*
X21979Y-51921D01*
X22179Y-51493D01*
X22179Y-52093D01*
G54D20*
X34417Y-51398D02*
X34357Y-51265D01*
X34314Y-51398D02*
X34314Y-51118D01*
X34382Y-51118D01*
X34400Y-51132D01*
X34408Y-51145D01*
X34417Y-51172D01*
X34417Y-51212D01*
X34408Y-51238D01*
X34400Y-51252D01*
X34382Y-51265D01*
X34314Y-51265D01*
X34588Y-51398D02*
X34485Y-51398D01*
X34537Y-51398D02*
X34537Y-51118D01*
X34520Y-51158D01*
X34502Y-51185D01*
X34485Y-51198D01*
X34691Y-51238D02*
X34673Y-51225D01*
X34665Y-51212D01*
X34656Y-51185D01*
X34656Y-51172D01*
X34665Y-51145D01*
X34673Y-51132D01*
X34691Y-51118D01*
X34725Y-51118D01*
X34742Y-51132D01*
X34751Y-51145D01*
X34759Y-51172D01*
X34759Y-51185D01*
X34751Y-51212D01*
X34742Y-51225D01*
X34725Y-51238D01*
X34691Y-51238D01*
X34673Y-51252D01*
X34665Y-51265D01*
X34656Y-51292D01*
X34656Y-51345D01*
X34665Y-51372D01*
X34673Y-51385D01*
X34691Y-51398D01*
X34725Y-51398D01*
X34742Y-51385D01*
X34751Y-51372D01*
X34759Y-51345D01*
X34759Y-51292D01*
X34751Y-51265D01*
X34742Y-51252D01*
X34725Y-51238D01*
X35456Y-55107D02*
X35396Y-54974D01*
X35353Y-55107D02*
X35353Y-54827D01*
X35421Y-54827D01*
X35439Y-54841D01*
X35447Y-54854D01*
X35456Y-54881D01*
X35456Y-54921D01*
X35447Y-54947D01*
X35439Y-54961D01*
X35421Y-54974D01*
X35353Y-54974D01*
X35627Y-55107D02*
X35524Y-55107D01*
X35576Y-55107D02*
X35576Y-54827D01*
X35559Y-54867D01*
X35541Y-54894D01*
X35524Y-54907D01*
X35687Y-54827D02*
X35807Y-54827D01*
X35730Y-55107D01*
X42185Y-45713D02*
X42125Y-45580D01*
X42082Y-45713D02*
X42082Y-45433D01*
X42150Y-45433D01*
X42168Y-45447D01*
X42176Y-45460D01*
X42185Y-45487D01*
X42185Y-45527D01*
X42176Y-45553D01*
X42168Y-45567D01*
X42150Y-45580D01*
X42082Y-45580D01*
X42356Y-45713D02*
X42253Y-45713D01*
X42305Y-45713D02*
X42305Y-45433D01*
X42288Y-45473D01*
X42270Y-45500D01*
X42253Y-45513D01*
X42510Y-45433D02*
X42476Y-45433D01*
X42459Y-45447D01*
X42450Y-45460D01*
X42433Y-45500D01*
X42424Y-45553D01*
X42424Y-45660D01*
X42433Y-45687D01*
X42441Y-45700D01*
X42459Y-45713D01*
X42493Y-45713D01*
X42510Y-45700D01*
X42519Y-45687D01*
X42527Y-45660D01*
X42527Y-45593D01*
X42519Y-45567D01*
X42510Y-45553D01*
X42493Y-45540D01*
X42459Y-45540D01*
X42441Y-45553D01*
X42433Y-45567D01*
X42424Y-45593D01*
X25813Y-39065D02*
X25680Y-39125D01*
X25813Y-39168D02*
X25533Y-39168D01*
X25533Y-39100D01*
X25547Y-39082D01*
X25560Y-39074D01*
X25587Y-39065D01*
X25627Y-39065D01*
X25653Y-39074D01*
X25667Y-39082D01*
X25680Y-39100D01*
X25680Y-39168D01*
X25813Y-38894D02*
X25813Y-38997D01*
X25813Y-38945D02*
X25533Y-38945D01*
X25573Y-38962D01*
X25600Y-38980D01*
X25613Y-38997D01*
X25533Y-38731D02*
X25533Y-38817D01*
X25667Y-38826D01*
X25653Y-38817D01*
X25640Y-38800D01*
X25640Y-38757D01*
X25653Y-38740D01*
X25667Y-38731D01*
X25693Y-38723D01*
X25760Y-38723D01*
X25787Y-38731D01*
X25800Y-38740D01*
X25813Y-38757D01*
X25813Y-38800D01*
X25800Y-38817D01*
X25787Y-38826D01*
X31621Y-53476D02*
X31561Y-53343D01*
X31518Y-53476D02*
X31518Y-53196D01*
X31586Y-53196D01*
X31604Y-53210D01*
X31612Y-53223D01*
X31621Y-53250D01*
X31621Y-53290D01*
X31612Y-53316D01*
X31604Y-53330D01*
X31586Y-53343D01*
X31518Y-53343D01*
X31792Y-53476D02*
X31689Y-53476D01*
X31741Y-53476D02*
X31741Y-53196D01*
X31724Y-53236D01*
X31706Y-53263D01*
X31689Y-53276D01*
X31946Y-53290D02*
X31946Y-53476D01*
X31903Y-53183D02*
X31860Y-53383D01*
X31972Y-53383D01*
X31635Y-54294D02*
X31575Y-54161D01*
X31532Y-54294D02*
X31532Y-54014D01*
X31600Y-54014D01*
X31618Y-54028D01*
X31626Y-54041D01*
X31635Y-54068D01*
X31635Y-54108D01*
X31626Y-54134D01*
X31618Y-54148D01*
X31600Y-54161D01*
X31532Y-54161D01*
X31806Y-54294D02*
X31703Y-54294D01*
X31755Y-54294D02*
X31755Y-54014D01*
X31738Y-54054D01*
X31720Y-54081D01*
X31703Y-54094D01*
X31866Y-54014D02*
X31977Y-54014D01*
X31917Y-54121D01*
X31943Y-54121D01*
X31960Y-54134D01*
X31969Y-54148D01*
X31977Y-54174D01*
X31977Y-54241D01*
X31969Y-54268D01*
X31960Y-54281D01*
X31943Y-54294D01*
X31891Y-54294D01*
X31874Y-54281D01*
X31866Y-54268D01*
X41027Y-41380D02*
X40967Y-41247D01*
X40924Y-41380D02*
X40924Y-41100D01*
X40992Y-41100D01*
X41010Y-41114D01*
X41018Y-41127D01*
X41027Y-41154D01*
X41027Y-41194D01*
X41018Y-41220D01*
X41010Y-41234D01*
X40992Y-41247D01*
X40924Y-41247D01*
X41198Y-41380D02*
X41095Y-41380D01*
X41147Y-41380D02*
X41147Y-41100D01*
X41130Y-41140D01*
X41112Y-41167D01*
X41095Y-41180D01*
X41266Y-41127D02*
X41275Y-41114D01*
X41292Y-41100D01*
X41335Y-41100D01*
X41352Y-41114D01*
X41361Y-41127D01*
X41369Y-41154D01*
X41369Y-41180D01*
X41361Y-41220D01*
X41258Y-41380D01*
X41369Y-41380D01*
X25235Y-44813D02*
X25175Y-44680D01*
X25132Y-44813D02*
X25132Y-44533D01*
X25200Y-44533D01*
X25218Y-44547D01*
X25226Y-44560D01*
X25235Y-44587D01*
X25235Y-44627D01*
X25226Y-44653D01*
X25218Y-44667D01*
X25200Y-44680D01*
X25132Y-44680D01*
X25406Y-44813D02*
X25303Y-44813D01*
X25355Y-44813D02*
X25355Y-44533D01*
X25338Y-44573D01*
X25320Y-44600D01*
X25303Y-44613D01*
X25577Y-44813D02*
X25474Y-44813D01*
X25526Y-44813D02*
X25526Y-44533D01*
X25509Y-44573D01*
X25491Y-44600D01*
X25474Y-44613D01*
X40335Y-46663D02*
X40275Y-46530D01*
X40232Y-46663D02*
X40232Y-46383D01*
X40300Y-46383D01*
X40318Y-46397D01*
X40326Y-46410D01*
X40335Y-46437D01*
X40335Y-46477D01*
X40326Y-46503D01*
X40318Y-46517D01*
X40300Y-46530D01*
X40232Y-46530D01*
X40506Y-46663D02*
X40403Y-46663D01*
X40455Y-46663D02*
X40455Y-46383D01*
X40438Y-46423D01*
X40420Y-46450D01*
X40403Y-46463D01*
X40617Y-46383D02*
X40634Y-46383D01*
X40651Y-46397D01*
X40660Y-46410D01*
X40669Y-46437D01*
X40677Y-46490D01*
X40677Y-46557D01*
X40669Y-46610D01*
X40660Y-46637D01*
X40651Y-46650D01*
X40634Y-46663D01*
X40617Y-46663D01*
X40600Y-46650D01*
X40591Y-46637D01*
X40583Y-46610D01*
X40574Y-46557D01*
X40574Y-46490D01*
X40583Y-46437D01*
X40591Y-46410D01*
X40600Y-46397D01*
X40617Y-46383D01*
X40421Y-47413D02*
X40361Y-47280D01*
X40318Y-47413D02*
X40318Y-47133D01*
X40386Y-47133D01*
X40404Y-47147D01*
X40412Y-47160D01*
X40421Y-47187D01*
X40421Y-47227D01*
X40412Y-47253D01*
X40404Y-47267D01*
X40386Y-47280D01*
X40318Y-47280D01*
X40506Y-47413D02*
X40541Y-47413D01*
X40558Y-47400D01*
X40566Y-47387D01*
X40584Y-47347D01*
X40592Y-47293D01*
X40592Y-47187D01*
X40584Y-47160D01*
X40575Y-47147D01*
X40558Y-47133D01*
X40524Y-47133D01*
X40506Y-47147D01*
X40498Y-47160D01*
X40489Y-47187D01*
X40489Y-47253D01*
X40498Y-47280D01*
X40506Y-47293D01*
X40524Y-47307D01*
X40558Y-47307D01*
X40575Y-47293D01*
X40584Y-47280D01*
X40592Y-47253D01*
X32813Y-38729D02*
X32680Y-38789D01*
X32813Y-38832D02*
X32533Y-38832D01*
X32533Y-38764D01*
X32547Y-38746D01*
X32560Y-38738D01*
X32587Y-38729D01*
X32627Y-38729D01*
X32653Y-38738D01*
X32667Y-38746D01*
X32680Y-38764D01*
X32680Y-38832D01*
X32653Y-38626D02*
X32640Y-38644D01*
X32627Y-38652D01*
X32600Y-38661D01*
X32587Y-38661D01*
X32560Y-38652D01*
X32547Y-38644D01*
X32533Y-38626D01*
X32533Y-38592D01*
X32547Y-38575D01*
X32560Y-38566D01*
X32587Y-38558D01*
X32600Y-38558D01*
X32627Y-38566D01*
X32640Y-38575D01*
X32653Y-38592D01*
X32653Y-38626D01*
X32667Y-38644D01*
X32680Y-38652D01*
X32707Y-38661D01*
X32760Y-38661D01*
X32787Y-38652D01*
X32800Y-38644D01*
X32813Y-38626D01*
X32813Y-38592D01*
X32800Y-38575D01*
X32787Y-38566D01*
X32760Y-38558D01*
X32707Y-38558D01*
X32680Y-38566D01*
X32667Y-38575D01*
X32653Y-38592D01*
X30813Y-38729D02*
X30680Y-38789D01*
X30813Y-38832D02*
X30533Y-38832D01*
X30533Y-38764D01*
X30547Y-38746D01*
X30560Y-38738D01*
X30587Y-38729D01*
X30627Y-38729D01*
X30653Y-38738D01*
X30667Y-38746D01*
X30680Y-38764D01*
X30680Y-38832D01*
X30533Y-38669D02*
X30533Y-38549D01*
X30813Y-38626D01*
X29813Y-38679D02*
X29680Y-38739D01*
X29813Y-38782D02*
X29533Y-38782D01*
X29533Y-38714D01*
X29547Y-38696D01*
X29560Y-38688D01*
X29587Y-38679D01*
X29627Y-38679D01*
X29653Y-38688D01*
X29667Y-38696D01*
X29680Y-38714D01*
X29680Y-38782D01*
X29533Y-38525D02*
X29533Y-38559D01*
X29547Y-38576D01*
X29560Y-38585D01*
X29600Y-38602D01*
X29653Y-38611D01*
X29760Y-38611D01*
X29787Y-38602D01*
X29800Y-38594D01*
X29813Y-38576D01*
X29813Y-38542D01*
X29800Y-38525D01*
X29787Y-38516D01*
X29760Y-38508D01*
X29693Y-38508D01*
X29667Y-38516D01*
X29653Y-38525D01*
X29640Y-38542D01*
X29640Y-38576D01*
X29653Y-38594D01*
X29667Y-38602D01*
X29693Y-38611D01*
X28813Y-38679D02*
X28680Y-38739D01*
X28813Y-38782D02*
X28533Y-38782D01*
X28533Y-38714D01*
X28547Y-38696D01*
X28560Y-38688D01*
X28587Y-38679D01*
X28627Y-38679D01*
X28653Y-38688D01*
X28667Y-38696D01*
X28680Y-38714D01*
X28680Y-38782D01*
X28533Y-38516D02*
X28533Y-38602D01*
X28667Y-38611D01*
X28653Y-38602D01*
X28640Y-38585D01*
X28640Y-38542D01*
X28653Y-38525D01*
X28667Y-38516D01*
X28693Y-38508D01*
X28760Y-38508D01*
X28787Y-38516D01*
X28800Y-38525D01*
X28813Y-38542D01*
X28813Y-38585D01*
X28800Y-38602D01*
X28787Y-38611D01*
X27813Y-38679D02*
X27680Y-38739D01*
X27813Y-38782D02*
X27533Y-38782D01*
X27533Y-38714D01*
X27547Y-38696D01*
X27560Y-38688D01*
X27587Y-38679D01*
X27627Y-38679D01*
X27653Y-38688D01*
X27667Y-38696D01*
X27680Y-38714D01*
X27680Y-38782D01*
X27627Y-38525D02*
X27813Y-38525D01*
X27520Y-38568D02*
X27720Y-38611D01*
X27720Y-38499D01*
X43863Y-47929D02*
X43730Y-47989D01*
X43863Y-48032D02*
X43583Y-48032D01*
X43583Y-47964D01*
X43597Y-47946D01*
X43610Y-47938D01*
X43637Y-47929D01*
X43677Y-47929D01*
X43703Y-47938D01*
X43717Y-47946D01*
X43730Y-47964D01*
X43730Y-48032D01*
X43583Y-47869D02*
X43583Y-47758D01*
X43690Y-47818D01*
X43690Y-47792D01*
X43703Y-47775D01*
X43717Y-47766D01*
X43743Y-47758D01*
X43810Y-47758D01*
X43837Y-47766D01*
X43850Y-47775D01*
X43863Y-47792D01*
X43863Y-47844D01*
X43850Y-47861D01*
X43837Y-47869D01*
X44813Y-47929D02*
X44680Y-47989D01*
X44813Y-48032D02*
X44533Y-48032D01*
X44533Y-47964D01*
X44547Y-47946D01*
X44560Y-47938D01*
X44587Y-47929D01*
X44627Y-47929D01*
X44653Y-47938D01*
X44667Y-47946D01*
X44680Y-47964D01*
X44680Y-48032D01*
X44560Y-47861D02*
X44547Y-47852D01*
X44533Y-47835D01*
X44533Y-47792D01*
X44547Y-47775D01*
X44560Y-47766D01*
X44587Y-47758D01*
X44613Y-47758D01*
X44653Y-47766D01*
X44813Y-47869D01*
X44813Y-47758D01*
X45921Y-44863D02*
X45861Y-44730D01*
X45818Y-44863D02*
X45818Y-44583D01*
X45886Y-44583D01*
X45904Y-44597D01*
X45912Y-44610D01*
X45921Y-44637D01*
X45921Y-44677D01*
X45912Y-44703D01*
X45904Y-44717D01*
X45886Y-44730D01*
X45818Y-44730D01*
X46092Y-44863D02*
X45989Y-44863D01*
X46041Y-44863D02*
X46041Y-44583D01*
X46024Y-44623D01*
X46006Y-44650D01*
X45989Y-44663D01*
X27135Y-43887D02*
X27126Y-43900D01*
X27100Y-43913D01*
X27083Y-43913D01*
X27058Y-43900D01*
X27040Y-43873D01*
X27032Y-43847D01*
X27023Y-43793D01*
X27023Y-43753D01*
X27032Y-43700D01*
X27040Y-43673D01*
X27058Y-43647D01*
X27083Y-43633D01*
X27100Y-43633D01*
X27126Y-43647D01*
X27135Y-43660D01*
X27203Y-43660D02*
X27212Y-43647D01*
X27229Y-43633D01*
X27272Y-43633D01*
X27289Y-43647D01*
X27298Y-43660D01*
X27306Y-43687D01*
X27306Y-43713D01*
X27298Y-43753D01*
X27195Y-43913D01*
X27306Y-43913D01*
X27366Y-43633D02*
X27477Y-43633D01*
X27417Y-43740D01*
X27443Y-43740D01*
X27460Y-43753D01*
X27469Y-43767D01*
X27477Y-43793D01*
X27477Y-43860D01*
X27469Y-43887D01*
X27460Y-43900D01*
X27443Y-43913D01*
X27391Y-43913D01*
X27374Y-43900D01*
X27366Y-43887D01*
X38535Y-54137D02*
X38526Y-54150D01*
X38500Y-54163D01*
X38483Y-54163D01*
X38458Y-54150D01*
X38440Y-54123D01*
X38432Y-54097D01*
X38423Y-54043D01*
X38423Y-54003D01*
X38432Y-53950D01*
X38440Y-53923D01*
X38458Y-53897D01*
X38483Y-53883D01*
X38500Y-53883D01*
X38526Y-53897D01*
X38535Y-53910D01*
X38603Y-53910D02*
X38612Y-53897D01*
X38629Y-53883D01*
X38672Y-53883D01*
X38689Y-53897D01*
X38698Y-53910D01*
X38706Y-53937D01*
X38706Y-53963D01*
X38698Y-54003D01*
X38595Y-54163D01*
X38706Y-54163D01*
X38774Y-53910D02*
X38783Y-53897D01*
X38800Y-53883D01*
X38843Y-53883D01*
X38860Y-53897D01*
X38869Y-53910D01*
X38877Y-53937D01*
X38877Y-53963D01*
X38869Y-54003D01*
X38766Y-54163D01*
X38877Y-54163D01*
X38535Y-54987D02*
X38526Y-55000D01*
X38500Y-55013D01*
X38483Y-55013D01*
X38458Y-55000D01*
X38440Y-54973D01*
X38432Y-54947D01*
X38423Y-54893D01*
X38423Y-54853D01*
X38432Y-54800D01*
X38440Y-54773D01*
X38458Y-54747D01*
X38483Y-54733D01*
X38500Y-54733D01*
X38526Y-54747D01*
X38535Y-54760D01*
X38603Y-54760D02*
X38612Y-54747D01*
X38629Y-54733D01*
X38672Y-54733D01*
X38689Y-54747D01*
X38698Y-54760D01*
X38706Y-54787D01*
X38706Y-54813D01*
X38698Y-54853D01*
X38595Y-55013D01*
X38706Y-55013D01*
X38877Y-55013D02*
X38774Y-55013D01*
X38826Y-55013D02*
X38826Y-54733D01*
X38809Y-54773D01*
X38791Y-54800D01*
X38774Y-54813D01*
X34637Y-42565D02*
X34650Y-42574D01*
X34663Y-42600D01*
X34663Y-42617D01*
X34650Y-42642D01*
X34623Y-42660D01*
X34597Y-42668D01*
X34543Y-42677D01*
X34503Y-42677D01*
X34450Y-42668D01*
X34423Y-42660D01*
X34397Y-42642D01*
X34383Y-42617D01*
X34383Y-42600D01*
X34397Y-42574D01*
X34410Y-42565D01*
X34410Y-42497D02*
X34397Y-42488D01*
X34383Y-42471D01*
X34383Y-42428D01*
X34397Y-42411D01*
X34410Y-42402D01*
X34437Y-42394D01*
X34463Y-42394D01*
X34503Y-42402D01*
X34663Y-42505D01*
X34663Y-42394D01*
X34383Y-42283D02*
X34383Y-42266D01*
X34397Y-42249D01*
X34410Y-42240D01*
X34437Y-42231D01*
X34490Y-42223D01*
X34557Y-42223D01*
X34610Y-42231D01*
X34637Y-42240D01*
X34650Y-42249D01*
X34663Y-42266D01*
X34663Y-42283D01*
X34650Y-42300D01*
X34637Y-42309D01*
X34610Y-42317D01*
X34557Y-42326D01*
X34490Y-42326D01*
X34437Y-42317D01*
X34410Y-42309D01*
X34397Y-42300D01*
X34383Y-42283D01*
X32937Y-51215D02*
X32950Y-51224D01*
X32963Y-51250D01*
X32963Y-51267D01*
X32950Y-51292D01*
X32923Y-51310D01*
X32897Y-51318D01*
X32843Y-51327D01*
X32803Y-51327D01*
X32750Y-51318D01*
X32723Y-51310D01*
X32697Y-51292D01*
X32683Y-51267D01*
X32683Y-51250D01*
X32697Y-51224D01*
X32710Y-51215D01*
X32963Y-51044D02*
X32963Y-51147D01*
X32963Y-51095D02*
X32683Y-51095D01*
X32723Y-51112D01*
X32750Y-51130D01*
X32763Y-51147D01*
X32963Y-50959D02*
X32963Y-50924D01*
X32950Y-50907D01*
X32937Y-50899D01*
X32897Y-50881D01*
X32843Y-50873D01*
X32737Y-50873D01*
X32710Y-50881D01*
X32697Y-50890D01*
X32683Y-50907D01*
X32683Y-50941D01*
X32697Y-50959D01*
X32710Y-50967D01*
X32737Y-50976D01*
X32803Y-50976D01*
X32830Y-50967D01*
X32843Y-50959D01*
X32857Y-50941D01*
X32857Y-50907D01*
X32843Y-50890D01*
X32830Y-50881D01*
X32803Y-50873D01*
X29237Y-42665D02*
X29250Y-42674D01*
X29263Y-42700D01*
X29263Y-42717D01*
X29250Y-42742D01*
X29223Y-42760D01*
X29197Y-42768D01*
X29143Y-42777D01*
X29103Y-42777D01*
X29050Y-42768D01*
X29023Y-42760D01*
X28997Y-42742D01*
X28983Y-42717D01*
X28983Y-42700D01*
X28997Y-42674D01*
X29010Y-42665D01*
X29263Y-42494D02*
X29263Y-42597D01*
X29263Y-42545D02*
X28983Y-42545D01*
X29023Y-42562D01*
X29050Y-42580D01*
X29063Y-42597D01*
X29103Y-42391D02*
X29090Y-42409D01*
X29077Y-42417D01*
X29050Y-42426D01*
X29037Y-42426D01*
X29010Y-42417D01*
X28997Y-42409D01*
X28983Y-42391D01*
X28983Y-42357D01*
X28997Y-42340D01*
X29010Y-42331D01*
X29037Y-42323D01*
X29050Y-42323D01*
X29077Y-42331D01*
X29090Y-42340D01*
X29103Y-42357D01*
X29103Y-42391D01*
X29117Y-42409D01*
X29130Y-42417D01*
X29157Y-42426D01*
X29210Y-42426D01*
X29237Y-42417D01*
X29250Y-42409D01*
X29263Y-42391D01*
X29263Y-42357D01*
X29250Y-42340D01*
X29237Y-42331D01*
X29210Y-42323D01*
X29157Y-42323D01*
X29130Y-42331D01*
X29117Y-42340D01*
X29103Y-42357D01*
X31887Y-42615D02*
X31900Y-42624D01*
X31913Y-42650D01*
X31913Y-42667D01*
X31900Y-42692D01*
X31873Y-42710D01*
X31847Y-42718D01*
X31793Y-42727D01*
X31753Y-42727D01*
X31700Y-42718D01*
X31673Y-42710D01*
X31647Y-42692D01*
X31633Y-42667D01*
X31633Y-42650D01*
X31647Y-42624D01*
X31660Y-42615D01*
X31913Y-42444D02*
X31913Y-42547D01*
X31913Y-42495D02*
X31633Y-42495D01*
X31673Y-42512D01*
X31700Y-42530D01*
X31713Y-42547D01*
X31633Y-42384D02*
X31633Y-42264D01*
X31913Y-42341D01*
X28285Y-48587D02*
X28276Y-48600D01*
X28250Y-48613D01*
X28233Y-48613D01*
X28208Y-48600D01*
X28190Y-48573D01*
X28182Y-48547D01*
X28173Y-48493D01*
X28173Y-48453D01*
X28182Y-48400D01*
X28190Y-48373D01*
X28208Y-48347D01*
X28233Y-48333D01*
X28250Y-48333D01*
X28276Y-48347D01*
X28285Y-48360D01*
X28456Y-48613D02*
X28353Y-48613D01*
X28405Y-48613D02*
X28405Y-48333D01*
X28388Y-48373D01*
X28370Y-48400D01*
X28353Y-48413D01*
X28610Y-48333D02*
X28576Y-48333D01*
X28559Y-48347D01*
X28550Y-48360D01*
X28533Y-48400D01*
X28524Y-48453D01*
X28524Y-48560D01*
X28533Y-48587D01*
X28541Y-48600D01*
X28559Y-48613D01*
X28593Y-48613D01*
X28610Y-48600D01*
X28619Y-48587D01*
X28627Y-48560D01*
X28627Y-48493D01*
X28619Y-48467D01*
X28610Y-48453D01*
X28593Y-48440D01*
X28559Y-48440D01*
X28541Y-48453D01*
X28533Y-48467D01*
X28524Y-48493D01*
X30687Y-42615D02*
X30700Y-42624D01*
X30713Y-42650D01*
X30713Y-42667D01*
X30700Y-42692D01*
X30673Y-42710D01*
X30647Y-42718D01*
X30593Y-42727D01*
X30553Y-42727D01*
X30500Y-42718D01*
X30473Y-42710D01*
X30447Y-42692D01*
X30433Y-42667D01*
X30433Y-42650D01*
X30447Y-42624D01*
X30460Y-42615D01*
X30713Y-42444D02*
X30713Y-42547D01*
X30713Y-42495D02*
X30433Y-42495D01*
X30473Y-42512D01*
X30500Y-42530D01*
X30513Y-42547D01*
X30433Y-42281D02*
X30433Y-42367D01*
X30567Y-42376D01*
X30553Y-42367D01*
X30540Y-42350D01*
X30540Y-42307D01*
X30553Y-42290D01*
X30567Y-42281D01*
X30593Y-42273D01*
X30660Y-42273D01*
X30687Y-42281D01*
X30700Y-42290D01*
X30713Y-42307D01*
X30713Y-42350D01*
X30700Y-42367D01*
X30687Y-42376D01*
X40635Y-54987D02*
X40626Y-55000D01*
X40600Y-55013D01*
X40583Y-55013D01*
X40558Y-55000D01*
X40540Y-54973D01*
X40532Y-54947D01*
X40523Y-54893D01*
X40523Y-54853D01*
X40532Y-54800D01*
X40540Y-54773D01*
X40558Y-54747D01*
X40583Y-54733D01*
X40600Y-54733D01*
X40626Y-54747D01*
X40635Y-54760D01*
X40806Y-55013D02*
X40703Y-55013D01*
X40755Y-55013D02*
X40755Y-54733D01*
X40738Y-54773D01*
X40720Y-54800D01*
X40703Y-54813D01*
X40960Y-54827D02*
X40960Y-55013D01*
X40917Y-54720D02*
X40874Y-54920D01*
X40986Y-54920D01*
X38587Y-42265D02*
X38600Y-42274D01*
X38613Y-42300D01*
X38613Y-42317D01*
X38600Y-42342D01*
X38573Y-42360D01*
X38547Y-42368D01*
X38493Y-42377D01*
X38453Y-42377D01*
X38400Y-42368D01*
X38373Y-42360D01*
X38347Y-42342D01*
X38333Y-42317D01*
X38333Y-42300D01*
X38347Y-42274D01*
X38360Y-42265D01*
X38613Y-42094D02*
X38613Y-42197D01*
X38613Y-42145D02*
X38333Y-42145D01*
X38373Y-42162D01*
X38400Y-42180D01*
X38413Y-42197D01*
X38333Y-42034D02*
X38333Y-41923D01*
X38440Y-41983D01*
X38440Y-41957D01*
X38453Y-41940D01*
X38467Y-41931D01*
X38493Y-41923D01*
X38560Y-41923D01*
X38587Y-41931D01*
X38600Y-41940D01*
X38613Y-41957D01*
X38613Y-42009D01*
X38600Y-42026D01*
X38587Y-42034D01*
X28285Y-47237D02*
X28276Y-47250D01*
X28250Y-47263D01*
X28233Y-47263D01*
X28208Y-47250D01*
X28190Y-47223D01*
X28182Y-47197D01*
X28173Y-47143D01*
X28173Y-47103D01*
X28182Y-47050D01*
X28190Y-47023D01*
X28208Y-46997D01*
X28233Y-46983D01*
X28250Y-46983D01*
X28276Y-46997D01*
X28285Y-47010D01*
X28456Y-47263D02*
X28353Y-47263D01*
X28405Y-47263D02*
X28405Y-46983D01*
X28388Y-47023D01*
X28370Y-47050D01*
X28353Y-47063D01*
X28524Y-47010D02*
X28533Y-46997D01*
X28550Y-46983D01*
X28593Y-46983D01*
X28610Y-46997D01*
X28619Y-47010D01*
X28627Y-47037D01*
X28627Y-47063D01*
X28619Y-47103D01*
X28516Y-47263D01*
X28627Y-47263D01*
X37637Y-42265D02*
X37650Y-42274D01*
X37663Y-42300D01*
X37663Y-42317D01*
X37650Y-42342D01*
X37623Y-42360D01*
X37597Y-42368D01*
X37543Y-42377D01*
X37503Y-42377D01*
X37450Y-42368D01*
X37423Y-42360D01*
X37397Y-42342D01*
X37383Y-42317D01*
X37383Y-42300D01*
X37397Y-42274D01*
X37410Y-42265D01*
X37663Y-42094D02*
X37663Y-42197D01*
X37663Y-42145D02*
X37383Y-42145D01*
X37423Y-42162D01*
X37450Y-42180D01*
X37463Y-42197D01*
X37663Y-41923D02*
X37663Y-42026D01*
X37663Y-41974D02*
X37383Y-41974D01*
X37423Y-41991D01*
X37450Y-42009D01*
X37463Y-42026D01*
X25235Y-45587D02*
X25226Y-45600D01*
X25200Y-45613D01*
X25183Y-45613D01*
X25158Y-45600D01*
X25140Y-45573D01*
X25132Y-45547D01*
X25123Y-45493D01*
X25123Y-45453D01*
X25132Y-45400D01*
X25140Y-45373D01*
X25158Y-45347D01*
X25183Y-45333D01*
X25200Y-45333D01*
X25226Y-45347D01*
X25235Y-45360D01*
X25406Y-45613D02*
X25303Y-45613D01*
X25355Y-45613D02*
X25355Y-45333D01*
X25338Y-45373D01*
X25320Y-45400D01*
X25303Y-45413D01*
X25517Y-45333D02*
X25534Y-45333D01*
X25551Y-45347D01*
X25560Y-45360D01*
X25569Y-45387D01*
X25577Y-45440D01*
X25577Y-45507D01*
X25569Y-45560D01*
X25560Y-45587D01*
X25551Y-45600D01*
X25534Y-45613D01*
X25517Y-45613D01*
X25500Y-45600D01*
X25491Y-45587D01*
X25483Y-45560D01*
X25474Y-45507D01*
X25474Y-45440D01*
X25483Y-45387D01*
X25491Y-45360D01*
X25500Y-45347D01*
X25517Y-45333D01*
X33437Y-42529D02*
X33450Y-42538D01*
X33463Y-42564D01*
X33463Y-42581D01*
X33450Y-42606D01*
X33423Y-42624D01*
X33397Y-42632D01*
X33343Y-42641D01*
X33303Y-42641D01*
X33250Y-42632D01*
X33223Y-42624D01*
X33197Y-42606D01*
X33183Y-42581D01*
X33183Y-42564D01*
X33197Y-42538D01*
X33210Y-42529D01*
X33463Y-42444D02*
X33463Y-42409D01*
X33450Y-42392D01*
X33437Y-42384D01*
X33397Y-42366D01*
X33343Y-42358D01*
X33237Y-42358D01*
X33210Y-42366D01*
X33197Y-42375D01*
X33183Y-42392D01*
X33183Y-42426D01*
X33197Y-42444D01*
X33210Y-42452D01*
X33237Y-42461D01*
X33303Y-42461D01*
X33330Y-42452D01*
X33343Y-42444D01*
X33357Y-42426D01*
X33357Y-42392D01*
X33343Y-42375D01*
X33330Y-42366D01*
X33303Y-42358D01*
X37771Y-45987D02*
X37762Y-46000D01*
X37736Y-46013D01*
X37719Y-46013D01*
X37694Y-46000D01*
X37676Y-45973D01*
X37668Y-45947D01*
X37659Y-45893D01*
X37659Y-45853D01*
X37668Y-45800D01*
X37676Y-45773D01*
X37694Y-45747D01*
X37719Y-45733D01*
X37736Y-45733D01*
X37762Y-45747D01*
X37771Y-45760D01*
X37831Y-45733D02*
X37951Y-45733D01*
X37874Y-46013D01*
X26687Y-45129D02*
X26700Y-45138D01*
X26713Y-45164D01*
X26713Y-45181D01*
X26700Y-45206D01*
X26673Y-45224D01*
X26647Y-45232D01*
X26593Y-45241D01*
X26553Y-45241D01*
X26500Y-45232D01*
X26473Y-45224D01*
X26447Y-45206D01*
X26433Y-45181D01*
X26433Y-45164D01*
X26447Y-45138D01*
X26460Y-45129D01*
X26433Y-44975D02*
X26433Y-45009D01*
X26447Y-45026D01*
X26460Y-45035D01*
X26500Y-45052D01*
X26553Y-45061D01*
X26660Y-45061D01*
X26687Y-45052D01*
X26700Y-45044D01*
X26713Y-45026D01*
X26713Y-44992D01*
X26700Y-44975D01*
X26687Y-44966D01*
X26660Y-44958D01*
X26593Y-44958D01*
X26567Y-44966D01*
X26553Y-44975D01*
X26540Y-44992D01*
X26540Y-45026D01*
X26553Y-45044D01*
X26567Y-45052D01*
X26593Y-45061D01*
X42737Y-47879D02*
X42750Y-47888D01*
X42763Y-47914D01*
X42763Y-47931D01*
X42750Y-47956D01*
X42723Y-47974D01*
X42697Y-47982D01*
X42643Y-47991D01*
X42603Y-47991D01*
X42550Y-47982D01*
X42523Y-47974D01*
X42497Y-47956D01*
X42483Y-47931D01*
X42483Y-47914D01*
X42497Y-47888D01*
X42510Y-47879D01*
X42483Y-47716D02*
X42483Y-47802D01*
X42617Y-47811D01*
X42603Y-47802D01*
X42590Y-47785D01*
X42590Y-47742D01*
X42603Y-47725D01*
X42617Y-47716D01*
X42643Y-47708D01*
X42710Y-47708D01*
X42737Y-47716D01*
X42750Y-47725D01*
X42763Y-47742D01*
X42763Y-47785D01*
X42750Y-47802D01*
X42737Y-47811D01*
X31737Y-51129D02*
X31750Y-51138D01*
X31763Y-51164D01*
X31763Y-51181D01*
X31750Y-51206D01*
X31723Y-51224D01*
X31697Y-51232D01*
X31643Y-51241D01*
X31603Y-51241D01*
X31550Y-51232D01*
X31523Y-51224D01*
X31497Y-51206D01*
X31483Y-51181D01*
X31483Y-51164D01*
X31497Y-51138D01*
X31510Y-51129D01*
X31577Y-50975D02*
X31763Y-50975D01*
X31470Y-51018D02*
X31670Y-51061D01*
X31670Y-50949D01*
X32734Y-42533D02*
X32747Y-42542D01*
X32760Y-42568D01*
X32760Y-42585D01*
X32747Y-42610D01*
X32720Y-42628D01*
X32694Y-42636D01*
X32640Y-42645D01*
X32600Y-42645D01*
X32547Y-42636D01*
X32520Y-42628D01*
X32494Y-42610D01*
X32480Y-42585D01*
X32480Y-42568D01*
X32494Y-42542D01*
X32507Y-42533D01*
X32480Y-42473D02*
X32480Y-42362D01*
X32587Y-42422D01*
X32587Y-42396D01*
X32600Y-42379D01*
X32614Y-42370D01*
X32640Y-42362D01*
X32707Y-42362D01*
X32734Y-42370D01*
X32747Y-42379D01*
X32760Y-42396D01*
X32760Y-42448D01*
X32747Y-42465D01*
X32734Y-42473D01*
X28361Y-46510D02*
X28352Y-46523D01*
X28326Y-46536D01*
X28309Y-46536D01*
X28284Y-46523D01*
X28266Y-46496D01*
X28258Y-46470D01*
X28249Y-46416D01*
X28249Y-46376D01*
X28258Y-46323D01*
X28266Y-46296D01*
X28284Y-46270D01*
X28309Y-46256D01*
X28326Y-46256D01*
X28352Y-46270D01*
X28361Y-46283D01*
X28532Y-46536D02*
X28429Y-46536D01*
X28481Y-46536D02*
X28481Y-46256D01*
X28464Y-46296D01*
X28446Y-46323D01*
X28429Y-46336D01*
G54D15*
X25292Y-43770D02*
X25209Y-43770D01*
X25209Y-43901D02*
X25209Y-43651D01*
X25328Y-43651D01*
X25506Y-43770D02*
X25542Y-43782D01*
X25553Y-43794D01*
X25565Y-43818D01*
X25565Y-43854D01*
X25553Y-43877D01*
X25542Y-43889D01*
X25518Y-43901D01*
X25423Y-43901D01*
X25423Y-43651D01*
X25506Y-43651D01*
X25530Y-43663D01*
X25542Y-43675D01*
X25553Y-43699D01*
X25553Y-43723D01*
X25542Y-43746D01*
X25530Y-43758D01*
X25506Y-43770D01*
X25423Y-43770D01*
X25661Y-43675D02*
X25673Y-43663D01*
X25696Y-43651D01*
X25756Y-43651D01*
X25780Y-43663D01*
X25792Y-43675D01*
X25803Y-43699D01*
X25803Y-43723D01*
X25792Y-43758D01*
X25649Y-43901D01*
X25803Y-43901D01*
X43870Y-52908D02*
X43870Y-52991D01*
X44001Y-52991D02*
X43751Y-52991D01*
X43751Y-52872D01*
X43870Y-52694D02*
X43882Y-52658D01*
X43894Y-52647D01*
X43918Y-52635D01*
X43954Y-52635D01*
X43977Y-52647D01*
X43989Y-52658D01*
X44001Y-52682D01*
X44001Y-52777D01*
X43751Y-52777D01*
X43751Y-52694D01*
X43763Y-52670D01*
X43775Y-52658D01*
X43799Y-52647D01*
X43823Y-52647D01*
X43846Y-52658D01*
X43858Y-52670D01*
X43870Y-52694D01*
X43870Y-52777D01*
X44001Y-52397D02*
X44001Y-52539D01*
X44001Y-52468D02*
X43751Y-52468D01*
X43787Y-52492D01*
X43811Y-52516D01*
X43823Y-52539D01*
G54D17*
X42858Y-55193D02*
X42858Y-54593D01*
X43001Y-54593D01*
X43086Y-54621D01*
X43144Y-54679D01*
X43172Y-54736D01*
X43201Y-54850D01*
X43201Y-54936D01*
X43172Y-55050D01*
X43144Y-55107D01*
X43086Y-55164D01*
X43001Y-55193D01*
X42858Y-55193D01*
X43401Y-54593D02*
X43772Y-54593D01*
X43572Y-54821D01*
X43658Y-54821D01*
X43715Y-54850D01*
X43744Y-54879D01*
X43772Y-54936D01*
X43772Y-55079D01*
X43744Y-55136D01*
X43715Y-55164D01*
X43658Y-55193D01*
X43486Y-55193D01*
X43429Y-55164D01*
X43401Y-55136D01*
X42908Y-54243D02*
X42908Y-53643D01*
X43051Y-53643D01*
X43136Y-53671D01*
X43194Y-53729D01*
X43222Y-53786D01*
X43251Y-53900D01*
X43251Y-53986D01*
X43222Y-54100D01*
X43194Y-54157D01*
X43136Y-54214D01*
X43051Y-54243D01*
X42908Y-54243D01*
X43479Y-53700D02*
X43508Y-53671D01*
X43565Y-53643D01*
X43708Y-53643D01*
X43765Y-53671D01*
X43794Y-53700D01*
X43822Y-53757D01*
X43822Y-53814D01*
X43794Y-53900D01*
X43451Y-54243D01*
X43822Y-54243D01*
X45108Y-44043D02*
X45108Y-43443D01*
X45251Y-43443D01*
X45336Y-43471D01*
X45394Y-43529D01*
X45422Y-43586D01*
X45451Y-43700D01*
X45451Y-43786D01*
X45422Y-43900D01*
X45394Y-43957D01*
X45336Y-44014D01*
X45251Y-44043D01*
X45108Y-44043D01*
X46022Y-44043D02*
X45679Y-44043D01*
X45851Y-44043D02*
X45851Y-43443D01*
X45794Y-43529D01*
X45736Y-43586D01*
X45679Y-43614D01*
X34625Y-52343D02*
X34625Y-52829D01*
X34653Y-52886D01*
X34682Y-52914D01*
X34739Y-52943D01*
X34853Y-52943D01*
X34911Y-52914D01*
X34939Y-52886D01*
X34968Y-52829D01*
X34968Y-52343D01*
X35568Y-52943D02*
X35225Y-52943D01*
X35397Y-52943D02*
X35397Y-52343D01*
X35340Y-52429D01*
X35282Y-52486D01*
X35225Y-52514D01*
X33261Y-53329D02*
X33061Y-53329D01*
X33061Y-53643D02*
X33061Y-53043D01*
X33347Y-53043D01*
X33861Y-53643D02*
X33575Y-53643D01*
X33575Y-53043D01*
X34032Y-53471D02*
X34318Y-53471D01*
X33975Y-53643D02*
X34175Y-53043D01*
X34375Y-53643D01*
X34546Y-53614D02*
X34632Y-53643D01*
X34775Y-53643D01*
X34832Y-53614D01*
X34861Y-53586D01*
X34889Y-53529D01*
X34889Y-53471D01*
X34861Y-53414D01*
X34832Y-53386D01*
X34775Y-53357D01*
X34661Y-53329D01*
X34603Y-53300D01*
X34575Y-53271D01*
X34546Y-53214D01*
X34546Y-53157D01*
X34575Y-53100D01*
X34603Y-53071D01*
X34661Y-53043D01*
X34803Y-53043D01*
X34889Y-53071D01*
X35146Y-53643D02*
X35146Y-53043D01*
X35146Y-53329D02*
X35489Y-53329D01*
X35489Y-53643D02*
X35489Y-53043D01*
X35632Y-53700D02*
X36089Y-53700D01*
X36203Y-53614D02*
X36289Y-53643D01*
X36432Y-53643D01*
X36489Y-53614D01*
X36518Y-53586D01*
X36546Y-53529D01*
X36546Y-53471D01*
X36518Y-53414D01*
X36489Y-53386D01*
X36432Y-53357D01*
X36318Y-53329D01*
X36260Y-53300D01*
X36232Y-53271D01*
X36203Y-53214D01*
X36203Y-53157D01*
X36232Y-53100D01*
X36260Y-53071D01*
X36318Y-53043D01*
X36460Y-53043D01*
X36546Y-53071D01*
X36803Y-53643D02*
X36803Y-53043D01*
X37031Y-53043D01*
X37089Y-53071D01*
X37117Y-53100D01*
X37146Y-53157D01*
X37146Y-53243D01*
X37117Y-53300D01*
X37089Y-53329D01*
X37031Y-53357D01*
X36803Y-53357D01*
X37403Y-53643D02*
X37403Y-53043D01*
X39415Y-51193D02*
X39415Y-50593D01*
X40044Y-51136D02*
X40015Y-51164D01*
X39929Y-51193D01*
X39872Y-51193D01*
X39787Y-51164D01*
X39729Y-51107D01*
X39701Y-51050D01*
X39672Y-50936D01*
X39672Y-50850D01*
X39701Y-50736D01*
X39729Y-50679D01*
X39787Y-50621D01*
X39872Y-50593D01*
X39929Y-50593D01*
X40015Y-50621D01*
X40044Y-50650D01*
X40272Y-50650D02*
X40301Y-50621D01*
X40358Y-50593D01*
X40501Y-50593D01*
X40558Y-50621D01*
X40587Y-50650D01*
X40615Y-50707D01*
X40615Y-50764D01*
X40587Y-50850D01*
X40244Y-51193D01*
X40615Y-51193D01*
X37816Y-51343D02*
X38159Y-51343D01*
X37988Y-51943D02*
X37988Y-51343D01*
X38359Y-51943D02*
X38359Y-51343D01*
X38587Y-51343D01*
X38645Y-51371D01*
X38673Y-51400D01*
X38702Y-51457D01*
X38702Y-51543D01*
X38673Y-51600D01*
X38645Y-51629D01*
X38587Y-51657D01*
X38359Y-51657D01*
X38930Y-51914D02*
X39016Y-51943D01*
X39159Y-51943D01*
X39216Y-51914D01*
X39245Y-51886D01*
X39273Y-51829D01*
X39273Y-51771D01*
X39245Y-51714D01*
X39216Y-51686D01*
X39159Y-51657D01*
X39045Y-51629D01*
X38987Y-51600D01*
X38959Y-51571D01*
X38930Y-51514D01*
X38930Y-51457D01*
X38959Y-51400D01*
X38987Y-51371D01*
X39045Y-51343D01*
X39187Y-51343D01*
X39273Y-51371D01*
X39473Y-51343D02*
X39873Y-51343D01*
X39616Y-51943D01*
X40044Y-51343D02*
X40415Y-51343D01*
X40215Y-51571D01*
X40301Y-51571D01*
X40358Y-51600D01*
X40387Y-51629D01*
X40415Y-51686D01*
X40415Y-51829D01*
X40387Y-51886D01*
X40358Y-51914D01*
X40301Y-51943D01*
X40129Y-51943D01*
X40072Y-51914D01*
X40044Y-51886D01*
X40929Y-51343D02*
X40815Y-51343D01*
X40758Y-51371D01*
X40729Y-51400D01*
X40672Y-51486D01*
X40643Y-51600D01*
X40643Y-51829D01*
X40672Y-51886D01*
X40700Y-51914D01*
X40758Y-51943D01*
X40872Y-51943D01*
X40929Y-51914D01*
X40958Y-51886D01*
X40986Y-51829D01*
X40986Y-51686D01*
X40958Y-51629D01*
X40929Y-51600D01*
X40872Y-51571D01*
X40758Y-51571D01*
X40700Y-51600D01*
X40672Y-51629D01*
X40643Y-51686D01*
X41186Y-51343D02*
X41557Y-51343D01*
X41357Y-51571D01*
X41443Y-51571D01*
X41500Y-51600D01*
X41529Y-51629D01*
X41557Y-51686D01*
X41557Y-51829D01*
X41529Y-51886D01*
X41500Y-51914D01*
X41443Y-51943D01*
X41271Y-51943D01*
X41214Y-51914D01*
X41186Y-51886D01*
X41757Y-51343D02*
X42128Y-51343D01*
X41928Y-51571D01*
X42014Y-51571D01*
X42071Y-51600D01*
X42100Y-51629D01*
X42128Y-51686D01*
X42128Y-51829D01*
X42100Y-51886D01*
X42071Y-51914D01*
X42014Y-51943D01*
X41842Y-51943D01*
X41785Y-51914D01*
X41757Y-51886D01*
G54D21*
X42221Y-45150D02*
X42193Y-45136D01*
X42164Y-45107D01*
X42121Y-45064D01*
X42093Y-45050D01*
X42064Y-45050D01*
X42079Y-45121D02*
X42050Y-45107D01*
X42021Y-45079D01*
X42007Y-45021D01*
X42007Y-44921D01*
X42021Y-44864D01*
X42050Y-44836D01*
X42079Y-44821D01*
X42136Y-44821D01*
X42164Y-44836D01*
X42193Y-44864D01*
X42207Y-44921D01*
X42207Y-45021D01*
X42193Y-45079D01*
X42164Y-45107D01*
X42136Y-45121D01*
X42079Y-45121D01*
X42321Y-44850D02*
X42335Y-44836D01*
X42364Y-44821D01*
X42435Y-44821D01*
X42464Y-44836D01*
X42478Y-44850D01*
X42493Y-44879D01*
X42493Y-44907D01*
X42478Y-44950D01*
X42307Y-45121D01*
X42493Y-45121D01*
G54D15*
X21407Y-42721D02*
X21407Y-42421D01*
X21722Y-42693D02*
X21708Y-42707D01*
X21665Y-42721D01*
X21636Y-42721D01*
X21593Y-42707D01*
X21565Y-42679D01*
X21550Y-42650D01*
X21536Y-42593D01*
X21536Y-42550D01*
X21550Y-42493D01*
X21565Y-42464D01*
X21593Y-42436D01*
X21636Y-42421D01*
X21665Y-42421D01*
X21708Y-42436D01*
X21722Y-42450D01*
X21979Y-42521D02*
X21979Y-42721D01*
X21908Y-42407D02*
X21836Y-42621D01*
X22022Y-42621D01*
X21099Y-42250D02*
X21071Y-42236D01*
X21042Y-42207D01*
X20999Y-42164D01*
X20971Y-42150D01*
X20942Y-42150D01*
X20957Y-42221D02*
X20928Y-42207D01*
X20899Y-42179D01*
X20885Y-42121D01*
X20885Y-42021D01*
X20899Y-41964D01*
X20928Y-41936D01*
X20957Y-41921D01*
X21014Y-41921D01*
X21042Y-41936D01*
X21071Y-41964D01*
X21085Y-42021D01*
X21085Y-42121D01*
X21071Y-42179D01*
X21042Y-42207D01*
X21014Y-42221D01*
X20957Y-42221D01*
X21199Y-42207D02*
X21242Y-42221D01*
X21313Y-42221D01*
X21342Y-42207D01*
X21356Y-42193D01*
X21371Y-42164D01*
X21371Y-42136D01*
X21356Y-42107D01*
X21342Y-42093D01*
X21313Y-42079D01*
X21256Y-42064D01*
X21228Y-42050D01*
X21213Y-42036D01*
X21199Y-42007D01*
X21199Y-41979D01*
X21213Y-41950D01*
X21228Y-41936D01*
X21256Y-41921D01*
X21328Y-41921D01*
X21371Y-41936D01*
X21471Y-41921D02*
X21657Y-41921D01*
X21557Y-42036D01*
X21599Y-42036D01*
X21628Y-42050D01*
X21642Y-42064D01*
X21657Y-42093D01*
X21657Y-42164D01*
X21642Y-42193D01*
X21628Y-42207D01*
X21599Y-42221D01*
X21514Y-42221D01*
X21485Y-42207D01*
X21471Y-42193D01*
X21771Y-41950D02*
X21785Y-41936D01*
X21814Y-41921D01*
X21885Y-41921D01*
X21914Y-41936D01*
X21928Y-41950D01*
X21943Y-41979D01*
X21943Y-42007D01*
X21928Y-42050D01*
X21757Y-42221D01*
X21943Y-42221D01*
X22200Y-42021D02*
X22200Y-42221D01*
X22129Y-41907D02*
X22057Y-42121D01*
X22243Y-42121D01*
X22486Y-42021D02*
X22486Y-42221D01*
X22415Y-41907D02*
X22343Y-42121D01*
X22529Y-42121D01*
X33725Y-47272D02*
X33292Y-47272D01*
X33684Y-46818D02*
X33704Y-46839D01*
X33725Y-46901D01*
X33725Y-46942D01*
X33704Y-47004D01*
X33663Y-47045D01*
X33622Y-47066D01*
X33539Y-47087D01*
X33477Y-47087D01*
X33395Y-47066D01*
X33354Y-47045D01*
X33312Y-47004D01*
X33292Y-46942D01*
X33292Y-46901D01*
X33312Y-46839D01*
X33333Y-46818D01*
X33292Y-46674D02*
X33292Y-46406D01*
X33457Y-46550D01*
X33457Y-46489D01*
X33477Y-46447D01*
X33498Y-46427D01*
X33539Y-46406D01*
X33642Y-46406D01*
X33684Y-46427D01*
X33704Y-46447D01*
X33725Y-46489D01*
X33725Y-46612D01*
X33704Y-46654D01*
X33684Y-46674D01*
G54D10*
X30912Y-46297D02*
X31100Y-46297D01*
X30875Y-46409D02*
X31006Y-46015D01*
X31137Y-46409D01*
X31213Y-46015D02*
X31438Y-46015D01*
X31325Y-46409D02*
X31325Y-46015D01*
X31588Y-46409D02*
X31663Y-46409D01*
X31700Y-46391D01*
X31719Y-46372D01*
X31756Y-46316D01*
X31775Y-46241D01*
X31775Y-46091D01*
X31756Y-46053D01*
X31738Y-46034D01*
X31700Y-46015D01*
X31625Y-46015D01*
X31588Y-46034D01*
X31569Y-46053D01*
X31550Y-46091D01*
X31550Y-46184D01*
X31569Y-46222D01*
X31588Y-46241D01*
X31625Y-46259D01*
X31700Y-46259D01*
X31738Y-46241D01*
X31756Y-46222D01*
X31775Y-46184D01*
X32150Y-46409D02*
X31925Y-46409D01*
X32038Y-46409D02*
X32038Y-46015D01*
X32000Y-46072D01*
X31963Y-46109D01*
X31925Y-46128D01*
X32300Y-46391D02*
X32356Y-46409D01*
X32450Y-46409D01*
X32488Y-46391D01*
X32506Y-46372D01*
X32525Y-46334D01*
X32525Y-46297D01*
X32506Y-46259D01*
X32488Y-46241D01*
X32450Y-46222D01*
X32375Y-46203D01*
X32338Y-46184D01*
X32319Y-46166D01*
X32300Y-46128D01*
X32300Y-46091D01*
X32319Y-46053D01*
X32338Y-46034D01*
X32375Y-46015D01*
X32469Y-46015D01*
X32525Y-46034D01*
X32675Y-46297D02*
X32863Y-46297D01*
X32638Y-46409D02*
X32769Y-46015D01*
X32900Y-46409D01*
X33032Y-46409D02*
X33032Y-46015D01*
X33163Y-46297D01*
X33294Y-46015D01*
X33294Y-46409D01*
X33444Y-46015D02*
X33707Y-46015D01*
X33538Y-46409D01*
X33838Y-46391D02*
X33894Y-46409D01*
X33988Y-46409D01*
X34026Y-46391D01*
X34044Y-46372D01*
X34063Y-46334D01*
X34063Y-46297D01*
X34044Y-46259D01*
X34026Y-46241D01*
X33988Y-46222D01*
X33913Y-46203D01*
X33876Y-46184D01*
X33857Y-46166D01*
X33838Y-46128D01*
X33838Y-46091D01*
X33857Y-46053D01*
X33876Y-46034D01*
X33913Y-46015D01*
X34007Y-46015D01*
X34063Y-46034D01*
X34194Y-46015D02*
X34457Y-46409D01*
X34457Y-46015D02*
X34194Y-46409D01*
X34569Y-46015D02*
X34832Y-46409D01*
X34832Y-46015D02*
X34569Y-46409D01*
X34944Y-46015D02*
X35207Y-46409D01*
X35207Y-46015D02*
X34944Y-46409D01*
G54D17*
X47193Y-50300D02*
X47621Y-50300D01*
X47707Y-50328D01*
X47764Y-50385D01*
X47793Y-50471D01*
X47793Y-50528D01*
X47793Y-49700D02*
X47793Y-50043D01*
X47793Y-49871D02*
X47193Y-49871D01*
X47279Y-49928D01*
X47336Y-49986D01*
X47364Y-50043D01*
X46343Y-52600D02*
X46829Y-52600D01*
X46886Y-52572D01*
X46914Y-52543D01*
X46943Y-52486D01*
X46943Y-52372D01*
X46914Y-52314D01*
X46886Y-52286D01*
X46829Y-52257D01*
X46343Y-52257D01*
X46914Y-52000D02*
X46943Y-51914D01*
X46943Y-51771D01*
X46914Y-51714D01*
X46886Y-51685D01*
X46829Y-51657D01*
X46771Y-51657D01*
X46714Y-51685D01*
X46686Y-51714D01*
X46657Y-51771D01*
X46629Y-51885D01*
X46600Y-51943D01*
X46571Y-51971D01*
X46514Y-52000D01*
X46457Y-52000D01*
X46400Y-51971D01*
X46371Y-51943D01*
X46343Y-51885D01*
X46343Y-51743D01*
X46371Y-51657D01*
X46629Y-51200D02*
X46657Y-51114D01*
X46686Y-51086D01*
X46743Y-51057D01*
X46829Y-51057D01*
X46886Y-51086D01*
X46914Y-51114D01*
X46943Y-51172D01*
X46943Y-51400D01*
X46343Y-51400D01*
X46343Y-51200D01*
X46371Y-51143D01*
X46400Y-51114D01*
X46457Y-51086D01*
X46514Y-51086D01*
X46571Y-51114D01*
X46600Y-51143D01*
X46629Y-51200D01*
X46629Y-51400D01*
X46714Y-50800D02*
X46714Y-50343D01*
X46629Y-49857D02*
X46657Y-49771D01*
X46686Y-49743D01*
X46743Y-49714D01*
X46829Y-49714D01*
X46886Y-49743D01*
X46914Y-49771D01*
X46943Y-49829D01*
X46943Y-50057D01*
X46343Y-50057D01*
X46343Y-49857D01*
X46371Y-49800D01*
X46400Y-49771D01*
X46457Y-49743D01*
X46514Y-49743D01*
X46571Y-49771D01*
X46600Y-49800D01*
X46629Y-49857D01*
X46629Y-50057D01*
X47000Y-49600D02*
X47000Y-49143D01*
X46943Y-49000D02*
X46343Y-49000D01*
X46771Y-48800D01*
X46343Y-48600D01*
X46943Y-48600D01*
X46943Y-48314D02*
X46343Y-48314D01*
X46943Y-48028D02*
X46343Y-48028D01*
X46943Y-47685D01*
X46343Y-47685D01*
X46943Y-47399D02*
X46343Y-47399D01*
G54D21*
X45250Y-46129D02*
X45236Y-46157D01*
X45207Y-46186D01*
X45164Y-46229D01*
X45150Y-46257D01*
X45150Y-46286D01*
X45221Y-46271D02*
X45207Y-46300D01*
X45179Y-46329D01*
X45121Y-46343D01*
X45021Y-46343D01*
X44964Y-46329D01*
X44936Y-46300D01*
X44921Y-46271D01*
X44921Y-46214D01*
X44936Y-46186D01*
X44964Y-46157D01*
X45021Y-46143D01*
X45121Y-46143D01*
X45179Y-46157D01*
X45207Y-46186D01*
X45221Y-46214D01*
X45221Y-46271D01*
X45221Y-45857D02*
X45221Y-46029D01*
X45221Y-45943D02*
X44921Y-45943D01*
X44964Y-45972D01*
X44993Y-46000D01*
X45007Y-46029D01*
M02*
