G04 (created by PCBNEW-RS274X (2011-06-08)-testing) date Fr 01 Jul 2011 23:29:28 CEST*
G01*
G70*
G90*
%MOIN*%
G04 Gerber Fmt 3.4, Leading zero omitted, Abs format*
%FSLAX34Y34*%
G04 APERTURE LIST*
%ADD10C,0.006000*%
%ADD11C,0.008000*%
%ADD12C,0.010000*%
%ADD13C,0.012000*%
G04 APERTURE END LIST*
G54D10*
G54D11*
X14450Y-56300D02*
X14450Y-34950D01*
X48250Y-56300D02*
X14450Y-56300D01*
X48250Y-34950D02*
X48250Y-56300D01*
X15250Y-34950D02*
X48250Y-34950D01*
X14450Y-34950D02*
X15250Y-34950D01*
G54D12*
X18595Y-56024D02*
X43005Y-56024D01*
X43005Y-56024D02*
X43005Y-40276D01*
X43005Y-40276D02*
X18595Y-40276D01*
X18595Y-40276D02*
X18595Y-56024D01*
G54D13*
X31242Y-47291D02*
X31242Y-46691D01*
X31014Y-46691D01*
X30956Y-46719D01*
X30928Y-46748D01*
X30899Y-46805D01*
X30899Y-46891D01*
X30928Y-46948D01*
X30956Y-46977D01*
X31014Y-47005D01*
X31242Y-47005D01*
X30356Y-46691D02*
X30642Y-46691D01*
X30671Y-46977D01*
X30642Y-46948D01*
X30585Y-46919D01*
X30442Y-46919D01*
X30385Y-46948D01*
X30356Y-46977D01*
X30328Y-47034D01*
X30328Y-47177D01*
X30356Y-47234D01*
X30385Y-47262D01*
X30442Y-47291D01*
X30585Y-47291D01*
X30642Y-47262D01*
X30671Y-47234D01*
X31571Y-49348D02*
X31485Y-49377D01*
X31342Y-49377D01*
X31285Y-49348D01*
X31256Y-49320D01*
X31228Y-49263D01*
X31228Y-49205D01*
X31256Y-49148D01*
X31285Y-49120D01*
X31342Y-49091D01*
X31456Y-49063D01*
X31514Y-49034D01*
X31542Y-49005D01*
X31571Y-48948D01*
X31571Y-48891D01*
X31542Y-48834D01*
X31514Y-48805D01*
X31456Y-48777D01*
X31314Y-48777D01*
X31228Y-48805D01*
X31000Y-49205D02*
X30714Y-49205D01*
X31057Y-49377D02*
X30857Y-48777D01*
X30657Y-49377D01*
X30457Y-49377D02*
X30457Y-48777D01*
X30257Y-49205D01*
X30057Y-48777D01*
X30057Y-49377D01*
M02*
