G04 (created by PCBNEW (2010-00-09 BZR 23xx)-stable) date So 15 Mai 2011 12:34:52 CEST*
G01*
G70*
G90*
%MOIN*%
G04 Gerber Fmt 3.4, Leading zero omitted, Abs format*
%FSLAX34Y34*%
G04 APERTURE LIST*
%ADD10C,0.001000*%
%ADD11C,0.008000*%
G04 APERTURE END LIST*
G54D10*
G54D10*
X20309Y-41708D02*
X20559Y-41958D01*
X20559Y-41708D02*
X20309Y-41958D01*
X20916Y-41751D02*
X21166Y-42001D01*
X21166Y-41751D02*
X20916Y-42001D01*
X22228Y-44679D02*
X22478Y-44929D01*
X22478Y-44679D02*
X22228Y-44929D01*
X22297Y-44177D02*
X22547Y-44427D01*
X22547Y-44177D02*
X22297Y-44427D01*
X22404Y-42028D02*
X22654Y-42278D01*
X22654Y-42028D02*
X22404Y-42278D01*
X23283Y-41919D02*
X23533Y-42169D01*
X23533Y-41919D02*
X23283Y-42169D01*
X23326Y-49686D02*
X23576Y-49936D01*
X23576Y-49686D02*
X23326Y-49936D01*
X24251Y-43354D02*
X24501Y-43604D01*
X24501Y-43354D02*
X24251Y-43604D01*
X25150Y-42789D02*
X25400Y-43039D01*
X25400Y-42789D02*
X25150Y-43039D01*
X26009Y-51747D02*
X26259Y-51997D01*
X26259Y-51747D02*
X26009Y-51997D01*
X26540Y-51171D02*
X26790Y-51421D01*
X26790Y-51171D02*
X26540Y-51421D01*
X26979Y-45411D02*
X27229Y-45661D01*
X27229Y-45411D02*
X26979Y-45661D01*
X27750Y-50914D02*
X28000Y-51164D01*
X28000Y-50914D02*
X27750Y-51164D01*
X28368Y-47336D02*
X28618Y-47586D01*
X28618Y-47336D02*
X28368Y-47586D01*
X28390Y-45544D02*
X28640Y-45794D01*
X28640Y-45544D02*
X28390Y-45794D01*
X28398Y-48645D02*
X28648Y-48895D01*
X28648Y-48645D02*
X28398Y-48895D01*
X28400Y-47953D02*
X28650Y-48203D01*
X28650Y-47953D02*
X28400Y-48203D01*
X29301Y-50569D02*
X29551Y-50819D01*
X29551Y-50569D02*
X29301Y-50819D01*
X29700Y-51227D02*
X29950Y-51477D01*
X29950Y-51227D02*
X29700Y-51477D01*
X29782Y-47929D02*
X30032Y-48179D01*
X30032Y-47929D02*
X29782Y-48179D01*
X29861Y-49433D02*
X30111Y-49683D01*
X30111Y-49433D02*
X29861Y-49683D01*
X29912Y-46846D02*
X30162Y-47096D01*
X30162Y-46846D02*
X29912Y-47096D01*
X30385Y-49297D02*
X30635Y-49547D01*
X30635Y-49297D02*
X30385Y-49547D01*
X30996Y-44113D02*
X31246Y-44363D01*
X31246Y-44113D02*
X30996Y-44363D01*
X31022Y-49050D02*
X31272Y-49300D01*
X31272Y-49050D02*
X31022Y-49300D01*
X31109Y-47011D02*
X31359Y-47261D01*
X31359Y-47011D02*
X31109Y-47261D01*
X32187Y-45584D02*
X32437Y-45834D01*
X32437Y-45584D02*
X32187Y-45834D01*
X32194Y-46898D02*
X32444Y-47148D01*
X32444Y-46898D02*
X32194Y-47148D01*
X32220Y-51327D02*
X32470Y-51577D01*
X32470Y-51327D02*
X32220Y-51577D01*
X32231Y-50258D02*
X32481Y-50508D01*
X32481Y-50258D02*
X32231Y-50508D01*
X32476Y-49862D02*
X32726Y-50112D01*
X32726Y-49862D02*
X32476Y-50112D01*
X32626Y-47489D02*
X32876Y-47739D01*
X32876Y-47489D02*
X32626Y-47739D01*
X32969Y-47186D02*
X33219Y-47436D01*
X33219Y-47186D02*
X32969Y-47436D01*
X33350Y-44959D02*
X33600Y-45209D01*
X33600Y-44959D02*
X33350Y-45209D01*
X33357Y-43771D02*
X33607Y-44021D01*
X33607Y-43771D02*
X33357Y-44021D01*
X33490Y-50217D02*
X33740Y-50467D01*
X33740Y-50217D02*
X33490Y-50467D01*
X33782Y-48471D02*
X34032Y-48721D01*
X34032Y-48471D02*
X33782Y-48721D01*
X33888Y-47926D02*
X34138Y-48176D01*
X34138Y-47926D02*
X33888Y-48176D01*
X33944Y-49989D02*
X34194Y-50239D01*
X34194Y-49989D02*
X33944Y-50239D01*
X34182Y-43784D02*
X34432Y-44034D01*
X34432Y-43784D02*
X34182Y-44034D01*
X34264Y-49631D02*
X34514Y-49881D01*
X34514Y-49631D02*
X34264Y-49881D01*
X34475Y-48502D02*
X34725Y-48752D01*
X34725Y-48502D02*
X34475Y-48752D01*
X34592Y-46742D02*
X34842Y-46992D01*
X34842Y-46742D02*
X34592Y-46992D01*
X34596Y-45691D02*
X34846Y-45941D01*
X34846Y-45691D02*
X34596Y-45941D01*
X34699Y-42125D02*
X34949Y-42375D01*
X34949Y-42125D02*
X34699Y-42375D01*
X34762Y-44216D02*
X35012Y-44466D01*
X35012Y-44216D02*
X34762Y-44466D01*
X34968Y-49894D02*
X35218Y-50144D01*
X35218Y-49894D02*
X34968Y-50144D01*
X35074Y-48983D02*
X35324Y-49233D01*
X35324Y-48983D02*
X35074Y-49233D01*
X35628Y-54890D02*
X35878Y-55140D01*
X35878Y-54890D02*
X35628Y-55140D01*
X35929Y-46915D02*
X36179Y-47165D01*
X36179Y-46915D02*
X35929Y-47165D01*
X37642Y-45522D02*
X37892Y-45772D01*
X37892Y-45522D02*
X37642Y-45772D01*
X38925Y-42025D02*
X39175Y-42275D01*
X39175Y-42025D02*
X38925Y-42275D01*
X38994Y-47060D02*
X39244Y-47310D01*
X39244Y-47060D02*
X38994Y-47310D01*
X39131Y-44037D02*
X39381Y-44287D01*
X39381Y-44037D02*
X39131Y-44287D01*
X46229Y-49298D02*
X46479Y-49548D01*
X46479Y-49298D02*
X46229Y-49548D01*
X46757Y-38116D02*
X47007Y-38366D01*
X47007Y-38116D02*
X46757Y-38366D01*
X26860Y-37200D02*
X26856Y-37231D01*
X26847Y-37260D01*
X26833Y-37288D01*
X26813Y-37312D01*
X26789Y-37332D01*
X26762Y-37347D01*
X26732Y-37356D01*
X26701Y-37359D01*
X26671Y-37357D01*
X26641Y-37348D01*
X26613Y-37333D01*
X26589Y-37314D01*
X26568Y-37290D01*
X26553Y-37263D01*
X26544Y-37233D01*
X26541Y-37202D01*
X26543Y-37172D01*
X26552Y-37142D01*
X26566Y-37114D01*
X26585Y-37089D01*
X26609Y-37069D01*
X26636Y-37054D01*
X26666Y-37044D01*
X26697Y-37041D01*
X26727Y-37043D01*
X26757Y-37051D01*
X26785Y-37065D01*
X26810Y-37085D01*
X26830Y-37108D01*
X26846Y-37135D01*
X26856Y-37165D01*
X26859Y-37196D01*
X26860Y-37200D01*
X44019Y-38453D02*
X44019Y-38847D01*
X44216Y-38650D02*
X43822Y-38650D01*
X46381Y-38453D02*
X46381Y-38847D01*
X46578Y-38650D02*
X46184Y-38650D01*
X26900Y-36200D02*
X26896Y-36238D01*
X26884Y-36276D01*
X26866Y-36310D01*
X26841Y-36340D01*
X26811Y-36365D01*
X26777Y-36384D01*
X26740Y-36395D01*
X26701Y-36399D01*
X26663Y-36396D01*
X26626Y-36385D01*
X26591Y-36367D01*
X26561Y-36342D01*
X26535Y-36312D01*
X26517Y-36278D01*
X26505Y-36241D01*
X26501Y-36202D01*
X26504Y-36164D01*
X26515Y-36127D01*
X26532Y-36092D01*
X26557Y-36062D01*
X26586Y-36036D01*
X26620Y-36017D01*
X26658Y-36005D01*
X26696Y-36001D01*
X26734Y-36004D01*
X26772Y-36014D01*
X26807Y-36032D01*
X26837Y-36056D01*
X26863Y-36085D01*
X26882Y-36119D01*
X26895Y-36156D01*
X26899Y-36195D01*
X26900Y-36200D01*
X26500Y-36000D02*
X26900Y-36400D01*
X26900Y-36000D02*
X26500Y-36400D01*
X27900Y-36200D02*
X27896Y-36238D01*
X27884Y-36276D01*
X27866Y-36310D01*
X27841Y-36340D01*
X27811Y-36365D01*
X27777Y-36384D01*
X27740Y-36395D01*
X27701Y-36399D01*
X27663Y-36396D01*
X27626Y-36385D01*
X27591Y-36367D01*
X27561Y-36342D01*
X27535Y-36312D01*
X27517Y-36278D01*
X27505Y-36241D01*
X27501Y-36202D01*
X27504Y-36164D01*
X27515Y-36127D01*
X27532Y-36092D01*
X27557Y-36062D01*
X27586Y-36036D01*
X27620Y-36017D01*
X27658Y-36005D01*
X27696Y-36001D01*
X27734Y-36004D01*
X27772Y-36014D01*
X27807Y-36032D01*
X27837Y-36056D01*
X27863Y-36085D01*
X27882Y-36119D01*
X27895Y-36156D01*
X27899Y-36195D01*
X27900Y-36200D01*
X27500Y-36000D02*
X27900Y-36400D01*
X27900Y-36000D02*
X27500Y-36400D01*
X27900Y-37200D02*
X27896Y-37238D01*
X27884Y-37276D01*
X27866Y-37310D01*
X27841Y-37340D01*
X27811Y-37365D01*
X27777Y-37384D01*
X27740Y-37395D01*
X27701Y-37399D01*
X27663Y-37396D01*
X27626Y-37385D01*
X27591Y-37367D01*
X27561Y-37342D01*
X27535Y-37312D01*
X27517Y-37278D01*
X27505Y-37241D01*
X27501Y-37202D01*
X27504Y-37164D01*
X27515Y-37127D01*
X27532Y-37092D01*
X27557Y-37062D01*
X27586Y-37036D01*
X27620Y-37017D01*
X27658Y-37005D01*
X27696Y-37001D01*
X27734Y-37004D01*
X27772Y-37014D01*
X27807Y-37032D01*
X27837Y-37056D01*
X27863Y-37085D01*
X27882Y-37119D01*
X27895Y-37156D01*
X27899Y-37195D01*
X27900Y-37200D01*
X27500Y-37000D02*
X27900Y-37400D01*
X27900Y-37000D02*
X27500Y-37400D01*
X28900Y-36200D02*
X28896Y-36238D01*
X28884Y-36276D01*
X28866Y-36310D01*
X28841Y-36340D01*
X28811Y-36365D01*
X28777Y-36384D01*
X28740Y-36395D01*
X28701Y-36399D01*
X28663Y-36396D01*
X28626Y-36385D01*
X28591Y-36367D01*
X28561Y-36342D01*
X28535Y-36312D01*
X28517Y-36278D01*
X28505Y-36241D01*
X28501Y-36202D01*
X28504Y-36164D01*
X28515Y-36127D01*
X28532Y-36092D01*
X28557Y-36062D01*
X28586Y-36036D01*
X28620Y-36017D01*
X28658Y-36005D01*
X28696Y-36001D01*
X28734Y-36004D01*
X28772Y-36014D01*
X28807Y-36032D01*
X28837Y-36056D01*
X28863Y-36085D01*
X28882Y-36119D01*
X28895Y-36156D01*
X28899Y-36195D01*
X28900Y-36200D01*
X28500Y-36000D02*
X28900Y-36400D01*
X28900Y-36000D02*
X28500Y-36400D01*
X28900Y-37200D02*
X28896Y-37238D01*
X28884Y-37276D01*
X28866Y-37310D01*
X28841Y-37340D01*
X28811Y-37365D01*
X28777Y-37384D01*
X28740Y-37395D01*
X28701Y-37399D01*
X28663Y-37396D01*
X28626Y-37385D01*
X28591Y-37367D01*
X28561Y-37342D01*
X28535Y-37312D01*
X28517Y-37278D01*
X28505Y-37241D01*
X28501Y-37202D01*
X28504Y-37164D01*
X28515Y-37127D01*
X28532Y-37092D01*
X28557Y-37062D01*
X28586Y-37036D01*
X28620Y-37017D01*
X28658Y-37005D01*
X28696Y-37001D01*
X28734Y-37004D01*
X28772Y-37014D01*
X28807Y-37032D01*
X28837Y-37056D01*
X28863Y-37085D01*
X28882Y-37119D01*
X28895Y-37156D01*
X28899Y-37195D01*
X28900Y-37200D01*
X28500Y-37000D02*
X28900Y-37400D01*
X28900Y-37000D02*
X28500Y-37400D01*
X29900Y-36200D02*
X29896Y-36238D01*
X29884Y-36276D01*
X29866Y-36310D01*
X29841Y-36340D01*
X29811Y-36365D01*
X29777Y-36384D01*
X29740Y-36395D01*
X29701Y-36399D01*
X29663Y-36396D01*
X29626Y-36385D01*
X29591Y-36367D01*
X29561Y-36342D01*
X29535Y-36312D01*
X29517Y-36278D01*
X29505Y-36241D01*
X29501Y-36202D01*
X29504Y-36164D01*
X29515Y-36127D01*
X29532Y-36092D01*
X29557Y-36062D01*
X29586Y-36036D01*
X29620Y-36017D01*
X29658Y-36005D01*
X29696Y-36001D01*
X29734Y-36004D01*
X29772Y-36014D01*
X29807Y-36032D01*
X29837Y-36056D01*
X29863Y-36085D01*
X29882Y-36119D01*
X29895Y-36156D01*
X29899Y-36195D01*
X29900Y-36200D01*
X29500Y-36000D02*
X29900Y-36400D01*
X29900Y-36000D02*
X29500Y-36400D01*
X29900Y-37200D02*
X29896Y-37238D01*
X29884Y-37276D01*
X29866Y-37310D01*
X29841Y-37340D01*
X29811Y-37365D01*
X29777Y-37384D01*
X29740Y-37395D01*
X29701Y-37399D01*
X29663Y-37396D01*
X29626Y-37385D01*
X29591Y-37367D01*
X29561Y-37342D01*
X29535Y-37312D01*
X29517Y-37278D01*
X29505Y-37241D01*
X29501Y-37202D01*
X29504Y-37164D01*
X29515Y-37127D01*
X29532Y-37092D01*
X29557Y-37062D01*
X29586Y-37036D01*
X29620Y-37017D01*
X29658Y-37005D01*
X29696Y-37001D01*
X29734Y-37004D01*
X29772Y-37014D01*
X29807Y-37032D01*
X29837Y-37056D01*
X29863Y-37085D01*
X29882Y-37119D01*
X29895Y-37156D01*
X29899Y-37195D01*
X29900Y-37200D01*
X29500Y-37000D02*
X29900Y-37400D01*
X29900Y-37000D02*
X29500Y-37400D01*
X30900Y-36200D02*
X30896Y-36238D01*
X30884Y-36276D01*
X30866Y-36310D01*
X30841Y-36340D01*
X30811Y-36365D01*
X30777Y-36384D01*
X30740Y-36395D01*
X30701Y-36399D01*
X30663Y-36396D01*
X30626Y-36385D01*
X30591Y-36367D01*
X30561Y-36342D01*
X30535Y-36312D01*
X30517Y-36278D01*
X30505Y-36241D01*
X30501Y-36202D01*
X30504Y-36164D01*
X30515Y-36127D01*
X30532Y-36092D01*
X30557Y-36062D01*
X30586Y-36036D01*
X30620Y-36017D01*
X30658Y-36005D01*
X30696Y-36001D01*
X30734Y-36004D01*
X30772Y-36014D01*
X30807Y-36032D01*
X30837Y-36056D01*
X30863Y-36085D01*
X30882Y-36119D01*
X30895Y-36156D01*
X30899Y-36195D01*
X30900Y-36200D01*
X30500Y-36000D02*
X30900Y-36400D01*
X30900Y-36000D02*
X30500Y-36400D01*
X30900Y-37200D02*
X30896Y-37238D01*
X30884Y-37276D01*
X30866Y-37310D01*
X30841Y-37340D01*
X30811Y-37365D01*
X30777Y-37384D01*
X30740Y-37395D01*
X30701Y-37399D01*
X30663Y-37396D01*
X30626Y-37385D01*
X30591Y-37367D01*
X30561Y-37342D01*
X30535Y-37312D01*
X30517Y-37278D01*
X30505Y-37241D01*
X30501Y-37202D01*
X30504Y-37164D01*
X30515Y-37127D01*
X30532Y-37092D01*
X30557Y-37062D01*
X30586Y-37036D01*
X30620Y-37017D01*
X30658Y-37005D01*
X30696Y-37001D01*
X30734Y-37004D01*
X30772Y-37014D01*
X30807Y-37032D01*
X30837Y-37056D01*
X30863Y-37085D01*
X30882Y-37119D01*
X30895Y-37156D01*
X30899Y-37195D01*
X30900Y-37200D01*
X30500Y-37000D02*
X30900Y-37400D01*
X30900Y-37000D02*
X30500Y-37400D01*
X31900Y-36200D02*
X31896Y-36238D01*
X31884Y-36276D01*
X31866Y-36310D01*
X31841Y-36340D01*
X31811Y-36365D01*
X31777Y-36384D01*
X31740Y-36395D01*
X31701Y-36399D01*
X31663Y-36396D01*
X31626Y-36385D01*
X31591Y-36367D01*
X31561Y-36342D01*
X31535Y-36312D01*
X31517Y-36278D01*
X31505Y-36241D01*
X31501Y-36202D01*
X31504Y-36164D01*
X31515Y-36127D01*
X31532Y-36092D01*
X31557Y-36062D01*
X31586Y-36036D01*
X31620Y-36017D01*
X31658Y-36005D01*
X31696Y-36001D01*
X31734Y-36004D01*
X31772Y-36014D01*
X31807Y-36032D01*
X31837Y-36056D01*
X31863Y-36085D01*
X31882Y-36119D01*
X31895Y-36156D01*
X31899Y-36195D01*
X31900Y-36200D01*
X31500Y-36000D02*
X31900Y-36400D01*
X31900Y-36000D02*
X31500Y-36400D01*
X31900Y-37200D02*
X31896Y-37238D01*
X31884Y-37276D01*
X31866Y-37310D01*
X31841Y-37340D01*
X31811Y-37365D01*
X31777Y-37384D01*
X31740Y-37395D01*
X31701Y-37399D01*
X31663Y-37396D01*
X31626Y-37385D01*
X31591Y-37367D01*
X31561Y-37342D01*
X31535Y-37312D01*
X31517Y-37278D01*
X31505Y-37241D01*
X31501Y-37202D01*
X31504Y-37164D01*
X31515Y-37127D01*
X31532Y-37092D01*
X31557Y-37062D01*
X31586Y-37036D01*
X31620Y-37017D01*
X31658Y-37005D01*
X31696Y-37001D01*
X31734Y-37004D01*
X31772Y-37014D01*
X31807Y-37032D01*
X31837Y-37056D01*
X31863Y-37085D01*
X31882Y-37119D01*
X31895Y-37156D01*
X31899Y-37195D01*
X31900Y-37200D01*
X31500Y-37000D02*
X31900Y-37400D01*
X31900Y-37000D02*
X31500Y-37400D01*
X32900Y-36200D02*
X32896Y-36238D01*
X32884Y-36276D01*
X32866Y-36310D01*
X32841Y-36340D01*
X32811Y-36365D01*
X32777Y-36384D01*
X32740Y-36395D01*
X32701Y-36399D01*
X32663Y-36396D01*
X32626Y-36385D01*
X32591Y-36367D01*
X32561Y-36342D01*
X32535Y-36312D01*
X32517Y-36278D01*
X32505Y-36241D01*
X32501Y-36202D01*
X32504Y-36164D01*
X32515Y-36127D01*
X32532Y-36092D01*
X32557Y-36062D01*
X32586Y-36036D01*
X32620Y-36017D01*
X32658Y-36005D01*
X32696Y-36001D01*
X32734Y-36004D01*
X32772Y-36014D01*
X32807Y-36032D01*
X32837Y-36056D01*
X32863Y-36085D01*
X32882Y-36119D01*
X32895Y-36156D01*
X32899Y-36195D01*
X32900Y-36200D01*
X32500Y-36000D02*
X32900Y-36400D01*
X32900Y-36000D02*
X32500Y-36400D01*
X32900Y-37200D02*
X32896Y-37238D01*
X32884Y-37276D01*
X32866Y-37310D01*
X32841Y-37340D01*
X32811Y-37365D01*
X32777Y-37384D01*
X32740Y-37395D01*
X32701Y-37399D01*
X32663Y-37396D01*
X32626Y-37385D01*
X32591Y-37367D01*
X32561Y-37342D01*
X32535Y-37312D01*
X32517Y-37278D01*
X32505Y-37241D01*
X32501Y-37202D01*
X32504Y-37164D01*
X32515Y-37127D01*
X32532Y-37092D01*
X32557Y-37062D01*
X32586Y-37036D01*
X32620Y-37017D01*
X32658Y-37005D01*
X32696Y-37001D01*
X32734Y-37004D01*
X32772Y-37014D01*
X32807Y-37032D01*
X32837Y-37056D01*
X32863Y-37085D01*
X32882Y-37119D01*
X32895Y-37156D01*
X32899Y-37195D01*
X32900Y-37200D01*
X32500Y-37000D02*
X32900Y-37400D01*
X32900Y-37000D02*
X32500Y-37400D01*
X33900Y-36200D02*
X33896Y-36238D01*
X33884Y-36276D01*
X33866Y-36310D01*
X33841Y-36340D01*
X33811Y-36365D01*
X33777Y-36384D01*
X33740Y-36395D01*
X33701Y-36399D01*
X33663Y-36396D01*
X33626Y-36385D01*
X33591Y-36367D01*
X33561Y-36342D01*
X33535Y-36312D01*
X33517Y-36278D01*
X33505Y-36241D01*
X33501Y-36202D01*
X33504Y-36164D01*
X33515Y-36127D01*
X33532Y-36092D01*
X33557Y-36062D01*
X33586Y-36036D01*
X33620Y-36017D01*
X33658Y-36005D01*
X33696Y-36001D01*
X33734Y-36004D01*
X33772Y-36014D01*
X33807Y-36032D01*
X33837Y-36056D01*
X33863Y-36085D01*
X33882Y-36119D01*
X33895Y-36156D01*
X33899Y-36195D01*
X33900Y-36200D01*
X33500Y-36000D02*
X33900Y-36400D01*
X33900Y-36000D02*
X33500Y-36400D01*
X33900Y-37200D02*
X33896Y-37238D01*
X33884Y-37276D01*
X33866Y-37310D01*
X33841Y-37340D01*
X33811Y-37365D01*
X33777Y-37384D01*
X33740Y-37395D01*
X33701Y-37399D01*
X33663Y-37396D01*
X33626Y-37385D01*
X33591Y-37367D01*
X33561Y-37342D01*
X33535Y-37312D01*
X33517Y-37278D01*
X33505Y-37241D01*
X33501Y-37202D01*
X33504Y-37164D01*
X33515Y-37127D01*
X33532Y-37092D01*
X33557Y-37062D01*
X33586Y-37036D01*
X33620Y-37017D01*
X33658Y-37005D01*
X33696Y-37001D01*
X33734Y-37004D01*
X33772Y-37014D01*
X33807Y-37032D01*
X33837Y-37056D01*
X33863Y-37085D01*
X33882Y-37119D01*
X33895Y-37156D01*
X33899Y-37195D01*
X33900Y-37200D01*
X33500Y-37000D02*
X33900Y-37400D01*
X33900Y-37000D02*
X33500Y-37400D01*
X34900Y-36200D02*
X34896Y-36238D01*
X34884Y-36276D01*
X34866Y-36310D01*
X34841Y-36340D01*
X34811Y-36365D01*
X34777Y-36384D01*
X34740Y-36395D01*
X34701Y-36399D01*
X34663Y-36396D01*
X34626Y-36385D01*
X34591Y-36367D01*
X34561Y-36342D01*
X34535Y-36312D01*
X34517Y-36278D01*
X34505Y-36241D01*
X34501Y-36202D01*
X34504Y-36164D01*
X34515Y-36127D01*
X34532Y-36092D01*
X34557Y-36062D01*
X34586Y-36036D01*
X34620Y-36017D01*
X34658Y-36005D01*
X34696Y-36001D01*
X34734Y-36004D01*
X34772Y-36014D01*
X34807Y-36032D01*
X34837Y-36056D01*
X34863Y-36085D01*
X34882Y-36119D01*
X34895Y-36156D01*
X34899Y-36195D01*
X34900Y-36200D01*
X34500Y-36000D02*
X34900Y-36400D01*
X34900Y-36000D02*
X34500Y-36400D01*
X34900Y-37200D02*
X34896Y-37238D01*
X34884Y-37276D01*
X34866Y-37310D01*
X34841Y-37340D01*
X34811Y-37365D01*
X34777Y-37384D01*
X34740Y-37395D01*
X34701Y-37399D01*
X34663Y-37396D01*
X34626Y-37385D01*
X34591Y-37367D01*
X34561Y-37342D01*
X34535Y-37312D01*
X34517Y-37278D01*
X34505Y-37241D01*
X34501Y-37202D01*
X34504Y-37164D01*
X34515Y-37127D01*
X34532Y-37092D01*
X34557Y-37062D01*
X34586Y-37036D01*
X34620Y-37017D01*
X34658Y-37005D01*
X34696Y-37001D01*
X34734Y-37004D01*
X34772Y-37014D01*
X34807Y-37032D01*
X34837Y-37056D01*
X34863Y-37085D01*
X34882Y-37119D01*
X34895Y-37156D01*
X34899Y-37195D01*
X34900Y-37200D01*
X34500Y-37000D02*
X34900Y-37400D01*
X34900Y-37000D02*
X34500Y-37400D01*
X35900Y-36200D02*
X35896Y-36238D01*
X35884Y-36276D01*
X35866Y-36310D01*
X35841Y-36340D01*
X35811Y-36365D01*
X35777Y-36384D01*
X35740Y-36395D01*
X35701Y-36399D01*
X35663Y-36396D01*
X35626Y-36385D01*
X35591Y-36367D01*
X35561Y-36342D01*
X35535Y-36312D01*
X35517Y-36278D01*
X35505Y-36241D01*
X35501Y-36202D01*
X35504Y-36164D01*
X35515Y-36127D01*
X35532Y-36092D01*
X35557Y-36062D01*
X35586Y-36036D01*
X35620Y-36017D01*
X35658Y-36005D01*
X35696Y-36001D01*
X35734Y-36004D01*
X35772Y-36014D01*
X35807Y-36032D01*
X35837Y-36056D01*
X35863Y-36085D01*
X35882Y-36119D01*
X35895Y-36156D01*
X35899Y-36195D01*
X35900Y-36200D01*
X35500Y-36000D02*
X35900Y-36400D01*
X35900Y-36000D02*
X35500Y-36400D01*
X35900Y-37200D02*
X35896Y-37238D01*
X35884Y-37276D01*
X35866Y-37310D01*
X35841Y-37340D01*
X35811Y-37365D01*
X35777Y-37384D01*
X35740Y-37395D01*
X35701Y-37399D01*
X35663Y-37396D01*
X35626Y-37385D01*
X35591Y-37367D01*
X35561Y-37342D01*
X35535Y-37312D01*
X35517Y-37278D01*
X35505Y-37241D01*
X35501Y-37202D01*
X35504Y-37164D01*
X35515Y-37127D01*
X35532Y-37092D01*
X35557Y-37062D01*
X35586Y-37036D01*
X35620Y-37017D01*
X35658Y-37005D01*
X35696Y-37001D01*
X35734Y-37004D01*
X35772Y-37014D01*
X35807Y-37032D01*
X35837Y-37056D01*
X35863Y-37085D01*
X35882Y-37119D01*
X35895Y-37156D01*
X35899Y-37195D01*
X35900Y-37200D01*
X35500Y-37000D02*
X35900Y-37400D01*
X35900Y-37000D02*
X35500Y-37400D01*
X36600Y-39750D02*
X36596Y-39788D01*
X36584Y-39826D01*
X36566Y-39860D01*
X36541Y-39890D01*
X36511Y-39915D01*
X36477Y-39934D01*
X36440Y-39945D01*
X36401Y-39949D01*
X36363Y-39946D01*
X36326Y-39935D01*
X36291Y-39917D01*
X36261Y-39892D01*
X36235Y-39862D01*
X36217Y-39828D01*
X36205Y-39791D01*
X36201Y-39752D01*
X36204Y-39714D01*
X36215Y-39677D01*
X36232Y-39642D01*
X36257Y-39612D01*
X36286Y-39586D01*
X36320Y-39567D01*
X36358Y-39555D01*
X36396Y-39551D01*
X36434Y-39554D01*
X36472Y-39564D01*
X36507Y-39582D01*
X36537Y-39606D01*
X36563Y-39635D01*
X36582Y-39669D01*
X36595Y-39706D01*
X36599Y-39745D01*
X36600Y-39750D01*
X36200Y-39550D02*
X36600Y-39950D01*
X36600Y-39550D02*
X36200Y-39950D01*
X37600Y-39750D02*
X37596Y-39788D01*
X37584Y-39826D01*
X37566Y-39860D01*
X37541Y-39890D01*
X37511Y-39915D01*
X37477Y-39934D01*
X37440Y-39945D01*
X37401Y-39949D01*
X37363Y-39946D01*
X37326Y-39935D01*
X37291Y-39917D01*
X37261Y-39892D01*
X37235Y-39862D01*
X37217Y-39828D01*
X37205Y-39791D01*
X37201Y-39752D01*
X37204Y-39714D01*
X37215Y-39677D01*
X37232Y-39642D01*
X37257Y-39612D01*
X37286Y-39586D01*
X37320Y-39567D01*
X37358Y-39555D01*
X37396Y-39551D01*
X37434Y-39554D01*
X37472Y-39564D01*
X37507Y-39582D01*
X37537Y-39606D01*
X37563Y-39635D01*
X37582Y-39669D01*
X37595Y-39706D01*
X37599Y-39745D01*
X37600Y-39750D01*
X37200Y-39550D02*
X37600Y-39950D01*
X37600Y-39550D02*
X37200Y-39950D01*
X38450Y-36150D02*
X38446Y-36188D01*
X38434Y-36226D01*
X38416Y-36260D01*
X38391Y-36290D01*
X38361Y-36315D01*
X38327Y-36334D01*
X38290Y-36345D01*
X38251Y-36349D01*
X38213Y-36346D01*
X38176Y-36335D01*
X38141Y-36317D01*
X38111Y-36292D01*
X38085Y-36262D01*
X38067Y-36228D01*
X38055Y-36191D01*
X38051Y-36152D01*
X38054Y-36114D01*
X38065Y-36077D01*
X38082Y-36042D01*
X38107Y-36012D01*
X38136Y-35986D01*
X38170Y-35967D01*
X38208Y-35955D01*
X38246Y-35951D01*
X38284Y-35954D01*
X38322Y-35964D01*
X38357Y-35982D01*
X38387Y-36006D01*
X38413Y-36035D01*
X38432Y-36069D01*
X38445Y-36106D01*
X38449Y-36145D01*
X38450Y-36150D01*
X38050Y-35950D02*
X38450Y-36350D01*
X38450Y-35950D02*
X38050Y-36350D01*
X38450Y-37150D02*
X38446Y-37188D01*
X38434Y-37226D01*
X38416Y-37260D01*
X38391Y-37290D01*
X38361Y-37315D01*
X38327Y-37334D01*
X38290Y-37345D01*
X38251Y-37349D01*
X38213Y-37346D01*
X38176Y-37335D01*
X38141Y-37317D01*
X38111Y-37292D01*
X38085Y-37262D01*
X38067Y-37228D01*
X38055Y-37191D01*
X38051Y-37152D01*
X38054Y-37114D01*
X38065Y-37077D01*
X38082Y-37042D01*
X38107Y-37012D01*
X38136Y-36986D01*
X38170Y-36967D01*
X38208Y-36955D01*
X38246Y-36951D01*
X38284Y-36954D01*
X38322Y-36964D01*
X38357Y-36982D01*
X38387Y-37006D01*
X38413Y-37035D01*
X38432Y-37069D01*
X38445Y-37106D01*
X38449Y-37145D01*
X38450Y-37150D01*
X38050Y-36950D02*
X38450Y-37350D01*
X38450Y-36950D02*
X38050Y-37350D01*
X39450Y-36150D02*
X39446Y-36188D01*
X39434Y-36226D01*
X39416Y-36260D01*
X39391Y-36290D01*
X39361Y-36315D01*
X39327Y-36334D01*
X39290Y-36345D01*
X39251Y-36349D01*
X39213Y-36346D01*
X39176Y-36335D01*
X39141Y-36317D01*
X39111Y-36292D01*
X39085Y-36262D01*
X39067Y-36228D01*
X39055Y-36191D01*
X39051Y-36152D01*
X39054Y-36114D01*
X39065Y-36077D01*
X39082Y-36042D01*
X39107Y-36012D01*
X39136Y-35986D01*
X39170Y-35967D01*
X39208Y-35955D01*
X39246Y-35951D01*
X39284Y-35954D01*
X39322Y-35964D01*
X39357Y-35982D01*
X39387Y-36006D01*
X39413Y-36035D01*
X39432Y-36069D01*
X39445Y-36106D01*
X39449Y-36145D01*
X39450Y-36150D01*
X39050Y-35950D02*
X39450Y-36350D01*
X39450Y-35950D02*
X39050Y-36350D01*
X39450Y-37150D02*
X39446Y-37188D01*
X39434Y-37226D01*
X39416Y-37260D01*
X39391Y-37290D01*
X39361Y-37315D01*
X39327Y-37334D01*
X39290Y-37345D01*
X39251Y-37349D01*
X39213Y-37346D01*
X39176Y-37335D01*
X39141Y-37317D01*
X39111Y-37292D01*
X39085Y-37262D01*
X39067Y-37228D01*
X39055Y-37191D01*
X39051Y-37152D01*
X39054Y-37114D01*
X39065Y-37077D01*
X39082Y-37042D01*
X39107Y-37012D01*
X39136Y-36986D01*
X39170Y-36967D01*
X39208Y-36955D01*
X39246Y-36951D01*
X39284Y-36954D01*
X39322Y-36964D01*
X39357Y-36982D01*
X39387Y-37006D01*
X39413Y-37035D01*
X39432Y-37069D01*
X39445Y-37106D01*
X39449Y-37145D01*
X39450Y-37150D01*
X39050Y-36950D02*
X39450Y-37350D01*
X39450Y-36950D02*
X39050Y-37350D01*
X39600Y-39700D02*
X39596Y-39738D01*
X39584Y-39776D01*
X39566Y-39810D01*
X39541Y-39840D01*
X39511Y-39865D01*
X39477Y-39884D01*
X39440Y-39895D01*
X39401Y-39899D01*
X39363Y-39896D01*
X39326Y-39885D01*
X39291Y-39867D01*
X39261Y-39842D01*
X39235Y-39812D01*
X39217Y-39778D01*
X39205Y-39741D01*
X39201Y-39702D01*
X39204Y-39664D01*
X39215Y-39627D01*
X39232Y-39592D01*
X39257Y-39562D01*
X39286Y-39536D01*
X39320Y-39517D01*
X39358Y-39505D01*
X39396Y-39501D01*
X39434Y-39504D01*
X39472Y-39514D01*
X39507Y-39532D01*
X39537Y-39556D01*
X39563Y-39585D01*
X39582Y-39619D01*
X39595Y-39656D01*
X39599Y-39695D01*
X39600Y-39700D01*
X39200Y-39500D02*
X39600Y-39900D01*
X39600Y-39500D02*
X39200Y-39900D01*
X40450Y-36150D02*
X40446Y-36188D01*
X40434Y-36226D01*
X40416Y-36260D01*
X40391Y-36290D01*
X40361Y-36315D01*
X40327Y-36334D01*
X40290Y-36345D01*
X40251Y-36349D01*
X40213Y-36346D01*
X40176Y-36335D01*
X40141Y-36317D01*
X40111Y-36292D01*
X40085Y-36262D01*
X40067Y-36228D01*
X40055Y-36191D01*
X40051Y-36152D01*
X40054Y-36114D01*
X40065Y-36077D01*
X40082Y-36042D01*
X40107Y-36012D01*
X40136Y-35986D01*
X40170Y-35967D01*
X40208Y-35955D01*
X40246Y-35951D01*
X40284Y-35954D01*
X40322Y-35964D01*
X40357Y-35982D01*
X40387Y-36006D01*
X40413Y-36035D01*
X40432Y-36069D01*
X40445Y-36106D01*
X40449Y-36145D01*
X40450Y-36150D01*
X40050Y-35950D02*
X40450Y-36350D01*
X40450Y-35950D02*
X40050Y-36350D01*
X40450Y-37150D02*
X40446Y-37188D01*
X40434Y-37226D01*
X40416Y-37260D01*
X40391Y-37290D01*
X40361Y-37315D01*
X40327Y-37334D01*
X40290Y-37345D01*
X40251Y-37349D01*
X40213Y-37346D01*
X40176Y-37335D01*
X40141Y-37317D01*
X40111Y-37292D01*
X40085Y-37262D01*
X40067Y-37228D01*
X40055Y-37191D01*
X40051Y-37152D01*
X40054Y-37114D01*
X40065Y-37077D01*
X40082Y-37042D01*
X40107Y-37012D01*
X40136Y-36986D01*
X40170Y-36967D01*
X40208Y-36955D01*
X40246Y-36951D01*
X40284Y-36954D01*
X40322Y-36964D01*
X40357Y-36982D01*
X40387Y-37006D01*
X40413Y-37035D01*
X40432Y-37069D01*
X40445Y-37106D01*
X40449Y-37145D01*
X40450Y-37150D01*
X40050Y-36950D02*
X40450Y-37350D01*
X40450Y-36950D02*
X40050Y-37350D01*
X40600Y-39700D02*
X40596Y-39738D01*
X40584Y-39776D01*
X40566Y-39810D01*
X40541Y-39840D01*
X40511Y-39865D01*
X40477Y-39884D01*
X40440Y-39895D01*
X40401Y-39899D01*
X40363Y-39896D01*
X40326Y-39885D01*
X40291Y-39867D01*
X40261Y-39842D01*
X40235Y-39812D01*
X40217Y-39778D01*
X40205Y-39741D01*
X40201Y-39702D01*
X40204Y-39664D01*
X40215Y-39627D01*
X40232Y-39592D01*
X40257Y-39562D01*
X40286Y-39536D01*
X40320Y-39517D01*
X40358Y-39505D01*
X40396Y-39501D01*
X40434Y-39504D01*
X40472Y-39514D01*
X40507Y-39532D01*
X40537Y-39556D01*
X40563Y-39585D01*
X40582Y-39619D01*
X40595Y-39656D01*
X40599Y-39695D01*
X40600Y-39700D01*
X40200Y-39500D02*
X40600Y-39900D01*
X40600Y-39500D02*
X40200Y-39900D01*
X46800Y-53700D02*
X46796Y-53738D01*
X46784Y-53776D01*
X46766Y-53810D01*
X46741Y-53840D01*
X46711Y-53865D01*
X46677Y-53884D01*
X46640Y-53895D01*
X46601Y-53899D01*
X46563Y-53896D01*
X46526Y-53885D01*
X46491Y-53867D01*
X46461Y-53842D01*
X46435Y-53812D01*
X46417Y-53778D01*
X46405Y-53741D01*
X46401Y-53702D01*
X46404Y-53664D01*
X46415Y-53627D01*
X46432Y-53592D01*
X46457Y-53562D01*
X46486Y-53536D01*
X46520Y-53517D01*
X46558Y-53505D01*
X46596Y-53501D01*
X46634Y-53504D01*
X46672Y-53514D01*
X46707Y-53532D01*
X46737Y-53556D01*
X46763Y-53585D01*
X46782Y-53619D01*
X46795Y-53656D01*
X46799Y-53695D01*
X46800Y-53700D01*
X46400Y-53500D02*
X46800Y-53900D01*
X46800Y-53500D02*
X46400Y-53900D01*
X46800Y-54700D02*
X46796Y-54738D01*
X46784Y-54776D01*
X46766Y-54810D01*
X46741Y-54840D01*
X46711Y-54865D01*
X46677Y-54884D01*
X46640Y-54895D01*
X46601Y-54899D01*
X46563Y-54896D01*
X46526Y-54885D01*
X46491Y-54867D01*
X46461Y-54842D01*
X46435Y-54812D01*
X46417Y-54778D01*
X46405Y-54741D01*
X46401Y-54702D01*
X46404Y-54664D01*
X46415Y-54627D01*
X46432Y-54592D01*
X46457Y-54562D01*
X46486Y-54536D01*
X46520Y-54517D01*
X46558Y-54505D01*
X46596Y-54501D01*
X46634Y-54504D01*
X46672Y-54514D01*
X46707Y-54532D01*
X46737Y-54556D01*
X46763Y-54585D01*
X46782Y-54619D01*
X46795Y-54656D01*
X46799Y-54695D01*
X46800Y-54700D01*
X46400Y-54500D02*
X46800Y-54900D01*
X46800Y-54500D02*
X46400Y-54900D01*
G54D11*
X13924Y-57087D02*
X13924Y-56287D01*
X14115Y-56287D01*
X14229Y-56325D01*
X14305Y-56401D01*
X14344Y-56477D01*
X14382Y-56630D01*
X14382Y-56744D01*
X14344Y-56896D01*
X14305Y-56973D01*
X14229Y-57049D01*
X14115Y-57087D01*
X13924Y-57087D01*
X14724Y-57087D02*
X14724Y-56553D01*
X14724Y-56706D02*
X14763Y-56630D01*
X14801Y-56592D01*
X14877Y-56553D01*
X14953Y-56553D01*
X15219Y-57087D02*
X15219Y-56553D01*
X15219Y-56287D02*
X15181Y-56325D01*
X15219Y-56363D01*
X15258Y-56325D01*
X15219Y-56287D01*
X15219Y-56363D01*
X15715Y-57087D02*
X15639Y-57049D01*
X15600Y-56973D01*
X15600Y-56287D01*
X16134Y-57087D02*
X16058Y-57049D01*
X16019Y-56973D01*
X16019Y-56287D01*
X17048Y-57087D02*
X17048Y-56287D01*
X17315Y-56858D01*
X17582Y-56287D01*
X17582Y-57087D01*
X18305Y-57087D02*
X18305Y-56668D01*
X18267Y-56592D01*
X18191Y-56553D01*
X18039Y-56553D01*
X17962Y-56592D01*
X18305Y-57049D02*
X18229Y-57087D01*
X18039Y-57087D01*
X17962Y-57049D01*
X17924Y-56973D01*
X17924Y-56896D01*
X17962Y-56820D01*
X18039Y-56782D01*
X18229Y-56782D01*
X18305Y-56744D01*
X18686Y-56553D02*
X18686Y-57353D01*
X18686Y-56592D02*
X18763Y-56553D01*
X18915Y-56553D01*
X18991Y-56592D01*
X19029Y-56630D01*
X19067Y-56706D01*
X19067Y-56934D01*
X19029Y-57011D01*
X18991Y-57049D01*
X18915Y-57087D01*
X18763Y-57087D01*
X18686Y-57049D01*
X19410Y-57011D02*
X19449Y-57049D01*
X19410Y-57087D01*
X19372Y-57049D01*
X19410Y-57011D01*
X19410Y-57087D01*
X19410Y-56592D02*
X19449Y-56630D01*
X19410Y-56668D01*
X19372Y-56630D01*
X19410Y-56592D01*
X19410Y-56668D01*
X13284Y-58318D02*
X13534Y-58568D01*
X13534Y-58318D02*
X13284Y-58568D01*
X14077Y-57967D02*
X14153Y-57967D01*
X14229Y-58005D01*
X14267Y-58043D01*
X14305Y-58119D01*
X14344Y-58272D01*
X14344Y-58462D01*
X14305Y-58614D01*
X14267Y-58691D01*
X14229Y-58729D01*
X14153Y-58767D01*
X14077Y-58767D01*
X14001Y-58729D01*
X13963Y-58691D01*
X13924Y-58614D01*
X13886Y-58462D01*
X13886Y-58272D01*
X13924Y-58119D01*
X13963Y-58043D01*
X14001Y-58005D01*
X14077Y-57967D01*
X14686Y-58691D02*
X14725Y-58729D01*
X14686Y-58767D01*
X14648Y-58729D01*
X14686Y-58691D01*
X14686Y-58767D01*
X15220Y-57967D02*
X15296Y-57967D01*
X15372Y-58005D01*
X15410Y-58043D01*
X15448Y-58119D01*
X15487Y-58272D01*
X15487Y-58462D01*
X15448Y-58614D01*
X15410Y-58691D01*
X15372Y-58729D01*
X15296Y-58767D01*
X15220Y-58767D01*
X15144Y-58729D01*
X15106Y-58691D01*
X15067Y-58614D01*
X15029Y-58462D01*
X15029Y-58272D01*
X15067Y-58119D01*
X15106Y-58043D01*
X15144Y-58005D01*
X15220Y-57967D01*
X15791Y-58043D02*
X15829Y-58005D01*
X15906Y-57967D01*
X16096Y-57967D01*
X16172Y-58005D01*
X16210Y-58043D01*
X16249Y-58119D01*
X16249Y-58195D01*
X16210Y-58310D01*
X15753Y-58767D01*
X16249Y-58767D01*
X16972Y-57967D02*
X16591Y-57967D01*
X16553Y-58348D01*
X16591Y-58310D01*
X16668Y-58272D01*
X16858Y-58272D01*
X16934Y-58310D01*
X16972Y-58348D01*
X17011Y-58424D01*
X17011Y-58614D01*
X16972Y-58691D01*
X16934Y-58729D01*
X16858Y-58767D01*
X16668Y-58767D01*
X16591Y-58729D01*
X16553Y-58691D01*
X17315Y-57967D02*
X17315Y-58119D01*
X17620Y-57967D02*
X17620Y-58119D01*
X19145Y-57929D02*
X18459Y-58957D01*
X20174Y-57967D02*
X20250Y-57967D01*
X20326Y-58005D01*
X20364Y-58043D01*
X20402Y-58119D01*
X20441Y-58272D01*
X20441Y-58462D01*
X20402Y-58614D01*
X20364Y-58691D01*
X20326Y-58729D01*
X20250Y-58767D01*
X20174Y-58767D01*
X20098Y-58729D01*
X20060Y-58691D01*
X20021Y-58614D01*
X19983Y-58462D01*
X19983Y-58272D01*
X20021Y-58119D01*
X20060Y-58043D01*
X20098Y-58005D01*
X20174Y-57967D01*
X20783Y-58691D02*
X20822Y-58729D01*
X20783Y-58767D01*
X20745Y-58729D01*
X20783Y-58691D01*
X20783Y-58767D01*
X21507Y-57967D02*
X21355Y-57967D01*
X21279Y-58005D01*
X21241Y-58043D01*
X21164Y-58157D01*
X21126Y-58310D01*
X21126Y-58614D01*
X21164Y-58691D01*
X21203Y-58729D01*
X21279Y-58767D01*
X21431Y-58767D01*
X21507Y-58729D01*
X21545Y-58691D01*
X21584Y-58614D01*
X21584Y-58424D01*
X21545Y-58348D01*
X21507Y-58310D01*
X21431Y-58272D01*
X21279Y-58272D01*
X21203Y-58310D01*
X21164Y-58348D01*
X21126Y-58424D01*
X22269Y-58233D02*
X22269Y-58767D01*
X22079Y-57929D02*
X21888Y-58500D01*
X22384Y-58500D01*
X22688Y-58767D02*
X22688Y-58233D01*
X22688Y-58310D02*
X22727Y-58272D01*
X22803Y-58233D01*
X22917Y-58233D01*
X22993Y-58272D01*
X23031Y-58348D01*
X23031Y-58767D01*
X23031Y-58348D02*
X23069Y-58272D01*
X23146Y-58233D01*
X23260Y-58233D01*
X23336Y-58272D01*
X23374Y-58348D01*
X23374Y-58767D01*
X23755Y-58767D02*
X23755Y-58233D01*
X23755Y-58310D02*
X23794Y-58272D01*
X23870Y-58233D01*
X23984Y-58233D01*
X24060Y-58272D01*
X24098Y-58348D01*
X24098Y-58767D01*
X24098Y-58348D02*
X24136Y-58272D01*
X24213Y-58233D01*
X24327Y-58233D01*
X24403Y-58272D01*
X24441Y-58348D01*
X24441Y-58767D01*
X25661Y-59072D02*
X25623Y-59033D01*
X25547Y-58919D01*
X25509Y-58843D01*
X25471Y-58729D01*
X25432Y-58538D01*
X25432Y-58386D01*
X25471Y-58195D01*
X25509Y-58081D01*
X25547Y-58005D01*
X25623Y-57891D01*
X25661Y-57853D01*
X26346Y-57967D02*
X25965Y-57967D01*
X25927Y-58348D01*
X25965Y-58310D01*
X26042Y-58272D01*
X26232Y-58272D01*
X26308Y-58310D01*
X26346Y-58348D01*
X26385Y-58424D01*
X26385Y-58614D01*
X26346Y-58691D01*
X26308Y-58729D01*
X26232Y-58767D01*
X26042Y-58767D01*
X25965Y-58729D01*
X25927Y-58691D01*
X27070Y-57967D02*
X26918Y-57967D01*
X26842Y-58005D01*
X26804Y-58043D01*
X26727Y-58157D01*
X26689Y-58310D01*
X26689Y-58614D01*
X26727Y-58691D01*
X26766Y-58729D01*
X26842Y-58767D01*
X26994Y-58767D01*
X27070Y-58729D01*
X27108Y-58691D01*
X27147Y-58614D01*
X27147Y-58424D01*
X27108Y-58348D01*
X27070Y-58310D01*
X26994Y-58272D01*
X26842Y-58272D01*
X26766Y-58310D01*
X26727Y-58348D01*
X26689Y-58424D01*
X28099Y-58767D02*
X28099Y-57967D01*
X28442Y-58767D02*
X28442Y-58348D01*
X28404Y-58272D01*
X28328Y-58233D01*
X28214Y-58233D01*
X28138Y-58272D01*
X28099Y-58310D01*
X28938Y-58767D02*
X28862Y-58729D01*
X28823Y-58691D01*
X28785Y-58614D01*
X28785Y-58386D01*
X28823Y-58310D01*
X28862Y-58272D01*
X28938Y-58233D01*
X29052Y-58233D01*
X29128Y-58272D01*
X29166Y-58310D01*
X29204Y-58386D01*
X29204Y-58614D01*
X29166Y-58691D01*
X29128Y-58729D01*
X29052Y-58767D01*
X28938Y-58767D01*
X29662Y-58767D02*
X29586Y-58729D01*
X29547Y-58653D01*
X29547Y-57967D01*
X30271Y-58729D02*
X30195Y-58767D01*
X30043Y-58767D01*
X29966Y-58729D01*
X29928Y-58653D01*
X29928Y-58348D01*
X29966Y-58272D01*
X30043Y-58233D01*
X30195Y-58233D01*
X30271Y-58272D01*
X30309Y-58348D01*
X30309Y-58424D01*
X29928Y-58500D01*
X30614Y-58729D02*
X30691Y-58767D01*
X30843Y-58767D01*
X30919Y-58729D01*
X30957Y-58653D01*
X30957Y-58614D01*
X30919Y-58538D01*
X30843Y-58500D01*
X30729Y-58500D01*
X30652Y-58462D01*
X30614Y-58386D01*
X30614Y-58348D01*
X30652Y-58272D01*
X30729Y-58233D01*
X30843Y-58233D01*
X30919Y-58272D01*
X31224Y-59072D02*
X31262Y-59033D01*
X31339Y-58919D01*
X31377Y-58843D01*
X31415Y-58729D01*
X31453Y-58538D01*
X31453Y-58386D01*
X31415Y-58195D01*
X31377Y-58081D01*
X31339Y-58005D01*
X31262Y-57891D01*
X31224Y-57853D01*
G54D10*
X13534Y-59499D02*
X13530Y-59530D01*
X13521Y-59559D01*
X13507Y-59587D01*
X13487Y-59611D01*
X13463Y-59631D01*
X13436Y-59646D01*
X13406Y-59655D01*
X13375Y-59658D01*
X13345Y-59656D01*
X13315Y-59647D01*
X13287Y-59632D01*
X13263Y-59613D01*
X13242Y-59589D01*
X13227Y-59562D01*
X13218Y-59532D01*
X13215Y-59501D01*
X13217Y-59471D01*
X13226Y-59441D01*
X13240Y-59413D01*
X13259Y-59388D01*
X13283Y-59368D01*
X13310Y-59353D01*
X13340Y-59343D01*
X13371Y-59340D01*
X13401Y-59342D01*
X13431Y-59350D01*
X13459Y-59364D01*
X13484Y-59384D01*
X13504Y-59407D01*
X13520Y-59434D01*
X13530Y-59464D01*
X13533Y-59495D01*
X13534Y-59499D01*
G54D11*
X14077Y-59023D02*
X14153Y-59023D01*
X14229Y-59061D01*
X14267Y-59099D01*
X14305Y-59175D01*
X14344Y-59328D01*
X14344Y-59518D01*
X14305Y-59670D01*
X14267Y-59747D01*
X14229Y-59785D01*
X14153Y-59823D01*
X14077Y-59823D01*
X14001Y-59785D01*
X13963Y-59747D01*
X13924Y-59670D01*
X13886Y-59518D01*
X13886Y-59328D01*
X13924Y-59175D01*
X13963Y-59099D01*
X14001Y-59061D01*
X14077Y-59023D01*
X14686Y-59747D02*
X14725Y-59785D01*
X14686Y-59823D01*
X14648Y-59785D01*
X14686Y-59747D01*
X14686Y-59823D01*
X15220Y-59023D02*
X15296Y-59023D01*
X15372Y-59061D01*
X15410Y-59099D01*
X15448Y-59175D01*
X15487Y-59328D01*
X15487Y-59518D01*
X15448Y-59670D01*
X15410Y-59747D01*
X15372Y-59785D01*
X15296Y-59823D01*
X15220Y-59823D01*
X15144Y-59785D01*
X15106Y-59747D01*
X15067Y-59670D01*
X15029Y-59518D01*
X15029Y-59328D01*
X15067Y-59175D01*
X15106Y-59099D01*
X15144Y-59061D01*
X15220Y-59023D01*
X15753Y-59023D02*
X16249Y-59023D01*
X15982Y-59328D01*
X16096Y-59328D01*
X16172Y-59366D01*
X16210Y-59404D01*
X16249Y-59480D01*
X16249Y-59670D01*
X16210Y-59747D01*
X16172Y-59785D01*
X16096Y-59823D01*
X15868Y-59823D01*
X15791Y-59785D01*
X15753Y-59747D01*
X16553Y-59099D02*
X16591Y-59061D01*
X16668Y-59023D01*
X16858Y-59023D01*
X16934Y-59061D01*
X16972Y-59099D01*
X17011Y-59175D01*
X17011Y-59251D01*
X16972Y-59366D01*
X16515Y-59823D01*
X17011Y-59823D01*
X17315Y-59023D02*
X17315Y-59175D01*
X17620Y-59023D02*
X17620Y-59175D01*
X19145Y-58985D02*
X18459Y-60013D01*
X20174Y-59023D02*
X20250Y-59023D01*
X20326Y-59061D01*
X20364Y-59099D01*
X20402Y-59175D01*
X20441Y-59328D01*
X20441Y-59518D01*
X20402Y-59670D01*
X20364Y-59747D01*
X20326Y-59785D01*
X20250Y-59823D01*
X20174Y-59823D01*
X20098Y-59785D01*
X20060Y-59747D01*
X20021Y-59670D01*
X19983Y-59518D01*
X19983Y-59328D01*
X20021Y-59175D01*
X20060Y-59099D01*
X20098Y-59061D01*
X20174Y-59023D01*
X20783Y-59747D02*
X20822Y-59785D01*
X20783Y-59823D01*
X20745Y-59785D01*
X20783Y-59747D01*
X20783Y-59823D01*
X21279Y-59366D02*
X21203Y-59328D01*
X21164Y-59289D01*
X21126Y-59213D01*
X21126Y-59175D01*
X21164Y-59099D01*
X21203Y-59061D01*
X21279Y-59023D01*
X21431Y-59023D01*
X21507Y-59061D01*
X21545Y-59099D01*
X21584Y-59175D01*
X21584Y-59213D01*
X21545Y-59289D01*
X21507Y-59328D01*
X21431Y-59366D01*
X21279Y-59366D01*
X21203Y-59404D01*
X21164Y-59442D01*
X21126Y-59518D01*
X21126Y-59670D01*
X21164Y-59747D01*
X21203Y-59785D01*
X21279Y-59823D01*
X21431Y-59823D01*
X21507Y-59785D01*
X21545Y-59747D01*
X21584Y-59670D01*
X21584Y-59518D01*
X21545Y-59442D01*
X21507Y-59404D01*
X21431Y-59366D01*
X22346Y-59823D02*
X21888Y-59823D01*
X22117Y-59823D02*
X22117Y-59023D01*
X22041Y-59137D01*
X21965Y-59213D01*
X21888Y-59251D01*
X22688Y-59823D02*
X22688Y-59289D01*
X22688Y-59366D02*
X22727Y-59328D01*
X22803Y-59289D01*
X22917Y-59289D01*
X22993Y-59328D01*
X23031Y-59404D01*
X23031Y-59823D01*
X23031Y-59404D02*
X23069Y-59328D01*
X23146Y-59289D01*
X23260Y-59289D01*
X23336Y-59328D01*
X23374Y-59404D01*
X23374Y-59823D01*
X23755Y-59823D02*
X23755Y-59289D01*
X23755Y-59366D02*
X23794Y-59328D01*
X23870Y-59289D01*
X23984Y-59289D01*
X24060Y-59328D01*
X24098Y-59404D01*
X24098Y-59823D01*
X24098Y-59404D02*
X24136Y-59328D01*
X24213Y-59289D01*
X24327Y-59289D01*
X24403Y-59328D01*
X24441Y-59404D01*
X24441Y-59823D01*
X25661Y-60128D02*
X25623Y-60089D01*
X25547Y-59975D01*
X25509Y-59899D01*
X25471Y-59785D01*
X25432Y-59594D01*
X25432Y-59442D01*
X25471Y-59251D01*
X25509Y-59137D01*
X25547Y-59061D01*
X25623Y-58947D01*
X25661Y-58909D01*
X26385Y-59823D02*
X25927Y-59823D01*
X26156Y-59823D02*
X26156Y-59023D01*
X26080Y-59137D01*
X26004Y-59213D01*
X25927Y-59251D01*
X27337Y-59823D02*
X27337Y-59023D01*
X27680Y-59823D02*
X27680Y-59404D01*
X27642Y-59328D01*
X27566Y-59289D01*
X27452Y-59289D01*
X27376Y-59328D01*
X27337Y-59366D01*
X28176Y-59823D02*
X28100Y-59785D01*
X28061Y-59747D01*
X28023Y-59670D01*
X28023Y-59442D01*
X28061Y-59366D01*
X28100Y-59328D01*
X28176Y-59289D01*
X28290Y-59289D01*
X28366Y-59328D01*
X28404Y-59366D01*
X28442Y-59442D01*
X28442Y-59670D01*
X28404Y-59747D01*
X28366Y-59785D01*
X28290Y-59823D01*
X28176Y-59823D01*
X28900Y-59823D02*
X28824Y-59785D01*
X28785Y-59709D01*
X28785Y-59023D01*
X29509Y-59785D02*
X29433Y-59823D01*
X29281Y-59823D01*
X29204Y-59785D01*
X29166Y-59709D01*
X29166Y-59404D01*
X29204Y-59328D01*
X29281Y-59289D01*
X29433Y-59289D01*
X29509Y-59328D01*
X29547Y-59404D01*
X29547Y-59480D01*
X29166Y-59556D01*
X29814Y-60128D02*
X29852Y-60089D01*
X29929Y-59975D01*
X29967Y-59899D01*
X30005Y-59785D01*
X30043Y-59594D01*
X30043Y-59442D01*
X30005Y-59251D01*
X29967Y-59137D01*
X29929Y-59061D01*
X29852Y-58947D01*
X29814Y-58909D01*
X13337Y-60358D02*
X13337Y-60752D01*
X13534Y-60555D02*
X13140Y-60555D01*
X14077Y-60079D02*
X14153Y-60079D01*
X14229Y-60117D01*
X14267Y-60155D01*
X14305Y-60231D01*
X14344Y-60384D01*
X14344Y-60574D01*
X14305Y-60726D01*
X14267Y-60803D01*
X14229Y-60841D01*
X14153Y-60879D01*
X14077Y-60879D01*
X14001Y-60841D01*
X13963Y-60803D01*
X13924Y-60726D01*
X13886Y-60574D01*
X13886Y-60384D01*
X13924Y-60231D01*
X13963Y-60155D01*
X14001Y-60117D01*
X14077Y-60079D01*
X14686Y-60803D02*
X14725Y-60841D01*
X14686Y-60879D01*
X14648Y-60841D01*
X14686Y-60803D01*
X14686Y-60879D01*
X15220Y-60079D02*
X15296Y-60079D01*
X15372Y-60117D01*
X15410Y-60155D01*
X15448Y-60231D01*
X15487Y-60384D01*
X15487Y-60574D01*
X15448Y-60726D01*
X15410Y-60803D01*
X15372Y-60841D01*
X15296Y-60879D01*
X15220Y-60879D01*
X15144Y-60841D01*
X15106Y-60803D01*
X15067Y-60726D01*
X15029Y-60574D01*
X15029Y-60384D01*
X15067Y-60231D01*
X15106Y-60155D01*
X15144Y-60117D01*
X15220Y-60079D01*
X15753Y-60079D02*
X16249Y-60079D01*
X15982Y-60384D01*
X16096Y-60384D01*
X16172Y-60422D01*
X16210Y-60460D01*
X16249Y-60536D01*
X16249Y-60726D01*
X16210Y-60803D01*
X16172Y-60841D01*
X16096Y-60879D01*
X15868Y-60879D01*
X15791Y-60841D01*
X15753Y-60803D01*
X16630Y-60879D02*
X16782Y-60879D01*
X16858Y-60841D01*
X16896Y-60803D01*
X16972Y-60688D01*
X17011Y-60536D01*
X17011Y-60231D01*
X16972Y-60155D01*
X16934Y-60117D01*
X16858Y-60079D01*
X16706Y-60079D01*
X16630Y-60117D01*
X16591Y-60155D01*
X16553Y-60231D01*
X16553Y-60422D01*
X16591Y-60498D01*
X16630Y-60536D01*
X16706Y-60574D01*
X16858Y-60574D01*
X16934Y-60536D01*
X16972Y-60498D01*
X17011Y-60422D01*
X17315Y-60079D02*
X17315Y-60231D01*
X17620Y-60079D02*
X17620Y-60231D01*
X19145Y-60041D02*
X18459Y-61069D01*
X20441Y-60879D02*
X19983Y-60879D01*
X20212Y-60879D02*
X20212Y-60079D01*
X20136Y-60193D01*
X20060Y-60269D01*
X19983Y-60307D01*
X20783Y-60803D02*
X20822Y-60841D01*
X20783Y-60879D01*
X20745Y-60841D01*
X20783Y-60803D01*
X20783Y-60879D01*
X21317Y-60079D02*
X21393Y-60079D01*
X21469Y-60117D01*
X21507Y-60155D01*
X21545Y-60231D01*
X21584Y-60384D01*
X21584Y-60574D01*
X21545Y-60726D01*
X21507Y-60803D01*
X21469Y-60841D01*
X21393Y-60879D01*
X21317Y-60879D01*
X21241Y-60841D01*
X21203Y-60803D01*
X21164Y-60726D01*
X21126Y-60574D01*
X21126Y-60384D01*
X21164Y-60231D01*
X21203Y-60155D01*
X21241Y-60117D01*
X21317Y-60079D01*
X22079Y-60079D02*
X22155Y-60079D01*
X22231Y-60117D01*
X22269Y-60155D01*
X22307Y-60231D01*
X22346Y-60384D01*
X22346Y-60574D01*
X22307Y-60726D01*
X22269Y-60803D01*
X22231Y-60841D01*
X22155Y-60879D01*
X22079Y-60879D01*
X22003Y-60841D01*
X21965Y-60803D01*
X21926Y-60726D01*
X21888Y-60574D01*
X21888Y-60384D01*
X21926Y-60231D01*
X21965Y-60155D01*
X22003Y-60117D01*
X22079Y-60079D01*
X22688Y-60879D02*
X22688Y-60345D01*
X22688Y-60422D02*
X22727Y-60384D01*
X22803Y-60345D01*
X22917Y-60345D01*
X22993Y-60384D01*
X23031Y-60460D01*
X23031Y-60879D01*
X23031Y-60460D02*
X23069Y-60384D01*
X23146Y-60345D01*
X23260Y-60345D01*
X23336Y-60384D01*
X23374Y-60460D01*
X23374Y-60879D01*
X23755Y-60879D02*
X23755Y-60345D01*
X23755Y-60422D02*
X23794Y-60384D01*
X23870Y-60345D01*
X23984Y-60345D01*
X24060Y-60384D01*
X24098Y-60460D01*
X24098Y-60879D01*
X24098Y-60460D02*
X24136Y-60384D01*
X24213Y-60345D01*
X24327Y-60345D01*
X24403Y-60384D01*
X24441Y-60460D01*
X24441Y-60879D01*
X25661Y-61184D02*
X25623Y-61145D01*
X25547Y-61031D01*
X25509Y-60955D01*
X25471Y-60841D01*
X25432Y-60650D01*
X25432Y-60498D01*
X25471Y-60307D01*
X25509Y-60193D01*
X25547Y-60117D01*
X25623Y-60003D01*
X25661Y-59965D01*
X25927Y-60155D02*
X25965Y-60117D01*
X26042Y-60079D01*
X26232Y-60079D01*
X26308Y-60117D01*
X26346Y-60155D01*
X26385Y-60231D01*
X26385Y-60307D01*
X26346Y-60422D01*
X25889Y-60879D01*
X26385Y-60879D01*
X27337Y-60879D02*
X27337Y-60079D01*
X27680Y-60879D02*
X27680Y-60460D01*
X27642Y-60384D01*
X27566Y-60345D01*
X27452Y-60345D01*
X27376Y-60384D01*
X27337Y-60422D01*
X28176Y-60879D02*
X28100Y-60841D01*
X28061Y-60803D01*
X28023Y-60726D01*
X28023Y-60498D01*
X28061Y-60422D01*
X28100Y-60384D01*
X28176Y-60345D01*
X28290Y-60345D01*
X28366Y-60384D01*
X28404Y-60422D01*
X28442Y-60498D01*
X28442Y-60726D01*
X28404Y-60803D01*
X28366Y-60841D01*
X28290Y-60879D01*
X28176Y-60879D01*
X28900Y-60879D02*
X28824Y-60841D01*
X28785Y-60765D01*
X28785Y-60079D01*
X29509Y-60841D02*
X29433Y-60879D01*
X29281Y-60879D01*
X29204Y-60841D01*
X29166Y-60765D01*
X29166Y-60460D01*
X29204Y-60384D01*
X29281Y-60345D01*
X29433Y-60345D01*
X29509Y-60384D01*
X29547Y-60460D01*
X29547Y-60536D01*
X29166Y-60612D01*
X29852Y-60841D02*
X29929Y-60879D01*
X30081Y-60879D01*
X30157Y-60841D01*
X30195Y-60765D01*
X30195Y-60726D01*
X30157Y-60650D01*
X30081Y-60612D01*
X29967Y-60612D01*
X29890Y-60574D01*
X29852Y-60498D01*
X29852Y-60460D01*
X29890Y-60384D01*
X29967Y-60345D01*
X30081Y-60345D01*
X30157Y-60384D01*
X30462Y-61184D02*
X30500Y-61145D01*
X30577Y-61031D01*
X30615Y-60955D01*
X30653Y-60841D01*
X30691Y-60650D01*
X30691Y-60498D01*
X30653Y-60307D01*
X30615Y-60193D01*
X30577Y-60117D01*
X30500Y-60003D01*
X30462Y-59965D01*
G54D10*
X13534Y-61611D02*
X13530Y-61649D01*
X13518Y-61687D01*
X13500Y-61721D01*
X13475Y-61751D01*
X13445Y-61776D01*
X13411Y-61795D01*
X13374Y-61806D01*
X13335Y-61810D01*
X13297Y-61807D01*
X13260Y-61796D01*
X13225Y-61778D01*
X13195Y-61753D01*
X13169Y-61723D01*
X13151Y-61689D01*
X13139Y-61652D01*
X13135Y-61613D01*
X13138Y-61575D01*
X13149Y-61538D01*
X13166Y-61503D01*
X13191Y-61473D01*
X13220Y-61447D01*
X13254Y-61428D01*
X13292Y-61416D01*
X13330Y-61412D01*
X13368Y-61415D01*
X13406Y-61425D01*
X13441Y-61443D01*
X13471Y-61467D01*
X13497Y-61496D01*
X13516Y-61530D01*
X13529Y-61567D01*
X13533Y-61606D01*
X13534Y-61611D01*
X13134Y-61411D02*
X13534Y-61811D01*
X13534Y-61411D02*
X13134Y-61811D01*
G54D11*
X14077Y-61135D02*
X14153Y-61135D01*
X14229Y-61173D01*
X14267Y-61211D01*
X14305Y-61287D01*
X14344Y-61440D01*
X14344Y-61630D01*
X14305Y-61782D01*
X14267Y-61859D01*
X14229Y-61897D01*
X14153Y-61935D01*
X14077Y-61935D01*
X14001Y-61897D01*
X13963Y-61859D01*
X13924Y-61782D01*
X13886Y-61630D01*
X13886Y-61440D01*
X13924Y-61287D01*
X13963Y-61211D01*
X14001Y-61173D01*
X14077Y-61135D01*
X14686Y-61859D02*
X14725Y-61897D01*
X14686Y-61935D01*
X14648Y-61897D01*
X14686Y-61859D01*
X14686Y-61935D01*
X15220Y-61135D02*
X15296Y-61135D01*
X15372Y-61173D01*
X15410Y-61211D01*
X15448Y-61287D01*
X15487Y-61440D01*
X15487Y-61630D01*
X15448Y-61782D01*
X15410Y-61859D01*
X15372Y-61897D01*
X15296Y-61935D01*
X15220Y-61935D01*
X15144Y-61897D01*
X15106Y-61859D01*
X15067Y-61782D01*
X15029Y-61630D01*
X15029Y-61440D01*
X15067Y-61287D01*
X15106Y-61211D01*
X15144Y-61173D01*
X15220Y-61135D01*
X16172Y-61401D02*
X16172Y-61935D01*
X15982Y-61097D02*
X15791Y-61668D01*
X16287Y-61668D01*
X16744Y-61135D02*
X16820Y-61135D01*
X16896Y-61173D01*
X16934Y-61211D01*
X16972Y-61287D01*
X17011Y-61440D01*
X17011Y-61630D01*
X16972Y-61782D01*
X16934Y-61859D01*
X16896Y-61897D01*
X16820Y-61935D01*
X16744Y-61935D01*
X16668Y-61897D01*
X16630Y-61859D01*
X16591Y-61782D01*
X16553Y-61630D01*
X16553Y-61440D01*
X16591Y-61287D01*
X16630Y-61211D01*
X16668Y-61173D01*
X16744Y-61135D01*
X17315Y-61135D02*
X17315Y-61287D01*
X17620Y-61135D02*
X17620Y-61287D01*
X19145Y-61097D02*
X18459Y-62125D01*
X20441Y-61935D02*
X19983Y-61935D01*
X20212Y-61935D02*
X20212Y-61135D01*
X20136Y-61249D01*
X20060Y-61325D01*
X19983Y-61363D01*
X20783Y-61859D02*
X20822Y-61897D01*
X20783Y-61935D01*
X20745Y-61897D01*
X20783Y-61859D01*
X20783Y-61935D01*
X21317Y-61135D02*
X21393Y-61135D01*
X21469Y-61173D01*
X21507Y-61211D01*
X21545Y-61287D01*
X21584Y-61440D01*
X21584Y-61630D01*
X21545Y-61782D01*
X21507Y-61859D01*
X21469Y-61897D01*
X21393Y-61935D01*
X21317Y-61935D01*
X21241Y-61897D01*
X21203Y-61859D01*
X21164Y-61782D01*
X21126Y-61630D01*
X21126Y-61440D01*
X21164Y-61287D01*
X21203Y-61211D01*
X21241Y-61173D01*
X21317Y-61135D01*
X21888Y-61211D02*
X21926Y-61173D01*
X22003Y-61135D01*
X22193Y-61135D01*
X22269Y-61173D01*
X22307Y-61211D01*
X22346Y-61287D01*
X22346Y-61363D01*
X22307Y-61478D01*
X21850Y-61935D01*
X22346Y-61935D01*
X22688Y-61935D02*
X22688Y-61401D01*
X22688Y-61478D02*
X22727Y-61440D01*
X22803Y-61401D01*
X22917Y-61401D01*
X22993Y-61440D01*
X23031Y-61516D01*
X23031Y-61935D01*
X23031Y-61516D02*
X23069Y-61440D01*
X23146Y-61401D01*
X23260Y-61401D01*
X23336Y-61440D01*
X23374Y-61516D01*
X23374Y-61935D01*
X23755Y-61935D02*
X23755Y-61401D01*
X23755Y-61478D02*
X23794Y-61440D01*
X23870Y-61401D01*
X23984Y-61401D01*
X24060Y-61440D01*
X24098Y-61516D01*
X24098Y-61935D01*
X24098Y-61516D02*
X24136Y-61440D01*
X24213Y-61401D01*
X24327Y-61401D01*
X24403Y-61440D01*
X24441Y-61516D01*
X24441Y-61935D01*
X25661Y-62240D02*
X25623Y-62201D01*
X25547Y-62087D01*
X25509Y-62011D01*
X25471Y-61897D01*
X25432Y-61706D01*
X25432Y-61554D01*
X25471Y-61363D01*
X25509Y-61249D01*
X25547Y-61173D01*
X25623Y-61059D01*
X25661Y-61021D01*
X25889Y-61135D02*
X26385Y-61135D01*
X26118Y-61440D01*
X26232Y-61440D01*
X26308Y-61478D01*
X26346Y-61516D01*
X26385Y-61592D01*
X26385Y-61782D01*
X26346Y-61859D01*
X26308Y-61897D01*
X26232Y-61935D01*
X26004Y-61935D01*
X25927Y-61897D01*
X25889Y-61859D01*
X27147Y-61935D02*
X26689Y-61935D01*
X26918Y-61935D02*
X26918Y-61135D01*
X26842Y-61249D01*
X26766Y-61325D01*
X26689Y-61363D01*
X28099Y-61935D02*
X28099Y-61135D01*
X28442Y-61935D02*
X28442Y-61516D01*
X28404Y-61440D01*
X28328Y-61401D01*
X28214Y-61401D01*
X28138Y-61440D01*
X28099Y-61478D01*
X28938Y-61935D02*
X28862Y-61897D01*
X28823Y-61859D01*
X28785Y-61782D01*
X28785Y-61554D01*
X28823Y-61478D01*
X28862Y-61440D01*
X28938Y-61401D01*
X29052Y-61401D01*
X29128Y-61440D01*
X29166Y-61478D01*
X29204Y-61554D01*
X29204Y-61782D01*
X29166Y-61859D01*
X29128Y-61897D01*
X29052Y-61935D01*
X28938Y-61935D01*
X29662Y-61935D02*
X29586Y-61897D01*
X29547Y-61821D01*
X29547Y-61135D01*
X30271Y-61897D02*
X30195Y-61935D01*
X30043Y-61935D01*
X29966Y-61897D01*
X29928Y-61821D01*
X29928Y-61516D01*
X29966Y-61440D01*
X30043Y-61401D01*
X30195Y-61401D01*
X30271Y-61440D01*
X30309Y-61516D01*
X30309Y-61592D01*
X29928Y-61668D01*
X30614Y-61897D02*
X30691Y-61935D01*
X30843Y-61935D01*
X30919Y-61897D01*
X30957Y-61821D01*
X30957Y-61782D01*
X30919Y-61706D01*
X30843Y-61668D01*
X30729Y-61668D01*
X30652Y-61630D01*
X30614Y-61554D01*
X30614Y-61516D01*
X30652Y-61440D01*
X30729Y-61401D01*
X30843Y-61401D01*
X30919Y-61440D01*
X31224Y-62240D02*
X31262Y-62201D01*
X31339Y-62087D01*
X31377Y-62011D01*
X31415Y-61897D01*
X31453Y-61706D01*
X31453Y-61554D01*
X31415Y-61363D01*
X31377Y-61249D01*
X31339Y-61173D01*
X31262Y-61059D01*
X31224Y-61021D01*
M02*
