M48
;DRILL file {PCBnew (2011-06-08)-testing} date Di 21 Jun 2011 15:41:50 CEST
;FORMAT={-:-/ absolute / inch / decimal}
FMAT,2
INCH,TZ
T1C0.025
T2C0.032
T3C0.035
T4C0.039
T5C0.040
%
G90
G05
M72
T1
X1.807Y-4.262
X2.070Y-4.406
X2.282Y-4.224
X2.326Y-4.268
X2.380Y-4.311
X2.389Y-4.160
X2.770Y-4.661
X2.800Y-4.507
X2.809Y-4.416
X2.862Y-4.277
X2.912Y-4.646
X2.919Y-4.756
X2.920Y-5.410
X2.965Y-4.763
X2.978Y-4.436
X2.983Y-4.899
X3.001Y-4.945
X3.005Y-5.230
X3.006Y-4.839
X3.092Y-4.405
X3.097Y-4.976
X3.113Y-4.904
X3.115Y-5.192
X3.122Y-4.729
X3.142Y-4.781
X3.143Y-4.829
X3.151Y-4.651
X3.173Y-4.721
X3.199Y-4.773
X3.202Y-5.000
X3.232Y-4.837
X3.277Y-4.337
X3.278Y-5.182
X3.281Y-4.580
X3.290Y-4.744
X3.306Y-4.691
X3.317Y-4.526
X3.333Y-5.180
X3.364Y-5.000
X3.413Y-4.798
X3.419Y-4.390
X3.447Y-4.591
X3.460Y-4.972
X3.474Y-4.783
X3.474Y-4.696
X3.476Y-4.925
X3.552Y-4.251
X3.568Y-4.886
X3.591Y-4.729
X3.597Y-5.383
X3.627Y-4.832
X3.635Y-4.690
X3.815Y-4.804
X3.893Y-5.048
X3.942Y-5.328
X4.048Y-4.543
X4.103Y-5.285
T2
X2.670Y-3.720
T3
X4.565Y-4.931
X4.565Y-5.069
T4
X4.397Y-4.010
X4.633Y-4.010
T5
X2.670Y-3.620
X2.770Y-3.620
X2.770Y-3.720
X2.870Y-3.620
X2.870Y-3.720
X2.970Y-3.620
X2.970Y-3.720
X3.070Y-3.620
X3.070Y-3.720
X3.170Y-3.620
X3.170Y-3.720
X3.270Y-3.620
X3.270Y-3.720
X3.370Y-3.620
X3.370Y-3.720
X3.470Y-3.620
X3.470Y-3.720
X3.570Y-3.620
X3.570Y-3.720
X3.725Y-3.895
X3.825Y-3.895
X3.955Y-3.895
X4.055Y-3.895
X4.220Y-3.620
X4.320Y-3.620
X4.420Y-3.620
X4.520Y-3.620
X4.620Y-3.620
X4.660Y-5.370
X4.660Y-5.470
X4.720Y-3.620
T0
M30
