M48
;DRILL file {PCBnew (2011-06-08)-testing} date Fr 01 Jul 2011 23:27:50 CEST
;FORMAT={-:-/ absolute / inch / decimal}
FMAT,2
INCH,TZ
T1C0.012
T2C0.025
T3C0.028
T4C0.032
T5C0.035
T6C0.039
T7C0.040
T8C0.047
T9C0.087
T10C0.130
%
G90
G05
M72
T2
X1.985Y-4.920
X2.015Y-5.085
X2.191Y-4.927
X2.192Y-4.836
X2.225Y-5.090
X2.233Y-4.978
X2.273Y-4.642
X2.281Y-4.261
X2.300Y-4.537
X2.307Y-4.479
X2.384Y-4.804
X2.422Y-5.008
X2.445Y-5.180
X2.534Y-5.075
X2.551Y-4.675
X2.605Y-4.782
X2.606Y-4.735
X2.647Y-5.013
X2.650Y-4.020
X2.705Y-3.890
X2.725Y-4.728
X2.727Y-4.973
X2.778Y-4.185
X2.789Y-5.102
X2.863Y-4.847
X2.866Y-5.006
X2.903Y-4.252
X2.920Y-5.194
X2.964Y-4.870
X2.970Y-5.485
X2.974Y-4.777
X2.981Y-4.941
X2.994Y-4.129
X3.035Y-4.891
X3.052Y-5.005
X3.057Y-5.423
X3.111Y-4.797
X3.123Y-4.989
X3.144Y-4.662
X3.166Y-5.019
X3.171Y-4.706
X3.185Y-5.450
X3.212Y-4.801
X3.233Y-5.258
X3.238Y-4.659
X3.245Y-4.614
X3.250Y-5.365
X3.251Y-5.309
X3.270Y-4.906
X3.300Y-5.510
X3.328Y-5.121
X3.340Y-4.939
X3.346Y-5.037
X3.365Y-4.623
X3.385Y-5.063
X3.395Y-4.415
X3.404Y-4.869
X3.413Y-4.606
X3.418Y-5.025
X3.467Y-4.684
X3.488Y-4.956
X3.500Y-4.750
X3.548Y-4.937
X3.570Y-4.590
X3.723Y-4.684
X3.773Y-5.465
X3.810Y-4.525
X3.810Y-4.765
X3.849Y-5.047
X3.971Y-4.876
X4.068Y-4.598
X4.098Y-4.642
X4.245Y-4.275
X4.245Y-4.075
X4.320Y-4.930
X4.369Y-4.830
X4.390Y-5.145
X4.590Y-5.020
X4.640Y-4.574
X4.750Y-4.220
T3
X4.477Y-4.867
X4.477Y-4.930
X4.477Y-4.993
X4.525Y-4.899
X4.525Y-4.962
T4
X2.755Y-3.705
T6
X2.901Y-4.065
X2.901Y-4.165
X3.051Y-4.065
X3.051Y-5.565
X3.151Y-4.065
X3.151Y-5.565
X3.251Y-4.065
X3.251Y-5.565
X3.351Y-4.065
X3.351Y-5.565
T7
X2.755Y-3.605
X2.855Y-3.605
X2.855Y-3.705
X2.955Y-3.605
X2.955Y-3.705
X3.055Y-3.605
X3.055Y-3.705
X3.155Y-3.605
X3.155Y-3.705
X3.255Y-3.605
X3.255Y-3.705
X3.355Y-3.605
X3.355Y-3.705
X3.455Y-3.605
X3.455Y-3.705
X3.555Y-3.605
X3.555Y-3.705
X3.655Y-3.605
X3.655Y-3.705
X3.790Y-3.910
X3.890Y-3.910
X3.990Y-3.910
X4.090Y-3.910
X4.220Y-3.620
X4.320Y-3.620
X4.420Y-3.620
X4.520Y-3.620
X4.620Y-3.620
X4.660Y-5.370
X4.660Y-5.470
X4.720Y-3.620
T8
X4.565Y-3.960
T9
X1.938Y-4.815
X4.222Y-4.815
T10
X1.938Y-4.421
X1.938Y-5.209
X4.222Y-4.421
X4.222Y-5.209
T1
X4.388Y-3.978G85X4.388Y-3.942
G05
X4.484Y-3.887G85X4.449Y-3.887
G05
X4.484Y-4.033G85X4.449Y-4.033
G05
X4.660Y-3.978G85X4.660Y-3.942
G05
T5
X4.696Y-4.786G85X4.656Y-4.786
G05
X4.696Y-5.074G85X4.656Y-5.074
G05
T0
M30
