M48
;DRILL file {PCBnew (2010-00-09 BZR 23xx)-stable} date So 15 Mai 2011 12:34:48 CEST
;FORMAT={-.-/ absolute / inch / decimal}
R,T
VER,1
FMAT,2
INCH,TZ
TCST,OFF
ICI,OFF
ATC,ON
T1C0.025
T2C0.032
T3C0.039
T4C0.040
%
M47
G05
M72
T1
X2.043Y-4.183
X2.104Y-4.188
X2.235Y-4.480
X2.242Y-4.430
X2.253Y-4.215
X2.341Y-4.204
X2.345Y-4.981
X2.438Y-4.348
X2.527Y-4.291
X2.613Y-5.187
X2.666Y-5.130
X2.710Y-4.554
X2.787Y-5.104
X2.849Y-4.746
X2.852Y-4.567
X2.852Y-4.877
X2.852Y-4.808
X2.943Y-5.069
X2.982Y-5.135
X2.991Y-4.805
X2.999Y-4.956
X3.004Y-4.697
X3.051Y-4.942
X3.112Y-4.424
X3.115Y-4.918
X3.123Y-4.714
X3.231Y-4.571
X3.232Y-4.702
X3.234Y-5.145
X3.236Y-5.038
X3.260Y-4.999
X3.275Y-4.761
X3.309Y-4.731
X3.347Y-4.508
X3.348Y-4.390
X3.362Y-5.034
X3.391Y-4.860
X3.401Y-4.805
X3.407Y-5.011
X3.431Y-4.391
X3.439Y-4.976
X3.460Y-4.863
X3.472Y-4.687
X3.472Y-4.582
X3.482Y-4.225
X3.489Y-4.434
X3.509Y-5.002
X3.520Y-4.911
X3.575Y-5.501
X3.605Y-4.704
X3.777Y-4.565
X3.905Y-4.215
X3.912Y-4.718
X3.926Y-4.416
X4.635Y-4.942
X4.688Y-3.824
T2
X2.670Y-3.720
T3
X4.402Y-3.865
X4.638Y-3.865
T4
X2.670Y-3.620
X2.770Y-3.620
X2.770Y-3.720
X2.870Y-3.620
X2.870Y-3.720
X2.970Y-3.620
X2.970Y-3.720
X3.070Y-3.620
X3.070Y-3.720
X3.170Y-3.620
X3.170Y-3.720
X3.270Y-3.620
X3.270Y-3.720
X3.370Y-3.620
X3.370Y-3.720
X3.470Y-3.620
X3.470Y-3.720
X3.570Y-3.620
X3.570Y-3.720
X3.640Y-3.975
X3.740Y-3.975
X3.825Y-3.615
X3.825Y-3.715
X3.925Y-3.615
X3.925Y-3.715
X3.940Y-3.970
X4.025Y-3.615
X4.025Y-3.715
X4.040Y-3.970
X4.660Y-5.370
X4.660Y-5.470
T0
M30
